<?xml version="1.0" encoding="UTF-8"?><svg id="Layer_2" xmlns="http://www.w3.org/2000/svg" viewBox="0 0 439.2 439.2"><defs><style>.cls-1,.cls-2{fill:#eaa8a9;}.cls-3{fill:none;stroke:#407f9f;stroke-width:13px;}.cls-3,.cls-2{stroke-miterlimit:10;}.cls-2{stroke:#af3336;stroke-width:5px;}.cls-4{fill:#af3336;}</style></defs><g id="Layer_4"><path class="cls-4" d="M114,205.63c-12.1,1.9-25.2,3.9-29.2,4.5-4.8.7-9.1.7-13.4-.2-4.4-.9-7.6-2.4-10.7-4.9-2.9-2.3-5.5-5.7-7-9-1.3-3.1-2.6-7.3-2.8-9.4-.3-2.1-.1-6.1.3-9.1.5-3.4,2.1-7,4.3-10.3,2.3-3.4,5.2-6.1,8.5-7.6,3.3-1.7,11.9-3.6,25.8-5.8,11.5-1.8,23.9-3.7,27.6-4.3,3.6-.5,9.4-.6,12.9,0,4.4.7,7.6,1.9,10.5,4.1,2.4,1.7,5.6,5.2,7.2,7.8,1.6,2.6,3.2,7.3,3.7,10.3.4,3.1.3,7.9-.2,10.7-.5,2.9-2.1,7-3.4,9.2-1.4,2.1-4.7,5.4-7.4,7.2-4.2,3-7.2,3.8-26.7,6.8Z"/><path class="cls-1" d="M117.1,199.73c-9,1.3-21.5,3.2-27.6,4.3-6.1,1-12.9,1.5-15.3,1.3-2.3-.3-5.8-1.4-7.7-2.5-1.9-1.2-4.8-4.2-6.5-6.8-1.6-2.6-3.4-6.8-3.6-9.1-.4-2.3-.4-6.1-.1-8.3.3-2.1,1.5-5.4,2.6-7.1,1-1.7,3.8-4.5,6-5.9,3.5-2.5,8.3-3.5,32-7.2,18.7-2.9,29.3-4,32.7-3.5,3.5.5,6.4,1.9,9,4.1,2.5,2,4.9,5.3,5.9,8.1,1.1,2.7,1.9,6.9,1.9,9.2.1,2.4-.4,6.3-1.2,8.6-.9,3.3-2.7,5.4-6.5,8.3-4.7,3.6-6.4,4.1-21.6,6.5Z"/><path class="cls-4" d="M122.8,189.83c-1,.9-2.9,2.2-4.4,2.8-1.4.5-3.6.7-4.8.6-1.4-.2-3.8-1.3-5.3-2.4-1.7-1.1-3.4-3.8-3.9-6-.7-3-.7-4.7.6-7.4.9-1.9,3-4.3,4.9-5.2,1.9-1.1,4.8-1.5,7.2-1,2.9.5,4.6,1.6,6.5,4.2,1.4,1.9,2.6,4.7,2.4,6.1-.1,1.3-.5,3.3-.8,4.4-.3,1.1-1.3,2.9-2.4,3.9Z"/><g id="Red_Bacteria"><path id="Body" class="cls-2" d="M232.49,265.7l-3.72-.55c-12.6-2.08-21.23-14.04-19.15-26.63l8.57-52.29c2.15-13.45,15.04-22.66,28.41-20.46l.5.05c13.45,2.15,22.66,15.04,20.46,28.41l-8.52,52.37c-1.99,12.54-14,21.1-26.55,19.1Z"/><circle class="cls-4" cx="234.89" cy="197.04" r="10.5"/></g><path id="Body-2" class="cls-2" d="M183.3,280.91l-.06,3.75c-.03,12.8-10.47,23.15-23.27,23.12l-52.89-.12c-13.65-.03-24.78-11.24-24.68-24.82v-.57c.03-13.65,11.24-24.78,24.81-24.68l52.89.12c12.8.03,23.3,10.47,23.19,23.19Z"/><circle class="cls-4" cx="115.09" cy="289.39" r="10.5"/><path id="Body-3" class="cls-2" d="M383.54,251.52l1.84,3.26c6.44,11.06,2.67,25.27-8.39,31.71l-45.61,26.65c-11.79,6.87-27.06,2.83-33.84-8.94l-.29-.49c-6.87-11.79-2.83-27.06,8.94-33.84l45.7-26.62c11.06-6.44,25.27-2.67,31.64,8.27Z"/><circle class="cls-4" cx="352.49" cy="272.21" r="10.5"/><path id="Body-4" class="cls-2" d="M345.68,101.89l3.5,1.38c11.78,4.76,17.5,18.35,12.8,30.21l-19.88,49.1c-5.12,12.6-19.6,18.81-32.27,13.61l-.47-.26c-12.6-5.12-18.81-19.6-13.61-32.27l19.88-49.1c4.69-11.71,18.27-17.44,30.05-12.67Z"/><circle class="cls-4" cx="337.3" cy="151.05" r="10.5"/><path id="Body-5" class="cls-2" d="M164.75,47.67l3.51-1.35c11.89-4.47,25.3,1.65,29.87,13.56l18.62,49.59c4.76,12.74-1.69,27.11-14.53,31.86l-.52.13c-12.74,4.76-27.11-1.69-31.86-14.53l-18.62-49.59c-4.5-11.7,1.63-25.1,13.53-29.67Z"/><circle class="cls-4" cx="169.81" cy="73.36" r="10.5"/><path id="Body-6" class="cls-2" d="M268.74,366.1l-.84,3.67c-2.83,12.43-15.31,20.33-27.74,17.49l-51.55-11.71c-13.24-2.98-21.71-16.42-18.63-29.67l.06-.51c2.98-13.24,16.42-21.71,29.67-18.63l51.55,11.71c12.42,2.73,20.32,15.21,17.48,27.64Z"/><circle class="cls-4" cx="198.8" cy="345.26" r="10.5"/><g id="real_Perti_Dish"><circle class="cls-3" cx="219.6" cy="219.6" r="213.1"/></g></g></svg>