<?xml version="1.0" encoding="UTF-8"?>
<svg xmlns="http://www.w3.org/2000/svg" version="1.1" xmlns:xlink="http://www.w3.org/1999/xlink" viewBox="0 0 1152 648">
  <defs>
    <style>
      .cls-1 {
        clip-path: url(#clippath-6);
      }

      .cls-2 {
        clip-path: url(#clippath-7);
      }

      .cls-3 {
        clip-path: url(#clippath-15);
      }

      .cls-4 {
        clip-path: url(#clippath-4);
      }

      .cls-5 {
        clip-path: url(#clippath-9);
      }

      .cls-6 {
        clip-path: url(#clippath-10);
      }

      .cls-7, .cls-8, .cls-9, .cls-10 {
        fill: none;
      }

      .cls-7, .cls-9 {
        stroke-linecap: square;
      }

      .cls-7, .cls-9, .cls-11, .cls-12, .cls-10 {
        stroke-width: 4px;
      }

      .cls-7, .cls-11, .cls-12, .cls-10 {
        stroke-linejoin: round;
      }

      .cls-7, .cls-11, .cls-10 {
        stroke: #5f9ea0;
      }

      .cls-13 {
        clip-path: url(#clippath-11);
      }

      .cls-9, .cls-12 {
        stroke: #000;
      }

      .cls-14 {
        clip-path: url(#clippath-1);
      }

      .cls-15 {
        clip-path: url(#clippath-5);
      }

      .cls-11 {
        fill: #5f9ea0;
      }

      .cls-16 {
        clip-path: url(#clippath-8);
      }

      .cls-17 {
        clip-path: url(#clippath-3);
      }

      .cls-18 {
        clip-path: url(#clippath-12);
      }

      .cls-19 {
        clip-path: url(#clippath-14);
      }

      .cls-20 {
        clip-path: url(#clippath-2);
      }

      .cls-21 {
        clip-path: url(#clippath-13);
      }

      .cls-22 {
        clip-path: url(#clippath);
      }
    </style>
    <clipPath id="clippath">
      <rect class="cls-8" x="48.6" y="4.8" width="874.7" height="604"/>
    </clipPath>
    <clipPath id="clippath-1">
      <rect class="cls-8" x="48.6" y="4.8" width="874.7" height="604"/>
    </clipPath>
    <clipPath id="clippath-2">
      <rect class="cls-8" x="48.6" y="4.8" width="874.7" height="604"/>
    </clipPath>
    <clipPath id="clippath-3">
      <rect class="cls-8" x="48.6" y="4.8" width="874.7" height="604"/>
    </clipPath>
    <clipPath id="clippath-4">
      <rect class="cls-8" x="48.6" y="4.8" width="874.7" height="604"/>
    </clipPath>
    <clipPath id="clippath-5">
      <rect class="cls-8" x="48.6" y="4.8" width="874.7" height="604"/>
    </clipPath>
    <clipPath id="clippath-6">
      <rect class="cls-8" x="48.6" y="4.8" width="874.7" height="604"/>
    </clipPath>
    <clipPath id="clippath-7">
      <rect class="cls-8" x="48.6" y="4.8" width="874.7" height="604"/>
    </clipPath>
    <clipPath id="clippath-8">
      <rect class="cls-8" x="48.6" y="4.8" width="874.7" height="604"/>
    </clipPath>
    <clipPath id="clippath-9">
      <rect class="cls-8" x="48.6" y="4.8" width="874.7" height="604"/>
    </clipPath>
    <clipPath id="clippath-10">
      <rect class="cls-8" x="48.6" y="4.8" width="874.7" height="604"/>
    </clipPath>
    <clipPath id="clippath-11">
      <rect class="cls-8" x="48.6" y="4.8" width="874.7" height="604"/>
    </clipPath>
    <clipPath id="clippath-12">
      <rect class="cls-8" x="48.6" y="4.8" width="874.7" height="604"/>
    </clipPath>
    <clipPath id="clippath-13">
      <rect class="cls-8" x="48.6" y="4.8" width="874.7" height="604"/>
    </clipPath>
    <clipPath id="clippath-14">
      <rect class="cls-8" x="48.6" y="4.8" width="874.7" height="604"/>
    </clipPath>
    <clipPath id="clippath-15">
      <rect class="cls-8" x="48.6" y="4.8" width="874.7" height="604"/>
    </clipPath>
  </defs>
  <!-- Generator: Adobe Illustrator 28.7.1, SVG Export Plug-In . SVG Version: 1.2.0 Build 142)  -->
  <g>
    <g id="Layer_1">
      <g id="figure_1">
        <g id="patch_1">
          <path class="cls-8" d="M0,648h1152V0H0v648Z"/>
        </g>
        <g id="axes_1">
          <g id="patch_2">
            <path class="cls-8" d="M48.6,608.8h874.7V4.8H48.6v604Z"/>
          </g>
          <g id="matplotlib.axis_1">
            <g id="xtick_1">
              <g id="line2d_1">
                <path id="mdcad2c754d" class="cls-12" d="M88.3,608.8v3.5"/>
              </g>
              <g id="text_1">
                <path id="DejaVuSans-30" d="M88.3,616.8c-.5,0-.9.3-1.1.8-.3.5-.4,1.3-.4,2.3s.1,1.7.4,2.2c.3.5.6.8,1.1.8s.9-.3,1.2-.8c.3-.5.4-1.2.4-2.2s-.1-1.8-.4-2.3c-.3-.5-.6-.8-1.2-.8ZM88.3,616c.8,0,1.4.3,1.9,1,.4.6.6,1.6.6,2.8s-.2,2.2-.6,2.8c-.4.6-1.1,1-1.9,1s-1.4-.3-1.9-1c-.4-.6-.6-1.6-.6-2.8s.2-2.2.6-2.8c.4-.6,1.1-1,1.9-1Z"/>
              </g>
            </g>
            <g id="xtick_2">
              <g id="line2d_2">
                <path id="mdcad2c754d-2" data-name="mdcad2c754d" class="cls-12" d="M167.8,608.8v3.5"/>
              </g>
              <g id="text_2">
                <path id="DejaVuSans-35" d="M165.7,616.1h3.9v.8h-3v1.8c.1,0,.3,0,.4-.1.1,0,.3,0,.4,0,.8,0,1.5.2,1.9.7.5.4.7,1,.7,1.8s-.2,1.4-.7,1.8c-.5.4-1.2.7-2.1.7s-.6,0-.9,0c-.3,0-.6-.1-1-.2v-1c.3.2.6.3.9.4s.6.1,1,.1c.6,0,1-.1,1.3-.4.3-.3.5-.7.5-1.2s-.2-.9-.5-1.2c-.3-.3-.8-.4-1.3-.4s-.5,0-.8,0c-.3,0-.5.1-.8.3v-3.7Z"/>
              </g>
            </g>
            <g id="xtick_3">
              <g id="line2d_3">
                <path id="mdcad2c754d-3" data-name="mdcad2c754d" class="cls-12" d="M247.4,608.8v3.5"/>
              </g>
              <g id="text_3">
                <g>
                  <path id="DejaVuSans-31" d="M242.2,622.6h1.6v-5.6l-1.8.4v-.9l1.7-.4h1v6.5h1.6v.8h-4.2v-.8Z"/>
                  <path id="DejaVuSans-30-2" data-name="DejaVuSans-30" d="M250.5,616.8c-.5,0-.9.3-1.1.8-.3.5-.4,1.3-.4,2.3s.1,1.7.4,2.2c.3.5.6.8,1.1.8s.9-.3,1.2-.8c.3-.5.4-1.2.4-2.2s-.1-1.8-.4-2.3c-.3-.5-.6-.8-1.2-.8ZM250.5,616c.8,0,1.4.3,1.9,1,.4.6.6,1.6.6,2.8s-.2,2.2-.6,2.8c-.4.6-1.1,1-1.9,1s-1.4-.3-1.9-1c-.4-.6-.6-1.6-.6-2.8s.2-2.2.6-2.8c.4-.6,1.1-1,1.9-1Z"/>
                </g>
              </g>
            </g>
            <g id="xtick_4">
              <g id="line2d_4">
                <path id="mdcad2c754d-4" data-name="mdcad2c754d" class="cls-12" d="M326.9,608.8v3.5"/>
              </g>
              <g id="text_4">
                <g>
                  <path id="DejaVuSans-31-2" data-name="DejaVuSans-31" d="M321.8,622.6h1.6v-5.6l-1.8.4v-.9l1.7-.4h1v6.5h1.6v.8h-4.2v-.8Z"/>
                  <path id="DejaVuSans-35-2" data-name="DejaVuSans-35" d="M328,616.1h3.9v.8h-3v1.8c.1,0,.3,0,.4-.1.1,0,.3,0,.4,0,.8,0,1.5.2,1.9.7.5.4.7,1,.7,1.8s-.2,1.4-.7,1.8c-.5.4-1.2.7-2.1.7s-.6,0-.9,0c-.3,0-.6-.1-1-.2v-1c.3.2.6.3.9.4s.6.1,1,.1c.6,0,1-.1,1.3-.4.3-.3.5-.7.5-1.2s-.2-.9-.5-1.2c-.3-.3-.8-.4-1.3-.4s-.5,0-.8,0c-.3,0-.5.1-.8.3v-3.7Z"/>
                </g>
              </g>
            </g>
            <g id="xtick_5">
              <g id="line2d_5">
                <path id="mdcad2c754d-5" data-name="mdcad2c754d" class="cls-12" d="M406.4,608.8v3.5"/>
              </g>
              <g id="text_5">
                <g>
                  <path id="DejaVuSans-32" d="M401.9,622.6h3.4v.8h-4.6v-.8c.4-.4.9-.9,1.5-1.6.6-.7,1.1-1.1,1.2-1.3.3-.4.5-.7.7-.9.1-.2.2-.5.2-.7,0-.4-.1-.7-.4-.9-.3-.2-.6-.4-1.1-.4s-.6,0-1,.2c-.3.1-.7.3-1.1.5v-1c.4-.2.8-.3,1.1-.4.3,0,.7-.1.9-.1.8,0,1.4.2,1.8.6.4.4.7.9.7,1.5s0,.6-.2.9c-.1.3-.3.6-.6.9,0,0-.3.4-.8.8-.4.5-1.1,1.1-1.8,1.9Z"/>
                  <path id="DejaVuSans-30-3" data-name="DejaVuSans-30" d="M409.6,616.8c-.5,0-.9.3-1.1.8-.3.5-.4,1.3-.4,2.3s.1,1.7.4,2.2c.3.5.6.8,1.1.8s.9-.3,1.2-.8c.3-.5.4-1.2.4-2.2s-.1-1.8-.4-2.3c-.3-.5-.6-.8-1.2-.8ZM409.6,616c.8,0,1.4.3,1.9,1,.4.6.6,1.6.6,2.8s-.2,2.2-.6,2.8c-.4.6-1.1,1-1.9,1s-1.4-.3-1.9-1c-.4-.6-.6-1.6-.6-2.8s.2-2.2.6-2.8c.4-.6,1.1-1,1.9-1Z"/>
                </g>
              </g>
            </g>
            <g id="xtick_6">
              <g id="line2d_6">
                <path id="mdcad2c754d-6" data-name="mdcad2c754d" class="cls-12" d="M485.9,608.8v3.5"/>
              </g>
              <g id="text_6">
                <g>
                  <path id="DejaVuSans-32-2" data-name="DejaVuSans-32" d="M481.5,622.6h3.4v.8h-4.6v-.8c.4-.4.9-.9,1.5-1.6.6-.7,1.1-1.1,1.2-1.3.3-.4.5-.7.7-.9.1-.2.2-.5.2-.7,0-.4-.1-.7-.4-.9-.3-.2-.6-.4-1.1-.4s-.6,0-1,.2c-.3.1-.7.3-1.1.5v-1c.4-.2.8-.3,1.1-.4.3,0,.7-.1.9-.1.8,0,1.4.2,1.8.6.4.4.7.9.7,1.5s0,.6-.2.9c-.1.3-.3.6-.6.9,0,0-.3.4-.8.8-.4.5-1.1,1.1-1.8,1.9Z"/>
                  <path id="DejaVuSans-35-3" data-name="DejaVuSans-35" d="M487,616.1h3.9v.8h-3v1.8c.1,0,.3,0,.4-.1.1,0,.3,0,.4,0,.8,0,1.5.2,1.9.7.5.4.7,1,.7,1.8s-.2,1.4-.7,1.8c-.5.4-1.2.7-2.1.7s-.6,0-.9,0c-.3,0-.6-.1-1-.2v-1c.3.2.6.3.9.4s.6.1,1,.1c.6,0,1-.1,1.3-.4.3-.3.5-.7.5-1.2s-.2-.9-.5-1.2c-.3-.3-.8-.4-1.3-.4s-.5,0-.8,0c-.3,0-.5.1-.8.3v-3.7Z"/>
                </g>
              </g>
            </g>
            <g id="xtick_7">
              <g id="line2d_7">
                <path id="mdcad2c754d-7" data-name="mdcad2c754d" class="cls-12" d="M565.4,608.8v3.5"/>
              </g>
              <g id="text_7">
                <g>
                  <path id="DejaVuSans-33" d="M563.1,619.5c.5.1.8.3,1.1.6.3.3.4.7.4,1.2,0,.7-.2,1.3-.7,1.7-.5.4-1.2.6-2.1.6s-.6,0-.9,0c-.3,0-.7-.2-1-.3v-1c.3.2.6.3.9.4.3,0,.7.1,1,.1.6,0,1.1-.1,1.4-.4s.5-.6.5-1.1-.2-.8-.5-1c-.3-.2-.7-.4-1.3-.4h-.9v-.8h.9c.5,0,.9,0,1.1-.3s.4-.5.4-.8-.1-.7-.4-.9c-.3-.2-.6-.3-1.1-.3s-.6,0-.9,0c-.3,0-.6.1-1,.3v-.9c.4-.1.7-.2,1.1-.2s.6,0,.9,0c.7,0,1.3.2,1.8.5.4.3.7.8.7,1.4s-.1.7-.3,1-.6.5-1,.6Z"/>
                  <path id="DejaVuSans-30-4" data-name="DejaVuSans-30" d="M568.6,616.8c-.5,0-.9.3-1.1.8-.3.5-.4,1.3-.4,2.3s.1,1.7.4,2.2c.3.5.6.8,1.1.8s.9-.3,1.2-.8c.3-.5.4-1.2.4-2.2s-.1-1.8-.4-2.3c-.3-.5-.6-.8-1.2-.8ZM568.6,616c.8,0,1.4.3,1.9,1,.4.6.6,1.6.6,2.8s-.2,2.2-.6,2.8c-.4.6-1.1,1-1.9,1s-1.4-.3-1.9-1c-.4-.6-.6-1.6-.6-2.8s.2-2.2.6-2.8c.4-.6,1.1-1,1.9-1Z"/>
                </g>
              </g>
            </g>
            <g id="xtick_8">
              <g id="line2d_8">
                <path id="mdcad2c754d-8" data-name="mdcad2c754d" class="cls-12" d="M644.9,608.8v3.5"/>
              </g>
              <g id="text_8">
                <g>
                  <path id="DejaVuSans-33-2" data-name="DejaVuSans-33" d="M642.6,619.5c.5.1.8.3,1.1.6.3.3.4.7.4,1.2,0,.7-.2,1.3-.7,1.7-.5.4-1.2.6-2.1.6s-.6,0-.9,0c-.3,0-.7-.2-1-.3v-1c.3.2.6.3.9.4.3,0,.7.1,1,.1.6,0,1.1-.1,1.4-.4s.5-.6.5-1.1-.2-.8-.5-1c-.3-.2-.7-.4-1.3-.4h-.9v-.8h.9c.5,0,.9,0,1.1-.3s.4-.5.4-.8-.1-.7-.4-.9c-.3-.2-.6-.3-1.1-.3s-.6,0-.9,0c-.3,0-.6.1-1,.3v-.9c.4-.1.7-.2,1.1-.2s.6,0,.9,0c.7,0,1.3.2,1.8.5.4.3.7.8.7,1.4s-.1.7-.3,1-.6.5-1,.6Z"/>
                  <path id="DejaVuSans-35-4" data-name="DejaVuSans-35" d="M646,616.1h3.9v.8h-3v1.8c.1,0,.3,0,.4-.1.1,0,.3,0,.4,0,.8,0,1.5.2,1.9.7.5.4.7,1,.7,1.8s-.2,1.4-.7,1.8c-.5.4-1.2.7-2.1.7s-.6,0-.9,0c-.3,0-.6-.1-1-.2v-1c.3.2.6.3.9.4s.6.1,1,.1c.6,0,1-.1,1.3-.4.3-.3.5-.7.5-1.2s-.2-.9-.5-1.2c-.3-.3-.8-.4-1.3-.4s-.5,0-.8,0c-.3,0-.5.1-.8.3v-3.7Z"/>
                </g>
              </g>
            </g>
            <g id="xtick_9">
              <g id="line2d_9">
                <path id="mdcad2c754d-9" data-name="mdcad2c754d" class="cls-12" d="M724.4,608.8v3.5"/>
              </g>
              <g id="text_9">
                <g>
                  <path id="DejaVuSans-34" d="M721.9,617l-2.5,3.9h2.5v-3.9ZM721.6,616.1h1.2v4.8h1v.8h-1v1.7h-1v-1.7h-3.3v-1l3-4.6Z"/>
                  <path id="DejaVuSans-30-5" data-name="DejaVuSans-30" d="M727.6,616.8c-.5,0-.9.3-1.1.8-.3.5-.4,1.3-.4,2.3s.1,1.7.4,2.2c.3.5.6.8,1.1.8s.9-.3,1.2-.8c.3-.5.4-1.2.4-2.2s-.1-1.8-.4-2.3c-.3-.5-.6-.8-1.2-.8ZM727.6,616c.8,0,1.4.3,1.9,1,.4.6.6,1.6.6,2.8s-.2,2.2-.6,2.8c-.4.6-1.1,1-1.9,1s-1.4-.3-1.9-1c-.4-.6-.6-1.6-.6-2.8s.2-2.2.6-2.8c.4-.6,1.1-1,1.9-1Z"/>
                </g>
              </g>
            </g>
            <g id="xtick_10">
              <g id="line2d_10">
                <path id="mdcad2c754d-10" data-name="mdcad2c754d" class="cls-12" d="M804,608.8v3.5"/>
              </g>
              <g id="text_10">
                <g>
                  <path id="DejaVuSans-34-2" data-name="DejaVuSans-34" d="M801.4,617l-2.5,3.9h2.5v-3.9ZM801.1,616.1h1.2v4.8h1v.8h-1v1.7h-1v-1.7h-3.3v-1l3-4.6Z"/>
                  <path id="DejaVuSans-35-5" data-name="DejaVuSans-35" d="M805,616.1h3.9v.8h-3v1.8c.1,0,.3,0,.4-.1.1,0,.3,0,.4,0,.8,0,1.5.2,1.9.7.5.4.7,1,.7,1.8s-.2,1.4-.7,1.8c-.5.4-1.2.7-2.1.7s-.6,0-.9,0c-.3,0-.6-.1-1-.2v-1c.3.2.6.3.9.4s.6.1,1,.1c.6,0,1-.1,1.3-.4.3-.3.5-.7.5-1.2s-.2-.9-.5-1.2c-.3-.3-.8-.4-1.3-.4s-.5,0-.8,0c-.3,0-.5.1-.8.3v-3.7Z"/>
                </g>
              </g>
            </g>
            <g id="xtick_11">
              <g id="line2d_11">
                <path id="mdcad2c754d-11" data-name="mdcad2c754d" class="cls-12" d="M883.5,608.8v3.5"/>
              </g>
              <g id="text_11">
                <g>
                  <path id="DejaVuSans-35-6" data-name="DejaVuSans-35" d="M878.2,616.1h3.9v.8h-3v1.8c.1,0,.3,0,.4-.1.1,0,.3,0,.4,0,.8,0,1.5.2,1.9.7.5.4.7,1,.7,1.8s-.2,1.4-.7,1.8c-.5.4-1.2.7-2.1.7s-.6,0-.9,0c-.3,0-.6-.1-1-.2v-1c.3.2.6.3.9.4s.6.1,1,.1c.6,0,1-.1,1.3-.4.3-.3.5-.7.5-1.2s-.2-.9-.5-1.2c-.3-.3-.8-.4-1.3-.4s-.5,0-.8,0c-.3,0-.5.1-.8.3v-3.7Z"/>
                  <path id="DejaVuSans-30-6" data-name="DejaVuSans-30" d="M886.7,616.8c-.5,0-.9.3-1.1.8-.3.5-.4,1.3-.4,2.3s.1,1.7.4,2.2c.3.5.6.8,1.1.8s.9-.3,1.2-.8c.3-.5.4-1.2.4-2.2s-.1-1.8-.4-2.3c-.3-.5-.6-.8-1.2-.8ZM886.7,616c.8,0,1.4.3,1.9,1,.4.6.6,1.6.6,2.8s-.2,2.2-.6,2.8c-.4.6-1.1,1-1.9,1s-1.4-.3-1.9-1c-.4-.6-.6-1.6-.6-2.8s.2-2.2.6-2.8c.4-.6,1.1-1,1.9-1Z"/>
                </g>
              </g>
            </g>
            <g id="text_12">
              <g>
                <path id="DejaVuSans-44" d="M375.6,631.3v9.1h1.9c1.6,0,2.8-.4,3.5-1.1.7-.7,1.1-1.9,1.1-3.5s-.4-2.7-1.1-3.4-1.9-1.1-3.5-1.1h-1.9ZM374,630h3.2c2.3,0,3.9.5,5,1.4,1.1.9,1.6,2.4,1.6,4.4s-.5,3.5-1.6,4.4c-1.1.9-2.7,1.4-5,1.4h-3.2v-11.7Z"/>
                <path id="DejaVuSans-4d" d="M386.3,630h2.4l3,7.9,3-7.9h2.4v11.7h-1.5v-10.2l-3,8h-1.6l-3-8v10.2h-1.5v-11.7Z"/>
                <path id="DejaVuSans-53" d="M407.1,630.4v1.5c-.6-.3-1.2-.5-1.7-.6-.5-.1-1-.2-1.5-.2-.9,0-1.5.2-2,.5-.5.3-.7.8-.7,1.4s.2.9.5,1.2c.3.3.9.5,1.8.6l1,.2c1.2.2,2,.6,2.6,1.2s.8,1.3.8,2.3-.4,2-1.1,2.6c-.8.6-1.9.9-3.3.9s-1.1,0-1.8-.2c-.6-.1-1.3-.3-1.9-.6v-1.6c.6.4,1.3.6,1.9.8.6.2,1.2.3,1.8.3.9,0,1.6-.2,2.1-.5.5-.4.7-.9.7-1.5s-.2-1-.5-1.3-.9-.6-1.7-.7l-1-.2c-1.2-.2-2-.6-2.6-1.1-.5-.5-.8-1.2-.8-2.1s.4-1.8,1.1-2.4c.7-.6,1.7-.9,3-.9s1.1,0,1.7.1c.6,0,1.1.2,1.7.4Z"/>
                <path id="DejaVuSans-4f" d="M415,631.1c-1.1,0-2.1.4-2.7,1.3-.7.9-1,2-1,3.5s.3,2.6,1,3.5c.7.9,1.6,1.3,2.7,1.3s2.1-.4,2.7-1.3c.7-.9,1-2,1-3.5s-.3-2.6-1-3.5c-.7-.9-1.6-1.3-2.7-1.3ZM415,629.8c1.6,0,2.9.5,3.9,1.6,1,1.1,1.5,2.6,1.5,4.4s-.5,3.3-1.5,4.4c-1,1.1-2.3,1.6-3.9,1.6s-3-.5-3.9-1.6c-1-1.1-1.5-2.6-1.5-4.4s.5-3.3,1.5-4.4c1-1.1,2.3-1.6,3.9-1.6Z"/>
                <path id="DejaVuSans-20" d="M421.3,641.7"/>
                <path id="DejaVuSans-63" d="M434.2,633.3v1.3c-.4-.2-.8-.4-1.2-.5s-.8-.2-1.2-.2c-.9,0-1.7.3-2.2.9-.5.6-.8,1.4-.8,2.5s.3,1.9.8,2.5c.5.6,1.2.9,2.2.9s.8,0,1.2-.2.8-.3,1.2-.5v1.3c-.4.2-.8.3-1.2.4-.4,0-.9.1-1.4.1-1.3,0-2.4-.4-3.1-1.2-.8-.8-1.2-1.9-1.2-3.4s.4-2.5,1.2-3.4c.8-.8,1.9-1.2,3.2-1.2s.9,0,1.3.1c.4,0,.8.2,1.2.4Z"/>
                <path id="DejaVuSans-6f" d="M440.1,633.9c-.8,0-1.4.3-1.8.9s-.7,1.4-.7,2.5.2,1.9.7,2.5c.4.6,1.1.9,1.8.9s1.4-.3,1.8-.9c.4-.6.7-1.4.7-2.5s-.2-1.9-.7-2.5c-.4-.6-1.1-.9-1.8-.9ZM440.1,632.7c1.2,0,2.2.4,2.9,1.2.7.8,1.1,1.9,1.1,3.4s-.4,2.6-1.1,3.4c-.7.8-1.7,1.2-2.9,1.2s-2.2-.4-2.9-1.2c-.7-.8-1.1-1.9-1.1-3.4s.4-2.6,1.1-3.4c.7-.8,1.7-1.2,2.9-1.2Z"/>
                <path id="DejaVuSans-6e" d="M453.8,636.4v5.3h-1.4v-5.2c0-.8-.2-1.4-.5-1.9-.3-.4-.8-.6-1.5-.6s-1.4.2-1.8.7c-.4.5-.7,1.2-.7,2v4.9h-1.4v-8.7h1.4v1.4c.3-.5.7-.9,1.2-1.2.5-.3,1-.4,1.6-.4,1,0,1.8.3,2.3.9.5.6.8,1.5.8,2.7Z"/>
                <path id="DejaVuSans-63-2" data-name="DejaVuSans-63" d="M462.9,633.3v1.3c-.4-.2-.8-.4-1.2-.5s-.8-.2-1.2-.2c-.9,0-1.7.3-2.2.9-.5.6-.8,1.4-.8,2.5s.3,1.9.8,2.5c.5.6,1.2.9,2.2.9s.8,0,1.2-.2.8-.3,1.2-.5v1.3c-.4.2-.8.3-1.2.4-.4,0-.9.1-1.4.1-1.3,0-2.4-.4-3.1-1.2-.8-.8-1.2-1.9-1.2-3.4s.4-2.5,1.2-3.4c.8-.8,1.9-1.2,3.2-1.2s.9,0,1.3.1c.4,0,.8.2,1.2.4Z"/>
                <path id="DejaVuSans-65" d="M472.9,636.9v.7h-6.6c0,1,.4,1.7.9,2.3.5.5,1.3.8,2.2.8s1.1,0,1.6-.2,1-.3,1.5-.6v1.4c-.5.2-1,.4-1.6.5s-1.1.2-1.6.2c-1.4,0-2.5-.4-3.3-1.2-.8-.8-1.2-1.9-1.2-3.3s.4-2.6,1.2-3.4c.8-.8,1.8-1.3,3.1-1.3s2.1.4,2.8,1.1c.7.8,1,1.8,1,3.1ZM471.5,636.5c0-.8-.2-1.4-.7-1.9-.4-.5-1-.7-1.7-.7s-1.4.2-1.9.7-.8,1.1-.8,1.9h5.1Z"/>
                <path id="DejaVuSans-6e-2" data-name="DejaVuSans-6e" d="M482.5,636.4v5.3h-1.4v-5.2c0-.8-.2-1.4-.5-1.9-.3-.4-.8-.6-1.5-.6s-1.4.2-1.8.7c-.4.5-.7,1.2-.7,2v4.9h-1.4v-8.7h1.4v1.4c.3-.5.7-.9,1.2-1.2.5-.3,1-.4,1.6-.4,1,0,1.8.3,2.3.9.5.6.8,1.5.8,2.7Z"/>
                <path id="DejaVuSans-74" d="M486.8,630.4v2.5h3v1.1h-3v4.7c0,.7,0,1.2.3,1.4s.6.3,1.2.3h1.5v1.2h-1.5c-1.1,0-1.9-.2-2.3-.6-.4-.4-.6-1.2-.6-2.3v-4.7h-1.1v-1.1h1.1v-2.5h1.4Z"/>
                <path id="DejaVuSans-72" d="M496.7,634.3c-.2,0-.3-.2-.5-.2-.2,0-.4,0-.6,0-.8,0-1.4.3-1.9.8s-.7,1.3-.7,2.3v4.6h-1.4v-8.7h1.4v1.4c.3-.5.7-.9,1.2-1.2.5-.3,1.1-.4,1.8-.4s.2,0,.3,0c.1,0,.3,0,.4,0v1.5Z"/>
                <path id="DejaVuSans-61" d="M502.2,637.3c-1.2,0-2,.1-2.4.4s-.7.7-.7,1.4.2.9.5,1.2c.3.3.8.4,1.4.4s1.4-.3,1.9-.8.7-1.3.7-2.3v-.3h-1.4ZM505.1,636.7v5h-1.4v-1.3c-.3.5-.7.9-1.2,1.2-.5.3-1.1.4-1.8.4s-1.6-.3-2.1-.8c-.5-.5-.8-1.2-.8-2s.3-1.7,1-2.2c.7-.5,1.6-.7,2.9-.7h2c0-.8-.2-1.3-.7-1.7s-1-.5-1.8-.5-1,0-1.5.2c-.5.1-.9.3-1.4.5v-1.3c.5-.2,1-.4,1.5-.5.5-.1,1-.2,1.4-.2,1.3,0,2.2.3,2.8,1,.6.7.9,1.6.9,3Z"/>
                <path id="DejaVuSans-74-2" data-name="DejaVuSans-74" d="M509.5,630.4v2.5h3v1.1h-3v4.7c0,.7,0,1.2.3,1.4s.6.3,1.2.3h1.5v1.2h-1.5c-1.1,0-1.9-.2-2.3-.6-.4-.4-.6-1.2-.6-2.3v-4.7h-1.1v-1.1h1.1v-2.5h1.4Z"/>
                <path id="DejaVuSans-69" d="M514.3,632.9h1.4v8.7h-1.4v-8.7ZM514.3,629.5h1.4v1.8h-1.4v-1.8Z"/>
                <path id="DejaVuSans-6f-2" data-name="DejaVuSans-6f" d="M522.2,633.9c-.8,0-1.4.3-1.8.9s-.7,1.4-.7,2.5.2,1.9.7,2.5c.4.6,1.1.9,1.8.9s1.4-.3,1.8-.9c.4-.6.7-1.4.7-2.5s-.2-1.9-.7-2.5c-.4-.6-1.1-.9-1.8-.9ZM522.2,632.7c1.2,0,2.2.4,2.9,1.2.7.8,1.1,1.9,1.1,3.4s-.4,2.6-1.1,3.4c-.7.8-1.7,1.2-2.9,1.2s-2.2-.4-2.9-1.2c-.7-.8-1.1-1.9-1.1-3.4s.4-2.6,1.1-3.4c.7-.8,1.7-1.2,2.9-1.2Z"/>
                <path id="DejaVuSans-6e-3" data-name="DejaVuSans-6e" d="M535.8,636.4v5.3h-1.4v-5.2c0-.8-.2-1.4-.5-1.9-.3-.4-.8-.6-1.5-.6s-1.4.2-1.8.7c-.4.5-.7,1.2-.7,2v4.9h-1.4v-8.7h1.4v1.4c.3-.5.7-.9,1.2-1.2.5-.3,1-.4,1.6-.4,1,0,1.8.3,2.3.9.5.6.8,1.5.8,2.7Z"/>
                <path id="DejaVuSans-20-2" data-name="DejaVuSans-20" d="M537.2,641.7"/>
                <path id="DejaVuSans-28" d="M547.2,629.5c-.7,1.2-1.2,2.4-1.6,3.6-.3,1.2-.5,2.4-.5,3.6s.2,2.4.5,3.6.9,2.4,1.5,3.6h-1.2c-.8-1.2-1.4-2.4-1.8-3.6-.4-1.2-.6-2.4-.6-3.5s.2-2.3.6-3.5c.4-1.2,1-2.4,1.8-3.6h1.2Z"/>
                <path id="DejaVuSans-76" d="M549,632.9h1.5l2.7,7.3,2.7-7.3h1.5l-3.3,8.7h-2l-3.3-8.7Z"/>
                <path id="DejaVuSans-2f" d="M562.1,630h1.3l-4.1,13.1h-1.3l4.1-13.1Z"/>
                <path id="DejaVuSans-76-2" data-name="DejaVuSans-76" d="M563.9,632.9h1.5l2.7,7.3,2.7-7.3h1.5l-3.3,8.7h-2l-3.3-8.7Z"/>
                <path id="DejaVuSans-29" d="M574.1,629.5h1.2c.8,1.2,1.4,2.4,1.8,3.6.4,1.2.6,2.3.6,3.5s-.2,2.3-.6,3.5c-.4,1.2-1,2.4-1.8,3.6h-1.2c.7-1.2,1.2-2.4,1.5-3.6.3-1.2.5-2.4.5-3.6s-.2-2.4-.5-3.6c-.3-1.2-.9-2.4-1.5-3.6Z"/>
                <path id="DejaVuSans-20-3" data-name="DejaVuSans-20" d="M579.1,641.7"/>
                <path id="DejaVuSans-25" d="M595.8,636.5c-.5,0-.8.2-1.1.6-.3.4-.4.9-.4,1.6s.1,1.2.4,1.6c.3.4.6.6,1.1.6s.8-.2,1-.6c.3-.4.4-.9.4-1.6s-.1-1.2-.4-1.6c-.3-.4-.6-.6-1-.6ZM595.8,635.5c.8,0,1.5.3,2,.9.5.6.7,1.3.7,2.3s-.2,1.7-.7,2.3c-.5.6-1.1.9-2,.9s-1.5-.3-2-.9c-.5-.6-.7-1.3-.7-2.3s.2-1.8.7-2.3,1.1-.9,2-.9ZM587.8,630.8c-.4,0-.8.2-1.1.6-.3.4-.4.9-.4,1.6s.1,1.2.4,1.6c.3.4.6.6,1.1.6s.8-.2,1.1-.6c.3-.4.4-.9.4-1.6s-.1-1.2-.4-1.6c-.3-.4-.6-.6-1.1-.6ZM594.8,629.8h1.2l-7.3,12.1h-1.2l7.3-12.1ZM587.8,629.8c.8,0,1.5.3,2,.9.5.6.7,1.3.7,2.3s-.2,1.8-.7,2.3c-.5.6-1.1.9-2,.9s-1.5-.3-2-.9c-.5-.6-.7-1.3-.7-2.3s.2-1.7.7-2.3c.5-.6,1.1-.9,2-.9Z"/>
              </g>
            </g>
          </g>
          <g id="matplotlib.axis_2">
            <g id="ytick_1">
              <g id="line2d_12">
                <path id="ma9b0a488be" class="cls-12" d="M48.6,568.1h-3.5"/>
              </g>
              <g id="text_13">
                <path id="DejaVuSans-30-7" data-name="DejaVuSans-30" d="M38.4,565.2c-.5,0-.9.3-1.1.8-.3.5-.4,1.3-.4,2.3s.1,1.7.4,2.2c.3.5.6.8,1.1.8s.9-.3,1.2-.8c.3-.5.4-1.2.4-2.2s-.1-1.8-.4-2.3c-.3-.5-.6-.8-1.2-.8ZM38.4,564.4c.8,0,1.4.3,1.9,1,.4.6.6,1.6.6,2.8s-.2,2.2-.6,2.8c-.4.6-1.1,1-1.9,1s-1.4-.3-1.9-1c-.4-.6-.6-1.6-.6-2.8s.2-2.2.6-2.8c.4-.6,1.1-1,1.9-1Z"/>
              </g>
            </g>
            <g id="ytick_2">
              <g id="line2d_13">
                <path id="ma9b0a488be-2" data-name="ma9b0a488be" class="cls-12" d="M48.6,487.9h-3.5"/>
              </g>
              <g id="text_14">
                <g>
                  <path id="DejaVuSans-32-3" data-name="DejaVuSans-32" d="M30.8,490.9h3.4v.8h-4.6v-.8c.4-.4.9-.9,1.5-1.6.6-.7,1.1-1.1,1.2-1.3.3-.4.5-.7.7-.9.1-.2.2-.5.2-.7,0-.4-.1-.7-.4-.9-.3-.2-.6-.4-1.1-.4s-.6,0-1,.2c-.3.1-.7.3-1.1.5v-1c.4-.2.8-.3,1.1-.4.3,0,.7-.1.9-.1.8,0,1.4.2,1.8.6.4.4.7.9.7,1.5s0,.6-.2.9c-.1.3-.3.6-.6.9,0,0-.3.4-.8.8-.4.5-1.1,1.1-1.8,1.9Z"/>
                  <path id="DejaVuSans-30-8" data-name="DejaVuSans-30" d="M38.4,485c-.5,0-.9.3-1.1.8-.3.5-.4,1.3-.4,2.3s.1,1.7.4,2.2c.3.5.6.8,1.1.8s.9-.3,1.2-.8c.3-.5.4-1.2.4-2.2s-.1-1.8-.4-2.3c-.3-.5-.6-.8-1.2-.8ZM38.4,484.3c.8,0,1.4.3,1.9,1,.4.6.6,1.6.6,2.8s-.2,2.2-.6,2.8c-.4.6-1.1,1-1.9,1s-1.4-.3-1.9-1c-.4-.6-.6-1.6-.6-2.8s.2-2.2.6-2.8c.4-.6,1.1-1,1.9-1Z"/>
                </g>
              </g>
            </g>
            <g id="ytick_3">
              <g id="line2d_14">
                <path id="ma9b0a488be-3" data-name="ma9b0a488be" class="cls-12" d="M48.6,407.7h-3.5"/>
              </g>
              <g id="text_15">
                <g>
                  <path id="DejaVuSans-34-3" data-name="DejaVuSans-34" d="M32.6,405.1l-2.5,3.9h2.5v-3.9ZM32.4,404.2h1.2v4.8h1v.8h-1v1.7h-1v-1.7h-3.3v-1l3-4.6Z"/>
                  <path id="DejaVuSans-30-9" data-name="DejaVuSans-30" d="M38.4,404.9c-.5,0-.9.3-1.1.8-.3.5-.4,1.3-.4,2.3s.1,1.7.4,2.2c.3.5.6.8,1.1.8s.9-.3,1.2-.8c.3-.5.4-1.2.4-2.2s-.1-1.8-.4-2.3c-.3-.5-.6-.8-1.2-.8ZM38.4,404.1c.8,0,1.4.3,1.9,1,.4.6.6,1.6.6,2.8s-.2,2.2-.6,2.8c-.4.6-1.1,1-1.9,1s-1.4-.3-1.9-1c-.4-.6-.6-1.6-.6-2.8s.2-2.2.6-2.8c.4-.6,1.1-1,1.9-1Z"/>
                </g>
              </g>
            </g>
            <g id="ytick_4">
              <g id="line2d_15">
                <path id="ma9b0a488be-4" data-name="ma9b0a488be" class="cls-12" d="M48.6,327.5h-3.5"/>
              </g>
              <g id="text_16">
                <g>
                  <path id="DejaVuSans-36" d="M32.1,327.3c-.4,0-.8.2-1.1.5-.3.3-.4.7-.4,1.2s.1.9.4,1.2c.3.3.6.5,1.1.5s.8-.2,1.1-.5c.3-.3.4-.7.4-1.2s-.1-.9-.4-1.2c-.3-.3-.6-.5-1.1-.5ZM34.1,324.2v.9c-.2-.1-.5-.2-.8-.3-.3,0-.5,0-.8,0-.7,0-1.1.2-1.5.7-.3.4-.5,1.1-.6,2,.2-.3.4-.5.7-.7.3-.2.6-.2,1-.2.7,0,1.3.2,1.7.7.4.4.6,1,.6,1.8s-.2,1.4-.7,1.8c-.4.5-1,.7-1.8.7s-1.5-.3-1.9-1c-.4-.6-.7-1.6-.7-2.8s.3-2.1.8-2.8c.5-.7,1.3-1,2.2-1s.5,0,.8,0,.5.1.8.2Z"/>
                  <path id="DejaVuSans-30-10" data-name="DejaVuSans-30" d="M38.4,324.7c-.5,0-.9.3-1.1.8-.3.5-.4,1.3-.4,2.3s.1,1.7.4,2.2c.3.5.6.8,1.1.8s.9-.3,1.2-.8c.3-.5.4-1.2.4-2.2s-.1-1.8-.4-2.3c-.3-.5-.6-.8-1.2-.8ZM38.4,323.9c.8,0,1.4.3,1.9,1,.4.6.6,1.6.6,2.8s-.2,2.2-.6,2.8c-.4.6-1.1,1-1.9,1s-1.4-.3-1.9-1c-.4-.6-.6-1.6-.6-2.8s.2-2.2.6-2.8c.4-.6,1.1-1,1.9-1Z"/>
                </g>
              </g>
            </g>
            <g id="ytick_5">
              <g id="line2d_16">
                <path id="ma9b0a488be-5" data-name="ma9b0a488be" class="cls-12" d="M48.6,247.3h-3.5"/>
              </g>
              <g id="text_17">
                <g>
                  <path id="DejaVuSans-38" d="M32,247.7c-.5,0-.8.1-1.1.4-.3.3-.4.6-.4,1s.1.8.4,1c.3.3.6.4,1.1.4s.8-.1,1.1-.4c.3-.3.4-.6.4-1s-.1-.8-.4-1c-.3-.3-.6-.4-1.1-.4ZM31,247.3c-.4-.1-.8-.3-1-.6-.2-.3-.4-.6-.4-1.1s.2-1,.6-1.4c.4-.3,1-.5,1.7-.5s1.3.2,1.7.5.6.8.6,1.4-.1.8-.4,1.1c-.2.3-.6.5-1,.6.5.1.8.3,1.1.7.3.3.4.7.4,1.2,0,.7-.2,1.3-.6,1.6-.4.4-1,.6-1.9.6s-1.4-.2-1.9-.6c-.4-.4-.6-.9-.6-1.6s.1-.9.4-1.2c.3-.3.6-.5,1.1-.7ZM30.7,245.7c0,.4.1.7.4.9.2.2.6.3,1,.3s.8-.1,1-.3c.2-.2.4-.5.4-.9s-.1-.7-.4-.9c-.2-.2-.6-.3-1-.3s-.8.1-1,.3c-.2.2-.4.5-.4.9Z"/>
                  <path id="DejaVuSans-30-11" data-name="DejaVuSans-30" d="M38.4,244.5c-.5,0-.9.3-1.1.8-.3.5-.4,1.3-.4,2.3s.1,1.7.4,2.2c.3.5.6.8,1.1.8s.9-.3,1.2-.8c.3-.5.4-1.2.4-2.2s-.1-1.8-.4-2.3c-.3-.5-.6-.8-1.2-.8ZM38.4,243.7c.8,0,1.4.3,1.9,1,.4.6.6,1.6.6,2.8s-.2,2.2-.6,2.8c-.4.6-1.1,1-1.9,1s-1.4-.3-1.9-1c-.4-.6-.6-1.6-.6-2.8s.2-2.2.6-2.8c.4-.6,1.1-1,1.9-1Z"/>
                </g>
              </g>
            </g>
            <g id="ytick_6">
              <g id="line2d_17">
                <path id="ma9b0a488be-6" data-name="ma9b0a488be" class="cls-12" d="M48.6,167.2h-3.5"/>
              </g>
              <g id="text_18">
                <g>
                  <path id="DejaVuSans-31-3" data-name="DejaVuSans-31" d="M23.7,170.1h1.6v-5.6l-1.8.4v-.9l1.7-.4h1v6.5h1.6v.8h-4.2v-.8Z"/>
                  <path id="DejaVuSans-30-12" data-name="DejaVuSans-30" d="M32,164.3c-.5,0-.9.3-1.1.8-.3.5-.4,1.3-.4,2.3s.1,1.7.4,2.2c.3.5.6.8,1.1.8s.9-.3,1.2-.8c.3-.5.4-1.2.4-2.2s-.1-1.8-.4-2.3c-.3-.5-.6-.8-1.2-.8ZM32,163.5c.8,0,1.4.3,1.9,1,.4.6.6,1.6.6,2.8s-.2,2.2-.6,2.8c-.4.6-1.1,1-1.9,1s-1.4-.3-1.9-1c-.4-.6-.6-1.6-.6-2.8s.2-2.2.6-2.8c.4-.6,1.1-1,1.9-1Z"/>
                  <path id="DejaVuSans-30-13" data-name="DejaVuSans-30" d="M38.4,164.3c-.5,0-.9.3-1.1.8-.3.5-.4,1.3-.4,2.3s.1,1.7.4,2.2c.3.5.6.8,1.1.8s.9-.3,1.2-.8c.3-.5.4-1.2.4-2.2s-.1-1.8-.4-2.3c-.3-.5-.6-.8-1.2-.8ZM38.4,163.5c.8,0,1.4.3,1.9,1,.4.6.6,1.6.6,2.8s-.2,2.2-.6,2.8c-.4.6-1.1,1-1.9,1s-1.4-.3-1.9-1c-.4-.6-.6-1.6-.6-2.8s.2-2.2.6-2.8c.4-.6,1.1-1,1.9-1Z"/>
                </g>
              </g>
            </g>
            <g id="ytick_7">
              <g id="line2d_18">
                <path id="ma9b0a488be-7" data-name="ma9b0a488be" class="cls-12" d="M48.6,87h-3.5"/>
              </g>
              <g id="text_19">
                <g>
                  <path id="DejaVuSans-31-4" data-name="DejaVuSans-31" d="M23.7,90h1.6v-5.6l-1.8.4v-.9l1.7-.4h1v6.5h1.6v.8h-4.2v-.8Z"/>
                  <path id="DejaVuSans-32-4" data-name="DejaVuSans-32" d="M30.8,90h3.4v.8h-4.6v-.8c.4-.4.9-.9,1.5-1.6.6-.7,1.1-1.1,1.2-1.3.3-.4.5-.7.7-.9.1-.2.2-.5.2-.7,0-.4-.1-.7-.4-.9-.3-.2-.6-.4-1.1-.4s-.6,0-1,.2c-.3.1-.7.3-1.1.5v-1c.4-.2.8-.3,1.1-.4.3,0,.7-.1.9-.1.8,0,1.4.2,1.8.6.4.4.7.9.7,1.5s0,.6-.2.9c-.1.3-.3.6-.6.9,0,0-.3.4-.8.8-.4.5-1.1,1.1-1.8,1.9Z"/>
                  <path id="DejaVuSans-30-14" data-name="DejaVuSans-30" d="M38.4,84.1c-.5,0-.9.3-1.1.8-.3.5-.4,1.3-.4,2.3s.1,1.7.4,2.2c.3.5.6.8,1.1.8s.9-.3,1.2-.8c.3-.5.4-1.2.4-2.2s-.1-1.8-.4-2.3c-.3-.5-.6-.8-1.2-.8ZM38.4,83.4c.8,0,1.4.3,1.9,1,.4.6.6,1.6.6,2.8s-.2,2.2-.6,2.8c-.4.6-1.1,1-1.9,1s-1.4-.3-1.9-1c-.4-.6-.6-1.6-.6-2.8s.2-2.2.6-2.8c.4-.6,1.1-1,1.9-1Z"/>
                </g>
              </g>
            </g>
            <g id="ytick_8">
              <g id="line2d_19">
                <path id="ma9b0a488be-8" data-name="ma9b0a488be" class="cls-12" d="M48.6,6.8h-3.5"/>
              </g>
              <g id="text_20">
                <g>
                  <path id="DejaVuSans-31-5" data-name="DejaVuSans-31" d="M23.7,9.8h1.6v-5.6l-1.8.4v-.9l1.7-.4h1v6.5h1.6v.8h-4.2v-.8Z"/>
                  <path id="DejaVuSans-34-4" data-name="DejaVuSans-34" d="M32.6,4.2l-2.5,3.9h2.5v-3.9ZM32.4,3.3h1.2v4.8h1v.8h-1v1.7h-1v-1.7h-3.3v-1l3-4.6Z"/>
                  <path id="DejaVuSans-30-15" data-name="DejaVuSans-30" d="M38.4,4c-.5,0-.9.3-1.1.8-.3.5-.4,1.3-.4,2.3s.1,1.7.4,2.2c.3.5.6.8,1.1.8s.9-.3,1.2-.8c.3-.5.4-1.2.4-2.2s-.1-1.8-.4-2.3c-.3-.5-.6-.8-1.2-.8ZM38.4,3.2c.8,0,1.4.3,1.9,1,.4.6.6,1.6.6,2.8s-.2,2.2-.6,2.8c-.4.6-1.1,1-1.9,1s-1.4-.3-1.9-1c-.4-.6-.6-1.6-.6-2.8s.2-2.2.6-2.8c.4-.6,1.1-1,1.9-1Z"/>
                </g>
              </g>
            </g>
            <g id="text_21">
              <g>
                <path id="DejaVuSans-394" d="M5,346.4l8.8,3.2v-6.4l-8.8,3.2ZM15.2,351.8l-11.7-4.5v-1.8l11.7-4.4v10.7Z"/>
                <path id="DejaVuSans-47" d="M13.5,331.4h-3.1v2.6h-1.3v-4.1h5c.4.6.8,1.3,1,2,.2.7.3,1.5.3,2.3,0,1.8-.5,3.2-1.6,4.3-1.1,1-2.5,1.5-4.4,1.5s-3.4-.5-4.5-1.5c-1.1-1-1.6-2.5-1.6-4.3s0-1.5.3-2.2c.2-.7.5-1.3.8-1.9h1.7c-.5.6-.9,1.2-1.1,1.9s-.4,1.3-.4,2.1c0,1.4.4,2.5,1.2,3.2.8.7,2,1.1,3.6,1.1s2.8-.4,3.6-1.1c.8-.7,1.2-1.8,1.2-3.2s0-1.1-.1-1.5c0-.4-.2-.8-.4-1.2Z"/>
                <path id="DejaVuSans-20-4" data-name="DejaVuSans-20" d="M15.2,328.5"/>
                <path id="DejaVuSans-28-2" data-name="DejaVuSans-28" d="M3,318.5c1.2.7,2.4,1.2,3.6,1.6,1.2.3,2.4.5,3.6.5s2.4-.2,3.6-.5,2.4-.9,3.6-1.5v1.2c-1.2.8-2.4,1.4-3.6,1.8-1.2.4-2.4.6-3.5.6s-2.3-.2-3.5-.6c-1.2-.4-2.4-1-3.6-1.8v-1.2Z"/>
                <path id="DejaVuSans-6b" d="M3,315.8v-1.4h7.2l-3.8-4.3v-1.8l4.1,4.6,4.7-4.8v1.9l-4.3,4.4h4.3v1.4H3Z"/>
                <path id="DejaVuSans-4a" d="M3.5,306.4v-1.6h10.9c1.4,0,2.4.3,3.1.8.6.5,1,1.4,1,2.6v.6h-1.3v-.5c0-.7-.2-1.2-.6-1.5-.4-.3-1.1-.4-2.1-.4H3.5Z"/>
                <path id="DejaVuSans-2f-2" data-name="DejaVuSans-2f" d="M3.5,299.2v-1.3l13.1,4.1v1.3l-13.1-4.1Z"/>
                <path id="DejaVuSans-6d" d="M8.1,289.5c-.6-.4-1.1-.8-1.4-1.3s-.5-1.1-.5-1.8.3-1.6,1-2.1c.6-.5,1.5-.7,2.7-.7h5.3v1.4h-5.2c-.8,0-1.5.1-1.9.4-.4.3-.6.7-.6,1.4s.2,1.3.7,1.8c.5.4,1.2.6,2,.6h4.9v1.4h-5.2c-.8,0-1.5.1-1.9.4s-.6.8-.6,1.4.2,1.3.7,1.8c.5.4,1.2.6,2,.6h4.9v1.4H6.4v-1.4h1.4c-.5-.3-.9-.7-1.2-1.2s-.4-1-.4-1.6.2-1.2.5-1.6c.3-.4.8-.8,1.4-1Z"/>
                <path id="DejaVuSans-6f-3" data-name="DejaVuSans-6f" d="M7.4,277.4c0,.8.3,1.4.9,1.8s1.4.7,2.5.7,1.9-.2,2.5-.7c.6-.4.9-1.1.9-1.8s-.3-1.4-.9-1.8c-.6-.4-1.4-.7-2.5-.7s-1.9.2-2.5.7c-.6.4-.9,1.1-.9,1.8ZM6.2,277.4c0-1.2.4-2.2,1.2-2.9.8-.7,1.9-1.1,3.4-1.1s2.6.4,3.4,1.1c.8.7,1.2,1.7,1.2,2.9s-.4,2.2-1.2,2.9c-.8.7-1.9,1.1-3.4,1.1s-2.6-.4-3.4-1.1c-.8-.7-1.2-1.7-1.2-2.9Z"/>
                <path id="DejaVuSans-6c" d="M3,271v-1.4h12.2v1.4H3Z"/>
                <path id="DejaVuSans-29-2" data-name="DejaVuSans-29" d="M3,266.7v-1.2c1.2-.8,2.4-1.4,3.6-1.8,1.2-.4,2.3-.6,3.5-.6s2.3.2,3.5.6c1.2.4,2.4,1,3.6,1.8v1.2c-1.2-.7-2.4-1.2-3.6-1.5-1.2-.3-2.4-.5-3.6-.5s-2.4.2-3.6.5c-1.2.3-2.4.9-3.6,1.5Z"/>
              </g>
            </g>
          </g>
          <g id="line2d_20">
            <g class="cls-22">
              <path class="cls-7" d="M88.3,430.1l79.5,78.5,79.5-94.9,79.5-12.3,79.5-300.4,79.5,368.4,79.5-374.6,79.5,64.5,79.5,322.5,79.5-231.2,79.5,258.3"/>
            </g>
            <g class="cls-14">
              <g>
                <path id="mc96082e46a" class="cls-11" d="M88.3,435.1c1.3,0,2.6-.5,3.5-1.5.9-.9,1.5-2.2,1.5-3.5s-.5-2.6-1.5-3.5c-.9-.9-2.2-1.5-3.5-1.5s-2.6.5-3.5,1.5c-.9.9-1.5,2.2-1.5,3.5s.5,2.6,1.5,3.5c.9.9,2.2,1.5,3.5,1.5Z"/>
                <path id="mc96082e46a-2" data-name="mc96082e46a" class="cls-11" d="M167.8,513.7c1.3,0,2.6-.5,3.5-1.5.9-.9,1.5-2.2,1.5-3.5s-.5-2.6-1.5-3.5c-.9-.9-2.2-1.5-3.5-1.5s-2.6.5-3.5,1.5c-.9.9-1.5,2.2-1.5,3.5s.5,2.6,1.5,3.5c.9.9,2.2,1.5,3.5,1.5Z"/>
                <path id="mc96082e46a-3" data-name="mc96082e46a" class="cls-11" d="M247.4,418.8c1.3,0,2.6-.5,3.5-1.5.9-.9,1.5-2.2,1.5-3.5s-.5-2.6-1.5-3.5c-.9-.9-2.2-1.5-3.5-1.5s-2.6.5-3.5,1.5c-.9.9-1.5,2.2-1.5,3.5s.5,2.6,1.5,3.5c.9.9,2.2,1.5,3.5,1.5Z"/>
                <path id="mc96082e46a-4" data-name="mc96082e46a" class="cls-11" d="M326.9,406.5c1.3,0,2.6-.5,3.5-1.5.9-.9,1.5-2.2,1.5-3.5s-.5-2.6-1.5-3.5c-.9-.9-2.2-1.5-3.5-1.5s-2.6.5-3.5,1.5c-.9.9-1.5,2.2-1.5,3.5s.5,2.6,1.5,3.5c.9.9,2.2,1.5,3.5,1.5Z"/>
                <path id="mc96082e46a-5" data-name="mc96082e46a" class="cls-11" d="M406.4,106.1c1.3,0,2.6-.5,3.5-1.5.9-.9,1.5-2.2,1.5-3.5s-.5-2.6-1.5-3.5c-.9-.9-2.2-1.5-3.5-1.5s-2.6.5-3.5,1.5c-.9.9-1.5,2.2-1.5,3.5s.5,2.6,1.5,3.5c.9.9,2.2,1.5,3.5,1.5Z"/>
                <path id="mc96082e46a-6" data-name="mc96082e46a" class="cls-11" d="M485.9,474.5c1.3,0,2.6-.5,3.5-1.5.9-.9,1.5-2.2,1.5-3.5s-.5-2.6-1.5-3.5c-.9-.9-2.2-1.5-3.5-1.5s-2.6.5-3.5,1.5c-.9.9-1.5,2.2-1.5,3.5s.5,2.6,1.5,3.5c.9.9,2.2,1.5,3.5,1.5Z"/>
                <path id="mc96082e46a-7" data-name="mc96082e46a" class="cls-11" d="M565.4,99.9c1.3,0,2.6-.5,3.5-1.5.9-.9,1.5-2.2,1.5-3.5s-.5-2.6-1.5-3.5c-.9-.9-2.2-1.5-3.5-1.5s-2.6.5-3.5,1.5c-.9.9-1.5,2.2-1.5,3.5s.5,2.6,1.5,3.5c.9.9,2.2,1.5,3.5,1.5Z"/>
                <path id="mc96082e46a-8" data-name="mc96082e46a" class="cls-11" d="M644.9,164.4c1.3,0,2.6-.5,3.5-1.5.9-.9,1.5-2.2,1.5-3.5s-.5-2.6-1.5-3.5c-.9-.9-2.2-1.5-3.5-1.5s-2.6.5-3.5,1.5c-.9.9-1.5,2.2-1.5,3.5s.5,2.6,1.5,3.5c.9.9,2.2,1.5,3.5,1.5Z"/>
                <path id="mc96082e46a-9" data-name="mc96082e46a" class="cls-11" d="M724.4,486.9c1.3,0,2.6-.5,3.5-1.5.9-.9,1.5-2.2,1.5-3.5s-.5-2.6-1.5-3.5c-.9-.9-2.2-1.5-3.5-1.5s-2.6.5-3.5,1.5c-.9.9-1.5,2.2-1.5,3.5s.5,2.6,1.5,3.5c.9.9,2.2,1.5,3.5,1.5Z"/>
                <path id="mc96082e46a-10" data-name="mc96082e46a" class="cls-11" d="M804,255.7c1.3,0,2.6-.5,3.5-1.5.9-.9,1.5-2.2,1.5-3.5s-.5-2.6-1.5-3.5c-.9-.9-2.2-1.5-3.5-1.5s-2.6.5-3.5,1.5c-.9.9-1.5,2.2-1.5,3.5s.5,2.6,1.5,3.5c.9.9,2.2,1.5,3.5,1.5Z"/>
                <path id="mc96082e46a-11" data-name="mc96082e46a" class="cls-11" d="M883.5,514c1.3,0,2.6-.5,3.5-1.5.9-.9,1.5-2.2,1.5-3.5s-.5-2.6-1.5-3.5c-.9-.9-2.2-1.5-3.5-1.5s-2.6.5-3.5,1.5c-.9.9-1.5,2.2-1.5,3.5s.5,2.6,1.5,3.5c.9.9,2.2,1.5,3.5,1.5Z"/>
              </g>
            </g>
          </g>
          <g id="LineCollection_1">
            <g class="cls-20">
              <path class="cls-10" d="M88.3,495.3v-130.5"/>
            </g>
            <g class="cls-17">
              <path class="cls-10" d="M167.8,541v-64.6"/>
            </g>
            <g class="cls-4">
              <path class="cls-10" d="M247.4,458.9v-90.3"/>
            </g>
            <g class="cls-15">
              <path class="cls-10" d="M326.9,421.5v-40.2"/>
            </g>
            <g class="cls-1">
              <path class="cls-10" d="M406.4,169.9V32.3"/>
            </g>
            <g class="cls-2">
              <path class="cls-10" d="M485.9,517.6v-96.3"/>
            </g>
            <g class="cls-16">
              <path class="cls-10" d="M565.4,137.4V52.3"/>
            </g>
            <g class="cls-5">
              <path class="cls-10" d="M644.9,219.8v-120.7"/>
            </g>
            <g class="cls-6">
              <path class="cls-10" d="M724.4,572.3v-180.9"/>
            </g>
            <g class="cls-13">
              <path class="cls-10" d="M804,324.6v-147.7"/>
            </g>
            <g class="cls-18">
              <path class="cls-10" d="M883.5,581.4v-144.8"/>
            </g>
          </g>
          <g id="line2d_21">
            <g class="cls-21">
              <g>
                <path id="m09add7d7d8" class="cls-11" d="M98.3,495.3h-20"/>
                <path id="m09add7d7d8-2" data-name="m09add7d7d8" class="cls-11" d="M177.8,541h-20"/>
                <path id="m09add7d7d8-3" data-name="m09add7d7d8" class="cls-11" d="M257.4,458.9h-20"/>
                <path id="m09add7d7d8-4" data-name="m09add7d7d8" class="cls-11" d="M336.9,421.5h-20"/>
                <path id="m09add7d7d8-5" data-name="m09add7d7d8" class="cls-11" d="M416.4,169.9h-20"/>
                <path id="m09add7d7d8-6" data-name="m09add7d7d8" class="cls-11" d="M495.9,517.6h-20"/>
                <path id="m09add7d7d8-7" data-name="m09add7d7d8" class="cls-11" d="M575.4,137.4h-20"/>
                <path id="m09add7d7d8-8" data-name="m09add7d7d8" class="cls-11" d="M654.9,219.8h-20"/>
                <path id="m09add7d7d8-9" data-name="m09add7d7d8" class="cls-11" d="M734.4,572.3h-20"/>
                <path id="m09add7d7d8-10" data-name="m09add7d7d8" class="cls-11" d="M814,324.6h-20"/>
                <path id="m09add7d7d8-11" data-name="m09add7d7d8" class="cls-11" d="M893.5,581.4h-20"/>
              </g>
            </g>
          </g>
          <g id="line2d_22">
            <g class="cls-19">
              <g>
                <path id="m09add7d7d8-12" data-name="m09add7d7d8" class="cls-11" d="M98.3,364.9h-20"/>
                <path id="m09add7d7d8-13" data-name="m09add7d7d8" class="cls-11" d="M177.8,476.3h-20"/>
                <path id="m09add7d7d8-14" data-name="m09add7d7d8" class="cls-11" d="M257.4,368.6h-20"/>
                <path id="m09add7d7d8-15" data-name="m09add7d7d8" class="cls-11" d="M336.9,381.4h-20"/>
                <path id="m09add7d7d8-16" data-name="m09add7d7d8" class="cls-11" d="M416.4,32.3h-20"/>
                <path id="m09add7d7d8-17" data-name="m09add7d7d8" class="cls-11" d="M495.9,421.3h-20"/>
                <path id="m09add7d7d8-18" data-name="m09add7d7d8" class="cls-11" d="M575.4,52.3h-20"/>
                <path id="m09add7d7d8-19" data-name="m09add7d7d8" class="cls-11" d="M654.9,99.1h-20"/>
                <path id="m09add7d7d8-20" data-name="m09add7d7d8" class="cls-11" d="M734.4,391.4h-20"/>
                <path id="m09add7d7d8-21" data-name="m09add7d7d8" class="cls-11" d="M814,176.9h-20"/>
                <path id="m09add7d7d8-22" data-name="m09add7d7d8" class="cls-11" d="M893.5,436.6h-20"/>
              </g>
            </g>
          </g>
          <g id="line2d_23">
            <g class="cls-3">
              <path class="cls-7" d="M88.3,430.1l79.5,78.5,79.5-94.9,79.5-12.3,79.5-300.4,79.5,368.4,79.5-374.6,79.5,64.5,79.5,322.5,79.5-231.2,79.5,258.3"/>
            </g>
          </g>
          <g id="patch_3">
            <path class="cls-9" d="M48.6,608.8V4.8"/>
          </g>
          <g id="patch_4">
            <path class="cls-9" d="M923.2,608.8V4.8"/>
          </g>
          <g id="patch_5">
            <path class="cls-9" d="M48.6,608.8h874.7"/>
          </g>
          <g id="patch_6">
            <path class="cls-9" d="M48.6,4.8h874.7"/>
          </g>
          <g id="legend_1">
            <g id="line2d_24">
              <path class="cls-7" d="M973.4,322.8h32"/>
              <path id="mc96082e46a-12" data-name="mc96082e46a" class="cls-11" d="M989.4,327.8c1.3,0,2.6-.5,3.5-1.5.9-.9,1.5-2.2,1.5-3.5s-.5-2.6-1.5-3.5c-.9-.9-2.2-1.5-3.5-1.5s-2.6.5-3.5,1.5c-.9.9-1.5,2.2-1.5,3.5s.5,2.6,1.5,3.5c.9.9,2.2,1.5,3.5,1.5Z"/>
            </g>
            <g id="text_22">
              <g>
                <path id="DejaVuSans-42" d="M1021.3,322.8v4.3h2.5c.8,0,1.5-.2,1.9-.5.4-.4.6-.9.6-1.6s-.2-1.3-.6-1.6c-.4-.3-1-.5-1.9-.5h-2.5ZM1021.3,318v3.5h2.3c.8,0,1.3-.1,1.7-.4.4-.3.6-.7.6-1.3s-.2-1-.6-1.3c-.4-.3-.9-.4-1.7-.4h-2.3ZM1019.7,316.8h4c1.2,0,2.1.2,2.8.7.7.5,1,1.2,1,2.1s-.2,1.3-.5,1.7-.8.7-1.5.8c.8.2,1.4.5,1.8,1,.4.5.6,1.2.6,2s-.4,1.8-1.1,2.4c-.7.6-1.7.8-3,.8h-4.2v-11.7Z"/>
                <path id="DejaVuSans-69-2" data-name="DejaVuSans-69" d="M1030.7,319.7h1.4v8.7h-1.4v-8.7ZM1030.7,316.3h1.4v1.8h-1.4v-1.8Z"/>
                <path id="DejaVuSans-6e-4" data-name="DejaVuSans-6e" d="M1042.4,323.1v5.3h-1.4v-5.2c0-.8-.2-1.4-.5-1.9-.3-.4-.8-.6-1.5-.6s-1.4.2-1.8.7c-.4.5-.7,1.2-.7,2v4.9h-1.4v-8.7h1.4v1.4c.3-.5.7-.9,1.2-1.2.5-.3,1-.4,1.6-.4,1,0,1.8.3,2.3.9.5.6.8,1.5.8,2.7Z"/>
                <path id="DejaVuSans-64" d="M1051,321v-4.7h1.4v12.2h-1.4v-1.3c-.3.5-.7.9-1.1,1.2-.5.3-1,.4-1.7.4-1.1,0-1.9-.4-2.6-1.3-.7-.8-1-2-1-3.3s.3-2.5,1-3.3c.7-.8,1.5-1.3,2.6-1.3s1.2.1,1.7.4c.5.3.8.6,1.1,1.2ZM1046.1,324c0,1.1.2,1.9.7,2.5.4.6,1,.9,1.8.9s1.4-.3,1.8-.9c.4-.6.7-1.4.7-2.5s-.2-1.9-.7-2.5c-.4-.6-1-.9-1.8-.9s-1.4.3-1.8.9-.7,1.4-.7,2.5Z"/>
                <path id="DejaVuSans-69-3" data-name="DejaVuSans-69" d="M1055.4,319.7h1.4v8.7h-1.4v-8.7ZM1055.4,316.3h1.4v1.8h-1.4v-1.8Z"/>
                <path id="DejaVuSans-6e-5" data-name="DejaVuSans-6e" d="M1067.1,323.1v5.3h-1.4v-5.2c0-.8-.2-1.4-.5-1.9-.3-.4-.8-.6-1.5-.6s-1.4.2-1.8.7c-.4.5-.7,1.2-.7,2v4.9h-1.4v-8.7h1.4v1.4c.3-.5.7-.9,1.2-1.2.5-.3,1-.4,1.6-.4,1,0,1.8.3,2.3.9.5.6.8,1.5.8,2.7Z"/>
                <path id="DejaVuSans-67" d="M1075.7,323.9c0-1-.2-1.8-.6-2.4-.4-.6-1-.9-1.8-.9s-1.4.3-1.8.9c-.4.6-.6,1.4-.6,2.4s.2,1.8.6,2.4c.4.6,1,.9,1.8.9s1.4-.3,1.8-.9c.4-.6.6-1.4.6-2.4ZM1077.2,327.3c0,1.5-.3,2.6-1,3.3-.7.7-1.7,1.1-3,1.1s-1,0-1.4-.1-.9-.2-1.3-.3v-1.4c.4.2.8.4,1.2.5.4.1.8.2,1.3.2.9,0,1.6-.2,2.1-.7.5-.5.7-1.2.7-2.2v-.7c-.3.5-.7.9-1.1,1.2s-1,.4-1.7.4c-1.1,0-1.9-.4-2.6-1.2-.7-.8-1-1.9-1-3.3s.3-2.4,1-3.3c.7-.8,1.5-1.2,2.6-1.2s1.2.1,1.7.4.8.6,1.1,1.2v-1.3h1.4v7.7Z"/>
                <path id="DejaVuSans-20-5" data-name="DejaVuSans-20" d="M1078.6,328.4"/>
                <path id="DejaVuSans-63-3" data-name="DejaVuSans-63" d="M1091.5,320v1.3c-.4-.2-.8-.4-1.2-.5s-.8-.2-1.2-.2c-.9,0-1.7.3-2.2.9-.5.6-.8,1.4-.8,2.5s.3,1.9.8,2.5c.5.6,1.2.9,2.2.9s.8,0,1.2-.2.8-.3,1.2-.5v1.3c-.4.2-.8.3-1.2.4-.4,0-.9.1-1.4.1-1.3,0-2.4-.4-3.1-1.2-.8-.8-1.2-1.9-1.2-3.4s.4-2.5,1.2-3.4c.8-.8,1.9-1.2,3.2-1.2s.9,0,1.3.1c.4,0,.8.2,1.2.4Z"/>
                <path id="DejaVuSans-68" d="M1101.3,323.1v5.3h-1.4v-5.2c0-.8-.2-1.4-.5-1.9-.3-.4-.8-.6-1.5-.6s-1.4.2-1.8.7c-.4.5-.7,1.2-.7,2v4.9h-1.4v-12.2h1.4v4.8c.3-.5.7-.9,1.2-1.2.5-.3,1-.4,1.6-.4,1,0,1.8.3,2.3.9.5.6.8,1.5.8,2.7Z"/>
                <path id="DejaVuSans-61-2" data-name="DejaVuSans-61" d="M1108.1,324c-1.2,0-2,.1-2.4.4s-.7.7-.7,1.4.2.9.5,1.2c.3.3.8.4,1.4.4s1.4-.3,1.9-.8.7-1.3.7-2.3v-.3h-1.4ZM1111,323.4v5h-1.4v-1.3c-.3.5-.7.9-1.2,1.2-.5.3-1.1.4-1.8.4s-1.6-.3-2.1-.8c-.5-.5-.8-1.2-.8-2s.3-1.7,1-2.2c.7-.5,1.6-.7,2.9-.7h2c0-.8-.2-1.3-.7-1.7s-1-.5-1.8-.5-1,0-1.5.2c-.5.1-.9.3-1.4.5v-1.3c.5-.2,1-.4,1.5-.5.5-.1,1-.2,1.4-.2,1.3,0,2.2.3,2.8,1,.6.7.9,1.6.9,3Z"/>
                <path id="DejaVuSans-6e-6" data-name="DejaVuSans-6e" d="M1121.2,323.1v5.3h-1.4v-5.2c0-.8-.2-1.4-.5-1.9-.3-.4-.8-.6-1.5-.6s-1.4.2-1.8.7c-.4.5-.7,1.2-.7,2v4.9h-1.4v-8.7h1.4v1.4c.3-.5.7-.9,1.2-1.2.5-.3,1-.4,1.6-.4,1,0,1.8.3,2.3.9.5.6.8,1.5.8,2.7Z"/>
                <path id="DejaVuSans-67-2" data-name="DejaVuSans-67" d="M1129.9,323.9c0-1-.2-1.8-.6-2.4-.4-.6-1-.9-1.8-.9s-1.4.3-1.8.9c-.4.6-.6,1.4-.6,2.4s.2,1.8.6,2.4c.4.6,1,.9,1.8.9s1.4-.3,1.8-.9c.4-.6.6-1.4.6-2.4ZM1131.3,327.3c0,1.5-.3,2.6-1,3.3-.7.7-1.7,1.1-3,1.1s-1,0-1.4-.1-.9-.2-1.3-.3v-1.4c.4.2.8.4,1.2.5.4.1.8.2,1.3.2.9,0,1.6-.2,2.1-.7.5-.5.7-1.2.7-2.2v-.7c-.3.5-.7.9-1.1,1.2s-1,.4-1.7.4c-1.1,0-1.9-.4-2.6-1.2-.7-.8-1-1.9-1-3.3s.3-2.4,1-3.3c.7-.8,1.5-1.2,2.6-1.2s1.2.1,1.7.4.8.6,1.1,1.2v-1.3h1.4v7.7Z"/>
                <path id="DejaVuSans-65-2" data-name="DejaVuSans-65" d="M1141.7,323.7v.7h-6.6c0,1,.4,1.7.9,2.3.5.5,1.3.8,2.2.8s1.1,0,1.6-.2,1-.3,1.5-.6v1.4c-.5.2-1,.4-1.6.5s-1.1.2-1.6.2c-1.4,0-2.5-.4-3.3-1.2-.8-.8-1.2-1.9-1.2-3.3s.4-2.6,1.2-3.4c.8-.8,1.8-1.3,3.1-1.3s2.1.4,2.8,1.1c.7.8,1,1.8,1,3.1ZM1140.3,323.3c0-.8-.2-1.4-.7-1.9-.4-.5-1-.7-1.7-.7s-1.4.2-1.9.7-.8,1.1-.8,1.9h5.1Z"/>
              </g>
            </g>
          </g>
        </g>
      </g>
    </g>
  </g>
</svg>