<svg version="1.1" xmlns="http://www.w3.org/2000/svg" xmlns:xlink="http://www.w3.org/1999/xlink" width="388" height="44"><defs><clipPath id="fclHcfHSpqTd"><path fill="none" stroke="none" d=" M 0 0 L 388 0 L 388 44 L 0 44 L 0 0 Z"/></clipPath></defs><g transform="scale(1,1)" clip-path="url(#fclHcfHSpqTd)"><g transform="translate(-59,-239)"><g transform="scale(21,21)"><g transform="translate(3.142857142857143,12.830642658730158)"><path fill="rgb(0,0,0)" stroke="none" paint-order="stroke fill markers" d=" M 0.666 -0.677 L 0.685 -0.452 L 0.66 -0.452 Q 0.65 -0.5660000000000001 0.628 -0.6 L 0.628 -0.601 Q 0.603 -0.639 0.525 -0.645 Q 0.506 -0.646 0.48 -0.646 Q 0.434 -0.646 0.423 -0.644 Q 0.406 -0.631 0.405 -0.606 L 0.405 -0.079 Q 0.405 -0.051000000000000004 0.417 -0.043000000000000003 Q 0.436 -0.031 0.51 -0.031 L 0.55 -0.031 L 0.55 0 Q 0.509 -0.003 0.36 -0.003 Q 0.212 -0.003 0.171 0 L 0.171 -0.031 L 0.211 -0.031 Q 0.299 -0.031 0.311 -0.05 Q 0.314 -0.055 0.315 -0.062 Q 0.316 -0.067 0.316 -0.079 L 0.316 -0.606 Q 0.316 -0.634 0.307 -0.64 L 0.306 -0.64 L 0.305 -0.641 L 0.304 -0.641 Q 0.301 -0.643 0.295 -0.644 Q 0.28500000000000003 -0.646 0.241 -0.646 Q 0.139 -0.646 0.106 -0.616 L 0.10200000000000001 -0.612 L 0.101 -0.611 L 0.101 -0.611 Q 0.074 -0.581 0.064 -0.481 Q 0.062 -0.46900000000000003 0.061 -0.452 L 0.036000000000000004 -0.452 L 0.055 -0.677 L 0.666 -0.677 Z"/></g><g transform="translate(3.8648571428571428,12.830642658730158)"><path fill="rgb(0,0,0)" stroke="none" paint-order="stroke fill markers" d=" M 0.241 -0.661 L 0.458 -0.101 L 0.677 -0.664 Q 0.683 -0.68 0.6900000000000001 -0.682 Q 0.6950000000000001 -0.683 0.71 -0.683 L 0.879 -0.683 L 0.879 -0.652 L 0.855 -0.652 Q 0.79 -0.652 0.78 -0.635 Q 0.776 -0.628 0.776 -0.605 L 0.776 -0.078 Q 0.776 -0.048 0.788 -0.04 L 0.788 -0.04 Q 0.803 -0.031 0.855 -0.031 L 0.879 -0.031 L 0.879 0 Q 0.842 -0.003 0.736 -0.003 Q 0.629 -0.003 0.592 0 L 0.592 -0.031 L 0.616 -0.031 Q 0.681 -0.031 0.6910000000000001 -0.048 Q 0.6950000000000001 -0.055 0.6950000000000001 -0.078 L 0.6950000000000001 -0.652 L 0.6940000000000001 -0.652 L 0.448 -0.019 Q 0.441 -0.001 0.43 0 Q 0.418 0 0.41000000000000003 -0.022 L 0.169 -0.644 L 0.168 -0.644 L 0.168 -0.105 Q 0.168 -0.062 0.195 -0.046 Q 0.221 -0.031 0.271 -0.031 L 0.271 0 Q 0.166 -0.003 0.154 -0.003 Q 0.14200000000000002 -0.003 0.037 0 L 0.037 -0.031 Q 0.134 -0.031 0.139 -0.089 Q 0.14 -0.095 0.14 -0.105 L 0.14 -0.605 Q 0.14 -0.635 0.128 -0.643 Q 0.114 -0.652 0.061 -0.652 L 0.037 -0.652 L 0.037 -0.683 L 0.20600000000000002 -0.683 Q 0.229 -0.683 0.234 -0.675 L 0.23500000000000001 -0.674 L 0.23500000000000001 -0.674 L 0.23600000000000002 -0.673 L 0.23600000000000002 -0.672 Q 0.23800000000000002 -0.668 0.241 -0.661 Z"/></g><g transform="translate(4.781857142857143,12.830642658730158)"><path fill="rgb(0,0,0)" stroke="none" paint-order="stroke fill markers" d=" M 0.222 -0.366 L 0.367 -0.366 Q 0.464 -0.366 0.507 -0.441 Q 0.527 -0.47600000000000003 0.527 -0.514 Q 0.527 -0.5750000000000001 0.485 -0.617 Q 0.45 -0.652 0.395 -0.652 L 0.271 -0.652 Q 0.232 -0.652 0.225 -0.64 L 0.225 -0.639 L 0.225 -0.639 L 0.225 -0.638 Q 0.222 -0.632 0.222 -0.612 L 0.222 -0.366 M 0.458 -0.357 L 0.458 -0.357 Q 0.56 -0.34600000000000003 0.616 -0.277 Q 0.651 -0.234 0.651 -0.183 Q 0.651 -0.10400000000000001 0.581 -0.05 Q 0.518 0 0.428 0 L 0.036000000000000004 0 L 0.036000000000000004 -0.031 L 0.06 -0.031 Q 0.125 -0.031 0.135 -0.048 Q 0.139 -0.055 0.139 -0.078 L 0.139 -0.605 Q 0.139 -0.635 0.127 -0.643 Q 0.113 -0.652 0.06 -0.652 L 0.036000000000000004 -0.652 L 0.036000000000000004 -0.683 L 0.402 -0.683 Q 0.513 -0.683 0.58 -0.615 Q 0.624 -0.5690000000000001 0.624 -0.514 Q 0.624 -0.441 0.549 -0.393 Q 0.509 -0.367 0.458 -0.357 M 0.396 -0.031 Q 0.486 -0.031 0.529 -0.105 Q 0.551 -0.14200000000000002 0.551 -0.184 Q 0.551 -0.256 0.505 -0.304 Q 0.468 -0.34400000000000003 0.41000000000000003 -0.34400000000000003 L 0.222 -0.34400000000000003 L 0.222 -0.07100000000000001 Q 0.222 -0.041 0.233 -0.036000000000000004 L 0.234 -0.036000000000000004 Q 0.243 -0.031 0.271 -0.031 L 0.396 -0.031 Z"/></g><g transform="translate(5.712079365079365,12.830642658730158)"><path fill="rgb(0,0,0)" stroke="none" paint-order="stroke fill markers" d=" M 0.40900000000000003 -0.23 L 0.40900000000000003 0.05 Q 0.40900000000000003 0.082 0.389 0.083 Q 0.369 0.083 0.369 0.05 L 0.369 -0.23 L 0.089 -0.23 Q 0.057 -0.23 0.056 -0.25 Q 0.056 -0.27 0.089 -0.27 L 0.369 -0.27 L 0.369 -0.55 Q 0.369 -0.582 0.389 -0.583 Q 0.40900000000000003 -0.583 0.40900000000000003 -0.55 L 0.40900000000000003 -0.27 L 0.6880000000000001 -0.27 Q 0.72 -0.27 0.721 -0.25 Q 0.721 -0.23 0.6880000000000001 -0.23 L 0.40900000000000003 -0.23 Z"/></g><g transform="translate(6.712301587301588,12.830642658730158)"><path fill="rgb(0,0,0)" stroke="none" paint-order="stroke fill markers" d=" M 0.613 -0.605 L 0.613 -0.078 Q 0.613 -0.048 0.625 -0.04 L 0.625 -0.04 Q 0.64 -0.031 0.6920000000000001 -0.031 L 0.716 -0.031 L 0.716 0 Q 0.681 -0.003 0.5680000000000001 -0.003 Q 0.456 -0.003 0.421 0 L 0.421 -0.031 L 0.445 -0.031 Q 0.51 -0.031 0.52 -0.048 Q 0.524 -0.055 0.524 -0.078 L 0.524 -0.34 L 0.225 -0.34 L 0.225 -0.078 Q 0.225 -0.048 0.23700000000000002 -0.04 Q 0.251 -0.031 0.304 -0.031 L 0.328 -0.031 L 0.328 0 Q 0.293 -0.003 0.18 -0.003 Q 0.068 -0.003 0.033 0 L 0.033 -0.031 L 0.057 -0.031 Q 0.122 -0.031 0.132 -0.048 Q 0.136 -0.055 0.136 -0.078 L 0.136 -0.605 Q 0.136 -0.635 0.124 -0.643 Q 0.11 -0.652 0.057 -0.652 L 0.033 -0.652 L 0.033 -0.683 Q 0.068 -0.68 0.181 -0.68 Q 0.293 -0.68 0.328 -0.683 L 0.328 -0.652 L 0.304 -0.652 Q 0.23900000000000002 -0.652 0.229 -0.635 Q 0.225 -0.628 0.225 -0.605 L 0.225 -0.371 L 0.524 -0.371 L 0.524 -0.605 Q 0.524 -0.635 0.512 -0.643 L 0.512 -0.643 Q 0.497 -0.652 0.445 -0.652 L 0.421 -0.652 L 0.421 -0.683 Q 0.456 -0.68 0.5690000000000001 -0.68 Q 0.681 -0.68 0.716 -0.683 L 0.716 -0.652 L 0.6920000000000001 -0.652 Q 0.627 -0.652 0.617 -0.635 Q 0.613 -0.628 0.613 -0.605 Z"/></g><g transform="translate(7.462301587301588,12.980642658730158) scale(0.7,0.7)"><path fill="rgb(0,0,0)" stroke="none" paint-order="stroke fill markers" d=" M 0.449 -0.17400000000000002 L 0.449 -0.17400000000000002 L 0.421 0 L 0.05 0 Q 0.05 -0.025 0.056 -0.032 L 0.061 -0.037 L 0.253 -0.251 Q 0.358 -0.369 0.358 -0.47200000000000003 Q 0.358 -0.561 0.304 -0.607 L 0.303 -0.608 L 0.302 -0.608 Q 0.27 -0.635 0.224 -0.635 Q 0.152 -0.635 0.109 -0.5730000000000001 Q 0.097 -0.555 0.089 -0.533 Q 0.092 -0.534 0.10200000000000001 -0.534 Q 0.14200000000000002 -0.534 0.153 -0.498 L 0.153 -0.497 Q 0.155 -0.49 0.155 -0.482 Q 0.155 -0.442 0.117 -0.431 Q 0.109 -0.429 0.10300000000000001 -0.429 Q 0.066 -0.429 0.054 -0.46 Q 0.05 -0.47100000000000003 0.05 -0.485 Q 0.05 -0.562 0.109 -0.617 Q 0.162 -0.666 0.23700000000000002 -0.666 Q 0.34700000000000003 -0.666 0.40800000000000003 -0.592 Q 0.443 -0.549 0.448 -0.49 Q 0.449 -0.481 0.449 -0.47200000000000003 Q 0.449 -0.399 0.394 -0.333 Q 0.365 -0.299 0.304 -0.243 L 0.243 -0.189 L 0.233 -0.18 L 0.127 -0.077 L 0.307 -0.077 Q 0.395 -0.077 0.402 -0.085 Q 0.41200000000000003 -0.099 0.424 -0.17400000000000002 L 0.449 -0.17400000000000002 Z"/></g><g transform="translate(7.812301587301588,12.830642658730158)"><path fill="rgb(0,0,0)" stroke="none" paint-order="stroke fill markers" d=" M 0.721 -0.339 Q 0.721 -0.19 0.624 -0.084 Q 0.532 0.016 0.401 0.022 L 0.388 0.022 Q 0.259 0.022 0.163 -0.074 Q 0.062 -0.17400000000000002 0.056 -0.323 L 0.056 -0.339 Q 0.056 -0.491 0.154 -0.598 Q 0.246 -0.6990000000000001 0.374 -0.705 L 0.388 -0.705 Q 0.519 -0.705 0.616 -0.606 Q 0.715 -0.504 0.721 -0.356 L 0.721 -0.339 M 0.389 -0.004 L 0.389 -0.004 Q 0.47200000000000003 -0.004 0.534 -0.075 Q 0.618 -0.17 0.618 -0.353 Q 0.618 -0.5630000000000001 0.498 -0.644 Q 0.446 -0.68 0.388 -0.68 Q 0.308 -0.68 0.245 -0.617 L 0.245 -0.616 Q 0.159 -0.528 0.159 -0.353 Q 0.159 -0.137 0.272 -0.047 Q 0.326 -0.004 0.389 -0.004 Z"/></g><g transform="translate(8.590301587301589,12.980642658730158) scale(0.7,0.7)"><path fill="rgb(0,0,0)" stroke="none" paint-order="stroke fill markers" d=" M 0.449 -0.17400000000000002 L 0.449 -0.17400000000000002 L 0.421 0 L 0.05 0 Q 0.05 -0.025 0.056 -0.032 L 0.061 -0.037 L 0.253 -0.251 Q 0.358 -0.369 0.358 -0.47200000000000003 Q 0.358 -0.561 0.304 -0.607 L 0.303 -0.608 L 0.302 -0.608 Q 0.27 -0.635 0.224 -0.635 Q 0.152 -0.635 0.109 -0.5730000000000001 Q 0.097 -0.555 0.089 -0.533 Q 0.092 -0.534 0.10200000000000001 -0.534 Q 0.14200000000000002 -0.534 0.153 -0.498 L 0.153 -0.497 Q 0.155 -0.49 0.155 -0.482 Q 0.155 -0.442 0.117 -0.431 Q 0.109 -0.429 0.10300000000000001 -0.429 Q 0.066 -0.429 0.054 -0.46 Q 0.05 -0.47100000000000003 0.05 -0.485 Q 0.05 -0.562 0.109 -0.617 Q 0.162 -0.666 0.23700000000000002 -0.666 Q 0.34700000000000003 -0.666 0.40800000000000003 -0.592 Q 0.443 -0.549 0.448 -0.49 Q 0.449 -0.481 0.449 -0.47200000000000003 Q 0.449 -0.399 0.394 -0.333 Q 0.365 -0.299 0.304 -0.243 L 0.243 -0.189 L 0.233 -0.18 L 0.127 -0.077 L 0.307 -0.077 Q 0.395 -0.077 0.402 -0.085 Q 0.41200000000000003 -0.099 0.424 -0.17400000000000002 L 0.449 -0.17400000000000002 Z"/></g><g transform="translate(9.523634920634922,12.200085714285713) scale(0.7,0.7)"><path fill="rgb(0,0,0)" stroke="none" paint-order="stroke fill markers" d=" M 0.593 -0.063 L 0.593 -0.063 Q 0.554 0.004 0.45 0.019 Q 0.428 0.022 0.406 0.022 Q 0.268 0.022 0.167 -0.076 Q 0.064 -0.176 0.056 -0.323 L 0.056 -0.342 Q 0.056 -0.491 0.157 -0.597 Q 0.252 -0.6970000000000001 0.385 -0.704 Q 0.394 -0.705 0.404 -0.705 Q 0.501 -0.705 0.58 -0.628 L 0.581 -0.627 L 0.582 -0.626 L 0.589 -0.619 L 0.639 -0.6930000000000001 Q 0.647 -0.705 0.655 -0.705 Q 0.665 -0.6960000000000001 0.666 -0.681 L 0.666 -0.444 Q 0.666 -0.423 0.66 -0.421 L 0.66 -0.421 Q 0.657 -0.42 0.65 -0.42 Q 0.637 -0.42 0.635 -0.429 Q 0.635 -0.431 0.634 -0.437 Q 0.615 -0.5750000000000001 0.526 -0.638 Q 0.47600000000000003 -0.674 0.41600000000000004 -0.674 Q 0.33 -0.674 0.263 -0.618 Q 0.245 -0.604 0.231 -0.586 Q 0.159 -0.499 0.159 -0.342 Q 0.159 -0.111 0.309 -0.036000000000000004 Q 0.364 -0.009000000000000001 0.422 -0.009000000000000001 Q 0.497 -0.009000000000000001 0.541 -0.047 Q 0.577 -0.078 0.577 -0.13 L 0.577 -0.194 Q 0.577 -0.224 0.5640000000000001 -0.232 L 0.5630000000000001 -0.232 Q 0.547 -0.242 0.484 -0.242 L 0.452 -0.242 L 0.452 -0.273 Q 0.488 -0.27 0.613 -0.27 Q 0.624 -0.27 0.735 -0.273 L 0.735 -0.242 Q 0.68 -0.242 0.671 -0.23 L 0.671 -0.229 Q 0.666 -0.222 0.666 -0.198 L 0.666 -0.024 Q 0.666 -0.002 0.657 -0.001 Q 0.644 -0.001 0.609 -0.041 Q 0.598 -0.054 0.593 -0.063 Z"/></g><g transform="translate(10.073134920634923,12.200085714285713) scale(0.7,0.7)"><path fill="rgb(0,0,0)" stroke="none" paint-order="stroke fill markers" d=" M 0.276 -0.187 L 0.011 -0.187 L 0.011 -0.245 L 0.276 -0.245 L 0.276 -0.187 Z"/></g><g transform="translate(10.306234920634923,12.200085714285713) scale(0.7,0.7)"><path fill="rgb(0,0,0)" stroke="none" paint-order="stroke fill markers" d=" M 0.38 -0.061 L 0.38 -0.061 Q 0.325 0.011 0.247 0.011 Q 0.153 0.011 0.089 -0.064 Q 0.034 -0.129 0.034 -0.215 Q 0.034 -0.32 0.113 -0.388 Q 0.17500000000000002 -0.442 0.255 -0.442 Q 0.336 -0.442 0.381 -0.366 Q 0.386 -0.358 0.389 -0.35100000000000003 L 0.427 -0.442 L 0.449 -0.442 L 0.449 0.11800000000000001 Q 0.449 0.152 0.465 0.158 Q 0.47600000000000003 0.163 0.527 0.163 L 0.527 0.194 Q 0.422 0.191 0.41400000000000003 0.191 Q 0.404 0.191 0.302 0.194 L 0.302 0.163 Q 0.361 0.163 0.371 0.154 L 0.373 0.152 L 0.373 0.152 Q 0.38 0.14300000000000002 0.38 0.11800000000000001 L 0.38 -0.061 M 0.383 -0.277 L 0.383 -0.277 Q 0.383 -0.331 0.34500000000000003 -0.376 Q 0.31 -0.417 0.261 -0.417 Q 0.198 -0.417 0.155 -0.352 Q 0.117 -0.295 0.117 -0.215 Q 0.117 -0.109 0.17400000000000002 -0.048 Q 0.20800000000000002 -0.011 0.251 -0.011 Q 0.305 -0.011 0.343 -0.052000000000000005 Q 0.383 -0.096 0.383 -0.136 L 0.383 -0.277 Z"/></g><g transform="translate(10.675834920634923,12.200085714285713) scale(0.7,0.7)"><path fill="rgb(0,0,0)" stroke="none" paint-order="stroke fill markers" d=" M 0.391 -0.079 L 0.391 -0.079 Q 0.34900000000000003 0.011 0.262 0.011 Q 0.139 0.011 0.117 -0.075 Q 0.11 -0.101 0.11 -0.158 L 0.11 -0.308 Q 0.11 -0.373 0.101 -0.386 L 0.095 -0.392 Q 0.084 -0.4 0.032 -0.4 L 0.032 -0.431 L 0.179 -0.442 L 0.179 -0.11 Q 0.179 -0.049 0.201 -0.029 L 0.202 -0.029 Q 0.223 -0.011 0.267 -0.011 Q 0.335 -0.011 0.368 -0.078 Q 0.388 -0.116 0.388 -0.166 L 0.388 -0.34400000000000003 Q 0.388 -0.383 0.373 -0.392 L 0.372 -0.392 Q 0.358 -0.4 0.31 -0.4 L 0.31 -0.431 L 0.457 -0.442 L 0.457 -0.08700000000000001 Q 0.457 -0.048 0.47200000000000003 -0.039 L 0.47300000000000003 -0.039 Q 0.487 -0.031 0.535 -0.031 L 0.535 0 L 0.391 0.011 L 0.391 -0.079 Z"/></g><g transform="translate(11.065034920634924,12.200085714285713) scale(0.7,0.7)"><path fill="rgb(0,0,0)" stroke="none" paint-order="stroke fill markers" d=" M 0.333 -0.076 Q 0.308 -0.014 0.245 0.005 Q 0.225 0.011 0.202 0.011 Q 0.117 0.011 0.07100000000000001 -0.03 Q 0.042 -0.056 0.042 -0.095 Q 0.042 -0.17200000000000001 0.127 -0.218 Q 0.134 -0.222 0.14200000000000002 -0.225 Q 0.203 -0.254 0.321 -0.261 L 0.326 -0.261 L 0.326 -0.298 Q 0.326 -0.383 0.265 -0.41500000000000004 Q 0.244 -0.426 0.22 -0.426 Q 0.154 -0.426 0.11800000000000001 -0.387 Q 0.115 -0.383 0.112 -0.38 Q 0.159 -0.374 0.163 -0.334 Q 0.163 -0.3 0.132 -0.29 Q 0.125 -0.28800000000000003 0.117 -0.28800000000000003 Q 0.081 -0.28800000000000003 0.073 -0.321 Q 0.07100000000000001 -0.326 0.07100000000000001 -0.335 Q 0.07100000000000001 -0.395 0.134 -0.427 Q 0.17300000000000001 -0.448 0.222 -0.448 Q 0.304 -0.448 0.359 -0.393 Q 0.394 -0.357 0.395 -0.293 L 0.395 -0.292 L 0.395 -0.275 L 0.395 -0.075 Q 0.395 -0.046 0.41300000000000003 -0.032 Q 0.421 -0.025 0.432 -0.025 Q 0.467 -0.025 0.468 -0.089 L 0.468 -0.145 L 0.493 -0.145 L 0.493 -0.089 Q 0.493 -0.016 0.433 0.002 Q 0.421 0.006 0.41100000000000003 0.006 Q 0.362 0.006 0.341 -0.046 Q 0.335 -0.06 0.333 -0.076 M 0.326 -0.24 Q 0.17200000000000001 -0.234 0.13 -0.146 Q 0.11900000000000001 -0.122 0.11900000000000001 -0.096 Q 0.11900000000000001 -0.045 0.165 -0.021 Q 0.185 -0.011 0.209 -0.011 Q 0.261 -0.011 0.296 -0.052000000000000005 Q 0.326 -0.08600000000000001 0.326 -0.14 L 0.326 -0.24 Z"/></g><g transform="translate(11.415034920634923,12.200085714285713) scale(0.7,0.7)"><path fill="rgb(0,0,0)" stroke="none" paint-order="stroke fill markers" d=" M 0.38 -0.055 Q 0.328 0.011 0.246 0.011 Q 0.154 0.011 0.09 -0.062 Q 0.034 -0.127 0.034 -0.215 Q 0.034 -0.319 0.112 -0.387 Q 0.17500000000000002 -0.442 0.257 -0.442 Q 0.333 -0.442 0.383 -0.38 L 0.383 -0.596 Q 0.383 -0.635 0.369 -0.644 L 0.368 -0.644 Q 0.355 -0.652 0.305 -0.652 L 0.305 -0.683 L 0.449 -0.6940000000000001 L 0.449 -0.08700000000000001 Q 0.449 -0.048 0.464 -0.039 L 0.465 -0.039 Q 0.47900000000000004 -0.031 0.527 -0.031 L 0.527 0 L 0.38 0.011 L 0.38 -0.055 M 0.38 -0.323 Q 0.38 -0.343 0.371 -0.356 L 0.369 -0.36 Q 0.328 -0.42 0.261 -0.42 Q 0.191 -0.42 0.148 -0.356 Q 0.117 -0.308 0.117 -0.214 Q 0.117 -0.121 0.146 -0.075 Q 0.186 -0.011 0.251 -0.011 Q 0.323 -0.011 0.367 -0.077 L 0.369 -0.081 Q 0.38 -0.10200000000000001 0.38 -0.11800000000000001 L 0.38 -0.323 Z"/></g><g transform="translate(11.804234920634924,12.200085714285713) scale(0.7,0.7)"><path fill="rgb(0,0,0)" stroke="none" paint-order="stroke fill markers" d=" M 0.276 -0.187 L 0.011 -0.187 L 0.011 -0.245 L 0.276 -0.245 L 0.276 -0.187 Z"/></g><g transform="translate(12.037334920634924,12.200085714285713) scale(0.7,0.7)"><path fill="rgb(0,0,0)" stroke="none" paint-order="stroke fill markers" d=" M 0.457 -0.252 L 0.457 -0.061 Q 0.458 -0.037 0.486 -0.033 Q 0.498 -0.031 0.535 -0.031 L 0.535 0 Q 0.433 -0.003 0.423 -0.003 Q 0.41500000000000004 -0.003 0.31 0 L 0.31 -0.031 Q 0.369 -0.031 0.379 -0.04 L 0.381 -0.042 Q 0.388 -0.05 0.388 -0.076 L 0.388 -0.309 Q 0.388 -0.40800000000000003 0.331 -0.418 Q 0.323 -0.42 0.314 -0.42 Q 0.253 -0.42 0.212 -0.367 Q 0.179 -0.324 0.179 -0.26 L 0.179 -0.076 Q 0.179 -0.042 0.195 -0.036000000000000004 Q 0.20600000000000002 -0.031 0.257 -0.031 L 0.257 0 Q 0.155 -0.003 0.145 -0.003 Q 0.137 -0.003 0.032 0 L 0.032 -0.031 Q 0.091 -0.031 0.101 -0.04 L 0.10300000000000001 -0.042 Q 0.11 -0.05 0.11 -0.076 L 0.11 -0.596 Q 0.11 -0.635 0.096 -0.644 L 0.095 -0.644 Q 0.084 -0.65 0.057 -0.652 L 0.032 -0.652 L 0.032 -0.683 L 0.176 -0.6940000000000001 L 0.176 -0.34600000000000003 L 0.177 -0.34600000000000003 Q 0.20400000000000001 -0.40700000000000003 0.263 -0.431 Q 0.294 -0.441 0.321 -0.442 Q 0.396 -0.442 0.426 -0.405 Q 0.453 -0.374 0.456 -0.32 Q 0.457 -0.301 0.457 -0.252 Z"/></g><g transform="translate(12.426534920634925,12.200085714285713) scale(0.7,0.7)"><path fill="rgb(0,0,0)" stroke="none" paint-order="stroke fill markers" d=" M 0.333 -0.076 Q 0.308 -0.014 0.245 0.005 Q 0.225 0.011 0.202 0.011 Q 0.117 0.011 0.07100000000000001 -0.03 Q 0.042 -0.056 0.042 -0.095 Q 0.042 -0.17200000000000001 0.127 -0.218 Q 0.134 -0.222 0.14200000000000002 -0.225 Q 0.203 -0.254 0.321 -0.261 L 0.326 -0.261 L 0.326 -0.298 Q 0.326 -0.383 0.265 -0.41500000000000004 Q 0.244 -0.426 0.22 -0.426 Q 0.154 -0.426 0.11800000000000001 -0.387 Q 0.115 -0.383 0.112 -0.38 Q 0.159 -0.374 0.163 -0.334 Q 0.163 -0.3 0.132 -0.29 Q 0.125 -0.28800000000000003 0.117 -0.28800000000000003 Q 0.081 -0.28800000000000003 0.073 -0.321 Q 0.07100000000000001 -0.326 0.07100000000000001 -0.335 Q 0.07100000000000001 -0.395 0.134 -0.427 Q 0.17300000000000001 -0.448 0.222 -0.448 Q 0.304 -0.448 0.359 -0.393 Q 0.394 -0.357 0.395 -0.293 L 0.395 -0.292 L 0.395 -0.275 L 0.395 -0.075 Q 0.395 -0.046 0.41300000000000003 -0.032 Q 0.421 -0.025 0.432 -0.025 Q 0.467 -0.025 0.468 -0.089 L 0.468 -0.145 L 0.493 -0.145 L 0.493 -0.089 Q 0.493 -0.016 0.433 0.002 Q 0.421 0.006 0.41100000000000003 0.006 Q 0.362 0.006 0.341 -0.046 Q 0.335 -0.06 0.333 -0.076 M 0.326 -0.24 Q 0.17200000000000001 -0.234 0.13 -0.146 Q 0.11900000000000001 -0.122 0.11900000000000001 -0.096 Q 0.11900000000000001 -0.045 0.165 -0.021 Q 0.185 -0.011 0.209 -0.011 Q 0.261 -0.011 0.296 -0.052000000000000005 Q 0.326 -0.08600000000000001 0.326 -0.14 L 0.326 -0.24 Z"/></g><g transform="translate(12.776534920634925,12.200085714285713) scale(0.7,0.7)"><path fill="rgb(0,0,0)" stroke="none" paint-order="stroke fill markers" d=" M 0.39 -0.231 L 0.39 -0.231 L 0.111 -0.231 Q 0.111 -0.129 0.14100000000000001 -0.081 Q 0.189 -0.019 0.254 -0.014 Q 0.323 -0.014 0.365 -0.07 Q 0.38 -0.09 0.389 -0.117 Q 0.392 -0.131 0.402 -0.131 Q 0.41500000000000004 -0.131 0.41500000000000004 -0.11900000000000001 Q 0.41500000000000004 -0.097 0.387 -0.059000000000000004 Q 0.34600000000000003 -0.003 0.279 0.008 Q 0.264 0.011 0.248 0.011 Q 0.154 0.011 0.088 -0.061 Q 0.028 -0.127 0.028 -0.22 Q 0.028 -0.324 0.1 -0.392 Q 0.158 -0.448 0.23600000000000002 -0.448 Q 0.34900000000000003 -0.448 0.394 -0.352 Q 0.41500000000000004 -0.307 0.41500000000000004 -0.252 Q 0.41500000000000004 -0.23500000000000001 0.40800000000000003 -0.232 Q 0.405 -0.231 0.39 -0.231 M 0.112 -0.252 L 0.112 -0.252 L 0.34900000000000003 -0.252 Q 0.34900000000000003 -0.34700000000000003 0.307 -0.395 Q 0.279 -0.426 0.23600000000000002 -0.426 Q 0.185 -0.426 0.15 -0.379 Q 0.115 -0.334 0.112 -0.252 Z"/></g><g transform="translate(13.087334920634925,12.200085714285713) scale(0.7,0.7)"><path fill="rgb(0,0,0)" stroke="none" paint-order="stroke fill markers" d=" M 0.11 -0.34400000000000003 Q 0.11 -0.383 0.095 -0.392 Q 0.083 -0.399 0.052000000000000005 -0.4 L 0.032 -0.4 L 0.032 -0.431 L 0.17300000000000001 -0.442 L 0.17300000000000001 -0.337 Q 0.22 -0.442 0.321 -0.442 Q 0.438 -0.442 0.454 -0.34400000000000003 Q 0.484 -0.41200000000000003 0.548 -0.434 Q 0.5720000000000001 -0.442 0.599 -0.442 Q 0.674 -0.442 0.704 -0.405 Q 0.731 -0.374 0.734 -0.32 Q 0.735 -0.301 0.735 -0.252 L 0.735 -0.061 Q 0.736 -0.037 0.764 -0.033 Q 0.776 -0.031 0.8130000000000001 -0.031 L 0.8130000000000001 0 Q 0.711 -0.003 0.7010000000000001 -0.003 Q 0.6930000000000001 -0.003 0.588 0 L 0.588 -0.031 Q 0.647 -0.031 0.657 -0.04 L 0.659 -0.042 Q 0.666 -0.05 0.666 -0.076 L 0.666 -0.309 Q 0.666 -0.40800000000000003 0.609 -0.418 Q 0.601 -0.42 0.592 -0.42 Q 0.531 -0.42 0.49 -0.367 Q 0.457 -0.324 0.457 -0.26 L 0.457 -0.076 Q 0.457 -0.042 0.47300000000000003 -0.036000000000000004 Q 0.484 -0.031 0.535 -0.031 L 0.535 0 Q 0.433 -0.003 0.423 -0.003 Q 0.41500000000000004 -0.003 0.31 0 L 0.31 -0.031 Q 0.369 -0.031 0.379 -0.04 L 0.381 -0.042 Q 0.388 -0.05 0.388 -0.076 L 0.388 -0.309 Q 0.388 -0.40800000000000003 0.331 -0.418 Q 0.323 -0.42 0.314 -0.42 Q 0.253 -0.42 0.212 -0.367 Q 0.179 -0.324 0.179 -0.26 L 0.179 -0.076 Q 0.179 -0.042 0.195 -0.036000000000000004 Q 0.20600000000000002 -0.031 0.257 -0.031 L 0.257 0 Q 0.155 -0.003 0.145 -0.003 Q 0.137 -0.003 0.032 0 L 0.032 -0.031 Q 0.091 -0.031 0.101 -0.04 L 0.10300000000000001 -0.042 Q 0.11 -0.05 0.11 -0.076 L 0.11 -0.34400000000000003 Z"/></g><g transform="translate(13.670434920634925,12.200085714285713) scale(0.7,0.7)"><path fill="rgb(0,0,0)" stroke="none" paint-order="stroke fill markers" d=" M 0.177 -0.442 L 0.177 -0.442 L 0.177 -0.075 Q 0.177 -0.044 0.189 -0.037 L 0.189 -0.037 Q 0.201 -0.031 0.247 -0.031 L 0.247 0 Q 0.145 -0.003 0.14300000000000002 -0.003 Q 0.129 -0.003 0.033 0 L 0.033 -0.031 Q 0.092 -0.031 0.10200000000000001 -0.04 L 0.10400000000000001 -0.042 Q 0.111 -0.05 0.111 -0.076 L 0.111 -0.34500000000000003 Q 0.111 -0.385 0.095 -0.393 L 0.094 -0.393 L 0.094 -0.393 L 0.093 -0.394 L 0.093 -0.394 Q 0.08 -0.4 0.037 -0.4 L 0.037 -0.431 L 0.177 -0.442 M 0.181 -0.616 Q 0.181 -0.579 0.148 -0.5670000000000001 Q 0.138 -0.5630000000000001 0.128 -0.5630000000000001 Q 0.093 -0.5630000000000001 0.079 -0.595 L 0.079 -0.596 Q 0.075 -0.606 0.075 -0.616 Q 0.075 -0.647 0.10300000000000001 -0.662 Q 0.114 -0.669 0.128 -0.669 Q 0.162 -0.669 0.176 -0.639 Q 0.181 -0.628 0.181 -0.616 Z"/></g><g transform="translate(13.865034920634924,12.200085714285713) scale(0.7,0.7)"><path fill="rgb(0,0,0)" stroke="none" paint-order="stroke fill markers" d=" M 0.11 -0.34400000000000003 Q 0.11 -0.383 0.095 -0.392 Q 0.083 -0.399 0.052000000000000005 -0.4 L 0.032 -0.4 L 0.032 -0.431 L 0.17300000000000001 -0.442 L 0.17300000000000001 -0.337 Q 0.22 -0.442 0.321 -0.442 Q 0.396 -0.442 0.426 -0.405 Q 0.453 -0.374 0.456 -0.32 Q 0.457 -0.301 0.457 -0.252 L 0.457 -0.061 Q 0.458 -0.037 0.486 -0.033 Q 0.498 -0.031 0.535 -0.031 L 0.535 0 Q 0.433 -0.003 0.423 -0.003 Q 0.41500000000000004 -0.003 0.31 0 L 0.31 -0.031 Q 0.369 -0.031 0.379 -0.04 L 0.381 -0.042 Q 0.388 -0.05 0.388 -0.076 L 0.388 -0.309 Q 0.388 -0.40800000000000003 0.331 -0.418 Q 0.323 -0.42 0.314 -0.42 Q 0.253 -0.42 0.212 -0.367 Q 0.179 -0.324 0.179 -0.26 L 0.179 -0.076 Q 0.179 -0.042 0.195 -0.036000000000000004 Q 0.20600000000000002 -0.031 0.257 -0.031 L 0.257 0 Q 0.155 -0.003 0.145 -0.003 Q 0.137 -0.003 0.032 0 L 0.032 -0.031 Q 0.091 -0.031 0.101 -0.04 L 0.10300000000000001 -0.042 Q 0.11 -0.05 0.11 -0.076 L 0.11 -0.34400000000000003 Z"/></g><g transform="translate(9.329190476190478,12.813871825396824)"><path fill="rgb(0,0,0)" stroke="none" paint-order="stroke fill markers" d=" M 0.089 -0.23 Q 0.059 -0.235 0.056 -0.25 Q 0.056 -0.27 0.089 -0.27 L 5.067488888888889 -0.27 Q 4.999488888888889 -0.32 4.965488888888889 -0.399 L 4.964488888888889 -0.4 Q 4.959488888888889 -0.413 4.959488888888889 -0.416 Q 4.959488888888889 -0.428 4.974488888888889 -0.428 Q 4.985488888888889 -0.428 4.991488888888889 -0.414 Q 5.035488888888889 -0.315 5.127488888888889 -0.268 L 5.128488888888889 -0.268 L 5.129488888888889 -0.267 L 5.130488888888889 -0.267 Q 5.137488888888889 -0.263 5.144488888888889 -0.26 Q 5.148488888888889 -0.26 5.151488888888889 -0.25 Q 5.151488888888889 -0.243 5.142488888888889 -0.238 Q 5.140488888888889 -0.238 5.137488888888889 -0.236 Q 5.038488888888889 -0.189 4.992488888888889 -0.086 L 4.992488888888889 -0.086 Q 4.991488888888889 -0.085 4.990488888888889 -0.082 Q 4.985488888888889 -0.072 4.974488888888889 -0.072 Q 4.959488888888889 -0.072 4.959488888888889 -0.084 Q 4.959488888888889 -0.099 4.988488888888889 -0.144 Q 5.021488888888889 -0.196 5.067488888888889 -0.23 L 5.067488888888889 -0.23 Z"/><g transform="translate(-9.329190476190478,-12.813871825396824)"><g transform="translate(14.837568253968257,12.830642658730158)"><path fill="rgb(0,0,0)" stroke="none" paint-order="stroke fill markers" d=" M 0.666 -0.677 L 0.685 -0.452 L 0.66 -0.452 Q 0.65 -0.5660000000000001 0.628 -0.6 L 0.628 -0.601 Q 0.603 -0.639 0.525 -0.645 Q 0.506 -0.646 0.48 -0.646 Q 0.434 -0.646 0.423 -0.644 Q 0.406 -0.631 0.405 -0.606 L 0.405 -0.079 Q 0.405 -0.051000000000000004 0.417 -0.043000000000000003 Q 0.436 -0.031 0.51 -0.031 L 0.55 -0.031 L 0.55 0 Q 0.509 -0.003 0.36 -0.003 Q 0.212 -0.003 0.171 0 L 0.171 -0.031 L 0.211 -0.031 Q 0.299 -0.031 0.311 -0.05 Q 0.314 -0.055 0.315 -0.062 Q 0.316 -0.067 0.316 -0.079 L 0.316 -0.606 Q 0.316 -0.634 0.307 -0.64 L 0.306 -0.64 L 0.305 -0.641 L 0.304 -0.641 Q 0.301 -0.643 0.295 -0.644 Q 0.28500000000000003 -0.646 0.241 -0.646 Q 0.139 -0.646 0.106 -0.616 L 0.10200000000000001 -0.612 L 0.101 -0.611 L 0.101 -0.611 Q 0.074 -0.581 0.064 -0.481 Q 0.062 -0.46900000000000003 0.061 -0.452 L 0.036000000000000004 -0.452 L 0.055 -0.677 L 0.666 -0.677 Z"/></g><g transform="translate(15.559568253968257,12.830642658730158)"><path fill="rgb(0,0,0)" stroke="none" paint-order="stroke fill markers" d=" M 0.241 -0.661 L 0.458 -0.101 L 0.677 -0.664 Q 0.683 -0.68 0.6900000000000001 -0.682 Q 0.6950000000000001 -0.683 0.71 -0.683 L 0.879 -0.683 L 0.879 -0.652 L 0.855 -0.652 Q 0.79 -0.652 0.78 -0.635 Q 0.776 -0.628 0.776 -0.605 L 0.776 -0.078 Q 0.776 -0.048 0.788 -0.04 L 0.788 -0.04 Q 0.803 -0.031 0.855 -0.031 L 0.879 -0.031 L 0.879 0 Q 0.842 -0.003 0.736 -0.003 Q 0.629 -0.003 0.592 0 L 0.592 -0.031 L 0.616 -0.031 Q 0.681 -0.031 0.6910000000000001 -0.048 Q 0.6950000000000001 -0.055 0.6950000000000001 -0.078 L 0.6950000000000001 -0.652 L 0.6940000000000001 -0.652 L 0.448 -0.019 Q 0.441 -0.001 0.43 0 Q 0.418 0 0.41000000000000003 -0.022 L 0.169 -0.644 L 0.168 -0.644 L 0.168 -0.105 Q 0.168 -0.062 0.195 -0.046 Q 0.221 -0.031 0.271 -0.031 L 0.271 0 Q 0.166 -0.003 0.154 -0.003 Q 0.14200000000000002 -0.003 0.037 0 L 0.037 -0.031 Q 0.134 -0.031 0.139 -0.089 Q 0.14 -0.095 0.14 -0.105 L 0.14 -0.605 Q 0.14 -0.635 0.128 -0.643 Q 0.114 -0.652 0.061 -0.652 L 0.037 -0.652 L 0.037 -0.683 L 0.20600000000000002 -0.683 Q 0.229 -0.683 0.234 -0.675 L 0.23500000000000001 -0.674 L 0.23500000000000001 -0.674 L 0.23600000000000002 -0.673 L 0.23600000000000002 -0.672 Q 0.23800000000000002 -0.668 0.241 -0.661 Z"/></g><g transform="translate(16.476568253968257,12.830642658730158)"><path fill="rgb(0,0,0)" stroke="none" paint-order="stroke fill markers" d=" M 0.222 -0.366 L 0.367 -0.366 Q 0.464 -0.366 0.507 -0.441 Q 0.527 -0.47600000000000003 0.527 -0.514 Q 0.527 -0.5750000000000001 0.485 -0.617 Q 0.45 -0.652 0.395 -0.652 L 0.271 -0.652 Q 0.232 -0.652 0.225 -0.64 L 0.225 -0.639 L 0.225 -0.639 L 0.225 -0.638 Q 0.222 -0.632 0.222 -0.612 L 0.222 -0.366 M 0.458 -0.357 L 0.458 -0.357 Q 0.56 -0.34600000000000003 0.616 -0.277 Q 0.651 -0.234 0.651 -0.183 Q 0.651 -0.10400000000000001 0.581 -0.05 Q 0.518 0 0.428 0 L 0.036000000000000004 0 L 0.036000000000000004 -0.031 L 0.06 -0.031 Q 0.125 -0.031 0.135 -0.048 Q 0.139 -0.055 0.139 -0.078 L 0.139 -0.605 Q 0.139 -0.635 0.127 -0.643 Q 0.113 -0.652 0.06 -0.652 L 0.036000000000000004 -0.652 L 0.036000000000000004 -0.683 L 0.402 -0.683 Q 0.513 -0.683 0.58 -0.615 Q 0.624 -0.5690000000000001 0.624 -0.514 Q 0.624 -0.441 0.549 -0.393 Q 0.509 -0.367 0.458 -0.357 M 0.396 -0.031 Q 0.486 -0.031 0.529 -0.105 Q 0.551 -0.14200000000000002 0.551 -0.184 Q 0.551 -0.256 0.505 -0.304 Q 0.468 -0.34400000000000003 0.41000000000000003 -0.34400000000000003 L 0.222 -0.34400000000000003 L 0.222 -0.07100000000000001 Q 0.222 -0.041 0.233 -0.036000000000000004 L 0.234 -0.036000000000000004 Q 0.243 -0.031 0.271 -0.031 L 0.396 -0.031 Z"/></g><g transform="translate(17.18456825396826,12.417750658730158) scale(0.7,0.7)"><path fill="rgb(0,0,0)" stroke="none" paint-order="stroke fill markers" d=" M 0.40900000000000003 -0.23 L 0.40900000000000003 0.05 Q 0.40900000000000003 0.082 0.389 0.083 Q 0.369 0.083 0.369 0.05 L 0.369 -0.23 L 0.089 -0.23 Q 0.057 -0.23 0.056 -0.25 Q 0.056 -0.27 0.089 -0.27 L 0.369 -0.27 L 0.369 -0.55 Q 0.369 -0.582 0.389 -0.583 Q 0.40900000000000003 -0.583 0.40900000000000003 -0.55 L 0.40900000000000003 -0.27 L 0.6880000000000001 -0.27 Q 0.72 -0.27 0.721 -0.25 Q 0.721 -0.23 0.6880000000000001 -0.23 L 0.40900000000000003 -0.23 Z"/></g><g transform="translate(17.975111047854764,12.830642658730158)"><path fill="rgb(0,0,0)" stroke="none" paint-order="stroke fill markers" d=" M 0.40900000000000003 -0.23 L 0.40900000000000003 0.05 Q 0.40900000000000003 0.082 0.389 0.083 Q 0.369 0.083 0.369 0.05 L 0.369 -0.23 L 0.089 -0.23 Q 0.057 -0.23 0.056 -0.25 Q 0.056 -0.27 0.089 -0.27 L 0.369 -0.27 L 0.369 -0.55 Q 0.369 -0.582 0.389 -0.583 Q 0.40900000000000003 -0.583 0.40900000000000003 -0.55 L 0.40900000000000003 -0.27 L 0.6880000000000001 -0.27 Q 0.72 -0.27 0.721 -0.25 Q 0.721 -0.23 0.6880000000000001 -0.23 L 0.40900000000000003 -0.23 Z"/></g><g transform="translate(18.975333270076984,12.830642658730158)"><path fill="rgb(0,0,0)" stroke="none" paint-order="stroke fill markers" d=" M 0.613 -0.605 L 0.613 -0.078 Q 0.613 -0.048 0.625 -0.04 L 0.625 -0.04 Q 0.64 -0.031 0.6920000000000001 -0.031 L 0.716 -0.031 L 0.716 0 Q 0.681 -0.003 0.5680000000000001 -0.003 Q 0.456 -0.003 0.421 0 L 0.421 -0.031 L 0.445 -0.031 Q 0.51 -0.031 0.52 -0.048 Q 0.524 -0.055 0.524 -0.078 L 0.524 -0.34 L 0.225 -0.34 L 0.225 -0.078 Q 0.225 -0.048 0.23700000000000002 -0.04 Q 0.251 -0.031 0.304 -0.031 L 0.328 -0.031 L 0.328 0 Q 0.293 -0.003 0.18 -0.003 Q 0.068 -0.003 0.033 0 L 0.033 -0.031 L 0.057 -0.031 Q 0.122 -0.031 0.132 -0.048 Q 0.136 -0.055 0.136 -0.078 L 0.136 -0.605 Q 0.136 -0.635 0.124 -0.643 Q 0.11 -0.652 0.057 -0.652 L 0.033 -0.652 L 0.033 -0.683 Q 0.068 -0.68 0.181 -0.68 Q 0.293 -0.68 0.328 -0.683 L 0.328 -0.652 L 0.304 -0.652 Q 0.23900000000000002 -0.652 0.229 -0.635 Q 0.225 -0.628 0.225 -0.605 L 0.225 -0.371 L 0.524 -0.371 L 0.524 -0.605 Q 0.524 -0.635 0.512 -0.643 L 0.512 -0.643 Q 0.497 -0.652 0.445 -0.652 L 0.421 -0.652 L 0.421 -0.683 Q 0.456 -0.68 0.5690000000000001 -0.68 Q 0.681 -0.68 0.716 -0.683 L 0.716 -0.652 L 0.6920000000000001 -0.652 Q 0.627 -0.652 0.617 -0.635 Q 0.613 -0.628 0.613 -0.605 Z"/></g><g transform="translate(19.725333270076984,12.980642658730158) scale(0.7,0.7)"><path fill="rgb(0,0,0)" stroke="none" paint-order="stroke fill markers" d=" M 0.449 -0.17400000000000002 L 0.449 -0.17400000000000002 L 0.421 0 L 0.05 0 Q 0.05 -0.025 0.056 -0.032 L 0.061 -0.037 L 0.253 -0.251 Q 0.358 -0.369 0.358 -0.47200000000000003 Q 0.358 -0.561 0.304 -0.607 L 0.303 -0.608 L 0.302 -0.608 Q 0.27 -0.635 0.224 -0.635 Q 0.152 -0.635 0.109 -0.5730000000000001 Q 0.097 -0.555 0.089 -0.533 Q 0.092 -0.534 0.10200000000000001 -0.534 Q 0.14200000000000002 -0.534 0.153 -0.498 L 0.153 -0.497 Q 0.155 -0.49 0.155 -0.482 Q 0.155 -0.442 0.117 -0.431 Q 0.109 -0.429 0.10300000000000001 -0.429 Q 0.066 -0.429 0.054 -0.46 Q 0.05 -0.47100000000000003 0.05 -0.485 Q 0.05 -0.562 0.109 -0.617 Q 0.162 -0.666 0.23700000000000002 -0.666 Q 0.34700000000000003 -0.666 0.40800000000000003 -0.592 Q 0.443 -0.549 0.448 -0.49 Q 0.449 -0.481 0.449 -0.47200000000000003 Q 0.449 -0.399 0.394 -0.333 Q 0.365 -0.299 0.304 -0.243 L 0.243 -0.189 L 0.233 -0.18 L 0.127 -0.077 L 0.307 -0.077 Q 0.395 -0.077 0.402 -0.085 Q 0.41200000000000003 -0.099 0.424 -0.17400000000000002 L 0.449 -0.17400000000000002 Z"/></g><g transform="translate(20.075333270076985,12.830642658730158)"><path fill="rgb(0,0,0)" stroke="none" paint-order="stroke fill markers" d=" M 0.721 -0.339 Q 0.721 -0.19 0.624 -0.084 Q 0.532 0.016 0.401 0.022 L 0.388 0.022 Q 0.259 0.022 0.163 -0.074 Q 0.062 -0.17400000000000002 0.056 -0.323 L 0.056 -0.339 Q 0.056 -0.491 0.154 -0.598 Q 0.246 -0.6990000000000001 0.374 -0.705 L 0.388 -0.705 Q 0.519 -0.705 0.616 -0.606 Q 0.715 -0.504 0.721 -0.356 L 0.721 -0.339 M 0.389 -0.004 L 0.389 -0.004 Q 0.47200000000000003 -0.004 0.534 -0.075 Q 0.618 -0.17 0.618 -0.353 Q 0.618 -0.5630000000000001 0.498 -0.644 Q 0.446 -0.68 0.388 -0.68 Q 0.308 -0.68 0.245 -0.617 L 0.245 -0.616 Q 0.159 -0.528 0.159 -0.353 Q 0.159 -0.137 0.272 -0.047 Q 0.326 -0.004 0.389 -0.004 Z"/></g></g></g></g></g></g></svg>