<?xml version="1.0" encoding="UTF-8"?><svg id="Layer_2" xmlns="http://www.w3.org/2000/svg" viewBox="0 0 631.64 672.55"><defs><style>.cls-1{fill:#fcfcf7;stroke-width:0px;}</style></defs><g id="Style_Guide"><g id="Exportable"><g id="Light_Logo"><g id="Light"><path class="cls-1" d="M502,128c5.9,0,11.85-.51,17.76-1.45,1.66-8.05,2.18-16.28,1.3-24.52-1.78-17.5-12.72-31.72-27.39-41.3-8.99-5.76-18.67-10.15-28.77-13.45-8.21,13.47-12.9,28.16-12.9,41.72,0,23,27,39,50,39Z"/><path class="cls-1" d="M548.49,90.24c1.88,9.03,2.36,18.23,1.68,27.36,31.89-13.83,56.83-39.79,56.83-67.6S575,0,543,0c-22.3,0-42.52,9.46-58.2,23.43,30.08,12.18,56.63,33.62,63.69,66.81Z"/><path class="cls-1" d="M254.5,228.5c-.6-1.27-1.56-3-3-3-3,0-5,7-10,7-21.02,0-37-34-56-34-7.43,0-12.8,6.14-16,10v65.44c28.05,6.39,56.56,11.35,85,16.36v-61.8Z"/><path class="cls-1" d="M169.5,301.36c11.8,2.52,23.62,4.83,35.42,7.11,16.23,3.22,32.9,6.03,49.58,8.85v299.67c0,23.47-19.03,42.5-42.5,42.5s-42.5-19.03-42.5-42.5v-315.64Z"/></g><g id="Dark"><path class="cls-1" d="M101,168c-.68,0-1.37-.14-2.03-.43l-54-24c-2.52-1.12-3.66-4.08-2.54-6.6,1.12-2.52,4.07-3.66,6.6-2.54l54,24c2.52,1.12,3.66,4.08,2.54,6.6-.83,1.86-2.66,2.97-4.57,2.97Z"/><path class="cls-1" d="M116,144c-.97,0-1.96-.28-2.82-.88l-35-24c-2.28-1.56-2.86-4.67-1.3-6.95,1.56-2.28,4.67-2.86,6.95-1.3l35,24c2.28,1.56,2.86,4.67,1.3,6.95-.97,1.41-2.54,2.17-4.13,2.17Z"/><path class="cls-1" d="M131,124c-1.51,0-3-.68-3.98-1.98l-19-25c-1.67-2.2-1.24-5.34.96-7.01,2.2-1.67,5.33-1.24,7.01.96l19,25c1.67,2.2,1.24,5.34-.96,7.01-.9.69-1.97,1.02-3.02,1.02Z"/><path class="cls-1" d="M128.85,8.34c6.12,1.43,13.43,2.44,18.18,5.82,2.28,1.65,3.3,4.3,3.64,7.12l.05,1.09.06,1.12v1.38s0,5.52,0,5.52c-.02,74.89.14,156.48.4,239.15,3.68.94,7.38,1.84,11.08,2.72-.28-83.62-.67-166.18-1.19-241.87-.02-2.69,0-7.62-.21-10.2-1.79-16.52-17.8-20.93-31.96-17.79-1.11.25-2.03,1.1-2.31,2.28-.39,1.64.63,3.28,2.27,3.67Z"/><path class="cls-1" d="M201.04,666.33c-1.63-.22-3.26-.62-4.88-1.12-13.59-4.57-27.25-15.51-31.87-29.33-.72-2.24-1.15-4.53-1.29-6.89-.02-.8-.07-1.47-.06-2.46,0,0-.03-22.08-.03-22.08-.06-94.66-.23-199.98-.56-304.65-3.7-.82-7.39-1.67-11.08-2.55.37,105.49.9,211.74,1.47,307.2l.12,22.08c0,.85.05,2.02.08,3.06.21,3.16.79,6.32,1.78,9.34,5.15,15.53,18.66,27.43,34.03,32.11,3.85,1.12,7.94,1.79,12.15,1.39,1.38-.13,2.55-1.19,2.76-2.63.24-1.68-.93-3.24-2.61-3.48Z"/><path class="cls-1" d="M272.75,293.54c.31-90.84.5-181.02.48-263.16,0,0,0-5.52,0-5.52v-1.38s.06-1.12.06-1.12l.05-1.09c.34-2.82,1.35-5.46,3.64-7.12,4.74-3.38,12.05-4.39,18.18-5.82,1.64-.39,2.65-2.03,2.27-3.67-.28-1.18-1.2-2.03-2.31-2.28-14.16-3.13-30.17,1.28-31.96,17.79-.22,2.58-.19,7.51-.21,10.2-.56,81.52-.96,171-1.25,261.19,3.69.65,7.38,1.31,11.06,1.97Z"/><path class="cls-1" d="M261.6,318.53c-.29,98.46-.44,196.9-.5,285.92,0,0-.03,22.08-.03,22.08.01.99-.04,1.65-.06,2.46-.15,2.36-.57,4.64-1.29,6.89-4.62,13.82-18.29,24.76-31.87,29.33-1.62.5-3.25.9-4.88,1.12-1.68.24-2.85,1.79-2.61,3.48.2,1.44,1.37,2.5,2.76,2.63,4.21.4,8.3-.27,12.15-1.39,15.36-4.68,28.87-16.58,34.03-32.11.99-3.02,1.57-6.18,1.78-9.34.04-1.04.09-2.21.08-3.06l.12-22.08c.53-88.48,1.02-186.22,1.39-284.03-3.68-.64-7.36-1.26-11.05-1.89Z"/><path class="cls-1" d="M168.44,69.72c28.38-10.62,57.64-18.92,87.38-25.16.04-3.53.07-7.06.11-10.58-20.51,4.32-40.83,9.56-60.85,15.73-8.69,2.76-17.65,5.81-26.74,9.15.04,3.62.07,7.23.11,10.86Z"/><path class="cls-1" d="M571.17,465.61c-14.87-119.32-141.16-127.86-246.03-152.85-13.9-3.38-27.96-6.24-42.06-8.65-41.93-7.22-84.03-14.54-125.68-22.88-38.2-8.53-122.96-24.44-143.04-57.34-9.31-15.5-2.06-33.89,6.98-48.09,20.58-30.98,44.26-52.39,75.65-72.8,20-13,30-17,46.61-23.28.01-3.73.02-7.45.03-11.17-54.49,22.82-99.96,56.12-130.78,101.85-10.9,16.63-18.65,40.22-7.04,58.66,17.79,28.72,72.46,41.3,103.94,49.57,64.6,15.55,120.32,25.6,185.65,37.16,101.58,19.35,212.64,10.88,257.17,110.77,19.15,44.75,24.34,91.25-1.04,132.24-29.69,48.43-77.58,81.27-126.03,109.12-.48.28-.72.86-.53,1.41.21.62.88.96,1.51.76,36.3-12.6,67.86-36.03,95.4-62.44,38.13-37.29,55.43-87.19,49.28-142.04Z"/><path class="cls-1" d="M625.02,445.14c-41.67-104.78-148.02-118.14-307.53-134.91-54.75-5.76-109.5-18.56-162.99-31.5-17.42-4.32-25.4-8.84-41.44-16.63-18.86-9.24-22.85-19.36-22.68-39.92l-.02-3.42c-.15-7.52,1.54-14.86,3.91-22.07,11.37-32.44,27.75-56.69,49.28-83.17,0-4.71.02-9.42.03-14.13-8.4,6.93-14.56,13.61-20.56,21.61-19.65,26.2-40.93,60.61-43.3,94.1-.25,18.6-.26,36.15,15.89,48.66,4.03,3.21,8.33,5.73,12.69,7.9,17.24,8.36,25.4,12.89,43.72,17.45,44.76,10.56,91.44,15.81,136.29,25.96,105.71,23.93,225.76,7.77,299.41,88.27,40.4,45.04,48.07,95.28,8.87,144.06-47.61,56.92-109.61,82.17-171.21,120.38-.56.35-.8,1.07-.54,1.7.29.7,1.1,1.03,1.8.74,34.13-14.39,67.74-29.8,99.92-48.28,47.13-27.59,89.53-63.06,102.7-119.73,4.3-18.87,2.71-39.07-4.24-57.06Z"/><path class="cls-1" d="M255.86,40.05c-30.9,9.73-60.47,23.14-87.32,40.89.04,4.29.08,8.58.12,12.88,26.81-18.59,56.26-32.45,87.09-42.46.04-3.78.08-7.54.12-11.31Z"/><path class="cls-1" d="M437,262c-2.76,0-5-2.24-5-5v-55c0-2.76,2.24-5,5-5s5,2.24,5,5v55c0,2.76-2.24,5-5,5Z"/><path class="cls-1" d="M492,262h-55c-2.76,0-5-2.24-5-5s2.24-5,5-5h55c2.76,0,5,2.24,5,5s-2.24,5-5,5Z"/><path class="cls-1" d="M525.79,386.87c-1.6,0-3.17-.76-4.14-2.18-1.56-2.28-.97-5.39,1.31-6.95l22-15c2.28-1.55,5.39-.97,6.95,1.31,1.56,2.28.97,5.39-1.31,6.95l-22,15c-.86.59-1.84.87-2.81.87Z"/><path class="cls-1" d="M548,410c-1.77,0-3.48-.94-4.39-2.6-1.33-2.42-.44-5.46,1.98-6.79l31-17c2.42-1.33,5.46-.44,6.79,1.98,1.33,2.42.44,5.46-1.98,6.79l-31,17c-.76.42-1.59.62-2.4.62Z"/><path class="cls-1" d="M564,448c-1.85,0-3.63-1.03-4.5-2.81-1.21-2.48-.18-5.48,2.3-6.69l43-21c2.48-1.21,5.48-.18,6.69,2.3,1.21,2.48.18,5.48-2.3,6.69l-43,21c-.71.35-1.45.51-2.19.51Z"/><path class="cls-1" d="M569,482c-2.72,0-4.95-2.18-5-4.91-.05-2.76,2.15-5.04,4.91-5.09l57-1s.06,0,.09,0c2.72,0,4.95,2.18,5,4.91.05,2.76-2.15,5.04-4.91,5.09l-57,1s-.06,0-.09,0Z"/><path class="cls-1" d="M618,525c-.41,0-.82-.05-1.24-.16l-51-13c-2.68-.68-4.29-3.4-3.61-6.08s3.41-4.29,6.08-3.61l51,13c2.68.68,4.29,3.4,3.61,6.08-.58,2.26-2.61,3.77-4.84,3.77Z"/><path class="cls-1" d="M592,564c-.81,0-1.62-.2-2.38-.61l-35-19c-2.43-1.32-3.33-4.35-2.01-6.78,1.32-2.43,4.35-3.33,6.78-2.01l35,19c2.43,1.32,3.33,4.35,2.01,6.78-.91,1.67-2.62,2.62-4.4,2.62Z"/><path class="cls-1" d="M563.01,590c-1.64,0-3.25-.81-4.2-2.28l-11-17c-1.5-2.32-.84-5.41,1.48-6.91,2.32-1.5,5.41-.84,6.91,1.48l11,17c1.5,2.32.84,5.41-1.48,6.91-.84.54-1.78.8-2.71.8Z"/><path class="cls-1" d="M35,251c-2.15,0-4.14-1.4-4.79-3.57-.79-2.65.72-5.43,3.36-6.22l47-14c2.65-.79,5.43.72,6.22,3.36s-.72,5.43-3.36,6.22l-47,14c-.48.14-.96.21-1.43.21Z"/><path class="cls-1" d="M81.01,218c-.11,0-.22,0-.33-.01l-76-5c-2.76-.18-4.84-2.56-4.66-5.32s2.56-4.84,5.32-4.66l76,5c2.76.18,4.84,2.56,4.66,5.32-.17,2.64-2.37,4.67-4.98,4.67Z"/><path class="cls-1" d="M92,193c-.45,0-.9-.06-1.36-.19l-71-20c-2.66-.75-4.21-3.51-3.46-6.17.75-2.66,3.51-4.21,6.17-3.46l71,20c2.66.75,4.21,3.51,3.46,6.17-.62,2.21-2.63,3.65-4.81,3.65Z"/><path class="cls-1" d="M280.21,30.38c.01,3.17.03,6.35.04,9.52,37.18-6.38,74.9-9.73,112.36-10.55,18.55-.53,37.24.1,55.45,3.88,38.81,7.49,82.25,29.64,82.73,74.31.68,22.78-8.08,44.84-20.85,63.43-21.3,30.94-49.48,56.3-76.39,82.39-1.99,1.88-2.08,5.07-.18,7.07,1.9,2,5.07,2.08,7.07.18,13.75-13.06,27.51-26.15,40.84-39.82,31.97-32.8,64.55-72.14,59.3-121.03-6.5-56.25-70.41-77.53-119.33-80.5-47.16-1.41-94.52,1.96-141.05,10.05,0,.62,0,1.07,0,1.07Z"/><path class="cls-1" d="M280.26,44.24c35.28-9.03,71.89-13.5,108.06-14.62,3.42-.12,10.29-.27,13.72-.28,26.86-.5,54.4,3.49,79.06,14,35.69,15.39,55.45,42.19,48.45,81.77-8.21,49.76-61.07,93.94-95.85,128.41-4.44,4.48,1.83,11.17,6.59,6.95,13.41-12.71,26.83-25.45,39.84-38.73,22.61-23.38,45.92-49.03,56.03-80.83,19.24-63.25-19.1-101.78-78.01-116.13-13.82-3.37-27.91-5.26-42.1-5.87-9.14-.38-18.94-.14-28.06.09-35.87.96-72.45,5.38-107.78,14.2.02,3.68.03,7.36.05,11.04Z"/><path class="cls-1" d="M425.51,667.92c5.06-3.96,10.38-7.31,15.78-10.68,15.96-9.89,31.15-21.1,45.46-33.21,28.34-24.2,52.55-54,65.77-88.97,12.78-33.94,14.64-74.31-1.71-106.99-32.58-64.17-127.81-85.16-192.85-99.95-24.79-5.28-49.77-9.84-74.8-14.18-2.72-.47-4.55-3.06-4.08-5.78.47-2.71,3.04-4.53,5.75-4.08,37.72,6.32,75.5,13.09,112.71,22.26,59.8,15.45,132.91,37.93,163.14,96.79,17.76,35.9,15.78,78.96,1.9,115.74-18.38,47.84-57.18,89.32-100.68,115.64-8.4,4.83-16.88,9.63-26,12.96-3.05,1.09-6.17,2.03-9.41,2.62-.66.12-1.3-.32-1.42-.98-.08-.46.1-.91.45-1.18h0Z"/></g></g></g></g></svg>