<?xml version="1.0" encoding="UTF-8"?>
<svg xmlns="http://www.w3.org/2000/svg" version="1.1" xmlns:xlink="http://www.w3.org/1999/xlink" viewBox="0 0 1152 648">
  <defs>
    <style>
      .cls-1 {
        clip-path: url(#clippath-21);
      }

      .cls-2 {
        clip-path: url(#clippath-6);
      }

      .cls-3 {
        clip-path: url(#clippath-7);
      }

      .cls-4 {
        clip-path: url(#clippath-17);
      }

      .cls-5 {
        clip-path: url(#clippath-31);
      }

      .cls-6 {
        clip-path: url(#clippath-15);
      }

      .cls-7 {
        clip-path: url(#clippath-18);
      }

      .cls-8 {
        clip-path: url(#clippath-4);
      }

      .cls-9 {
        clip-path: url(#clippath-22);
      }

      .cls-10 {
        clip-path: url(#clippath-23);
      }

      .cls-11, .cls-12, .cls-13, .cls-14, .cls-15, .cls-16, .cls-17, .cls-18 {
        stroke-width: 4px;
      }

      .cls-11, .cls-12, .cls-13, .cls-15, .cls-16, .cls-17, .cls-18 {
        stroke-linejoin: round;
      }

      .cls-11, .cls-12, .cls-18 {
        stroke: #d62728;
      }

      .cls-11, .cls-13, .cls-19, .cls-14, .cls-17, .cls-18 {
        fill: none;
      }

      .cls-11, .cls-13, .cls-14 {
        stroke-linecap: square;
      }

      .cls-20 {
        clip-path: url(#clippath-9);
      }

      .cls-21 {
        clip-path: url(#clippath-10);
      }

      .cls-12 {
        fill: #d62728;
      }

      .cls-22 {
        clip-path: url(#clippath-25);
      }

      .cls-23 {
        clip-path: url(#clippath-27);
      }

      .cls-13, .cls-15, .cls-17 {
        stroke: #5f9ea0;
      }

      .cls-24 {
        clip-path: url(#clippath-11);
      }

      .cls-25 {
        clip-path: url(#clippath-28);
      }

      .cls-14, .cls-16 {
        stroke: #000;
      }

      .cls-26 {
        clip-path: url(#clippath-1);
      }

      .cls-27 {
        clip-path: url(#clippath-5);
      }

      .cls-28 {
        clip-path: url(#clippath-20);
      }

      .cls-15 {
        fill: #5f9ea0;
      }

      .cls-29 {
        clip-path: url(#clippath-8);
      }

      .cls-30 {
        clip-path: url(#clippath-3);
      }

      .cls-31 {
        clip-path: url(#clippath-26);
      }

      .cls-32 {
        clip-path: url(#clippath-12);
      }

      .cls-33 {
        clip-path: url(#clippath-14);
      }

      .cls-34 {
        clip-path: url(#clippath-30);
      }

      .cls-35 {
        clip-path: url(#clippath-19);
      }

      .cls-36 {
        clip-path: url(#clippath-16);
      }

      .cls-37 {
        clip-path: url(#clippath-2);
      }

      .cls-38 {
        clip-path: url(#clippath-29);
      }

      .cls-39 {
        clip-path: url(#clippath-13);
      }

      .cls-40 {
        clip-path: url(#clippath-24);
      }

      .cls-41 {
        clip-path: url(#clippath);
      }
    </style>
    <clipPath id="clippath">
      <rect class="cls-19" x="35.5" y="3" width="822.2" height="625.3"/>
    </clipPath>
    <clipPath id="clippath-1">
      <rect class="cls-19" x="35.5" y="3" width="822.2" height="625.3"/>
    </clipPath>
    <clipPath id="clippath-2">
      <rect class="cls-19" x="35.5" y="3" width="822.2" height="625.3"/>
    </clipPath>
    <clipPath id="clippath-3">
      <rect class="cls-19" x="35.5" y="3" width="822.2" height="625.3"/>
    </clipPath>
    <clipPath id="clippath-4">
      <rect class="cls-19" x="35.5" y="3" width="822.2" height="625.3"/>
    </clipPath>
    <clipPath id="clippath-5">
      <rect class="cls-19" x="35.5" y="3" width="822.2" height="625.3"/>
    </clipPath>
    <clipPath id="clippath-6">
      <rect class="cls-19" x="35.5" y="3" width="822.2" height="625.3"/>
    </clipPath>
    <clipPath id="clippath-7">
      <rect class="cls-19" x="35.5" y="3" width="822.2" height="625.3"/>
    </clipPath>
    <clipPath id="clippath-8">
      <rect class="cls-19" x="35.5" y="3" width="822.2" height="625.3"/>
    </clipPath>
    <clipPath id="clippath-9">
      <rect class="cls-19" x="35.5" y="3" width="822.2" height="625.3"/>
    </clipPath>
    <clipPath id="clippath-10">
      <rect class="cls-19" x="35.5" y="3" width="822.2" height="625.3"/>
    </clipPath>
    <clipPath id="clippath-11">
      <rect class="cls-19" x="35.5" y="3" width="822.2" height="625.3"/>
    </clipPath>
    <clipPath id="clippath-12">
      <rect class="cls-19" x="35.5" y="3" width="822.2" height="625.3"/>
    </clipPath>
    <clipPath id="clippath-13">
      <rect class="cls-19" x="35.5" y="3" width="822.2" height="625.3"/>
    </clipPath>
    <clipPath id="clippath-14">
      <rect class="cls-19" x="35.5" y="3" width="822.2" height="625.3"/>
    </clipPath>
    <clipPath id="clippath-15">
      <rect class="cls-19" x="35.5" y="3" width="822.2" height="625.3"/>
    </clipPath>
    <clipPath id="clippath-16">
      <rect class="cls-19" x="35.5" y="3" width="822.2" height="625.3"/>
    </clipPath>
    <clipPath id="clippath-17">
      <rect class="cls-19" x="35.5" y="3" width="822.2" height="625.3"/>
    </clipPath>
    <clipPath id="clippath-18">
      <rect class="cls-19" x="35.5" y="3" width="822.2" height="625.3"/>
    </clipPath>
    <clipPath id="clippath-19">
      <rect class="cls-19" x="35.5" y="3" width="822.2" height="625.3"/>
    </clipPath>
    <clipPath id="clippath-20">
      <rect class="cls-19" x="35.5" y="3" width="822.2" height="625.3"/>
    </clipPath>
    <clipPath id="clippath-21">
      <rect class="cls-19" x="35.5" y="3" width="822.2" height="625.3"/>
    </clipPath>
    <clipPath id="clippath-22">
      <rect class="cls-19" x="35.5" y="3" width="822.2" height="625.3"/>
    </clipPath>
    <clipPath id="clippath-23">
      <rect class="cls-19" x="35.5" y="3" width="822.2" height="625.3"/>
    </clipPath>
    <clipPath id="clippath-24">
      <rect class="cls-19" x="35.5" y="3" width="822.2" height="625.3"/>
    </clipPath>
    <clipPath id="clippath-25">
      <rect class="cls-19" x="35.5" y="3" width="822.2" height="625.3"/>
    </clipPath>
    <clipPath id="clippath-26">
      <rect class="cls-19" x="35.5" y="3" width="822.2" height="625.3"/>
    </clipPath>
    <clipPath id="clippath-27">
      <rect class="cls-19" x="35.5" y="3" width="822.2" height="625.3"/>
    </clipPath>
    <clipPath id="clippath-28">
      <rect class="cls-19" x="35.5" y="3" width="822.2" height="625.3"/>
    </clipPath>
    <clipPath id="clippath-29">
      <rect class="cls-19" x="35.5" y="3" width="822.2" height="625.3"/>
    </clipPath>
    <clipPath id="clippath-30">
      <rect class="cls-19" x="35.5" y="3" width="822.2" height="625.3"/>
    </clipPath>
    <clipPath id="clippath-31">
      <rect class="cls-19" x="35.5" y="3" width="822.2" height="625.3"/>
    </clipPath>
  </defs>
  <!-- Generator: Adobe Illustrator 28.7.1, SVG Export Plug-In . SVG Version: 1.2.0 Build 142)  -->
  <g>
    <g id="Layer_1">
      <g id="figure_1">
        <g id="patch_1">
          <path class="cls-19" d="M0,648h1152V0H0v648Z"/>
        </g>
        <g id="axes_1">
          <g id="patch_2">
            <path class="cls-19" d="M35.5,628.3h822.2V3H35.5v625.3Z"/>
          </g>
          <g id="matplotlib.axis_1">
            <g id="xtick_1">
              <g id="line2d_1">
                <path id="mfe0682348e" class="cls-16" d="M72.8,628.3v3.5"/>
              </g>
              <g id="text_1">
                <path id="DejaVuSans-30" d="M72.8,636.3c-.5,0-.9.3-1.1.8-.3.5-.4,1.3-.4,2.3s.1,1.7.4,2.2c.3.5.6.8,1.1.8s.9-.3,1.2-.8c.3-.5.4-1.2.4-2.2s-.1-1.8-.4-2.3c-.3-.5-.6-.8-1.2-.8ZM72.8,635.5c.8,0,1.4.3,1.9,1,.4.6.6,1.6.6,2.8s-.2,2.2-.6,2.8c-.4.6-1.1,1-1.9,1s-1.4-.3-1.9-1c-.4-.6-.6-1.6-.6-2.8s.2-2.2.6-2.8c.4-.6,1.1-1,1.9-1Z"/>
              </g>
            </g>
            <g id="xtick_2">
              <g id="line2d_2">
                <path id="mfe0682348e-2" data-name="mfe0682348e" class="cls-16" d="M222.3,628.3v3.5"/>
              </g>
              <g id="text_2">
                <g>
                  <path id="DejaVuSans-31" d="M217.2,642.1h1.6v-5.6l-1.8.4v-.9l1.7-.4h1v6.5h1.6v.8h-4.2v-.8Z"/>
                  <path id="DejaVuSans-30-2" data-name="DejaVuSans-30" d="M225.5,636.3c-.5,0-.9.3-1.1.8-.3.5-.4,1.3-.4,2.3s.1,1.7.4,2.2c.3.5.6.8,1.1.8s.9-.3,1.2-.8c.3-.5.4-1.2.4-2.2s-.1-1.8-.4-2.3c-.3-.5-.6-.8-1.2-.8ZM225.5,635.5c.8,0,1.4.3,1.9,1,.4.6.6,1.6.6,2.8s-.2,2.2-.6,2.8c-.4.6-1.1,1-1.9,1s-1.4-.3-1.9-1c-.4-.6-.6-1.6-.6-2.8s.2-2.2.6-2.8c.4-.6,1.1-1,1.9-1Z"/>
                </g>
              </g>
            </g>
            <g id="xtick_3">
              <g id="line2d_3">
                <path id="mfe0682348e-3" data-name="mfe0682348e" class="cls-16" d="M371.8,628.3v3.5"/>
              </g>
              <g id="text_3">
                <g>
                  <path id="DejaVuSans-32" d="M367.3,642.1h3.4v.8h-4.6v-.8c.4-.4.9-.9,1.5-1.6.6-.7,1.1-1.1,1.2-1.3.3-.4.5-.7.7-.9.1-.2.2-.5.2-.7,0-.4-.1-.7-.4-.9-.3-.2-.6-.4-1.1-.4s-.6,0-1,.2c-.3.1-.7.3-1.1.5v-1c.4-.2.8-.3,1.1-.4.3,0,.7-.1.9-.1.8,0,1.4.2,1.8.6.4.4.7.9.7,1.5s0,.6-.2.9c-.1.3-.3.6-.6.9,0,0-.3.4-.8.8-.4.5-1.1,1.1-1.8,1.9Z"/>
                  <path id="DejaVuSans-30-3" data-name="DejaVuSans-30" d="M375,636.3c-.5,0-.9.3-1.1.8-.3.5-.4,1.3-.4,2.3s.1,1.7.4,2.2c.3.5.6.8,1.1.8s.9-.3,1.2-.8c.3-.5.4-1.2.4-2.2s-.1-1.8-.4-2.3c-.3-.5-.6-.8-1.2-.8ZM375,635.5c.8,0,1.4.3,1.9,1,.4.6.6,1.6.6,2.8s-.2,2.2-.6,2.8c-.4.6-1.1,1-1.9,1s-1.4-.3-1.9-1c-.4-.6-.6-1.6-.6-2.8s.2-2.2.6-2.8c.4-.6,1.1-1,1.9-1Z"/>
                </g>
              </g>
            </g>
            <g id="xtick_4">
              <g id="line2d_4">
                <path id="mfe0682348e-4" data-name="mfe0682348e" class="cls-16" d="M521.3,628.3v3.5"/>
              </g>
              <g id="text_4">
                <g>
                  <path id="DejaVuSans-33" d="M519,639c.5.1.8.3,1.1.6.3.3.4.7.4,1.2,0,.7-.2,1.3-.7,1.7-.5.4-1.2.6-2.1.6s-.6,0-.9,0c-.3,0-.7-.2-1-.3v-1c.3.2.6.3.9.4.3,0,.7.1,1,.1.6,0,1.1-.1,1.4-.4s.5-.6.5-1.1-.2-.8-.5-1c-.3-.2-.7-.4-1.3-.4h-.9v-.8h.9c.5,0,.9,0,1.1-.3s.4-.5.4-.8-.1-.7-.4-.9c-.3-.2-.6-.3-1.1-.3s-.6,0-.9,0c-.3,0-.6.1-1,.3v-.9c.4-.1.7-.2,1.1-.2s.6,0,.9,0c.7,0,1.3.2,1.8.5.4.3.7.8.7,1.4s-.1.7-.3,1-.6.5-1,.6Z"/>
                  <path id="DejaVuSans-30-4" data-name="DejaVuSans-30" d="M524.5,636.3c-.5,0-.9.3-1.1.8-.3.5-.4,1.3-.4,2.3s.1,1.7.4,2.2c.3.5.6.8,1.1.8s.9-.3,1.2-.8c.3-.5.4-1.2.4-2.2s-.1-1.8-.4-2.3c-.3-.5-.6-.8-1.2-.8ZM524.5,635.5c.8,0,1.4.3,1.9,1,.4.6.6,1.6.6,2.8s-.2,2.2-.6,2.8c-.4.6-1.1,1-1.9,1s-1.4-.3-1.9-1c-.4-.6-.6-1.6-.6-2.8s.2-2.2.6-2.8c.4-.6,1.1-1,1.9-1Z"/>
                </g>
              </g>
            </g>
            <g id="xtick_5">
              <g id="line2d_5">
                <path id="mfe0682348e-5" data-name="mfe0682348e" class="cls-16" d="M670.8,628.3v3.5"/>
              </g>
              <g id="text_5">
                <g>
                  <path id="DejaVuSans-34" d="M668.2,636.5l-2.5,3.9h2.5v-3.9ZM667.9,635.6h1.2v4.8h1v.8h-1v1.7h-1v-1.7h-3.3v-1l3-4.6Z"/>
                  <path id="DejaVuSans-30-5" data-name="DejaVuSans-30" d="M673.9,636.3c-.5,0-.9.3-1.1.8-.3.5-.4,1.3-.4,2.3s.1,1.7.4,2.2c.3.5.6.8,1.1.8s.9-.3,1.2-.8c.3-.5.4-1.2.4-2.2s-.1-1.8-.4-2.3c-.3-.5-.6-.8-1.2-.8ZM673.9,635.5c.8,0,1.4.3,1.9,1,.4.6.6,1.6.6,2.8s-.2,2.2-.6,2.8c-.4.6-1.1,1-1.9,1s-1.4-.3-1.9-1c-.4-.6-.6-1.6-.6-2.8s.2-2.2.6-2.8c.4-.6,1.1-1,1.9-1Z"/>
                </g>
              </g>
            </g>
            <g id="xtick_6">
              <g id="line2d_6">
                <path id="mfe0682348e-6" data-name="mfe0682348e" class="cls-16" d="M820.2,628.3v3.5"/>
              </g>
              <g id="text_6">
                <g>
                  <path id="DejaVuSans-35" d="M815,635.6h3.9v.8h-3v1.8c.1,0,.3,0,.4-.1.1,0,.3,0,.4,0,.8,0,1.5.2,1.9.7.5.4.7,1,.7,1.8s-.2,1.4-.7,1.8c-.5.4-1.2.7-2.1.7s-.6,0-.9,0c-.3,0-.6-.1-1-.2v-1c.3.2.6.3.9.4s.6.1,1,.1c.6,0,1-.1,1.3-.4.3-.3.5-.7.5-1.2s-.2-.9-.5-1.2c-.3-.3-.8-.4-1.3-.4s-.5,0-.8,0c-.3,0-.5.1-.8.3v-3.7Z"/>
                  <path id="DejaVuSans-30-6" data-name="DejaVuSans-30" d="M823.4,636.3c-.5,0-.9.3-1.1.8-.3.5-.4,1.3-.4,2.3s.1,1.7.4,2.2c.3.5.6.8,1.1.8s.9-.3,1.2-.8c.3-.5.4-1.2.4-2.2s-.1-1.8-.4-2.3c-.3-.5-.6-.8-1.2-.8ZM823.4,635.5c.8,0,1.4.3,1.9,1,.4.6.6,1.6.6,2.8s-.2,2.2-.6,2.8c-.4.6-1.1,1-1.9,1s-1.4-.3-1.9-1c-.4-.6-.6-1.6-.6-2.8s.2-2.2.6-2.8c.4-.6,1.1-1,1.9-1Z"/>
                </g>
              </g>
            </g>
          </g>
          <g id="matplotlib.axis_2">
            <g id="ytick_1">
              <g id="line2d_7">
                <path id="mfae7a7acb7" class="cls-16" d="M35.5,556h-3.5"/>
              </g>
              <g id="text_7">
                <g>
                  <path id="DejaVuSans-32-2" data-name="DejaVuSans-32" d="M4.9,559h3.4v.8H3.7v-.8c.4-.4.9-.9,1.5-1.6.6-.7,1.1-1.1,1.2-1.3.3-.4.5-.7.7-.9.1-.2.2-.5.2-.7,0-.4-.1-.7-.4-.9-.3-.2-.6-.4-1.1-.4s-.6,0-1,.2c-.3.1-.7.3-1.1.5v-1c.4-.2.8-.3,1.1-.4.3,0,.7-.1.9-.1.8,0,1.4.2,1.8.6.4.4.7.9.7,1.5s0,.6-.2.9c-.1.3-.3.6-.6.9,0,0-.3.4-.8.8-.4.5-1.1,1.1-1.8,1.9Z"/>
                  <path id="DejaVuSans-34-2" data-name="DejaVuSans-34" d="M13.1,553.4l-2.5,3.9h2.5v-3.9ZM12.9,552.5h1.2v4.8h1v.8h-1v1.7h-1v-1.7h-3.3v-1l3-4.6Z"/>
                  <path id="DejaVuSans-37" d="M16.5,552.5h4.7v.4l-2.6,6.9h-1l2.5-6.5h-3.5v-.8Z"/>
                  <path id="DejaVuSans-35-2" data-name="DejaVuSans-35" d="M23.2,552.5h3.9v.8h-3v1.8c.1,0,.3,0,.4-.1.1,0,.3,0,.4,0,.8,0,1.5.2,1.9.7.5.4.7,1,.7,1.8s-.2,1.4-.7,1.8c-.5.4-1.2.7-2.1.7s-.6,0-.9,0c-.3,0-.6-.1-1-.2v-1c.3.2.6.3.9.4s.6.1,1,.1c.6,0,1-.1,1.3-.4.3-.3.5-.7.5-1.2s-.2-.9-.5-1.2c-.3-.3-.8-.4-1.3-.4s-.5,0-.8,0c-.3,0-.5.1-.8.3v-3.7Z"/>
                </g>
              </g>
            </g>
            <g id="ytick_2">
              <g id="line2d_8">
                <path id="mfae7a7acb7-2" data-name="mfae7a7acb7" class="cls-16" d="M35.5,475.6h-3.5"/>
              </g>
              <g id="text_8">
                <g>
                  <path id="DejaVuSans-32-3" data-name="DejaVuSans-32" d="M4.9,478.6h3.4v.8H3.7v-.8c.4-.4.9-.9,1.5-1.6.6-.7,1.1-1.1,1.2-1.3.3-.4.5-.7.7-.9.1-.2.2-.5.2-.7,0-.4-.1-.7-.4-.9-.3-.2-.6-.4-1.1-.4s-.6,0-1,.2c-.3.1-.7.3-1.1.5v-1c.4-.2.8-.3,1.1-.4.3,0,.7-.1.9-.1.8,0,1.4.2,1.8.6.4.4.7.9.7,1.5s0,.6-.2.9c-.1.3-.3.6-.6.9,0,0-.3.4-.8.8-.4.5-1.1,1.1-1.8,1.9Z"/>
                  <path id="DejaVuSans-35-3" data-name="DejaVuSans-35" d="M10.4,472.2h3.9v.8h-3v1.8c.1,0,.3,0,.4-.1.1,0,.3,0,.4,0,.8,0,1.5.2,1.9.7.5.4.7,1,.7,1.8s-.2,1.4-.7,1.8c-.5.4-1.2.7-2.1.7s-.6,0-.9,0c-.3,0-.6-.1-1-.2v-1c.3.2.6.3.9.4s.6.1,1,.1c.6,0,1-.1,1.3-.4.3-.3.5-.7.5-1.2s-.2-.9-.5-1.2c-.3-.3-.8-.4-1.3-.4s-.5,0-.8,0c-.3,0-.5.1-.8.3v-3.7Z"/>
                  <path id="DejaVuSans-30-7" data-name="DejaVuSans-30" d="M18.9,472.8c-.5,0-.9.3-1.1.8-.3.5-.4,1.3-.4,2.3s.1,1.7.4,2.2c.3.5.6.8,1.1.8s.9-.3,1.2-.8c.3-.5.4-1.2.4-2.2s-.1-1.8-.4-2.3c-.3-.5-.6-.8-1.2-.8ZM18.9,472c.8,0,1.4.3,1.9,1,.4.6.6,1.6.6,2.8s-.2,2.2-.6,2.8c-.4.6-1.1,1-1.9,1s-1.4-.3-1.9-1c-.4-.6-.6-1.6-.6-2.8s.2-2.2.6-2.8c.4-.6,1.1-1,1.9-1Z"/>
                  <path id="DejaVuSans-30-8" data-name="DejaVuSans-30" d="M25.3,472.8c-.5,0-.9.3-1.1.8-.3.5-.4,1.3-.4,2.3s.1,1.7.4,2.2c.3.5.6.8,1.1.8s.9-.3,1.2-.8c.3-.5.4-1.2.4-2.2s-.1-1.8-.4-2.3c-.3-.5-.6-.8-1.2-.8ZM25.3,472c.8,0,1.4.3,1.9,1,.4.6.6,1.6.6,2.8s-.2,2.2-.6,2.8c-.4.6-1.1,1-1.9,1s-1.4-.3-1.9-1c-.4-.6-.6-1.6-.6-2.8s.2-2.2.6-2.8c.4-.6,1.1-1,1.9-1Z"/>
                </g>
              </g>
            </g>
            <g id="ytick_3">
              <g id="line2d_9">
                <path id="mfae7a7acb7-3" data-name="mfae7a7acb7" class="cls-16" d="M35.5,395.3h-3.5"/>
              </g>
              <g id="text_9">
                <g>
                  <path id="DejaVuSans-32-4" data-name="DejaVuSans-32" d="M4.9,398.2h3.4v.8H3.7v-.8c.4-.4.9-.9,1.5-1.6.6-.7,1.1-1.1,1.2-1.3.3-.4.5-.7.7-.9.1-.2.2-.5.2-.7,0-.4-.1-.7-.4-.9-.3-.2-.6-.4-1.1-.4s-.6,0-1,.2c-.3.1-.7.3-1.1.5v-1c.4-.2.8-.3,1.1-.4.3,0,.7-.1.9-.1.8,0,1.4.2,1.8.6.4.4.7.9.7,1.5s0,.6-.2.9c-.1.3-.3.6-.6.9,0,0-.3.4-.8.8-.4.5-1.1,1.1-1.8,1.9Z"/>
                  <path id="DejaVuSans-35-4" data-name="DejaVuSans-35" d="M10.4,391.8h3.9v.8h-3v1.8c.1,0,.3,0,.4-.1.1,0,.3,0,.4,0,.8,0,1.5.2,1.9.7.5.4.7,1,.7,1.8s-.2,1.4-.7,1.8c-.5.4-1.2.7-2.1.7s-.6,0-.9,0c-.3,0-.6-.1-1-.2v-1c.3.2.6.3.9.4s.6.1,1,.1c.6,0,1-.1,1.3-.4.3-.3.5-.7.5-1.2s-.2-.9-.5-1.2c-.3-.3-.8-.4-1.3-.4s-.5,0-.8,0c-.3,0-.5.1-.8.3v-3.7Z"/>
                  <path id="DejaVuSans-32-5" data-name="DejaVuSans-32" d="M17.6,398.2h3.4v.8h-4.6v-.8c.4-.4.9-.9,1.5-1.6.6-.7,1.1-1.1,1.2-1.3.3-.4.5-.7.7-.9.1-.2.2-.5.2-.7,0-.4-.1-.7-.4-.9-.3-.2-.6-.4-1.1-.4s-.6,0-1,.2c-.3.1-.7.3-1.1.5v-1c.4-.2.8-.3,1.1-.4.3,0,.7-.1.9-.1.8,0,1.4.2,1.8.6.4.4.7.9.7,1.5s0,.6-.2.9c-.1.3-.3.6-.6.9,0,0-.3.4-.8.8-.4.5-1.1,1.1-1.8,1.9Z"/>
                  <path id="DejaVuSans-35-5" data-name="DejaVuSans-35" d="M23.2,391.8h3.9v.8h-3v1.8c.1,0,.3,0,.4-.1.1,0,.3,0,.4,0,.8,0,1.5.2,1.9.7.5.4.7,1,.7,1.8s-.2,1.4-.7,1.8c-.5.4-1.2.7-2.1.7s-.6,0-.9,0c-.3,0-.6-.1-1-.2v-1c.3.2.6.3.9.4s.6.1,1,.1c.6,0,1-.1,1.3-.4.3-.3.5-.7.5-1.2s-.2-.9-.5-1.2c-.3-.3-.8-.4-1.3-.4s-.5,0-.8,0c-.3,0-.5.1-.8.3v-3.7Z"/>
                </g>
              </g>
            </g>
            <g id="ytick_4">
              <g id="line2d_10">
                <path id="mfae7a7acb7-4" data-name="mfae7a7acb7" class="cls-16" d="M35.5,314.9h-3.5"/>
              </g>
              <g id="text_10">
                <g>
                  <path id="DejaVuSans-32-6" data-name="DejaVuSans-32" d="M4.9,317.8h3.4v.8H3.7v-.8c.4-.4.9-.9,1.5-1.6.6-.7,1.1-1.1,1.2-1.3.3-.4.5-.7.7-.9.1-.2.2-.5.2-.7,0-.4-.1-.7-.4-.9-.3-.2-.6-.4-1.1-.4s-.6,0-1,.2c-.3.1-.7.3-1.1.5v-1c.4-.2.8-.3,1.1-.4.3,0,.7-.1.9-.1.8,0,1.4.2,1.8.6.4.4.7.9.7,1.5s0,.6-.2.9c-.1.3-.3.6-.6.9,0,0-.3.4-.8.8-.4.5-1.1,1.1-1.8,1.9Z"/>
                  <path id="DejaVuSans-35-6" data-name="DejaVuSans-35" d="M10.4,311.4h3.9v.8h-3v1.8c.1,0,.3,0,.4-.1.1,0,.3,0,.4,0,.8,0,1.5.2,1.9.7.5.4.7,1,.7,1.8s-.2,1.4-.7,1.8c-.5.4-1.2.7-2.1.7s-.6,0-.9,0c-.3,0-.6-.1-1-.2v-1c.3.2.6.3.9.4s.6.1,1,.1c.6,0,1-.1,1.3-.4.3-.3.5-.7.5-1.2s-.2-.9-.5-1.2c-.3-.3-.8-.4-1.3-.4s-.5,0-.8,0c-.3,0-.5.1-.8.3v-3.7Z"/>
                  <path id="DejaVuSans-35-7" data-name="DejaVuSans-35" d="M16.8,311.4h3.9v.8h-3v1.8c.1,0,.3,0,.4-.1.1,0,.3,0,.4,0,.8,0,1.5.2,1.9.7.5.4.7,1,.7,1.8s-.2,1.4-.7,1.8c-.5.4-1.2.7-2.1.7s-.6,0-.9,0c-.3,0-.6-.1-1-.2v-1c.3.2.6.3.9.4s.6.1,1,.1c.6,0,1-.1,1.3-.4.3-.3.5-.7.5-1.2s-.2-.9-.5-1.2c-.3-.3-.8-.4-1.3-.4s-.5,0-.8,0c-.3,0-.5.1-.8.3v-3.7Z"/>
                  <path id="DejaVuSans-30-9" data-name="DejaVuSans-30" d="M25.3,312c-.5,0-.9.3-1.1.8-.3.5-.4,1.3-.4,2.3s.1,1.7.4,2.2c.3.5.6.8,1.1.8s.9-.3,1.2-.8c.3-.5.4-1.2.4-2.2s-.1-1.8-.4-2.3c-.3-.5-.6-.8-1.2-.8ZM25.3,311.3c.8,0,1.4.3,1.9,1,.4.6.6,1.6.6,2.8s-.2,2.2-.6,2.8c-.4.6-1.1,1-1.9,1s-1.4-.3-1.9-1c-.4-.6-.6-1.6-.6-2.8s.2-2.2.6-2.8c.4-.6,1.1-1,1.9-1Z"/>
                </g>
              </g>
            </g>
            <g id="ytick_5">
              <g id="line2d_11">
                <path id="mfae7a7acb7-5" data-name="mfae7a7acb7" class="cls-16" d="M35.5,234.5h-3.5"/>
              </g>
              <g id="text_11">
                <g>
                  <path id="DejaVuSans-32-7" data-name="DejaVuSans-32" d="M4.9,237.5h3.4v.8H3.7v-.8c.4-.4.9-.9,1.5-1.6.6-.7,1.1-1.1,1.2-1.3.3-.4.5-.7.7-.9.1-.2.2-.5.2-.7,0-.4-.1-.7-.4-.9-.3-.2-.6-.4-1.1-.4s-.6,0-1,.2c-.3.1-.7.3-1.1.5v-1c.4-.2.8-.3,1.1-.4.3,0,.7-.1.9-.1.8,0,1.4.2,1.8.6.4.4.7.9.7,1.5s0,.6-.2.9c-.1.3-.3.6-.6.9,0,0-.3.4-.8.8-.4.5-1.1,1.1-1.8,1.9Z"/>
                  <path id="DejaVuSans-35-8" data-name="DejaVuSans-35" d="M10.4,231h3.9v.8h-3v1.8c.1,0,.3,0,.4-.1.1,0,.3,0,.4,0,.8,0,1.5.2,1.9.7.5.4.7,1,.7,1.8s-.2,1.4-.7,1.8c-.5.4-1.2.7-2.1.7s-.6,0-.9,0c-.3,0-.6-.1-1-.2v-1c.3.2.6.3.9.4s.6.1,1,.1c.6,0,1-.1,1.3-.4.3-.3.5-.7.5-1.2s-.2-.9-.5-1.2c-.3-.3-.8-.4-1.3-.4s-.5,0-.8,0c-.3,0-.5.1-.8.3v-3.7Z"/>
                  <path id="DejaVuSans-37-2" data-name="DejaVuSans-37" d="M16.5,231h4.7v.4l-2.6,6.9h-1l2.5-6.5h-3.5v-.8Z"/>
                  <path id="DejaVuSans-35-9" data-name="DejaVuSans-35" d="M23.2,231h3.9v.8h-3v1.8c.1,0,.3,0,.4-.1.1,0,.3,0,.4,0,.8,0,1.5.2,1.9.7.5.4.7,1,.7,1.8s-.2,1.4-.7,1.8c-.5.4-1.2.7-2.1.7s-.6,0-.9,0c-.3,0-.6-.1-1-.2v-1c.3.2.6.3.9.4s.6.1,1,.1c.6,0,1-.1,1.3-.4.3-.3.5-.7.5-1.2s-.2-.9-.5-1.2c-.3-.3-.8-.4-1.3-.4s-.5,0-.8,0c-.3,0-.5.1-.8.3v-3.7Z"/>
                </g>
              </g>
            </g>
            <g id="ytick_6">
              <g id="line2d_12">
                <path id="mfae7a7acb7-6" data-name="mfae7a7acb7" class="cls-16" d="M35.5,154.1h-3.5"/>
              </g>
              <g id="text_12">
                <g>
                  <path id="DejaVuSans-32-8" data-name="DejaVuSans-32" d="M4.9,157.1h3.4v.8H3.7v-.8c.4-.4.9-.9,1.5-1.6.6-.7,1.1-1.1,1.2-1.3.3-.4.5-.7.7-.9.1-.2.2-.5.2-.7,0-.4-.1-.7-.4-.9-.3-.2-.6-.4-1.1-.4s-.6,0-1,.2c-.3.1-.7.3-1.1.5v-1c.4-.2.8-.3,1.1-.4.3,0,.7-.1.9-.1.8,0,1.4.2,1.8.6.4.4.7.9.7,1.5s0,.6-.2.9c-.1.3-.3.6-.6.9,0,0-.3.4-.8.8-.4.5-1.1,1.1-1.8,1.9Z"/>
                  <path id="DejaVuSans-36" d="M12.7,153.9c-.4,0-.8.2-1.1.5-.3.3-.4.7-.4,1.2s.1.9.4,1.2c.3.3.6.5,1.1.5s.8-.2,1.1-.5c.3-.3.4-.7.4-1.2s-.1-.9-.4-1.2c-.3-.3-.6-.5-1.1-.5ZM14.6,150.8v.9c-.2-.1-.5-.2-.8-.3-.3,0-.5,0-.8,0-.7,0-1.1.2-1.5.7-.3.4-.5,1.1-.6,2,.2-.3.4-.5.7-.7.3-.2.6-.2,1-.2.7,0,1.3.2,1.7.7.4.4.6,1,.6,1.8s-.2,1.4-.7,1.8c-.4.5-1,.7-1.8.7s-1.5-.3-1.9-1c-.4-.6-.7-1.6-.7-2.8s.3-2.1.8-2.8c.5-.7,1.3-1,2.2-1s.5,0,.8,0,.5.1.8.2Z"/>
                  <path id="DejaVuSans-30-10" data-name="DejaVuSans-30" d="M18.9,151.3c-.5,0-.9.3-1.1.8-.3.5-.4,1.3-.4,2.3s.1,1.7.4,2.2c.3.5.6.8,1.1.8s.9-.3,1.2-.8c.3-.5.4-1.2.4-2.2s-.1-1.8-.4-2.3c-.3-.5-.6-.8-1.2-.8ZM18.9,150.5c.8,0,1.4.3,1.9,1,.4.6.6,1.6.6,2.8s-.2,2.2-.6,2.8c-.4.6-1.1,1-1.9,1s-1.4-.3-1.9-1c-.4-.6-.6-1.6-.6-2.8s.2-2.2.6-2.8c.4-.6,1.1-1,1.9-1Z"/>
                  <path id="DejaVuSans-30-11" data-name="DejaVuSans-30" d="M25.3,151.3c-.5,0-.9.3-1.1.8-.3.5-.4,1.3-.4,2.3s.1,1.7.4,2.2c.3.5.6.8,1.1.8s.9-.3,1.2-.8c.3-.5.4-1.2.4-2.2s-.1-1.8-.4-2.3c-.3-.5-.6-.8-1.2-.8ZM25.3,150.5c.8,0,1.4.3,1.9,1,.4.6.6,1.6.6,2.8s-.2,2.2-.6,2.8c-.4.6-1.1,1-1.9,1s-1.4-.3-1.9-1c-.4-.6-.6-1.6-.6-2.8s.2-2.2.6-2.8c.4-.6,1.1-1,1.9-1Z"/>
                </g>
              </g>
            </g>
            <g id="ytick_7">
              <g id="line2d_13">
                <path id="mfae7a7acb7-7" data-name="mfae7a7acb7" class="cls-16" d="M35.5,73.7h-3.5"/>
              </g>
              <g id="text_13">
                <g>
                  <path id="DejaVuSans-32-9" data-name="DejaVuSans-32" d="M4.9,76.7h3.4v.8H3.7v-.8c.4-.4.9-.9,1.5-1.6.6-.7,1.1-1.1,1.2-1.3.3-.4.5-.7.7-.9.1-.2.2-.5.2-.7,0-.4-.1-.7-.4-.9-.3-.2-.6-.4-1.1-.4s-.6,0-1,.2c-.3.1-.7.3-1.1.5v-1c.4-.2.8-.3,1.1-.4.3,0,.7-.1.9-.1.8,0,1.4.2,1.8.6.4.4.7.9.7,1.5s0,.6-.2.9c-.1.3-.3.6-.6.9,0,0-.3.4-.8.8-.4.5-1.1,1.1-1.8,1.9Z"/>
                  <path id="DejaVuSans-36-2" data-name="DejaVuSans-36" d="M12.7,73.5c-.4,0-.8.2-1.1.5-.3.3-.4.7-.4,1.2s.1.9.4,1.2c.3.3.6.5,1.1.5s.8-.2,1.1-.5c.3-.3.4-.7.4-1.2s-.1-.9-.4-1.2c-.3-.3-.6-.5-1.1-.5ZM14.6,70.4v.9c-.2-.1-.5-.2-.8-.3-.3,0-.5,0-.8,0-.7,0-1.1.2-1.5.7-.3.4-.5,1.1-.6,2,.2-.3.4-.5.7-.7.3-.2.6-.2,1-.2.7,0,1.3.2,1.7.7.4.4.6,1,.6,1.8s-.2,1.4-.7,1.8c-.4.5-1,.7-1.8.7s-1.5-.3-1.9-1c-.4-.6-.7-1.6-.7-2.8s.3-2.1.8-2.8c.5-.7,1.3-1,2.2-1s.5,0,.8,0,.5.1.8.2Z"/>
                  <path id="DejaVuSans-32-10" data-name="DejaVuSans-32" d="M17.6,76.7h3.4v.8h-4.6v-.8c.4-.4.9-.9,1.5-1.6.6-.7,1.1-1.1,1.2-1.3.3-.4.5-.7.7-.9.1-.2.2-.5.2-.7,0-.4-.1-.7-.4-.9-.3-.2-.6-.4-1.1-.4s-.6,0-1,.2c-.3.1-.7.3-1.1.5v-1c.4-.2.8-.3,1.1-.4.3,0,.7-.1.9-.1.8,0,1.4.2,1.8.6.4.4.7.9.7,1.5s0,.6-.2.9c-.1.3-.3.6-.6.9,0,0-.3.4-.8.8-.4.5-1.1,1.1-1.8,1.9Z"/>
                  <path id="DejaVuSans-35-10" data-name="DejaVuSans-35" d="M23.2,70.2h3.9v.8h-3v1.8c.1,0,.3,0,.4-.1.1,0,.3,0,.4,0,.8,0,1.5.2,1.9.7.5.4.7,1,.7,1.8s-.2,1.4-.7,1.8c-.5.4-1.2.7-2.1.7s-.6,0-.9,0c-.3,0-.6-.1-1-.2v-1c.3.2.6.3.9.4s.6.1,1,.1c.6,0,1-.1,1.3-.4.3-.3.5-.7.5-1.2s-.2-.9-.5-1.2c-.3-.3-.8-.4-1.3-.4s-.5,0-.8,0c-.3,0-.5.1-.8.3v-3.7Z"/>
                </g>
              </g>
            </g>
          </g>
          <g id="line2d_14">
            <g class="cls-41">
              <path class="cls-13" d="M72.8,158.1l74.7,69.2h74.7c0,.1,74.7,46.2,74.7,46.2l74.7,168.8,74.7-106.5,74.7,196.3,74.7-31.4,74.7-233.1,74.7,274,74.7-96.4"/>
            </g>
            <g class="cls-26">
              <g>
                <path id="m113d86d1fa" class="cls-15" d="M72.8,163.1c1.3,0,2.6-.5,3.5-1.5.9-.9,1.5-2.2,1.5-3.5s-.5-2.6-1.5-3.5c-.9-.9-2.2-1.5-3.5-1.5s-2.6.5-3.5,1.5c-.9.9-1.5,2.2-1.5,3.5s.5,2.6,1.5,3.5c.9.9,2.2,1.5,3.5,1.5Z"/>
                <path id="m113d86d1fa-2" data-name="m113d86d1fa" class="cls-15" d="M147.6,232.3c1.3,0,2.6-.5,3.5-1.5.9-.9,1.5-2.2,1.5-3.5s-.5-2.6-1.5-3.5c-.9-.9-2.2-1.5-3.5-1.5s-2.6.5-3.5,1.5c-.9.9-1.5,2.2-1.5,3.5s.5,2.6,1.5,3.5c.9.9,2.2,1.5,3.5,1.5Z"/>
                <path id="m113d86d1fa-3" data-name="m113d86d1fa" class="cls-15" d="M222.3,232.4c1.3,0,2.6-.5,3.5-1.5.9-.9,1.5-2.2,1.5-3.5s-.5-2.6-1.5-3.5c-.9-.9-2.2-1.5-3.5-1.5s-2.6.5-3.5,1.5c-.9.9-1.5,2.2-1.5,3.5s.5,2.6,1.5,3.5c.9.9,2.2,1.5,3.5,1.5Z"/>
                <path id="m113d86d1fa-4" data-name="m113d86d1fa" class="cls-15" d="M297,278.6c1.3,0,2.6-.5,3.5-1.5.9-.9,1.5-2.2,1.5-3.5s-.5-2.6-1.5-3.5c-.9-.9-2.2-1.5-3.5-1.5s-2.6.5-3.5,1.5c-.9.9-1.5,2.2-1.5,3.5s.5,2.6,1.5,3.5c.9.9,2.2,1.5,3.5,1.5Z"/>
                <path id="m113d86d1fa-5" data-name="m113d86d1fa" class="cls-15" d="M371.8,447.3c1.3,0,2.6-.5,3.5-1.5.9-.9,1.5-2.2,1.5-3.5s-.5-2.6-1.5-3.5c-.9-.9-2.2-1.5-3.5-1.5s-2.6.5-3.5,1.5c-.9.9-1.5,2.2-1.5,3.5s.5,2.6,1.5,3.5c.9.9,2.2,1.5,3.5,1.5Z"/>
                <path id="m113d86d1fa-6" data-name="m113d86d1fa" class="cls-15" d="M446.5,340.8c1.3,0,2.6-.5,3.5-1.5.9-.9,1.5-2.2,1.5-3.5s-.5-2.6-1.5-3.5c-.9-.9-2.2-1.5-3.5-1.5s-2.6.5-3.5,1.5c-.9.9-1.5,2.2-1.5,3.5s.5,2.6,1.5,3.5c.9.9,2.2,1.5,3.5,1.5Z"/>
                <path id="m113d86d1fa-7" data-name="m113d86d1fa" class="cls-15" d="M521.3,537.1c1.3,0,2.6-.5,3.5-1.5.9-.9,1.5-2.2,1.5-3.5s-.5-2.6-1.5-3.5c-.9-.9-2.2-1.5-3.5-1.5s-2.6.5-3.5,1.5c-.9.9-1.5,2.2-1.5,3.5s.5,2.6,1.5,3.5c.9.9,2.2,1.5,3.5,1.5Z"/>
                <path id="m113d86d1fa-8" data-name="m113d86d1fa" class="cls-15" d="M596,505.7c1.3,0,2.6-.5,3.5-1.5.9-.9,1.5-2.2,1.5-3.5s-.5-2.6-1.5-3.5c-.9-.9-2.2-1.5-3.5-1.5s-2.6.5-3.5,1.5c-.9.9-1.5,2.2-1.5,3.5s.5,2.6,1.5,3.5c.9.9,2.2,1.5,3.5,1.5Z"/>
                <path id="m113d86d1fa-9" data-name="m113d86d1fa" class="cls-15" d="M670.8,272.6c1.3,0,2.6-.5,3.5-1.5.9-.9,1.5-2.2,1.5-3.5s-.5-2.6-1.5-3.5c-.9-.9-2.2-1.5-3.5-1.5s-2.6.5-3.5,1.5c-.9.9-1.5,2.2-1.5,3.5s.5,2.6,1.5,3.5c.9.9,2.2,1.5,3.5,1.5Z"/>
                <path id="m113d86d1fa-10" data-name="m113d86d1fa" class="cls-15" d="M745.5,546.6c1.3,0,2.6-.5,3.5-1.5.9-.9,1.5-2.2,1.5-3.5s-.5-2.6-1.5-3.5c-.9-.9-2.2-1.5-3.5-1.5s-2.6.5-3.5,1.5c-.9.9-1.5,2.2-1.5,3.5s.5,2.6,1.5,3.5c.9.9,2.2,1.5,3.5,1.5Z"/>
                <path id="m113d86d1fa-11" data-name="m113d86d1fa" class="cls-15" d="M820.2,450.2c1.3,0,2.6-.5,3.5-1.5.9-.9,1.5-2.2,1.5-3.5s-.5-2.6-1.5-3.5c-.9-.9-2.2-1.5-3.5-1.5s-2.6.5-3.5,1.5c-.9.9-1.5,2.2-1.5,3.5s.5,2.6,1.5,3.5c.9.9,2.2,1.5,3.5,1.5Z"/>
              </g>
            </g>
          </g>
          <g id="line2d_15">
            <g class="cls-37">
              <path class="cls-11" d="M72.8,47.8l74.7,131.8,74.7-76,74.7,36.2,74.7-72.2,74.7,188.9,74.7-104.2,74.7,20.4,74.7,25.5,74.7,88.6,74.7,110.8"/>
            </g>
            <g class="cls-30">
              <g>
                <path id="m3c4027d50e" class="cls-12" d="M62.8,57.8l20-20M62.8,37.8l20,20"/>
                <path id="m3c4027d50e-2" data-name="m3c4027d50e" class="cls-12" d="M137.6,189.7l20-20M137.6,169.7l20,20"/>
                <path id="m3c4027d50e-3" data-name="m3c4027d50e" class="cls-12" d="M212.3,113.7l20-20M212.3,93.7l20,20"/>
                <path id="m3c4027d50e-4" data-name="m3c4027d50e" class="cls-12" d="M287,149.9l20-20M287,129.9l20,20"/>
                <path id="m3c4027d50e-5" data-name="m3c4027d50e" class="cls-12" d="M361.8,77.8l20-20M361.8,57.8l20,20"/>
                <path id="m3c4027d50e-6" data-name="m3c4027d50e" class="cls-12" d="M436.5,266.7l20-20M436.5,246.7l20,20"/>
                <path id="m3c4027d50e-7" data-name="m3c4027d50e" class="cls-12" d="M511.3,162.6l20-20M511.3,142.6l20,20"/>
                <path id="m3c4027d50e-8" data-name="m3c4027d50e" class="cls-12" d="M586,182.9l20-20M586,162.9l20,20"/>
                <path id="m3c4027d50e-9" data-name="m3c4027d50e" class="cls-12" d="M660.8,208.4l20-20M660.8,188.4l20,20"/>
                <path id="m3c4027d50e-10" data-name="m3c4027d50e" class="cls-12" d="M735.5,297l20-20M735.5,277l20,20"/>
                <path id="m3c4027d50e-11" data-name="m3c4027d50e" class="cls-12" d="M810.2,407.8l20-20M810.2,387.8l20,20"/>
              </g>
            </g>
          </g>
          <g id="LineCollection_1">
            <g class="cls-8">
              <path class="cls-17" d="M72.8,207.8v-99.4"/>
            </g>
            <g class="cls-27">
              <path class="cls-17" d="M147.6,237v-19.3"/>
            </g>
            <g class="cls-2">
              <path class="cls-17" d="M222.3,263v-71.2"/>
            </g>
            <g class="cls-3">
              <path class="cls-17" d="M297,287.5v-27.9"/>
            </g>
            <g class="cls-29">
              <path class="cls-17" d="M371.8,497.2v-109.8"/>
            </g>
            <g class="cls-20">
              <path class="cls-17" d="M446.5,373.3v-75.1"/>
            </g>
            <g class="cls-21">
              <path class="cls-17" d="M521.3,564.2v-64.2"/>
            </g>
            <g class="cls-24">
              <path class="cls-17" d="M596,545.3v-89.3"/>
            </g>
            <g class="cls-32">
              <path class="cls-17" d="M670.8,339v-142.9"/>
            </g>
            <g class="cls-39">
              <path class="cls-17" d="M745.5,599.9v-116.7"/>
            </g>
            <g class="cls-33">
              <path class="cls-17" d="M820.2,494v-97.7"/>
            </g>
          </g>
          <g id="line2d_16">
            <g class="cls-6">
              <g>
                <path id="m07ad678f81" class="cls-15" d="M82.8,207.8h-20"/>
                <path id="m07ad678f81-2" data-name="m07ad678f81" class="cls-15" d="M157.6,237h-20"/>
                <path id="m07ad678f81-3" data-name="m07ad678f81" class="cls-15" d="M232.3,263h-20"/>
                <path id="m07ad678f81-4" data-name="m07ad678f81" class="cls-15" d="M307,287.5h-20"/>
                <path id="m07ad678f81-5" data-name="m07ad678f81" class="cls-15" d="M381.8,497.2h-20"/>
                <path id="m07ad678f81-6" data-name="m07ad678f81" class="cls-15" d="M456.5,373.3h-20"/>
                <path id="m07ad678f81-7" data-name="m07ad678f81" class="cls-15" d="M531.3,564.2h-20"/>
                <path id="m07ad678f81-8" data-name="m07ad678f81" class="cls-15" d="M606,545.3h-20"/>
                <path id="m07ad678f81-9" data-name="m07ad678f81" class="cls-15" d="M680.8,339h-20"/>
                <path id="m07ad678f81-10" data-name="m07ad678f81" class="cls-15" d="M755.5,599.9h-20"/>
                <path id="m07ad678f81-11" data-name="m07ad678f81" class="cls-15" d="M830.2,494h-20"/>
              </g>
            </g>
          </g>
          <g id="line2d_17">
            <g class="cls-36">
              <g>
                <path id="m07ad678f81-12" data-name="m07ad678f81" class="cls-15" d="M82.8,108.5h-20"/>
                <path id="m07ad678f81-13" data-name="m07ad678f81" class="cls-15" d="M157.6,217.7h-20"/>
                <path id="m07ad678f81-14" data-name="m07ad678f81" class="cls-15" d="M232.3,191.8h-20"/>
                <path id="m07ad678f81-15" data-name="m07ad678f81" class="cls-15" d="M307,259.6h-20"/>
                <path id="m07ad678f81-16" data-name="m07ad678f81" class="cls-15" d="M381.8,387.4h-20"/>
                <path id="m07ad678f81-17" data-name="m07ad678f81" class="cls-15" d="M456.5,298.2h-20"/>
                <path id="m07ad678f81-18" data-name="m07ad678f81" class="cls-15" d="M531.3,500h-20"/>
                <path id="m07ad678f81-19" data-name="m07ad678f81" class="cls-15" d="M606,456h-20"/>
                <path id="m07ad678f81-20" data-name="m07ad678f81" class="cls-15" d="M680.8,196.1h-20"/>
                <path id="m07ad678f81-21" data-name="m07ad678f81" class="cls-15" d="M755.5,483.2h-20"/>
                <path id="m07ad678f81-22" data-name="m07ad678f81" class="cls-15" d="M830.2,396.4h-20"/>
              </g>
            </g>
          </g>
          <g id="LineCollection_2">
            <g class="cls-4">
              <path class="cls-18" d="M72.8,64.2V31.4"/>
            </g>
            <g class="cls-7">
              <path class="cls-18" d="M147.6,203.7v-48.1"/>
            </g>
            <g class="cls-35">
              <path class="cls-18" d="M222.3,110.3v-13.2"/>
            </g>
            <g class="cls-28">
              <path class="cls-18" d="M297,148v-16.1"/>
            </g>
            <g class="cls-1">
              <path class="cls-18" d="M371.8,73.1v-10.7"/>
            </g>
            <g class="cls-9">
              <path class="cls-18" d="M446.5,265.8v-18.2"/>
            </g>
            <g class="cls-10">
              <path class="cls-18" d="M521.3,164v-22.9"/>
            </g>
            <g class="cls-40">
              <path class="cls-18" d="M596,191.6v-37.4"/>
            </g>
            <g class="cls-22">
              <path class="cls-18" d="M670.8,211v-25.1"/>
            </g>
            <g class="cls-31">
              <path class="cls-18" d="M745.5,297.3v-20.6"/>
            </g>
            <g class="cls-23">
              <path class="cls-18" d="M820.2,429.2v-62.8"/>
            </g>
          </g>
          <g id="line2d_18">
            <g class="cls-25">
              <g>
                <path id="m9695254a9b" class="cls-12" d="M82.8,64.2h-20"/>
                <path id="m9695254a9b-2" data-name="m9695254a9b" class="cls-12" d="M157.6,203.7h-20"/>
                <path id="m9695254a9b-3" data-name="m9695254a9b" class="cls-12" d="M232.3,110.3h-20"/>
                <path id="m9695254a9b-4" data-name="m9695254a9b" class="cls-12" d="M307,148h-20"/>
                <path id="m9695254a9b-5" data-name="m9695254a9b" class="cls-12" d="M381.8,73.1h-20"/>
                <path id="m9695254a9b-6" data-name="m9695254a9b" class="cls-12" d="M456.5,265.8h-20"/>
                <path id="m9695254a9b-7" data-name="m9695254a9b" class="cls-12" d="M531.3,164h-20"/>
                <path id="m9695254a9b-8" data-name="m9695254a9b" class="cls-12" d="M606,191.6h-20"/>
                <path id="m9695254a9b-9" data-name="m9695254a9b" class="cls-12" d="M680.8,211h-20"/>
                <path id="m9695254a9b-10" data-name="m9695254a9b" class="cls-12" d="M755.5,297.3h-20"/>
                <path id="m9695254a9b-11" data-name="m9695254a9b" class="cls-12" d="M830.2,429.2h-20"/>
              </g>
            </g>
          </g>
          <g id="line2d_19">
            <g class="cls-38">
              <g>
                <path id="m9695254a9b-12" data-name="m9695254a9b" class="cls-12" d="M82.8,31.4h-20"/>
                <path id="m9695254a9b-13" data-name="m9695254a9b" class="cls-12" d="M157.6,155.6h-20"/>
                <path id="m9695254a9b-14" data-name="m9695254a9b" class="cls-12" d="M232.3,97.1h-20"/>
                <path id="m9695254a9b-15" data-name="m9695254a9b" class="cls-12" d="M307,131.8h-20"/>
                <path id="m9695254a9b-16" data-name="m9695254a9b" class="cls-12" d="M381.8,62.4h-20"/>
                <path id="m9695254a9b-17" data-name="m9695254a9b" class="cls-12" d="M456.5,247.6h-20"/>
                <path id="m9695254a9b-18" data-name="m9695254a9b" class="cls-12" d="M531.3,141.1h-20"/>
                <path id="m9695254a9b-19" data-name="m9695254a9b" class="cls-12" d="M606,154.2h-20"/>
                <path id="m9695254a9b-20" data-name="m9695254a9b" class="cls-12" d="M680.8,185.9h-20"/>
                <path id="m9695254a9b-21" data-name="m9695254a9b" class="cls-12" d="M755.5,276.7h-20"/>
                <path id="m9695254a9b-22" data-name="m9695254a9b" class="cls-12" d="M830.2,366.4h-20"/>
              </g>
            </g>
          </g>
          <g id="line2d_20">
            <g class="cls-34">
              <path class="cls-13" d="M72.8,158.1l74.7,69.2h74.7c0,.1,74.7,46.2,74.7,46.2l74.7,168.8,74.7-106.5,74.7,196.3,74.7-31.4,74.7-233.1,74.7,274,74.7-96.4"/>
            </g>
          </g>
          <g id="line2d_21">
            <g class="cls-5">
              <path class="cls-11" d="M72.8,47.8l74.7,131.8,74.7-76,74.7,36.2,74.7-72.2,74.7,188.9,74.7-104.2,74.7,20.4,74.7,25.5,74.7,88.6,74.7,110.8"/>
            </g>
          </g>
          <g id="patch_3">
            <path class="cls-14" d="M35.5,628.3V3"/>
          </g>
          <g id="patch_4">
            <path class="cls-14" d="M857.6,628.3V3"/>
          </g>
          <g id="patch_5">
            <path class="cls-14" d="M35.5,628.3h822.2"/>
          </g>
          <g id="patch_6">
            <path class="cls-14" d="M35.5,3h822.2"/>
          </g>
          <g id="legend_1">
            <g id="line2d_22">
              <path class="cls-13" d="M905.1,302.2h32"/>
              <path id="m113d86d1fa-12" data-name="m113d86d1fa" class="cls-15" d="M921.1,307.2c1.3,0,2.6-.5,3.5-1.5.9-.9,1.5-2.2,1.5-3.5s-.5-2.6-1.5-3.5c-.9-.9-2.2-1.5-3.5-1.5s-2.6.5-3.5,1.5c-.9.9-1.5,2.2-1.5,3.5s.5,2.6,1.5,3.5c.9.9,2.2,1.5,3.5,1.5Z"/>
            </g>
            <g id="text_14">
              <g>
                <path id="DejaVuSans-47" d="M959.5,306.1v-3.1h-2.6v-1.3h4.1v5c-.6.4-1.3.8-2,1-.7.2-1.5.3-2.3.3-1.8,0-3.2-.5-4.3-1.6-1-1.1-1.5-2.5-1.5-4.4s.5-3.4,1.5-4.5c1-1.1,2.5-1.6,4.3-1.6s1.5,0,2.2.3c.7.2,1.3.5,1.9.8v1.7c-.6-.5-1.2-.9-1.9-1.1s-1.3-.4-2.1-.4c-1.4,0-2.5.4-3.2,1.2-.7.8-1.1,2-1.1,3.6s.4,2.8,1.1,3.6c.7.8,1.8,1.2,3.2,1.2s1.1,0,1.5-.1c.4,0,.8-.2,1.2-.4Z"/>
                <path id="DejaVuSans-2d" d="M963.1,302.8h4.2v1.3h-4.2v-1.3Z"/>
                <path id="DejaVuSans-71" d="M970.5,303.4c0,1.1.2,1.9.7,2.5.4.6,1,.9,1.8.9s1.4-.3,1.8-.9c.4-.6.7-1.4.7-2.5s-.2-1.9-.7-2.5c-.4-.6-1-.9-1.8-.9s-1.4.3-1.8.9-.7,1.4-.7,2.5ZM975.4,306.5c-.3.5-.7.9-1.1,1.2-.5.3-1,.4-1.7.4-1.1,0-1.9-.4-2.6-1.3-.7-.8-1-2-1-3.3s.3-2.5,1-3.3c.7-.8,1.5-1.3,2.6-1.3s1.2.1,1.7.4c.5.3.8.6,1.1,1.2v-1.3h1.4v12.1h-1.4v-4.6Z"/>
                <path id="DejaVuSans-75" d="M979.6,304.3v-5.3h1.4v5.2c0,.8.2,1.4.5,1.9.3.4.8.6,1.5.6s1.4-.2,1.8-.7c.5-.5.7-1.2.7-2v-5h1.4v8.7h-1.4v-1.3c-.3.5-.8.9-1.2,1.2-.5.3-1,.4-1.6.4-1,0-1.8-.3-2.3-.9-.5-.6-.8-1.5-.8-2.7ZM983.2,298.8h0Z"/>
                <path id="DejaVuSans-61" d="M993.9,303.4c-1.2,0-2,.1-2.4.4s-.7.7-.7,1.4.2.9.5,1.2c.3.3.8.4,1.4.4s1.4-.3,1.9-.8.7-1.3.7-2.3v-.3h-1.4ZM996.8,302.8v5h-1.4v-1.3c-.3.5-.7.9-1.2,1.2-.5.3-1.1.4-1.8.4s-1.6-.3-2.1-.8c-.5-.5-.8-1.2-.8-2s.3-1.7,1-2.2c.7-.5,1.6-.7,2.9-.7h2c0-.8-.2-1.3-.7-1.7s-1-.5-1.8-.5-1,0-1.5.2c-.5.1-.9.3-1.4.5v-1.3c.5-.2,1-.4,1.5-.5.5-.1,1-.2,1.4-.2,1.3,0,2.2.3,2.8,1,.6.7.9,1.6.9,3Z"/>
                <path id="DejaVuSans-64" d="M1005.5,300.4v-4.7h1.4v12.2h-1.4v-1.3c-.3.5-.7.9-1.1,1.2-.5.3-1,.4-1.7.4-1.1,0-1.9-.4-2.6-1.3-.7-.8-1-2-1-3.3s.3-2.5,1-3.3c.7-.8,1.5-1.3,2.6-1.3s1.2.1,1.7.4c.5.3.8.6,1.1,1.2ZM1000.6,303.4c0,1.1.2,1.9.7,2.5.4.6,1,.9,1.8.9s1.4-.3,1.8-.9c.4-.6.7-1.4.7-2.5s-.2-1.9-.7-2.5c-.4-.6-1-.9-1.8-.9s-1.4.3-1.8.9-.7,1.4-.7,2.5Z"/>
                <path id="DejaVuSans-2d-2" data-name="DejaVuSans-2d" d="M1009.1,302.8h4.2v1.3h-4.2v-1.3Z"/>
                <path id="DejaVuSans-68" d="M1022.9,302.5v5.3h-1.4v-5.2c0-.8-.2-1.4-.5-1.9-.3-.4-.8-.6-1.5-.6s-1.4.2-1.8.7c-.4.5-.7,1.2-.7,2v4.9h-1.4v-12.2h1.4v4.8c.3-.5.7-.9,1.2-1.2.5-.3,1-.4,1.6-.4,1,0,1.8.3,2.3.9.5.6.8,1.5.8,2.7Z"/>
                <path id="DejaVuSans-65" d="M1033.3,303.1v.7h-6.6c0,1,.4,1.7.9,2.3.5.5,1.3.8,2.2.8s1.1,0,1.6-.2,1-.3,1.5-.6v1.4c-.5.2-1,.4-1.6.5s-1.1.2-1.6.2c-1.4,0-2.5-.4-3.3-1.2-.8-.8-1.2-1.9-1.2-3.3s.4-2.6,1.2-3.4c.8-.8,1.8-1.3,3.1-1.3s2.1.4,2.8,1.1c.7.8,1,1.8,1,3.1ZM1031.8,302.6c0-.8-.2-1.4-.7-1.9-.4-.5-1-.7-1.7-.7s-1.4.2-1.9.7-.8,1.1-.8,1.9h5.1Z"/>
                <path id="DejaVuSans-6d" d="M1042.4,300.7c.4-.6.8-1.1,1.3-1.4s1.1-.5,1.8-.5,1.6.3,2.1,1c.5.6.7,1.5.7,2.7v5.3h-1.4v-5.2c0-.8-.1-1.5-.4-1.9-.3-.4-.7-.6-1.4-.6s-1.3.2-1.8.7c-.4.5-.6,1.2-.6,2v4.9h-1.4v-5.2c0-.8-.1-1.5-.4-1.9s-.8-.6-1.4-.6-1.3.2-1.8.7c-.4.5-.6,1.2-.6,2v4.9h-1.4v-8.7h1.4v1.4c.3-.5.7-.9,1.2-1.2s1-.4,1.6-.4,1.2.2,1.6.5c.4.3.8.8,1,1.4Z"/>
                <path id="DejaVuSans-65-2" data-name="DejaVuSans-65" d="M1058.7,303.1v.7h-6.6c0,1,.4,1.7.9,2.3.5.5,1.3.8,2.2.8s1.1,0,1.6-.2,1-.3,1.5-.6v1.4c-.5.2-1,.4-1.6.5s-1.1.2-1.6.2c-1.4,0-2.5-.4-3.3-1.2-.8-.8-1.2-1.9-1.2-3.3s.4-2.6,1.2-3.4c.8-.8,1.8-1.3,3.1-1.3s2.1.4,2.8,1.1c.7.8,1,1.8,1,3.1ZM1057.3,302.6c0-.8-.2-1.4-.7-1.9-.4-.5-1-.7-1.7-.7s-1.4.2-1.9.7-.8,1.1-.8,1.9h5.1Z"/>
                <path id="DejaVuSans-20" d="M1059.5,307.8"/>
                <path id="DejaVuSans-69" d="M1066.1,299h1.4v8.7h-1.4v-8.7ZM1066.1,295.6h1.4v1.8h-1.4v-1.8Z"/>
                <path id="DejaVuSans-6e" d="M1077.9,302.5v5.3h-1.4v-5.2c0-.8-.2-1.4-.5-1.9-.3-.4-.8-.6-1.5-.6s-1.4.2-1.8.7c-.4.5-.7,1.2-.7,2v4.9h-1.4v-8.7h1.4v1.4c.3-.5.7-.9,1.2-1.2.5-.3,1-.4,1.6-.4,1,0,1.8.3,2.3.9.5.6.8,1.5.8,2.7Z"/>
                <path id="DejaVuSans-20-2" data-name="DejaVuSans-20" d="M1079.2,307.8"/>
                <path id="DejaVuSans-73" d="M1091.4,299.3v1.4c-.4-.2-.8-.4-1.3-.5-.4-.1-.9-.2-1.4-.2-.7,0-1.2.1-1.6.3-.4.2-.5.5-.5,1s.1.6.4.8.8.4,1.5.5h.5c1,.3,1.7.6,2.2,1s.6,1,.6,1.7-.3,1.5-1,1.9c-.6.5-1.5.7-2.7.7s-1,0-1.5-.1c-.5,0-1-.2-1.6-.4v-1.5c.5.3,1.1.5,1.6.6.5.1,1,.2,1.5.2s1.2-.1,1.6-.3c.4-.2.5-.6.5-1s-.1-.7-.4-.9c-.3-.2-.8-.4-1.7-.6h-.5c-.9-.3-1.5-.6-1.9-1-.4-.4-.6-.9-.6-1.6s.3-1.5.9-1.9c.6-.4,1.4-.7,2.5-.7s1,0,1.5.1c.5,0,.9.2,1.3.3Z"/>
                <path id="DejaVuSans-6f" d="M1097.5,300.1c-.8,0-1.4.3-1.8.9s-.7,1.4-.7,2.5.2,1.9.7,2.5c.4.6,1.1.9,1.8.9s1.4-.3,1.8-.9c.4-.6.7-1.4.7-2.5s-.2-1.9-.7-2.5c-.4-.6-1.1-.9-1.8-.9ZM1097.5,298.8c1.2,0,2.2.4,2.9,1.2.7.8,1.1,1.9,1.1,3.4s-.4,2.6-1.1,3.4c-.7.8-1.7,1.2-2.9,1.2s-2.2-.4-2.9-1.2c-.7-.8-1.1-1.9-1.1-3.4s.4-2.6,1.1-3.4c.7-.8,1.7-1.2,2.9-1.2Z"/>
                <path id="DejaVuSans-6c" d="M1103.9,295.6h1.4v12.2h-1.4v-12.2Z"/>
                <path id="DejaVuSans-76" d="M1107.4,299h1.5l2.7,7.3,2.7-7.3h1.5l-3.3,8.7h-2l-3.3-8.7Z"/>
                <path id="DejaVuSans-65-3" data-name="DejaVuSans-65" d="M1125.3,303.1v.7h-6.6c0,1,.4,1.7.9,2.3.5.5,1.3.8,2.2.8s1.1,0,1.6-.2,1-.3,1.5-.6v1.4c-.5.2-1,.4-1.6.5s-1.1.2-1.6.2c-1.4,0-2.5-.4-3.3-1.2-.8-.8-1.2-1.9-1.2-3.3s.4-2.6,1.2-3.4c.8-.8,1.8-1.3,3.1-1.3s2.1.4,2.8,1.1c.7.8,1,1.8,1,3.1ZM1123.9,302.6c0-.8-.2-1.4-.7-1.9-.4-.5-1-.7-1.7-.7s-1.4.2-1.9.7-.8,1.1-.8,1.9h5.1Z"/>
                <path id="DejaVuSans-6e-2" data-name="DejaVuSans-6e" d="M1135,302.5v5.3h-1.4v-5.2c0-.8-.2-1.4-.5-1.9-.3-.4-.8-.6-1.5-.6s-1.4.2-1.8.7c-.4.5-.7,1.2-.7,2v4.9h-1.4v-8.7h1.4v1.4c.3-.5.7-.9,1.2-1.2.5-.3,1-.4,1.6-.4,1,0,1.8.3,2.3.9.5.6.8,1.5.8,2.7Z"/>
                <path id="DejaVuSans-74" d="M1139.3,296.6v2.5h3v1.1h-3v4.7c0,.7,0,1.2.3,1.4s.6.3,1.2.3h1.5v1.2h-1.5c-1.1,0-1.9-.2-2.3-.6-.4-.4-.6-1.2-.6-2.3v-4.7h-1.1v-1.1h1.1v-2.5h1.4Z"/>
              </g>
            </g>
            <g id="line2d_23">
              <path class="cls-11" d="M905.1,325.7h32"/>
              <path id="m3c4027d50e-12" data-name="m3c4027d50e" class="cls-12" d="M911.1,335.7l20-20M911.1,315.7l20,20"/>
            </g>
            <g id="text_15">
              <g>
                <path id="DejaVuSans-48" d="M951.5,319.6h1.6v4.8h5.7v-4.8h1.6v11.7h-1.6v-5.6h-5.7v5.6h-1.6v-11.7Z"/>
                <path id="DejaVuSans-65-4" data-name="DejaVuSans-65" d="M971,326.5v.7h-6.6c0,1,.4,1.7.9,2.3.5.5,1.3.8,2.2.8s1.1,0,1.6-.2,1-.3,1.5-.6v1.4c-.5.2-1,.4-1.6.5s-1.1.2-1.6.2c-1.4,0-2.5-.4-3.3-1.2-.8-.8-1.2-1.9-1.2-3.3s.4-2.6,1.2-3.4c.8-.8,1.8-1.3,3.1-1.3s2.1.4,2.8,1.1c.7.8,1,1.8,1,3.1ZM969.5,326.1c0-.8-.2-1.4-.7-1.9-.4-.5-1-.7-1.7-.7s-1.4.2-1.9.7-.8,1.1-.8,1.9h5.1Z"/>
                <path id="DejaVuSans-6d-2" data-name="DejaVuSans-6d" d="M980.1,324.2c.4-.6.8-1.1,1.3-1.4s1.1-.5,1.8-.5,1.6.3,2.1,1c.5.6.7,1.5.7,2.7v5.3h-1.4v-5.2c0-.8-.1-1.5-.4-1.9-.3-.4-.7-.6-1.4-.6s-1.3.2-1.8.7c-.4.5-.6,1.2-.6,2v4.9h-1.4v-5.2c0-.8-.1-1.5-.4-1.9s-.8-.6-1.4-.6-1.3.2-1.8.7c-.4.5-.6,1.2-.6,2v4.9h-1.4v-8.7h1.4v1.4c.3-.5.7-.9,1.2-1.2s1-.4,1.6-.4,1.2.2,1.6.5c.4.3.8.8,1,1.4Z"/>
                <path id="DejaVuSans-65-5" data-name="DejaVuSans-65" d="M996.4,326.5v.7h-6.6c0,1,.4,1.7.9,2.3.5.5,1.3.8,2.2.8s1.1,0,1.6-.2,1-.3,1.5-.6v1.4c-.5.2-1,.4-1.6.5s-1.1.2-1.6.2c-1.4,0-2.5-.4-3.3-1.2-.8-.8-1.2-1.9-1.2-3.3s.4-2.6,1.2-3.4c.8-.8,1.8-1.3,3.1-1.3s2.1.4,2.8,1.1c.7.8,1,1.8,1,3.1ZM994.9,326.1c0-.8-.2-1.4-.7-1.9-.4-.5-1-.7-1.7-.7s-1.4.2-1.9.7-.8,1.1-.8,1.9h5.1Z"/>
                <path id="DejaVuSans-20-3" data-name="DejaVuSans-20" d="M997.2,331.3"/>
                <path id="DejaVuSans-69-2" data-name="DejaVuSans-69" d="M1003.8,322.5h1.4v8.7h-1.4v-8.7ZM1003.8,319.1h1.4v1.8h-1.4v-1.8Z"/>
                <path id="DejaVuSans-6e-3" data-name="DejaVuSans-6e" d="M1015.5,326v5.3h-1.4v-5.2c0-.8-.2-1.4-.5-1.9-.3-.4-.8-.6-1.5-.6s-1.4.2-1.8.7c-.4.5-.7,1.2-.7,2v4.9h-1.4v-8.7h1.4v1.4c.3-.5.7-.9,1.2-1.2.5-.3,1-.4,1.6-.4,1,0,1.8.3,2.3.9.5.6.8,1.5.8,2.7Z"/>
                <path id="DejaVuSans-20-4" data-name="DejaVuSans-20" d="M1016.9,331.3"/>
                <path id="DejaVuSans-73-2" data-name="DejaVuSans-73" d="M1029.1,322.8v1.4c-.4-.2-.8-.4-1.3-.5-.4-.1-.9-.2-1.4-.2-.7,0-1.2.1-1.6.3-.4.2-.5.5-.5,1s.1.6.4.8.8.4,1.5.5h.5c1,.3,1.7.6,2.2,1s.6,1,.6,1.7-.3,1.5-1,1.9c-.6.5-1.5.7-2.7.7s-1,0-1.5-.1c-.5,0-1-.2-1.6-.4v-1.5c.5.3,1.1.5,1.6.6.5.1,1,.2,1.5.2s1.2-.1,1.6-.3c.4-.2.5-.6.5-1s-.1-.7-.4-.9c-.3-.2-.8-.4-1.7-.6h-.5c-.9-.3-1.5-.6-1.9-1-.4-.4-.6-.9-.6-1.6s.3-1.5.9-1.9c.6-.4,1.4-.7,2.5-.7s1,0,1.5.1c.5,0,.9.2,1.3.3Z"/>
                <path id="DejaVuSans-6f-2" data-name="DejaVuSans-6f" d="M1035.2,323.5c-.8,0-1.4.3-1.8.9s-.7,1.4-.7,2.5.2,1.9.7,2.5c.4.6,1.1.9,1.8.9s1.4-.3,1.8-.9c.4-.6.7-1.4.7-2.5s-.2-1.9-.7-2.5c-.4-.6-1.1-.9-1.8-.9ZM1035.2,322.3c1.2,0,2.2.4,2.9,1.2.7.8,1.1,1.9,1.1,3.4s-.4,2.6-1.1,3.4c-.7.8-1.7,1.2-2.9,1.2s-2.2-.4-2.9-1.2c-.7-.8-1.1-1.9-1.1-3.4s.4-2.6,1.1-3.4c.7-.8,1.7-1.2,2.9-1.2Z"/>
                <path id="DejaVuSans-6c-2" data-name="DejaVuSans-6c" d="M1041.6,319.1h1.4v12.2h-1.4v-12.2Z"/>
                <path id="DejaVuSans-76-2" data-name="DejaVuSans-76" d="M1045,322.5h1.5l2.7,7.3,2.7-7.3h1.5l-3.3,8.7h-2l-3.3-8.7Z"/>
                <path id="DejaVuSans-65-6" data-name="DejaVuSans-65" d="M1063,326.5v.7h-6.6c0,1,.4,1.7.9,2.3.5.5,1.3.8,2.2.8s1.1,0,1.6-.2,1-.3,1.5-.6v1.4c-.5.2-1,.4-1.6.5s-1.1.2-1.6.2c-1.4,0-2.5-.4-3.3-1.2-.8-.8-1.2-1.9-1.2-3.3s.4-2.6,1.2-3.4c.8-.8,1.8-1.3,3.1-1.3s2.1.4,2.8,1.1c.7.8,1,1.8,1,3.1ZM1061.6,326.1c0-.8-.2-1.4-.7-1.9-.4-.5-1-.7-1.7-.7s-1.4.2-1.9.7-.8,1.1-.8,1.9h5.1Z"/>
                <path id="DejaVuSans-6e-4" data-name="DejaVuSans-6e" d="M1072.7,326v5.3h-1.4v-5.2c0-.8-.2-1.4-.5-1.9-.3-.4-.8-.6-1.5-.6s-1.4.2-1.8.7c-.4.5-.7,1.2-.7,2v4.9h-1.4v-8.7h1.4v1.4c.3-.5.7-.9,1.2-1.2.5-.3,1-.4,1.6-.4,1,0,1.8.3,2.3.9.5.6.8,1.5.8,2.7Z"/>
                <path id="DejaVuSans-74-2" data-name="DejaVuSans-74" d="M1076.9,320v2.5h3v1.1h-3v4.7c0,.7,0,1.2.3,1.4s.6.3,1.2.3h1.5v1.2h-1.5c-1.1,0-1.9-.2-2.3-.6-.4-.4-.6-1.2-.6-2.3v-4.7h-1.1v-1.1h1.1v-2.5h1.4Z"/>
              </g>
            </g>
          </g>
        </g>
      </g>
    </g>
  </g>
</svg>