<?xml version="1.0" encoding="UTF-8"?>
<svg xmlns="http://www.w3.org/2000/svg" version="1.1" xmlns:svg="http://www.w3.org/2000/svg" viewBox="0 0 1614.3 1625.7">
  <defs>
    <style>
      .cls-1 {
        stroke-dasharray: 24 12;
      }

      .cls-1, .cls-2 {
        fill: none;
        stroke: #000;
        stroke-width: 6px;
      }

      .cls-3, .cls-4 {
        isolation: isolate;
      }

      .cls-4 {
        font-family: ArialMT, Arial;
        font-size: 99px;
      }
    </style>
  </defs>
  <!-- Generator: Adobe Illustrator 28.7.1, SVG Export Plug-In . SVG Version: 1.2.0 Build 142)  -->
  <g>
    <g id="svg2">
      <g id="layer1">
        <path id="path3656" class="cls-2" d="M1304.1,1513.2l75.9-75.9-42.9-161.1-161.1-43.2-43.2-161.1"/>
        <path id="path3654" class="cls-2" d="M179.7,1469.1l119.1-31.8,43.2-161.1,161.1-43.2,43.2-161.1"/>
        <path id="path3652" class="cls-2" d="M1174.8,801.9l84.6-143.7-84.6-143.4"/>
        <path id="path3650" class="cls-2" d="M1459.2,158.7l-43.2,161.1-161.1,43.2"/>
        <path id="path3648" class="cls-2" d="M984.9,320.7l-147.6-84.3-143.4,84.3"/>
        <path id="path3646" class="cls-2" d="M342,40.5l161.1,43.2,43.2,161.1"/>
        <path id="path3644" class="cls-2" d="M504,514.8l125.1-22.5"/>
        <path id="path3642" class="cls-2" d="M428.1,363l75.9,151.8"/>
        <path id="path3640" class="cls-2" d="M456.6,366.3l61.2,122.7"/>
        <path id="path3638" class="cls-2" d="M675,442.8l18.9-122.1"/>
        <path id="path3636" class="cls-2" d="M546.3,244.8l147.6,75.9"/>
        <path id="path3634" class="cls-2" d="M549.6,273.6l119.1,61.2"/>
        <path id="path3632" class="cls-2" d="M834.3,262.2l134.7,77.1"/>
        <path id="path3630" class="cls-2" d="M984.9,320.7l18.9,122.1"/>
        <path id="path3628" class="cls-2" d="M1132.8,244.8l-147.9,75.9"/>
        <path id="path3626" class="cls-2" d="M1050,492.3l124.8,22.5"/>
        <path id="path3624" class="cls-2" d="M1050,516.9l117.3,21"/>
        <path id="path3622" class="cls-2" d="M1254.9,363l-80.1,151.8"/>
        <path id="path3620" class="cls-2" d="M1233,655.5l-77.1,131.1"/>
        <path id="path3618" class="cls-2" d="M1174.8,801.9l-124.8,22.2"/>
        <path id="path3616" class="cls-2" d="M1174.8,801.9l80.1,151.8"/>
        <path id="path3614" class="cls-2" d="M984.9,996l-147.6,84.3"/>
        <path id="path3612" class="cls-2" d="M969,977.4l-134.7,77.1"/>
        <path id="path3610" class="cls-2" d="M1132.8,1071.9l-147.9-75.9"/>
        <path id="path3608" class="cls-2" d="M1003.8,873.9l-18.9,122.1"/>
        <path id="path3606" class="cls-2" d="M693.9,996l143.4,84.3"/>
        <path id="path3604" class="cls-2" d="M675,873.9l18.9,122.1"/>
        <path id="path3602" class="cls-2" d="M650.7,873.9l17.1,109.8"/>
        <path id="path3600" class="cls-2" d="M546.3,1071.9l147.6-75.9"/>
        <path id="path3598" class="cls-2" d="M504,801.9l-84.3-143.7,84.3-143.4"/>
        <path id="path3596" class="cls-2" d="M522.9,786.6l-77.1-131.1"/>
        <path id="path3594" class="cls-2" d="M629.1,824.1l-125.1-22.2"/>
        <path id="path3592" class="cls-2" d="M428.1,953.7l75.9-151.8"/>
        <path id="path3590" class="cls-2" d="M879.9,700.8l91.2,91.2"/>
        <path id="path3588" class="cls-2" d="M546.3,244.8l-118.2,118.2"/>
        <path id="path3586" class="cls-2" d="M428.1,363l-161.1-43.2"/>
        <path id="path3584" class="cls-2" d="M1132.8,244.8l122.1,118.2"/>
        <path id="path3582" class="cls-2" d="M1127.4,273l98.7,95.4"/>
        <path id="path3580" class="cls-2" d="M1132.8,244.8l43.2-161.1"/>
        <path id="path3578" class="cls-2" d="M1254.9,953.7l-122.1,118.2"/>
        <path id="path3576" class="cls-2" d="M1226.1,948.3l-98.7,95.1"/>
        <path id="path3574" class="cls-2" d="M1254.9,953.7l161.1,43.2"/>
        <path id="path3572" class="cls-2" d="M428.1,953.7l118.2,118.2"/>
        <path id="path3570" class="cls-2" d="M456.3,948l95.4,95.4"/>
        <path id="path3568" class="cls-2" d="M428.1,953.7l-161.1,43.2"/>
        <path id="path3566" class="cls-2" d="M486.9,104.1l-151.2-40.5"/>
        <path id="path3564" class="cls-2" d="M1395.6,303.6l40.5-151.2"/>
        <path id="path3562" class="cls-2" d="M285.5,1441.1l89.4,89.4"/>
        <path id="path3560" class="cls-2" d="M302.6,1424l89.8,89.8"/>
        <path id="path3558" class="cls-2" d="M1371.5,1447.2l127.8,34.5"/>
        <path id="path3556" class="cls-2" d="M1377.8,1424.1l128.5,34.5"/>
        <path id="path3554" class="cls-2" d="M708,525.9l94.5,96.6"/>
        <g id="text3528" class="cls-3">
          <text class="cls-4" transform="translate(632.6 517.1)"><tspan x="0" y="0">N</tspan></text>
        </g>
        <g id="text3532" class="cls-3">
          <text class="cls-4" transform="translate(973.3 517.1)"><tspan x="0" y="0">N</tspan></text>
        </g>
        <g id="text3536" class="cls-3">
          <text class="cls-4" transform="translate(632.6 860.5)"><tspan x="0" y="0">N</tspan></text>
        </g>
        <g id="text3540" class="cls-3">
          <text class="cls-4" transform="translate(973.3 860.5)"><tspan x="0" y="0">N</tspan></text>
        </g>
        <g id="text3544" class="cls-3">
          <text class="cls-4" transform="translate(805.4 692.6)"><tspan x="0" y="0">Fe</tspan></text>
        </g>
        <g id="text3711" class="cls-3">
          <text class="cls-4" transform="translate(29.6 1508.8)"><tspan x="0" y="0">HO</tspan></text>
        </g>
        <g id="text3715" class="cls-3">
          <text class="cls-4" transform="translate(1504.2 1508.8)"><tspan x="0" y="0">O</tspan></text>
        </g>
        <g id="text3719" class="cls-3">
          <text class="cls-4" transform="translate(375.2 1587)"><tspan x="0" y="0">O</tspan></text>
        </g>
        <g id="text3723" class="cls-3">
          <text class="cls-4" transform="translate(1164.8 1583)"><tspan x="0" y="0">HO</tspan></text>
        </g>
        <path id="path3727" class="cls-1" d="M801.5,695.4l-101.6,101.6M973.9,522.9l-99.1,99.1"/>
      </g>
    </g>
  </g>
</svg>