<?xml version="1.0" encoding="UTF-8"?><svg id="Layer_2" xmlns="http://www.w3.org/2000/svg" viewBox="0 0 1790.85 366.62"><defs><style>.cls-1{fill:#f1e1b1;}.cls-2{fill:#e3ab04;}.cls-3{fill:#616163;}.cls-4{fill:#057ec4;}.cls-5{fill:#4591cd;}.cls-6{fill:#78166c;}</style></defs><g id="Layer_1-2"><path class="cls-6" d="M115.76,190.89c-2.32-6.94-4.85-13.61-6.78-20.46-3.54-12.55-4.69-25.52-5.85-38.45-2.66-29.72-3.94-59.5-3.81-89.34.04-9.33.43-18.66.41-27.99,0-2.89.92-4.24,3.76-4.68,7.73-1.17,15.41-2.69,23.16-3.72C153.58,2.69,180.63.46,207.8.06c30.53-.45,60.92,1.7,91.17,5.76,9.07,1.22,18.11,2.6,27.13,4.14,4.43.75,4.47.99,4.48,5.57.03,19.5.39,39-.08,58.49-.61,25.81-2.38,51.57-5.57,77.2-1.69,13.6-4.95,26.8-10.93,39.38,2.97.48,5.74.73,8.4,1.41,5.66,1.44,10.35,4.54,13.96,9.14,2.94,3.74,2.88,5.56-.22,9.2-4.21,4.95-8.45,9.88-12.81,14.69-1.93,2.12-2.66,4.36-2.48,7.23.61,9.57,3.16,18.31,9.76,25.61,2.18,2.41,4.48,3.24,7.84,3.09,7.96-.35,15.95-.16,23.92.05,2.1.06,4.24.85,6.25,1.58,5.93,2.16,9.28,6.26,9.16,12.8-.04,2.14,0,4.28,0,6.95,5.8-1,10.97-2.02,16.17-2.74,6.93-.97,13.88-1.69,20.9-.62,9.85,1.51,14.25,5.87,14.69,15.76.39,8.65.18,17.32.24,25.99.04,5.57-2.67,9.46-7.34,12.19-6.94,4.05-14.59,5.64-22.48,5.94-33.42,1.29-63.48-7.97-89.61-29.14-1.91-1.55-3.54-1.88-5.88-1.29-40.15,10.14-80.97,11.75-122.07,9.12-19.15-1.22-38.03-4.46-56.66-9.01-2.76-.67-4.56-.2-6.74,1.55-26.52,21.27-56.95,30.4-90.73,28.67-7.01-.36-13.82-1.96-20.1-5.39C2.88,330.5-.08,326.33,0,320.14c.11-8.33-.11-16.67.25-24.99.45-10.41,4.83-14.8,15.32-16.21,10.42-1.4,20.57.63,30.74,2.43,1.62.29,3.24.63,5.48,1.07.1-2.61.26-4.87.24-7.13-.05-6.3,2.98-10.67,8.82-12.47,4.56-1.4,9.39-2.3,14.15-2.55,5.63-.29,11.32.21,16.96.67,2.74.22,4.71-.44,6.62-2.44,7.73-8.12,10.42-18.01,10.28-28.85-.02-1.44-1.15-3.06-2.16-4.26-4.28-5.11-8.75-10.06-13.07-15.13-3.08-3.61-3.14-5.45-.11-9.19,4.73-5.83,10.88-9.18,18.38-9.96,1.3-.14,2.61-.16,3.86-.23ZM303.91,17c-.26-.12-.51-.25-.77-.37.25.12.51.25.76.37.2.47.39.94.59,1.42.23.97.38,1.97.71,2.91,1.79,5.13,1.95,10.43,1.65,15.77-.15,2.72-.62,5.53-3.47,6.7-3.05,1.25-5.51-.34-7.47-2.6-.71-.82-1.04-1.96-1.55-2.96-2.11,4.67-1.99,8.16.5,11.29,2.26,2.85,5.06,1.05,7.78.43.05.89.23,1.41.08,1.8-.88,2.33-1.74,4.68-2.8,6.93-2,4.27-5.91,4.81-9.03,1.2-1.27-1.47-2.23-3.21-3.39-4.91-2.14,3.43-2.61,5.62-1.92,8.47,1.18,4.88,2.71,5.78,7.75,4.67.4-.09.9.24,1.87.54-1.89,3.15-3.5,6.23-5.49,9.04-2.09,2.96-4.57,3.2-7.14.62-1.7-1.71-2.88-3.93-4.4-6.08-2.38,3.19-3.84,6.45-2.46,10.59,1.37,4.1,4.89,2.93,8.44,3.27-2.41,2.91-4.24,5.48-6.44,7.7-2.84,2.86-6.05,2.83-8.71-.16-1.38-1.55-2.16-3.66-3.08-5.59-.44-.94-.57-2.02-.93-3.37-4.19,3.13-4.91,7.25-4.71,11.4.2,4.19,2.22,5.67,6.46,5.88.71.03,1.42.22,3.14.5-2.45,2.34-4.15,4.11-6.01,5.69-2.48,2.11-5.27,3.78-8.66,2.51-3.74-1.4-4.92-4.72-5.45-8.31-.26-1.75-.28-3.53-.42-5.41-.84.08-1.42-.04-1.76.19-4.62,3.27-6.26,8.09-6.37,13.42-.07,3.03,2.04,5.09,5.14,5.98,1.17.33,2.38.55,3.59.83-.2.7-.19,1.15-.4,1.3-4.86,3.45-6.82,8.05-6.89,14.08-.1,8.77-4.57,15.28-12.66,18.68-4.85,2.04-10.1,3.11-15.18,4.62,0-5.03,0-10.06,0-15.09,1.16,0,2.33.09,3.48-.02,8.66-.79,13.97-5.24,15.07-13.79.56-4.32.07-8.97-.9-13.25-.94-4.15-4.2-6.75-8.7-6.97-2.97-.15-5.97.06-8.95.11v-6.95c-12.47,3.26-17.47,9.58-17.05,21.19.19,5.4,2.29,7.93,7.68,8.55,3.11.36,6.29.12,9.44.14,0,3.69,0,7.38-.01,11.07-5.12-.35-10.36-.12-15.32-1.21-6.43-1.4-10.74-5.42-11.97-12.45-1.21-6.9-.19-13.56,1.11-20.24.31-1.58,1.03-3.22,2.01-4.49,6.06-7.85,14.82-11.33,24.32-15.21v10.59c1.02,0,1.55.13,1.98-.02,11.24-4.03,22.62-7.74,33.67-12.25,8.39-3.42,15.75-8.65,21.06-16.27,1.48-2.12,2.94-4.33,3.12-7.71-1.48.8-2.43,1.33-3.39,1.83-6.19,3.21-12.2,6.86-19.29,7.86-2.76.39-3.82-.54-3.19-3.2.74-3.16,2.25-5.94,5.32-7.48,2.08-1.04,4.27-1.85,6.34-2.91,5.17-2.65,10.42-5.19,15.4-8.16,2.95-1.76,5.05-4.51,5.85-8.41-8.42,3.17-15.73,8.22-25.22,7.66.27-5.04,2.09-8.45,6.23-10.45,5.39-2.59,10.85-5.05,16.22-7.7,2.78-1.38,5.52-2.95,6.96-6.78-2.06.56-3.6.95-5.12,1.39-4.14,1.21-8.25,2.56-12.42,3.62-1.27.32-2.74-.12-4.12-.21.19-1.26.27-2.55.61-3.77.21-.77.75-1.48,1.24-2.15,5.22-7.12,11.89-11.51,21.07-11.2,1.57.05,3.15,0,5.6,0-1.3-.71-1.82-1.12-2.41-1.3-10.49-3.21-20.06-1.77-28.31,5.83-7.65,7.04-12.59,15.9-16.32,25.41-3.27,8.34-5.78,16.97-8.95,25.36-3.83,10.14-11.58,16.23-22.12,20.27v-33.25c-3.86-.26-7.08,2.27-10.77.6.73-1.57,1.31-2.94,1.98-4.26,1.32-2.62.26-4.93-1.23-6.91-.64-.86-2.32-1.43-3.44-1.3-.81.09-1.73,1.44-2.11,2.42-.41,1.03-.3,2.28-.31,3.44-.03,3.83-.26,7.68.05,11.49.47,5.81-4.43,9.96-10.1,9.73-6.16-.24-9.96-3.76-10.07-9.92-.08-4,0-8-.02-12,0-1.16.05-2.37-.28-3.45-.19-.64-1.09-1.44-1.69-1.46-.6-.02-1.59.76-1.75,1.36-.34,1.25-.28,2.62-.33,3.94-.15,3.99-1.12,5.53-3.88,6.03-2.98.54-6.33-1.4-7.61-4.43,4.46-.52,5.97-2.5,4.38-5.73-.92-1.88-4.07-2.98-7.1-2.49-3.15.52-4.81,1.91-4.83,4.69-.09,9.16-.17,18.33.06,27.49.12,4.65,3.49,6.18,7.82,3.96-3.12-5.18-3.26-7.09-.72-9.83,2.49-2.69,5.82-3.16,9.9-1.28-2,1.63-5.29,2.67-3.8,6.04.45,1.03,2.33,1.97,3.59,2,4.19.11,2.72-4.04,4.02-6.45,3.19,1.9,4.14,4.66,3.93,7.71-.32,4.58-3.94,5.59-7.89,6.04.6,3.08,2.22,4.86,4.84,5.41,2.7.57,5.14-.66,6.48-2.85,1.58-2.59,2.49-5.58,3.74-8.5,2.82,2.04,2.36,5.33,2.23,8.41-.46,10.79-9.29,19.58-19.09,19.1-6.96-.34-10.29-4.22-9.77-11.58.96,1.03,1.68,2.4,2.76,2.8,1.19.44,3,.46,4.03-.17,1.89-1.17,2.03-5.32.67-7.81-1.37-2.5-3.41-3.31-6.22-2.64-3.7.88-6.16,3.04-7.45,6.65-1.77,4.95-2.15,10.04-1.91,15.23.12,2.7,1.23,3.5,4.05,3.64,5.44.26,10.89.99,16.25,1.98,2.6.48,5.46,1.34,6.86,4.5-1.42.58-2.69.96-3.84,1.59-4.01,2.22-6.63,5.57-7.35,10.12-1.34,8.44,1.46,15.44,7.99,20.87,4.01,3.34,8.65,5.55,13.74,6.82,8.03,2,16.14,1.4,24.26.94.11,2.27.21,4.54.34,7.17,9.45-.09,18.68,1.19,27.15-4.01-2.26,5.25-5.99,8.78-11.28,9.68-5.34.91-10.84.86-16.27,1.23v-6.04c-8.22,0-15.99-.25-23.72.16-2.19.12-4.63,1.8-6.32,3.42-3.01,2.88-2.5,8.05.85,10.52,3.25,2.4,7.04,2.63,10.92,1.88-.79-.67-1.69-.93-2.54-1.3-3.23-1.4-4.61-3.16-4.29-5.38.32-2.23,2.15-3.45,5.79-3.47,6.47-.04,12.93.08,19.4.14v58.07c-.83-.07-1.65-.2-2.48-.21q-5.04-.12-6.77,4.61c-1.44,3.92-4.47,5.99-9.09,6.2,3.83-3.95,3.38-7.59-1.32-10.47-.14-.09-.3-.15-.44-.23-5.07-2.7-8.86-.4-9.01,5.3-.13,5,1.89,9.02,6.02,12.78-8.06-1.77-12.73-7.03-14.1-15.04-.27-1.56-.04-3.99-2.23-3.73-1.69.2-3.58,1.6-4.7,3-1.61,2.01-.18,4.09,1.06,5.88.56.82,1.32,1.5,2.31,2.59-7.42-.68-12.18-7.24-10.77-13.71,1.18-5.37,5.21-7.34,9.83-7.66,3.58-.25,4.65-1.69,5.46-4.84,1.87-7.21,8.38-11.22,16.56-10.08-1.48,1.25-2.94,1.98-3.63,3.17-1.21,2.1-2.19,4.4-2.81,6.74-.68,2.55.66,4.29,3.3,4.42,3.99.2,8.03.49,11.98.06,5.8-.64,8.83-5.83,6.81-11.33-.84-2.3-2.26-4.42-3.56-6.53-1.42-2.3-3.45-3.15-6.3-3.06-6.99.22-14.02.45-20.99-.06-5.92-.43-11.87-1.47-17.61-2.99-6.48-1.72-11.77-5.6-14.86-11.74-3.68-7.29-2.43-8.58,4.94-10,3.58-.69,7.4-.12,10.95-.12-2.97-2.57-8.62-3.16-14.62-.82-11.16,4.36-19.55,11.06-19,24.84-4.35-5.51-7.01-11.43-7.92-18.11-.56-4.1.69-7.61,3.8-10.32,1.87-1.63,3.81-3.27,5.95-4.47,6.22-3.5,13.11-4.66,20.12-5.1,5.18-.33,10.31,0,15.21,2.04.78.33,1.64.49,2.46.72.15-.36.3-.71.46-1.07-2.04-.89-4-2.07-6.13-2.62-6.38-1.66-12.84-1.52-19.29-.29-4.46.86-5.19.77-5.84-3.58-1.18-7.86-2.29-15.81-2.44-23.74-.12-6.08,1.97-11.86,7.58-15.47,1.36-.88,2.81-1.94,1.97-3.46-.51-.91-2.36-1.33-3.66-1.51-6.49-.89-12.47-2.52-15.39-9.29-.83-1.92-2.44-2.08-4.18-1.82-1.93.29-2.89,1.45-2.88,3.44,0,.86-.1,1.72-.17,2.89-5.49-4.55-4.73-12.32,1.2-14.15,2.76-.85,3.22-2.12,3.21-4.56-.07-16.67-.05-33.33-.07-50,0-.83.11-1.72-.14-2.48-.61-1.88-1.84-3.12-3.97-3.22-2.11-.1-3.44.87-4.24,2.79-.79,1.89,0,3.2,1.41,4.32.62.5,1.31.91,2.17,1.5-3.26,2.58-5.94,1.05-8.4-.64-2.54-1.74-3.43-5.34-2.37-8.57,1.59-4.82,5.19-7.57,9.75-9.33,6.81-2.62,12.52.54,13.7,7.72.27,1.63.22,3.32.22,4.99.02,9,.01,18,.01,27,0,9.33-.1,18.67.03,28,.12,8.55,5.25,13.37,13.4,12.9q.65-4.16-2.78-6.61c-4.66-3.32-5.59-8.26-2.29-12.69.2.49.49.91.51,1.35.09,1.79.94,3.12,2.75,2.62,1.24-.35,2.58-1.46,3.2-2.6.57-1.05.31-2.6.32-3.92.02-11.67-.02-23.33.02-35,.03-7.1,2.54-10.69,9.19-13.24,6.12-2.35,12.52-2.16,18.72-.99,7.23,1.37,9.82,5.22,9.85,12.82.01,2.17-.24,4.39.19,6.47.18.92,1.66,1.98,2.7,2.18.72.13,2.02-.93,2.47-1.78.5-.95.43-2.25.44-3.4.04-4.17-.15-8.34.08-12.5.1-1.7.57-3.86,1.71-4.92,3.44-3.2,7.77-3.47,12.13-2.18,4.06,1.2,5.62,4.39,6.05,8.31.11.99.1,2,.11,3,.03,2.79,1.45,3.92,4.17,3.53v12.47c10.46-3.27,18.4-14.42,17.87-24.64-.43-8.33-5.65-14.96-13.45-17.1-3.66-1-3.92-.83-4.32,2.85-.05.49-.07.99-.1,1.49-2.99-.03-6.06-.51-8.94.03-2.65.5-5.11,2.08-8.33,3.48,4.2-7,10.35-8.51,17.33-8.87-.15-1.69-.27-3.06-.42-4.73-11.88.46-23.34.85-34.8,1.35-4.98.22-9.97.5-14.92,1.02-10.9,1.15-21.79,2.33-32.65,3.76-7.72,1.01-15.42,2.33-23.08,3.73-4.25.78-4.28.98-4.28,5.06-.02,31.46-1.06,62.94,1.95,94.33,1.35,14.05,2.36,28.14,4.23,42.12,1.72,12.9,5.55,25.26,12.16,36.65,9.39,16.19,21.58,29.98,36.1,41.65,14.06,11.3,29.13,21.03,46.08,27.52,2.85,1.09,5.91,1.64,8.7,2.39.52-.99.81-1.27.81-1.56.02-11.66.01-23.32.01-34.98,8.97-.33,17.94-.66,26.91-.99,5.24-.19,9.66-2.13,11.45-7.27,1.78-5.1,1.2-10.2-2.55-14.5-.63-.72-1.58-1.17-2.76-2.01,1.76,7.8.33,10.93-5.46,12.87-1.1.37-2.24.83-3.37.84-6.9.08-13.81.04-21.9.04,8.66-5.66,13.49-11.97,8.94-22,1.61-.33,3.04-.63,4.47-.9,6.84-1.29,12.61-4.37,16.21-10.51,2-3.41,3.64-7.09,5.03-10.8,1.28-3.41,1.89-7.05,3-10.53.97-3.03,2.24-5.96,5.42-7.42,2.56-1.17,5.13-2.34,7.7-3.51,1.86-.85,3.23-.56,3.84,1.59.19.67.4,1.33.61,1.99.32.03.63.06.95.09,1.17-2.57,2.34-5.15,3.6-7.93,1.23,1.18,2.23,2.14,3.72,3.56,1.07-2.91,1.94-5.27,2.92-7.94,1.51,1.17,2.65,2.06,4.21,3.27.57-2.65,1.08-5,1.66-7.72,1.15.97,2.16,1.82,3.71,3.12.77-3.08,1.36-5.44,2.01-8.02.95.61,1.83,1.18,3.53,2.27-.12-7.24,3.27-12.5,6.99-17.67-.66,5.97-1.81,11.82-2.74,17.7-.46,2.9-1.3,5.08-4.91,4.47q2.08,5.71-.71,7.43c.12,2.16.49,4.13.16,5.97-.1.54-2.2.71-3.38,1.05,1.73,6.01,1.5,6.82-2.16,7.39,1.68,3.99,1.05,7.77-1.14,11.36-2.07,3.41-3.97,6.94-6.29,10.17-2.66,3.7-6.08,6.57-10.7,7.74-4.46,1.13-8.81-.57-11.06-4.5-3.22-5.63-1.09-11.52,5.33-14.83,1.71-.88,3.58-1.69,5.05-.12,1.02,1.1,1.86,2.83,1.88,4.29.03,2.33-2.08,2.72-3.98,2.8-2.25.09-3.45,1.13-3.35,3.39.09,2.02,2.35,3.72,4.74,3.31,3.99-.68,7.34-2.63,8.77-6.57,1.66-4.57-.12-8.4-3.38-11.73-2.94-3-6.5-4.65-10.36-2.82-5.47,2.6-10.11,6.41-12.67,12.2-1.34,3.02-1.68,6.23-.43,9.24,5.26,12.69,15.89,17.54,27.95,9.43,2.3-1.54,4.42-2.47,7.27-2.2,4.4.41,7.96-1.23,10.44-5.51-2.61-.34-4.77-.61-7.23-.93,3.1-6.06,5.79-11.55,8.75-16.9.51-.92,2.05-1.39,3.21-1.83,4.7-1.77,7.23-5.06,7.34-9.73-2.29.3-4.21,3-7.02,1.08,1.22-4.88,2.73-9.65,3.51-14.53.48-3.01,1.69-4.56,4.42-5.81,4.31-1.99,6.01-5.67,5.24-9.52-2.03.58-4.08,1.17-6.88,1.97.59-5.78,1.22-10.53,1.51-15.3.16-2.75,1.07-4.53,3.55-5.99,4.07-2.39,5.47-6.09,4.72-10.79-.59.42-1.11.81-1.66,1.17-.7.45-1.37.97-2.13,1.29-2.35.99-3.27.21-3.11-2.43.26-4.31.58-8.63.62-12.95.02-2.5.46-4.18,2.96-5.61,4.27-2.44,5.62-6.46,4.4-10.65-1.84.95-3.69,1.9-6.16,3.18-.46-6.25-.78-11.83-1.32-17.38-.25-2.67.22-4.7,2.41-6.58,3.06-2.63,3.86-6.21,3.08-10.66-2.17,1.68-3.91,3.04-6.16,4.79-.53-1.73-.95-2.75-1.14-3.81-.75-4.08-1.23-8.21-2.18-12.24-.88-3.73-2.26-7.34-5.65-9.67-.41-.25-.82-.51-1.23-.76ZM245.88,292.96c.33-.33.67-.66,1-1,.34-.33.68-.65,1.02-.98,1.08-.86,2.15-1.72,3.25-2.6-1.71-2.83-3.75-3.77-6.66-3.25-.87,1.35-.36,4.21-3.37,3.67-.45-.54-.9-1.09-1.35-1.63-.2.19-.6.51-.58.55.4.61.86,1.18,1.31,1.75.91,1.63,2.13,1.83,3.56.71,1.09-.85,2.12-1.76,3.62-3.02.11,1.74.18,2.8.25,3.86-.33.34-.66.68-.98,1.01-.33.34-.66.67-1,1.01-.42.26-.83.51-1.25.77-2.82-.78-5.65-1.57-8.53-2.37,1.55,3.19,5.83,4.42,8.78,2.6.31-.36.61-.72.92-1.09ZM277.75,235.84c-1.21.84-2.46,1.63-3.62,2.53-15.29,11.88-31.2,22.63-49.68,29.15-6.46,2.28-12.35,2.3-18.8-.02-18.91-6.8-35.26-17.77-50.82-30.15-1.1-.87-2.22-1.7-4.16-3.19,3.9,13.39.53,24.84-5.09,35.92,46.4,9.85,92.32,9.95,138.71-.08-5.72-10.62-8.42-21.72-6.02-33.65.11-.36.22-.73.33-1.09-.28.19-.56.38-.84.57ZM166.79,310.72c-2.97-3.07-1.26-4.72.22-6.2,1.83-1.82,2.59-3.63,1.64-6.26-.44-1.21.06-2.79.23-4.19.16-1.3.89-2.71.59-3.86-1.13-4.33-.62-8.22,2.76-11.98-17.3-2.76-34.07-5.44-50.91-8.13-.18.9-.49,1.48-.33,1.82,3.06,6.28,1.8,12.65.62,19.07-.61,3.3-.9,6.66-1.34,10-.38.06-.77.12-1.15.17-.43-1.44-1.22-2.88-1.22-4.32,0-3.48.38-6.96.6-10.44.19-2.98.73-6,.47-8.94-.42-4.77-3.01-9.35-8.96-9.59-1.97-.08-3.94-.65-5.85-1.21-11.05-3.25-22.38-3.11-33.69-2.59-2.93.13-5.93,1.01-8.68,2.08-3.84,1.49-6.18,4.28-6.11,8.78.05,3.15-.48,6.3-.53,9.46-.09,5.8-.03,11.61-.03,17.62,14.68-4.88,29.54-4.37,44.42-2.72.79-7.21,1.48-13.8,2.27-20.38.08-.66.73-1.26,1.12-1.89.61.61,1.73,1.22,1.74,1.83.03,3.99-.16,7.97-.34,11.96-.14,2.96-.37,5.92-.57,8.93,1.13.43,1.86.82,2.64,1,9.4,2.1,18.78,4.39,28.24,6.2,10.6,2.03,21.27,3.73,31.95,5.33,3.87.58,4.83-1.25,2.88-6.41-.99,1.83-1.76,3.24-2.64,4.87ZM374.93,302c0-1.64.04-3.1,0-4.55-.25-7.31-.71-14.62-.72-21.93,0-5.11-2.4-8.26-7.01-9.64-3.31-.99-6.78-1.62-10.22-1.95-15.32-1.46-30.04,2.48-44.85,5.39-.87.17-1.85.75-2.4,1.44-1.24,1.56-2.25,3.31-3.78,5.62,5.2-1.54,6.67,1.81,7.63,5.66,2.07-.94,3.68-1.68,5.35-2.45-.42-2.38-.89-4.47-1.09-6.59-.06-.62.66-1.32,1.03-1.98.63.4,1.55.65,1.83,1.22.58,1.17.98,2.49,1.15,3.79.28,2.23,1.27,3.32,3.6,3.02.65-.08,1.42-.17,1.97.1.64.32,1.49.98,1.54,1.55.05.61-.58,1.62-1.16,1.87-1.16.5-2.5.59-4.27.96.81,5.56,1.59,10.9,2.42,16.63,16.52-2.73,32.65-3.25,48.99,1.83ZM254.88,313.29c19.44-1.59,38.7-5.6,58.43-10.59-.59-2.27-1.09-4.16-1.52-5.83-3.39-.12-5.72,3.41-9.13.68,1.47-.91,2.59-1.6,3.98-2.46-2.53-.15-4.65-.28-6.77-.4l-.13-1.37c1.63-.63,3.27-1.25,5.28-2.02-1.85-.26-3.25-.46-4.98-.71.51-.71.7-1.15,1.05-1.41.42-.32.96-.47,1.77-.85-6.8-1.7-7.83-6.04-3.18-11.87-.92-.37-2.25-.47-2.65-1.13-1.99-3.3-4.93-2.64-7.85-2.18-5.9.93-11.79,2-17.7,2.83-8.06,1.14-16.14,2.09-24.21,3.16-1.27.17-2.79.21-2.45,2.36.62.14,1.25.31,1.88.42,6.13,1.07,10.43,6.18,10.13,12.22-.04.79-.85,1.55-1.3,2.32-.6-.6-1.34-1.11-1.76-1.81-.46-.77-.62-1.72-1.1-3.14-1.76,1.84-3.24,3.17-4.43,4.74-.48.64-.69,1.95-.37,2.65,2.12,4.62,4.43,9.16,7,14.39ZM174.13,309.79c-.03,3.07-.05,3.16,1.4,3.48,1.46.32,2.95.6,4.44.63,17.96.36,35.91.69,53.87.95,1.72.02,3.44-.48,4.74-.68.72-4.43,1.18-8.21,1.99-11.92.82-3.76.86-3.99-2.9-5.27-.73-.25-1.55-.23-1.98-.29-1,1.3-1.74,2.27-2.49,3.24-.7-1.16-1.89-2.26-2.02-3.48-.61-5.51,2.3-10.7,6.91-13.15.73-.39,1.19-1.3,1.77-1.96-.93-.4-1.87-1.15-2.8-1.14-12.8.14-25.59.42-38.39.56-2.59.03-5.18-.36-8.21-.58,2.23,6.78-.61,12.57-1.73,18.53-.54,2.88-3.29,4.39-6.59,4.02-1.62-.18-3.17-.94-4.79-1.27-.77-.16-1.61.08-3.31.19,1.43,1.27,2.29,1.79,2.79,2.55.93,1.43,2.54,3.17,2.28,4.47-.53,2.72-3.06.56-4.97,1.15ZM51.59,285.79c-8.32-1.26-16.3-2.82-24.36-3.55-4.72-.43-9.65.02-14.34.87-6.02,1.1-8.72,4.66-8.99,10.84-.26,5.98-.29,11.97-.36,17.95-.01,1.07.29,2.14.49,3.56,6.18-3.01,12.37-3.72,18.76-3.07,10.1,1.02,19.96,3.17,29.72,5.92,4.94,1.39,9.97,2.62,15.04,3.3,3.01.4,6.27-.1,9.25-.85,1.02-.26,2-2.5,2.14-3.91.2-2.05-1.8-2.04-3.26-2.08-2.16-.07-4.32.04-6.48.06-3.32.03-6.67.28-9.97.01-4.47-.37-6.87-2.54-7.19-6.84-.42-5.44-.34-10.92-.45-16.39-.03-1.64,0-3.28,0-5.82ZM378.02,286.25c0,6.67.25,12.96-.06,19.22-.38,7.59-2.61,9.49-10.33,9.52-4.32.02-8.64-.26-12.96-.25-1.55,0-3.59-.3-3.88,2.08-.28,2.32.84,3.86,3.1,4.42,1.43.35,2.95.78,4.38.67,3.3-.27,6.62-.62,9.84-1.34,10.03-2.23,19.96-4.91,30.04-6.89,6.81-1.34,13.78-2.46,20.75-.66,2.32.6,4.59,1.42,7.17,2.23,0-6.36-.1-12.31.02-18.27.26-12.45-5.88-13.45-13.49-14.81-1.3-.23-2.65-.16-3.98-.17-10.2-.09-20.11,1.93-30.58,4.25ZM82.97,301.88c.3,3.81.9,7.12.74,10.39-.58,11.52-4.74,13.33-13.42,12.91-2.64-.13-5.32-.4-7.9-.96-5.19-1.13-10.35-2.42-15.49-3.78-10.32-2.72-20.73-5-31.48-4.45-2.73.14-5.69.81-8.03,2.15-4.28,2.44-4.59,6.79-.72,9.8,2.7,2.1,5.9,3.79,9.15,4.9,8.46,2.91,17.31,2.81,26.14,2.51,20.33-.69,39.35-6.12,57.12-15.9,6.33-3.48,12.55-7.23,18.2-12.81-11.59-2.57-22.52-5.1-34.32-4.75ZM312.34,306.57c1.21,1.12,1.74,1.69,2.36,2.16,26.66,20.54,56.86,28.97,90.25,26.14,6.31-.53,12.48-2.25,17.62-6.33,4.69-3.71,3.99-8.93-1.52-11.33-1.5-.65-3.2-1.14-4.81-1.15-4.48-.03-9.08-.33-13.43.49-10.43,1.98-20.71,4.75-31.13,6.79-5.34,1.05-10.85,1.58-16.29,1.66-4.79.07-7.52-2.35-8.35-7.01-.66-3.71-.58-7.57-.65-11.37-.03-1.42.42-2.84.72-4.66-11.81-.62-22.75,2.21-34.75,4.6ZM329.91,262.35c-8.69-8.76-11.67-18.63-12.77-29.81-3.06,3.26-5.51,5.88-8.33,8.89-1.36-1.7-2.35-2.98-3.37-4.22-2.78-3.38-5.84-6.41-10.17-7.75-5.76-1.78-11.93,1.24-13.18,6.36-2.99,12.24.22,23.27,6.33,34.15,13.49-2.48,26.83-4.92,41.5-7.61ZM100.39,261.96c13.99,3.73,27.58,5.41,41.15,7.87,1.18-2.33,2.38-4.33,3.24-6.46,3.33-8.27,5.47-16.71,3.16-25.7-2.12-8.25-9.2-11.35-16.43-6.76-2.87,1.83-5.13,4.62-7.63,7.03-1.01.98-1.91,2.08-3.09,3.39-2.78-3.01-5.16-5.6-8.35-9.06-.59,11.67-4.02,21.16-12.05,29.7ZM140.84,225.23c-7.73-10.14-14.7-19.39-21.84-28.52-.78-1-2.46-1.7-3.79-1.82-7.51-.67-13.61,2.33-18.52,7.83-2.3,2.57-2.17,3.21.13,5.87,6.08,7.04,12.16,14.08,18.28,21.08,1.81,2.07,3.74,4.02,5.77,6.21,5.29-6.05,10.64-10.94,19.97-10.65ZM309.12,236.03c8.55-9.82,16.7-19.21,24.91-28.56,1.58-1.8.39-3.17-.59-4.39-3.71-4.57-8.58-7.25-14.37-8.18-4.4-.71-7.74.35-10.55,4.46-5.34,7.8-11.38,15.12-17.1,22.66-.62.82-1.03,1.81-1.78,3.19,8.71-.28,14.03,4.66,19.48,10.82ZM350.02,311.53c5.06,0,9.84.05,14.62-.02,2.3-.03,4.65-.03,6.87-.53,1.01-.23,2.32-1.57,2.45-2.55.13-1-.78-2.45-1.66-3.19-.95-.8-2.37-1.18-3.64-1.45-3.08-.63-6.18-1.19-9.29-1.6-8.87-1.16-9.95-.08-9.34,9.33ZM80.17,311.5c-.12-2.15-.08-3.98-.36-5.75-.54-3.42-1.15-4.07-4.49-3.77-4.78.42-9.53,1.17-14.27,1.89-1.12.17-2.43.48-3.2,1.2-.96.91-1.95,2.32-1.95,3.52,0,.85,1.51,2.21,2.54,2.43,2.22.47,4.57.44,6.87.47,4.76.06,9.53.02,14.86.02ZM176.28,278.69c2.48,3.44,2.44,6.16,1.8,9.25-.78,3.73-.82,7.69,2.17,10.82,2.13,2.22,4.21,1.83,5.41-.94,1.11-2.57-.26-3.62-2.46-4.35-1.26-.42-2.79-1.12-1.96-2.77.35-.7,2-1.34,2.79-1.11,2.66.78,2.88-.94,2.99-2.63.15-2.25.04-4.51.04-7.25-3.09-.3-6.45-.62-10.78-1.03ZM317.21,301.22c.72,0,1.05.03,1.38,0q4.11-.47,3.64-4.36c-.28-2.29-.47-4.6-.89-6.86-.94-5.07-.99-5.13-6.36-4.82-1.9.11-3.78.68-6.51,1.2,8.08,2.59,6.44,9.63,8.75,14.85ZM159.04,124.88c-.06-4.35-3.17-7.12-7.86-7-4.37.11-7.31,2.96-7.33,7.09-.02,4.12,3.38,7.45,7.69,7.54,4.05.09,7.55-3.49,7.5-7.63ZM242.27,313.76h8.17c-1.59-4.4-1.37-9-6.27-12.52-.71,4.73-1.27,8.42-1.89,12.52ZM173.49,292.41c-1.13,1.92-2.31,3.1-2.06,3.68.57,1.35,1.82,2.4,2.8,3.58.53-.75,1.6-1.61,1.48-2.23-.28-1.43-1.15-2.74-2.21-5.03ZM174.61,288.26c.67-1.66,1.38-2.62,1.31-3.52-.06-.69-1.1-1.31-1.7-1.96-.64.77-1.79,1.55-1.78,2.31,0,.84,1.08,1.67,2.17,3.16ZM310.02,283.39c-.58-.44-1-.97-1.26-.91-.55.14-1.02.6-1.52.93.37.37.77,1.07,1.11,1.04.52-.05.99-.59,1.67-1.06ZM302.29,283.66c-.49.38-.82.63-1.14.88.26.32.48.87.78.91.3.04.82-.35.96-.68.09-.21-.33-.64-.6-1.12ZM303.13,280.03c-.57-.31-.99-.72-1.24-.63-.34.12-.56.61-.83.94.33.23.67.64.99.62.31-.02.6-.49,1.08-.93ZM308.31,278.88c-.64-.32-.97-.6-1.33-.63-.21-.02-.68.44-.64.53.15.37.41.89.7.94.29.05.66-.41,1.28-.84ZM298.29,272.1c1.33.53,1.7.75,2.1.8.12.01.47-.53.41-.66-.17-.33-.49-.76-.79-.79-.38-.04-.8.28-1.71.65ZM305.63,270.54l-.29-.19-.04.3.33-.11Z"/><path class="cls-4" d="M780.75,84.87h21.91c0,6.47-.02,12.43.01,18.38.01,2.1-1.26,2.43-2.94,2.42-4.33-.02-8.66,0-13,0-1.81,0-3.62,0-5.86,0v10.43h21.51v20.49c-13.8.56-27.69-.14-42.18.12v-26.24c-.3-.12-.59-.25-.89-.37-7.19,19.69-21.45,29.89-41.93,30.48-20.66.6-35.16-9.19-43.92-28.33v24.42c-6.79,0-12.91.01-19.03,0-2.14,0-2.22-1.54-2.22-3.13.02-4.83,0-9.66,0-14.49,0-8.5,0-16.99,0-25.49,0-1.42-.13-2.84-.24-5.19-3.31,3.89-4.94,7.63-6.27,11.52-3.55,10.33-4.94,21.01-5.1,31.89-.07,4.9-.12,4.92-4.98,4.93-5,0-10-.01-14.99-.04-.31,0-.63-.15-1.4-.35-1.06-16.26-1.43-32.91-10.93-47.26-.38.04-.76.08-1.14.13v47.24h-20.73V51.42c4.58-.7,8.79.76,12.84,2.56,10.14,4.52,17.33,12.29,22.74,21.71,2.93,5.11,5.19,10.61,7.89,16.24,5.38-15.01,13.09-28.38,27.49-36.56,4.65-2.64,9.64-4.42,15.83-4.05.43,7.56-.07,15.09.34,23.76,12.38-22,30.05-31.07,53.53-25.4,15.11,3.65,25.33,13.75,30.63,29.35-2.02.22-3.27.45-4.52.47-3.33.05-6.68-.2-9.99.07-5.04.42-8.84-.85-12.75-4.63-9.59-9.27-26.43-6.81-34.67,4.67-6.16,8.6-6.9,17.94-1.71,27.27,4.96,8.93,12.89,13.44,23.07,12.97,9.28-.43,16.17-5.19,21.25-14.11h-25.65v-20.86h47.16v-32.04c1.27-.22,2.21-.52,3.15-.53,11.83-.03,23.66-.04,35.49,0,4.05.01,4.08.08,4.12,4.23.04,4.33.04,8.66,0,13-.04,4.01-.08,4.04-4.27,4.08-5.16.04-10.33.01-15.49.04-.63,0-1.26.19-2.14.34v10.88Z"/><path class="cls-4" d="M869.41,136.48h-21.24c-2.64-14.1-8.24-26.99-18.32-37.95v37.85h-22.08V52.37c2.34.86,4.38,1.37,6.19,2.32,10.86,5.66,19.14,14.31,26.9,23.53,2.12,2.52,4.11,5.14,6.94,8.69v-34.32h21.61v83.9Z"/><path class="cls-4" d="M581.15,136.54h-20.72v-20.8c-5.04,0-9.47,0-13.9,0-3.16,0-6.35.24-9.48-.07-3.03-.3-4,1.05-4.64,3.73-1.38,5.79-3.1,11.49-4.69,17.29h-21.82c2.06-6.66,3.93-12.96,5.97-19.21,4.45-13.63,10.03-26.77,17.87-38.84,6.85-10.55,15.56-19.03,27.19-24.18,7.53-3.34,15.19-4.3,24.22-3.15v85.24ZM560.04,77.03c-6.19,3.79-13.9,12.4-16.85,18.61h16.85v-18.61Z"/><path class="cls-4" d="M1146.66,172.12c-212.3,0-424.61,0-636.91,0-1.5,0-3-.01-4.5,0-1.24.01-2.59-.06-2.21-1.75.14-.62,1.21-1.25,1.98-1.46.93-.25,1.98-.07,2.98-.07,425.94,0,851.88,0,1277.82,0,1,0,2.05-.19,2.98.07.76.21,1.84.84,1.98,1.46.37,1.68-.97,1.76-2.21,1.75-1.33-.01-2.67,0-4,0-212.64,0-425.27,0-637.91,0Z"/><path class="cls-5" d="M969.31,91.6c.27.22.5.52.79.61,10.11,3.03,12.65,10.9,12.68,20.17.03,9.39-4.23,16.36-12.97,19.96-3.45,1.42-7.34,2.28-11.07,2.42-9.3.34-18.62.11-28.26.11-.19-1.16-.51-2.25-.51-3.33-.03-24.63-.03-49.25-.01-73.88,0-4.13.11-4.38,3.57-4.33,9.8.13,19.63.04,29.38.79,7.57.59,13.92,4.18,16.02,12.09,2.11,7.97,2.19,15.91-4.74,22.08-1.45,1.29-3.23,2.21-4.87,3.31ZM944.01,124.93c4.95,0,9.58.26,14.17-.07,5.8-.41,9.16-3.32,10.31-9.1,1.81-9.03-.26-16.83-10.45-18.5-4.48-.74-9.18-.12-14.03-.12v27.79ZM944.16,62.92v24.94c3.37,0,6.35.06,9.32-.01,9.63-.22,14.74-7.04,12.57-16.45-.94-4.08-3.45-6.6-7.3-7.24-4.69-.78-9.5-.85-14.6-1.25Z"/><path class="cls-5" d="M1312.14,123.96h32.34v10.6h-45.75c-.98-3.16-1.28-74.5-.23-81.05.89-.07,1.85-.2,2.81-.2,12.65-.01,25.3-.03,37.95,0,4.45.01,4.47.07,4.52,4.4.03,2.14,0,4.28,0,7.01h-31.7v22.14h29.4v11.06h-29.35v26.04Z"/><path class="cls-5" d="M1404.44,74.04h11.83c.22,1.6.42,3.04.68,4.92,1.6-1.48,2.85-2.95,4.37-4,8.69-6.01,20.68-3.07,25.55,6.52,1.7,3.34,2.88,7.14,3.38,10.86,1.27,9.41,1.66,18.9-.85,28.21-.73,2.7-1.99,5.28-3.26,7.79-5.24,10.25-22.13,10.27-27.25,2.39-.36-.55-.45-1.29-.66-1.93l-1.26.86v24.97h-12.54v-80.58ZM1438.23,104.65c-.17-.02-.33-.05-.5-.07,0-1.16.17-2.36-.03-3.49-.83-4.71-1.38-9.52-2.77-14.06-1.85-6.07-11.52-7.31-15.34-1.2-1.04,1.66-1.91,3.59-2.22,5.49-1.52,9.24-1.64,18.5.55,27.66,1.15,4.83,4.64,7.77,9.17,7.67,3.93-.08,7.56-1.78,8.81-7.32,1.09-4.83,1.58-9.79,2.33-14.69Z"/><path class="cls-5" d="M1256.89,134.81h-12.67c-.11-1.52-.3-2.95-.3-4.37-.02-12-.01-23.99-.02-35.99,0-1.33.05-2.67-.05-4-.36-4.74-2.3-7.45-5.85-8.31-4.25-1.02-8.92.53-10.77,4.37-1.32,2.74-2.11,5.99-2.17,9.04-.25,11.33-.1,22.66-.1,33.99,0,1.62,0,3.25,0,5.13h-12.57c-.12-1.31-.33-2.58-.33-3.86-.02-24.16-.02-48.32,0-72.48,0-4.99.03-5,4.9-5.03,2.47-.02,4.94,0,7.85,0v26c3.63-2.25,6.72-5.01,10.32-6.14,3.47-1.1,7.62-1.23,11.22-.53,6.85,1.34,10.38,6.51,10.49,14.38.15,10.83.05,21.66.06,32.49,0,4.96,0,9.92,0,15.31Z"/><path class="cls-5" d="M1646.25,79.03c1.47-1.26,2.73-2.57,4.2-3.56,5.1-3.43,10.79-4.29,16.7-3.06,6.5,1.35,10.2,5.83,10.63,12.67.24,3.81.12,7.65.12,11.48.01,10.98,0,21.97,0,32.95,0,1.62,0,3.24,0,5.13h-12.61c-.1-1.5-.28-2.94-.28-4.37-.02-11.82-.01-23.63-.02-35.45,0-1.33.01-2.67-.07-3.99-.36-5.95-2.83-8.69-7.94-8.86-5.28-.17-9.43,3.11-10.19,8.23-.27,1.8-.23,3.65-.23,5.48-.02,11.48,0,22.97-.02,34.45-.01,4.74-.06,4.75-4.65,4.79-2.66.02-5.31,0-8.37,0-.15-1.44-.39-2.69-.39-3.95-.02-17.64-.03-35.28,0-52.93,0-4.63.04-4.63,4.74-4.69.5,0,1,0,1.5,0q5.91,0,6.88,5.66Z"/><path class="cls-5" d="M1116.61,105.98c.59,5.09.69,9.44,1.68,13.58,1.67,7.01,7.23,9.95,13.11,7.54,3.31-1.36,4.55-4.23,5.5-7.28.54-1.72.79-3.53,1.21-5.48h11c2.24,9.23-5.18,19.95-15.21,21.42-4.24.62-8.69.6-12.95.06-6.91-.87-11.4-5.31-13.77-11.65-3.09-8.24-3.7-16.87-2.78-25.56.42-3.94,1.16-7.9,2.26-11.71,2.32-8.07,7.72-13.2,16.07-14.5,3.72-.58,7.7-.53,11.41.1,8.21,1.4,13.45,6.41,14.87,14.71.87,5.05,1.06,10.23,1.53,15.35.24,2.57-.94,3.5-3.53,3.46-8.16-.12-16.33-.04-24.5-.04-1.63,0-3.26,0-5.9,0ZM1137.21,96.98c-.15-3.24.08-6.1-.51-8.78-.76-3.51-2.57-6.5-6.6-7.28-4.43-.85-8.51.53-10.42,4.06-1.97,3.63-2.98,7.59-2.33,12.01h19.85Z"/><path class="cls-5" d="M1504.36,114.12c.96,12.05-7.18,21.48-18.49,21.99-1.33.06-2.67,0-4,.07-12.43.65-18.57-5.66-21.21-16.18-2.63-10.48-2.6-21.15.36-31.57,4.26-15,21.41-21.46,34.87-13.42,5.88,3.51,7.96,9.32,8.68,15.53.57,4.89.11,9.9.11,15.25h-32.22c-1.2,5.66-.46,10.86,1.32,15.83,1.63,4.54,5.52,6.75,9.69,6.26,4.03-.47,7.29-3.65,8.36-8.16q1.33-5.6,7.21-5.59c1.78,0,3.57,0,5.3,0ZM1491.87,96.99c.27-5.99.79-11.7-4.74-15.14-3.08-1.91-6.86-1.9-9.87.34-4.91,3.65-5.38,9-5.2,14.8h19.81Z"/><path class="cls-5" d="M1787.16,106.1h-33.2c-.49,5.31-.59,10.23,1.08,15.01,1.6,4.57,4.94,6.89,9.38,6.8,3.74-.08,6.95-2.5,8.41-6.68.75-2.15,1.11-4.44,1.69-6.88h10.78c2.36,9.84-5.4,20.39-16.06,21.58-3.75.42-7.63.41-11.38-.01-5.82-.65-10.37-3.78-12.9-9.06-1.7-3.55-3.29-7.42-3.69-11.27-.92-8.76-1.31-17.65.92-26.3,3.69-14.33,14.33-19.28,28.3-16.75,9.25,1.67,14.18,7.16,15.35,16.53.67,5.38.86,10.83,1.32,17.03ZM1773.82,96.99c0-1.96.12-3.44-.03-4.89-.15-1.47-.48-2.95-.88-4.38-1.23-4.48-3.78-6.66-7.99-6.92-4.79-.3-7.81,1.35-9.61,5.5-1.46,3.36-2.12,6.86-1.2,10.69h19.7Z"/><path class="cls-5" d="M1622.76,105.98h-32.39c-.97,5.24-.6,10.13.99,14.89,1.54,4.6,4.97,7.1,9.2,7.03,4.24-.07,7.96-3.22,9.18-7.86.25-.96.32-1.97.37-2.97.11-1.97.89-3.06,3.08-2.98,2.97.11,5.95.03,9.29.03.55,6.06-1.55,10.88-4.81,15.4-6.21,8.61-28.57,9.78-35.26-.56-3-4.63-4.49-9.72-5.04-14.96-.87-8.26-.79-16.54,1.32-24.76,3.68-14.33,13.61-18.61,26.8-16.98,10.51,1.29,16.35,8.07,17.22,19.42.35,4.46.06,8.98.06,14.31ZM1590.25,97.19c3.57,0,6.71.02,9.86,0,3.24-.02,6.47-.09,10.24-.14-.43-3.66-.46-6.67-1.2-9.49-1.21-4.61-3.86-6.59-8.04-6.76-4.73-.2-7.55,1.44-9.42,5.76-1.39,3.2-2.2,6.54-1.43,10.64Z"/><path class="cls-5" d="M1015.68,102.78c.68-4.41,1.1-9.74,2.38-14.85,2.24-8.88,7.98-14.66,17.27-15.6,4.52-.46,9.34.03,13.76,1.14,5.84,1.46,9.68,5.84,11.61,11.48,4.35,12.66,4.42,25.46-.04,38.09-2.99,8.46-9.73,12.9-18.69,13.1-.33,0-.67,0-1,.02-14.98,1.08-21.21-7.67-23.81-19.6-.91-4.19-.95-8.56-1.49-13.77ZM1028.67,104.37c.43,4.55.68,9.03,1.32,13.45.95,6.56,4.62,9.59,10.76,9.26,4.96-.27,8.38-3.22,8.98-8.98.72-6.92.96-13.91.89-20.87-.03-3.24-.98-6.57-2.03-9.68-1.25-3.7-3.89-6.14-8.06-6.39-4.37-.27-7.32,1.83-9.05,5.68-.73,1.64-1.29,3.43-1.53,5.2-.55,4.1-.86,8.23-1.27,12.32Z"/><path class="cls-5" d="M1397.08,73.83c-4.8,8.56-8.96,16.32-13.48,23.85-2.14,3.57-2.82,6.45-.4,10.36,4.36,7.05,8.06,14.52,12.01,21.83.76,1.4,1.37,2.87,2.41,5.06-4.47,0-8.08-.07-11.69.03-2.17.06-2.75-1.48-3.49-2.97-2.35-4.77-4.7-9.54-7.07-14.3-.65-1.3-1.4-2.55-2.54-4.62-1.27,2.45-2.24,4.27-3.16,6.11-2.23,4.46-4.49,8.9-6.64,13.4-.71,1.49-1.55,2.43-3.36,2.38-3.47-.08-6.94-.02-11.34-.02,1.04-2.21,1.69-3.8,2.51-5.31,4.28-7.89,8.5-15.8,12.95-23.59,1.24-2.17,1.28-3.75,0-5.92-3.87-6.59-7.49-13.32-11.19-20.01-1.02-1.84-1.96-3.73-3.3-6.28,4.47,0,8.11.1,11.73-.04,2.13-.08,2.87,1.25,3.63,2.78,2.56,5.2,5.13,10.4,7.97,16.15.98-1.22,1.8-1.95,2.27-2.86,2.25-4.26,4.51-8.53,6.54-12.89,1.04-2.23,2.32-3.35,4.92-3.19,3.3.21,6.62.05,10.71.05Z"/><path class="cls-5" d="M1203.67,112.17c-.46,5.61-1.04,10.49-3.48,14.97-1.81,3.32-4.23,6.31-7.81,7.36-14.07,4.16-29.16,2.38-33.12-16.51-1.89-9.04-1.86-18.19-.02-27.24,2.96-14.53,12.83-21.37,29.46-17.91,9.8,2.04,15.49,10.39,14.68,20.86h-12.08c-.43-1.89-.81-3.97-1.39-5.99-1.08-3.77-3.89-6.21-7.32-6.54-3.75-.36-7.32,1.44-8.82,5.2-1.21,3.04-1.98,6.34-2.37,9.59-.97,8.13-.84,16.27,1.54,24.19,1.11,3.7,3.31,6.5,7.6,6.9,5.57.52,9.24-2.43,10.31-8.41.35-1.93-.01-4.87,1.09-5.58,1.7-1.1,4.38-.73,6.65-.88,1.47-.1,2.95-.02,5.07-.02Z"/><path class="cls-5" d="M1732.89,93.74h-12.24c-.6-2.43-1.03-4.85-1.79-7.16-1.19-3.57-3.92-5.36-7.59-5.37-3.57-.01-6.49,1.53-8.03,4.9-.75,1.64-1.33,3.42-1.62,5.2-1.49,9.25-1.54,18.53.38,27.72.39,1.87,1.38,3.82,2.64,5.25,4.38,4.99,12.17,3.59,14.58-2.64,1.06-2.75,1.4-5.77,2.16-9.09h10.87c2.38,12.69-6.13,23.35-18.82,23.58-1.66.03-3.33.04-4.99,0-8.75-.23-15.28-4.76-18.23-13-2.37-6.63-3-13.6-2.51-20.57.38-5.43.91-10.96,2.35-16.17,2.5-9.06,9.31-13.91,18.77-14.35,6.99-.32,13.69.34,18.77,5.97,3.97,4.4,5.62,9.57,5.29,15.74Z"/><path class="cls-5" d="M1076.11,82.88h-7.93c-.37-.81-.71-1.25-.77-1.71-.94-7.24-.66-7.57,6.46-7.83.49-.02.98-.14,2-.29v-16.53h13.19c0,4.22-.02,8.33,0,12.44.02,4.67.04,4.61,4.51,4.46,1.93-.07,3.88.17,5.94.28v9.25c-2.36,0-4.48-.04-6.6,0-3.63.09-3.81.15-3.83,3.57-.07,10.48-.09,20.97,0,31.45.05,6.43,1.16,7.39,7.7,7.35.8,0,1.6,0,2.72,0,.1,1.68.22,3.12.26,4.56.04,1.46,0,2.92,0,4.61-5.46.87-10.44,1.9-15.62.67-4.01-.95-6.5-3.25-7.17-7.3-.43-2.61-.81-5.26-.83-7.9-.09-10.48-.04-20.97-.04-31.45v-5.63Z"/><path class="cls-3" d="M1784.62,269.55h-7.11c-.12-1.29-.34-2.56-.35-3.83-.03-8.66.03-17.33-.03-25.99-.05-6.05-1.71-8.1-6.29-8.18-5.48-.1-8.9,2.97-8.97,8.44-.12,9.66-.03,19.31-.03,29.37h-7.97v-6.25c0-7,0-13.99,0-20.99,0-1,.04-2-.01-3-.29-5.36-2.19-7.53-6.57-7.57-5.27-.05-8.55,2.51-8.71,7.52-.25,8.16-.1,16.32-.12,24.49,0,1.8,0,3.61,0,5.81h-7.93v-42.57q6.62-1.21,7.9,2.9c9.97-6.51,16.38-6.16,22.28,1.4,3.48-3.51,7.34-6.17,12.64-5.89,7.55.41,11.7,4.16,11.78,10.81.12,10.82.08,21.63.08,32.45,0,.29-.3.57-.58,1.07Z"/><path class="cls-3" d="M845.28,212.63c8.17,0,16.16-.61,24.01.16,8.56.84,13.62,6.48,15.29,14.88,1.64,8.24,1.75,16.54,0,24.79-2.21,10.41-7.98,16.08-18.19,16.95-6.9.59-13.88.11-21.11.11v-56.89ZM853.45,264.01c4.04-.27,7.5-.45,10.95-.76,6.12-.55,9.7-4.39,11.14-9.9,2.18-8.3,2.2-16.81.2-25.17-1.25-5.24-4.53-8.86-10.23-9.53-2.63-.31-5.28-.5-7.93-.53-4.42-.05-4.47.03-4.48,4.32-.03,12.47-.02,24.93,0,37.4,0,1.12.17,2.25.33,4.16Z"/><path class="cls-3" d="M547.21,226.82h-7.52c-.26-.24-.46-.34-.49-.47-1.74-8.18-6.61-11.03-14.5-8.63-3.35,1.02-5.55,2.93-6.05,6.49-.52,3.69.06,7.12,3.41,9.27,1.93,1.24,4.16,2.05,6.33,2.84,4.21,1.54,8.52,2.78,12.7,4.4,11.64,4.51,9.74,21.71,1.58,26.34-8.6,4.88-17.46,5.18-26.31,1.15-5.37-2.44-7.62-8.27-7.22-16.65,1.22-.1,2.49-.25,3.76-.31,1.14-.05,2.29-.01,3.87-.01.34,2.16.62,4.09.94,6.01.58,3.47,2.65,5.68,5.95,6.7,4.68,1.46,9.23,1.36,13.28-1.78,5.08-3.94,5-11.36-.36-14.85-2.46-1.6-5.42-2.46-8.2-3.54-3.71-1.43-7.61-2.46-11.18-4.16-6.29-2.99-8.06-8.52-7.28-15.02.75-6.23,4.32-10.36,10.23-12.29,4.66-1.52,9.49-1.63,14.33-.87,9.02,1.42,13.26,7.94,12.72,15.38Z"/><path class="cls-5" d="M1545.67,84.8c-2.63,0-4.92-.1-7.2.02-5.48.29-8.36,3.68-9.52,8.65-.6,2.56-.83,5.25-.85,7.88-.09,10.96-.04,21.92-.04,33.56-3.7,0-7.13.13-10.54-.1-.81-.05-1.74-1.19-2.23-2.04-.36-.63-.11-1.62-.11-2.45,0-17.79,0-35.59,0-53.38,0-.8.09-1.61.15-2.75h12.37v7.11c.27.23.54.46.81.69,3.96-6.32,8.74-11.07,17.16-9.71v12.52Z"/><path class="cls-3" d="M1478.95,228.79h-7.89c-.3-1.25-.58-2.52-.9-3.77-1.31-5.03-4.05-7.47-8.96-7.98-4.93-.52-9.56,1.91-11.33,6.39-1.03,2.6-1.86,5.43-1.98,8.2-.28,6.31-.25,12.66.04,18.97.12,2.59.92,5.27,1.93,7.69,1.87,4.5,6.04,6.86,10.75,6.55,4.98-.33,8.22-2.92,9.64-7.96.58-2.05.81-4.21,1.26-6.66h7.69c1.48,10.02-5.61,19.22-16.31,20.44-10.38,1.18-19.93-2.59-22.75-15.27-2.16-9.71-2.16-19.57.18-29.23,3.34-13.81,20-20.05,31.98-12.15,5.2,3.43,7.07,8.46,6.66,14.78Z"/><path class="cls-3" d="M1334.24,269.47v-56.95h7.65v17.24c3.16-1.46,5.71-3.05,8.49-3.87,9.54-2.82,16.28,2.13,16.42,12,.14,9.65.04,19.3.04,28.95,0,.8-.13,1.59-.22,2.65h-7.36c-.12-1.22-.36-2.48-.36-3.73-.03-7.65-.02-15.31-.02-22.96,0-.67,0-1.33,0-2-.09-6.79-1.89-9.16-7-9.25-6.4-.12-9.79,3.19-9.85,9.79-.07,7.82-.02,15.64-.02,23.46v4.68h-7.77Z"/><path class="cls-3" d="M1511.95,239.72c-1.77,0-3.57.04-5.37-.02-.62-.02-1.23-.29-1.79-.43-.1-8.09,2.45-12.01,9.87-13.25,4.47-.75,9.28-.53,13.76.26,5.13.91,7.47,4.37,7.57,9.7.14,7.49-.03,14.99.11,22.48.05,2.7-1.27,6.3,3.51,6.88.38.05.44,2.77.68,4.46-4.86.08-9.56,1.82-11.79-4.2-1.16.88-2.14,1.68-3.18,2.39-4.95,3.36-10.25,3.77-15.66,1.43-4.45-1.92-6.27-5.78-6.49-10.41-.23-4.81,1.14-9.11,5.77-11.26,3.43-1.59,7.2-2.44,10.84-3.58,1.42-.44,2.92-.68,4.33-1.16,3.54-1.19,4.34-2.33,4.23-5.78-.1-3.21-1.37-4.93-4.36-5.93-5.58-1.86-10.13.84-11.37,6.73-.1.46-.34.89-.65,1.68ZM1528,247.15c-4.2,1.31-8.03,2.38-11.76,3.71-2.91,1.04-4.52,3.18-4.55,6.43-.02,2.76.21,5.35,2.83,6.99,4.56,2.86,12.78-.79,13.4-6.18.41-3.55.08-7.19.08-10.95Z"/><path class="cls-3" d="M1092.3,255.46h7.71c-.18,5.66-2.34,9.94-6.88,12.69-6.18,3.74-12.62,3.64-19.04.36-3.36-1.72-5.16-4.74-6.18-8.14-2.61-8.69-2.7-17.4.82-25.9,2.84-6.85,9.02-9.97,17.62-9.2,7.12.64,11.96,4.83,13.38,12.03.7,3.54.79,7.2,1.22,11.48h-26.51c.47,3.75.54,6.88,1.3,9.84,1.19,4.62,3.9,6.54,8.21,6.51,4.26-.03,6.68-2.1,7.9-6.85.2-.8.26-1.63.44-2.83ZM1091.87,243.04c.45-4.33.19-8.22-3.49-10.83-2.81-1.99-6.07-2.03-8.9-.12-3.78,2.54-4.68,6.43-4.36,10.95h16.76Z"/><path class="cls-3" d="M639.3,255.39h6.82c.75,5.3-1.93,10.4-6.82,13.2-10.9,6.25-23.18.58-25.52-11.7-1.2-6.31-1.05-12.58.35-18.8,2.61-11.57,16.78-17.02,26.54-10.27,3.84,2.66,5.61,6.55,6.05,10.99.31,3.11.06,6.28.06,9.98h-25.4c.34,3.64.3,6.76.98,9.72,1.01,4.42,4,6.62,8.13,6.66,4.38.04,6.62-1.8,8.03-6.64.27-.94.48-1.91.78-3.14ZM638.7,243.05c.32-8.45-2.75-12.52-8.73-12.18-5.49.31-8.58,5.05-7.73,12.18h16.46Z"/><path class="cls-3" d="M1408.83,249.04h-25.63c.28,3.34.28,6.18.81,8.9.88,4.48,4.15,7.14,8.29,7.21,4.18.07,6.51-1.6,7.76-5.61.39-1.26.69-2.56,1.09-4.08h7.48c0,4.67-1.77,8.29-4.91,11.22-9.14,8.5-24.85,3.88-27.75-8.2-1.65-6.89-1.71-13.91.12-20.75,2.91-10.83,14.52-15.83,24.63-10.94,5.44,2.63,7.34,7.48,8.05,12.94.36,2.77.06,5.63.06,9.31ZM1400.73,243.02c.2-4.34-.09-8.29-3.73-10.86-2.78-1.96-6.12-2.01-8.94-.11-3.78,2.55-4.75,6.4-4.13,10.97h16.8Z"/><path class="cls-5" d="M1767.14,353.91c-1.01.51-1.15.64-1.3.65q-6.67.46-6.68-6.14c0-11.33,0-22.66,0-33.99,0-1.62,0-3.24,0-5.23,6.96,0,13.42-.31,19.85.1,5.25.34,8.53,4.42,8.94,9.72.38,4.94-.53,9.32-5.38,12.51,5.11,3.42,5.31,8.46,5.27,13.68-.02,2.93.43,5.86.68,8.99-.19.08-.62.4-1.05.42-6.79.33-7.31-.17-7.48-7.12-.05-2.17.04-4.34-.13-6.49-.35-4.2-2.13-5.89-6.34-6.08-1.96-.09-3.93-.02-6.37-.02v19ZM1767.26,329.09c2.51,0,4.51.13,6.47-.03,4.52-.37,6.6-2.93,6.44-7.67-.16-4.61-1.98-6.37-6.86-6.53-1.94-.06-3.88-.01-6.05-.01v14.24Z"/><path class="cls-3" d="M1254.23,247.13c-.61,4.4-.8,7.91-1.62,11.27-1.89,7.73-7.85,12.23-15.96,12.48-8.71.26-14.56-3.63-17.03-11.61-2.42-7.83-2.35-15.72.34-23.48,2.31-6.67,7.56-10.3,14.76-10.55,8.4-.29,14.35,2.8,16.87,9.65,1.52,4.13,1.91,8.67,2.64,12.24ZM1246.13,247.87c-.82-3.93-1.32-7.89-2.51-11.64-1.17-3.69-4.17-5.44-8.09-5.37-3.73.07-6.39,1.91-7.57,6.03-2.09,7.31-2.09,14.76-.11,22.09,1.12,4.14,3.73,6,7.44,6.16,4.15.18,7.01-1.37,8.4-5.55,1.24-3.72,1.65-7.72,2.45-11.71Z"/><path class="cls-3" d="M687.37,269.49h-6.99c-.12-1.28-.34-2.54-.35-3.8-.03-8.65.02-17.29-.03-25.94-.03-5.95-1.9-8.11-6.88-8.19-5.95-.1-9.43,2.8-9.54,8.39-.16,7.98-.05,15.96-.05,23.94q0,6.1-5.98,5.86c-.48-.02-.96-.19-1.79-.36v-42.55c6.38-1.26,6.49-1.22,7.57,3.14,4.23-3.28,8.78-5.36,14.23-4.71,6.38.76,10.21,4.37,10.32,10.65.18,10.8.04,21.61,0,32.42,0,.29-.25.58-.51,1.15Z"/><path class="cls-3" d="M1136.14,283.72v-5.56c1.07,0,2.01.01,2.96,0,6.4-.12,9.71-4.59,7.72-10.7-4.11-12.64-8.34-25.25-12.51-37.88-.31-.93-.55-1.88-.81-2.77.49-.26.76-.52,1.05-.54,7.41-.58,7.35-.56,9.34,6.65,2.38,8.65,4.88,17.27,7.68,27.16,1.01-3.39,1.76-5.67,2.36-7.99,1.91-7.4,3.91-14.79,5.57-22.25.62-2.79,1.63-4.15,4.6-3.67,1.44.23,2.92.16,4.46.22,0,.79.12,1.31-.02,1.75-4.83,15.56-9.7,31.1-14.54,46.66-1.52,4.87-4.55,8.16-9.72,8.86-2.58.35-5.24.06-8.14.06Z"/><path class="cls-3" d="M1645.56,248.43c.4-3.37.59-6.53,1.19-9.61,2.18-11.29,11.15-14.72,20.41-13.35,6.53.96,10.87,4.75,12.72,11.1,2.23,7.67,2.28,15.42-.08,23.05-2.38,7.69-8.25,11.49-16.78,11.26-8.33-.22-14.12-4.55-15.98-12.33-.8-3.36-1.02-6.86-1.48-10.13ZM1673.45,248c-.55-3.66-.83-7.32-1.72-10.82-1.04-4.11-4.01-6.21-7.94-6.32-4.03-.11-6.87,1.66-8.19,5.91-2.32,7.47-2.33,15.09,0,22.55,1.33,4.29,4.09,5.95,8.22,5.83,3.96-.12,6.86-2.17,7.91-6.32.89-3.51,1.16-7.17,1.72-10.82Z"/><path class="cls-3" d="M1722.33,247.56c-.38,3.7-.43,6.73-1.04,9.63-1.85,8.73-7.72,13.5-16.48,13.69-8.96.2-14.81-4.06-17.13-12.79-1.91-7.2-1.83-14.48.4-21.59,2.41-7.71,8.08-11.37,16.76-11.26,8.14.1,13.82,4.08,15.89,11.72.99,3.64,1.16,7.5,1.6,10.6ZM1694.37,247.62c.65,4.15.96,7.97,1.92,11.63.91,3.45,3.33,5.66,7.18,5.88,4.04.23,6.95-1.08,8.37-4.88,3.05-8.2,3.11-16.57-.11-24.77-1.38-3.51-4.43-4.82-8.08-4.6-3.49.21-6.11,1.92-7,5.36-.99,3.82-1.56,7.74-2.27,11.39Z"/><path class="cls-3" d="M987.35,247.99c.56-3.75.77-7.61,1.77-11.24,2.06-7.5,7.84-11.45,16.06-11.52,8.63-.07,14.29,3.73,16.63,11.44,2.02,6.66,1.84,13.53.64,20.24-1.67,9.32-8.34,14.29-17.73,13.97-9.4-.32-15.52-6.1-16.67-15.86-.27-2.3-.24-4.64-.34-6.96-.12-.02-.23-.04-.35-.07ZM1015.45,248.25c-.68-3.84-1-7.84-2.15-11.58-1.3-4.23-4.22-5.94-8.25-5.81-3.8.12-6.29,1.87-7.59,6.03-2.29,7.3-2.2,14.74-.11,22.06,1.25,4.37,3.91,6.19,7.95,6.21,4.04.01,6.8-1.73,8.12-6.02,1.06-3.44,1.36-7.1,2.04-10.89Z"/><path class="cls-3" d="M1544.06,255.44h7.25c.17.93.3,1.72.47,2.51,1.25,5.97,6.23,8.8,12.04,6.76,2.51-.88,4.29-2.5,4.6-5.36.29-2.72-.42-5.11-2.91-6.39-2.34-1.21-4.89-2.03-7.39-2.92-2.35-.83-4.82-1.35-7.1-2.33-4.21-1.81-6.42-5.17-6.61-9.75-.18-4.37,1.64-7.92,5.41-10.01,6.51-3.61,13.36-3.94,20.09-.61,3.81,1.89,5.16,5.12,5.4,11.41h-7.44c-.14-.37-.43-.95-.56-1.56-1.3-5.94-7.02-8.32-12.13-5.03-3.36,2.16-3.65,7.02-.34,9.25,1.75,1.18,3.91,1.8,5.94,2.5,2.67.91,5.44,1.52,8.1,2.47,4.87,1.75,7.67,5.19,7.76,10.49.09,5.26-1.91,9.6-6.76,11.88-6.89,3.25-13.94,3.1-20.6-.71-4.74-2.71-5.96-7.16-5.22-12.58Z"/><path class="cls-3" d="M942.55,239.03h-7.37c-.21-.77-.41-1.53-.62-2.28-1.64-5.71-6.94-7.75-12.07-4.67-3.39,2.04-3.71,6.99-.44,9.21,1.48,1.01,3.29,1.56,5.01,2.16,3.29,1.16,6.67,2.07,9.91,3.33,4.05,1.57,6.53,4.52,6.81,9.01.3,4.94-.74,9.45-5.3,12.13-7.39,4.34-15.05,4.05-22.31-.14-4.45-2.57-5.58-7.1-5.03-12.33h7.32c.19.96.33,1.9.56,2.82,1.47,5.91,6.61,8.54,12.32,6.29,2.51-.99,4.1-2.79,4.51-5.52.39-2.63-.81-4.59-2.89-5.92-1.52-.97-3.24-1.67-4.95-2.27-2.98-1.05-6.07-1.81-9.03-2.89-4.3-1.57-6.77-4.61-7.12-9.31-.35-4.77,1.22-8.65,5.48-10.92,6.23-3.33,12.8-3.65,19.21-.66,4.74,2.21,6.31,6.42,6,11.96Z"/><path class="cls-5" d="M1556.36,327.86c3.86-5.29,7.01-9.56,10.1-13.88,3.95-5.52,3.93-5.54,11.63-4.38-3.65,5.2-7.02,10.29-10.72,15.13-1.9,2.48-2.11,4.4-.44,7.15,4.39,7.22,8.44,14.65,12.92,22.51-1.87.12-3.29.12-4.67.32-3.11.46-4.79-.95-6.16-3.7-2.73-5.45-5.83-10.7-8.9-16.25-3.11,2.77-4.66,5.55-4.3,9.41.3,3.28.06,6.6.06,9.68-.66.39-.93.69-1.22.7q-6.61.42-6.61-6.19c0-11.33,0-22.66,0-33.99,0-1.62,0-3.24,0-5.08h7.55c.78,5.91-.26,11.76.75,18.58Z"/><path class="cls-3" d="M1612.41,238.97h-7.06c-.2-.67-.43-1.41-.62-2.15-1.5-5.77-7.52-7.97-12.46-4.56-3.23,2.23-3.26,7.13.14,9.23,1.81,1.11,3.95,1.72,5.98,2.43,2.97,1.05,6.05,1.82,8.96,3.01,4.06,1.65,6.3,4.76,6.51,9.21.22,4.77-.89,9.13-5.19,11.7-7.34,4.4-15.02,4.19-22.3.02-4.42-2.53-5.82-6.99-5.16-12.35h7.24c.17.8.36,1.72.58,2.63,1.43,5.95,6.47,8.62,12.24,6.47,2.75-1.02,4.41-2.99,4.64-5.93.22-2.77-1.01-4.9-3.52-6.06-2.1-.98-4.3-1.76-6.49-2.51-2.2-.76-4.48-1.28-6.66-2.09-4.65-1.75-7.26-4.96-7.37-10.15-.12-5.37,2.44-8.83,7.15-10.9,4.57-2,9.32-2.34,14.15-1.12,6.87,1.74,9.41,5.22,9.26,13.13Z"/><path class="cls-5" d="M1565.71,74.19v60.48h-12.34v-60.48h12.34Z"/><path class="cls-5" d="M993.39,74.03h12.28v60.6h-12.28v-60.6Z"/><path class="cls-5" d="M1501.12,357.17c3.11.09,5.56-.82,7.82,2.28,2.49,3.43,7.69,2.04,9.1-2.07.63-1.83.69-3.85,1.14-6.53-1.66.9-2.6,1.39-3.53,1.91-5.35,3.01-11.59,1.28-13.78-4.34-3-7.71-3.02-15.71.14-23.37,2.74-6.63,9.64-7.59,16.2-2.67.14,0,.39.04.4,0,.45-1.29.89-2.48,2.7-2.28,1.29.15,2.61.03,3.67.03.42.62.76.88.77,1.15.05,11.16.23,22.32.03,33.47-.13,6.95-4.46,11.08-11.44,11.17-2.93.04-5.98-.36-8.76-1.25-3.07-.98-4.8-3.43-4.46-7.5ZM1506.78,336.59c.37,2.55.72,5,1.09,7.44.4,2.64,2.1,4.31,4.58,4.56,2.62.26,4.33-1.55,5.12-3.91,1.79-5.33,1.82-10.74.04-16.09-.74-2.22-2.31-3.65-4.82-3.55-2.46.09-4.1,1.51-4.67,3.77-.65,2.55-.9,5.2-1.33,7.78Z"/><path class="cls-5" d="M1661.57,322.66c1.29-4.26,4.39-1.89,6.96-2.58.18,1.41.45,2.5.45,3.6.03,9.81.09,19.63,0,29.44-.11,10.77-11.16,16.92-20.55,11.48-2.56-1.49-4.21-3.65-4.39-7.03,3.23-.71,5.79-1.09,8.24,2.09,2.25,2.93,7.2,1.87,8.64-1.62.83-2,.81-4.35,1.13-6.33-3.09.88-5.69,1.97-8.37,2.28-3.63.42-6.5-1.3-8.09-4.64-3.77-7.95-3.66-16.14-.51-24.15,2.44-6.2,11.08-8.3,16.48-2.55ZM1662.2,336.77c-.45-2.66-.71-5.31-1.38-7.84-.57-2.14-1.77-3.93-4.46-3.92-2.76,0-4.48,1.62-5.15,3.93-1.5,5.18-1.34,10.48.03,15.68.59,2.23,2.12,3.98,4.52,3.98,2.51,0,4.43-1.5,5.05-4.02.63-2.55.94-5.18,1.4-7.82Z"/><path class="cls-5" d="M1410.08,353.95h-7.04v-44.61h6.96v17.52h13.67v-17.37c1.6-.17,2.86-.43,4.11-.42,3.55.02,3.84.19,3.85,3.56.04,13.31-.01,26.63-.05,39.94,0,.3-.21.61-.46,1.28h-7.28c0-4.68,0-9.44,0-14.2-.01-6.71.73-6.49-6.49-6.45-7.99.05-7.25-.87-7.27,7.16,0,4.45,0,8.9,0,13.59Z"/><path class="cls-5" d="M1718.27,320.8h-7.07c-.27-.72-.73-1.6-.9-2.53-.56-3-2.63-4.11-5.34-4.3-2.66-.18-4.93.59-6.25,3.18-1.26,2.47-1.03,5.35,1.01,7.4,1.13,1.13,2.64,1.99,4.13,2.64,2.58,1.13,5.3,1.95,7.91,3.01,5.97,2.44,8.87,7.62,7.9,13.99-.89,5.9-5.33,10.16-11.42,10.79-1.98.21-4,.2-5.99.13-8.67-.3-13.12-5.7-11.94-14.77,1.07-.07,2.2-.07,3.32-.21,2.67-.34,3.73.68,4.13,3.48.69,4.91,5.14,7.39,9.49,5.76,4.92-1.84,6.34-7.65,2.57-11.29-1.38-1.33-3.29-2.2-5.08-2.98-2.13-.92-4.45-1.39-6.59-2.3-5.56-2.37-8.34-6.84-7.98-12.55.38-5.95,3.85-10.11,9.95-11.56,1.91-.46,3.96-.56,5.94-.52,7.48.14,12.6,3.85,12.2,12.63Z"/><path class="cls-5" d="M1755.86,354.42c-1.57.1-2.87.15-4.16.27-2.39.23-3.59-.74-4.1-3.18-.53-2.54-.91-6.04-2.64-7.17-2.02-1.32-5.42-.62-8.22-.64-4.76-.05-4.76,0-5.97,4.53-.13.48-.28.95-.42,1.43-1.66,5.72-2.7,6.2-9.18,4.02,2.7-9.32,5.39-18.66,8.11-28,1.2-4.13,2.51-8.24,3.69-12.38,1.21-4.22,1.17-4.23,5.72-4.25.33,0,.66,0,1,0,4.43.04,4.46.03,5.66,4.4,3.43,12.46,6.84,24.92,10.21,37.39.29,1.06.2,2.22.3,3.59ZM1739.33,317.32c-.33.03-.66.06-.99.09-1.6,6.54-3.19,13.08-4.86,19.91h10.43c-.09-1.23-.02-2.07-.22-2.86-1.43-5.72-2.9-11.43-4.36-17.14Z"/><path class="cls-3" d="M981.83,239.63h-7.08c-.26-.92-.54-1.98-.87-3.03-1.21-3.78-3.61-5.69-7.22-5.76-3.49-.07-6.39,1.71-7.69,5.27-2.09,5.72-2.45,11.69-1.58,17.69.35,2.43.86,4.97,1.94,7.14,1.63,3.27,4.58,4.63,8.33,4.13,3.5-.47,5.06-2.81,6.01-5.86.47-1.52.65-3.99,1.59-4.34,1.86-.69,4.16-.2,6.43-.2.93,3.64-.38,6.65-2.09,9.5-5.45,9.06-23.53,9.39-28.08-1.35-4.13-9.75-4.07-19.87.3-29.53,4.74-10.49,20.95-9.91,26.72-3.73,2.46,2.64,3.86,5.77,3.33,10.07Z"/><path class="cls-3" d="M587.67,239.56h-7.1c-.2-.85-.38-1.78-.65-2.69-1.17-3.91-3.42-5.83-7.02-6.02-3.71-.2-6.67,1.65-8.01,5.48-1.95,5.57-2.37,11.37-1.57,17.21.27,1.96.58,3.97,1.26,5.81,1.52,4.13,4.35,5.97,8.31,5.75,3.69-.2,5.87-2.26,6.94-6.64.27-1.11.38-2.27.62-3.73h7.25c.46,7.88-3.51,13.49-10.7,15.35-11.76,3.04-20.88-3.03-21.78-15.09-.43-5.73-.38-11.76.93-17.3,2.7-11.39,15.7-16.18,25.81-10.15,4.17,2.49,6.03,6.3,5.71,12Z"/><path class="cls-3" d="M813.89,239.61h-7.51c-.19-1.02-.29-1.98-.57-2.89-1.17-3.82-3.55-5.75-7.15-5.87-3.55-.11-6.47,1.63-7.74,5.18-2.1,5.9-2.41,12.04-1.62,18.23.21,1.64.52,3.3,1.06,4.86,1.54,4.44,4.4,6.36,8.62,6,3.66-.32,5.85-2.48,6.84-6.84.25-1.11.33-2.26.52-3.63h6.92c1.14,5.21-1.21,10.58-5.87,13.53-10.08,6.38-22.74,1.61-25.61-9.9-1.75-7.03-1.7-14.25.35-21.23,3.29-11.19,17.26-15.74,26.74-8.84,3.61,2.62,5.24,6.31,5.02,11.4Z"/><path class="cls-3" d="M1053.61,226.43h8.31c-.28,1.34-.43,2.44-.75,3.48-3.79,12.37-7.68,24.71-11.34,37.12-.86,2.92-2.76,2.91-4.96,2.71-2.12-.19-4.71,1.04-5.73-2.34-3.96-13.18-8.06-26.33-12.09-39.49-.09-.29.04-.64.07-1.1.35-.17.76-.52,1.19-.55q6.82-.36,8.57,6.3c1.96,7.37,3.93,14.74,5.92,22.11.38,1.42.89,2.81,1.7,5.37,3.21-11.87,6.13-22.65,9.09-33.6Z"/><path class="cls-3" d="M742.56,232.18c-2.74-.12-4.53-.21-6.69-.31v-5.45c2.19-.17,4.13-.32,6.24-.48.83-4.44-.39-9.41,3.91-12.47,3.84-2.74,8.19-1.96,12.72-1.96v5.49c-2.57.76-5.52.89-7.29,2.4-1.18,1.01-.68,3.99-1,6.59h8.13v5.85c-2.48.11-4.9.22-7.8.35v37.26h-8.22v-37.26Z"/><path class="cls-3" d="M1199.07,232.19c-2.76-.16-4.7-.27-6.88-.39v-5.29c2.23-.2,4.3-.38,6.68-.59.37-4.52-.85-9.51,3.54-12.49,3.8-2.58,8.17-2.18,12.96-1.68.1,1.85.18,3.57.26,4.99-2.95.99-5.95,1.29-7.88,2.89-1.17.97-.71,3.93-1.03,6.37,3.17.14,5.76.26,8.61.39v5.39c-2.65.14-5.23.27-8.22.43v37.21h-8.04v-37.22Z"/><path class="cls-3" d="M716.47,264.21v5.77c-3.16,0-6.11.17-9.04-.04-4.85-.35-7.19-2.84-7.25-7.74-.1-7.99-.03-15.98-.03-23.96,0-1.82,0-3.65,0-5.89-2.26-.2-4.34-.38-6.85-.59-.11-1.6-.22-3.18-.35-5.18,2.34-.22,4.41-.41,7.01-.65v-11.54h7.9v11.57c3.25.18,5.84.32,8.66.47v5.31c-2.72.18-5.3.35-8.51.56,0,3.43,0,6.71,0,9.98,0,4.99-.02,9.99,0,14.98.03,6.02.59,6.59,6.44,6.77.5.02.99.09,2.01.18Z"/><path class="cls-3" d="M1320.77,214.41v11.53c2.75.16,5.17.31,7.95.48.11,1.71.22,3.29.35,5.3-2.82.19-5.37.36-8.38.56,0,5.89,0,11.51,0,17.12,0,2.33,0,4.66,0,6.99,0,7.4.1,7.49,7.88,7.73v5.88c-2.74,0-5.51.15-8.27-.03-5.29-.34-7.43-2.57-7.5-7.93-.1-8.16-.03-16.31-.03-24.47,0-1.63,0-3.26,0-5.2-2.53-.21-4.63-.39-7.02-.59v-5.35c2.3-.14,4.26-.26,6.72-.4v-11.62h8.29Z"/><path class="cls-5" d="M1464.13,337.34c-.53,3.11-.8,6.11-1.58,8.97-1.61,5.88-6.17,9.25-12.09,9.28-5.79.03-10.04-3.03-12-8.72-2.19-6.35-1.98-12.79-.13-19.12,1.7-5.84,6.19-8.7,12.53-8.51,6.11.18,10.21,3.12,11.76,8.89.81,3.02,1.04,6.19,1.52,9.22ZM1456.23,337.55c-.08,0-.17,0-.25,0,0-1.99,0-3.98,0-5.97,0-.5-.03-1-.14-1.48-.77-3.48-2.77-5.35-5.6-5.27-2.62.07-4.86,1.82-5.13,5.11-.4,4.94-.43,9.95-.07,14.89.25,3.55,2.55,5.27,5.53,5.2,2.87-.07,4.8-1.94,5.3-5.52.32-2.29.26-4.63.36-6.95Z"/><path class="cls-5" d="M1636.87,354.4h-7.04c0-6.88.01-13.49,0-20.1,0-1.66.05-3.34-.22-4.96-.5-2.98-2-4.33-4.53-4.31-2.69.02-4.33,1.62-5.14,3.96-.42,1.21-.3,2.63-.31,3.95-.03,5.98.03,11.97-.03,17.95-.04,3.51-.36,3.76-3.63,3.78-3.41.02-3.88-.29-3.9-3.51-.06-10.11-.02-20.23-.02-30.26q5.64-1.35,7.55,1.74c3.34-2.26,6.78-4.16,11.07-3.09,3.9.97,6.05,2.85,6.14,6.76.22,9.26.07,18.54.07,28.08Z"/><path class="cls-5" d="M1607.16,337.34c-.4,2.73-.73,5.35-1.19,7.96-1.06,6.09-5.47,10.39-12.78,10.16-6.84-.21-10.32-3.36-12.13-10.41-1.35-5.26-1.08-10.55.04-15.8,1.38-6.44,5.71-9.87,12.4-10.01,6.63-.14,10.94,3.16,12.45,9.8.62,2.73.81,5.56,1.2,8.31ZM1587.58,338.35c.24,2.04.28,5.07,1.02,7.91.78,2.99,2.67,3.9,5.62,3.78,2.89-.12,4.14-1.97,4.62-4.39,1.03-5.24,1.44-10.51.11-15.78-.94-3.73-2.18-4.97-5.12-5.04-2.98-.07-5.05,1.62-5.68,5.13-.43,2.43-.36,4.96-.57,8.39Z"/><path class="cls-5" d="M1476.02,354.39h-6.88v-33.51c5.23-1.35,5.51-1.28,7.02,1.54,2.46-1.01,4.81-2.54,7.32-2.89,5.97-.83,10.09,1.81,10.29,7.83.29,8.8.08,17.62.08,26.95-2.31.13-4.36.24-7.1.39,0-6.53.03-12.63-.02-18.73-.02-2.15-.18-4.31-.41-6.44-.28-2.57-1.44-4.43-4.35-4.51-2.6-.06-4.55,1.39-5.3,4.3-.45,1.74-.59,3.6-.61,5.4-.07,6.46-.03,12.92-.03,19.66Z"/><path class="cls-3" d="M1487.57,269.34v-56.78c.98-.17,1.75-.4,2.52-.42q5.45-.15,5.47,5.39c0,15.14,0,30.27,0,45.41q0,7.33-7.99,6.4Z"/><path class="cls-3" d="M1269.02,269.51h-7.65v-42.89h7.33c.18,1.3.36,2.69.63,4.66,1.1-1.08,1.81-1.92,2.67-2.58,1.3-.99,2.61-2.31,4.1-2.64,2.15-.48,4.88-.94,6.56.01,1.09.62.74,3.77,1.08,6.14-2.02.1-3.31.15-4.59.23-5.62.33-8.83,3.12-9.78,8.74-.33,1.95-.32,3.97-.33,5.95-.04,7.3-.01,14.61-.01,22.37Z"/><path class="cls-3" d="M1628.7,269.52h-7.38v-43.03h7.23c.21,1.33.42,2.73.71,4.58,3.84-3.65,7.52-7.47,13.58-5.23v6.23c-1.07.12-2.15.31-3.24.36-6.96.32-10.56,4.01-10.62,11.09-.06,7.15,0,14.3-.03,21.45,0,1.45-.16,2.9-.26,4.55Z"/><path class="cls-3" d="M1116.7,269.52c-1.48.11-2.44.21-3.4.24-1.3.03-2.6,0-4.18,0v-43.3h7.28c.19,1.48.37,2.88.63,4.88,3.62-4.36,7.46-7.3,13.46-5.66v6.43c-.77.09-1.7.28-2.64.31-7.43.22-11.04,3.72-11.12,11.05-.08,6.82-.02,13.64-.02,20.46,0,1.66,0,3.32,0,5.57Z"/><path class="cls-3" d="M895.45,226.47h7.67v43.01h-7.67v-43.01Z"/><path class="cls-3" d="M772.37,269.54h-7.08c-1.04-3.52-1.29-36.85-.3-43.01h7.37v43.01Z"/><path class="cls-3" d="M596.68,226.43h7.45v43.11h-7.45v-43.11Z"/><path class="cls-3" d="M722.32,226.47h7.34v42.95h-7.34v-42.95Z"/><path class="cls-5" d="M1565.81,53.23v11.43h-12.47v-11.43h12.47Z"/><path class="cls-5" d="M1005.57,65.03h-12.26v-11.88h12.26v11.88Z"/><path class="cls-5" d="M897.06,57.57c.02,5.59-3.87,9.53-9.28,9.43-5.05-.09-9.02-4.16-9.04-9.26-.03-5.29,4.26-9.64,9.37-9.52,4.98.12,8.95,4.26,8.96,9.35ZM891.84,53l.08.06c.28-2.35-1.72-2.1-2.97-2.37-3.24-.7-6.26,1.11-7.55,4.24-1.2,2.93-.17,6.55,2.39,8.44,2.85,2.1,5.25,1.86,8.12-.82-.16-.15-.17-.31-.04-.49,2.99-.24,3.14-2.48,3.02-4.63-.11-1.99.07-4.43-3.06-4.44Z"/><path class="cls-3" d="M895.47,219.84v-7.35h7.61v7.35h-7.61Z"/><path class="cls-3" d="M722.3,219.81v-7.35h7.65v7.35h-7.65Z"/><path class="cls-3" d="M772.5,212.44v7.25h-7.67v-7.25h7.67Z"/><path class="cls-3" d="M604.09,219.93h-7.38v-7.11c7.78-1.76,8.24-1.35,7.38,7.11Z"/><path class="cls-2" d="M214.94,39.96c-2.72.39-4.13-.74-4.17-3.53-.01-1,0-2.01-.11-3-.42-3.92-1.99-7.12-6.05-8.31-4.36-1.29-8.69-1.02-12.13,2.18-1.14,1.06-1.61,3.22-1.71,4.92-.23,4.15-.04,8.33-.08,12.5-.01,1.15.06,2.45-.44,3.4-.45.85-1.75,1.92-2.47,1.78-1.04-.19-2.52-1.26-2.7-2.18-.42-2.09-.17-4.31-.19-6.47-.04-7.6-2.62-11.46-9.85-12.82-6.21-1.17-12.61-1.36-18.72.99-6.65,2.55-9.16,6.14-9.19,13.24-.04,11.67,0,23.33-.02,35,0,1.33.26,2.87-.32,3.92-.62,1.14-1.96,2.25-3.2,2.6-1.8.5-2.65-.83-2.75-2.62-.02-.43-.32-.85-.51-1.35-3.29,4.44-2.36,9.37,2.29,12.69q3.43,2.45,2.78,6.61c-8.14.47-13.27-4.35-13.4-12.9-.13-9.33-.03-18.67-.03-28,0-9,0-18-.01-27,0-1.66.05-3.36-.22-4.99-1.18-7.17-6.89-10.34-13.7-7.72-4.56,1.76-8.16,4.51-9.75,9.33-1.06,3.23-.17,6.83,2.37,8.57,2.46,1.69,5.14,3.23,8.4.64-.85-.58-1.54-1-2.17-1.5-1.4-1.12-2.2-2.43-1.41-4.32.8-1.91,2.13-2.89,4.24-2.79,2.13.1,3.36,1.34,3.97,3.22.25.76.14,1.65.14,2.48.02,16.67,0,33.33.07,50,.01,2.44-.45,3.71-3.21,4.56-5.93,1.83-6.69,9.6-1.2,14.15.07-1.18.18-2.04.17-2.89-.02-1.98.94-3.14,2.88-3.44,1.74-.26,3.35-.11,4.18,1.82,2.91,6.77,8.89,8.4,15.39,9.29,1.31.18,3.16.6,3.66,1.51.84,1.52-.61,2.58-1.97,3.46-5.61,3.61-7.7,9.4-7.58,15.47.15,7.93,1.26,15.87,2.44,23.74.66,4.36,1.38,4.44,5.84,3.58,6.45-1.24,12.91-1.37,19.29.29,2.13.55,4.09,1.73,6.13,2.62-.15.36-.3.71-.46,1.07-.82-.24-1.67-.4-2.46-.72-4.89-2.03-10.02-2.37-15.21-2.04-7.01.44-13.9,1.6-20.12,5.1-2.15,1.21-4.08,2.84-5.95,4.47-3.11,2.71-4.36,6.23-3.8,10.32.92,6.67,3.58,12.6,7.92,18.11-.54-13.78,7.84-20.49,19-24.84,6-2.34,11.64-1.75,14.62.82-3.55,0-7.37-.57-10.95.12-7.37,1.42-8.61,2.71-4.94,10,3.1,6.13,8.39,10.02,14.86,11.74,5.74,1.52,11.69,2.56,17.61,2.99,6.96.51,14,.29,20.99.06,2.85-.09,4.88.76,6.3,3.06,1.3,2.11,2.71,4.22,3.56,6.53,2.02,5.5-1.01,10.7-6.81,11.33-3.94.43-7.99.14-11.98-.06-2.65-.13-3.98-1.87-3.3-4.42.62-2.34,1.6-4.64,2.81-6.74.69-1.19,2.15-1.92,3.63-3.17-8.18-1.15-14.69,2.86-16.56,10.08-.81,3.14-1.88,4.59-5.46,4.84-4.62.32-8.66,2.29-9.83,7.66-1.41,6.46,3.35,13.03,10.77,13.71-.98-1.09-1.74-1.78-2.31-2.59-1.24-1.8-2.66-3.87-1.06-5.88,1.12-1.41,3.01-2.8,4.7-3,2.19-.26,1.96,2.18,2.23,3.73,1.37,8.01,6.04,13.28,14.1,15.04-4.13-3.76-6.15-7.78-6.02-12.78.15-5.7,3.94-8,9.01-5.3.15.08.3.14.44.23,4.69,2.88,5.15,6.52,1.32,10.47,4.62-.21,7.65-2.27,9.09-6.2q1.73-4.72,6.77-4.61c.83.02,1.66.14,2.48.21l-.07-.06c0,11.66,0,23.32-.01,34.98,0,.29-.28.57-.81,1.56-2.79-.75-5.85-1.3-8.7-2.39-16.95-6.49-32.03-16.22-46.08-27.52-14.52-11.68-26.71-25.46-36.1-41.65-6.61-11.39-10.44-23.75-12.16-36.65-1.86-13.98-2.88-28.08-4.23-42.12-3.01-31.39-1.97-62.87-1.95-94.33,0-4.07.04-4.28,4.28-5.06,7.67-1.4,15.36-2.72,23.08-3.73,10.86-1.42,21.76-2.61,32.65-3.76,4.96-.52,9.94-.8,14.92-1.02,11.45-.5,22.91-.9,34.8-1.35.15,1.67.27,3.04.42,4.73-6.98.36-13.13,1.87-17.33,8.87,3.22-1.4,5.67-2.98,8.33-3.48,2.88-.54,5.96-.06,8.94-.03l-.06-.08c0,8.36,0,16.72,0,25.08l.07-.07ZM134.44,137.42c-7.19,1.63-13.73,3.67-17.45,9.96-3.22,5.45-2.36,11.36-.04,17.55,5.85-9.97,7.35-11.04,19.27-13.85-.56-4.3-1.13-8.67-1.78-13.66Z"/><path class="cls-2" d="M214.95,228.04v-58.07s-.08.07-.08.07c5.43-.37,10.94-.32,16.27-1.23,5.29-.9,9.02-4.43,11.28-9.68-8.47,5.21-17.7,3.92-27.15,4.01-.12-2.63-.23-4.9-.34-7.17l-.07.07c5.07-1.51,10.33-2.58,15.18-4.62,8.09-3.4,12.56-9.91,12.66-18.68.07-6.03,2.03-10.63,6.89-14.08.21-.15.19-.6.4-1.3-1.21-.27-2.42-.49-3.59-.83-3.11-.89-5.21-2.95-5.14-5.98.11-5.33,1.75-10.15,6.37-13.42.33-.24.92-.11,1.76-.19.14,1.88.16,3.66.42,5.41.53,3.59,1.71,6.91,5.45,8.31,3.39,1.27,6.18-.39,8.66-2.51,1.86-1.58,3.55-3.35,6.01-5.69-1.72-.28-2.43-.47-3.14-.5-4.24-.2-6.26-1.68-6.46-5.88-.2-4.15.52-8.27,4.71-11.4.36,1.35.48,2.44.93,3.37.91,1.92,1.7,4.03,3.08,5.59,2.65,2.99,5.87,3.03,8.71.16,2.2-2.22,4.03-4.79,6.44-7.7-3.55-.34-7.07.83-8.44-3.27-1.38-4.14.08-7.4,2.46-10.59,1.52,2.15,2.7,4.37,4.4,6.08,2.57,2.58,5.05,2.35,7.14-.62,1.98-2.81,3.6-5.89,5.49-9.04-.96-.29-1.46-.62-1.87-.54-5.04,1.12-6.56.22-7.75-4.67-.69-2.86-.22-5.04,1.92-8.47,1.15,1.7,2.11,3.44,3.39,4.91,3.13,3.61,7.03,3.07,9.03-1.2,1.05-2.25,1.91-4.6,2.8-6.93.15-.4-.03-.92-.08-1.8-2.72.62-5.51,2.42-7.78-.43-2.49-3.13-2.61-6.62-.5-11.29.51,1,.84,2.14,1.55,2.96,1.96,2.26,4.41,3.85,7.47,2.6,2.85-1.17,3.32-3.97,3.47-6.7.3-5.34.13-10.64-1.65-15.77-.33-.94-.48-1.94-.71-2.91.22-.22.43-.44.65-.66,3.39,2.34,4.77,5.95,5.65,9.67.96,4.03,1.43,8.16,2.18,12.24.19,1.06.62,2.08,1.14,3.81,2.25-1.75,4-3.11,6.16-4.79.79,4.46-.01,8.03-3.08,10.66-2.19,1.88-2.67,3.91-2.41,6.58.53,5.56.86,11.14,1.32,17.38,2.47-1.27,4.32-2.23,6.16-3.18,1.22,4.19-.12,8.21-4.4,10.65-2.5,1.43-2.94,3.11-2.96,5.61-.04,4.32-.36,8.64-.62,12.95-.16,2.64.76,3.43,3.11,2.43.76-.32,1.43-.84,2.13-1.29.55-.36,1.07-.75,1.66-1.17.75,4.7-.66,8.4-4.72,10.79-2.48,1.46-3.39,3.24-3.55,5.99-.28,4.77-.92,9.52-1.51,15.3,2.8-.8,4.85-1.39,6.88-1.97.76,3.85-.93,7.53-5.24,9.52-2.72,1.25-3.93,2.8-4.42,5.81-.78,4.88-2.29,9.65-3.51,14.53,2.82,1.92,4.74-.78,7.02-1.08-.11,4.68-2.63,7.96-7.34,9.73-1.16.44-2.7.9-3.21,1.83-2.95,5.35-5.65,10.83-8.75,16.9,2.46.32,4.62.59,7.23.93-2.48,4.28-6.03,5.92-10.44,5.51-2.86-.27-4.98.66-7.27,2.2-12.07,8.1-22.69,3.25-27.95-9.43-1.25-3.01-.91-6.22.43-9.24,2.56-5.79,7.2-9.6,12.67-12.2,3.85-1.83,7.42-.18,10.36,2.82,3.26,3.33,5.04,7.15,3.38,11.73-1.43,3.94-4.79,5.88-8.77,6.57-2.4.41-4.66-1.29-4.74-3.31-.1-2.27,1.1-3.31,3.35-3.39,1.9-.07,4.01-.46,3.98-2.8-.02-1.46-.86-3.19-1.88-4.29-1.47-1.58-3.35-.76-5.05.12-6.42,3.3-8.56,9.2-5.33,14.83,2.25,3.93,6.61,5.63,11.06,4.5,4.62-1.17,8.03-4.04,10.7-7.74,2.32-3.23,4.22-6.76,6.29-10.17,2.18-3.59,2.82-7.37,1.14-11.36,3.66-.57,3.89-1.38,2.16-7.39,1.18-.34,3.29-.52,3.38-1.05.33-1.84-.04-3.81-.16-5.97q2.79-1.71.71-7.43c3.61.61,4.46-1.57,4.91-4.47.93-5.88,2.07-11.73,2.74-17.7-3.72,5.17-7.11,10.43-6.99,17.67-1.7-1.09-2.58-1.66-3.53-2.27-.65,2.59-1.24,4.95-2.01,8.02-1.55-1.3-2.56-2.15-3.71-3.12-.59,2.72-1.09,5.07-1.66,7.72-1.56-1.21-2.7-2.1-4.21-3.27-.99,2.68-1.85,5.03-2.92,7.94-1.49-1.43-2.49-2.38-3.72-3.56-1.26,2.78-2.43,5.35-3.6,7.93-.32-.03-.63-.06-.95-.09-.2-.66-.41-1.33-.61-1.99-.61-2.15-1.99-2.44-3.84-1.59-2.57,1.17-5.14,2.33-7.7,3.51-3.19,1.46-4.45,4.39-5.42,7.42-1.11,3.47-1.72,7.12-3,10.53-1.39,3.71-3.03,7.38-5.03,10.8-3.59,6.13-9.37,9.22-16.21,10.51-1.43.27-2.85.57-4.47.9,4.55,10.03-.28,16.34-8.94,22,8.09,0,14.99.04,21.9-.04,1.13-.01,2.27-.48,3.37-.84,5.78-1.94,7.22-5.07,5.46-12.87,1.18.84,2.13,1.28,2.76,2.01,3.75,4.3,4.33,9.41,2.55,14.5-1.8,5.14-6.21,7.07-11.45,7.27-8.97.33-17.94.66-26.91.99l.07.06ZM258.88,127.48c3.96-.81,5.35-.36,6.87,2.15,1.51,2.5,1.38,4.9-1.06,7.22-1.77,1.68-4.08,2.78-6.1,4.22-1.05.74-2.84,1.06-2.34,3.35,3.63-1.45,7.01-2.74,10.34-4.15,13.14-5.59,23.44-14.41,30.28-27.04,5.87-10.84,8.5-22.65,9.97-34.75.71-5.89.99-11.83,1.47-17.75-2.24,4.45-3.49,9.12-5.57,13.37-1.53,3.13-2.2,5.71.13,8.55.1.12-.21.56-.3.77-1.88.54-3.71,1.07-5.62,1.62.84,2.35,1.49,4.17,2.32,6.51h-6.76c.64,2.37,1.13,4.19,1.66,6.19-2.58.19-4.77.36-7.08.53.86,2.74,1.53,4.86,2.2,7.01h-8.04c.74,2.71,1.36,5,1.99,7.32-2.66-.64-4.75-1.14-7.19-1.73.69,3.17,1.2,5.54,1.79,8.21-2.76-.54-3.87-4.13-7.02-2.53.35,2.37.68,4.6,1.07,7.24-1.14-.46-1.77-.64-2.34-.96-4.8-2.72-8.99-2.4-13.34,1.01-2.58,2.03-3.72,4.66-3.17,7.89.38,2.2,2.4,3.7,4.29,3.26,2.25-.52,2.75-2.26,2.51-4.23-.13-1.11-.63-2.18-.97-3.27ZM255.81,145.64c-.18-.15-.35-.3-.53-.45-.11.26-.31.52-.31.79,0,.15.32.3.49.45.12-.26.23-.53.35-.79Z"/><path class="cls-2" d="M214.86,140.95c0,5.03,0,10.06,0,15.09l.07-.07c-8.12.46-16.23,1.06-24.26-.94-5.09-1.27-9.72-3.48-13.74-6.82-6.53-5.43-9.33-12.42-7.99-20.87.72-4.55,3.34-7.9,7.35-10.12,1.14-.63,2.42-1.01,3.84-1.59-1.39-3.16-4.26-4.02-6.86-4.5-5.36-.99-10.81-1.73-16.25-1.98-2.81-.13-3.92-.94-4.05-3.64-.24-5.2.14-10.29,1.91-15.23,1.29-3.61,3.75-5.76,7.45-6.65,2.81-.67,4.85.14,6.22,2.64,1.37,2.49,1.23,6.64-.67,7.81-1.02.63-2.84.62-4.03.17-1.08-.4-1.8-1.77-2.76-2.8-.52,7.36,2.81,11.25,9.77,11.58,9.8.48,18.63-8.31,19.09-19.1.13-3.08.58-6.37-2.23-8.41-1.25,2.92-2.16,5.92-3.74,8.5-1.34,2.2-3.78,3.42-6.48,2.85-2.62-.55-4.24-2.33-4.84-5.41,3.95-.46,7.57-1.47,7.89-6.04.21-3.05-.74-5.81-3.93-7.71-1.3,2.41.18,6.56-4.02,6.45-1.25-.03-3.13-.97-3.59-2-1.49-3.37,1.8-4.4,3.8-6.04-4.08-1.88-7.41-1.4-9.9,1.28-2.54,2.74-2.4,4.65.72,9.83-4.33,2.22-7.71.68-7.82-3.96-.23-9.16-.15-18.33-.06-27.49.03-2.78,1.69-4.18,4.83-4.69,3.03-.5,6.18.6,7.1,2.49,1.59,3.23.08,5.21-4.38,5.73,1.27,3.02,4.62,4.97,7.61,4.43,2.75-.5,3.72-2.03,3.88-6.03.05-1.32,0-2.69.33-3.94.17-.61,1.16-1.38,1.75-1.36.6.02,1.49.82,1.69,1.46.33,1.08.27,2.29.28,3.45.02,4-.06,8,.02,12,.12,6.16,3.92,9.68,10.07,9.92,5.67.22,10.57-3.92,10.1-9.73-.31-3.81-.08-7.66-.05-11.49,0-1.16-.1-2.41.31-3.44.39-.98,1.3-2.32,2.11-2.42,1.11-.13,2.79.44,3.44,1.3,1.48,1.98,2.54,4.3,1.23,6.91-.67,1.33-1.25,2.69-1.98,4.26,3.69,1.67,6.91-.86,10.77-.6v33.25c10.54-4.04,18.28-10.13,22.12-20.27,3.17-8.38,5.68-17.02,8.95-25.36,3.72-9.51,8.67-18.37,16.32-25.41,8.25-7.6,17.82-9.04,28.31-5.83.59.18,1.11.59,2.41,1.3-2.45,0-4.03.05-5.6,0-9.18-.31-15.85,4.09-21.07,11.2-.49.67-1.02,1.37-1.24,2.15-.34,1.22-.42,2.51-.61,3.77,1.38.09,2.85.54,4.12.21,4.18-1.06,8.28-2.4,12.42-3.62,1.52-.45,3.06-.83,5.12-1.39-1.44,3.83-4.17,5.4-6.96,6.78-5.36,2.66-10.82,5.11-16.22,7.7-4.14,1.99-5.95,5.41-6.23,10.45,9.5.57,16.8-4.48,25.22-7.66-.8,3.9-2.9,6.65-5.85,8.41-4.99,2.97-10.23,5.51-15.4,8.16-2.07,1.06-4.26,1.87-6.34,2.91-3.08,1.53-4.58,4.32-5.32,7.48-.63,2.66.43,3.59,3.19,3.2,7.09-1,13.1-4.65,19.29-7.86.96-.5,1.91-1.03,3.39-1.83-.18,3.39-1.64,5.59-3.12,7.71-5.31,7.61-12.68,12.85-21.06,16.27-11.05,4.51-22.42,8.22-33.67,12.25-.43.15-.96.02-1.98.02v-10.59c-9.5,3.87-18.26,7.36-24.32,15.21-.98,1.27-1.71,2.91-2.01,4.49-1.3,6.68-2.32,13.34-1.11,20.24,1.23,7.03,5.54,11.05,11.97,12.45,4.96,1.08,10.21.85,15.32,1.21,0,0-.07-.08-.07-.08Z"/><path class="cls-1" d="M166.79,310.72c.88-1.63,1.65-3.04,2.64-4.87,1.95,5.16,1,6.99-2.88,6.41-10.68-1.59-21.34-3.3-31.95-5.33-9.46-1.81-18.83-4.09-28.24-6.2-.78-.17-1.51-.57-2.64-1,.2-3.01.43-5.97.57-8.93.18-3.98.36-7.97.34-11.96,0-.61-1.13-1.22-1.74-1.83-.39.63-1.04,1.22-1.12,1.89-.79,6.58-1.48,13.17-2.27,20.38-14.88-1.65-29.73-2.16-44.42,2.72,0-6.01-.07-11.82.03-17.62.05-3.16.58-6.31.53-9.46-.07-4.5,2.27-7.29,6.11-8.78,2.76-1.07,5.75-1.95,8.68-2.08,11.32-.51,22.64-.66,33.69,2.59,1.91.56,3.89,1.13,5.85,1.21,5.96.24,8.54,4.82,8.96,9.59.26,2.94-.28,5.96-.47,8.94-.22,3.48-.6,6.96-.6,10.44,0,1.44.79,2.88,1.22,4.32.38-.06.77-.12,1.15-.17.44-3.33.73-6.7,1.34-10,1.18-6.42,2.44-12.79-.62-19.07-.17-.34.15-.92.33-1.82,16.85,2.69,33.61,5.37,50.91,8.13-3.38,3.77-3.89,7.66-2.76,11.98.3,1.15-.43,2.56-.59,3.86-.17,1.4-.67,2.98-.23,4.19.96,2.63.19,4.44-1.64,6.26-1.48,1.47-3.19,3.12-.22,6.2ZM109.93,300.15c1.06-1.44,1.75-1.95,1.74-2.43-.25-6.11-.56-12.22-1-18.33-.04-.5-1.07-.93-1.64-1.39-.38.62-1.07,1.24-1.07,1.87,0,4.15,0,8.32.3,12.45.18,2.33.96,4.61,1.67,7.82ZM111.61,273.91c.14-.45.27-.9.41-1.35-1.38-.88-2.72-2.39-4.16-2.5-3.88-.32-7.81-.1-11.72.07-.47.02-.89,1.06-1.33,1.63.61.4,1.19,1.06,1.85,1.14,3.26.42,6.53.75,9.8.99,1.71.13,3.44.02,5.16.02ZM98.61,276.6c-3.82,2.48-6.34,13.09-4.75,19.19,3.24-6.27,4.3-12.24,4.75-19.19Z"/><path class="cls-1" d="M374.93,302c-16.34-5.08-32.47-4.56-48.99-1.83-.83-5.73-1.61-11.06-2.42-16.63,1.77-.37,3.1-.46,4.27-.96.58-.25,1.22-1.26,1.16-1.87-.05-.58-.89-1.24-1.54-1.55-.54-.27-1.32-.18-1.97-.1-2.33.3-3.32-.79-3.6-3.02-.16-1.3-.57-2.62-1.15-3.79-.28-.57-1.2-.82-1.83-1.22-.36.66-1.09,1.36-1.03,1.98.2,2.12.67,4.21,1.09,6.59-1.67.76-3.29,1.5-5.35,2.45-.96-3.85-2.43-7.2-7.63-5.66,1.52-2.31,2.53-4.06,3.78-5.62.55-.69,1.52-1.27,2.4-1.44,14.82-2.91,29.53-6.84,44.85-5.39,3.44.33,6.91.96,10.22,1.95,4.61,1.38,7,4.52,7.01,9.64.01,7.31.47,14.62.72,21.93.05,1.45,0,2.91,0,4.55Z"/><path class="cls-1" d="M254.88,313.29c-2.57-5.23-4.87-9.77-7-14.39-.32-.7-.11-2.01.37-2.65,1.18-1.56,2.66-2.89,4.43-4.74.48,1.42.64,2.37,1.1,3.14.42.7,1.16,1.22,1.76,1.81.45-.77,1.26-1.53,1.3-2.32.3-6.04-4-11.15-10.13-12.22-.64-.11-1.27-.28-1.88-.42-.33-2.15,1.18-2.19,2.45-2.36,8.07-1.07,16.15-2.02,24.21-3.16,5.92-.83,11.8-1.9,17.7-2.83,2.92-.46,5.86-1.12,7.85,2.18.4.66,1.73.76,2.65,1.13-4.66,5.83-3.62,10.17,3.18,11.87-.81.37-1.35.53-1.77.85-.34.26-.54.7-1.05,1.41,1.74.25,3.13.44,4.98.71-2.01.77-3.65,1.4-5.28,2.02l.13,1.37c2.12.13,4.25.25,6.77.4-1.39.86-2.51,1.55-3.98,2.46,3.4,2.73,5.73-.8,9.13-.68.43,1.67.93,3.56,1.52,5.83-19.72,4.99-38.98,9.01-58.43,10.59Z"/><path class="cls-1" d="M174.13,309.79c1.92-.59,4.44,1.57,4.97-1.15.25-1.3-1.35-3.04-2.28-4.47-.5-.76-1.36-1.27-2.79-2.55,1.7-.12,2.55-.35,3.31-.19,1.62.33,3.17,1.09,4.79,1.27,3.31.37,6.06-1.14,6.59-4.02,1.12-5.96,3.96-11.74,1.73-18.53,3.03.23,5.62.61,8.21.58,12.8-.14,25.59-.43,38.39-.56.93,0,1.87.74,2.8,1.14-.58.67-1.04,1.57-1.77,1.96-4.6,2.45-7.52,7.64-6.91,13.15.14,1.22,1.32,2.32,2.02,3.48.75-.97,1.49-1.94,2.49-3.24.42.06,1.25.04,1.98.29,3.75,1.28,3.72,1.51,2.9,5.27-.81,3.7-1.26,7.49-1.99,11.92-1.3.2-3.02.7-4.74.68-17.96-.26-35.91-.59-53.87-.95-1.48-.03-2.98-.31-4.44-.63-1.44-.32-1.43-.41-1.4-3.48Z"/><path class="cls-1" d="M51.59,285.79c0,2.54-.03,4.18,0,5.82.11,5.46.03,10.94.45,16.39.33,4.29,2.73,6.47,7.19,6.84,3.3.27,6.64.02,9.97-.01,2.16-.02,4.32-.13,6.48-.06,1.46.05,3.46.03,3.26,2.08-.14,1.42-1.12,3.66-2.14,3.91-2.98.76-6.24,1.26-9.25.85-5.07-.68-10.11-1.9-15.04-3.3-9.76-2.76-19.63-4.9-29.72-5.92-6.38-.65-12.57.06-18.76,3.07-.21-1.42-.51-2.49-.49-3.56.07-5.99.1-11.97.36-17.95.27-6.18,2.97-9.74,8.99-10.84,4.69-.85,9.61-1.3,14.34-.87,8.06.73,16.05,2.29,24.36,3.55Z"/><path class="cls-1" d="M378.02,286.25c10.47-2.32,20.38-4.34,30.58-4.25,1.33.01,2.69-.06,3.98.17,7.62,1.36,13.75,2.35,13.49,14.81-.12,5.95-.02,11.91-.02,18.27-2.58-.81-4.85-1.63-7.17-2.23-6.96-1.79-13.94-.68-20.75.66-10.07,1.98-20.01,4.66-30.04,6.89-3.22.72-6.54,1.07-9.84,1.34-1.44.12-2.95-.31-4.38-.67-2.26-.56-3.38-2.1-3.1-4.42.29-2.38,2.33-2.08,3.88-2.08,4.32-.01,8.64.26,12.96.25,7.72-.03,9.95-1.93,10.33-9.52.31-6.26.06-12.55.06-19.22Z"/><path class="cls-1" d="M82.97,301.88c11.8-.35,22.73,2.18,34.32,4.75-5.65,5.58-11.87,9.32-18.2,12.81-17.77,9.78-36.79,15.21-57.12,15.9-8.83.3-17.67.4-26.14-2.51-3.24-1.11-6.44-2.81-9.15-4.9-3.88-3.01-3.56-7.36.72-9.8,2.34-1.33,5.31-2.01,8.03-2.15,10.75-.55,21.15,1.73,31.48,4.45,5.14,1.36,10.3,2.65,15.49,3.78,2.58.56,5.25.84,7.9.96,8.68.42,12.84-1.39,13.42-12.91.16-3.27-.44-6.57-.74-10.39Z"/><path class="cls-1" d="M312.34,306.57c12-2.39,22.94-5.22,34.75-4.6-.3,1.82-.75,3.24-.72,4.66.08,3.8,0,7.66.65,11.37.83,4.66,3.56,7.08,8.35,7.01,5.44-.08,10.95-.61,16.29-1.66,10.42-2.04,20.7-4.81,31.13-6.79,4.36-.83,8.95-.52,13.43-.49,1.61.01,3.32.5,4.81,1.15,5.51,2.4,6.2,7.62,1.52,11.33-5.14,4.08-11.32,5.8-17.62,6.33-33.38,2.83-63.59-5.6-90.25-26.14-.61-.47-1.14-1.04-2.36-2.16Z"/><path class="cls-1" d="M329.91,262.35c-14.67,2.69-28.01,5.14-41.5,7.61-6.1-10.88-9.32-21.92-6.33-34.15,1.25-5.12,7.42-8.14,13.18-6.36,4.33,1.34,7.39,4.37,10.17,7.75,1.03,1.25,2.02,2.52,3.37,4.22,2.82-3.01,5.28-5.63,8.33-8.89,1.1,11.18,4.08,21.05,12.77,29.81Z"/><path class="cls-1" d="M100.39,261.96c8.02-8.53,11.46-18.03,12.05-29.7,3.19,3.46,5.57,6.05,8.35,9.06,1.19-1.31,2.08-2.41,3.09-3.39,2.49-2.4,4.76-5.2,7.63-7.03,7.23-4.59,14.31-1.49,16.43,6.76,2.31,8.99.17,17.43-3.16,25.7-.86,2.14-2.06,4.13-3.24,6.46-13.57-2.47-27.16-4.15-41.15-7.87Z"/><path class="cls-1" d="M140.84,225.23c-9.33-.29-14.68,4.6-19.97,10.65-2.03-2.18-3.96-4.14-5.77-6.21-6.12-7.01-12.2-14.04-18.28-21.08-2.3-2.66-2.43-3.3-.13-5.87,4.91-5.49,11.01-8.5,18.52-7.83,1.33.12,3.01.82,3.79,1.82,7.14,9.13,14.11,18.38,21.84,28.52Z"/><path class="cls-1" d="M309.12,236.03c-5.45-6.16-10.78-11.1-19.48-10.82.76-1.37,1.16-2.36,1.78-3.19,5.72-7.54,11.76-14.86,17.1-22.66,2.81-4.1,6.14-5.17,10.55-4.46,5.79.93,10.66,3.61,14.37,8.18.99,1.21,2.17,2.59.59,4.39-8.2,9.35-16.35,18.74-24.91,28.56Z"/><path class="cls-2" d="M214.94,15.03c.03-.5.04-.99.1-1.49.4-3.68.66-3.85,4.32-2.85,7.8,2.13,13.02,8.76,13.45,17.1.53,10.22-7.41,21.37-17.87,24.64v-12.47l-.07.07c9.16-2.99,11.94-15.11,4.91-21.72-1.43-1.34-3.26-2.25-4.91-3.36,0,0,.06.08.06.08Z"/><path class="cls-2" d="M214.87,107.03c2.98-.05,5.98-.26,8.95-.11,4.5.22,7.75,2.82,8.7,6.97.97,4.28,1.46,8.93.9,13.25-1.1,8.55-6.42,13-15.07,13.79-1.15.1-2.32.02-3.48.02l.07.08c0-3.69,0-7.38.01-11.07l-.07.07c.83.01,1.67.13,2.49.03,5.59-.69,8.49-3.89,8.41-9.22-.08-5.43-2.4-7.87-8.24-8.7-.77-.11-1.53-.27-2.34-.42-.1-1.8-.17-3.28-.25-4.76,0,0-.07.07-.07.07Z"/><path class="cls-2" d="M214.95,129.96c-3.15-.03-6.33.21-9.44-.14-5.39-.62-7.49-3.15-7.68-8.55-.41-11.61,4.58-17.93,17.05-21.19v6.95l.07-.07c-7.04,2.89-10.52,8.33-8.6,13.88,2.76-2.59,2.92-7.91,8.53-7.59v16.78l.07-.07Z"/><path class="cls-2" d="M214.94,169.97c-6.47-.05-12.93-.17-19.4-.14-3.64.02-5.47,1.24-5.79,3.47-.32,2.22,1.06,3.98,4.29,5.38.85.37,1.75.63,2.54,1.3-3.88.75-7.66.52-10.92-1.88-3.35-2.47-3.86-7.64-.85-10.52,1.69-1.62,4.14-3.31,6.32-3.42,7.73-.41,15.5-.16,23.72-.16v6.04l.08-.07Z"/><path class="cls-1" d="M350.02,311.53c-.61-9.41.47-10.49,9.34-9.33,3.12.41,6.22.97,9.29,1.6,1.28.26,2.69.65,3.64,1.45.88.74,1.8,2.19,1.66,3.19-.13.98-1.44,2.32-2.45,2.55-2.22.5-4.57.5-6.87.53-4.78.07-9.56.02-14.62.02Z"/><path class="cls-1" d="M80.17,311.5c-5.34,0-10.1.04-14.86-.02-2.3-.03-4.64,0-6.87-.47-1.03-.22-2.54-1.58-2.54-2.43,0-1.19.99-2.6,1.95-3.52.76-.73,2.08-1.04,3.2-1.2,4.75-.71,9.5-1.46,14.27-1.89,3.35-.3,3.95.35,4.49,3.77.28,1.78.24,3.6.36,5.75Z"/><path class="cls-1" d="M176.28,278.69c4.32.42,7.69.74,10.78,1.03,0,2.74.11,5-.04,7.25-.11,1.69-.33,3.41-2.99,2.63-.79-.23-2.43.41-2.79,1.11-.84,1.65.69,2.35,1.96,2.77,2.2.73,3.57,1.78,2.46,4.35-1.2,2.77-3.28,3.16-5.41.94-3-3.13-2.95-7.09-2.17-10.82.65-3.09.68-5.82-1.8-9.25Z"/><path class="cls-1" d="M317.21,301.22c-2.32-5.21-.67-12.26-8.75-14.85,2.74-.52,4.61-1.09,6.51-1.2,5.37-.31,5.42-.25,6.36,4.82.42,2.26.61,4.57.89,6.86q.48,3.88-3.64,4.36c-.32.04-.66,0-1.38,0Z"/><path class="cls-2" d="M159.04,124.88c.06,4.15-3.45,7.72-7.5,7.63-4.31-.09-7.71-3.42-7.69-7.54.02-4.13,2.96-6.98,7.33-7.09,4.68-.12,7.8,2.65,7.86,7ZM151.23,120.16c-2.82.15-4.78,2.48-4.51,5.38.23,2.55,2.55,4.5,5.09,4.3,2.43-.2,4.81-2.61,4.79-4.87-.02-2.41-2.85-4.95-5.36-4.81Z"/><path class="cls-1" d="M242.27,313.76c.62-4.1,1.18-7.79,1.89-12.52,4.91,3.52,4.68,8.12,6.27,12.52h-8.17Z"/><path class="cls-1" d="M241.12,288.8c3.01.54,2.5-2.31,3.37-3.67,2.91-.52,4.95.41,6.66,3.25-1.09.88-2.17,1.74-3.25,2.6l.04.04c-.07-1.06-.14-2.13-.25-3.86-1.5,1.26-2.54,2.18-3.62,3.02-1.43,1.12-2.65.92-3.56-.71.2-.23.4-.46.62-.67Z"/><path class="cls-1" d="M173.49,292.41c1.06,2.29,1.93,3.6,2.21,5.03.12.62-.95,1.48-1.48,2.23-.98-1.17-2.23-2.23-2.8-3.58-.24-.58.93-1.76,2.06-3.68Z"/><path class="cls-1" d="M244.96,294.04c-2.96,1.82-7.23.6-8.78-2.6,2.88.8,5.71,1.58,8.53,2.37l.25.23Z"/><path class="cls-1" d="M174.61,288.26c-1.09-1.5-2.16-2.33-2.17-3.16,0-.77,1.14-1.54,1.78-2.31.6.65,1.64,1.26,1.7,1.96.07.9-.64,1.86-1.31,3.52Z"/><path class="cls-1" d="M310.02,283.39c-.68.47-1.16,1.01-1.67,1.06-.33.03-.74-.67-1.11-1.04.5-.33.97-.79,1.52-.93.27-.07.68.47,1.26.91Z"/><path class="cls-1" d="M302.29,283.66c.27.48.69.91.6,1.12-.14.32-.66.72-.96.68-.3-.04-.52-.59-.78-.91.33-.25.65-.5,1.14-.88Z"/><path class="cls-1" d="M303.13,280.03c-.49.44-.77.91-1.08.93-.31.02-.66-.4-.99-.62.27-.33.48-.82.83-.94.25-.09.67.32,1.24.63Z"/><path class="cls-1" d="M308.31,278.88c-.62.43-.99.89-1.28.84-.29-.05-.55-.57-.7-.94-.04-.09.43-.55.64-.53.36.03.7.31,1.33.63Z"/><path class="cls-1" d="M298.29,272.1c.92-.37,1.33-.69,1.71-.65.3.03.62.46.79.79.07.13-.29.67-.41.66-.4-.05-.77-.27-2.1-.8Z"/><path class="cls-1" d="M240.5,289.48c-.45-.58-.9-1.15-1.31-1.75-.03-.04.38-.36.58-.55.45.54.9,1.09,1.35,1.63-.22.21-.42.44-.62.67Z"/><path class="cls-1" d="M246.95,292.04c.33-.34.66-.68.98-1.01l-.04-.04c-.34.33-.68.65-1.02.98,0,0,.07.08.07.08Z"/><path class="cls-1" d="M245.96,293.04c.33-.34.66-.67,1-1.01,0,0-.07-.08-.07-.08-.33.33-.67.66-1,1l.08.09Z"/><path class="cls-1" d="M245.88,292.96c-.31.36-.61.72-.92,1.09l-.25-.23c.42-.26.83-.51,1.25-.77l-.08-.09Z"/><path class="cls-2" d="M304.5,18.42c-.2-.47-.39-.94-.59-1.42h0c.41.25.82.51,1.23.76-.21.22-.43.44-.65.66Z"/><path class="cls-2" d="M303.91,17c-.25-.12-.51-.25-.76-.37.26.12.51.25.77.37,0,0,0,0,0,0Z"/><polygon class="cls-3" points="305.63 270.54 305.3 270.65 305.34 270.36 305.63 270.54"/><path class="cls-4" d="M891.92,62.56c-3.01.6-2.37-3.27-4.91-3.79-.54,1.08-1.12,2.26-1.9,3.84-1.92-3.15-.8-6.17-1.07-9.54h7.88s-.08-.06-.08-.06c.11,1.49.88,3.79.22,4.33-2.16,1.77-.35,3.19-.18,4.74-.13.18-.12.34.04.49ZM890.28,56.76l.36-1.98c-1.37-.02-2.75-.07-4.12,0-.1,0-.25,1.21-.23,1.21,1.32.3,2.65.54,3.98.78Z"/><path class="cls-6" d="M134.44,137.42c.65,5,1.22,9.36,1.78,13.66-11.92,2.81-13.42,3.88-19.27,13.85-2.32-6.19-3.18-12.1.04-17.55,3.72-6.3,10.26-8.34,17.45-9.96Z"/><path class="cls-6" d="M214.88,14.95c1.65,1.11,3.48,2.02,4.91,3.36,7.03,6.61,4.25,18.73-4.91,21.72,0-8.36,0-16.72,0-25.08Z"/><path class="cls-6" d="M258.88,127.48c.34,1.1.84,2.16.97,3.27.23,1.97-.26,3.71-2.51,4.23-1.89.43-3.92-1.06-4.29-3.26-.55-3.23.59-5.87,3.17-7.89,4.35-3.42,8.54-3.73,13.34-1.01.56.32,1.2.5,2.34.96-.39-2.64-.72-4.87-1.07-7.24,3.15-1.6,4.26,1.99,7.02,2.53-.58-2.67-1.1-5.03-1.79-8.21,2.44.59,4.53,1.09,7.19,1.73-.63-2.33-1.26-4.62-1.99-7.32h8.04c-.67-2.15-1.34-4.27-2.2-7.01,2.31-.17,4.5-.34,7.08-.53-.54-1.99-1.03-3.82-1.66-6.19h6.76c-.83-2.34-1.48-4.15-2.32-6.51,1.91-.55,3.74-1.08,5.62-1.62.09-.21.39-.66.3-.77-2.34-2.84-1.66-5.42-.13-8.55,2.08-4.26,3.32-8.93,5.57-13.37-.48,5.92-.75,11.86-1.47,17.75-1.46,12.1-4.1,23.91-9.97,34.75-6.84,12.64-17.14,21.45-30.28,27.04-3.32,1.41-6.7,2.7-10.34,4.15-.49-2.29,1.3-2.6,2.34-3.35,2.02-1.44,4.33-2.54,6.1-4.22,2.43-2.32,2.57-4.72,1.06-7.22-1.52-2.51-2.91-2.96-6.87-2.15Z"/><path class="cls-6" d="M255.81,145.64c-.12.26-.23.53-.35.79-.17-.15-.49-.3-.49-.45,0-.26.19-.52.31-.79.18.15.35.3.53.45Z"/><path class="cls-6" d="M109.93,300.15c-.71-3.21-1.49-5.49-1.67-7.82-.31-4.14-.31-8.3-.3-12.45,0-.62.7-1.24,1.07-1.87.57.46,1.6.89,1.64,1.39.43,6.1.75,12.21,1,18.33.02.48-.68.99-1.74,2.43Z"/><path class="cls-6" d="M111.61,273.91c-1.72,0-3.45.11-5.16-.02-3.27-.24-6.54-.57-9.8-.99-.65-.08-1.23-.75-1.85-1.14.44-.57.87-1.61,1.33-1.63,3.91-.17,7.84-.39,11.72-.07,1.45.12,2.78,1.63,4.16,2.5-.14.45-.27.9-.41,1.35Z"/><path class="cls-6" d="M98.61,276.6c-.44,6.95-1.5,12.92-4.75,19.19-1.59-6.09.92-16.7,4.75-19.19Z"/><path class="cls-6" d="M214.87,130.03v-16.78c-5.61-.32-5.77,5-8.53,7.59-1.92-5.55,1.56-10.99,8.6-13.88.08,1.48.16,2.96.25,4.76.81.15,1.57.31,2.34.42,5.84.83,8.16,3.27,8.24,8.7.08,5.33-2.82,8.53-8.41,9.22-.82.1-1.66-.01-2.49-.03Z"/><path class="cls-6" d="M151.23,120.16c2.51-.14,5.34,2.4,5.36,4.81.02,2.25-2.36,4.67-4.79,4.87-2.54.21-4.85-1.75-5.09-4.3-.26-2.89,1.69-5.22,4.51-5.38Z"/></g></svg>