<?xml version="1.0" encoding="UTF-8"?><svg id="Layer_2" xmlns="http://www.w3.org/2000/svg" viewBox="0 0 3187.21 774.81"><defs><style>.cls-1{fill:#14396a;}.cls-1,.cls-2,.cls-3,.cls-4,.cls-5,.cls-6,.cls-7,.cls-8,.cls-9,.cls-10,.cls-11,.cls-12,.cls-13,.cls-14,.cls-15,.cls-16,.cls-17,.cls-18,.cls-19,.cls-20,.cls-21,.cls-22,.cls-23,.cls-24,.cls-25,.cls-26,.cls-27,.cls-28,.cls-29,.cls-30,.cls-31,.cls-32,.cls-33,.cls-34,.cls-35,.cls-36,.cls-37{stroke-width:0px;}.cls-2{fill:#7fb439;}.cls-3{fill:#143a6b;}.cls-4{fill:#7cb138;}.cls-5{fill:#699852;}.cls-6{fill:#77aa43;}.cls-7{fill:#d7ad27;}.cls-8{fill:#7db238;}.cls-9{fill:#2e556c;}.cls-10{fill:#7eb338;}.cls-11{fill:#568161;}.cls-12{fill:#4d7866;}.cls-13{fill:#517d63;}.cls-14{fill:#7eb439;}.cls-15{fill:#58865f;}.cls-16{fill:#70a24a;}.cls-17{fill:#20496c;}.cls-18{fill:#5c8b5d;}.cls-19{fill:#1c436d;}.cls-20{fill:#689852;}.cls-21{fill:#264f6d;}.cls-22{fill:#59865f;}.cls-23{fill:#578360;}.cls-24{fill:#72a349;}.cls-25{fill:#39626b;}.cls-26{fill:#6e9e48;}.cls-27{fill:#527e63;}.cls-28{fill:#143a6c;}.cls-29{fill:#345c6c;}.cls-30{fill:#77aa42;}.cls-31{fill:#173e6d;}.cls-32{fill:#619058;}.cls-33{fill:#5d8a56;}.cls-34{fill:#416b6a;}.cls-35{fill:#416c6a;}.cls-36{fill:#497468;}.cls-37{fill:#497368;}</style></defs><g id="Layer_1-2"><path class="cls-7" d="M2015.64,536.39c-386.98,0-773.96,0-1160.94,0-7.97,0-10.54-1.55-10.6-6.4-.06-4.93,2.56-6.6,10.4-6.6,774.12,0,1548.25,0,2322.37,0,1.5,0,3.06-.26,4.49.07,3.18.72,5.71,1.93,5.84,6.08.13,4.28-2.14,5.99-5.64,6.77-1.59.35-3.32.08-4.99.08-386.98,0-773.96,0-1160.94,0Z"/><path class="cls-14" d="M406.05,339.92c-1.23-1.67-2.32-3.48-3.74-4.98-1.46-1.54-3.23-2.77-5.42-4.59,7.55-4.32,14.63-8.57,21.96-12.33.98-.5,3.58,1.09,4.81,2.33,14.95,15.09,23.82,33.36,25.67,54.39,3.45,39.31-9.13,71.78-44.23,92.48-36.66,21.62-73.95,42.15-110.96,63.16-14.6,8.29-29.16,16.66-43.82,24.87-2.63,1.47-3.76,3.15-3.75,6.26.09,45.99.03,91.99.18,137.98,0,1.92,1.21,4.72,2.73,5.61,23.23,13.63,46.6,27.02,69.95,40.45.67.39,1.41.66,2.85,1.33.12-2.67.29-4.73.29-6.79.02-41.49.07-82.99-.08-124.48-.01-3.86,1.18-5.91,4.55-7.79,13.94-7.77,27.77-15.75,41.47-23.94,3.6-2.15,6.3-2.25,9.83.06,6.06,3.96,12.45,7.4,19.42,11.48-12.6,7.39-24.06,15.16-36.42,21.05-11.13,5.31-15.01,12.12-14.62,24.82,1.11,35.46.39,70.98.38,106.47,0,18.94-19.28,31-35.86,21.8-26.02-14.44-51.66-29.57-77.4-44.51-8.77-5.09-12.21-13.31-12.22-23.04-.07-47.66-.06-95.32-.01-142.98,0-10.69,4.55-18.76,14.01-24.13,45.54-25.86,91.04-51.79,136.53-77.74,8.94-5.1,17.85-10.28,26.61-15.69,2.1-1.3,3.55-3.64,5.31-5.5.35.01.69.02,1.04.03l.92-19.62c4.11-.16,8.22-.32,12.33-.48,1.65-6,3.31-12,4.96-18-5.76-.15-11.53-.3-17.29-.45,0-6.36,0-12.71,0-19.07,5.75-.15,11.5-.31,17.25-.46,2.12-6.76-.67-12.43-3.96-17.99-4.43-.16-8.86-.32-13.29-.48,0-6.36,0-12.71,0-19.07.18-.19.19-.33.03-.44Z"/><path class="cls-28" d="M423.27,377.89c-5.75.15-11.5.31-17.25.46-1.32,0-2.64,0-3.96,0-1.35,0-2.71.01-4.07.02-1.64,0-3.28.02-4.92.02-1.68,0-3.37.01-5.05.02l-3.95.04c-1.33,0-2.66.02-3.99.03-1,0-1.99,0-2.99,0-1.33,0-2.66.01-3.99.02-1.66,0-3.33,0-4.99,0-1.33,0-2.67,0-4,0-1.66,0-3.33,0-4.99,0-1.33,0-2.66,0-3.99,0-1.33,0-2.66,0-3.99,0-1.33,0-2.67,0-4,0-1.33,0-2.67,0-4,0-5.12,1.17-3.1,5.43-2.81,8.1.39,3.56-3.13,8.5,2.81,10.63,1.33,0,2.67,0,4,0,1.33,0,2.67,0,4,0,1.33,0,2.66,0,3.99,0,1.33,0,2.66,0,3.99,0,1.66,0,3.33,0,4.99,0,1.33,0,2.67,0,4,0,1.66,0,3.33,0,4.99,0,1.33,0,2.66.01,3.99.02,1,0,1.99,0,2.99,0l3.99.03,3.95.04c1.68,0,3.37.01,5.05.02,1.64,0,3.28.02,4.92.02,1.35,0,2.71.01,4.06.02,1.32,0,2.64,0,3.96,0,5.76.15,11.53.3,17.31.45-28.12,0-56.26,0-84.4,0-5.39,0-10.79,0-16.54,0,.31,2.34.36,3.82.71,5.24,3.71,15.22,1.69,12.85,16.33,12.77,26.31-.13,52.62-.03,78.93-.02-4.11.16-8.22.32-12.33.48-.99,0-1.99,0-2.98,0-1.67.01-3.35.02-5.02.04-1.32,0-2.65,0-3.97.01-1.33,0-2.66.02-3.99.03-1,0-1.99,0-2.99.01-1.33,0-2.66.02-3.99.03-1,0-2,0-3,.01-1,0-1.99,0-2.99,0-1.33,0-2.66.01-3.99.02-1.66,0-3.33,0-4.99,0-1.33,0-2.67,0-4,0-1.66,0-3.33,0-4.99,0-1.33,0-2.66,0-3.99,0-1.33,0-2.66,0-4,0-1.33,0-2.67,0-4,0-1.33,0-2.67,0-4,0-5.12,1.18-3.1,5.43-2.81,8.1.39,3.56-3.13,8.5,2.81,10.62,1.33,0,2.67,0,4,0h4c1.33,0,2.66-.01,4-.01,1.33,0,2.66,0,3.99,0,1.66,0,3.33,0,4.99.01,1.33,0,2.67,0,4,0,1.66,0,3.33,0,4.99,0,1.33,0,2.66.01,3.99.02,1,0,1.99,0,2.99,0,1,0,2,0,3,.01,1.33,0,2.66.02,3.99.03,1,0,1.99,0,2.99.01,1.33,0,2.66.02,3.99.03,1.32,0,2.65,0,3.97.01,1.67.01,3.35.02,5.02.04.69.19,1.37.37,2.06.56-.34,0-.69-.02-1.04-.03-19.33.05-38.65.1-57.97.15-1.92,0-3.85,0-5.77,0-.22.43-.43.86-.65,1.29,2.34,1.74,4.67,3.49,8.14,6.07-8.6,4.83-15.55,8.88-22.7,12.55-.8.41-2.99-1.02-4.04-2.08-8.48-8.57-14.2-18.86-17.96-30.22-11.71-35.36-7.79-68.34,15.74-97.99,8.84-11.14,20.79-18.64,32.94-25.63,47.62-27.43,95.28-54.77,143.04-81.94,4.07-2.32,5.38-4.88,5.36-9.41-.16-44.66-.17-89.31.02-133.97.02-4.49-1.5-6.84-5.27-8.99-21.57-12.26-43-24.77-64.48-37.18-1.71-.99-3.5-1.84-6.06-3.17-.12,2.44-.28,4.32-.29,6.19-.01,41.32-.08,82.65.08,123.97.02,4.51-1.16,7.21-5.29,9.48-13.57,7.46-26.96,15.25-40.25,23.19-3.75,2.24-6.75,2.51-10.52.07-6.08-3.93-12.49-7.36-19.59-11.48,13.83-8.03,26.72-15.61,39.71-23.02,11.49-6.55,11.54-6.47,11.54-19.75,0-36.32.54-72.66-.23-108.97-.38-17.54,18.79-32.06,37.13-21.6,23,13.12,45.88,26.44,68.82,39.67,2.31,1.33,4.64,2.63,6.93,3.97,9.16,5.38,12.61,13.87,12.63,23.97.07,47.16.05,94.31.02,141.47,0,11.45-4.87,19.77-15.11,25.59-49.21,27.99-98.3,56.2-147.3,84.56-7.67,4.44-14.67,10.02-21.98,15.08.26.69.51,1.39.77,2.08,21.54,0,43.08,0,64.6,0,.14.11.13.25-.05.44-1.33,0-2.65.01-3.98.02-1.34,0-2.68.01-4.02.02-1.65,0-3.3,0-4.95,0-1.35,0-2.7,0-4.05,0-1.31.02-2.62.03-3.94.05-.67,0-1.33,0-2,0-1,0-2,.01-3.01.02-1,0-2,0-2.99.01-1,0-2,0-3,0-1.99,0-3.99.02-5.98.03-1.33,0-2.67,0-4,0-1.66,0-3.33,0-4.99,0h-4c-1.33,0-2.66,0-3.99,0-1.33,0-2.67,0-4,0-1.33,0-2.67,0-4,0-5.12,1.18-3.1,5.43-2.81,8.1.39,3.56-3.13,8.5,2.81,10.63h4c1.33-.01,2.67-.01,4-.02,1.33,0,2.66,0,3.99,0,1.33,0,2.66,0,4,0,1.66,0,3.33,0,4.99,0,1.33,0,2.67,0,4,0,1.99,0,3.99.02,5.98.03,1,0,2,0,3,0h2.99c1,.02,2,.02,3.01.03.67,0,1.33,0,2,0,1.31.02,2.62.03,3.94.05,1.35,0,2.7,0,4.05,0,1.65,0,3.3,0,4.95,0,1.34,0,2.68.01,4.01.02,1.33,0,2.65.01,3.98.02,4.43.16,8.86.32,13.3.48-26.58.01-53.18.12-79.77-.01-14.47-.07-12.32-2.53-16.45,12.76-1.14,4.24.03,5.55,4.43,5.49,24.27-.31,48.54-.43,72.82-.53,7.64-.03,15.28.18,22.92.28Z"/><path class="cls-14" d="M.1,386.89c0-67.49.06-134.98-.09-202.47-.01-6.33,2.57-10.35,7.76-13.34,55.93-32.15,111.85-64.32,167.77-96.48,7.17-4.12,14.67-2.59,18.3,3.62,3.77,6.45,1.39,13.8-6.01,18.06-36.01,20.76-72.04,41.49-108.06,62.22-17.15,9.87-34.26,19.8-51.49,29.53-2.89,1.63-3.72,3.56-3.72,6.74.07,127.98.08,255.96-.02,383.94,0,3.35,1.21,5.05,3.94,6.62,48,27.6,95.95,55.28,143.92,82.94,5.33,3.07,10.68,6.1,15.98,9.22,6.59,3.88,8.88,11.57,5.32,17.55-3.64,6.11-11.12,7.88-17.85,4.01-26.81-15.4-53.59-30.87-80.39-46.31-29.25-16.85-58.49-33.71-87.75-50.53C2.5,599.24-.01,595.19,0,588.86c.16-67.32.1-134.65.1-201.97Z"/><path class="cls-28" d="M740.1,386.95c0,66.66-.1,133.32.13,199.97.03,7.61-2.53,12.34-9.1,16.11-53.16,30.5-106.18,61.23-159.27,91.86-7.46,4.3-15.15,2.64-18.68-3.8-3.39-6.2-1.74-12.98,4.69-16.82,13.29-7.94,26.75-15.61,40.16-23.35,37.35-21.58,74.67-43.2,112.11-64.63,4.01-2.29,5.37-4.92,5.37-9.47-.12-126.82-.12-253.63,0-380.45,0-4.6-1.46-7.06-5.46-9.36-50.26-28.86-100.38-57.95-150.58-86.91-5.05-2.91-8.24-6.8-7.84-12.81.35-5.31,4.11-10.34,9.43-10.87,3.81-.38,8.3.68,11.69,2.55,15.32,8.42,30.36,17.36,45.49,26.11,37.63,21.76,75.21,43.6,112.91,65.23,6.3,3.62,9.1,8.18,9.07,15.67-.22,66.99-.13,133.98-.13,200.97Z"/><path class="cls-14" d="M322.68,25.01c-7.83,4.51-14.56,8.38-21.28,12.25-17,9.8-33.95,19.68-51.02,29.35-2.87,1.63-3.83,3.5-3.82,6.72.09,45.66.11,91.32-.02,136.99-.01,3.75,1.48,5.59,4.53,7.34,30.59,17.52,61.1,35.17,91.64,52.79,2.1,1.21,4.16,2.49,6.78,4.07-8.09,4.57-15.39,8.83-22.86,12.77-1.27.67-3.6.57-4.88-.16-29.58-16.94-59.15-33.9-88.56-51.14-8.32-4.88-11.57-13.06-11.58-22.46-.05-47.83-.06-95.66.01-143.49.02-10.7,4.81-18.52,14.34-23.91,24.31-13.76,48.38-27.93,72.59-41.87,16.09-9.26,33.95-2.39,37.99,14.58.45,1.91.54,3.95.54,5.93.03,39.66-.03,79.33.11,118.99.01,3.5-1.11,5.33-4.1,6.94-6.57,3.53-12.93,7.44-20.4,11.8V25.01Z"/><path class="cls-28" d="M424.06,609.58v140.05c5.57-3.17,10.15-5.75,14.7-8.37,19.04-10.98,38.02-22.06,57.14-32.9,3.2-1.82,4.28-3.91,4.27-7.52-.11-46.15-.11-92.3,0-138.45,0-3.67-1.25-5.65-4.38-7.44-30.2-17.29-60.32-34.73-90.45-52.13-2.28-1.32-4.53-2.71-7.83-4.68,5.66-3.26,10.89-5.68,15.42-9.04,6.41-4.75,11.59-4.55,18.66-.27,26.35,15.95,53.19,31.07,79.92,46.38,8.38,4.8,12.86,11.8,13.39,21.38.11,1.99.18,3.99.18,5.99,0,46.15-.2,92.3.13,138.45.1,13.47-5.08,22.62-16.88,29.17-23.58,13.08-47,26.49-70.1,40.42-20.06,12.09-39.55-3.98-39.11-22.5.93-39.8.33-79.63.2-119.45-.01-3.44.92-5.49,3.98-7.13,6.57-3.54,12.95-7.42,20.75-11.95Z"/><path class="cls-28" d="M954.13,375.24c3.25,1.72,5.93,2.99,8.46,4.5,13.12,7.85,19.17,19.5,18.13,34.7-1.06,15.5-9.01,26.55-22.73,33.42-8.76,4.39-18.2,6.46-28,6.5-22.67.08-45.33-.09-68,.12-4.42.04-5.68-1.28-5.67-5.65.13-47.16.13-94.33,0-141.49-.01-4.39,1.39-5.76,5.74-5.72,20.16.19,40.34-.23,60.49.19,14.9.31,29.15,3.2,40.24,14.59,14.33,14.72,12.81,41.61-3.21,54.52-1.64,1.32-3.3,2.61-5.46,4.32ZM905.58,434.39c6.99,0,14.03.52,20.95-.15,6.53-.64,13.27-1.7,19.32-4.1,7.71-3.06,12.24-9.24,12.62-18.13.38-8.79-3.1-15.21-10.77-19.2-3.06-1.59-6.49-3.22-9.82-3.38-18.9-.91-37.82-1.45-56.74-1.84-.98-.02-2.88,2.47-2.9,3.82-.22,12.97-.07,25.95-.18,38.93-.02,3,1.03,4.13,4.06,4.08,7.82-.14,15.64-.05,23.46-.04ZM904.75,321.48c-.01.2-.03.4-.04.6-7.16,0-14.32.14-21.47-.06-3.81-.11-5.3,1.09-5.22,5.11.22,11.81.22,23.64,0,35.45-.07,3.95,1.28,5.24,5.16,5.18,11.81-.18,23.64.13,35.45-.16,4.93-.12,10-.74,14.73-2.09,11.72-3.35,17.51-11.42,17.02-22.68-.43-9.96-6.61-17.16-18.36-19.22-8.94-1.57-18.17-1.48-27.27-2.13Z"/><path class="cls-28" d="M856.41,181.93c0-23.48.12-46.96-.1-70.44-.04-4.74,1.23-6.29,6.13-6.22,17.81.28,35.65-.29,53.45.2,35.62.98,69.09,24.09,74.55,63.69,6.83,49.54-27.14,85.58-72.54,88.09-18.59,1.03-37.27.48-55.9.89-4.46.1-5.7-1.48-5.67-5.78.16-23.48.08-46.96.08-70.44ZM878.79,181.78c0,16.82.08,33.64-.06,50.46-.03,3.8,1.08,5.37,5.11,5.22,10.97-.42,21.97-.2,32.92-.78,28.51-1.52,54.76-23.36,51.69-60.31-2.1-25.24-18.66-44.86-43.75-48.81-13.19-2.07-26.87-.97-40.32-1.55-4.47-.19-5.72,1.54-5.67,5.81.18,16.65.08,33.31.08,49.96Z"/><path class="cls-28" d="M1562.78,155.32c28.46-20.33,45.38-19.05,67.9,4.43,1.93-2.02,3.78-4.1,5.78-6.03,16.02-15.55,44.71-16.83,60.87-2.61,10.66,9.39,14.16,21.97,14.36,35.5.32,21.98-.02,43.98.18,65.96.04,4.57-1.7,5.89-5.89,5.53-5.09-.44-11.82,1.21-14.81-1.45-2.57-2.29-1.03-9.36-1.05-14.32-.07-17.16.05-34.32-.09-51.47-.03-3.79-.48-7.67-1.41-11.35-2.73-10.83-10.7-17.46-21.22-18.1-12.89-.79-23.69,5.55-27.73,16.93-1.53,4.31-2.41,9.07-2.47,13.64-.26,20.15-.23,40.31-.02,60.47.05,4.36-1.18,6.08-5.62,5.68-3.47-.31-7.01-.26-10.49-.01-3.98.29-5.1-1.33-5.07-5.2.17-18.66.15-37.31.02-55.97-.04-4.97-.25-10.04-1.21-14.89-2.02-10.23-7.46-17.78-18.34-20-10.74-2.2-19.82.84-26.73,9.4-5.13,6.34-6.99,13.87-6.99,21.94.02,19.49-.12,38.98.1,58.47.05,4.72-1.26,6.73-6.18,6.28-3.8-.35-7.66-.16-11.49-.05-2.9.08-4.16-.94-4.15-4.04.07-35.48.07-70.96.01-106.45,0-2.77,1-3.95,3.77-3.9,4.16.08,8.34.21,12.49-.05,4.07-.25,5.92,1.21,5.48,5.4-.19,1.75-.03,3.54-.03,6.27Z"/><path class="cls-28" d="M1203.05,351.69c9.46-10.11,21.09-14.18,34.7-13.35,13.58.83,23.83,7.33,31.47,17.92,2.58-2.33,4.84-4.27,6.98-6.33,19.17-18.3,53.61-15.03,67.19,6.41,5.15,8.13,7.23,17.2,7.32,26.63.2,21.99-.05,43.98.16,65.96.04,4.51-1.49,5.89-5.78,5.52-3.64-.32-7.34-.3-10.98,0-4,.32-5.11-1.26-5.08-5.13.16-20.65.1-41.31.04-61.97,0-2.64-.26-5.33-.76-7.92-2.55-13.35-10.23-20.42-22.77-21.12-13.01-.72-23.81,6.39-27.49,18.56-1.19,3.93-1.83,8.16-1.87,12.26-.19,19.99-.19,39.98,0,59.97.04,4.14-1.21,5.7-5.37,5.35-3.64-.3-7.34-.28-10.98,0-3.81.28-4.82-1.27-4.79-4.91.14-18.99.13-37.98.02-56.97-.03-4.31-.37-8.66-1.05-12.91-1.85-11.55-8.84-19.07-19.16-21.03-10.91-2.08-21.78,2.54-27.71,11.8-4,6.24-5.37,13.17-5.36,20.48.03,19.16-.14,38.31.11,57.47.06,4.86-1.43,6.58-6.23,6.09-3.46-.36-7.01-.28-10.48-.01-3.88.3-5.26-1.06-5.16-5.06.25-9.65.08-19.32.08-28.98,0-24.82.1-49.64-.09-74.46-.03-4.37,1.16-6.04,5.62-5.63,3.8.35,7.67.24,11.48.02,3.41-.2,4.98.97,4.7,4.51-.17,2.1-.03,4.22-.03,6.33l1.27.51Z"/><path class="cls-28" d="M2283.02,454.63c2.03,1.32,3.53,2.3,5.02,3.28,14.66,9.66,30.61,13.79,48.02,10.56,15.87-2.94,25.35-14.04,26.35-30.11.18-2.95.48-5.9.86-10.53-15.75,16.13-33.5,21.51-54.11,16.62-12.52-2.97-22.52-9.93-30.17-20.07-15.12-20.04-13.42-50.63,4.11-69.16,10.38-10.98,23.36-16.58,38.74-16.92,15.35-.34,28.24,5.06,40.59,16.5,0-4.51.06-7.55-.02-10.58-.07-2.7.97-3.94,3.82-3.86,4.66.14,9.34.17,14,0,3.2-.12,3.91,1.41,3.9,4.24-.06,30.66.44,61.34-.18,91.99-.63,30.98-20.64,50.14-52.01,51.9-19.78,1.11-37.91-3.32-54.71-13.74-3.44-2.13-4.24-3.91-1.76-7.41,2.76-3.88,4.91-8.19,7.55-12.7ZM2363.1,392.38c.02-19.43-16.36-34.64-37.35-34.68-20.04-.03-35.37,14.85-35.27,34.26.1,18.93,16.02,34.63,35.28,34.81,20.3.19,37.31-15.48,37.33-34.39Z"/><path class="cls-28" d="M3081.44,456.03c10.25,4.2,19.33,8.9,28.97,11.54,7.03,1.92,14.95,2.24,22.22,1.33,20.29-2.56,31.78-18.63,28.93-40.07-14.53,14.81-31.78,20.23-51.62,15.98-13.17-2.82-23.86-9.88-31.99-20.75-14.02-18.75-14.31-52.26,7.92-72.31,16.58-14.96,51-21.52,76.24,3.41,0-4.24.1-7.61-.03-10.97-.11-2.77,1-3.91,3.79-3.83,4.5.13,9,.13,13.5,0,2.84-.08,3.76,1.14,3.75,3.87-.06,31.99.55,64-.25,95.98-.65,26.03-18.55,44.16-45.85,47.75-21.67,2.85-42.02-1.37-60.62-13.32-3.15-2.03-4.13-3.68-1.81-7.06,2.71-3.95,4.91-8.24,6.85-11.55ZM3125.12,426.74c20.23-.03,37.6-15.95,37.62-34.46.02-19.05-16.98-34.6-37.79-34.58-20.34.02-34.89,14.36-34.85,34.34.04,19.31,15.6,34.72,35.02,34.69Z"/><path class="cls-28" d="M2018.41,378.15c0-23.5.09-46.99-.08-70.49-.03-4.5,1.27-6.07,5.93-6.05,33.49.17,66.99.15,100.49.02,4.07-.02,5.81,1.13,5.4,5.36-.47,4.91,1.17,11.41-1.4,14.3-2.21,2.49-9.04,1.05-13.83,1.06-23.16.06-46.33.12-69.49-.05-4.09-.03-5.51,1.12-5.42,5.33.25,11.49.25,23,0,34.49-.09,4.19,1.3,5.37,5.41,5.34,23.33-.17,46.66,0,69.99-.16,4.11-.03,5.45,1.17,5.46,5.35.05,15.42.19,15.42-14.97,15.42-20,0-40,.12-59.99-.09-4.61-.05-6.02,1.42-5.91,5.99.29,11.66.31,23.33,0,34.99-.12,4.59,1.55,5.53,5.76,5.5,26.5-.16,52.99.01,79.49-.17,4.48-.03,6.03,1.12,5.96,5.82-.2,14.27,0,14.27-14.41,14.27-30.83,0-61.66-.09-92.49.09-4.53.03-6.03-1.19-5.99-5.84.21-23.5.09-46.99.1-70.49Z"/><path class="cls-28" d="M1581.12,438.72c-9.35,9.69-19.11,15.96-31.41,17.68-25.9,3.6-50.35-11.28-58.7-36.95-6.99-21.48-4.73-42.25,9.17-60.7,18.07-23.98,54.87-27.85,76.59-7.24,1.07,1.02,2.22,1.96,4.33,3.82,0-2.68,0-4.38,0-6.09,0-16.16.12-32.33-.08-48.49-.05-4.01,1.33-5.33,5.18-5.1,3.99.24,8,.19,11.99.02,3.5-.16,4.67,1.35,4.64,4.74-.12,11.83-.04,23.66-.04,35.49,0,37.33,0,74.66,0,111.98,0,6.49-.02,6.49-6.64,6.5-3.83,0-7.67-.09-11.5.01-2.55.06-3.63-.97-3.56-3.54.1-3.64.03-7.28.03-12.14ZM1509.82,397.13c0,1.66-.07,3.33.01,4.99,1.44,28.31,30.57,44.13,54.03,29.35,14.7-9.27,21.12-27,16.46-45.49-5.41-21.46-27.75-33.28-48.34-25.58-14,5.24-22.19,18.8-22.16,36.73Z"/><path class="cls-28" d="M1153.1,242.48c0,7.42,0,13.67,0,19.92,0,8.17-.14,16.34.06,24.5.09,3.54-1.23,4.74-4.65,4.54-3.65-.21-7.36-.34-10.99.03-4.62.47-5.51-1.54-5.5-5.74.13-43.16.08-86.33.08-129.49,0-2.83.15-5.68-.03-8.5-.19-3.12,1.24-4.12,4.15-4.05,4.16.11,8.34.18,12.5-.02,3.63-.18,4.63,1.49,4.43,4.8-.2,3.27-.04,6.56-.04,11.14,3.18-2.9,5.33-5.11,7.73-7.01,26.87-21.32,67.03-11.31,80.62,20.99,10.15,24.13,8,47.61-9.22,68.49-18.28,22.15-53.59,24.19-74.66,4.44-1.16-1.09-2.36-2.14-4.46-4.04ZM1225.61,200.93c-.86-4.73-1.34-9.57-2.66-14.17-4.68-16.3-19.41-26.69-35.65-25.48-22.76,1.69-38.44,23.73-33.8,47.5,4.27,21.81,22.97,34.87,43.86,30.63,16.67-3.38,27.76-18.73,28.25-38.48Z"/><path class="cls-28" d="M2681.77,433.84c-11.56,14.02-25.56,22.05-43.19,23.18-27.08,1.73-49.69-12.64-58.37-36.96-9.52-26.66-1.35-56.64,19.77-71.95,25.98-18.83,73.18-13.18,82.97,33.92,1.31,6.3,1.33,12.87,1.78,19.33.29,4.05-1.38,5.84-5.87,5.8-24.48-.2-48.97-.1-73.45-.09-6.89,0-7.38.72-5.1,7.04,9.18,25.4,41.44,31.88,62.21,12.49,1.09-1.02,1.96-2.45,3.24-3.07,1.21-.58,3.35-1.01,4.15-.37,3.98,3.22,7.66,6.81,11.86,10.66ZM2599.26,388.05h62.66c.09-16.48-15.03-31.47-31.15-31.23-15.73.24-31.72,15.94-31.51,31.23Z"/><path class="cls-28" d="M2800.76,433.83c-9.43,11.47-20.67,19.34-35,22.09-27.25,5.22-50.92-5.32-63.36-28.8-15.56-29.34-5.63-71.95,27.71-85.06,24.71-9.72,57.36-2.24,68.62,29.74,3.24,9.21,3.6,19.48,4.96,29.31.57,4.13-1.28,6.12-6.05,6.08-24.48-.23-48.96-.12-73.45-.1-6.7,0-7.09.56-4.97,6.78,8.2,24.11,37.98,31.73,59.41,15.16,2.1-1.62,3.79-3.79,5.95-5.3,1.07-.75,3.37-1.31,4.11-.71,4.1,3.31,7.9,7.01,12.07,10.82ZM2781,388.14c-.5-17.35-16.06-32.32-31.92-31.26-16.08,1.08-31.71,16.87-30.67,31.26h62.59Z"/><path class="cls-28" d="M1390.35,407.07c2.63,13.39,8.96,22.9,20.62,27.56,18.92,7.56,34.8,1.34,48.74-13.08,4.6,4.04,9.04,7.94,13.83,12.15-8.63,10.69-18.94,18.27-32.19,21.56-41.3,10.24-77.38-21.14-72.98-63.6,2.31-22.27,12.1-40.11,33.33-49.07,29.06-12.27,65.67-.18,73.29,40.91,1.02,5.51.93,11.26,1.06,16.91.16,6.63.03,6.66-6.44,6.66-24.16,0-48.33,0-72.49,0h-6.78ZM1453.64,388.11c-.15-16.91-15.25-31.87-31.33-31.28-17.01.62-30.27,15.07-31.27,31.28h62.6Z"/><path class="cls-28" d="M1336.72,187.8c2.19-12.81-7.63-23.88-22.29-25.4-12.4-1.29-24.21.93-35.57,5.92-1.63.72-3.32,1.29-5.52,2.13-1.98-5.4-3.93-10.33-5.51-15.38-.31-.98.49-3.15,1.34-3.54,21.46-9.8,43.48-14.02,66.13-4.43,16.16,6.84,22.87,20.56,23.31,37.13.61,22.98.1,45.99.21,68.99.02,3.72-1.36,5.21-4.99,4.88-1.49-.13-3-.02-4.5-.02q-10.97,0-12.5-11.16c-1.53,1.17-2.74,2.09-3.93,3.01-16.57,12.76-42.41,13.72-59.69,2.21-22.06-14.69-20.4-48.21,3.07-60.6,11.4-6.01,23.78-7.39,36.4-6.5,7.93.56,15.82,1.8,24.02,2.77ZM1309.93,202.16c-5.61,1.03-10.93,1.58-16,3.02-9.06,2.57-14.38,9.1-14.5,16.88-.13,8.29,5.26,15.38,14.39,18.16,12.06,3.69,23.35,1.59,33.62-5.63,8.62-6.07,11.32-14.85,10.5-24.89-.1-1.25-1.94-3.13-3.23-3.38-8.29-1.61-16.66-2.84-24.77-4.16Z"/><path class="cls-28" d="M1820.79,224.66c4.56,4.08,8.86,7.93,13.57,12.14-6.23,8.53-13.9,14.72-23.19,18.61-23.84,9.97-50,4.85-66.36-12.64-16.71-17.87-20.66-47.44-9.43-70.58,15.5-31.93,55.33-41.15,82.73-18.61,12.96,10.66,18.11,25.67,18.9,42.06.69,14.42.41,14.44-14.12,14.44-21.66,0-43.32,0-64.98,0-1.96,0-3.91,0-6.59,0,2.37,12.14,7.54,21.61,18.24,26.6,19.75,9.2,36.51,3.15,51.22-12.01ZM1751.48,191.51h63.22c-.36-16.11-13.53-29.93-28.1-31.22-19.49-1.72-33.42,15.54-35.12,31.22Z"/><path class="cls-28" d="M1864.1,445.2c-8.73,3.66-16.83,7.87-25.42,10.44-10.69,3.21-21.5,1.42-31.78-2.7-15.31-6.12-23.32-18.65-22.79-35.16.47-14.76,10.05-27.3,24.88-32.33,15.44-5.23,31.14-4.47,46.89-1.72,2.44.43,4.87.95,7.31,1.43,2.03-12.99-7.43-24.19-21.82-25.8-12.33-1.37-24.24.44-35.63,5.49-1.79.8-3.64,1.48-6.09,2.47-2.04-5.62-4.07-10.84-5.71-16.19-.24-.79,1.14-2.68,2.18-3.16,19.16-8.85,39.04-12.51,59.7-6.38,18.3,5.44,28.95,20.21,29.21,40.22.28,22.66.01,45.32.13,67.98.02,3.43-1.03,4.84-4.56,4.62-3.82-.23-7.68-.28-11.49.01-4,.31-5.48-1.25-5.04-5.13.19-1.62.03-3.27.03-4.12ZM1834.29,398.76c-5.64,1.67-13.41,2.76-19.98,6.17-10.63,5.51-11.71,18.73-3,26.94,7.15,6.74,16.02,7.42,25.21,6.44,17.55-1.87,28.11-13.72,27.65-30.6-.09-3.16-1.27-4.57-4.16-5.01-7.88-1.2-15.75-2.41-25.72-3.94Z"/><path class="cls-28" d="M1028.87,210.07c.92,16.06,15.32,29.74,31.21,30.63,13.41.76,25.02-3.15,34.28-13.01,2.56-2.73,4.25-2.79,6.82-.08,3.07,3.23,6.61,6.01,10.32,9.32-8.65,10.85-18.93,18.4-32.03,21.45-22.22,5.17-42.47,1.15-58-16.27-16.68-18.7-19.5-40.93-11.33-64.1,11.81-33.51,49.87-47.21,79.2-28.76,16.95,10.66,23.67,27.41,24.68,46.63.75,14.18.37,14.2-13.84,14.2-21.66,0-43.32,0-64.98,0-1.97,0-3.94,0-6.32,0ZM1091.71,191.7c-.5-18.21-14.44-31.46-32.15-31.31-15.42.13-30.54,15.33-30.76,31.31h62.91Z"/><path class="cls-28" d="M2109.1,201.25c0-34.05,25.78-59.88,59.75-59.86,33.35.01,58.99,25.9,58.94,59.52-.05,33.34-26.42,59.55-59.83,59.48-33.1-.07-58.86-25.96-58.86-59.13ZM2131.1,200.05c-.01,19.29,11.47,35.18,28.41,39.31,26.73,6.52,50.01-15.99,45.88-44.37-3.12-21.47-20.07-35.45-40.99-33.82-19.04,1.49-33.29,18.13-33.3,38.88Z"/><path class="cls-28" d="M1102.63,338.39c33.55,0,59.48,25.75,59.44,59.02-.03,33.34-26.36,59.67-59.65,59.66-33.48,0-59.42-25.87-59.32-59.15.1-33.75,25.88-59.54,59.53-59.54ZM1102.25,358.07c-21.43.01-37.12,16.52-37.15,39.09-.03,22.56,16.51,40.22,37.68,40.22,20.91,0,37.38-17.38,37.32-39.37-.06-22.61-16.5-39.96-37.85-39.94Z"/><path class="cls-3" d="M649.1,386.37c0-39.49.19-78.99-.15-118.48-.07-8.66,5.7-13.77,12.33-13.97,7.08-.21,12.48,5.82,12.48,13.98.03,79.16.04,158.31-.02,237.47,0,10.76-8.58,16.97-17.55,13-5.21-2.3-7.15-6.44-7.14-12.02.07-39.99.04-79.99.04-119.98Z"/><path class="cls-3" d="M2971.78,352.6c2.88-2.24,4.68-3.63,6.46-5.03,16.18-12.69,41.2-12.78,57.17.09,10.42,8.4,14.99,20.01,15.23,32.96.44,23.15.14,46.31.11,69.47,0,1.28-.36,2.56-.61,4.26-6.08,0-11.88.02-17.69,0-3.76-.02-2.99-2.92-3-5.07-.06-19.33,0-38.65-.06-57.98-.01-3.49-.06-7.03-.62-10.46-2.33-14.28-11.67-22.32-26.06-22.67-14.41-.35-26.5,8.49-29.53,21.99-.94,4.18-1.3,8.57-1.33,12.87-.14,18.49-.17,36.99.02,55.48.05,4.43-1.07,6.45-5.84,5.96-3.79-.38-7.66-.21-11.49-.04-3.02.14-4.34-1.07-4.12-4.06.05-.66,0-1.33,0-2,0-33.99.09-67.97-.1-101.96-.03-4.86,1.43-6.59,6.23-6.09,3.46.36,7.01.29,10.48.01,3.85-.31,5.09,1.36,4.79,4.94-.17,2.06-.03,4.14-.03,7.33Z"/><path class="cls-28" d="M2172.78,351.08c6.94-3.8,12.9-8.56,19.67-10.51,28.52-8.21,58.32,5.03,59.24,42.8.53,21.98.03,43.98.17,65.98.03,3.91-1.23,5.4-5.18,5.09-3.64-.29-7.35-.32-10.99,0-4.35.39-5.74-1.08-5.69-5.56.23-20.49.22-40.99.04-61.48-.08-9.26-2.07-18.13-10.15-23.89-9.84-7.02-20.62-7.18-31.24-2.02-10.81,5.26-15.63,14.75-15.8,26.39-.28,19.49-.08,38.99-.08,58.48,0,1.33-.08,2.67,0,4,.19,3-1.13,4.16-4.14,4.05-4.33-.17-8.67-.21-12.99.01-3.47.18-5.01-1.07-4.56-4.57.04-.33,0-.67,0-1,0-34.32.08-68.64-.1-102.97-.02-4.44,1.28-5.97,5.66-5.58,3.8.34,7.67.25,11.49.02,3.47-.21,4.93,1.08,4.66,4.56-.17,2.12-.03,4.27-.03,6.19Z"/><path class="cls-28" d="M2481.96,352.01c6.8-6.93,14.58-11.65,23.94-13.05,29.45-4.41,51.87,11.37,53.09,40.26,1,23.77.56,47.61.8,71.41.03,2.76-1.1,3.88-3.88,3.79-4.16-.14-8.35-.27-12.49.04-4.14.31-5.43-1.16-5.4-5.33.19-20.49.28-40.98,0-61.47-.15-10.71-2.89-20.59-13.36-26.15-16.53-8.77-43.3-.7-43.79,26.17-.37,20.15-.24,40.31.04,60.47.07,5.13-1.48,6.9-6.51,6.31-4.88-.57-11.42,1.11-14.26-1.47-2.49-2.26-1-9.06-1.01-13.86-.05-30.98.06-61.97-.12-92.95-.03-4.59,1.32-6.49,5.89-5.79.49.08,1,0,1.5.01,4.16.05,9.1-1.24,12.23.58,2.28,1.33,2.19,6.74,3.34,11.04Z"/><path class="cls-28" d="M1876.09,156.87c7.12-7.26,14-11.91,22.48-14.1,30.78-7.94,56.51,11.76,56.52,43.45,0,22.16-.09,44.33.08,66.49.03,4.12-1.18,5.75-5.37,5.42-3.64-.29-7.34-.24-10.99-.01-3.77.23-4.83-1.32-4.79-4.97.16-16.83.12-33.66.04-50.49-.02-4.98-.26-9.98-.65-14.95-1.24-16.02-9.94-25.46-24.07-26.3-16.58-.98-29.26,8.27-32.18,23.66-.68,3.58-1,7.27-1.02,10.91-.1,19-.14,38,.03,56.99.04,3.94-1.21,5.4-5.13,5.15-3.82-.25-7.67-.21-11.49-.01-3.55.18-4.52-1.33-4.51-4.72.09-35,.09-69.99,0-104.99,0-3.38.95-4.91,4.51-4.73,3.99.2,8,.19,11.99,0,3.44-.16,4.91,1.11,4.59,4.63-.21,2.29-.04,4.62-.04,8.58Z"/><path class="cls-14" d="M2200.93,703.01c1.88-4.34,3.65-8.41,5.49-12.68,2.17.85,3.97,1.64,5.83,2.27,8.41,2.86,14.31.31,17.77-7.8.46-1.07.55-2.67.08-3.7-9.89-21.79-19.88-43.54-29.88-65.28-.1-.22-.46-.33-1.06-.73v7.63h-23.07v26.01c0,4.5-.06,9,.01,13.5.11,6.85,3.03,9.95,9.84,9.5,4.02-.27,7.97-1.74,12.63-2.82,0,3.86.23,7.96-.14,12-.11,1.24-1.66,2.85-2.93,3.4-7.65,3.27-15.58,3.77-23.29.55-9.26-3.87-11.97-11.95-12.08-21.14-.16-13.31-.04-26.62-.04-40.43-3.34-.24-6.39-.45-9.71-.69v-14.07h9.58v-21.27h16.03v21.13c8.84,0,17.37.81,25.67-.21,10.33-1.27,15.2,2.62,18.64,12.28,5.11,14.35,11.95,28.08,18.59,43.31,1.73-4.21,3.06-7.3,4.27-10.44,5.26-13.64,10.55-27.27,15.67-40.97,1.07-2.86,2.4-4.32,5.71-4.05,4.07.32,8.19.08,13.03.08-3.7,9.18-7.04,17.63-10.5,26.04-7.91,19.2-15.39,38.6-23.95,57.5-7.78,17.17-25.67,21.63-42.2,11.08Z"/><path class="cls-28" d="M1763.69,420.38c4.59,4.27,8.95,8.33,13.23,12.31-8.6,17.04-35.82,27.86-58.32,23.47-25.21-4.91-44.82-26.27-47.31-51.53-2.73-27.63,12.28-52.74,37.41-62.59,23.88-9.36,51.74-1.92,67.46,18.41-4.38,4.75-8.84,9.58-13.77,14.92-10.75-12.12-23.26-19.87-39.99-16.91-8.97,1.59-15.89,6.64-21.36,13.7-12.71,16.41-10.37,41.61,5.1,55.92,15.8,14.62,35.94,12.06,57.56-7.7Z"/><path class="cls-28" d="M2308.07,120.25c-6.33-1.04-11.86-2.49-17.44-2.74-10.3-.47-15.7,4.7-16.72,15-1.09,11.07-.98,11.19,10.02,11.2,6.5,0,13,.11,19.49-.04,3.3-.08,4.68.88,4.76,4.5.31,15.22.43,15.22-14.93,15.22-4,0-8,0-12,0q-7.45,0-7.46,7.24c0,26.66,0,53.32,0,79.98,0,7.45-.01,7.56-7.33,7.43-4.6-.08-10.66,1.08-13.36-1.34-2.32-2.08-.96-8.43-.97-12.9-.05-24.83-.11-49.65.06-74.48.03-4.36-.9-6.16-5.73-6.05-9.69.23-8.98,1.83-9.04-8.98,0-.17,0-.33,0-.5.05-11.66-.82-10.12,9.71-10.01,4.04.04,5.14-1.5,5.07-5.3-.08-3.97.28-8,.96-11.92,3.73-21.33,18.77-29.72,38.5-28.64,4.44.24,8.89,1.3,13.2,2.48,1.31.36,2.98,2.32,3.07,3.65.35,5.28.15,10.6.15,16.21Z"/><path class="cls-28" d="M2040.07,236.03c0,4.99.13,10.31-.1,15.6-.05,1.22-1.02,2.92-2.07,3.5-10.99,6.15-34.84,7.1-45.25-4.82-6.05-6.93-8.14-15.16-8.2-24-.13-18.81-.18-37.63.05-56.44.06-4.81-.99-6.8-6.31-6.62-9.35.31-8.75,1.75-8.78-8.71-.03-10.32-.01-10.44,10.43-10.79,3.52-.12,4.65-1.52,4.59-4.84-.12-7.66.11-15.32-.09-22.97-.1-3.79,1.08-5.55,5.1-5.29,3.81.25,7.67.29,11.48-.01,4.34-.35,5.36,1.58,5.23,5.55-.25,7.48.12,14.99-.15,22.47-.15,4.05,1.46,5.19,5.24,5.1,7.82-.19,15.66.21,23.47-.15,4.95-.23,6.56,1.65,6.1,6.34-.29,2.97-.21,6-.02,8.98.23,3.55-1.33,4.58-4.72,4.51-8.49-.18-16.98.07-25.47-.12-3.49-.08-4.61,1.14-4.58,4.6.13,18.98-.01,37.96.09,56.94.05,9.51,4.49,14.6,13.95,14.49,6.46-.07,12.9-2.08,19.99-3.34Z"/><path class="cls-28" d="M1523.07,234.91c0,6.06.2,11.38-.14,16.66-.09,1.41-1.54,3.37-2.87,3.96-11.09,4.94-22.62,5.69-34.02,1.56-12.14-4.4-18.52-15.12-18.61-30.19-.11-19.15-.18-38.3.07-57.45.06-4.86-1.48-6.27-6.25-6.17-9.41.2-8.82,1.75-8.85-8.66-.03-10.41-.01-10.54,10.37-10.85,3.46-.11,4.72-1.39,4.66-4.77-.13-7.49.21-15-.12-22.48-.21-4.73,1.62-6.2,6.08-5.86,3.81.29,7.66.19,11.48.03,3.3-.14,4.32,1.28,4.26,4.46-.16,7.99.08,15.99-.1,23.98-.08,3.51,1.27,4.69,4.67,4.63,8.32-.14,16.66.11,24.98-.1,3.97-.1,5.38,1.42,5.14,5.27-.22,3.48-.15,6.99-.03,10.49.1,3.01-1.17,4.08-4.16,4.03-8.66-.13-17.32.08-25.98-.1-3.45-.07-4.64,1.06-4.62,4.57.13,19.32-.02,38.63.11,57.95.05,8.11,4.34,12.81,12.38,13.47,3.59.3,7.33,0,10.87-.72,3.36-.67,6.54-2.22,10.68-3.7Z"/><path class="cls-14" d="M2796.32,615.97c.19-2.67.34-4.79.51-7.24h15.49c.1,1.63.29,3.37.29,5.11.02,18.98.12,37.96-.01,56.94-.19,26.75-17.96,38.28-41.96,37.4-11.2-.41-21.59-3.6-30.89-10-.8-.55-1.5-1.25-2.47-2.08,2.38-4.11,4.69-8.09,7.06-12.17,4.49,2.35,8.68,4.93,13.18,6.8,8.35,3.48,17.02,4.33,25.79,1.51,8.8-2.82,14.33-12.05,12.58-21.72-10.22,8.71-21.72,11.51-34.48,8.15-8.48-2.24-15.42-6.85-20.5-14.08-9.48-13.5-8.11-34.12,3.01-45.73,14.15-14.77,32.59-15.94,52.41-2.89ZM2750.92,642.46c-.42,12.28,9.14,22.56,21.35,22.93,13.18.4,24.3-8.91,24.83-20.78.55-12.33-10.19-22.88-23.61-23.21-12.31-.3-22.15,8.88-22.57,21.06Z"/><path class="cls-14" d="M3167.93,615.89c.11-2.39.22-4.65.34-7.2h15.05c.1,1.82.28,3.72.28,5.63.02,19.33.03,38.67,0,58-.03,19.28-10.88,32-29.92,35.12-15.97,2.62-32.97-1.55-45.08-11.27,2.3-4.05,4.64-8.17,6.91-12.17,5.39,2.63,10.31,6.19,15.75,7.4,6.8,1.52,14.21,2.3,21.04,1.28,10.51-1.56,16.21-10.75,15.5-22.92-7.99,7.55-17.18,10.86-27.77,10.16-10.72-.71-19.53-5.17-26.33-13.42-10.68-12.96-10.36-33.14.6-46.63,12.28-15.11,29.91-16.47,53.62-3.97ZM3144.67,665.39c12.82-.03,23.94-10.28,23.8-21.95-.15-12.15-11.27-22.24-24.3-22.04-12.41.18-22.03,9.62-22.06,21.66-.04,12.38,10.04,22.36,22.57,22.33Z"/><path class="cls-14" d="M2562.9,685.25h-15.63v-42.99h-51.02v42.86h-15.78v-101.93h15.69v42.91h50.75v-42.92h16v102.06Z"/><path class="cls-14" d="M2894.8,639.84c-5.66,5.84-11.08,11.24-16.21,16.9-1.05,1.16-1.39,3.28-1.43,4.98-.15,7.64-.06,15.29-.06,23.3h-15.72v-101.77h15.64v52.41c.44.3.87.61,1.31.91,2.97-3.22,5.91-6.47,8.92-9.64,13.3-14,26.62-27.98,39.98-41.92.87-.91,2.15-1.96,3.27-2,6.43-.19,12.87-.09,19.31-.09.22.44.44.87.66,1.31-14.84,14.27-29.67,28.54-44.71,43,15.77,19.87,30.58,38.54,46.13,58.15-7.06,0-12.99.28-18.87-.18-1.7-.13-3.54-2.13-4.79-3.7-10.4-12.97-20.68-26.05-31-39.08-.51-.64-1.13-1.2-2.43-2.58Z"/><path class="cls-14" d="M183.48,626.44c-2.44-.93-5.06-1.55-7.3-2.84-39.2-22.5-78.38-45.05-117.52-67.67-7.61-4.4-9.55-11.22-5.51-18.04,3.57-6.03,10.83-7.58,17.82-3.56,39.19,22.53,78.35,45.1,117.5,67.7,6.24,3.6,8.64,8.71,7.12,14.41-1.59,5.95-5.96,9.42-12.11,10Z"/><path class="cls-14" d="M65.45,240.91c-7.13-.13-11.93-3.81-13.35-9.09-1.61-5.96.81-11.36,6.57-14.69,16.41-9.48,32.81-18.96,49.22-28.43,22.17-12.79,44.36-25.54,66.49-38.4,5.38-3.12,10.81-4.76,16.29-.9,8.02,5.64,6.85,16.55-2.17,21.76-17.13,9.89-34.29,19.73-51.42,29.61-21.6,12.45-43.17,24.95-64.81,37.33-2.53,1.45-5.43,2.26-6.82,2.82Z"/><path class="cls-14" d="M1732.1,583.19h16c0,20.12.11,39.92-.08,59.72-.04,4.61-.67,9.31-1.75,13.8-4.27,17.84-17.47,28.95-35.74,30.13-12.73.82-24.94-.65-35.04-9.66-9.29-8.29-13.28-19.03-13.46-31.08-.3-20.78-.08-41.57-.08-62.8h16.15c0,1.91,0,3.7,0,5.48,0,18.15-.02,36.31,0,54.46.04,21.24,16.55,33.4,36.78,27.12,11.07-3.44,17.11-13.11,17.19-27.99.1-17.82.02-35.64.02-53.46v-5.73Z"/><path class="cls-14" d="M1221,599.23c-3.52,3.85-6.87,7.51-10.79,11.8-11.95-11.33-25.42-18.11-42.25-12.51-7.9,2.63-14,7.72-18.23,14.78-10.05,16.75-6.56,38.58,7.88,50.84,14.52,12.32,32.59,9.97,53.02-7.11,3.29,3.58,6.6,7.19,9.99,10.88-14.8,21.44-51.53,26.19-73.24,9.04-23.42-18.5-26.81-56.23-7.02-78.08,21.47-23.72,57.39-23.77,80.65.38Z"/><path class="cls-28" d="M1403.78,162.46c4.91-4.56,8.47-8.28,12.45-11.47,7.95-6.37,17.24-9.06,27.36-9.32,3.48-.09,4.73,1.2,4.56,4.66-.23,4.82-.13,9.65-.04,14.48.05,2.5-.88,3.56-3.48,3.6-27.49.51-40.45,21.33-40.8,45.28-.21,14.31-.15,28.63.02,42.94.05,4.06-1.23,5.83-5.41,5.48-5.25-.44-10.52-.62-15.78-.92-.19-4.96-.52-9.92-.53-14.88-.05-30.79.11-61.59-.16-92.38-.05-5.28,1.67-6.75,6.54-6.29,3.46.33,6.99.23,10.48.02,3.78-.23,5,1.46,4.84,5.03-.19,4.23-.05,8.48-.05,13.76Z"/><path class="cls-28" d="M2842.78,357.98c6.89-5.16,12.86-10.86,19.91-14.52,5.69-2.96,12.64-3.61,19.09-4.96,3.59-.75,5.62.73,5.38,4.89-.27,4.81-.15,9.65-.05,14.48.05,2.57-1.02,3.56-3.55,3.53-25.89-.37-40.45,19.98-40.74,44.05-.18,14.48-.19,28.97.06,43.45.07,4.44-1.37,5.95-5.73,5.57-3.8-.33-7.66-.24-11.48-.02-3.44.2-4.67-1.04-4.63-4.55.16-12.15.06-24.3.06-36.46,0-22.47.1-44.95-.09-67.42-.04-4.27,1-6.12,5.55-5.69,3.79.36,7.67.3,11.48.01,3.87-.29,4.96,1.39,4.79,4.95-.2,4.29-.05,8.6-.05,12.7Z"/><path class="cls-14" d="M1241.62,685.17h-15.73v-105.89h15.69v34.59c5.78-2.34,10.73-5.44,16.05-6.29,20.83-3.35,34.74,7.17,36.14,28.21,1.08,16.23.21,32.6.21,49.25h-15.88c0-12.76,0-25.37,0-37.99,0-2.33.06-4.67-.01-7-.31-10.63-6.16-17.44-15.49-18.11-10.63-.76-19.37,5.7-20.36,16.19-.86,9.09-.5,18.29-.6,27.44-.07,6.46-.01,12.93-.01,19.6Z"/><path class="cls-14" d="M1009.05,685.15h-15.96c0-12.01.04-23.78-.02-35.56-.02-4.32.13-8.7-.54-12.94-1.58-9.95-7.4-14.79-16.95-14.73-9.53.06-17.4,6.32-18.38,15.6-.78,7.42-.51,14.96-.58,22.45-.08,8.3-.02,16.6-.02,25.16h-15.7v-105.8h15.75v34.61c5.5-2.33,10.26-5.34,15.41-6.35,20.79-4.06,35.49,7.52,36.79,29.67.93,15.75.18,31.61.18,47.9Z"/><path class="cls-3" d="M1910.1,374.86c0-24.47.12-48.94-.11-73.41-.05-4.75,1.55-6.17,6-5.81,3.64.29,7.33.23,10.98.02,3.76-.22,5.19,1.43,4.82,5.01-.07.66,0,1.33,0,2,0,48.28,0,96.55,0,144.83q0,6.87-6.74,6.89c-3.33,0-6.68-.24-9.98.06-4.08.37-5.05-1.37-5.03-5.17.13-24.8.07-49.61.07-74.41Z"/><path class="cls-14" d="M1088.09,654h-56.21c1.48,8.3,5.85,13.83,12.72,16.74,12.64,5.35,22.92.27,32.04-9,3.52,3.09,6.85,6.03,10.18,8.95-12.77,16.97-35.4,21.68-53.11,11.24-16.78-9.89-23.52-33.78-14.92-52.89,7.33-16.29,23.2-24.69,40.75-21.57,15.23,2.71,27.29,16.85,28.5,33.67.29,4.08.04,8.2.04,12.86ZM1071.74,640.26c-2.51-13.43-10.81-20.32-22.25-18.88-9.19,1.16-17.47,10.38-16.84,18.88h39.09Z"/><path class="cls-14" d="M2009.08,653.93h-57.35c1.23,7.37,4.59,12.58,10.6,15.72,13.36,6.97,24.31,2.1,34.07-8,3.57,3.18,6.88,6.13,10.15,9.04-8.93,13.4-27.5,19.85-43.49,15.32-15.86-4.49-27.33-18.94-27.97-35.08-.63-15.78,3.62-29.46,17.51-38.43,20.01-12.93,45.97-3.69,53.03,19.05,2.12,6.84,2.27,14.28,3.46,22.37ZM1991.16,640.14c-.78-10.87-9.02-19.06-18.94-19.08-9.4-.02-19.05,7.38-20.05,19.08h38.99Z"/><path class="cls-14" d="M1426.16,653.91c.28,10.98,11.66,19.89,23.22,18.89,7.09-.61,13.14-3.49,18.06-8.54,2.04-2.1,3.57-2.53,5.71-.19,2.21,2.41,4.73,4.54,7.07,6.75-9.75,13.79-26.68,19.54-43.58,15.08-15.05-3.97-26.13-17.51-27.56-33.7-1.86-21.02,8.08-38.02,25.49-43.61,21.44-6.88,42.17,5.9,46.45,28.78.7,3.74.7,7.6,1.08,11.4.38,3.83-1.13,5.26-5.12,5.21-15.15-.19-30.3-.08-45.45-.07-1.79,0-3.57,0-5.37,0ZM1465.08,640.22c-1.02-11.33-9.43-19.28-19.71-19.13-9.91.14-18.72,8.76-19.44,19.13h39.15Z"/><path class="cls-14" d="M1563.22,653.91c1.94,8.56,6.25,14.48,13.78,17.24,12.16,4.47,22.08-.15,31.16-9.46,3.45,3.08,6.82,6.07,10.16,9.05-11.65,15.2-30.82,20.65-47.57,13.86-16.28-6.6-25.93-23.64-23.79-41.99,2.29-19.64,14.37-33.1,31.64-35.27,20.49-2.58,37.08,9.83,40.49,30.29q2.71,16.27-13.45,16.27c-12.17,0-24.33,0-36.5,0h-5.92ZM1563.44,640.15h39.47c-.82-10.83-8.17-18.36-18.31-18.94-10.26-.59-18.67,6.8-21.15,18.94Z"/><path class="cls-14" d="M2391.62,647.04c0,22.98-17.56,40.47-40.48,40.34-22.34-.12-39.63-17.71-39.57-40.26.06-22.78,17.49-40.26,40.14-40.26,22.82,0,39.91,17.2,39.9,40.18ZM2352.08,672.39c13.35-.04,23.51-10.85,23.5-25.02,0-14.31-10.74-25.86-24.11-25.97-13.05-.1-24.03,11.67-23.83,25.56.21,14.43,10.82,25.47,24.44,25.43Z"/><path class="cls-14" d="M3024.1,646.74c-.05,22.94-17.73,40.72-40.43,40.64-22.32-.07-39.88-17.57-40.05-39.91-.17-22.68,17.85-40.75,40.51-40.61,22.54.14,40.01,17.57,39.97,39.88ZM2983.91,672.39c13.37.05,23.85-10.69,24.15-24.74.3-13.78-11.07-26.16-24.12-26.26-13.18-.1-23.77,10.99-23.85,24.99-.08,14.76,10.17,25.95,23.81,26Z"/><path class="cls-14" d="M2652.62,646.82c0,23.05-17.39,40.58-40.26,40.57-22.41-.01-39.79-17.48-39.78-40,0-23.09,17.41-40.58,40.33-40.52,22.52.06,39.71,17.35,39.72,39.95ZM2612.78,672.39c13.39.02,23.67-10.68,23.79-24.79.13-14.42-11.02-26.39-24.41-26.2-13.07.19-23.61,11.53-23.53,25.31.09,14.55,10.53,25.66,24.15,25.68Z"/><path class="cls-14" d="M1402.08,685.15h-15.51c0-7.69,0-15.16,0-22.62,0-6.83.02-13.66,0-20.5-.05-13.02-5.97-20.04-16.94-20.12-11.38-.08-19.3,7.91-19.48,20.13-.2,13.33-.04,26.66-.06,39.99,0,.96-.12,1.92-.2,3.1h-14.97v-76.52h14.95c.14,2.12.27,4.15.43,6.53,12.24-9.56,25.07-11.17,38.38-4.05,10.2,5.46,13.53,15.32,13.81,26.07.4,15.32.09,30.66.06,45.99,0,.63-.29,1.26-.47,2Z"/><path class="cls-14" d="M1827.99,685.22h-15.09c-.11-1.79-.31-3.53-.31-5.27-.03-12.98.16-25.97-.07-38.95-.27-15.15-11.3-22.9-24.79-17.7-7.15,2.75-11.54,9.66-11.61,18.68-.09,12.48-.02,24.97-.02,37.46,0,1.79,0,3.58,0,5.66h-15.61v-76.37h15.39c.15,1.94.29,3.84.49,6.51,8.07-6.88,16.82-9.43,26.73-7.98,13.92,2.03,23.84,10.72,24.65,24.62,1.02,17.54.24,35.19.24,53.35Z"/><path class="cls-14" d="M3099,685.18h-15.42v-18.57c0-8.32.04-16.65,0-24.97-.07-12.53-6.15-19.61-16.84-19.72-11.43-.12-19.46,7.91-19.59,19.94-.15,13.32-.03,26.64-.04,39.95,0,.98-.1,1.95-.17,3.25h-15.56v-76.28h15.51c.14,1.84.28,3.74.39,5.24,5.15-2.21,10.04-5.41,15.35-6.4,17.99-3.33,35.89,4.8,36.82,29.55.58,15.46.11,30.95.09,46.43,0,.47-.29.93-.51,1.57Z"/><path class="cls-14" d="M2660.49,608.6h15.39c.13,1.98.25,3.77.33,4.91,5.82-2.1,11.57-5.2,17.66-6.18,18.19-2.93,33.06,8.63,34.02,27.02.87,16.75.18,33.57.18,50.7h-15.96v-35.5c0-3.16.03-6.33,0-9.49-.11-11.22-6.33-17.94-16.77-18.15-10.73-.21-19.01,7.39-19.17,18.05-.2,13.15-.05,26.31-.05,39.47,0,1.79,0,3.59,0,5.66h-15.61v-76.5Z"/><path class="cls-14" d="M935.81,598.39c-5.64,0-10.94,0-16.23,0s-10.24,0-15.86,0v86.62h-16.46v-86.4h-32.36v-15.31h80.91v15.09Z"/><path class="cls-14" d="M1481.98,674.05c2.59-3.67,5.22-7.4,7.47-10.58,6.86,3,13,6.41,19.58,8.28,4.04,1.15,9.02.78,13.06-.52,2.49-.8,5.2-4.47,5.57-7.16.27-1.97-2.67-5.2-4.95-6.51-3.54-2.03-7.74-2.9-11.66-4.27-4.08-1.42-8.28-2.58-12.2-4.34-8.12-3.65-13.06-9.77-12.68-19.04.39-9.51,4.96-16.81,13.88-20.13,15.29-5.69,29.28-1.64,42.81,7.04-2.65,4.34-5.04,8.27-7.21,11.84-6.04-2.33-11.58-5.05-17.43-6.52-3.49-.88-7.69-.49-11.15.63-2.17.71-4.65,3.69-4.94,5.93-.24,1.84,2.07,4.98,4.04,5.97,4.71,2.36,9.88,3.81,14.88,5.59,2.34.83,4.78,1.45,7.07,2.39,11.41,4.68,15.93,11.86,14.97,23.6-.73,8.94-8.49,17.1-18.72,19.71-13.54,3.44-31.93-1.62-42.39-11.91Z"/><path class="cls-14" d="M2118.39,616.89c-2.57,4.28-5,8.35-6.95,11.59-6.7-2.39-12.8-4.93-19.12-6.66-2.7-.74-6.19-.51-8.72.61-2.38,1.05-5.14,3.65-5.56,5.97-.35,1.88,2.02,5.3,4.06,6.37,4.52,2.36,9.7,3.4,14.4,5.47,5.56,2.45,11.67,4.51,16.16,8.35,9.61,8.21,8.41,24.18-1.78,31.87-12.68,9.57-26.28,7.62-39.79,2.29-4.71-1.86-8.93-4.94-14.1-7.87,3.12-4.39,5.76-8.12,8.34-11.75,5.47,2.74,10.47,5.67,15.78,7.8,5.65,2.26,11.76,3.24,17.37.08,2.16-1.22,4.54-3.99,4.71-6.21.16-2.16-1.85-5.53-3.85-6.58-4.64-2.45-9.83-3.83-14.81-5.62-2.81-1.01-5.69-1.83-8.43-2.98-10.79-4.52-14.84-10.95-14-21.98.69-9.09,7.77-17.01,17.67-19.22,13.96-3.12,26.59.28,38.61,8.49Z"/><path class="cls-3" d="M1023.1,397.8c0,17.16-.09,34.33.07,51.49.04,3.82-.99,5.49-5.05,5.17-3.81-.31-7.68-.32-11.49,0-4.33.37-5.32-1.51-5.29-5.49.14-22.66.07-45.32.07-67.98,0-11.83.11-23.66-.06-35.49-.06-3.82,1.06-5.49,5.11-5.17,3.81.31,7.68.32,11.49,0,4.35-.37,5.27,1.52,5.23,5.49-.18,17.33-.08,34.66-.08,51.99Z"/><path class="cls-3" d="M1651.1,397.87c0,17.16-.1,34.33.08,51.49.04,3.95-1.2,5.36-5.13,5.09-4.15-.28-8.33-.19-12.49-.02-3,.12-4.24-1.03-4.16-4.04.12-4.33.02-8.66.02-13,0-30.33.1-60.65-.1-90.98-.03-4.85,1.41-6.59,6.22-6.1,3.46.36,7.01.28,10.49.02,3.88-.3,5.2,1.06,5.16,5.06-.19,17.49-.08,34.99-.08,52.49Z"/><path class="cls-3" d="M2902.1,396.9c0-17.16.1-34.33-.08-51.49-.04-3.95,1.2-5.36,5.13-5.09,4.15.28,8.33.19,12.49.02,3-.12,4.24,1.03,4.16,4.04-.12,4.33-.02,8.66-.02,13,0,30.33-.1,60.65.1,90.98.03,4.85-1.42,6.59-6.22,6.1-3.46-.36-7.01-.28-10.49-.02-3.88.3-5.2-1.06-5.16-5.06.19-17.49.08-34.99.08-52.49Z"/><path class="cls-14" d="M2419.28,685.25h-16.05v-62.06c-3.54-.18-6.48-.34-9.76-.51v-14.19h9.05c.56-4.44.78-8.57,1.63-12.56,2.32-10.97,10.48-17.44,21.7-17.55.67,0,1.33-.02,2,0,16.24.57,14.25,1.09,13.25,16.12-4.22-.53-8.43-1.42-12.65-1.52-6.62-.16-12.12,8.16-9.5,14.24.39.9,2.36,1.51,3.62,1.55,5.82.21,11.65.17,17.47.24.3,0,.59.25,1.23.55v13.12h-21.99v62.56Z"/><path class="cls-14" d="M1860.64,608.39c5.37,0,10.2-.22,14.98.15,1.27.1,2.93,1.81,3.49,3.17,6.46,15.49,12.73,31.06,19.07,46.6.55,1.34,1.18,2.65,2.24,4.99,3.13-7.53,5.91-14.14,8.63-20.77,4.22-10.3,8.3-20.67,12.74-30.87.64-1.47,2.89-2.95,4.53-3.11,4.28-.44,8.64-.15,13.88-.15-3.15,7.36-6.07,14.25-9.04,21.13-7.7,17.85-15.55,35.63-23,53.58-1.53,3.69-3.97,3.58-6.7,3.21-3.11-.42-6.99,2-9.03-2.81-10.24-24.17-20.64-48.27-30.98-72.4-.25-.59-.37-1.24-.81-2.71Z"/><path class="cls-28" d="M2432.1,397.67c0,17.15-.12,34.29.08,51.44.05,4.15-1.22,5.67-5.38,5.34-3.97-.31-7.99-.17-11.98-.04-2.84.09-3.96-1.14-3.73-3.87.06-.66,0-1.33,0-2,0-34.13.08-68.25-.1-102.38-.02-4.59,1.29-6.28,5.89-5.84,4.76.46,11.59-1.37,13.83,1.12,2.57,2.86,1.3,9.35,1.34,14.27.11,13.98.04,27.97.04,41.95Z"/><path class="cls-14" d="M2030.62,685.24h-15.14v-76.56h14.89c.14,3.2.29,6.45.44,10,4.55-3.12,8.49-6.79,13.15-8.75,4.71-1.99,10.13-2.28,15.8-3.43v16.82c-.77.17-1.68.51-2.6.56-15.33.88-25.29,10.65-26.01,26.04-.46,9.81-.38,19.64-.53,29.46-.03,1.81,0,3.61,0,5.87Z"/><path class="cls-10" d="M2127.98,608.54h15.24v76.54h-15.24v-76.54Z"/><path class="cls-10" d="M1321.26,685.23h-15.33v-76.57h15.33v76.57Z"/><path class="cls-2" d="M1855.75,685.13h-15.39v-76.33h15.39v76.33Z"/><path class="cls-1" d="M2421.85,298.69q11.95,0,11.95,11.82,0,11.57-12.19,11.57c-12.2,0-12.27,0-12.18-12.07.1-13.06-1.74-11.13,11.43-11.32.33,0,.67,0,1,0Z"/><path class="cls-1" d="M1024.1,310.37q0,11.72-11.88,11.71c-11.82,0-11.9,0-11.8-11.93.1-13.18-1.75-11.28,11.27-11.47.17,0,.33,0,.5,0q11.92,0,11.92,11.68Z"/><path class="cls-1" d="M1652.1,310.33q0,11.76-11.83,11.76c-11.87,0-11.95,0-11.85-11.88.11-13.34-1.83-11.3,11.72-11.51.17,0,.33,0,.5,0q11.46,0,11.46,11.63Z"/><path class="cls-1" d="M2913.03,298.69c11.77,0,11.84,0,11.75,11.99-.1,13.13,1.75,11.29-11.33,11.39-12.36.09-12.36.02-12.36-12.22q0-11.16,11.94-11.16Z"/><path class="cls-8" d="M1305.3,581.17h16.88v16.41h-16.88v-16.41Z"/><path class="cls-8" d="M2144.16,597.91c-4.87,0-9.33.02-13.79-.02-.96,0-1.92-.26-3.07-.43v-16.28h16.86v16.73Z"/><path class="cls-4" d="M1856.63,597.92c-5.24,0-9.55.22-13.8-.14-1.16-.1-3-1.86-3.13-3.01-1.51-13.63-.5-14.55,13.19-13.97,2.71.11,3.9.86,3.79,3.71-.16,4.25-.04,8.51-.04,13.42Z"/><path class="cls-6" d="M402.06,378.36c1.32,0,2.64,0,3.96,0,0,6.36,0,12.71,0,19.07-1.32,0-2.64,0-3.96,0,0-6.35,0-12.71,0-19.06Z"/><path class="cls-6" d="M406.01,359.42c-1.33,0-2.65-.01-3.98-.02,0-6.34,0-12.69,0-19.03,1.33,0,2.66-.01,3.98-.02,0,6.36,0,12.71,0,19.07Z"/><path class="cls-30" d="M405.09,435.98c-.69-.19-1.37-.37-2.05-.56,0-6.35,0-12.71,0-19.06.99,0,1.99,0,2.98,0-.31,6.54-.62,13.08-.92,19.62Z"/><path class="cls-35" d="M374.09,359.28c-1.99,0-3.99-.02-5.98-.03,0-6.24,0-12.48,0-18.72,1.99,0,3.99-.02,5.98-.03,0,6.26,0,12.52,0,18.78Z"/><path class="cls-33" d="M393.07,397.37c-1.68,0-3.37-.01-5.05-.02,0-6.31,0-12.62,0-18.93,1.68,0,3.37-.01,5.05-.02,0,6.32,0,12.65,0,18.97Z"/><path class="cls-34" d="M373.09,397.26c-1.66,0-3.33,0-4.99,0,0-6.24,0-12.48,0-18.72,1.66,0,3.33,0,4.99,0,0,6.25,0,12.49,0,18.74Z"/><path class="cls-20" d="M393.07,397.37c0-6.32,0-12.65,0-18.97,1.64,0,3.28-.02,4.93-.02,0,6.34,0,12.68,0,19.02-1.64,0-3.28-.02-4.92-.02Z"/><path class="cls-29" d="M364.1,435.24c-1.66,0-3.33,0-4.99,0,0-6.23,0-12.46,0-18.7,1.66,0,3.33,0,4.99-.01v18.71Z"/><path class="cls-29" d="M364.1,359.24c-1.66,0-3.33,0-4.99,0,0-6.23,0-12.46,0-18.7,1.66,0,3.33,0,4.99-.01,0,6.24,0,12.48,0,18.71Z"/><path class="cls-34" d="M368.11,416.53c1.66,0,3.33,0,4.99,0,0,6.25,0,12.49,0,18.74-1.66,0-3.33,0-4.99,0,0-6.24,0-12.48,0-18.72Z"/><path class="cls-20" d="M398.02,359.38c-1.65,0-3.3,0-4.95,0,0-6.33,0-12.65,0-18.98,1.65,0,3.3,0,4.95,0,0,6.33,0,12.66,0,18.99Z"/><path class="cls-24" d="M403.04,416.36c0,6.35,0,12.71,0,19.06-1.67-.01-3.35-.02-5.02-.04,0-6.33,0-12.66,0-18.99,1.67-.01,3.35-.02,5.02-.04Z"/><path class="cls-29" d="M359.11,378.54c1.66,0,3.33,0,4.99-.01,0,6.24,0,12.48,0,18.71-1.66,0-3.33,0-4.99,0,0-6.23,0-12.46,0-18.7Z"/><path class="cls-19" d="M343.12,378.53c1.33,0,2.67,0,4,0,0,6.24,0,12.47,0,18.71-1.33,0-2.67,0-4,0,0-6.24,0-12.48,0-18.73Z"/><path class="cls-19" d="M343.12,340.53c1.33,0,2.67,0,4,0,0,6.24,0,12.47,0,18.71-1.33,0-2.67,0-4,0,0-6.24,0-12.48,0-18.73Z"/><path class="cls-17" d="M347.12,359.24c0-6.24,0-12.47,0-18.71,1.33,0,2.67,0,4,0,0,6.23,0,12.46,0,18.69-1.33,0-2.67,0-4,0Z"/><path class="cls-9" d="M359.11,340.54c0,6.23,0,12.46,0,18.7-1.33,0-2.66,0-4,0,0-6.23,0-12.46,0-18.69h4Z"/><path class="cls-25" d="M364.1,359.24c0-6.24,0-12.48,0-18.71,1.33,0,2.67,0,4,0,0,6.24,0,12.48,0,18.73-1.33,0-2.67,0-4,0Z"/><path class="cls-25" d="M364.1,397.24c0-6.24,0-12.48,0-18.71,1.33,0,2.67,0,4,0,0,6.24,0,12.48,0,18.73-1.33,0-2.67,0-4,0Z"/><path class="cls-21" d="M355.12,435.23c-1.33,0-2.66,0-4,0,0-6.23,0-12.46,0-18.7,1.33,0,2.66,0,4,0,0,6.23,0,12.46,0,18.69Z"/><path class="cls-26" d="M397.99,397.4c0-6.34,0-12.68,0-19.02,1.35,0,2.71-.01,4.06-.02,0,6.35,0,12.71,0,19.06-1.36,0-2.71-.01-4.06-.02Z"/><path class="cls-19" d="M343.12,416.53c1.33,0,2.67,0,4,0,0,6.24,0,12.47,0,18.71-1.33,0-2.67,0-4,0,0-6.24,0-12.48,0-18.73Z"/><path class="cls-9" d="M355.12,435.23c0-6.23,0-12.46,0-18.69,1.33,0,2.66,0,3.99,0,0,6.23,0,12.47,0,18.7-1.33,0-2.66,0-3.99,0Z"/><path class="cls-15" d="M388.02,378.42c0,6.31,0,12.62,0,18.93-1.32-.01-2.63-.03-3.95-.04,0-6.28,0-12.57,0-18.85l3.95-.04Z"/><path class="cls-5" d="M398.02,416.39c0,6.33,0,12.66,0,18.99-1.33,0-2.65,0-3.97-.01,0-6.32,0-12.64,0-18.96,1.32,0,2.65,0,3.97-.01Z"/><path class="cls-17" d="M347.12,397.24c0-6.24,0-12.47,0-18.71,1.33,0,2.67,0,4,0,0,6.23,0,12.46,0,18.69-1.33,0-2.67,0-4,0Z"/><path class="cls-21" d="M351.13,397.23c0-6.23,0-12.46,0-18.69,1.33,0,2.66,0,3.99,0,0,6.23,0,12.46,0,18.69-1.33,0-2.66,0-3.99,0Z"/><path class="cls-9" d="M355.12,397.23c0-6.23,0-12.46,0-18.69,1.33,0,2.66,0,3.99,0,0,6.23,0,12.47,0,18.7-1.33,0-2.66,0-3.99,0Z"/><path class="cls-32" d="M394.04,416.41c0,6.32,0,12.64,0,18.96-1.33,0-2.66-.02-3.99-.03,0-6.3,0-12.61,0-18.91,1.33,0,2.66-.02,3.99-.03Z"/><path class="cls-23" d="M387.07,435.33c-1.33,0-2.66-.02-3.99-.03,0-6.28,0-12.55,0-18.83,1.33,0,2.66-.02,3.99-.03,0,6.3,0,12.59,0,18.89Z"/><path class="cls-27" d="M384.07,378.46c0,6.28,0,12.57,0,18.85-1.33,0-2.66-.02-3.99-.03,0-6.26,0-12.53,0-18.8l3.99-.03Z"/><path class="cls-37" d="M373.09,435.26c0-6.25,0-12.5,0-18.74,1.33,0,2.66-.01,3.99-.02,0,6.26,0,12.52,0,18.79-1.33,0-2.66-.01-3.99-.02Z"/><path class="cls-37" d="M373.09,397.26c0-6.25,0-12.5,0-18.74,1.33,0,2.66-.01,3.99-.02,0,6.26,0,12.52,0,18.79-1.33,0-2.66-.01-3.99-.02Z"/><path class="cls-21" d="M355.12,340.54c0,6.23,0,12.46,0,18.69-1.33,0-2.66,0-3.99,0,0-6.23,0-12.46,0-18.69,1.33,0,2.66,0,3.99,0Z"/><path class="cls-25" d="M368.11,416.53c0,6.24,0,12.48,0,18.72-1.33,0-2.67,0-4,0v-18.72c1.33,0,2.67,0,4,0Z"/><path class="cls-16" d="M398.02,359.38c0-6.33,0-12.66,0-18.99,1.34,0,2.68-.01,4.02-.02,0,6.34,0,12.69,0,19.03-1.34,0-2.68-.01-4.02-.02Z"/><path class="cls-17" d="M347.12,435.24c0-6.24,0-12.47,0-18.71,1.33,0,2.67,0,4,0,0,6.23,0,12.47,0,18.7-1.33,0-2.67,0-4,0Z"/><path class="cls-33" d="M393.07,340.4c0,6.33,0,12.65,0,18.98-1.35,0-2.7,0-4.05,0,0-6.32,0-12.64,0-18.96,1.35,0,2.7,0,4.05,0Z"/><path class="cls-22" d="M389.02,340.41c0,6.32,0,12.64,0,18.96-1.31-.02-2.62-.03-3.94-.05,0-6.29,0-12.57,0-18.86,1.31-.02,2.62-.03,3.94-.05Z"/><path class="cls-18" d="M387.07,435.33c0-6.3,0-12.59,0-18.89,1,0,1.99,0,2.99-.01,0,6.3,0,12.61,0,18.91-1,0-1.99,0-2.99-.01Z"/><path class="cls-31" d="M343.12,416.53c0,6.24,0,12.48,0,18.73-5.94-2.13-2.42-7.07-2.81-10.63-.29-2.67-2.31-6.92,2.81-8.1Z"/><path class="cls-13" d="M383.08,359.31c-1,0-2-.01-3.01-.02,0-6.27,0-12.53,0-18.8,1,0,2-.01,3.01-.02,0,6.28,0,12.56,0,18.85Z"/><path class="cls-12" d="M380.08,340.49c0,6.27,0,12.53,0,18.8-1,0-2,0-2.99-.01,0-6.26,0-12.52,0-18.78,1,0,2,0,2.99-.01Z"/><path class="cls-12" d="M377.09,397.28c0-6.26,0-12.52,0-18.79,1,0,1.99,0,2.99,0,0,6.27,0,12.53,0,18.8-1,0-1.99,0-2.99,0Z"/><path class="cls-13" d="M383.08,416.47c0,6.28,0,12.55,0,18.83-1,0-2-.01-3-.01,0-6.27,0-12.53,0-18.8,1,0,2,0,3-.01Z"/><path class="cls-12" d="M380.08,416.49c0,6.27,0,12.53,0,18.8-1,0-1.99,0-2.99,0,0-6.26,0-12.52,0-18.79,1,0,1.99,0,2.99,0Z"/><path class="cls-31" d="M343.12,340.53c0,6.24,0,12.48,0,18.73-5.94-2.13-2.42-7.07-2.81-10.63-.29-2.67-2.31-6.92,2.81-8.1Z"/><path class="cls-36" d="M377.09,340.5c0,6.26,0,12.52,0,18.78-1,0-2,0-3,0,0-6.26,0-12.52,0-18.78,1,0,2,0,3,0Z"/><path class="cls-31" d="M343.12,378.53c0,6.24,0,12.48,0,18.73-5.94-2.13-2.42-7.07-2.81-10.63-.29-2.67-2.31-6.92,2.81-8.1Z"/><path class="cls-11" d="M383.08,359.31c0-6.28,0-12.56,0-18.85.67,0,1.33,0,2,0,0,6.29,0,12.57,0,18.86-.67,0-1.33,0-2,0Z"/></g></svg>