<?xml version="1.0" encoding="UTF-8"?>
<svg xmlns="http://www.w3.org/2000/svg" version="1.1" viewBox="0 0 3759.6 446">
  <defs>
    <style>
      .cls-1 {
        font-family: Palazzo-Bold, Palazzo;
        font-size: 175px;
        font-weight: 700;
      }

      .cls-1, .cls-2 {
        isolation: isolate;
      }

      .cls-1, .cls-3 {
        fill: #494b4e;
      }
    </style>
  </defs>
  <!-- Generator: Adobe Illustrator 28.7.1, SVG Export Plug-In . SVG Version: 1.2.0 Build 142)  -->
  <g>
    <g id="Layer_2">
      <g id="Layer_1-2">
        <g class="cls-2">
          <text class="cls-1" transform="translate(682.4 193.8)"><tspan x="0" y="0">The Chinese University of Hong Kong</tspan></text>
          <text class="cls-1" transform="translate(682.4 364.8)"><tspan x="0" y="0">Faculty of Engineering</tspan></text>
        </g>
      </g>
      <g id="Layer_2-2">
        <g id="Layer_1-2-2" data-name="Layer_1-2">
          <g id="_2NlABQ.tif">
            <path class="cls-3" d="M433.5,115.9c-.2,3.2-.3,6.4-.6,9.7-.4,5.1-.8,10.1-1.2,15.2-.2,3.3-.4,6.6-.6,9.9-.4,4.8-.8,9.5-1.2,14.2-.2,2.8-.5,5.6-.6,8.4-.2,3.5-.3,7.1-.7,10.6-.7,6.1-1.5,12.1-2.4,18.1-.7,5-1.5,10-2.5,14.9-2.3,10.8-5.3,21.4-10.2,31.4-.5,1-.8,2.1-1.1,3.1,2.1.3,4,.7,6,.8,6.7.2,12.2,3.3,17.6,6.9,3.3,2.3,5.9,5.2,7.8,8.7,1.4,2.5,1,5.5-1,7.7-4.7,5.4-9.3,10.9-14,16.3-1.9,2.2-3.8,4.4-5.8,6.5-1,1.1-1.5,2.2-1.5,3.6,0,12.3,2.3,24,9.8,34.2,2.1,2.9,4.5,5.4,7.2,7.6.6.5,1.5.5,2.3.5s1.4-.5,2.1-.5c9-.3,17.9-.8,26.9-.6,5.9.1,11.7,1.2,17.1,3.9,6.4,3.2,9.5,8.4,9.7,15.4,0,3.2.1,6.4.2,9.9,1.3-.2,2.3-.2,3.3-.5,6.9-1.9,14-2.8,21-3.7,4.7-.6,9.5-1,14.3-1.2,5.1-.2,10.1.4,15,1.8,8.3,2.4,13.4,7.9,14.1,17.4.9,12.1.8,24.2.5,36.3,0,4-1,7.8-3.9,10.8-3.1,3.2-6.7,5.5-10.7,7.3-5.1,2.4-10.8,3.4-16.3,4.6-3.6.8-7.4.6-11.1.7-6.2.1-12.3,0-18.5,0-3-1.4-6.3-.3-9.4-1.2-3.2-.9-6.6-.8-9.9-1.4-3.9-.7-7.7-1.5-11.5-2.6-6.6-1.9-13.2-3.9-19.6-6.3-7.4-2.8-14.6-6.1-21.5-10.1-4.5-2.6-9-5-13.2-8-4.3-3.2-8.7-6.4-12.8-9.9-1.5-1.3-3.2-1.6-4.9-1.2-7.9,1.7-15.6,3.7-23.5,5.5-3.5.8-7,1.3-10.6,1.9-5,.9-10,1.8-15,2.6-2.4.4-4.9.3-7.3.6-5.1.6-10.1,1.4-15.2,1.9-2.9.3-5.8,0-8.8.1-18.1,1.2-36.3,1.1-54.5,1.2-.2,0-.4,0-.6,0-2.4-.2-4.7-.4-7.1-.5-3.9-.2-7.8-.2-11.8-.4-.2,0-.4,0-.6,0-2-.1-3.9-.3-5.9-.4-4.1-.2-8.2-.3-12.3-.6-2.6-.2-5.2-.9-7.8-1.2-2.4-.3-4.9-.4-7.3-.6-1.9-.2-3.9-.2-5.7-.7-2.5-.7-5-.9-7.5-1.2-2.8-.3-5.5-1.2-8.3-1.7-2.9-.5-5.8-.9-8.6-1.5-2-.4-3.9-.9-5.9-1.4-3.6-.8-7.3-1.5-10.9-2.4-1.4-.3-2.7-.8-4.1-1.1-1.4-.4-2.8-.4-4.1.7-5.6,5.1-11.8,9.4-18.1,13.5-7,4.5-14.4,8.3-22,11.7-7.1,3.2-14.4,5.6-21.7,8.1-4.7,1.6-9.6,2.5-14.4,3.5-3.8.8-7.7,1.2-11.5,1.9-9.9,1.7-19.8,1.2-29.8,1.4-4.7,0-9.2-.6-13.7-1.5-6.8-1.3-13.5-3.4-19.1-7.6-3.2-2.4-5.9-5.2-7-9.2-.5-2.1-.8-4.2-.9-6.4-.2-2.6,0-5.2,0-7.8.2-8.8.6-17.5.6-26.3s1.3-8.3,3.8-12c1.9-2.9,4.6-4.7,7.6-5.7,6.6-2.3,13.6-3.1,20.5-2.5,6.4.5,12.8.8,19,2.3,4.3,1.1,8.7,1.8,13.1,2.5,1.2.2,2.4,0,3.9,0,.2-4.4.4-8.5.6-12.7.3-4.9,2.9-8.5,6.9-11,4.2-2.8,9-3.7,13.9-4.5,6.4-1,12.9-.6,19.4-.6,1.2,0,2.5,0,3.8,0,.2,0,.4,0,.6,0,3.3.4,6.6.9,9.9,1.1,1,0,2.2-.6,3-1.3,4.2-3.8,7.9-7.9,10.5-13.2,2.4-5,3.9-10.1,5-15.5.3-1.7.4-3.2.5-4.9.2-2.4.6-4.7.6-7,0-1.1-.4-2.3-1-3.1-1.3-1.8-2.9-3.5-4.4-5.2-2.4-2.8-4.8-5.7-7.2-8.5-1.7-2-3.5-3.8-5.2-5.8-1.7-1.9-3.6-3.5-4.8-5.6-.7-1.3-.6-3.4-.3-5,.6-2.9,2.6-5.1,4.6-7.1,5.8-5.5,12.4-9.2,20.5-9.9,2.3-.2,4.5-.9,6.6,0,1.3-1.1.3-2,0-2.9-1.8-4.3-3.9-8.4-5.3-12.8-2.2-6.8-4.2-13.6-5.9-20.5-1-4.1-1.3-8.4-1.9-12.6-.6-4.1-1.4-8.2-2-12.3-.4-2.8-.3-5.7-.6-8.6-.4-3.6-.9-7.1-1.3-10.6,0-.8,0-1.7,0-2.5-.1-1.5-.3-3.1-.5-4.6,0-.3-.2-.6-.2-.9-.2-3.8-.3-7.6-.5-11.4-.1-1.8-.6-3.6-.7-5.5-.1-2.9,0-5.8-.1-8.8,0-.9-.2-1.9-.3-2.8,0,0,.2-.2.2-.2-.1-.1-.2-.3-.4-.4-.1-3.4-.3-6.7-.4-10.1,0,0,.2-.2.2-.2,0-.2-.2-.3-.3-.5-.3-12.9-.6-25.8-.9-38.7,0-1.1-.3-2.2-.4-3.4,0,0,.1,0,.2,0,0-.1-.2-.2-.3-.4,0-10.9,0-21.7,0-32.6.1-11.4.4-22.7.7-34.5,2.6-.6,5.4-1.4,8.2-1.9,8.6-1.4,17.2-2.4,25.7-3.9,8.6-1.5,17.3-2.2,26-3.1,6.3-.7,12.6-1.3,18.9-1.9,5.9-.5,11.8-.8,17.7-1.3,4.4-.3,8.9-.8,13.3-1.2.2,0,.3,0,.5,0,6.8-.4,13.5-.7,20.2-1,3.7-.2,7.4-.2,11.1-.2,8.5,0,16.9-.2,25.4.1,9.6.3,19.1,1.1,28.7,1.6,2.5.1,5,.1,7.5.2.2,0,.5,0,.7,0,.9.2,1.9.4,2.8.4,4.5.3,8.9.4,13.4.8,5.5.5,10.9,1.2,16.3,1.8,4.3.5,8.6.8,13,1.3,4.3.5,8.6,1.1,12.9,1.7,3.7.5,7.4.9,11.1,1.4,4.9.7,9.8,1.3,14.7,2.1,3.6.6,7.3,1.4,10.9,2.3,3.1.8,2.9.9,3.5,4,1,5,.5,10,.5,15,.1,20.6,0,41.2,0,61.8,0,6.8-.4,13.6-.5,20.3,0,.4,0,.7,0,1.1h0s0,0,0,0ZM283,140.5v-9.4c-.9,0-1.4-.2-1.9,0-2.9,1.2-5.8,2.4-8.5,3.9-4.4,2.5-8.3,5.6-10.4,10.4-2.4,5.5-3,11.1-2,17,.7,3.7,2.6,6.1,6,7.3,1.2.4,2.6.7,3.9.8,4.2.3,8.5.4,12.8.6v14.7c3.5-.6,6.7-.8,9.8-1.6,6.4-1.8,11-5.6,13-12.2,2.1-6.9,2.2-13.8.5-20.8-1.1-4.8-3.7-8.3-8.4-10.1-2-.8-4.2-1.2-6.3-1.2-2.9,0-5.8.4-8.7.6h0ZM283,114.8v15.2c1.3-.6,2.2-1,3.2-1.4,6.5-2.6,13-5.2,19.6-7.6,4-1.4,8.1-2.4,12.2-3.7,7.9-2.6,15.5-5.7,22.7-9.9,1-.6,1.9-1.3,2.8-1.9,6.1-4,11.2-9.1,15.1-15.2,1.8-2.7,3.3-5.7,3.4-8.8-6.3,3.2-12.6,6.4-18.9,9.5-3.7,1.8-7.8,2.9-11.8,3.7-2.9.5-3.8-.2-3.6-3.2.2-5.4,3.3-9.2,7.9-11.5,5.1-2.6,10.4-4.7,15.6-7,5.3-2.3,10.2-5.2,14.5-9,2.6-2.3,3.5-5.5,4.6-8.6,0-.1-.2-.3-.3-.5-.2,0-.4,0-.6,0-.5.2-.9.4-1.4.7-8.3,4.5-16.9,8-26.2,9.7-3.2.6-4.9-.8-4.1-3.8,1.1-3.7,2.8-7.3,6.5-9.2,4.4-2.3,8.8-4.7,13.4-6.7,4.8-2.1,9.4-4.3,13.7-7.3,1.4-1,2.5-2.2,3.6-3.5.6-.8,1.5-1.8.8-3-6.6,2.1-13.1,4.3-19.6,6.3-2.6.8-5.3,1.7-8.2.7-.5-3.2.8-5.8,2.5-8.2,4.1-5.8,9.4-10.2,16-13,4.5-1.9,9.1-2.9,13.9-1.8,1.3.3,2.8.2,4.1.2-.3-.9-.7-1.1-1.1-1.3-5.5-2.4-11.2-2.9-17.1-2.6-3.5.2-6.8,1-9.9,2.4-8.8,3.8-15.2,10.3-20.6,18-7.1,10.1-12.1,21.3-16.2,32.9-2.4,6.9-4.5,14-6.8,21-3.2,9.9-9.5,17.5-18.1,23.2-.4.3-.9.6-1.3.8-3.4,1.6-6.8,3.2-10.1,4.7v-44.4c-4.8,1.4-9.4,2.9-14.7,2.9.4-1.5.6-2.6,1-3.6.6-1.4,1.4-2.8,2-4.2,1.4-3.3-.4-8.2-3.5-9.7-2.3-1.2-4.5-.5-5.4,1.9-.5,1.3-.7,2.8-.7,4.3,0,5.8,0,11.7,0,17.6,0,2.4-.5,4.7-1.8,6.5-5.5,7.8-16,6.4-20.5,2.5-3.2-2.8-4.5-6.4-4.6-10.5-.1-5.8,0-11.7,0-17.5s0-1.5,0-2.2c-.2-1.1-.4-2.3-2-2.4-1.5-.2-2.4.7-2.8,2-.2.7-.3,1.4-.3,2.1,0,1.9,0,3.8,0,5.6-.1,1.9-.6,3.8-2.5,4.7-3.5,1.6-9.7.4-12-2.8-.7-1-1.6-2-.6-3.4.5.1.9.2,1.2.3,4.2,1.2,5.3.4,5.2-4,0-.3,0-.6,0-.9-.2-2.2-1.2-3.5-3.4-4.3-2.9-1.2-5.7-1-8.5-.2-2.9.8-4.7,3-4.6,6.1.2,11.3,0,22.6,0,33.8,0,.8-.1,1.7,0,2.5.6,2.4,1,4.9,4,5.8,2.6.7,5,1,7.2-1.2-.7-.6-1.2-1.1-1.7-1.6-3.4-3.7-2.7-9.7,1.4-12.6,2.2-1.6,4.7-2.2,7.3-2.2,1.7,0,3.7,0,5.1,1.8-1.7,1-3.1,1.9-4.7,2.8-1.2.7-1.7,1.8-1.8,3.1-.1,3.4,1.7,4.4,5,5.4,1.5.5,4.4-1.4,4.6-3.7.1-1.8.5-3.7.7-5.5,4.1,1.7,6.3,5.9,5.4,11.5-.9,5.9-5.8,6.3-10.6,6.7.3,2.5,2.1,3.7,3.5,5.1,2,1.9,5.1,2.3,7.6,1.1,4.9-2.5,7.9-6.3,7.7-12.1,0-.8.2-1.5.3-2.6,1.9.7,2.9,1.9,3.3,3.3,1,3.2,1.5,6.3.8,9.8-1.5,7.2-4.4,13.6-10.2,18.4-5.6,4.6-11.9,6.2-18.9,4.5-6.6-1.6-10.4-7.9-9.3-14.9.8.4,1.5,1,1.9,1.9,1.6,3.4,5.5,4,7.9,1.2,2.6-3,1.9-9.9-1.4-12.2-.2-.1-.3-.3-.5-.3-3.5-1-7-.9-10.2.8-3.7,2-5.1,5.8-6.4,9.6-1.2,3.8-1.3,7.8-1.7,11.7-.4,3.7.3,7.4,1.3,11.1,2.1-.2,3.9-.6,5.8-.6,6.6-.1,13,1,19.4,2.7,3.3.9,6.4,2.2,9,4.7.9.8.9,1.5.6,2.3-1.5.3-2.9.4-4.1.9-3.9,1.4-6.7,4.3-8.6,7.8-3.4,6-3.6,12.5-1.6,19,2.2,7.4,7.1,12.9,13.3,17.1,8.2,5.6,17.6,7.9,27.4,8.1,6.5.2,13.1-.4,19.7-.6v10.1c-8.9,0-17.7,0-26.6,0-4.5,0-8.8.8-12.5,3.9-4.9,4.2-4.6,12.4.8,15.7,4.3,2.7,9.2,2.7,14.1,2.6.3,0,.5-.4,1-.9-1.1-.3-1.9-.5-2.7-.8-1.9-.8-3.9-1.5-5.6-2.6-1.8-1.2-2.8-3.1-2.4-5.4.4-2.2,1.8-3.5,3.9-4,1.9-.4,3.9-.6,5.8-.7,8,0,16.1,0,24.1,0,0,.6,0,1.2,0,1.9v72.1c0,.6.1,1.2.2,2,2.4.1,4.6.4,6.9.4,6.5,0,12.9-.2,19.4-.5,3.8-.1,7.7-.3,11.5-.7,6.5-.7,11.6-5.2,13-12,.6-3,.4-5.8-.2-8.6-.6-3.1-2.1-5.9-4.2-8.2-.9-1.1-2-2.4-3.9-1.6.3.7.5,1.3.8,1.9.8,2.1,1.2,4.2.7,6.6-.8,3.5-3,5.5-6,7-3.4,1.7-7.1,2.3-10.9,2.3-6,0-11.9,0-17.9,0h-8.2c.9-.5,1.3-.9,1.8-1,4.9-1.9,8.5-5.3,11.2-9.6,2.3-3.9,3.7-8.1,2.3-12.8-.7-2.1-1.5-4.2-2.2-6.3,2.3-.3,4.6-.5,7-.9,9.3-1.8,16.4-6.7,21.5-14.7,3.9-6.2,5.9-13,7.7-19.9.8-3.1,1.5-6.2,2.6-9.2,1.5-4.2,4.4-7.2,8.7-8.8,2.8-1,5.5-2.3,8.2-3.7,2.9-1.5,4.6-.6,4.9,2.6,0,1,.1,1.9.2,3.2,4.5-2.7,4.4-7.3,5.9-10.9,2.5.2,3,2.4,4,3.9,3.9-2.2,2.5-6.5,4.2-9.8,1.1.5,2.3.7,3,1.4.8.8,1.2,2.1,1.8,3.2,3.1-3,2.5-6.9,3.1-10.6,2.8.2,2.9,2.8,4,4.4,3.4-3.2,2.6-7.3,2.8-11.2,2.7.1,3.3,2,4.1,3.6.3-.1.6-.1.7-.3,1.8-2.2,2.2-4.9,2-7.6-.2-2.4.3-4.4,2-6.3,2.3-2.7,4.1-5.8,4.9-9.3,0-.3.4-.6.7-1,1,3.8-2.8,26.2-4.9,30.2-2-.4-3.6-.5-4.8-.2.8,2.4,1.7,4.8,2.4,7.2.4,1.2-.2,1.8-1.4,1.5-1.1-.3-2.2-.5-3.4.3,1.9,3.1,3.3,6.3,2.4,9.9-1.8-.2-3.5-.4-5.6-.6.8,2.1,1.7,3.6,2,5.3.3,1.8,0,3.6,0,5.5-1.6-.5-2.9-.8-4.1-1.2-.2.4-.4.6-.3.8.1.6.3,1.2.5,1.8,1.4,3.7,1.2,7.3-.6,10.9-2.5,5.1-5.1,10.3-8.7,14.8-3.1,3.9-6.1,7.8-10.8,10.1-6.3,3.1-13,2.2-17.3-3.5-2.6-3.6-3.6-7.6-2.2-11.8,1.6-4.9,5.5-7.8,10-9.7,3.4-1.4,4.9-.4,6.9,2.3.2.3.4.7.6,1.1,1.6,3.2,0,6.1-3.6,6.4-.8,0-1.7,0-2.5,0-2.1.1-3.5,1.5-3.6,3.5-.3,3.1,1.3,4.9,4.7,5.3,7.2.8,13.2-4.9,13.4-12.1.2-6.2-2.6-11.3-7.8-14.8-3.4-2.3-7.2-2.9-10.9-.8-6.1,3.5-11.8,7.6-15.3,13.9-2.4,4.2-3,8.8-1.7,13.6,1.5,5.7,5.3,9.7,9.4,13.6,5.1,5,11.1,5.4,17.7,4.2,4.9-.9,8.6-3.5,12.2-6.5,1.3-1.1,2.4-1.4,4-1,3.8,1.1,7.5.2,10.9-1.5,2.6-1.3,4.8-3.2,6.6-6.2-2.1,0-3.8,0-5.6,0-1.8,0-3.5,0-4.6-1.9.2-.5.3-1.1.6-1.5,4.4-6,7.6-12.6,10.4-19.5.6-1.4,1.4-2.1,3-2.4,4.8-.9,8.3-3.6,10.5-8,.9-1.7,1.9-3.6,1.6-5.8-2.5,1.1-4.7,2.2-7.1,2.9-2,.7-3.1-.4-2.7-2.4,1.7-7.1,3.6-14.2,5.2-21.4.4-1.7,1.3-2.5,2.8-2.9,2.7-.7,4.9-2.4,6.6-4.5,2.3-2.9,3.8-6.1,3.5-10.1-3.5.8-6,4.2-10.2,2.9.3-3.1.5-6.2.9-9.2.5-4.2,1.4-8.4,1.6-12.6.1-2.4,1-3.8,3.1-4.8,5.2-2.3,8.9-9.2,7.9-15.8-.6.4-1.1.7-1.5,1-1.6,1.1-3.2,2.3-4.9,3.4-1.2.8-2.3.7-3.4-.9.5-8.1.9-16.4,1.4-24.6,7.8-3.4,11.2-9.2,10.6-17.8-1.3,1-2.3,1.8-3.4,2.6-1,.7-2,1.5-3.1,2-2.5,1.2-3.4.5-3.5-2.2-.2-4.6-.3-9.2-.6-13.7-.2-3.1-.7-6.2-1.1-9.3-.1-1.2.2-1.9,1.2-2.6,6-4.2,7.7-10.2,6.5-17.8-1.1,1.3-1.8,2.2-2.6,3-1,1-2.1,2.1-3.3,2.9-2,1.3-2.9.9-3.4-1.4-.2-.8-.4-1.6-.5-2.4-.3-5.2-1.3-10.3-2.6-15.3-1.2-4.6-3.2-9-6.5-12.6-1.3-1.4-2.7-2.6-5-3.2,1.2,2.2,2.4,3.9,3.2,5.8,2.2,5.1,2.8,10.6,3,16.1.1,3.6-.6,7.2-1.1,10.8-.4,3-2.9,5-5.8,5-3.4,0-5.9-1.8-7.9-4.3-.9-1.2-1.7-2.5-2.7-4-.5.9-1,1.4-1.1,2.1-1.4,4.3-.5,8.4,1.8,12.2,2.1,3.6,4.8,4.3,8.4,2.3.8-.4,1.8-.6,2.8-.9.1.7.3,1.1.2,1.3-1.8,4.4-3.5,8.9-5.4,13.2-.6,1.3-2,2-3.6,2-3.7,0-6.1-1.8-7.9-4.7-1.1-1.8-2-3.7-3.1-5.8-.7.8-1.4,1.2-1.6,1.8-2,4.6-2.2,9.4,0,13.8,1.5,2.8,3.2,4.5,7.5,3,1-.4,2.1-.5,3.5-.9-.1,1.1,0,1.7-.2,2.2-2.1,3.7-4.2,7.4-6.5,11-1.9,3-5.7,3.6-8.4,1.4-2.2-1.7-4.4-3.6-4.4-6.9,0-.8-.5-1.7-.9-2.9-1,1-1.8,1.7-2.3,2.5-1.8,2.9-2.5,6.1-2.4,9.5.1,5.1,4.1,7.6,8.2,6,.9-.3,1.7-.6,2.8.3-1.4,1.8-2.7,3.6-4,5.3-1.4,1.8-2.6,3.7-4.1,5.4-2.4,2.8-7.9,3-10.6,0-2.6-2.9-4.5-6.2-4.9-10.2,0-.9,0-1.9-1.3-2.4-1.4.9-2.6,2.2-3.4,3.8-2.1,4-2.7,8.3-2.1,12.7.6,4.9,3.8,7,8.8,6.2,1-.1,2,0,3.7,0-.8,1.2-1.2,2-1.7,2.5-2.2,2.1-4.4,4.1-6.7,6.1-.9.8-1.7,1.5-2.7,2.1-4.5,2.6-8.8,2.1-12.1-1.7-2.4-2.8-3.5-6.1-3.7-9.7-.1-2.1,0-4.1,0-6.7-1.4.7-2.4,1.1-3.4,1.6-1.7,1-2.7,2.6-3.8,4.3-2.6,4.1-3.8,8.4-3.6,13.3.1,5.1,4,7.9,7.6,7.6,1.5-.1,3.1,0,4.3,1.1,0,1.6-1.2,2.1-2.3,2.8-4,2.6-6.5,6.2-7.2,10.8-.5,3.2-.8,6.4-1.1,9.6-.6,7.4-3.9,13.2-9.7,17.8-3.4,2.7-7.2,4.6-11.1,6.2-4.8,1.9-9.9,3.1-15,3.8v-18.7c-3.3-.3-6.2-.4-9.1-.7-3.6-.4-7.3-.5-10.8-1.4-11.4-2.8-16.3-9.8-17-20.6-.4-6.2.4-12.4,1-18.7.7-7.2,4.4-12.5,9.8-16.7,7.8-6.2,16.9-10.1,26.2-13.5h0ZM283,52.7h0s0,17,0,17c.7-.3,1.1-.4,1.5-.6,4.4-1.9,8-4.7,11.3-8.2,7.6-7.9,11.9-17,9.8-28.2-1.6-8.3-6.3-14.4-14.1-17.9-2.6-1.2-5.5-1.4-8.6-1.6v6.5c-4.1-.1-8-.6-11.8-.3-4,.4-7.1,3-10.7,5.6.1-1.1,0-1.9.3-2.3,1.1-1.5,2.2-3.1,3.6-4.3,4.4-3.6,9.5-5.4,15.2-5.5,1,0,2-.1,3.2-.2v-6.1c-1.3,0-2.3,0-3.4,0-7.2.2-14.4.4-21.6.6-3.5.1-7.1.4-10.6.6-8.2.4-16.4.9-24.6,1.3-3.7.2-7.5.5-11.2.7-2.3.2-4.6.4-6.8.6-4.8.6-9.7,1.2-14.5,1.8-4.1.5-8.3.8-12.4,1.4-5.3.7-10.7,1.5-16,2.4-6.5,1-13.1,2.1-19.6,3.2-1.6.3-3.1,1-4.6,1.4v3.2c.1,30.1-.7,60.2.6,90.2.2,3.9.4,7.9.6,11.8.4,7,.8,13.9,1.3,20.9.4,5.3.8,10.6,1.2,15.9.6,7.7,1.2,15.3,1.9,23,.4,4.4.7,8.9,1.4,13.3,1.3,8.2,2.8,16.3,4.9,24.3,3.1,11.7,7.6,22.8,13.9,33.2,7.7,12.8,16.9,24.5,27.4,35.1,4,4,8,8,12.3,11.6,6.5,5.5,13.1,10.9,20.1,15.8,7.5,5.3,15.3,10.1,23.1,14.7,9.7,5.8,19.8,10.6,30.7,13.6,2,.5,3.8.6,5.9.5v-48.1h-11c-.3,1.4-.5,2.6-.8,3.8-1.5,6.6-5.5,9.8-11.2,11-.9.2-1.6-.1-1.8-1.4.4-.1.7-.3,1.1-.5,3.6-1.8,4.3-4.2,2.2-7.6-2.8-4.6-6.6-7-12.2-6.2-2.7.4-3.8,1.1-4.3,3.7-1.4,7.6-.1,14.5,6.3,19.6.8.6.7,1.1,0,1.9-8.1-2-13.1-7.4-16.2-14.9-1-2.5-1.7-5.1-1.4-7.9,0-1,0-2-1.2-2.3-3.5-.8-8.1,1.6-8.3,5.5-.2,3.4,1.1,5.9,3.9,7.6.8.5,1.7,1,1.1,2.4-.7,0-1.6.1-2.3,0-3.4-.7-6-2.7-8.2-5.3-3.5-4-4.3-8.8-3.4-13.7,1-5.1,4.6-8,9.6-9.1,2.4-.5,4.9-.9,7.4-1.2,1.7-.2,2.2-1.1,2.3-2.7.4-4.2,2-8,5.1-11.1,4.1-4,9.1-5.6,14.6-6.4,1.1-.2,2.3-.2,2.9,1.3-.9.6-1.8,1.1-2.6,1.8-4.4,3.2-6.2,7.7-6.2,13,0,2.3.7,3,3.1,3.5,1.7.3,3.5.3,5.2.6,4.2.8,8.5.8,12.7-.1,4.1-.9,7.5-3,8.8-7.1,1-3,.6-6.2-.7-9.2-1.6-3.6-3.8-6.7-6.4-9.6-1-1.2-2.2-1.8-3.8-1.7-3.2.2-6.4.4-9.7.5-9.3.1-18.5,0-27.8-1-6-.7-11.9-1.7-17.6-3.9-6.8-2.6-12.9-6.4-16.8-12.9-2.1-3.5-3.6-7.2-4.2-11.5,2.1-2,5-2.7,7.7-3.6,2.8-1,5.8-1.1,8.6-.9,2.8.2,5.6.8,8.7,1.2-.6-2.3-2.4-2.6-3.9-3-4.5-1.2-9-.8-13.5.4-5.8,1.5-11.1,4-15.9,7.7-4.7,3.6-8.3,8-10.2,13.8-1.3,3.8-1.1,7.5-.9,11.3-1.7.5-1.8.5-2.6-.8-4.2-6.4-7.2-13.3-8.6-20.9-.7-4-.4-8.1,2-11.7,2.7-4.1,6.3-7.2,10.6-9.4,11.2-5.8,23.3-7.5,35.7-6.7,4.6.3,9.4.9,13.2,4,.2.2,1-.3,2.1-.7-1.6-1.2-2.7-2.2-3.9-2.8-4.6-2.2-9.5-2.9-14.5-3.2-7-.4-13.9.6-20.9,2.4-.4-.9-1-1.7-1.4-2.6-1.9-4.8-2.3-9.9-3-14.9-.4-2.8-.4-5.6-.8-8.4-.7-5.7-.9-11.4.2-17.1,1.4-6.8,4.6-12.5,10.9-15.9.5-.3,1-.7,1.4-.9v-3.9c-3.4-.5-6.7-.8-10-1.4-4.7-.9-9-2.6-12.2-6.4-1.4-1.7-2.7-3.7-3.6-5.8-.7-1.6-2.1-2-3.2-2-1.6,0-3.2.7-4.6,1.5-.7.4-1.2,1.7-1.2,2.6,0,1.5.5,3,.8,4.5-1.6.4-2.6,0-3.7-1.6-1.6-2.4-2.3-5-2.1-8,.3-4.7,3.1-8.2,7.7-9.4,1-.2,1.9-.5,3.1-.8v-2.8c0-6.4,0-12.8,0-19.1,0-16.6,0-33.2,0-49.9,0-4.9-4.3-7.4-8.6-5.1-1.9,1.1-2.8,2.7-2.7,4.9.1,2,1.1,3.5,3.1,4.3.8.3,1.7.7,2.9,1.2-.9.6-1.5,1.1-2.1,1.4-6,2.1-12.5-1.7-13.2-8.3-.5-4.4,1.1-8.1,4.1-11.4,3.1-3.4,7-5.7,11.4-6.6,5.5-1.1,10.2-.6,13.8,5.3,1.8,3,2.2,6.2,2.2,9.6,0,22.2,0,44.3,0,66.5,0,3.6.3,7.3.5,10.9.5,8.7,7.6,15.5,17.7,14.5.1-2.1.3-4.3.5-6.5-.9-.4-1.7-.9-2.5-1.2-3.4-1.6-5.7-4.2-7-7.6-1.2-3.2-.9-6.3.7-9.2.3-.5.9-.8,1.4-1.1.3.4.4.5.4.6,0,.7,0,1.4.1,2.2.1,1.9,1,2.9,2.8,3.1,2.7.3,5.1-1.6,5.4-4.4.1-.9,0-1.9,0-2.8,0-16.5,0-33,0-49.5,0-3.3.5-6.6,2.7-9,1.8-2,4-3.7,6.3-5,3.5-2.1,7.5-2.8,11.6-3.4,6.9-1,13.7-.5,20.2,2,5.5,2.1,9.1,6.3,8.7,12.9-.1,3,0,6.1,0,9.1,0,.9.1,1.9.4,2.8.5,1.9,2.4,2.9,4.2,2.4,2.3-.6,2.9-1.2,2.9-3.7,0-6.6,0-13.2,0-19.8,0-4,1.8-6.7,5.3-8.5,4-2.1,8.2-2.4,12.4-1.3,5.2,1.4,9.3,5.3,8.8,11.3,0,1.1-.2,2.3,0,3.4,1,4.5.3,5.4,6.2,5.1h0,0ZM158.6,396.3c-2.5,0-2.6,0-3-1.6-.5-2.2-1.2-4.5-1.1-6.7.2-4.3,1.1-8.6,1.6-13,.6-5.4,1-10.8-1.7-15.9-1.8-3.5-4.4-5.4-8.2-5.9-2.1-.3-4.1-.8-6.1-1.2-6.1-1.2-12.1-3.1-18.3-3.6-8.8-.8-17.7-.8-26.6-.7-4.7,0-9.3,1-13.6,2.9s-7.6,4.8-8,9.9c-.3,3.7-.5,7.5-.6,11.2-.2,7.7-.2,15.5-.2,23.2,0,.9,0,1.8.1,2.5,19.2-6.3,38.6-6,58.2-3.4.2-3.1.2-5.9.5-8.6.6-6,1.9-11.9,1.8-18,0-.8.1-1.6.2-2.3,3.7-.7,3.9-.6,4,2.7.3,6.9-.1,13.7-1,20.6-.3,2.2,0,4.5,0,6.7,3.1.6,5.8,1,8.6,1.6,17.7,4,35.3,8.5,53.3,11.5,6.1,1,12.1,1.9,18.2,2.8,2.1.3,4.3.5,6.3.7,2.5-4.4,2.5-6.2.2-8.5-.5.6-1,1.2-1.5,1.9-.5.7-.8,1.5-1.3,2.1-1.1,1.3-2.1,1.1-2.9-.3-.8-1.5-.3-2.8.6-4,.8-1.1,1.8-2,2.7-3,1.9-2.1,3-4.2,1.1-7-.9-1.3-1.3-3-.3-4.4,2-2.7,1.6-5.6,1-8.6-.8-3.9-.4-7.7,2.6-10.8.6-.6,1-1.4,1.5-2.1-22.4-3.6-44.7-7.1-67-10.7-.8,1.4-.8,2.7,0,4.1,2.7,4.9,2.4,10.3,1.7,15.6-.6,4.9-1.7,9.8-2.4,14.8-.3,1.9,0,3.9,0,6h0ZM190.8,356.3c.8.2,1.2.4,1.6.4,6.3.9,12.6,1.8,18.8,2.8,13.5,2.1,27,3.9,40.6,4.9,3,.2,6,.6,9,.8,6,.3,12.1.6,18.1.9,1.4,0,2.9-.3,4.4-.3,2.8,0,5.6,0,8.4,0,7.8-.4,15.6-.8,23.4-1.3,4.8-.3,9.5-.8,14.3-1.4,7-.9,14-1.9,21-2.9,7.5-1.1,15-2.3,22.5-3.4.3,0,.5-.4.7-.6-7.6-15-11-30.5-6.2-47.9-1.6,1.2-2.5,1.9-3.4,2.6-4.1,3.3-8.2,6.8-12.5,9.9-10.2,7.6-21,14.4-32.1,20.6-10.3,5.8-21.2,10-32.6,13.3-2.8.8-5.5.8-8.3,0-3.7-1.2-7.4-2.3-11-3.5-8.9-3-17.2-7.2-25.4-12-13.7-8-26.9-16.8-39-27-1.7-1.4-3.4-2.8-5.1-4.2-.2,0-.4.2-.6.3,6,17.2,1,32.8-6.8,48.2h0ZM428.1,394.9c1.8-.3,3.3-.7,4.8-.9,6.7-.7,13.5-1.5,20.2-1.8,4.1-.2,8.3.1,12.5.4,9.1.5,18.3,1.1,26.9,5.1,0-1,.1-1.8.1-2.6-.2-7-.4-14-.5-20.9,0-3.9-.2-7.7-.2-11.6,0-5.6-2.5-9.5-7.7-11.8-4.6-2.1-9.5-3.1-14.5-3.2-8.7,0-17.3.2-26,.6-3.8.2-7.6,1.1-11.4,1.8-5.9,1.2-11.8,2.5-17.6,3.8-2.7.6-5.4,1.1-8.3,1.6.4,3-.3,5.1-3.3,6-.5.1-.8,1.2-1.5,2.4,1.6,0,2.5,0,3.4,0,4,.1,5.1,1,6,4.9.2.9.4,1.7.6,2.7,2.7-1.1,5.1-2,7.5-3-.5-2.3-1-4.4-1.5-6.5-.2-1-.3-2-.4-3.1,0-1.4.7-2.2,2-2.5,1.1-.3,1.6.7,2,1.6.4,1,.8,2.1,1.1,3.2.6,2.1,1.1,4.2,1.6,6.3,1.7,0,3.3,0,4.9,0,.9,0,1.9.1,2.7.5.6.3,1.2,1.2,1.3,1.9s-.6,1.5-1.2,2c-.6.4-1.5.5-2.4.6-1.3.3-2.6.5-4.2.9,1.1,7.3,2.1,14.3,3.1,21.5h0ZM314.4,413.8c.2-7.1.4-14,3.6-20.5-2.9-1.9-5.8-3.2-9.2-3.7-.2,1.3-.2,2.6-.6,3.7-.2.5-1,1.1-1.5,1.2-.6,0-1.4-.3-1.8-.8-.4-.4-.5-1.1-.7-1.7-1.1-3.6.2-7,1.2-10.3,1.3-4.3,3.5-7.8,8.5-8.5,1.2-.2,1.8-1.1,1.6-2.3,0-.7-.4-1.3-.6-2-21.8,2-43.3,2-65.1,0,1.8,3.9,2.2,7.6,1.2,11.5-1,4.2-2,8.5-2.9,12.7-.5,2.1-1.8,3.5-3.7,4.3-1.9.7-3.8,1.1-5.8.5-2.3-.7-4.5-1.5-6.8-2.2-.3,0-.6,0-1.1,0-.5.7-1,1.4-1.3,1.9,1.9,1.8,3.8,3.2,5.5,5,1.1,1.2,1.4,2.8.5,4.4-.6,1.1-1.3,1.5-2.5,1-1.3-.5-2.7-1-4-1.5-.8,1.6-.9,3.5-.1,5.7,28.4,2.7,56.9,3,85.6,1.6h0,0ZM409.1,389.7c-2,.9-3.8,1.8-5.7,2.5-1.2.4-2.6.6-3.9.7-.5,0-1.3-.6-1.4-1,0-.6.3-1.5.8-1.8.7-.5,1.8-.5,2.6-.9.8-.3,1.9-.5,1.4-2-1.1.2-2.2.4-3.3.5-1.1.2-2.3.4-3.4.4-1.2,0-2.3,0-2.5-2,1.1-.4,2.2-.8,3.3-1.1,1.2-.3,2.5-.4,3.6-.7.5-.2.9-.8,1.3-1.2-1.6-.2-2.9,0-4.2.3-1.7.5-2.8.2-3.6-1.9,1.8-.7,3.5-1.4,5.8-2.3-1.6-.7-2.6-.5-3.5-.2-1.6.4-3.1,0-4.1-1-2-2-2.5-4.7-2.5-7.5s1.1-3.5,2.9-4.4c.8-.4,1.6-1,1.1-2.3-3.1-.2-5.7-1.1-6-4.8-22.2,3.3-44.2,6.5-66.3,9.8v2.6c3.5-.1,6.6.3,9.4,2.2,2.7,1.9,4.5,4.4,5.5,7.4,1.1,2.9,2.5,5.9,1,9.1-3.4,0-3.7-.1-4.1-3,0-.8-.2-1.6-.3-2.6-3.8,1.6-6.1,4.5-8.3,7.6,5.5,5.6,7.6,12.7,8.9,20.2.9,0,1.6,0,2.3,0,3.8-.4,7.7-.8,11.5-1.2,6.4-.8,12.8-1.5,19.1-2.7,10.7-2.1,21.3-4.5,32-6.8,4.1-.9,8.2-1.9,12.4-2.9.4-3.3,0-6.2-1.8-8.8h0ZM560.5,416c0-3.9,0-7.4,0-11-.2-6.7-.4-13.3-.8-20-.2-3.3-1.3-6.5-4-8.5-2-1.5-4.3-2.6-6.6-3.4-4.9-1.6-10-2-15.1-1.7-8.5.4-17,1.4-25.4,3-3.8.8-7.7,1.7-11.5,2.5,0,2.9-.3,5.5,0,8,.9,6.2,0,12.3-.3,18.4,0,1.6-.7,3.2-1,4.9-.4,2.1-1.8,3.5-3.6,4.4-2.5,1.2-5.1,1.9-7.8,1.8-5.9-.2-11.9-.4-17.8-.6-1.1,0-2.3,0-3.4.3-2.2.6-2.8,1.9-2.3,4,.8,3.4,3.4,5,7.4,5,4,0,8.2,0,12.1-.9,7.3-1.5,14.5-3.6,21.8-5.3,5.8-1.4,11.5-2.8,17.3-3.9,4.7-.9,9.5-1.5,14.2-1.9,3.9-.4,7.9-.6,11.8-.4,4,.1,8,1,11.7,3,1.1.6,2.1,1.2,3.4,2.1h0ZM4.8,415.8c.3,0,.7,0,.9-.2,4.9-3.7,10.6-4.6,16.5-4.7,3.5,0,7.1.1,10.6.6,6.6.9,13.2,1.7,19.7,3.1,7.9,1.7,15.7,4.1,23.5,6,6.5,1.6,12.9,3.3,19.7,2.8,1.9-.1,3.9-.6,5.7-1.4,2-.9,3.1-3.9,2.3-6-.7-1.9-2.5-2-4.2-2-3.6,0-7.3.4-10.9.5-4.6.1-9.2.5-13.6-.9-3.2-1-5.2-3-5.8-6.3-.5-3-1.1-6-1.1-9-.2-7,0-13.9,0-21.2-.7-.2-1.7-.5-2.7-.7-2.7-.6-5.5-1.2-8.2-1.7-11.3-1.9-22.5-4-34.1-2.7-3.2.4-6.4,1-9.4,2.1-4.3,1.5-7,4.8-7.9,9.3-.4,2.2-.6,4.5-.7,6.8-.2,2.8-.3,5.6-.3,8.5,0,5.7,0,11.4,0,17.2h0ZM410.1,403.4c1,.8,1.5,1.3,2,1.8,10.3,8.2,21.5,15.1,33.4,20.7,13.3,6.1,27.1,10.5,41.5,13,8.9,1.6,17.9,2.8,27,2.6,4.8,0,9.6-.4,14.4-.5,5.8-.2,11.3-1.5,16.8-3.3,4.6-1.5,9-3.6,12.2-7.3,2.9-3.3,3.1-5.1.7-9.3-1.1-1.9-2.9-3-4.9-3.8-4.2-1.7-8.7-1.9-13.2-1.9-3.6,0-7.2.7-10.9,1-7.3.7-14.4,2.2-21.4,4-11.3,2.9-22.3,6.6-34,7.7-3.4.3-6.6,0-9.9-.8-4-1.1-6.6-3.5-7.7-7.5-1.9-6.8-1.9-13.6-.3-20.4.1-.7.3-1.4.5-2.4-15.7-.4-30.7,3-46.3,6.4h0ZM154.4,403.6c-12.6-3.6-39.2-8.1-46.3-6.2,1.9,6.3,2.3,12.7,1.1,19.1-.7,3.6-1.6,7.1-5.1,9.2-3.5,2.2-7.4,2.9-11.4,2.4-5.2-.6-10.5-1.5-15.7-2.7-12.7-2.8-24.9-7.2-37.9-8.7-7.3-.9-14.7-1.8-22-.9-3.8.5-7.3,1.6-9.8,4.8-2.4,3.1-2.3,6.4.3,9.4,2.6,3,5.9,4.9,9.5,6.5,7.8,3.4,16,4.5,24.3,4.9,10.2.5,20.4,0,30.5-1.6,9.5-1.4,18.8-3.5,27.9-6.4,17.1-5.6,32.9-13.5,47.4-24.1,2.4-1.8,4.7-3.7,7.2-5.7h0ZM131.5,345.1c18.2,4.8,36.4,7,54.4,10.4.9-1.5,1.7-2.8,2.3-4.1,3.7-7.6,6.4-15.5,7.2-24,.7-6.9-.2-13.4-3.1-19.7-1.3-2.8-3.4-4.4-6.2-5.3-5.9-1.9-11-.4-15.8,3.2-3.6,2.7-6.4,6.2-9,9.9-1.6,2.3-2.8,2.4-4.6.3-1.6-1.8-3.1-3.6-4.7-5.4-1.3-1.4-2.6-2.9-4.2-4.6-.8,15.2-5,28.4-16.1,39.4h0ZM378.8,355.5c18-3.4,36-5.6,54-10.3-1.1-1.3-2-2.3-2.8-3.4-2.1-3-4.4-5.8-6.2-9-4.1-7.4-6.1-15.4-6.6-23.9,0-1,.3-2.1-.9-2.7-3.4,3.8-6.7,7.5-9.8,11-2-.2-2.8-1.2-3.7-2.3-2.4-2.9-4.8-5.8-7.5-8.4-3.9-3.6-8.5-5.6-14-4.9-3.8.5-7,2-8.9,5.6-2.2,4.2-3.3,8.7-3.6,13.4-.3,5.6.5,11,1.9,16.4,1.7,6.4,4.2,12.4,7.9,18.5h0ZM185.2,297.2c-.3-.7-.4-1-.6-1.2-9.5-12.5-19-25.1-28.5-37.6-1-1.3-2.1-1.8-3.7-2-8.5-.9-15.8,1.9-22.2,7.2-2.5,2.1-5,4.4-5.6,7.9,11.4,13.2,22.6,26.2,34.1,39.3,2.1-2.3,3.9-4.4,5.8-6.2,5.7-5.5,12.2-9,20.8-7.4h0ZM406.2,310.9c.4-.5.9-1.1,1.4-1.7,8.4-9.7,16.8-19.4,25.2-29,2-2.4,4-4.8,6.1-7.1,1.2-1.3,1.3-2.5.3-3.9-.3-.4-.5-.9-.9-1.3-6.4-7.7-14.3-11.8-24.5-11.5-2.7,0-4.6,1-6.3,3.2-7.8,10.5-15.8,20.9-23.8,31.4-1.5,2-2.9,4-4.6,6.2,7.4-1.3,13.4,1,18.5,5.5,2.9,2.5,5.4,5.4,8.4,8.3h0ZM459.5,410.5c1.6-.3,3-.8,4.4-.9,3.1-.1,6.2,0,9.3,0,4.4,0,8.9.9,13.3.1,1.1-.2,2.3-.4,3.3-.9,2.2-1,3.5-4.9.5-6.6-1.8-1.1-3.7-2-5.7-2.5-6.7-1.5-13.5-2.3-20.4-2.6-2.2-.1-2.6,0-3.6,2.5-1.2,3.5-1.6,7.1-1.2,10.9h0ZM102.5,396.8c-2.9.3-5.7.5-8.5.8-4.4.6-8.9,1.1-13.3,2-1.8.3-3.5,1.2-5.2,2.1-1.6.8-2.4,2.2-2.1,4.1.2,2,1.5,3.1,3.2,3.4,2.3.4,4.7.6,7.1.6,5.8,0,11.6-1,17.4-.3,1.4.2,2.7.6,4.3,1-.5-4.7-.1-9.3-3-13.7h0ZM232.4,367c.5,1.3.6,2.4,1.1,3.1,1.4,2.2,1.5,4.5,1,6.9-.3,1.4-.8,2.8-.9,4.2-.5,4.3.4,8.3,3.2,11.7.6.7,1.4,1.3,2.1,1.8,1.6.9,2.9.4,4.2-1.4,1.7-2.4,2.1-4.7.9-5.7-.7-.6-1.6-.9-2.5-1.2-.5-.2-1.1,0-1.6-.1-1.4-.3-2.2-1.3-2.2-2.6,0-1.3.9-2.4,2.4-2.4s2.5.4,4.1.7c1.2-.9,1.8-2.5,1.8-4.4,0-3,.2-6,.4-9.2-4.2-.5-8.8-.9-14-1.5h0ZM405.6,378.6c.5,0,1.2.2,1.7,0,2.4-.4,3.8.8,4.6,2.8,1,2.6,2.1,5.2,2.9,7.9.7,2.4,1,5,1.5,7.5,2.5-.5,4.8-.9,7-1.3.5-4.9-1.5-17.8-3.2-20.8-3.1.1-6.1,2.3-9.3.2-1,1.5-2.3,2.3-4,2.2-.9,0-1.8.1-1.2,1.6h0ZM199.1,154.9c-5.3-.4-10.3,4.2-10.2,9.4,0,5.6,4.1,9.4,10,9.8,5.2.4,10.6-4.8,10.6-9.8,0-5.2-4.7-9.4-10.3-9.5h0ZM322.3,396.5c-.8,1.6-1.5,2.6-1.8,3.7-1,4.3-1.5,8.7-1.7,13.3,3.8-.4,7.2.2,10.7-1.1-2.1-5.2-2.1-11.2-7.1-15.9h0ZM320.8,388.9c2.8-3.1,6.8-5.7,9.5-9.4-2.6-3.1-3.3-3.5-6-4.1-2.9-.6-3.4-.3-3.5,2.8,0,1.2-.4,2.1-1.6,2.3-1.2.2-2.2-.2-2.8-1.4-.2-.5-.4-1-1-2.3-.5,1.3-1.1,1.9-.9,2.4.5,2,2,3.2,3.8,3.9,1.6.6,2.7-.6,3.8-1.7.5-.5.8-1.2,1.4-1.7.6-.6,1.4-1,2.3-1.6.4.7.7,1,.8,1.3.1,3-3.7,6.7-6.8,6.9-2.8.2-5.1-.6-7-2.6-.4-.4-.9-.8-1.4-1.2-.8,1.3-1.5,2.3-1.1,3.1,3.8,1.2,7.1,2.2,10.7,3.3h0ZM229.1,386.5c-2.9,0-3.5.4-3.8,2.2-.4,2.5,1.1,4.6,4.1,5.6,2.3-2.4,2.2-3.7-.3-7.8h0ZM228.9,371.8c-3.2,2.5-3.1,4.3,0,7.6,3.7-2.9,3.8-4.4,0-7.6h0ZM397.1,367.3c-.9.7-1.7,1.3-2.4,2,.9,1.5,1.9,1.8,3,1,1-.7.7-1.8-.5-3h0ZM407.5,373.4c-1.4-1.6-2.5-1.9-3.6-.8-.7.7-.7,1.6.5,2.5.9-.5,1.9-1,3.1-1.6h0ZM399,375.2c-.2-.4-.3-.8-.6-1.1-.9-1-1.9-.6-2.7,0-.3.2-.5,1-.3,1.3.6,1,1.5,1.3,2.6.6.3-.2.6-.5,1-.8h0ZM405.9,367.4c-1.1-.6-1.7-1-2.2-1.1-.9,0-1.8.3-1.6,1.3,0,.5.9,1.1,1.4,1.1.7,0,1.3-.6,2.5-1.3h0ZM395.7,357.5c-1,0-1.9.1-2.7.2,0,1.2-.2,2.3,1.2,2.2,1.4,0,1.4-1.1,1.5-2.4Z"/>
            <path class="cls-3" d="M153.8,216.9c-.7-1.5-1.5-2.4-1.7-3.5-.9-5.5-1.5-10.9,0-16.4,1.4-5,4.9-8.5,9.4-10.8,3.9-2.1,8.1-3.6,12.3-5.2,2.4-.9,2.9-.4,3.2,2.1.7,5.3,1.5,10.6,2.2,15.7-3.6.8-7.1,1.5-10.6,2.5-3.6,1-6.3,3.6-8.9,6.1-2.7,2.5-3.9,5.9-6,9.5h0Z"/>
            <path class="cls-3" d="M283,52.7V20.6c6,2.1,9.4,6.1,10.6,11.9,1.3,6.3-.6,12-4.6,16.7-1.5,1.7-3.3,3.6-6,3.4h0s0,0,0,0Z"/>
            <path class="cls-3" d="M334.6,193.4c.3-3,1.5-5.5,4.2-7.1,2-1.2,4.2-2.3,6.3-3.4,2.8-1.5,4.7-3.7,5.5-6.8,1.1-4.4-2.7-9.7-7.2-9.8-1.4,0-2.9.3-3.9,1.7,2.1,1.8,3.1,3.8,2,6.5-.7,1.7-1.6,2.9-3.5,3-2.1.1-3.7-.8-4.5-2.6-1.7-3.9-.6-7.4,1.9-10.4,1-1.2,2.4-2.3,3.9-3.1,2-1,4.2-1.9,6.4-2.5,3.1-.8,5.9.5,8.5,2.2.9.6,1.7,1.2,2.8,2,.8-3.7,0-7-1-10.4,4.4-1.1,6.5,2.2,9.1,5,1.1-4.2-.9-7.6-1.7-11.2,3.9-2.2,5.8,1.7,8.7,2.8.8-4-1.8-7-2.7-10.4,2.8-2.3,5.3-2.2,10.4.9.2-.7.6-1.4.4-2-.5-1.8-1.2-3.5-1.9-5.2-.4-.9-.9-1.8-1.2-2.7,1.5-1.7,3.2-1.5,4.8-1.4s3.2.5,5,.8c-.3-2.7-1-4.8-2.3-6.9-1.1-1.7-.6-2.6,1.3-2.7,2.2,0,4.3.2,6.7.4.7-2.9-1.6-5.2-2.4-7.9,2-3.1,5.4-1.3,8.2-2.2-.5-2.3-1.9-4.1-3.8-5.8,4.7-8.1,7.4-16.8,10-25.6,0,3,.1,6,0,9-.2,3.9-.6,7.9-1.1,11.8-.9,6.6-1.9,13.1-3.2,19.6-1.5,7.5-3.8,14.8-6.7,21.9-3.6,8.7-8.4,16.7-15,23.5-5.2,5.4-10.8,10.4-17.1,14.5-4.5,2.9-9.2,5.1-14.3,6.8-2.8.9-5.4,2.2-8,3.5-.9.4-1.6,1.3-2.2,2.1-.7.8-1.2,1.6-1.8,2.4l-.6-.3h0,0Z"/>
            <path class="cls-3" d="M283,223.3v-8.2c3.8,0,7.5.2,11.3,0,4.9-.3,9.7-.5,14.5-1.7,3.2-.8,6.1-1.9,8.7-4,.4-.3,1.1-.3,1.8-.5,0,1.7-.9,2.5-1.6,3.5-4,5.7-9.2,9.6-16.3,10.3-3.5.4-7,.9-10.5,1.1-2.6.1-5.2-.3-7.8-.4h0Z"/>
            <path class="cls-3" d="M144.3,393.9c-1.3-1.8-1.7-3.8-1.8-5.9-.4-5.4-.5-10.8-.8-16.2,0-1.9-.3-3.7-.4-5.8h3.7c.3,1.5.6,3.1.9,4.7,1.3,6.8,1.6,13.6.9,20.4-.1,1.5-.7,2.5-2.5,2.7h0Z"/>
            <path class="cls-3" d="M146.7,360.3c-2.9,1.6-6,.6-8.9.1-4.2-.6-8.4-1.3-12.7-1-.3,0-.6-.1-1.2-.3.2-1.1.4-2.2.6-3.5,5-.2,9.6-.4,14.3-.6,2.5,0,4.6,1,6.7,2.2,1.2.7,1.8,1.7,1.2,3.1h0Z"/>
            <path class="cls-3" d="M129.4,364.7c-.4,8.3-2.1,16-5.3,23.4h-2.4c-.2-.3-.3-.5-.3-.7,1.2-6.2,2.4-12.4,3.6-18.6.1-.7.4-1.4.6-2.1.7-2,.8-2.1,3.9-2.1h0Z"/>
            <path class="cls-3" d="M283,171.3c-.1-7.6,0-15.3-.1-23-4.7.3-7.3,2.6-8.8,6.4-.4,1.1-.8,2.1-1.4,3.1-.3.4-1.1.9-1.5.8-.5-.2-1.1-.9-1.3-1.5-.2-.5,0-1.2,0-1.8,1.5-7.4,5.8-12.4,13-14.8v6.8c1,0,1.9,0,2.8.1,7.5.4,9.7,3.3,10.9,9.3.5,2.7.1,5.4-.9,8-1.1,2.6-2.9,4.6-5.7,5.3-2.3.6-4.7.9-7,1.3h0Z"/>
            <path class="cls-3" d="M192.6,164.1c-.4-3.2,3.4-6.2,6.5-6.1,3.6.1,6.9,3.1,6.7,6.4-.2,3.9-3.8,6.4-6.9,6.2-4.1-.2-6.8-3.4-6.3-6.6h0Z"/>
          </g>
        </g>
      </g>
    </g>
  </g>
</svg>