<?xml version="1.0" encoding="UTF-8"?>
<svg width="314px" height="120px" viewBox="0 0 314 120" version="1.1" xmlns="http://www.w3.org/2000/svg" xmlns:xlink="http://www.w3.org/1999/xlink">
    <!-- Generator: Sketch 52.5 (67469) - http://www.bohemiancoding.com/sketch -->
    <title>logo</title>
    <desc>Created with Sketch.</desc>
    <g id="Design" stroke="none" stroke-width="1" fill="none" fill-rule="evenodd">
        <g id="00-online-form" transform="translate(-80.000000, -41.000000)">
            <g id="logo-blue" transform="translate(80.000000, 41.000000)">
                <g id="Group-7">
                    <g id="Group-2" transform="translate(126.000000, 29.000000)" fill="#1E285A">
                        <path d="M8.27160237,43.3284651 C9.85925325,44.1889302 11.5899692,45.2447442 12.5263953,46.0391628 L11.9801467,46.8075349 C10.9396734,45.8819535 8.88288047,44.5666047 7.12615266,43.6549767 L7.12615266,45.9070698 L6.13770296,45.9070698 L6.13770296,43.6019535 C4.88820592,44.9312558 3.02743077,46.0782326 1.33573254,46.6773023 C1.20474438,46.4428837 0.906537278,46.0782326 0.684507692,45.868 C2.27215858,45.3740465 4.02981538,44.4233488 5.20034793,43.3284651 L0.932549112,43.3284651 L0.932549112,42.455907 L6.13770296,42.455907 L6.13770296,41.0996279 C4.82317633,41.2307907 3.46963195,41.3219535 2.22013491,41.372186 C2.19412308,41.1386977 2.07706982,40.7749767 1.97302249,40.5535814 C4.90121183,40.3973023 8.34963787,40.0707907 10.2364249,39.575907 L10.9647562,40.3303256 C9.89827101,40.6186977 8.55773254,40.8391628 7.12615266,40.9954419 L7.12615266,42.455907 L12.3703243,42.455907 L12.3703243,43.3284651 L8.27160237,43.3284651 Z M2.83234201,46.2735814 L10.6396083,46.2735814 L10.6396083,51.3554419 L9.65115858,51.3554419 L9.65115858,50.9247442 L3.78177396,50.9247442 L3.78177396,51.3796279 L2.83234201,51.3796279 L2.83234201,46.2735814 Z M3.78177396,48.2149767 L9.65115858,48.2149767 L9.65115858,47.0419535 L3.78177396,47.0419535 L3.78177396,48.2149767 Z M3.78177396,50.1433488 L9.65115858,50.1433488 L9.65115858,48.9191628 L3.78177396,48.9191628 L3.78177396,50.1433488 Z" id="Fill-1"></path>
                        <path d="M21.970642,45.2570233 C21.502429,44.8663256 20.5910858,44.3063256 19.8497485,43.9658605 L20.395997,43.2616744 C21.1113225,43.5891163 22.0486775,44.084 22.5298964,44.4626047 L21.970642,45.2570233 Z M22.6859675,47.1072558 C22.2307604,48.3714419 21.5934704,49.8830698 21.0462929,51.0291163 L20.1748964,50.4691163 C20.6951331,49.5035349 21.4113876,47.9137674 21.9446302,46.5472558 L22.6859675,47.1072558 Z M22.5429024,41.7891163 C22.1137071,41.3733023 21.2673935,40.7863256 20.5780799,40.4226047 L21.1503402,39.7584186 C21.8275769,40.0830698 22.6989734,40.6300465 23.1411746,41.0356279 L22.5429024,41.7891163 Z M25.7182041,48.579814 L25.7182041,49.8551628 C25.7182041,50.2867907 25.8612692,50.3909767 26.680642,50.3909767 L29.5958254,50.3909767 C30.2470503,50.3909767 30.3641036,50.1686512 30.4291331,48.9053953 C30.6372278,49.0616744 30.9883876,49.1909767 31.2355,49.244 C31.1054408,50.7946977 30.8323166,51.1993488 29.6478491,51.1993488 L26.6555592,51.1993488 C25.276003,51.1993488 24.8728195,50.9370233 24.8728195,49.8551628 L24.8728195,46.324 C24.4036775,46.9379535 23.8834408,47.471907 23.3762101,47.8495814 C23.2071331,47.628186 22.907068,47.2905116 22.6989734,47.1202791 C23.6233225,46.5193488 24.5987663,45.3872558 25.1589497,44.228186 L22.8429675,44.228186 L22.8429675,43.339814 L25.1329379,43.339814 L25.1329379,41.828186 L23.388287,41.828186 L23.388287,40.9565581 L25.1329379,40.9565581 L25.1329379,39.4979535 L26.0693639,39.4979535 L26.0693639,40.9565581 L28.5813639,40.9565581 L28.5813639,39.4979535 L29.5307959,39.4979535 L29.5307959,40.9565581 L31.4705355,40.9565581 L31.4705355,41.828186 L29.5307959,41.828186 L29.5307959,43.339814 L31.8347012,43.339814 L31.8347012,44.228186 L29.504784,44.228186 C30.0510325,45.296093 30.9623757,46.2849302 31.9127367,46.8077209 C31.6777012,46.9770233 31.3655592,47.3156279 31.2224941,47.5630698 C30.6892515,47.2114419 30.1810917,46.7146977 29.7258846,46.1565581 L29.7258846,48.579814 L25.7182041,48.579814 Z M26.1213876,44.228186 C25.9262988,44.7230698 25.6531746,45.2179535 25.3410325,45.6737674 L29.3617189,45.6737674 C29.0495769,45.2179535 28.7634467,44.7230698 28.5423462,44.228186 L26.1213876,44.228186 Z M25.7191331,47.8356279 L28.9325237,47.8356279 L28.9325237,46.4170233 L25.7191331,46.4170233 L25.7191331,47.8356279 Z M26.0693639,43.339814 L28.5813639,43.339814 L28.5813639,41.828186 L26.0693639,41.828186 L26.0693639,43.339814 Z" id="Fill-3"></path>
                        <path d="M50.9345408,50.0263256 L50.9345408,50.964 L39.4047953,50.964 L39.4047953,50.0263256 L44.6749787,50.0263256 L44.6749787,46.7146977 L40.8103633,46.7146977 L40.8103633,45.7788837 L44.6749787,45.7788837 L44.6749787,42.9379535 L41.6167302,42.9379535 C41.1996118,43.7584186 40.7453337,44.4746977 40.2511089,45.0616744 C40.069026,44.9053953 39.6389018,44.6188837 39.3787834,44.4886512 C40.4461976,43.3407442 41.2776473,41.5435349 41.7858071,39.6933023 L42.7621799,39.9016744 C42.5540852,40.6188837 42.3199787,41.3221395 42.0329195,41.9853953 L44.6749787,41.9853953 L44.6749787,39.4849302 L45.6643574,39.4849302 L45.6643574,41.9853953 L50.3223337,41.9853953 L50.3223337,42.9379535 L45.6643574,42.9379535 L45.6643574,45.7788837 L49.8411148,45.7788837 L49.8411148,46.7146977 L45.6643574,46.7146977 L45.6643574,50.0263256 L50.9345408,50.0263256 Z" id="Fill-5"></path>
                        <path d="M65.2459734,39.888186 C65.1670089,39.9923721 65.1149852,40.0835349 65.0248728,40.1756279 C66.2084112,41.504 68.3952633,42.768186 70.4511272,43.3021395 C70.2170207,43.5114419 69.9169556,43.9393488 69.7488077,44.2128372 C68.8114527,43.928186 67.8490148,43.4584186 66.9506775,42.8974884 L66.9506775,43.7830698 L61.7836124,43.7830698 L61.7836124,42.9635349 C60.8731982,43.5114419 59.9107604,43.9784186 58.9594704,44.279814 C58.8424172,44.0063256 58.6213166,43.6016744 58.4141509,43.3412093 C60.7951627,42.7021395 63.2811509,41.0612093 64.4916302,39.3263256 L65.2459734,39.888186 Z M63.5663521,49.2835349 L60.5081036,49.2835349 L60.5081036,50.3765581 L59.6116243,50.3765581 L59.6116243,44.8528372 L63.5663521,44.8528372 L63.5663521,49.2835349 Z M60.5081036,48.4230698 L62.6559379,48.4230698 L62.6559379,45.7133023 L60.5081036,45.7133023 L60.5081036,48.4230698 Z M66.9367426,42.8974884 C65.9873107,42.2993488 65.141926,41.5951628 64.4646893,40.8267907 C63.7614408,41.5821395 62.8649615,42.2993488 61.8885888,42.8974884 L66.9367426,42.8974884 Z M69.3056775,48.5012093 C69.3056775,49.0100465 69.2016302,49.2835349 68.8365355,49.439814 C68.4732988,49.6091163 67.8601627,49.6091163 66.872642,49.6091163 C66.8336243,49.3346977 66.7026361,48.9709767 66.5855828,48.7086512 C67.3148432,48.7365581 67.9381982,48.7226047 68.1221391,48.7226047 C68.3172278,48.7086512 68.3683225,48.6584186 68.3683225,48.488186 L68.3683225,45.7244651 L65.8702574,45.7244651 L65.8702574,51.3942326 L64.9198964,51.3942326 L64.9198964,44.839814 L69.3056775,44.839814 L69.3056775,48.5012093 Z" id="Fill-7"></path>
                        <path d="M82.1982574,47.2637209 C81.9771568,46.8330233 81.4299793,45.9865116 80.9868491,45.3223256 L80.9868491,51.3539535 L80.0383462,51.3539535 L80.0383462,45.595814 C79.5051036,46.8972093 78.8278669,48.1883721 78.1506302,48.995814 C78.0595888,48.7362791 77.8254822,48.3446512 77.6694112,48.124186 C78.489713,47.1986047 79.3991982,45.5306977 79.908287,44.0311628 L77.8514941,44.0311628 L77.8514941,43.1204651 L80.0383462,43.1204651 L80.0383462,41.1530233 C79.439145,41.2702326 78.8278669,41.3734884 78.2556065,41.4525581 C78.2035828,41.2423256 78.0735237,40.9046512 77.9676183,40.6953488 C79.427068,40.4618605 81.1317722,40.0832558 82.106287,39.6525581 L82.6924822,40.4227907 C82.2112633,40.6172093 81.6129911,40.8004651 80.9868491,40.9437209 L80.9868491,43.1204651 L82.9005769,43.1204651 L82.9005769,44.0311628 L80.9868491,44.0311628 L80.9868491,44.2655814 C81.3909615,44.7232558 82.5103994,46.1567442 82.7835237,46.5083721 L82.1982574,47.2637209 Z M88.0797189,47.9539535 L88.0797189,51.3539535 L87.130287,51.3539535 L87.130287,48.1102326 L82.887571,48.8144186 L82.7315,47.8888372 L87.130287,47.1855814 L87.130287,39.4711628 L88.0797189,39.4711628 L88.0797189,47.0293023 L89.6023402,46.7939535 L89.7454053,47.6804651 L88.0797189,47.9539535 Z M85.5686479,46.2209302 C85.0995059,45.647907 84.0980503,44.8404651 83.2786775,44.3186047 L83.8769497,43.7455814 C84.7102574,44.2534884 85.7247189,45.0227907 86.2050089,45.5818605 L85.5686479,46.2209302 Z M85.8547781,42.7818605 C85.4515947,42.2339535 84.5532574,41.4655814 83.7859083,40.9297674 L84.3971864,40.3706977 C85.1775414,40.8655814 86.0879556,41.6088372 86.5171509,42.155814 L85.8547781,42.7818605 Z" id="Fill-9"></path>
                        <path d="M101.337022,46.051907 C100.815856,46.208186 100.282614,46.3644651 99.7744538,46.5207442 L99.7744538,50.2091163 C99.7744538,50.756093 99.6323178,51.0165581 99.2941639,51.1728372 C98.969016,51.3291163 98.4218385,51.3551628 97.5374361,51.3421395 C97.4984183,51.0946977 97.3553533,50.7170233 97.2252941,50.4546977 C97.8495781,50.4686512 98.4088325,50.4686512 98.5658325,50.4546977 C98.7609213,50.4546977 98.8250219,50.3905116 98.8250219,50.2091163 L98.8250219,46.8072558 L97.2643118,47.264 L96.9902586,46.3123721 C97.5114243,46.1951628 98.1357083,46.0388837 98.8250219,45.8416744 L98.8250219,43.0026047 L97.1593355,43.0026047 L97.1593355,42.0900465 L98.8250219,42.0900465 L98.8250219,39.4835349 L99.7744538,39.4835349 L99.7744538,42.0900465 L101.219969,42.0900465 L101.219969,43.0026047 L99.7744538,43.0026047 L99.7744538,45.5830698 C100.243596,45.4509767 100.737821,45.3086512 101.219969,45.1653953 L101.337022,46.051907 Z M108.259886,44.5923721 C107.713637,46.3774884 106.789288,47.7979535 105.616898,48.8788837 C106.555182,49.648186 107.673691,50.2091163 108.97614,50.5607442 C108.768046,50.756093 108.493992,51.1337674 108.350927,51.3942326 C106.997383,50.9774884 105.839856,50.3514419 104.876489,49.5049302 C103.770986,50.3514419 102.508483,50.9514419 101.180951,51.368186 C101.076904,51.1077209 100.842797,50.704 100.659785,50.4937674 C101.922288,50.156093 103.132767,49.6091163 104.186247,48.839814 C103.275833,47.8630698 102.559578,46.664 102.053276,45.2695814 L102.091365,45.2574884 L101.66217,45.2574884 L101.66217,44.3579535 L104.447294,44.3579535 L104.447294,42.4165581 L101.401122,42.4165581 L101.401122,41.5170233 L104.447294,41.5170233 L104.447294,39.4714419 L105.397655,39.4714419 L105.397655,41.5170233 L108.506998,41.5170233 L108.506998,42.4165581 L105.397655,42.4165581 L105.397655,44.3579535 L107.466525,44.3579535 L107.622596,44.3188837 L108.259886,44.5923721 Z M103.002708,45.2574884 C103.444909,46.3905116 104.096134,47.4202791 104.915507,48.2537674 C105.812915,47.4463256 106.542176,46.4426047 107.00946,45.2574884 L103.002708,45.2574884 Z" id="Fill-11"></path>
                        <path d="M127.945828,43.6672558 L127.945828,44.4356279 L116.572153,44.4356279 L116.572153,43.6672558 L121.752224,43.6672558 L121.752224,42.7165581 L117.847662,42.7165581 L117.847662,41.9733023 L121.752224,41.9733023 L121.752224,41.1137674 L117.404532,41.1137674 L117.404532,40.3444651 L121.752224,40.3444651 L121.752224,39.4709767 L122.713733,39.4709767 L122.713733,40.3444651 L127.256514,40.3444651 L127.256514,41.1137674 L122.713733,41.1137674 L122.713733,41.9733023 L126.709337,41.9733023 L126.709337,42.7165581 L122.713733,42.7165581 L122.713733,43.6672558 L127.945828,43.6672558 Z M126.241124,50.3128372 C126.241124,50.8467907 126.110136,51.0821395 125.707881,51.2105116 C125.303769,51.3556279 124.60052,51.3556279 123.534035,51.3556279 C123.481082,51.1072558 123.339875,50.7946977 123.207958,50.5602791 C124.003177,50.5733023 124.795609,50.5733023 124.990698,50.5733023 C125.213656,50.5602791 125.277757,50.508186 125.277757,50.3128372 L125.277757,49.2570233 L119.201207,49.2570233 C119.084153,50.0784186 118.811029,50.911907 118.315875,51.5509767 C118.186745,51.3416744 117.808644,50.964 117.599621,50.8467907 C118.303798,49.8942326 118.381834,48.6058605 118.381834,47.6012093 L118.381834,45.2430698 L126.241124,45.2430698 L126.241124,50.3128372 Z M125.277757,48.5537674 L125.277757,47.6151628 L119.331266,47.6151628 C119.331266,47.9026047 119.31826,48.2263256 119.292248,48.5537674 L125.277757,48.5537674 Z M119.331266,46.9249302 L125.277757,46.9249302 L125.277757,45.9863256 L119.331266,45.9863256 L119.331266,46.9249302 Z" id="Fill-13"></path>
                        <path d="M147.383914,48.3974884 L142.672985,48.3974884 L142.672985,51.3807442 L141.697541,51.3807442 L141.697541,48.3974884 L135.684163,48.3974884 L135.684163,47.4588837 L137.818991,47.4588837 L137.818991,43.9658605 L141.697541,43.9658605 L141.697541,41.9853953 L138.535246,41.9853953 C137.949979,42.9900465 137.259737,43.8756279 136.557417,44.5528372 C136.374405,44.3965581 135.971222,44.071907 135.72318,43.9407442 C136.947595,42.8728372 138.040092,41.191907 138.652299,39.4458605 L139.626814,39.6802791 C139.446589,40.136093 139.237565,40.6049302 139.02947,41.0486512 L146.784713,41.0486512 L146.784713,41.9853953 L142.672985,41.9853953 L142.672985,43.9658605 L146.485577,43.9658605 L146.485577,44.8793488 L142.672985,44.8793488 L142.672985,47.4588837 L147.383914,47.4588837 L147.383914,48.3974884 Z M138.781429,47.4588837 L141.697541,47.4588837 L141.697541,44.8793488 L138.781429,44.8793488 L138.781429,47.4588837 Z" id="Fill-15"></path>
                        <path d="M161.518373,39.7455814 C161.454273,39.8237209 161.388314,39.9148837 161.33722,39.9930233 C162.54677,41.1781395 164.797722,42.2209302 166.828504,42.7037209 C166.632486,42.8711628 166.359362,43.2116279 166.217225,43.4460465 C165.162817,43.1455814 164.044308,42.7037209 163.027989,42.1427907 L163.027989,42.5465116 L158.525154,42.5465116 L158.525154,42.1948837 C157.523699,42.7427907 156.418196,43.1846512 155.338705,43.524186 C155.232799,43.3548837 154.959675,42.9632558 154.791527,42.7818605 C157.146527,42.155814 159.449504,41.007907 160.673918,39.432093 L161.518373,39.7455814 Z M156.404261,46.4674419 L165.096859,46.4674419 L165.096859,43.1846512 L156.404261,43.1846512 L156.404261,46.4674419 Z M157.160462,47.0813953 L164.473504,47.0813953 L164.473504,51.315814 L163.496202,51.315814 L163.496202,50.9251163 L158.108965,50.9251163 L158.108965,51.3539535 L157.160462,51.3539535 L157.160462,47.0813953 Z M157.238498,45.804186 L160.309752,45.804186 L160.309752,43.8627907 L157.238498,43.8627907 L157.238498,45.804186 Z M158.709095,44.0060465 C159.04632,44.4609302 159.371468,45.0618605 159.488521,45.4786047 L158.748113,45.752093 C158.642208,45.3353488 158.344001,44.7093023 158.017924,44.2265116 L158.709095,44.0060465 Z M158.108965,48.6581395 L163.496202,48.6581395 L163.496202,47.7716279 L158.108965,47.7716279 L158.108965,48.6581395 Z M158.108965,50.2330233 L163.496202,50.2330233 L163.496202,49.3483721 L158.108965,49.3483721 L158.108965,50.2330233 Z M162.520758,41.8432558 C161.895545,41.4525581 161.298202,41.007907 160.802119,40.54 C160.307894,41.0218605 159.735634,41.4655814 159.124356,41.8432558 L162.520758,41.8432558 Z M161.129125,45.804186 L164.225462,45.804186 L164.225462,43.8627907 L161.129125,43.8627907 L161.129125,45.804186 Z M161.962433,45.5176744 C162.19561,45.0869767 162.534693,44.3967442 162.676829,43.9530233 L163.496202,44.2144186 C163.210072,44.7744186 162.885853,45.3613953 162.612728,45.752093 L161.962433,45.5176744 Z" id="Fill-17"></path>
                        <polygon id="Fill-19" points="0.752510059 1.1295814 2.40611953 1.1295814 2.40611953 6.23562791 5.89449231 6.23562791 5.89449231 1.1295814 7.54810178 1.1295814 7.54810178 13.1695814 5.89449231 13.1695814 5.89449231 7.59376744 2.40611953 7.59376744 2.40611953 13.1695814 0.752510059 13.1695814"></polygon>
                        <path d="M11.7308047,5.01451163 C11.7363787,4.02939535 11.8106982,3.30753488 11.9519053,2.8452093 C12.1748639,2.12334884 12.6607278,1.60706977 13.411355,1.30009302 C13.9566746,1.07218605 14.5419408,0.958697674 15.1671538,0.958697674 C15.7867929,0.958697674 16.3729882,1.07218605 16.9248107,1.30009302 C17.6633609,1.60706977 18.1464379,2.12334884 18.3740414,2.8452093 C18.5161775,3.30102326 18.593284,4.02474419 18.604432,5.01451163 L18.604432,9.0452093 C18.604432,9.78009302 18.5728462,10.4089302 18.5106036,10.9326512 C18.3229467,12.5261395 17.2258047,13.3289302 15.2191775,13.340093 C13.7578698,13.340093 12.7796391,12.968 12.2854142,12.2228837 C11.9091716,11.6582326 11.7252308,10.5996279 11.7308047,9.0452093 L11.7308047,5.01451163 Z M13.3853432,9.03683721 C13.3909172,10.0498605 13.4513018,10.7084651 13.5646391,11.0098605 C13.6779763,11.3112558 13.890716,11.5493953 14.203787,11.7261395 C14.516858,11.903814 14.8382899,11.9893953 15.1671538,11.9828837 C15.4690769,11.9893953 15.7589231,11.9168372 16.0376213,11.7689302 C16.559716,11.5066047 16.8477041,11.0461395 16.8978698,10.3866047 C16.9275976,10.0107907 16.9433905,9.56055814 16.9498935,9.03683721 L16.9498935,5.00613953 C16.9554675,4.13544186 16.875574,3.5224186 16.711142,3.1707907 C16.4491657,2.59590698 15.934503,2.31032558 15.1671538,2.31683721 C14.8717337,2.31683721 14.5930355,2.37544186 14.3319882,2.49544186 C13.7922426,2.72893023 13.4903195,3.19590698 13.4280769,3.89637209 C13.3937041,4.21544186 13.3797692,4.58474419 13.3853432,5.00613953 L13.3853432,9.03683721 Z" id="Fill-21"></path>
                        <polygon id="Fill-23" points="25.3019219 1.1295814 28.423342 11.5044651 28.423342 1.1295814 29.9756911 1.1295814 29.9756911 13.1695814 27.3828686 13.1695814 24.2623775 2.90539535 24.2623775 13.1695814 22.7100284 13.1695814 22.7100284 1.1295814"></polygon>
                        <path d="M37.4405302,8.14902326 L37.4405302,6.79088372 L40.9437669,6.79088372 L40.9437669,12.7853023 L40.1011692,13.0411163 C39.8057491,13.1220465 39.4815302,13.1843721 39.1285124,13.2299535 C38.5943408,13.3090233 38.0787491,13.3462326 37.5854533,13.3406512 C36.2839325,13.3406512 35.3567964,13.0411163 34.804974,12.443907 C34.321897,11.9211163 34.0775716,10.9750698 34.0719976,9.60855814 L34.0719976,5.25413953 C34.0775716,4.01786047 34.170471,3.1732093 34.3534828,2.71739535 C34.6944237,1.86995349 35.3233527,1.33693023 36.2384118,1.12111628 C36.6703941,1.01786047 37.1302462,0.963906977 37.618897,0.959255814 C38.7113941,0.976 39.5344828,1.22437209 40.0890923,1.70623256 C40.6427728,2.18716279 40.928903,2.98530233 40.9437669,4.10065116 L40.9437669,4.49413953 L39.2910864,4.49413953 L39.2910864,4.22065116 C39.2910864,4.03274419 39.2743645,3.83646512 39.2399917,3.63088372 C39.1034296,2.75460465 38.5804059,2.31646512 37.6709207,2.31646512 C36.845974,2.3332093 36.3034414,2.59553488 36.0414651,3.1015814 C35.8826071,3.3815814 35.7924947,3.6932093 35.7692698,4.04111628 C35.734897,4.35460465 35.7200331,4.6932093 35.7265361,5.05693023 L35.7265361,9.32762791 C35.7200331,10.2494884 35.8027136,10.8783256 35.9736485,11.2141395 C36.2346959,11.7434419 36.7865183,11.9992558 37.628187,11.9825116 C37.940329,11.9890233 38.256187,11.951814 38.574832,11.8708837 L39.2910864,11.6578605 L39.2910864,8.14902326 L37.4405302,8.14902326 Z" id="Fill-25"></path>
                        <path d="M51.3133846,13.1693023 L52.9679231,13.1693023 L52.9679231,1.12930233 L51.3133846,1.12930233 L51.3133846,13.1693023 Z M56.4813787,1.13023256 L58.2799112,1.13023256 L54.7162899,6.56 L58.2799112,13.1693023 L56.3615385,13.1693023 L52.9679231,6.59534884 L56.4813787,1.13023256 Z" id="Fill-27"></path>
                        <path d="M61.6006935,5.01451163 C61.6071964,4.02939535 61.680587,3.30753488 61.8227231,2.8452093 C62.0447527,2.12334884 62.5306166,1.60706977 63.2812438,1.30009302 C63.8274923,1.07218605 64.4118296,0.958697674 65.0379716,0.958697674 C65.6576107,0.958697674 66.2428769,1.07218605 66.7946994,1.30009302 C67.5341787,1.60706977 68.0163266,2.12334884 68.2439302,2.8452093 C68.3869953,3.30102326 68.4631728,4.02474419 68.4743207,5.01451163 L68.4743207,9.0452093 C68.4743207,9.78009302 68.4427349,10.4089302 68.3804923,10.9326512 C68.1937645,12.5261395 67.0956935,13.3289302 65.0890663,13.340093 C63.6277586,13.340093 62.6504568,12.968 62.155303,12.2228837 C61.7799893,11.6582326 61.5951195,10.5996279 61.6006935,9.0452093 L61.6006935,5.01451163 Z M63.255232,9.03683721 C63.2608059,10.0498605 63.3211905,10.7084651 63.4345278,11.0098605 C63.5487941,11.3112558 63.7615337,11.5493953 64.0736757,11.7261395 C64.3867467,11.903814 64.7081787,11.9893953 65.0379716,11.9828837 C65.3389657,11.9893953 65.6288118,11.9168372 65.9075101,11.7689302 C66.4305337,11.5066047 66.7175929,11.0461395 66.7686876,10.3866047 C66.7974864,10.0107907 66.8142083,9.56055814 66.8197822,9.03683721 L66.8197822,5.00613953 C66.8253562,4.13544186 66.7463917,3.5224186 66.5810308,3.1707907 C66.3199834,2.59590698 65.8053207,2.31032558 65.0379716,2.31683721 C64.7425515,2.31683721 64.4638533,2.37544186 64.2018769,2.49544186 C63.6621314,2.72893023 63.3611373,3.19590698 63.2979657,3.89637209 C63.2635929,4.21544186 63.249658,4.58474419 63.255232,5.00613953 L63.255232,9.03683721 Z" id="Fill-29"></path>
                        <polygon id="Fill-30" points="75.1718107 1.1295814 78.2932308 11.5044651 78.2932308 1.1295814 79.8455799 1.1295814 79.8455799 13.1695814 77.2527574 13.1695814 74.1322663 2.90539535 74.1322663 13.1695814 72.5799172 13.1695814 72.5799172 1.1295814"></polygon>
                        <path d="M87.3104189,8.14902326 L87.3104189,6.79088372 L90.8155136,6.79088372 L90.8155136,12.7853023 L89.971058,13.0411163 C89.6756379,13.1220465 89.3514189,13.1843721 88.9984012,13.2299535 C88.4642296,13.3090233 87.9504959,13.3462326 87.455342,13.3406512 C86.1538213,13.3406512 85.2266852,13.0411163 84.6748627,12.443907 C84.1917858,11.9211163 83.9474604,10.9750698 83.9418864,9.60855814 L83.9418864,5.25413953 C83.9474604,4.01786047 84.0403598,3.1732093 84.2233716,2.71739535 C84.5643124,1.86995349 85.1932414,1.33693023 86.1083006,1.12111628 C86.5402828,1.01786047 87.0001349,0.963906977 87.4887858,0.959255814 C88.5812828,0.976 89.4043716,1.22437209 89.9589811,1.70623256 C90.5126615,2.18716279 90.7987917,2.98530233 90.8155136,4.10065116 L90.8155136,4.49413953 L89.1609751,4.49413953 L89.1609751,4.22065116 C89.1609751,4.03274419 89.1442533,3.83646512 89.1098805,3.63088372 C88.9733183,2.75460465 88.4502947,2.31646512 87.5408095,2.31646512 C86.7158627,2.3332093 86.1733302,2.59553488 85.9113538,3.1015814 C85.7524959,3.3815814 85.6623834,3.6932093 85.6391586,4.04111628 C85.6047858,4.35460465 85.5899219,4.6932093 85.5964249,5.05693023 L85.5964249,9.32762791 C85.5899219,10.2494884 85.6726024,10.8783256 85.8435373,11.2141395 C86.1045846,11.7434419 86.6564071,11.9992558 87.4980757,11.9825116 C87.8102178,11.9890233 88.1260757,11.951814 88.4447207,11.8708837 L89.1609751,11.6578605 L89.1609751,8.14902326 L87.3104189,8.14902326 Z" id="Fill-31"></path>
                        <polygon id="Fill-32" points="0.768860355 20.2743256 2.42339882 20.2743256 2.42339882 30.956186 5.92849349 30.956186 5.92849349 32.3133953 0.768860355 32.3133953"></polygon>
                        <polygon id="Fill-33" points="9.47892308 32.3144186 11.1334615 32.3144186 11.1334615 20.2744186 9.47892308 20.2744186"></polygon>
                        <polygon id="Fill-34" points="20.6460822 20.2743256 20.6460822 21.6324651 17.0220763 21.6324651 17.0220763 25.4408372 20.5095201 25.4408372 20.5095201 26.7989767 17.0220763 26.7989767 17.0220763 32.3133953 15.3666089 32.3133953 15.3666089 20.2743256"></polygon>
                        <polygon id="Fill-35" points="24.4092515 20.2743256 29.824358 20.2743256 29.824358 21.6324651 26.0637899 21.6324651 26.0637899 25.4482791 29.5948964 25.4482791 29.5948964 26.8064186 26.0637899 26.8064186 26.0637899 30.956186 29.9358373 30.956186 29.9358373 32.3133953 24.4092515 32.3133953"></polygon>
                        <path d="M40.8834751,28.2757209 L40.8834751,28.9501395 C40.8769722,29.2915349 40.911345,29.6106047 40.9838065,29.9064186 C41.1500964,30.7268837 41.687055,31.1333953 42.5974692,31.1268837 C42.9384101,31.1333953 43.2486941,31.0766512 43.5273923,30.9566512 C44.1470314,30.7175814 44.4675343,30.1454884 44.4907592,29.2403721 C44.4851852,28.619907 44.2770905,28.1389767 43.8683331,27.7966512 C43.576629,27.564093 43.2338302,27.3333953 42.8362207,27.1054884 L41.6341024,26.4310698 C41.1556704,26.1687442 40.7580609,25.8989767 40.439416,25.619907 C39.7751852,25.0506047 39.4416763,24.2301395 39.4416763,23.1603721 C39.4537533,21.9938605 39.8253509,21.1650233 40.5573982,20.6757209 C41.1045757,20.3064186 41.855203,20.1157209 42.8102089,20.1036279 C43.9760964,20.1036279 44.8159071,20.3771163 45.3342858,20.9231628 C45.7430432,21.3613023 45.9483509,22.2208372 45.9483509,23.5017674 L45.9483509,23.7408372 L44.2947414,23.7408372 L44.2947414,23.4506047 L44.2603686,22.8282791 C44.1572503,21.899907 43.6658124,21.444093 42.785126,21.4617674 C41.6712621,21.4673488 41.1073627,22.0189767 41.0962148,23.1175814 C41.0962148,23.8180465 41.4455166,24.3873488 42.1450491,24.8254884 C42.5770314,25.1045581 43.0666112,25.3854884 43.6128598,25.6664186 C44.1572503,25.9482791 44.6013095,26.2143256 44.9422503,26.4654884 C45.7430432,27.0682791 46.1443686,27.9743256 46.1443686,29.1808372 C46.1285757,31.3836279 44.9478243,32.484093 42.6058302,32.484093 C41.5997296,32.496186 40.8258775,32.2906047 40.285203,31.8701395 C39.649771,31.3696744 39.3060432,30.6552558 39.2540195,29.727814 L39.2289367,28.7538605 L39.2289367,28.2757209 L40.8834751,28.2757209 Z" id="Fill-36"></path>
                        <path d="M54.8890828,23.4587907 L54.8807219,22.896 C54.8407751,21.9332093 54.3744201,21.4550698 53.4816568,21.4615814 C52.6920118,21.4662326 52.1773491,21.720186 51.9385976,22.2206512 C51.8085385,22.4662326 51.7370059,22.7099535 51.725858,22.9555349 L51.7082071,23.9453023 L51.7082071,28.6932093 C51.7137811,29.5536744 51.7825266,30.108093 51.9135148,30.3583256 C52.1866391,30.8708837 52.658568,31.1266977 53.3283728,31.1266977 C54.2099882,31.1211163 54.707929,30.6094884 54.8212663,29.5899535 L54.8890828,28.8132093 L54.8890828,28.4029767 L56.5436213,28.4029767 L56.5436213,28.8215814 L56.5268994,29.5732093 C56.4758047,30.4727442 56.2249763,31.1611163 55.7762722,31.6392558 C55.5031479,31.9350698 55.181716,32.1434419 54.8129053,32.2634419 C54.3744201,32.4113488 53.8978462,32.4857674 53.3803964,32.4857674 C52.9354083,32.4904186 52.512716,32.4420465 52.1095325,32.3397209 C50.7448402,32.0271628 50.0601716,30.9025116 50.0545976,28.9666977 L50.0545976,24.1676279 C50.0480947,23.6494884 50.0741065,23.1666977 50.1307751,22.7155349 C50.1865148,22.163907 50.3360828,21.708093 50.5729763,21.3490233 C51.103432,20.5350698 52.0491479,20.120186 53.4138402,20.1034419 C55.330355,20.120186 56.3587515,20.8690233 56.5008876,22.3490233 C56.5296864,22.6271628 56.5436213,22.9434419 56.5436213,23.2969302 L56.5436213,23.7666977 L54.8890828,23.7666977 L54.8890828,23.4587907 Z" id="Fill-37"></path>
                        <polygon id="Fill-38" points="60.6488462 32.3144186 62.3024556 32.3144186 62.3024556 20.2744186 60.6488462 20.2744186"></polygon>
                        <polygon id="Fill-39" points="66.510613 20.2743256 71.9257195 20.2743256 71.9257195 21.6324651 68.1651515 21.6324651 68.1651515 25.4482791 71.695329 25.4482791 71.695329 26.8064186 68.1651515 26.8064186 68.1651515 30.956186 72.0362698 30.956186 72.0362698 32.3133953 66.510613 32.3133953"></polygon>
                        <polygon id="Fill-40" points="78.4188308 20.2743256 81.5383929 30.6492093 81.5383929 20.2743256 83.091671 20.2743256 83.091671 32.3133953 80.4997775 32.3133953 77.3783574 22.0501395 77.3783574 32.3133953 75.8260083 32.3133953 75.8260083 20.2743256"></polygon>
                        <path d="M92.143232,23.4587907 L92.134871,22.896 C92.0949243,21.9332093 91.6285692,21.4550698 90.7358059,21.4615814 C89.9461609,21.4662326 89.4314982,21.720186 89.1927467,22.2206512 C89.0626876,22.4662326 88.990226,22.7099535 88.9800071,22.9555349 L88.9623562,23.9453023 L88.9623562,28.6932093 C88.9679302,29.5536744 89.0366757,30.108093 89.1676639,30.3583256 C89.4407882,30.8708837 89.9127172,31.1266977 90.5825219,31.1266977 C91.4650663,31.1211163 91.9620781,30.6094884 92.0754154,29.5899535 L92.143232,28.8132093 L92.143232,28.4029767 L93.7977704,28.4029767 L93.7977704,28.8215814 L93.7810485,29.5732093 C93.7299538,30.4727442 93.4781964,31.1611163 93.0304213,31.6392558 C92.757297,31.9350698 92.4349361,32.1434419 92.0670544,32.2634419 C91.6285692,32.4113488 91.1519953,32.4857674 90.6345456,32.4857674 C90.1895574,32.4904186 89.7668651,32.4420465 89.3636817,32.3397209 C87.9989893,32.0271628 87.3143207,30.9025116 87.3087467,28.9666977 L87.3087467,24.1676279 C87.3022438,23.6494884 87.3282556,23.1666977 87.3849243,22.7155349 C87.4406639,22.163907 87.590232,21.708093 87.8271254,21.3490233 C88.3575811,20.5350698 89.303297,20.120186 90.6679893,20.1034419 C92.5845041,20.120186 93.6129006,20.8690233 93.7550367,22.3490233 C93.7838355,22.6271628 93.7977704,22.9434419 93.7977704,23.2969302 L93.7977704,23.7666977 L92.143232,23.7666977 L92.143232,23.4587907 Z" id="Fill-41"></path>
                        <polygon id="Fill-42" points="97.9285426 20.2743256 103.343649 20.2743256 103.343649 21.6324651 99.5830811 21.6324651 99.5830811 25.4482791 103.113259 25.4482791 103.113259 26.8064186 99.5830811 26.8064186 99.5830811 30.956186 103.454199 30.956186 103.454199 32.3133953 97.9285426 32.3133953"></polygon>
                        <path d="M108.58299,28.2757209 L108.58299,28.9501395 C108.577416,29.2915349 108.61086,29.6106047 108.685179,29.9064186 C108.85054,30.7268837 109.387499,31.1333953 110.297913,31.1268837 C110.638854,31.1333953 110.948209,31.0766512 111.226907,30.9566512 C111.846546,30.7175814 112.16612,30.1454884 112.190274,29.2403721 C112.1847,28.619907 111.976605,28.1389767 111.567848,27.7966512 C111.277073,27.564093 110.933345,27.3333953 110.536664,27.1054884 L109.333617,26.4310698 C108.856114,26.1687442 108.457576,25.8989767 108.138002,25.619907 C107.4747,25.0506047 107.14212,24.2301395 107.14212,23.1603721 C107.153268,21.9938605 107.525795,21.1650233 108.257842,20.6757209 C108.80502,20.3064186 109.555647,20.1157209 110.510653,20.1036279 C111.675611,20.1036279 112.51728,20.3771163 113.03473,20.9231628 C113.443487,21.3613023 113.648795,22.2208372 113.648795,23.5017674 L113.648795,23.7408372 L111.994256,23.7408372 L111.994256,23.4506047 L111.960812,22.8282791 C111.857694,21.899907 111.366256,21.444093 110.484641,21.4617674 C109.370777,21.4673488 108.807807,22.0189767 108.79573,23.1175814 C108.79573,23.8180465 109.146889,24.3873488 109.843635,24.8254884 C110.277475,25.1045581 110.767055,25.3854884 111.312375,25.6664186 C111.857694,25.9482791 112.301753,26.2143256 112.642694,26.4654884 C113.443487,27.0682791 113.844812,27.9743256 113.844812,29.1808372 C113.828091,31.3836279 112.648268,32.484093 110.305345,32.484093 C109.299244,32.496186 108.525392,32.2906047 107.985647,31.8701395 C107.349286,31.3696744 107.005558,30.6552558 106.954463,29.727814 L106.92938,28.7538605 L106.92938,28.2757209 L108.58299,28.2757209 Z" id="Fill-43"></path>
                        <path d="M124.766903,28.2757209 L124.766903,28.9501395 C124.761329,29.2915349 124.794773,29.6106047 124.869092,29.9064186 C125.034453,30.7268837 125.571412,31.1333953 126.481826,31.1268837 C126.822767,31.1333953 127.132122,31.0766512 127.41082,30.9566512 C128.030459,30.7175814 128.350962,30.1454884 128.374187,29.2403721 C128.368613,28.619907 128.160518,28.1389767 127.751761,27.7966512 C127.461915,27.564093 127.117258,27.3333953 126.720578,27.1054884 L125.51753,26.4310698 C125.040027,26.1687442 124.641489,25.8989767 124.321915,25.619907 C123.658613,25.0506047 123.326033,24.2301395 123.326033,23.1603721 C123.337181,21.9938605 123.709708,21.1650233 124.442684,20.6757209 C124.988933,20.3064186 125.73956,20.1157209 126.694566,20.1036279 C127.859524,20.1036279 128.701193,20.3771163 129.218643,20.9231628 C129.626471,21.3613023 129.832708,22.2208372 129.832708,23.5017674 L129.832708,23.7408372 L128.178169,23.7408372 L128.178169,23.4506047 L128.144725,22.8282791 C128.040678,21.899907 127.550169,21.444093 126.668554,21.4617674 C125.55469,21.4673488 124.99172,22.0189767 124.979643,23.1175814 C124.979643,23.8180465 125.329873,24.3873488 126.028477,24.8254884 C126.461388,25.1045581 126.950968,25.3854884 127.496288,25.6664186 C128.040678,25.9482791 128.485666,26.2143256 128.826607,26.4654884 C129.626471,27.0682791 130.028725,27.9743256 130.028725,29.1808372 C130.012004,31.3836279 128.832181,32.484093 126.489258,32.484093 C125.483157,32.496186 124.709305,32.2906047 124.168631,31.8701395 C123.533199,31.3696744 123.189471,30.6552558 123.138376,29.727814 L123.113293,28.7538605 L123.113293,28.2757209 L124.766903,28.2757209 Z" id="Fill-44"></path>
                        <path d="M133.82636,24.1596279 C133.832863,23.1745116 133.906254,22.4517209 134.04839,21.9903256 C134.269491,21.2684651 134.756283,20.752186 135.506911,20.4452093 C136.05223,20.2173023 136.637496,20.103814 137.263638,20.103814 C137.883278,20.103814 138.468544,20.2173023 139.020366,20.4452093 C139.759846,20.752186 140.241993,21.2684651 140.469597,21.9903256 C140.612662,22.4461395 140.68884,23.1698605 140.699988,24.1596279 L140.699988,28.1903256 C140.699988,28.9242791 140.668402,29.5540465 140.606159,30.0768372 C140.419431,31.6712558 139.32136,32.4740465 137.314733,32.4852093 C135.853425,32.4852093 134.876124,32.1131163 134.38097,31.3670698 C134.005656,30.8033488 133.820786,29.7447442 133.82636,28.1903256 L133.82636,24.1596279 Z M135.480899,28.1810233 C135.486473,29.1949767 135.546857,29.8526512 135.660195,30.1540465 C135.774461,30.4563721 135.987201,30.6945116 136.299343,30.8712558 C136.612414,31.048 136.933846,31.1335814 137.263638,31.1270698 C137.564633,31.1335814 137.854479,31.0619535 138.133177,30.9140465 C138.656201,30.6517209 138.94326,30.1912558 138.994354,29.5307907 C139.023153,29.1549767 139.039875,28.7056744 139.045449,28.1810233 L139.045449,24.1512558 C139.051023,23.2805581 138.972059,22.6675349 138.806698,22.315907 C138.54565,21.740093 138.030988,21.4554419 137.263638,21.4619535 C136.968218,21.4619535 136.68952,21.5205581 136.427544,21.6405581 C135.887798,21.8740465 135.585875,22.3410233 135.523633,23.0414884 C135.48926,23.3605581 135.475325,23.7298605 135.480899,24.1512558 L135.480899,28.1810233 Z" id="Fill-45"></path>
                        <path d="M149.785271,23.4587907 L149.77691,22.896 C149.736963,21.9332093 149.270608,21.4550698 148.377845,21.4615814 C147.5882,21.4662326 147.073537,21.720186 146.834786,22.2206512 C146.704727,22.4662326 146.633194,22.7099535 146.622046,22.9555349 L146.604395,23.9453023 L146.604395,28.6932093 C146.609969,29.5536744 146.678715,30.108093 146.809703,30.3583256 C147.082827,30.8708837 147.554756,31.1266977 148.224561,31.1266977 C149.107105,31.1211163 149.604117,30.6094884 149.717454,29.5899535 L149.785271,28.8132093 L149.785271,28.4029767 L151.439809,28.4029767 L151.439809,28.8215814 L151.423088,29.5732093 C151.371993,30.4727442 151.122093,31.1611163 150.67246,31.6392558 C150.399336,31.9350698 150.076975,32.1434419 149.709093,32.2634419 C149.270608,32.4113488 148.794034,32.4857674 148.276585,32.4857674 C147.832525,32.4904186 147.408904,32.4420465 147.005721,32.3397209 C145.641028,32.0271628 144.95636,30.9025116 144.950786,28.9666977 L144.950786,24.1676279 C144.944283,23.6494884 144.970295,23.1666977 145.026963,22.7155349 C145.083632,22.163907 145.232271,21.708093 145.470093,21.3490233 C145.99962,20.5350698 146.945336,20.120186 148.310028,20.1034419 C150.226543,20.120186 151.25494,20.8690233 151.397076,22.3490233 C151.425875,22.6271628 151.439809,22.9434419 151.439809,23.2969302 L151.439809,23.7666977 L149.785271,23.7666977 L149.785271,23.4587907 Z" id="Fill-46"></path>
                        <polygon id="Fill-47" points="155.545592 32.3144186 157.20013 32.3144186 157.20013 20.2744186 155.545592 20.2744186"></polygon>
                        <polygon id="Fill-48" points="161.406801 20.2743256 166.821908 20.2743256 166.821908 21.6324651 163.06134 21.6324651 163.06134 25.4482791 166.592446 25.4482791 166.592446 26.8064186 163.06134 26.8064186 163.06134 30.956186 166.933387 30.956186 166.933387 32.3133953 161.406801 32.3133953"></polygon>
                        <polygon id="Fill-49" points="177.477284 20.2743256 177.477284 21.6324651 174.696805 21.6324651 174.696805 32.3133953 173.043195 32.3133953 173.043195 21.6324651 170.261787 21.6324651 170.261787 20.2743256"></polygon>
                        <polygon id="Fill-50" points="184.140866 25.56 185.981203 20.2734884 187.637599 20.2734884 184.897996 27.3106977 184.897996 32.3144186 183.245315 32.3144186 183.245315 27.3106977 180.50757 20.2734884 182.383209 20.2734884"></polygon>
                    </g>
                    <g id="Group-6">
                        <path d="M50.5532568,50.1236279 L68.6454166,39.664093 C70.0175408,38.8706047 70.8619964,37.4045581 70.8619964,35.8185116 L70.8619964,25.3589767 L70.8619964,14.9003721 C70.8619964,13.3133953 70.0175408,11.8482791 68.6454166,11.0538605 L50.5532568,0.595255814 C49.1811325,-0.198232558 47.4903633,-0.198232558 46.1182391,0.595255814 L28.0270083,11.0538605 C26.654884,11.8482791 25.8094994,13.3133953 25.8094994,14.9003721 L25.8094994,35.8185116 C25.8094994,37.4045581 26.654884,38.8706047 28.0270083,39.664093 L46.1182391,50.1236279 C47.4903633,50.9171163 49.1811325,50.9171163 50.5532568,50.1236279 M47.7820675,47.2371163 L29.6908367,36.7775814 C29.3489669,36.5803721 29.1371562,36.2129302 29.1371562,35.8185116 L29.1371562,14.9003721 C29.1371562,14.5050233 29.3498959,14.1375814 29.6908367,13.9403721 L47.7820675,3.48083721 C48.1239373,3.28362791 48.5484876,3.28362791 48.8894284,3.48083721 L66.9806592,13.9403721 C67.322529,14.1375814 67.5343396,14.5050233 67.5343396,14.9003721 L67.5343396,35.8185116 C67.5343396,36.2129302 67.322529,36.5803721 66.9815882,36.7775814 L48.8894284,47.2371163 C48.5475586,47.4343256 48.1239373,47.4343256 47.7820675,47.2371163" id="Fill-51" fill="#02B2E1"></path>
                        <path d="M24.744129,95.0010233 L42.8353598,84.5424186 C44.207484,83.7489302 45.0528686,82.2828837 45.0528686,80.695907 L45.0528686,70.2373023 L45.0528686,59.7777674 C45.0528686,58.1917209 44.207484,56.7256744 42.8353598,55.932186 L24.744129,45.4726512 C23.3720047,44.6791628 21.6812355,44.6791628 20.3091112,45.4726512 L2.21788047,55.932186 C0.845756213,56.7256744 0.000371597633,58.1917209 0.000371597633,59.7777674 L0.000371597633,80.695907 C0.000371597633,82.2828837 0.845756213,83.7489302 2.21788047,84.5424186 L20.3091112,95.0010233 C21.6812355,95.7945116 23.3720047,95.7945116 24.744129,95.0010233 M21.9729396,92.1135814 L3.88170888,81.655907 C3.53983905,81.4568372 3.3280284,81.0903256 3.3280284,80.695907 L3.3280284,59.7777674 C3.3280284,59.3833488 3.54076805,59.0149767 3.88170888,58.8177674 L21.9729396,48.3582326 C22.3148095,48.1610233 22.7393598,48.1610233 23.0803006,48.3591628 L41.1715314,58.8177674 C41.5134012,59.0149767 41.7252118,59.3833488 41.7252118,59.7777674 L41.7252118,80.695907 C41.7252118,81.0903256 41.5134012,81.4568372 41.1724604,81.6540465 L23.0803006,92.1135814 C22.7384308,92.3107907 22.3148095,92.3107907 21.9729396,92.1135814" id="Fill-52" fill="#1E285A"></path>
                        <path d="M76.3187219,95.0010233 L94.4108817,84.5424186 C95.7830059,83.7489302 96.6274615,82.2828837 96.6274615,80.695907 L96.6274615,70.2373023 L96.6274615,59.7777674 C96.6274615,58.1917209 95.7830059,56.7256744 94.4108817,55.932186 L76.3187219,45.4726512 C74.9465976,44.6791628 73.2558284,44.6791628 71.8837041,45.4726512 L53.7924734,55.932186 C52.4203491,56.7256744 51.5749645,58.1917209 51.5749645,59.7777674 L51.5749645,80.695907 C51.5749645,82.2828837 52.4203491,83.7489302 53.7924734,84.5424186 L71.8837041,95.0010233 C73.2558284,95.7945116 74.9465976,95.7945116 76.3187219,95.0010233 M73.5484615,92.1135814 L55.4563018,81.655907 C55.114432,81.4568372 54.9026213,81.0903256 54.9026213,80.695907 L54.9026213,59.7777674 C54.9026213,59.3833488 55.1153609,59.0149767 55.4563018,58.8177674 L73.5484615,48.3582326 C73.8894024,48.1610233 74.3139527,48.1610233 74.6558225,48.3591628 L92.7461243,58.8177674 C93.0879941,59.0149767 93.2998047,59.3833488 93.2998047,59.7777674 L93.2998047,80.695907 C93.2998047,81.0903256 93.0879941,81.4568372 92.7470533,81.6540465 L74.6548935,92.1135814 C74.3139527,92.3107907 73.8894024,92.3107907 73.5484615,92.1135814" id="Fill-53" fill="#5CB946"></path>
                        <path d="M68.645045,70.835907 L50.5528852,60.3763721 C49.1807609,59.5828837 47.4909207,59.5828837 46.1187964,60.3763721 L28.0266367,70.835907 C26.6545124,71.6293953 25.8091278,73.0954419 25.8091278,74.6814884 L25.8091278,95.5996279 C25.8091278,97.1866047 26.6545124,98.6517209 28.0266367,99.4461395 L40.9043527,106.890791 C42.0145006,107.531721 43.4005598,106.72986 43.4005598,105.448 C43.4005598,104.851721 43.0837728,104.302884 42.5691101,104.003349 L29.6913941,96.5586977 C29.3485953,96.3605581 29.1377136,95.995907 29.1377136,95.5996279 L29.1377136,74.6814884 C29.1377136,74.2852093 29.3485953,73.9186977 29.6904651,73.7214884 L47.7816959,63.2619535 C48.1244947,63.0647442 48.547187,63.0647442 48.8899858,63.2619535 L66.9812166,73.7214884 C67.3230864,73.9186977 67.534897,74.2852093 67.534897,74.6814884 L67.534897,95.5996279 C67.534897,95.995907 67.3240154,96.3605581 66.9812166,96.5577674 L60.7820391,100.142884 C60.2673763,100.440558 59.9505893,100.990326 59.9505893,101.586605 C59.9505893,102.869395 61.3375775,103.670326 62.4467964,103.027535 L68.645045,99.4452093 C70.0171692,98.6507907 70.8625538,97.1866047 70.8625538,95.5996279 L70.8625538,85.1410233 L70.8625538,74.6814884 C70.8625538,73.0954419 70.0171692,71.6293953 68.645045,70.835907" id="Fill-54" fill="#02B2E1"></path>
                        <path d="M93.2996189,50.8009302 C93.2996189,51.1962791 93.0887373,51.5618605 92.7468675,51.76 L74.6547077,62.2195349 C74.3119089,62.4176744 73.8901456,62.4176744 73.5473467,62.2195349 L55.456116,51.76 C55.1133172,51.5618605 54.9024355,51.1962791 54.9024355,50.8009302 L54.9024355,29.8818605 C54.9024355,29.4865116 55.1133172,29.12 55.456116,28.9218605 L73.5473467,18.4632558 C73.8901456,18.2651163 74.3119089,18.2651163 74.6547077,18.4632558 L80.9570036,22.1804651 C81.4716663,22.4790698 82.1061692,22.4790698 82.620832,22.1804651 C83.7309799,21.5395349 83.7300509,19.935814 82.620832,19.2948837 L76.3185361,15.5776744 C74.9464118,14.784186 73.2556426,14.784186 71.8835183,15.5776744 L53.7922876,26.0362791 C52.4201633,26.8297674 51.5747787,28.295814 51.5747787,29.8827907 L51.5747787,50.8009302 C51.5747787,52.3869767 52.4201633,53.8530233 53.7922876,54.6465116 L71.8835183,65.1051163 C73.2556426,65.8986047 74.9464118,65.8986047 76.3185361,65.1051163 L94.4097669,54.6465116 C95.7818911,53.8530233 96.6272757,52.3869767 96.6272757,50.8009302 L96.6272757,45.3311628 C96.6272757,44.0483721 95.2412166,43.2465116 94.1319976,43.8874419 C93.6164059,44.1860465 93.2996189,44.7348837 93.2996189,45.3311628 L93.2996189,50.8009302 Z" id="Fill-55" fill="#1E285A"></path>
                        <path d="M48.3137308,119.802977 C48.0257426,119.802977 47.7386834,119.729488 47.4813521,119.580651 C46.9629734,119.282047 46.6433994,118.732279 46.6415414,118.13414 L46.6322515,115.05507 C46.6285355,114.129488 47.3754467,113.378791 48.2988669,113.376 L48.3044408,113.376 C49.225074,113.376 49.9738432,114.122047 49.9757012,115.044837 L49.9766302,115.228093 L53.2615533,113.322047 L53.2615533,108.326698 L49.1479675,110.712744 C48.6305178,111.010419 47.9932278,111.012279 47.4757781,110.713674 C46.9573994,110.41507 46.6387544,109.861581 46.6387544,109.264372 L46.6322515,100.124837 C46.6322515,99.5276279 46.9490385,98.9741395 47.4646302,98.6755349 L54.088358,94.8262326 C54.6039497,94.5266977 55.2421686,94.5248372 55.7605473,94.8225116 C56.277997,95.1211163 56.597571,95.6727442 56.599429,96.2699535 L56.6096479,99.360186 C56.6124349,100.286698 55.8655237,101.038326 54.9421036,101.041116 L54.9374586,101.041116 C54.0158964,101.041116 53.2680562,100.29507 53.2652692,99.3722791 L53.2643402,99.1778605 L49.9766302,101.087628 L49.9803462,106.360186 L54.0957899,103.972279 C54.6132396,103.673674 55.2505296,103.673674 55.7689083,103.970419 C56.287287,104.270884 56.605932,104.822512 56.605932,105.422512 L56.605932,114.285767 C56.605932,114.883907 56.288216,115.436465 55.7716953,115.736 L49.1516834,119.57786 C48.8924941,119.727628 48.6026479,119.802977 48.3137308,119.802977" id="Fill-56" fill="#02B2E1"></path>
                        <path d="M1.69755089,43.2922791 C1.40863373,43.2922791 1.11971657,43.2178605 0.861456213,43.068093 C0.344006509,42.7694884 0.0253615385,42.216 0.0253615385,41.6178605 L0.0253615385,19.751814 C0.0253615385,18.8271628 0.774130769,18.0783256 1.69755089,18.0783256 C2.62097101,18.0783256 3.36974024,18.8271628 3.36974024,19.751814 L3.36974024,38.7183256 L7.44337929,36.3648372 C8.2432432,35.9015814 9.26513669,36.176 9.72777574,36.9778605 C10.1904148,37.7778605 9.91543254,38.8029767 9.11556864,39.2643721 L2.53364556,43.068093 C2.27445621,43.2178605 1.98553905,43.2922791 1.69755089,43.2922791" id="Fill-57" fill="#5CB946"></path>
                        <path d="M88.318074,43.2809302 C88.0310148,43.2809302 87.7439556,43.2074419 87.4856953,43.0595349 C86.9682456,42.7609302 86.6477426,42.2102326 86.6458846,41.612093 L86.6356657,38.5237209 C86.6338077,37.5990698 87.3797899,36.8465116 88.3032101,36.8437209 L88.308784,36.8437209 C89.2284882,36.8437209 89.9781864,37.5897674 89.9800444,38.5125581 L89.9819024,38.7023256 L93.2658964,36.7916279 L93.2658964,31.7953488 L89.1532396,34.1813953 C88.6348609,34.48 87.9985,34.4809302 87.4801213,34.1832558 C86.9626716,33.8837209 86.6430976,33.332093 86.6430976,32.7330233 L86.6356657,23.5925581 C86.6347367,22.9953488 86.9533817,22.4437209 87.4689734,22.1432558 L94.0927012,18.295814 C94.6082929,17.9944186 95.2465118,17.9925581 95.7648905,18.2911628 C96.2823402,18.5888372 96.6019142,19.1404651 96.6037722,19.7376744 L96.6139911,22.8306977 C96.6167781,23.7553488 95.8698669,24.5069767 94.9464467,24.5097674 L94.9418018,24.5097674 C94.0202396,24.5097674 93.2723994,23.7646512 93.2696124,22.8409302 L93.2686834,22.6455814 L89.9819024,24.5553488 L89.9846893,29.827907 L94.1001331,27.4418605 C94.6175828,27.1413953 95.2548728,27.1413953 95.7732515,27.44 C96.2916302,27.7386047 96.6102751,28.292093 96.6102751,28.8902326 L96.6102751,37.7562791 C96.6102751,38.3525581 96.2934882,38.904186 95.7778964,39.2037209 L89.1578846,43.0548837 C88.8986953,43.2055814 88.6079201,43.2809302 88.318074,43.2809302" id="Fill-58" fill="#1E285A"></path>
                        <path d="M42.8359172,26.036186 L24.7446864,15.5775814 C23.3725621,14.784093 21.6817929,14.784093 20.3096686,15.5775814 L10.7187337,21.1496744 C10.204071,21.4464186 9.88728402,21.9971163 9.88728402,22.5924651 C9.88728402,23.8752558 11.2733432,24.6771163 12.3825621,24.0352558 L21.973497,18.4622326 C22.3153669,18.2650233 22.7380592,18.2650233 23.079929,18.4622326 L41.1720888,28.9226977 C41.5139586,29.119907 41.7257692,29.4864186 41.7257692,29.8826977 L41.7257692,50.8008372 C41.7257692,51.196186 41.5148876,51.5617674 41.1720888,51.759907 L23.079929,62.2194419 C22.7380592,62.4175814 22.3162959,62.4175814 21.973497,62.2194419 L3.88133728,51.759907 C3.53946746,51.5617674 3.3285858,51.1971163 3.3285858,50.8008372 L3.3285858,48.2473488 C3.3285858,47.652 3.01179882,47.1022326 2.4962071,46.8045581 C1.38698817,46.1636279 -2.13162821e-13,46.9654884 -2.13162821e-13,48.2473488 L-2.13162821e-13,50.8008372 C-2.13162821e-13,52.3868837 0.845384615,53.8529302 2.21750888,54.6464186 L20.3096686,65.1059535 C21.6817929,65.8985116 23.3725621,65.8985116 24.7446864,65.1059535 L42.8359172,54.6464186 C44.2080414,53.8529302 45.053426,52.3868837 45.053426,50.8008372 L45.053426,40.3413023 L45.053426,29.8826977 C45.053426,28.2957209 44.2080414,26.8306047 42.8359172,26.036186" id="Fill-59" fill="#5CB946"></path>
                    </g>
                </g>
            </g>
        </g>
    </g>
</svg>