<?xml version="1.0" encoding="UTF-8"?><svg id="Layer_2" xmlns="http://www.w3.org/2000/svg" viewBox="0 0 494.81 119.8"><defs><style>.cls-1{fill:#02b2e1;}.cls-1,.cls-2,.cls-3{fill-rule:evenodd;stroke-width:0px;}.cls-2{fill:#1e285a;}.cls-3{fill:#5cb946;}</style></defs><g id="Layer_1-2"><g id="Design"><g id="_00-online-form"><g id="logo-blue"><g id="Group-7"><g id="Group-2"><path id="Fill-1" class="cls-2" d="M130.52,94.68c3.22,1.75,6.74,3.89,8.64,5.51l-1.11,1.56c-2.11-1.88-6.29-4.55-9.86-6.4v4.57h-2.01v-4.68c-2.54,2.7-6.32,5.03-9.75,6.25-.27-.48-.87-1.22-1.32-1.64,3.22-1,6.79-2.93,9.17-5.16h-8.67v-1.77h10.57v-2.75c-2.67.27-5.42.45-7.96.55-.05-.47-.29-1.21-.5-1.66,5.95-.32,12.95-.98,16.78-1.99l1.48,1.53c-2.17.59-4.89,1.03-7.8,1.35v2.97h10.65v1.77h-8.32ZM119.48,100.66h15.86v10.32h-2.01v-.87h-11.92v.92h-1.93v-10.37ZM121.4,104.6h11.92v-2.38h-11.92v2.38ZM121.4,108.52h11.92v-2.49h-11.92v2.49Z"/><path id="Fill-3" class="cls-2" d="M158.35,98.59c-.95-.79-2.8-1.93-4.31-2.62l1.11-1.43c1.45.67,3.36,1.67,4.33,2.44l-1.14,1.61ZM159.8,102.35c-.92,2.57-2.22,5.64-3.33,7.97l-1.77-1.14c1.06-1.96,2.51-5.19,3.59-7.97l1.51,1.14ZM159.51,91.55c-.87-.84-2.59-2.04-3.99-2.78l1.16-1.35c1.38.66,3.15,1.77,4.04,2.59l-1.22,1.53ZM165.96,105.34v2.59c0,.88.29,1.09,1.95,1.09h5.92c1.32,0,1.56-.45,1.69-3.02.42.32,1.14.58,1.64.69-.26,3.15-.82,3.97-3.22,3.97h-6.08c-2.8,0-3.62-.53-3.62-2.73v-7.17c-.95,1.25-2.01,2.33-3.04,3.1-.34-.45-.95-1.14-1.38-1.48,1.88-1.22,3.86-3.52,5-5.87h-4.7v-1.8h4.65v-3.07h-3.54v-1.77h3.54v-2.96h1.9v2.96h5.1v-2.96h1.93v2.96h3.94v1.77h-3.94v3.07h4.68v1.8h-4.73c1.11,2.17,2.96,4.18,4.89,5.24-.48.34-1.11,1.03-1.4,1.53-1.08-.71-2.12-1.72-3.04-2.86v4.92h-8.14ZM166.78,96.5c-.4,1.01-.95,2.01-1.58,2.94h8.17c-.63-.93-1.22-1.93-1.66-2.94h-4.92ZM165.96,103.83h6.53v-2.88h-6.53v2.88ZM166.67,94.7h5.1v-3.07h-5.1v3.07Z"/><path id="Fill-5" class="cls-2" d="M217.17,108.28v1.9h-23.42v-1.9h10.7v-6.73h-7.85v-1.9h7.85v-5.77h-6.21c-.85,1.67-1.77,3.12-2.77,4.31-.37-.32-1.24-.9-1.77-1.16,2.17-2.33,3.86-5.98,4.89-9.74l1.98.42c-.42,1.46-.9,2.88-1.48,4.23h5.37v-5.08h2.01v5.08h9.46v1.93h-9.46v5.77h8.48v1.9h-8.48v6.73h10.7Z"/><path id="Fill-7" class="cls-2" d="M246.24,87.69c-.16.21-.27.4-.45.58,2.4,2.7,6.85,5.27,11.02,6.35-.48.43-1.08,1.29-1.43,1.85-1.9-.58-3.86-1.53-5.68-2.67v1.8h-10.49v-1.66c-1.85,1.11-3.8,2.06-5.74,2.67-.24-.56-.69-1.38-1.11-1.91,4.84-1.3,9.88-4.63,12.34-8.15l1.53,1.14ZM242.83,106.77h-6.21v2.22h-1.82v-11.22h8.03v9ZM236.61,105.02h4.36v-5.5h-4.36v5.5ZM249.67,93.8c-1.93-1.21-3.65-2.65-5.02-4.21-1.43,1.53-3.25,2.99-5.23,4.21h10.25ZM254.48,105.18c0,1.03-.21,1.59-.95,1.91-.74.34-1.98.34-3.99.34-.08-.56-.35-1.3-.58-1.83,1.48.06,2.75.03,3.12.03.4-.03.5-.13.5-.48v-5.61h-5.07v11.52h-1.93v-13.31h8.91v7.44Z"/><path id="Fill-9" class="cls-2" d="M280.67,102.67c-.45-.87-1.56-2.59-2.46-3.94v12.25h-1.93v-11.69c-1.08,2.64-2.46,5.27-3.83,6.91-.18-.53-.66-1.32-.98-1.77,1.67-1.88,3.51-5.27,4.55-8.31h-4.18v-1.85h4.44v-4c-1.22.24-2.46.45-3.62.61-.11-.43-.37-1.11-.58-1.54,2.96-.47,6.43-1.24,8.41-2.12l1.19,1.56c-.98.39-2.19.77-3.46,1.06v4.42h3.89v1.85h-3.89v.48c.82.93,3.09,3.84,3.65,4.56l-1.19,1.53ZM292.61,104.07v6.91h-1.93v-6.59l-8.62,1.43-.32-1.88,8.93-1.43v-15.67h1.93v15.35l3.09-.48.29,1.8-3.38.56ZM287.51,100.55c-.95-1.16-2.99-2.8-4.65-3.86l1.22-1.16c1.69,1.03,3.75,2.59,4.73,3.73l-1.29,1.3ZM288.09,93.57c-.82-1.11-2.64-2.67-4.2-3.76l1.24-1.14c1.58,1.01,3.43,2.51,4.31,3.63l-1.35,1.27Z"/><path id="Fill-11" class="cls-2" d="M319.54,100.21c-1.06.32-2.14.63-3.17.95v7.49c0,1.11-.29,1.64-.98,1.96-.66.32-1.77.37-3.57.34-.08-.5-.37-1.27-.63-1.8,1.27.03,2.4.03,2.72,0,.4,0,.53-.13.53-.5v-6.91l-3.17.93-.56-1.93c1.06-.24,2.33-.56,3.73-.96v-5.77h-3.38v-1.85h3.38v-5.29h1.93v5.29h2.94v1.85h-2.94v5.24c.95-.27,1.96-.56,2.94-.85l.24,1.8ZM333.6,97.24c-1.11,3.63-2.99,6.51-5.37,8.71,1.91,1.56,4.18,2.7,6.82,3.42-.42.4-.98,1.16-1.27,1.69-2.75-.85-5.1-2.12-7.06-3.84-2.25,1.72-4.81,2.94-7.51,3.78-.21-.53-.69-1.35-1.06-1.78,2.56-.69,5.02-1.8,7.16-3.36-1.85-1.98-3.3-4.42-4.33-7.25l.08-.02h-.87v-1.83h5.66v-3.94h-6.19v-1.83h6.19v-4.15h1.93v4.15h6.32v1.83h-6.32v3.94h4.2l.32-.08,1.29.56ZM322.92,98.59c.9,2.3,2.22,4.39,3.88,6.09,1.82-1.64,3.3-3.68,4.25-6.09h-8.14Z"/><path id="Fill-13" class="cls-2" d="M373.58,95.36v1.56h-23.1v-1.56h10.52v-1.93h-7.93v-1.51h7.93v-1.75h-8.83v-1.56h8.83v-1.77h1.95v1.77h9.23v1.56h-9.23v1.75h8.12v1.51h-8.12v1.93h10.63ZM370.12,108.86c0,1.08-.27,1.56-1.08,1.82-.82.29-2.25.29-4.42.29-.11-.5-.39-1.14-.66-1.62,1.62.03,3.22.03,3.62.03.45-.03.58-.13.58-.53v-2.14h-12.34c-.24,1.67-.79,3.36-1.8,4.66-.26-.43-1.03-1.19-1.45-1.43,1.43-1.93,1.59-4.55,1.59-6.59v-4.79h15.96v10.3ZM368.16,105.29v-1.91h-12.08c0,.58-.03,1.24-.08,1.91h12.16ZM356.08,101.98h12.08v-1.91h-12.08v1.91Z"/><path id="Fill-15" class="cls-2" d="M413.06,104.97h-9.57v6.06h-1.98v-6.06h-12.21v-1.91h4.34v-7.09h7.88v-4.02h-6.42c-1.19,2.04-2.59,3.84-4.02,5.21-.37-.32-1.19-.98-1.69-1.24,2.49-2.17,4.71-5.58,5.95-9.13l1.98.48c-.37.93-.79,1.88-1.21,2.78h15.75v1.9h-8.35v4.02h7.74v1.86h-7.74v5.24h9.57v1.91ZM395.59,103.06h5.92v-5.24h-5.92v5.24Z"/><path id="Fill-17" class="cls-2" d="M441.76,87.4c-.13.16-.26.34-.37.5,2.46,2.41,7.03,4.52,11.15,5.51-.4.34-.95,1.03-1.24,1.51-2.14-.61-4.41-1.51-6.48-2.65v.82h-9.15v-.71c-2.03,1.11-4.28,2.01-6.47,2.7-.22-.34-.77-1.14-1.11-1.51,4.78-1.27,9.46-3.6,11.95-6.8l1.72.64ZM431.38,101.05h17.65v-6.67h-17.65v6.67ZM432.91,102.3h14.85v8.6h-1.98v-.79h-10.94v.87h-1.93v-8.68ZM433.07,99.7h6.24v-3.94h-6.24v3.94ZM436.06,96.05c.68.92,1.35,2.14,1.58,2.99l-1.5.56c-.22-.85-.82-2.12-1.48-3.1l1.4-.45ZM434.84,105.5h10.94v-1.8h-10.94v1.8ZM434.84,108.7h10.94v-1.8h-10.94v1.8ZM443.8,91.66c-1.27-.79-2.48-1.7-3.49-2.65-1,.98-2.17,1.88-3.41,2.65h6.9ZM440.97,99.7h6.29v-3.94h-6.29v3.94ZM442.67,99.12c.47-.87,1.16-2.28,1.45-3.18l1.66.53c-.58,1.14-1.24,2.33-1.79,3.12l-1.32-.48Z"/><polygon id="Fill-19" class="cls-2" points="115.25 8.97 118.61 8.97 118.61 19.34 125.7 19.34 125.7 8.97 129.05 8.97 129.05 33.42 125.7 33.42 125.7 22.1 118.61 22.1 118.61 33.42 115.25 33.42 115.25 8.97"/><path id="Fill-21" class="cls-2" d="M137.55,16.86c.01-2,.16-3.47.45-4.41.45-1.47,1.44-2.51,2.96-3.14,1.11-.46,2.3-.69,3.57-.69s2.45.23,3.57.69c1.5.62,2.48,1.67,2.94,3.14.29.93.45,2.4.47,4.41v8.19c0,1.49-.06,2.77-.19,3.83-.38,3.24-2.61,4.87-6.68,4.89-2.97,0-4.95-.76-5.96-2.27-.76-1.15-1.14-3.3-1.13-6.45v-8.19ZM140.91,25.03c.01,2.06.13,3.4.36,4.01.23.61.66,1.1,1.3,1.45.64.36,1.29.53,1.96.52.61.01,1.2-.13,1.77-.43,1.06-.53,1.65-1.47,1.75-2.81.06-.76.09-1.68.11-2.74v-8.19c.01-1.77-.15-3.01-.48-3.73-.53-1.17-1.58-1.75-3.14-1.73-.6,0-1.17.12-1.7.36-1.1.47-1.71,1.42-1.84,2.85-.07.65-.1,1.4-.09,2.25v8.19Z"/><polygon id="Fill-23" class="cls-2" points="165.11 8.97 171.45 30.04 171.45 8.97 174.6 8.97 174.6 33.42 169.34 33.42 163 12.58 163 33.42 159.85 33.42 159.85 8.97 165.11 8.97"/><path id="Fill-25" class="cls-2" d="M189.76,23.23v-2.76h7.12v12.17l-1.71.52c-.6.16-1.26.29-1.98.38-1.08.16-2.13.24-3.13.22-2.64,0-4.53-.61-5.65-1.82-.98-1.06-1.48-2.98-1.49-5.76v-8.84c.01-2.51.2-4.23.57-5.15.69-1.72,1.97-2.8,3.83-3.24.88-.21,1.81-.32,2.8-.33,2.22.03,3.89.54,5.02,1.52,1.12.98,1.71,2.6,1.74,4.86v.8h-3.36v-.56c0-.38-.03-.78-.1-1.2-.28-1.78-1.34-2.67-3.19-2.67-1.68.03-2.78.57-3.31,1.59-.32.57-.51,1.2-.55,1.91-.07.64-.1,1.32-.09,2.06v8.67c-.01,1.87.15,3.15.5,3.83.53,1.08,1.65,1.59,3.36,1.56.63.01,1.28-.06,1.92-.23l1.45-.43v-7.13h-3.76Z"/><path id="Fill-27" class="cls-2" d="M217.94,33.42h3.36V8.97h-3.36v24.45ZM228.44,8.97h3.65l-7.24,11.03,7.24,13.42h-3.9l-6.89-13.35,7.14-11.1Z"/><path id="Fill-29" class="cls-2" d="M238.83,16.86c.01-2,.16-3.47.45-4.41.45-1.47,1.44-2.51,2.96-3.14,1.11-.46,2.3-.69,3.57-.69s2.45.23,3.57.69c1.5.62,2.48,1.67,2.94,3.14.29.93.45,2.4.47,4.41v8.19c0,1.49-.06,2.77-.19,3.83-.38,3.24-2.61,4.87-6.68,4.89-2.97,0-4.95-.76-5.96-2.27-.76-1.15-1.14-3.3-1.13-6.45v-8.19ZM242.19,25.03c.01,2.06.13,3.4.36,4.01.23.61.66,1.1,1.3,1.45.64.36,1.29.53,1.96.52.61.01,1.2-.13,1.77-.43,1.06-.53,1.65-1.47,1.75-2.81.06-.76.09-1.68.1-2.74v-8.19c.01-1.77-.15-3.01-.48-3.73-.53-1.17-1.58-1.75-3.13-1.73-.6,0-1.17.12-1.7.36-1.1.47-1.71,1.42-1.84,2.85-.07.65-.1,1.4-.09,2.25v8.19Z"/><polygon id="Fill-30" class="cls-2" points="266.4 8.97 272.74 30.04 272.74 8.97 275.89 8.97 275.89 33.42 270.62 33.42 264.28 12.58 264.28 33.42 261.13 33.42 261.13 8.97 266.4 8.97"/><path id="Fill-31" class="cls-2" d="M291.05,23.23v-2.76h7.12v12.17l-1.72.52c-.6.16-1.26.29-1.98.38-1.08.16-2.13.24-3.13.22-2.64,0-4.53-.61-5.65-1.82-.98-1.06-1.48-2.98-1.49-5.76v-8.84c.01-2.51.2-4.23.57-5.15.69-1.72,1.97-2.8,3.83-3.24.88-.21,1.81-.32,2.8-.33,2.22.03,3.89.54,5.02,1.52,1.12.98,1.71,2.6,1.74,4.86v.8h-3.36v-.56c0-.38-.03-.78-.1-1.2-.28-1.78-1.34-2.67-3.19-2.67-1.68.03-2.78.57-3.31,1.59-.32.57-.51,1.2-.55,1.91-.07.64-.1,1.32-.09,2.06v8.67c-.01,1.87.15,3.15.5,3.83.53,1.08,1.65,1.59,3.36,1.56.63.01,1.28-.06,1.92-.23l1.45-.43v-7.13h-3.76Z"/><polygon id="Fill-32" class="cls-2" points="115.29 47.85 118.65 47.85 118.65 69.55 125.76 69.55 125.76 72.3 115.29 72.3 115.29 47.85"/><polygon id="Fill-33" class="cls-2" points="132.98 72.31 136.34 72.31 136.34 47.85 132.98 47.85 132.98 72.31"/><polygon id="Fill-34" class="cls-2" points="155.66 47.85 155.66 50.61 148.3 50.61 148.3 58.35 155.38 58.35 155.38 61.1 148.3 61.1 148.3 72.3 144.93 72.3 144.93 47.85 155.66 47.85"/><polygon id="Fill-35" class="cls-2" points="163.3 47.85 174.3 47.85 174.3 50.61 166.66 50.61 166.66 58.36 173.83 58.36 173.83 61.12 166.66 61.12 166.66 69.55 174.52 69.55 174.52 72.3 163.3 72.3 163.3 47.85"/><path id="Fill-36" class="cls-2" d="M196.76,64.1v1.37c-.01.69.06,1.34.2,1.94.34,1.67,1.43,2.49,3.28,2.48.69.01,1.32-.1,1.89-.35,1.26-.49,1.91-1.65,1.96-3.49-.01-1.26-.43-2.24-1.26-2.93-.59-.47-1.29-.94-2.1-1.4l-2.44-1.37c-.97-.53-1.78-1.08-2.43-1.65-1.35-1.16-2.03-2.82-2.03-5,.02-2.37.78-4.05,2.27-5.05,1.11-.75,2.64-1.14,4.58-1.16,2.37,0,4.07.56,5.13,1.66.83.89,1.25,2.64,1.25,5.24v.49h-3.36v-.59l-.07-1.26c-.21-1.89-1.21-2.81-3-2.78-2.26.01-3.41,1.13-3.43,3.36,0,1.42.71,2.58,2.13,3.47.88.57,1.87,1.14,2.98,1.71,1.11.57,2.01,1.11,2.7,1.62,1.63,1.22,2.44,3.06,2.44,5.51-.03,4.47-2.43,6.71-7.19,6.71-2.04.02-3.62-.39-4.71-1.25-1.29-1.02-1.99-2.47-2.09-4.35l-.05-1.98v-.97h3.36Z"/><path id="Fill-37" class="cls-2" d="M225.2,54.32l-.02-1.14c-.08-1.96-1.03-2.93-2.84-2.91-1.6,0-2.65.53-3.13,1.54-.26.5-.41.99-.43,1.49l-.04,2.01v9.64c.01,1.75.15,2.87.42,3.38.55,1.04,1.51,1.56,2.87,1.56,1.79-.01,2.8-1.05,3.03-3.12l.14-1.58v-.83h3.36v.85l-.03,1.53c-.1,1.83-.61,3.23-1.52,4.2-.55.6-1.21,1.02-1.96,1.27-.89.3-1.86.45-2.91.45-.9,0-1.76-.09-2.58-.3-2.77-.63-4.16-2.92-4.17-6.85v-9.75c-.01-1.05.04-2.03.15-2.95.11-1.12.42-2.05.9-2.78,1.08-1.65,3-2.5,5.77-2.53,3.89.03,5.98,1.55,6.27,4.56.06.56.09,1.21.09,1.93v.95h-3.36v-.63Z"/><polygon id="Fill-38" class="cls-2" points="236.9 72.31 240.26 72.31 240.26 47.85 236.9 47.85 236.9 72.31"/><polygon id="Fill-39" class="cls-2" points="248.81 47.85 259.8 47.85 259.8 50.61 252.17 50.61 252.17 58.36 259.34 58.36 259.34 61.12 252.17 61.12 252.17 69.55 260.03 69.55 260.03 72.3 248.81 72.3 248.81 47.85"/><polygon id="Fill-40" class="cls-2" points="272.99 47.85 279.33 68.92 279.33 47.85 282.48 47.85 282.48 72.3 277.22 72.3 270.88 51.46 270.88 72.3 267.72 72.3 267.72 47.85 272.99 47.85"/><path id="Fill-41" class="cls-2" d="M300.86,54.32l-.02-1.14c-.08-1.96-1.03-2.93-2.84-2.91-1.6,0-2.65.53-3.13,1.54-.26.5-.41.99-.43,1.49l-.04,2.01v9.64c.01,1.75.15,2.87.42,3.38.55,1.04,1.51,1.56,2.87,1.56,1.79-.01,2.8-1.05,3.03-3.12l.14-1.58v-.83h3.36v.85l-.03,1.53c-.1,1.83-.62,3.23-1.52,4.2-.55.6-1.21,1.02-1.96,1.27-.89.3-1.86.45-2.91.45-.9,0-1.76-.09-2.58-.3-2.77-.63-4.16-2.92-4.17-6.85v-9.75c-.01-1.05.04-2.03.15-2.95.11-1.12.42-2.05.9-2.78,1.08-1.65,3-2.5,5.77-2.53,3.89.03,5.98,1.55,6.27,4.56.06.56.09,1.21.09,1.93v.95h-3.36v-.63Z"/><polygon id="Fill-42" class="cls-2" points="312.61 47.85 323.61 47.85 323.61 50.61 315.98 50.61 315.98 58.36 323.14 58.36 323.14 61.12 315.98 61.12 315.98 69.55 323.84 69.55 323.84 72.3 312.61 72.3 312.61 47.85"/><path id="Fill-43" class="cls-2" d="M334.25,64.1v1.37c-.01.69.06,1.34.21,1.94.34,1.67,1.43,2.49,3.28,2.48.69.01,1.32-.1,1.89-.35,1.26-.49,1.91-1.65,1.96-3.49-.01-1.26-.43-2.24-1.26-2.93-.59-.47-1.29-.94-2.09-1.4l-2.44-1.37c-.97-.53-1.78-1.08-2.43-1.65-1.35-1.16-2.02-2.82-2.02-5,.02-2.37.78-4.05,2.27-5.05,1.11-.75,2.64-1.14,4.58-1.16,2.37,0,4.08.56,5.13,1.66.83.89,1.25,2.64,1.25,5.24v.49h-3.36v-.59l-.07-1.26c-.21-1.89-1.21-2.81-3-2.78-2.26.01-3.41,1.13-3.43,3.36,0,1.42.71,2.58,2.13,3.47.88.57,1.88,1.14,2.98,1.71,1.11.57,2.01,1.11,2.7,1.62,1.63,1.22,2.44,3.06,2.44,5.51-.03,4.47-2.43,6.71-7.19,6.71-2.04.02-3.62-.39-4.71-1.25-1.29-1.02-1.99-2.47-2.09-4.35l-.05-1.98v-.97h3.36Z"/><path id="Fill-44" class="cls-2" d="M367.12,64.1v1.37c-.01.69.06,1.34.21,1.94.34,1.67,1.43,2.49,3.28,2.48.69.01,1.32-.1,1.89-.35,1.26-.49,1.91-1.65,1.96-3.49-.01-1.26-.43-2.24-1.26-2.93-.59-.47-1.29-.94-2.09-1.4l-2.44-1.37c-.97-.53-1.78-1.08-2.43-1.65-1.35-1.16-2.02-2.82-2.02-5,.02-2.37.78-4.05,2.27-5.05,1.11-.75,2.63-1.14,4.57-1.16,2.37,0,4.08.56,5.13,1.66.83.89,1.25,2.64,1.25,5.24v.49h-3.36v-.59l-.07-1.26c-.21-1.89-1.21-2.81-3-2.78-2.26.01-3.41,1.13-3.43,3.36,0,1.42.71,2.58,2.13,3.47.88.57,1.87,1.14,2.98,1.71,1.11.57,2.01,1.11,2.7,1.62,1.62,1.22,2.44,3.06,2.44,5.51-.03,4.47-2.43,6.71-7.19,6.71-2.04.02-3.62-.39-4.71-1.25-1.29-1.02-1.99-2.47-2.09-4.35l-.05-1.98v-.97h3.36Z"/><path id="Fill-45" class="cls-2" d="M385.52,55.74c.01-2,.16-3.47.45-4.41.45-1.47,1.44-2.51,2.96-3.14,1.11-.46,2.3-.69,3.57-.69s2.45.23,3.57.69c1.5.62,2.48,1.67,2.94,3.14.29.93.45,2.4.47,4.41v8.19c0,1.49-.06,2.77-.19,3.83-.38,3.24-2.61,4.87-6.68,4.89-2.97,0-4.95-.76-5.96-2.27-.76-1.14-1.14-3.29-1.13-6.45v-8.19ZM388.88,63.91c.01,2.06.13,3.4.36,4.01.23.61.66,1.1,1.3,1.46.64.36,1.29.53,1.96.52.61.01,1.2-.13,1.77-.43,1.06-.53,1.65-1.47,1.75-2.81.06-.76.09-1.68.1-2.74v-8.18c.01-1.77-.15-3.01-.48-3.73-.53-1.17-1.58-1.75-3.13-1.73-.6,0-1.17.12-1.7.36-1.1.47-1.71,1.42-1.84,2.85-.07.65-.1,1.4-.09,2.25v8.18Z"/><path id="Fill-46" class="cls-2" d="M417.93,54.32l-.02-1.14c-.08-1.96-1.03-2.93-2.84-2.91-1.6,0-2.65.53-3.13,1.54-.26.5-.41.99-.43,1.49l-.04,2.01v9.64c.01,1.75.15,2.87.42,3.38.55,1.04,1.51,1.56,2.87,1.56,1.79-.01,2.8-1.05,3.03-3.12l.14-1.58v-.83h3.36v.85l-.03,1.53c-.1,1.83-.61,3.23-1.52,4.2-.55.6-1.21,1.02-1.96,1.27-.89.3-1.86.45-2.91.45-.9,0-1.76-.09-2.58-.3-2.77-.63-4.16-2.92-4.17-6.85v-9.75c-.01-1.05.04-2.03.15-2.95.12-1.12.42-2.05.9-2.78,1.08-1.65,3-2.5,5.77-2.53,3.89.03,5.98,1.55,6.27,4.56.06.56.09,1.21.09,1.93v.95h-3.36v-.63Z"/><polygon id="Fill-47" class="cls-2" points="429.63 72.31 432.99 72.31 432.99 47.85 429.63 47.85 429.63 72.31"/><polygon id="Fill-48" class="cls-2" points="441.54 47.85 452.54 47.85 452.54 50.61 444.9 50.61 444.9 58.36 452.07 58.36 452.07 61.12 444.9 61.12 444.9 69.55 452.76 69.55 452.76 72.3 441.54 72.3 441.54 47.85"/><polygon id="Fill-49" class="cls-2" points="474.18 47.85 474.18 50.61 468.53 50.61 468.53 72.3 465.17 72.3 465.17 50.61 459.52 50.61 459.52 47.85 474.18 47.85"/><polygon id="Fill-50" class="cls-2" points="487.71 58.59 491.45 47.85 494.81 47.85 489.25 62.14 489.25 72.31 485.89 72.31 485.89 62.14 480.33 47.85 484.14 47.85 487.71 58.59"/></g><g id="Group-6"><path id="Fill-51" class="cls-1" d="M50.55,50.12l18.09-10.46c1.37-.79,2.22-2.26,2.22-3.85V14.9c0-1.59-.84-3.05-2.22-3.85L50.55.6c-1.37-.79-3.06-.79-4.44,0l-18.09,10.46c-1.37.79-2.22,2.26-2.22,3.85v20.92c0,1.59.85,3.05,2.22,3.85l18.09,10.46c1.37.79,3.06.79,4.44,0M47.78,47.24l-18.09-10.46c-.34-.2-.55-.56-.55-.96V14.9c0-.4.21-.76.55-.96L47.78,3.48c.34-.2.77-.2,1.11,0l18.09,10.46c.34.2.55.56.55.96v20.92c0,.39-.21.76-.55.96l-18.09,10.46c-.34.2-.77.2-1.11,0"/><path id="Fill-52" class="cls-2" d="M24.74,95l18.09-10.46c1.37-.79,2.22-2.26,2.22-3.85v-20.92c0-1.59-.85-3.05-2.22-3.85l-18.09-10.46c-1.37-.79-3.06-.79-4.44,0L2.22,55.93C.85,56.73,0,58.19,0,59.78v20.92c0,1.59.85,3.05,2.22,3.85l18.09,10.46c1.37.79,3.06.79,4.44,0M21.97,92.11l-18.09-10.46c-.34-.2-.55-.57-.55-.96v-20.92c0-.39.21-.76.55-.96l18.09-10.46c.34-.2.77-.2,1.11,0l18.09,10.46c.34.2.55.57.55.96v20.92c0,.39-.21.76-.55.96l-18.09,10.46c-.34.2-.77.2-1.11,0"/><path id="Fill-53" class="cls-3" d="M76.32,95l18.09-10.46c1.37-.79,2.22-2.26,2.22-3.85v-20.92c0-1.59-.84-3.05-2.22-3.85l-18.09-10.46c-1.37-.79-3.06-.79-4.44,0l-18.09,10.46c-1.37.79-2.22,2.26-2.22,3.85v20.92c0,1.59.85,3.05,2.22,3.85l18.09,10.46c1.37.79,3.06.79,4.44,0M73.55,92.11l-18.09-10.46c-.34-.2-.55-.57-.55-.96v-20.92c0-.39.21-.76.55-.96l18.09-10.46c.34-.2.77-.2,1.11,0l18.09,10.46c.34.2.55.57.55.96v20.92c0,.39-.21.76-.55.96l-18.09,10.46c-.34.2-.77.2-1.11,0"/><path id="Fill-54" class="cls-1" d="M68.65,70.84l-18.09-10.46c-1.37-.79-3.06-.79-4.43,0l-18.09,10.46c-1.37.79-2.22,2.26-2.22,3.85v20.92c0,1.59.85,3.05,2.22,3.85l12.88,7.44c1.11.64,2.5-.16,2.5-1.44,0-.6-.32-1.15-.83-1.44l-12.88-7.44c-.34-.2-.55-.56-.55-.96v-20.92c0-.4.21-.76.55-.96l18.09-10.46c.34-.2.77-.2,1.11,0l18.09,10.46c.34.2.55.56.55.96v20.92c0,.4-.21.76-.55.96l-6.2,3.59c-.51.3-.83.85-.83,1.44,0,1.28,1.39,2.08,2.5,1.44l6.2-3.58c1.37-.79,2.22-2.26,2.22-3.85v-20.92c0-1.59-.85-3.05-2.22-3.85"/><path id="Fill-55" class="cls-2" d="M93.3,50.8c0,.4-.21.76-.55.96l-18.09,10.46c-.34.2-.76.2-1.11,0l-18.09-10.46c-.34-.2-.55-.56-.55-.96v-20.92c0-.4.21-.76.55-.96l18.09-10.46c.34-.2.76-.2,1.11,0l6.3,3.72c.51.3,1.15.3,1.66,0,1.11-.64,1.11-2.24,0-2.89l-6.3-3.72c-1.37-.79-3.06-.79-4.44,0l-18.09,10.46c-1.37.79-2.22,2.26-2.22,3.85v20.92c0,1.59.85,3.05,2.22,3.85l18.09,10.46c1.37.79,3.06.79,4.44,0l18.09-10.46c1.37-.79,2.22-2.26,2.22-3.85v-5.47c0-1.28-1.39-2.08-2.5-1.44-.52.3-.83.85-.83,1.44v5.47Z"/><path id="Fill-56" class="cls-1" d="M48.31,119.8c-.29,0-.58-.07-.83-.22-.52-.3-.84-.85-.84-1.45v-3.08c-.01-.93.73-1.68,1.66-1.68h0c.92,0,1.67.75,1.67,1.67v.18s3.29-1.91,3.29-1.91v-5l-4.11,2.39c-.52.3-1.15.3-1.67,0-.52-.3-.84-.85-.84-1.45v-9.14c0-.6.31-1.15.83-1.45l6.62-3.85c.52-.3,1.15-.3,1.67,0,.52.3.84.85.84,1.45v3.09c.01.93-.73,1.68-1.66,1.68h0c-.92,0-1.67-.75-1.67-1.67v-.19s-3.29,1.91-3.29,1.91v5.27s4.12-2.39,4.12-2.39c.52-.3,1.15-.3,1.67,0,.52.3.84.85.84,1.45v8.86c0,.6-.32,1.15-.83,1.45l-6.62,3.84c-.26.15-.55.23-.84.23"/><path id="Fill-57" class="cls-3" d="M1.7,43.29c-.29,0-.58-.07-.84-.22-.52-.3-.84-.85-.84-1.45v-21.87c0-.92.75-1.67,1.67-1.67s1.67.75,1.67,1.67v18.97l4.07-2.35c.8-.46,1.82-.19,2.28.61.46.8.19,1.83-.61,2.29l-6.58,3.8c-.26.15-.55.22-.84.22"/><path id="Fill-58" class="cls-2" d="M88.32,43.28c-.29,0-.57-.07-.83-.22-.52-.3-.84-.85-.84-1.45v-3.09c-.01-.92.73-1.68,1.66-1.68h0c.92,0,1.67.75,1.67,1.67v.19s3.29-1.91,3.29-1.91v-5l-4.11,2.39c-.52.3-1.15.3-1.67,0-.52-.3-.84-.85-.84-1.45v-9.14c0-.6.31-1.15.83-1.45l6.62-3.85c.52-.3,1.15-.3,1.67,0,.52.3.84.85.84,1.45v3.09c.01.92-.73,1.68-1.66,1.68h0c-.92,0-1.67-.75-1.67-1.67v-.2s-3.29,1.91-3.29,1.91v5.27s4.12-2.39,4.12-2.39c.52-.3,1.15-.3,1.67,0s.84.85.84,1.45v8.87c0,.6-.32,1.15-.83,1.45l-6.62,3.85c-.26.15-.55.23-.84.23"/><path id="Fill-59" class="cls-3" d="M42.84,26.04l-18.09-10.46c-1.37-.79-3.06-.79-4.44,0l-9.59,5.57c-.51.3-.83.85-.83,1.44,0,1.28,1.39,2.08,2.5,1.44l9.59-5.57c.34-.2.76-.2,1.11,0l18.09,10.46c.34.2.55.56.55.96v20.92c0,.4-.21.76-.55.96l-18.09,10.46c-.34.2-.76.2-1.11,0L3.88,51.76c-.34-.2-.55-.56-.55-.96v-2.55c0-.6-.32-1.15-.83-1.44-1.11-.64-2.5.16-2.5,1.44v2.55c0,1.59.85,3.05,2.22,3.85l18.09,10.46c1.37.79,3.06.79,4.44,0l18.09-10.46c1.37-.79,2.22-2.26,2.22-3.85v-20.92c0-1.59-.85-3.05-2.22-3.85"/></g></g></g></g></g></g></svg>