<?xml version="1.0" encoding="UTF-8"?><svg id="Layer_2" xmlns="http://www.w3.org/2000/svg" viewBox="0 0 1729.64 416.89"><defs><style>.cls-1{fill:#0899f3;}.cls-1,.cls-2,.cls-3,.cls-4,.cls-5,.cls-6,.cls-7,.cls-8,.cls-9,.cls-10,.cls-11,.cls-12,.cls-13,.cls-14,.cls-15,.cls-16,.cls-17,.cls-18,.cls-19,.cls-20,.cls-21,.cls-22,.cls-23,.cls-24,.cls-25,.cls-26,.cls-27,.cls-28,.cls-29,.cls-30,.cls-31,.cls-32,.cls-33,.cls-34{stroke-width:0px;}.cls-2{fill:#000;}.cls-3{fill:#12cae6;}.cls-4{fill:#037efa;}.cls-5{fill:#0eb5ec;}.cls-6{fill:#12cce6;}.cls-7{fill:#0589f7;}.cls-8{fill:#0aa1f1;}.cls-9{fill:#0db3ec;}.cls-10{fill:#13d1e4;}.cls-11{fill:#0ba6f0;}.cls-12{fill:#027afb;}.cls-13{fill:#068ff6;}.cls-14{fill:#0cadee;}.cls-15{fill:#0ba9ef;}.cls-16{fill:#099df2;}.cls-17{fill:#14d5e2;}.cls-18{fill:#13cfe5;}.cls-19{fill:#10c1e9;}.cls-20{fill:#0176fb;}.cls-21{fill:#10bfe9;}.cls-22{fill:#0fbcea;}.cls-23{fill:#0791f5;}.cls-24{fill:#0587f8;}.cls-25{fill:#0896f4;}.cls-26{fill:#0483f8;}.cls-27{fill:#068cf6;}.cls-28{fill:#0eb9eb;}.cls-29{fill:#11c7e7;}.cls-30{fill:#0172fc;}.cls-31{fill:#0794f4;}.cls-32{fill:#0db0ed;}.cls-33{fill:#14d3e4;}.cls-34{fill:#11c4e8;}</style></defs><g id="Layer_1-2"><path class="cls-2" d="M174.22,0c2.69,17.16,5.33,34,7.96,50.82-84.71,15.53-142.26,96.54-127.99,181.66,12.91,77,79.76,134.2,159.81,132.31,82.27-1.94,144.79-64.36,153.7-139.35,9.8-82.51-45.8-158.23-129-174.42,2.65-16.91,5.3-33.86,7.95-50.8,82.66,11.76,169.44,87.14,174.09,197.66,4.88,115.78-84.75,213.93-201.33,218.82C104.62,421.51,11.99,335.69,1.14,228.61-10.97,109.28,75.5,15.87,174.22,0Z"/><path class="cls-2" d="M632.49,242.49c0-33.43,0-66.86,0-100.29,0-7.55.08-7.91,7.67-9.5,23.1-4.85,46.46-6.17,69.99-4.45,11.34.83,22.44,2.84,32.7,8,14.99,7.54,22.79,20.44,25.95,36.33,5.02,25.22,5.3,50.57-.48,75.67-6.44,27.92-26.07,43.91-55.98,45.9-11.25.75-22.58.42-33.87.19-4.3-.09-5.83,1.04-5.76,5.55.26,14.96-.06,29.94.19,44.9.07,4.48-1.45,5.73-5.76,5.61-9.49-.27-18.99-.31-28.48.01-4.75.16-6.3-1.23-6.27-6.13.2-33.93.1-67.86.1-101.78ZM672.8,212.08c0,15.95.1,31.9-.07,47.85-.04,3.74,1.21,5.73,4.94,5.87,6.97.26,13.95.77,20.91.55,16.87-.53,25.68-7.82,28.97-24.46,3.86-19.56,3.57-39.32.67-58.95-1.72-11.68-6.89-21.85-19.95-23.63-9.76-1.33-19.8-.63-29.72-.76-4.47-.06-5.88,2.34-5.83,6.68.19,15.62.07,31.24.07,46.85Z"/><path class="cls-2" d="M210.64,87.08c13.61,19.6,26.95,38.61,40.05,57.79,8.7,12.74,17.49,25.46,25.46,38.65,11.64,19.25,18.69,40.14,16.98,62.9-2.59,34.65-21.87,57.38-53.68,69.26-42.76,15.97-91.84-5.8-107.17-47-8.7-23.39-5.96-46.79,4.43-68.68,7.63-16.07,17.56-31.15,27.42-46.05,14.38-21.73,29.6-42.89,44.48-64.29.47-.68,1.01-1.3,2.01-2.58ZM266.73,208.46c-1.06-1.98-2.13-3.96-3.19-5.94l-1.58-2.12c-.78-.96-1.56-1.93-2.33-2.89-.82-.73-1.64-1.47-2.46-2.2-.98-.67-1.96-1.34-2.93-2.02l-2.05-1.02c-1.44-.25-2.88-.49-4.32-.74-1-.28-2-.56-3-.84-1.02.19-2.04.38-3.07.57-.65.12-1.3.25-1.96.37-1.66.68-3.31,1.36-4.97,2.04-.67.38-1.33.77-2,1.15-1.04.77-2.07,1.53-3.11,2.3-1.3,1.1-2.59,2.21-3.89,3.31-1.36,1.26-2.72,2.52-4.08,3.78-1.29,1.13-2.58,2.26-3.87,3.38-1.71,1.53-3.41,3.07-5.12,4.6-1.32,1.04-2.63,2.09-3.95,3.13-1.32,1.11-2.64,2.22-3.96,3.33-1.33,1-2.66,2-4,3.01-.68.53-1.36,1.07-2.05,1.6-1.36.92-2.72,1.83-4.09,2.75-.63.44-1.26.88-1.88,1.32-1.01.62-2.03,1.23-3.04,1.85-1.31.74-2.62,1.49-3.93,2.23-1.34.71-2.67,1.42-4.01,2.13-1.67.66-3.33,1.33-5,1.99-2,.68-4,1.36-6,2.05-2,.57-4,1.15-6,1.72-1.02.11-2.04.22-3.06.33-4.23.29-8.45.59-12.92.9,1.02,10.72,2.5,20.95,9.01,29.69,1.99,2.68,3.98,5.36,5.98,8.05,1.65,1.7,3.31,3.4,4.96,5.09,2.01,1.54,4.02,3.08,6.03,4.63,1.67,1.02,3.33,2.03,5,3.05,1.33.67,2.66,1.33,4,2,1,.39,2,.78,3,1.16,1.65.61,3.31,1.22,4.96,1.83.34.05.69.11,1.03.16,1.33.33,2.67.65,4,.98,1.31.28,2.63.55,3.94.83.35.03.7.06,1.05.09,1.32.08,2.64.16,3.97.24,4.06,0,8.13,0,12.19-.01l.43.11.4-.2c1.75-.28,3.5-.56,5.25-.83,1.35-.33,2.69-.65,4.04-.98l3.73-1.14c.99-.36,1.98-.72,2.98-1.08,1.35-.6,2.69-1.2,4.04-1.8,1.31-.71,2.63-1.43,3.94-2.14,1.02-.65,2.05-1.31,3.07-1.96.97-.68,1.95-1.36,2.92-2.03.77-.61,1.54-1.23,2.31-1.84.85-.73,1.7-1.47,2.55-2.2.95-1,1.9-2,2.85-2.99,1.14-1.3,2.27-2.59,3.41-3.89.56-.69,1.12-1.39,1.68-2.08,1.05-1.66,2.1-3.31,3.16-4.97.69-1.31,1.38-2.61,2.07-3.92,8.23-16.35,7.66-33.08,2.1-50.01-.75-1.97-1.49-3.94-2.24-5.91Z"/><path class="cls-2" d="M1450.07,213.67c-.77,18.19-3.14,34.82-9.45,50.83-7.28,18.45-20.88,28.54-40.07,31.78-15.38,2.6-30.76,2.63-46.19.25-19.6-3.02-33.49-13.49-40.68-31.86-13.16-33.6-14-67.64-1.53-101.63,7.82-21.33,23.68-32.93,46.25-34.34,13.23-.82,26.64-.98,39.82.21,24.92,2.24,39.11,17.49,45.99,40.67,4.4,14.8,5.81,29.94,5.86,44.09ZM1409.47,215.49c-.96-12.34-1.32-20.98-2.35-29.54-2.61-21.52-8.51-27.9-28.45-28.05-18.97-.14-26.44.43-31.26,23.7-3.88,18.71-3.43,37.67-.68,56.51.85,5.85,2.61,11.65,4.6,17.25,2.22,6.27,7.09,10.2,13.7,10.87,6.74.68,13.58.74,20.37.55,10.43-.29,16.89-6.16,18.77-16.06,2.43-12.82,3.93-25.82,5.32-35.23Z"/><path class="cls-2" d="M613.83,211.96c-.09,16.89-2.47,33.37-8.07,49.4-7.1,20.33-21.18,31.87-42.41,35.08-17.1,2.59-34.13,2.74-51.04-1.2-14.83-3.46-26.17-11.93-32.37-25.75-16.37-36.48-17.26-73.62-2.01-110.63,6.95-16.86,20.3-26.56,38.55-29.47,15.42-2.46,30.83-2.44,46.25-.55,22.48,2.75,36.72,15.42,43.97,36.58,5.18,15.11,7.14,30.66,7.13,46.53ZM573.54,213.59c-1.13-11.77-1.63-21.07-2.97-30.25-2.87-19.55-8.4-25.19-27.64-25.44-18.84-.25-26.61.37-31.55,23.35-3.1,14.41-3.54,29.07-2.08,43.64.97,9.67,2.94,19.31,5.32,28.75,1.92,7.58,7.54,12.02,15.49,12.77,5.28.5,10.62.85,15.91.66,13.78-.5,19.66-4.63,22.48-17.95,2.63-12.44,3.64-25.21,5.05-35.53Z"/><path class="cls-2" d="M945.65,214.39c0-23.94,0-47.89,0-71.83,0-7.94-.01-8.01,7.86-9.25,23.69-3.76,47.45-6.73,71.5-5.47,7.11.37,14.27,1.25,21.23,2.71,21.52,4.49,32.27,16.74,34.1,38.83.77,9.26.98,18.58,1.02,27.87.12,30.26.05,60.52.04,90.78q0,7.06-7.28,7.06c-8.83,0-17.65,0-26.48,0-6.91,0-7.05-.12-7.05-6.88,0-34.25.02-68.5-.04-102.76,0-3.47-.24-6.99-.87-10.39-1.74-9.41-5.96-14.42-15.27-15.1-10.86-.79-21.85.06-32.78.27-4.15.08-5.45,2.27-5.44,6.46.15,40.57.09,81.14.09,121.71q0,6.68-6.64,6.69c-9.16,0-18.32,0-27.47,0-6.31,0-6.52-.2-6.52-6.37,0-24.77,0-49.55,0-74.32Z"/><path class="cls-2" d="M1468.19,214.15c0-24.94.06-49.87-.07-74.81-.02-3.46.97-5.16,4.51-5.68,24.7-3.62,49.41-7.26,74.46-5.79,8.41.49,16.87,1.75,25.1,3.59,17.4,3.89,26.95,15.48,29.75,32.72,1.01,6.2,1.58,12.54,1.61,18.83.15,35.24.08,70.48.07,105.73,0,6.33-.03,6.35-6.44,6.35-9.49,0-18.98-.19-28.46.09-4.48.13-5.67-1.53-5.65-5.8.14-33.91.11-67.82.04-101.74,0-3.97-.3-7.98-.89-11.9-1.47-9.65-6.11-15.16-15.72-15.83-10.85-.76-21.83.2-32.75.42-4.07.08-5.15,2.23-5.14,6.12.12,40.4.07,80.79.07,121.19q0,7.46-7.37,7.46c-9.16,0-18.32-.18-27.47.08-4.35.12-5.76-1.31-5.73-5.72.18-25.1.09-50.2.09-75.3Z"/><path class="cls-2" d="M830.32,225.23c-3.7,23.35,9.67,40.24,32.45,42.13,17.31,1.44,34.14-1,50.77-5.47,6.76-1.82,7.16-1.63,7.76,5.11.5,5.62.64,11.29,1.46,16.87.53,3.57-.86,5.13-3.89,6.33-12.84,5.1-26.32,6.94-39.95,7.77-13.81.84-27.56.23-41.08-3.34-23.29-6.15-38.12-20.9-44.29-43.97-6.5-24.35-6.66-49-.22-73.33,8.21-31.03,29.13-47.96,61.36-49.35,11.15-.48,22.67.56,33.57,2.97,16.56,3.67,27.67,14.63,33.13,30.75,6.15,18.15,6.17,36.88,4.25,55.66-.66,6.43-2.79,7.85-9.22,7.86-26.8.02-53.6,0-80.4,0h-5.7ZM859.5,199.94c8.81,0,17.62-.12,26.42.06,3.44.07,4.99-1.25,4.88-4.55-.2-5.95.15-12-.84-17.82-2.41-14.29-8.56-20.19-23.07-21.6-20.37-1.98-33.54,5.84-36.56,26.55-.64,4.41-.54,8.93-1.1,13.36-.41,3.22.84,4.09,3.84,4.05,8.81-.11,17.61-.04,26.42-.04Z"/><path class="cls-2" d="M1120.55,130.58c0-12.6,0-24.55,0-36.49q0-6.58,6.68-6.59c9.49,0,19,.22,28.48-.1,4.55-.15,5.67,1.54,5.56,5.79-.26,10.47-.09,20.96-.07,31.43,0,1.79.15,3.57.25,5.95,8.46,0,16.57.23,24.67-.09,4.68-.18,6.25,1.62,6.11,6.08-.21,6.65-.15,13.31-.02,19.96.08,3.75-1.23,5.38-5.24,5.23-7.15-.27-14.33.05-21.48-.13-3.25-.08-4.36,1.06-4.34,4.32.14,30.1.08,60.21.26,90.31.05,8.17,3.1,10.95,11.29,11.2,3.33.1,6.67.11,9.99,0,3.21-.11,4.63,1.33,4.46,4.48-.32,6.13-.37,12.3-1.09,18.39-.22,1.84-2.02,4.64-3.56,4.99-12.73,2.87-25.63,4.5-38.55,1.31-15.84-3.9-23.33-14.54-23.37-33.05-.07-31.93-.11-63.87.08-95.8.03-4.65-.99-6.58-5.99-6.17-5.29.44-10.65,0-15.98.13-3.02.07-4.18-1.2-4.15-4.15.09-7.48.13-14.97-.02-22.45-.07-3.55,1.5-4.65,4.83-4.58,6.8.14,13.61.04,21.2.04Z"/><path class="cls-2" d="M1625.55,264.48c11.42,1.03,21.81,2.33,32.23,2.79,7.1.31,14.28-.3,21.37-.96,5.1-.48,7.8-3.95,8.66-8.9,1.5-8.64-.03-16.24-7.58-21.71-9.14-6.64-18.38-13.14-27.44-19.88-5.72-4.26-11.52-8.52-16.69-13.4-10.22-9.65-11.98-22.18-10.63-35.39,2.43-23.75,14.94-35.82,39.34-38.43,19.33-2.06,38.54-1.02,57.67,2.01,1.48.23,3.9,2.06,3.86,3.09-.29,9.24-1.04,18.47-1.67,28.07-8.61-.89-16.65-2.02-24.73-2.46-7.11-.39-14.27-.15-21.4.08-5.18.16-10.38,1.36-12.11,6.96-1.91,6.2-2.1,12.82,3.03,17.7,4.41,4.2,9.56,7.67,14.56,11.22,10.02,7.1,20.75,13.32,30.11,21.19,17.12,14.4,20.55,45.78,7.82,64.16-7.9,11.4-19.96,14.97-32.78,16.48-20.46,2.41-40.86.96-61.16-2-1.41-.21-3.75-1.85-3.73-2.79.19-9.25.78-18.49,1.26-27.84Z"/><path class="cls-2" d="M1210.5,213.92c0-24.45.09-48.9-.08-73.35-.03-4.52,1.47-6.33,6.02-7.2,25.63-4.91,51.36-7.23,77.45-4.94,3.74.33,4.88,1.49,4.61,5.11-.59,7.95-.99,15.92-1.23,23.89-.1,3.38-1.28,3.82-4.58,3.67-11.42-.5-22.88-.82-34.3-.4-6.62.25-7.08,1.51-7.08,8.1,0,39.92,0,79.84,0,119.76,0,6.6-.01,6.57-6.64,6.55-9.49-.03-18.99-.19-28.48.07-4.51.12-5.75-1.73-5.74-5.9.11-25.12.05-50.23.05-75.35Z"/><path class="cls-8" d="M212.8,212.2c1.71-1.53,3.41-3.07,5.12-4.6-.68,14.65-1.51,29.3-1.99,43.96-.51,15.52-.7,31.05-1.04,46.57-1.57-.08-3.13-.16-5.39-.27.51-4.54,1.21-8.43,1.33-12.33.73-24.44,1.33-48.89,1.97-73.34Z"/><path class="cls-15" d="M221.8,204.22c1.36-1.26,2.72-2.52,4.08-3.78-.33,9.27-.74,18.54-.98,27.81-.4,15.59-.68,31.18-1.04,46.76-.03,1.14-.53,2.29-.49,3.42.2,6.33.5,12.65.77,18.97-1.75.28-3.5.56-5.25.83.33-8.24.73-16.47.98-24.72.68-23.1,1.3-46.2,1.94-69.3Z"/><path class="cls-16" d="M212.8,212.2c-.64,24.45-1.24,48.89-1.97,73.34-.12,3.9-.82,7.79-1.33,12.33,2.26.11,3.82.19,5.39.27,1.05.06,2.1.12,3.16.19-4.06,0-8.13,0-12.19.01.34-7.07.8-14.14,1-21.22.42-15.01.64-30.03,1.06-45.05.15-5.59.62-11.16.94-16.75,1.32-1.04,2.63-2.09,3.95-3.13Z"/><path class="cls-14" d="M224.13,297.4c-.27-6.32-.57-12.65-.77-18.97-.04-1.13.47-2.28.49-3.42.36-15.59.64-31.18,1.04-46.76.24-9.27.65-18.54.98-27.81,1.3-1.1,2.59-2.21,3.89-3.31-.3,5.1-.66,10.21-.88,15.31-.38,9.25-.77,18.51-.99,27.77-.41,17.23-.73,34.45-.97,51.68-.02,1.5.8,3.02,1.23,4.53-1.35.33-2.69.65-4.04.98Z"/><path class="cls-11" d="M218.05,298.33c-1.05-.06-2.1-.12-3.16-.19.33-15.53.52-31.06,1.04-46.58.49-14.66,1.31-29.31,1.99-43.96,1.29-1.13,2.58-2.26,3.87-3.38-.64,23.1-1.26,46.2-1.94,69.3-.24,8.24-.65,16.48-.98,24.72l-.4.2-.43-.11Z"/><path class="cls-22" d="M242.86,290.26c-1.31.71-2.63,1.43-3.94,2.14.31-10.24.65-20.48.94-30.73.66-23.47,1.3-46.94,1.95-70.41,1.02-.19,2.04-.38,3.07-.57-.33,9.93-.73,19.86-.98,29.8-.39,15.58-.64,31.17-1.05,46.75-.11,4.29-.82,8.56-.85,12.84-.03,3.39.56,6.78.87,10.17Z"/><path class="cls-28" d="M241.8,191.27c-.65,23.47-1.29,46.94-1.95,70.41-.29,10.24-.63,20.48-.94,30.73-1.35.6-2.69,1.2-4.04,1.8.67-14.16,1.52-28.32,1.95-42.49.53-17.51.64-35.04,1.13-52.55.07-2.52,1.23-5.02,1.89-7.52.65-.12,1.3-.25,1.96-.37Z"/><path class="cls-1" d="M208.86,215.33c-.32,5.58-.79,11.16-.94,16.75-.41,15.01-.64,30.03-1.06,45.05-.2,7.08-.66,14.15-1,21.22-1.32-.08-2.64-.16-3.97-.24.33-6.28.8-12.55.97-18.83.42-15.92.65-31.85,1.07-47.77.11-4.28.64-8.56.97-12.83,1.32-1.11,2.64-2.22,3.96-3.33Z"/><path class="cls-5" d="M239.85,191.64c-.66,2.51-1.82,5-1.89,7.52-.49,17.51-.6,35.04-1.13,52.55-.43,14.17-1.28,28.32-1.95,42.49-.99.36-1.98.72-2.98,1.08l-.15-.18c1.04-33.81,2.08-67.61,3.13-101.42,1.66-.68,3.31-1.36,4.97-2.04Z"/><path class="cls-32" d="M228.17,296.42c-.43-1.51-1.25-3.03-1.23-4.53.24-17.23.56-34.46.97-51.68.22-9.26.6-18.52.99-27.77.21-5.11.58-10.21.88-15.31,1.04-.77,2.07-1.53,3.11-2.3-.33,7.94-.67,15.88-1,23.82-.33,7.77-.77,15.54-.96,23.32-.41,16.42-.74,32.84-.95,49.26-.02,1.28,1.16,2.58,1.79,3.87l.15.18-3.73,1.14Z"/><path class="cls-4" d="M170.91,237.59c2-.68,4-1.36,6-2.05-.67,17.49-1.33,34.97-2,52.46-2.01-1.54-4.02-3.08-6.03-4.63.68-15.26,1.36-30.52,2.03-45.78Z"/><path class="cls-19" d="M247.87,191.53c1.44.25,2.88.49,4.32.74-.77,5.12-2.06,10.21-2.23,15.35-.58,17.39-.75,34.79-1.12,52.18-.03,1.3-.6,2.6-.57,3.9.14,7.52.38,15.05.58,22.57-.97.68-1.95,1.36-2.92,2.03-.35-1.54-1.04-3.1-1-4.63.21-8.42.66-16.83.93-25.24.7-22.3,1.35-44.59,2.02-66.89Z"/><path class="cls-29" d="M254.23,193.29c.98.67,1.96,1.34,2.93,2.02-.43,1.17-1.22,2.33-1.25,3.52-.41,14.87-.7,29.75-1.08,44.62-.05,2.13-.57,4.25-.61,6.37-.22,10.8-.35,21.61-.52,32.41-.85.73-1.7,1.47-2.55,2.2-.35-2.16-.92-4.31-.98-6.47-.06-1.94.61-3.9.66-5.86.38-17.36.64-34.73,1.05-52.09.18-7.75.59-15.5,1.03-23.24.07-1.18.86-2.32,1.31-3.48Z"/><path class="cls-26" d="M174.91,287.99c.67-17.49,1.33-34.97,2-52.46,1.67-.66,3.33-1.33,5-1.99-.67,19.17-1.33,38.33-2,57.5-1.67-1.02-3.33-2.03-5-3.05Z"/><path class="cls-23" d="M194.76,226.01c1.36-.92,2.72-1.83,4.09-2.75-.32,5.6-.8,11.19-.93,16.8-.41,19.04-.7,38.08-1.03,57.12-1.33-.33-2.67-.65-4-.98.01-5.95-.12-11.91.06-17.86.53-17.44,1.19-34.88,1.8-52.33Z"/><path class="cls-27" d="M189.84,229.18c1.01-.62,2.03-1.23,3.04-1.85-.33,14.88-.61,29.77-1.01,44.65-.1,3.61-.83,7.22-.81,10.82.02,4.41.52,8.82.81,13.23-1.65-.61-3.31-1.22-4.96-1.83.33-4.75.84-9.49.97-14.24.42-15.49.68-30.98,1.07-46.47.04-1.44.59-2.88.9-4.31Z"/><path class="cls-21" d="M247.87,191.53c-.67,22.3-1.32,44.6-2.02,66.89-.26,8.42-.71,16.83-.93,25.24-.04,1.53.65,3.09,1,4.63-1.02.65-2.05,1.31-3.07,1.96-.31-3.39-.89-6.78-.87-10.17.03-4.28.74-8.56.85-12.84.41-15.58.66-31.17,1.05-46.75.25-9.93.65-19.87.98-29.8,1,.28,2,.56,3,.84Z"/><path class="cls-9" d="M231.75,295.1c-.62-1.29-1.81-2.59-1.79-3.87.21-16.42.54-32.84.95-49.26.2-7.78.63-15.55.96-23.32.33-7.94.67-15.88,1-23.82.67-.38,1.33-.77,2-1.15-1.04,33.81-2.08,67.61-3.13,101.42Z"/><path class="cls-12" d="M170.91,237.59c-.68,15.26-1.36,30.52-2.03,45.78-1.65-1.7-3.31-3.4-4.96-5.09.33-12.99.66-25.98.99-38.97,2-.57,4-1.15,6-1.72Z"/><path class="cls-25" d="M204.89,218.66c-.33,4.28-.86,8.55-.97,12.83-.42,15.92-.65,31.85-1.07,47.77-.16,6.28-.63,12.56-.97,18.83-.35-.03-.7-.06-1.05-.09-.65-1.57-1.86-3.14-1.84-4.7.07-5.42.74-10.82.86-16.24.42-18.47.7-36.94,1.04-55.41,1.33-1,2.66-2,4-3.01Z"/><path class="cls-7" d="M189.84,229.18c-.31,1.44-.86,2.87-.9,4.31-.39,15.49-.65,30.98-1.07,46.47-.13,4.75-.63,9.49-.97,14.24-1-.39-2-.78-3-1.17.67-20.54,1.34-41.08,2.01-61.62,1.31-.74,2.62-1.49,3.93-2.23Z"/><path class="cls-34" d="M254.23,193.29c-.45,1.16-1.24,2.3-1.31,3.48-.44,7.74-.84,15.49-1.03,23.24-.41,17.36-.67,34.73-1.05,52.09-.04,1.96-.71,3.91-.66,5.86.07,2.17.63,4.32.98,6.47-.77.61-1.54,1.23-2.31,1.84-.21-7.52-.45-15.05-.58-22.57-.02-1.3.54-2.6.57-3.9.37-17.39.54-34.79,1.12-52.18.17-5.14,1.45-10.23,2.23-15.35.68.34,1.36.68,2.05,1.02Z"/><path class="cls-24" d="M185.91,231.42c-.67,20.54-1.34,41.08-2.01,61.62-1.33-.67-2.66-1.33-4-2,.67-19.17,1.33-38.33,2-57.5,1.34-.71,2.67-1.42,4.01-2.13Z"/><path class="cls-20" d="M164.91,239.3c-.33,12.99-.66,25.98-.99,38.97-1.99-2.68-3.98-5.36-5.98-8.05.33-8.9.53-17.82,1.1-26.71.09-1.35,1.83-2.59,2.81-3.89l3.06-.33Z"/><path class="cls-3" d="M253.71,282.22c.16-10.8.3-21.61.52-32.41.04-2.13.56-4.25.61-6.37.38-14.87.66-29.75,1.08-44.62.03-1.18.81-2.34,1.25-3.52.82.73,1.64,1.47,2.46,2.2-.59,2.37-1.62,4.72-1.69,7.1-.47,15.86-.7,31.72-1.11,47.58-.1,3.94-.82,7.87-.84,11.8-.03,5.08.36,10.16.57,15.24-.95,1-1.9,2-2.85,2.99Z"/><path class="cls-6" d="M256.56,279.23c-.21-5.08-.6-10.16-.57-15.24.02-3.94.74-7.86.84-11.8.41-15.86.63-31.72,1.11-47.58.07-2.38,1.11-4.74,1.69-7.1.78.96,1.56,1.93,2.33,2.89-.7,6.12-1.82,12.23-2.02,18.37-.56,17.15-.78,34.32-1.03,51.48-.02,1.69.69,3.39,1.05,5.09-1.14,1.3-2.27,2.59-3.41,3.89Z"/><path class="cls-30" d="M161.86,239.64c-.98,1.29-2.73,2.54-2.81,3.89-.57,8.89-.77,17.8-1.1,26.71-6.51-8.74-7.99-18.97-9.01-29.69,4.47-.31,8.69-.61,12.92-.9Z"/><path class="cls-17" d="M268.97,214.36c5.56,16.93,6.14,33.65-2.1,50.01.33-15.64.64-31.27,1.03-46.91.03-1.04.7-2.07,1.07-3.1Z"/><path class="cls-31" d="M200.9,221.67c-.34,18.47-.62,36.94-1.04,55.41-.12,5.42-.79,10.82-.86,16.24-.02,1.56,1.19,3.13,1.84,4.7-1.31-.28-2.63-.55-3.94-.83.33-19.04.62-38.08,1.03-57.12.12-5.6.61-11.2.93-16.8.68-.53,1.36-1.07,2.05-1.6Z"/><path class="cls-18" d="M259.97,275.34c-.37-1.7-1.08-3.4-1.05-5.09.25-17.16.47-34.33,1.03-51.48.2-6.14,1.32-12.25,2.02-18.37l1.58,2.12c-.23.77-.63,1.54-.65,2.32-.37,13.34-.64,26.68-1.05,40.01-.18,5.91-.78,11.81-.89,17.72-.06,3.56.45,7.13.7,10.69-.56.69-1.12,1.39-1.68,2.08Z"/><path class="cls-33" d="M268.97,214.36c-.37,1.03-1.04,2.06-1.07,3.1-.39,15.63-.7,31.27-1.03,46.91-.69,1.31-1.38,2.61-2.07,3.92-.32-.9-.92-1.8-.9-2.69.28-17.03.58-34.05,1.05-51.08.06-2.04,1.16-4.04,1.77-6.06.75,1.97,1.49,3.94,2.24,5.91Z"/><path class="cls-10" d="M266.73,208.46c-.62,2.02-1.72,4.03-1.77,6.06-.47,17.02-.77,34.05-1.05,51.08-.01.89.59,1.79.9,2.69-1.05,1.66-2.1,3.31-3.16,4.97-.25-3.56-.77-7.13-.7-10.69.11-5.91.71-11.81.89-17.72.41-13.34.68-26.68,1.05-40.01.02-.78.43-1.55.65-2.32,1.06,1.98,2.13,3.96,3.19,5.94Z"/><path class="cls-13" d="M191.86,296.03c-.29-4.41-.79-8.82-.81-13.23-.02-3.61.71-7.21.81-10.82.4-14.88.69-29.76,1.01-44.65.63-.44,1.26-.88,1.88-1.32-.61,17.44-1.27,34.88-1.8,52.33-.18,5.95-.05,11.9-.06,17.86-.34-.05-.69-.11-1.03-.16Z"/></g></svg>