<?xml version="1.0" encoding="UTF-8"?><svg id="Layer_2" xmlns="http://www.w3.org/2000/svg" viewBox="0 0 2853.02 952.69"><defs><style>.cls-1{fill:#494b4e;stroke-width:0px;}</style></defs><g id="Layer_1-2"><path class="cls-1" d="M1174.47,161.3c.09-9.81-2.31-20.45,8.9-26.54,5.85-20.07,22.25-33.29,34.69-48.24,13.03-15.66,37.43-22.29,54.09-11.78,7.19,4.54,15.42,7.42,20.49,9.8,3.11,13.13,6.82,23.04,7.48,33.14.73,11.08.47,21.98-3.79,33.48-3.68,9.92-2.37,21.35-9.09,31.64-7.66,11.72-11.74,25.43-21.39,36.55-6.83,7.88-7.95,19.31-4.02,31.93,7.63-.3,17.17,4.69,25.64-3.88,21.04-1.81,40.63.64,55.62,19.75,4.14,0,9.35,1.07,13.87-.25,7.1-2.06,12.31-9.03,8.54-15.02-4.84-7.69-1.97-16.39-5.55-22.95-5.74-10.51-5.54-18.9-.09-29.56,2.92-5.71,2.45-15.6-.66-21.34-4.32-7.99-3.05-12.41,1.34-19.56,4.41-7.18,6.16-16,5.88-25.36-.31-10.2-4.34-21.61,4.58-30.69.42-.43.33-1.75.01-2.45-7.64-17.1,3.88-34.18.02-51.25-2.08-9.19-2.37-19.56-7.06-27.18-4.68-7.61-1.4-14.54-3-21.54h20.16c10.91,11.12,24.11,19.28,32.67,33.7,5.04,8.49,7,15.67,7.78,24.68,2.69,31.2-6.2,60.32-15.4,89.38-1.86,5.89-5.65,11.17-9.93,19.38,0,5.87-.14,15.11.08,24.33.08,3.13-.01,7.86,1.82,9.09,10.43,6.97,7.88,17.32,8.19,27.02.26,8,2.28,15.63,3.95,23.33,2.19,10.08,4.83,22.31-2.76,33.55-3.47,5.13-4.12,14.8,3.52,20.01,8.05,5.49,7.92,16.04,4.73,19.99-8.34,10.34-1.97,20.99-4.56,29.77,6.72,6.72,12.63,12.63,19.63,19.63,3.34-2.4,7.16-5.14,10.72-7.69v-20.92c5.95-5.76,11.97-11.58,18.09-17.5,20.04-1.3,39.3,3.98,58.45,9.94,20.41,6.36,23.88,10.67,24.32,30.9.05,2.45,0,4.91,0,9.3-8.36,3.33-16.82,7.37-25.68,10.07-11.31,3.45-22,6.56-32.25,13.91-8.08,5.8-18.92,9.76-30.08,12.32-16.29,3.73-31.21,13.42-46.81,20.62-4.45,11.58-11.52,22.81-2.36,35.94,2.4,3.44,3.03,11.92.7,14.17-9.94,9.61-1.93,18.07.6,26.37,5.52,18.12,7.19,35.31.34,54-4.58,12.51-4.56,26.9-5.41,40.52-.84,13.38.15,26.86-.3,40.27-.32,9.53.35,18.62-4.06,28.51-4.06,9.1-.79,21.44-.88,32.35-.09,9.72-.36,19.44-.57,30.17-21.88-12.33-20.7-12.08-16.35-32.55,4.37-20.53,8.98-41.23,7-62.7-1.53-16.71,3.73-34.47-9.37-49.14-1.72-1.93-.58-6.36-.87-9.62-.98-11.16.93-22.11-4.18-33.54-2.96-6.62-3.67-17.34,2.01-26.2,3.85-6.01,4.51-13.7-1.23-20.3-7.55-8.69-6.52-19.38-6.84-29.94-.34-10.98-2.02-21.92-3.16-33.22-21.35-4.3-39.01,2.36-54.98,9.83-23.68,11.07-47.48,23-65.09,43.8-3.4,4.02-9.16,6.01-13.75,9.06-15.4,10.25-30.55,20.65-35.46,40.29-.76,3.03-3.59,5.55-4.92,7.52-10.53-2.83-14.25-7.39-14.31-16.37-.05-7,.25-13.74-2.74-21.39-8.17-20.88,3.47-58.11,19.75-73.3,3.7-3.46,7.77-4.72,12.54-6.35,14.64-5,28.27-12.53,35.39-26.28-6.66-5.35-13.38-10.74-21.43-17.21,5.57-6.38,10.25-11.75,15.31-17.54,4.82,2.4,8.97,4.47,12.88,6.42,1.71-1.27,3.86-2.02,4.07-3.14,3.07-16.5,6.57-32.79,19.92-44.63,3.99-3.54,5.36-7.36,5.76-12.87.56-7.7,3.46-15.23,5.65-23.98-16.19-4.97-26.93,5.59-36.9,12.75-11.25,8.08-24.37,15.18-30.66,29.29-1.59,3.57-7.14,5.38-14.96,10.87,6.55-28.21-12.23-48.2-9-72.01,9.23-11.47,18.42-22.88,29.34-36.45v-18.38c8.99-5.48,17-10.37,26.44-16.13-2.15-12.38-4.46-25.68-6.98-40.19,6.1-4.91,11.92-9.6,18.5-14.9-2.87-4.55-4.93-7.81-6.99-11.06,3.41-9.5,6.81-19.01,10.25-28.61-4.76-2.73-9.41-5.41-15.52-8.92-11.49,9.52-29.19,10.74-39.31,23.26-9.28,11.48-15.74,25.24-23.44,37.99h-7.6ZM1251.51,448.28c10.35-6.18,22.85-8.06,28.94-19.44,1.2-2.24,3.76-4,6.07-5.34,4-2.31,9.58-3.08,12.24-6.33,9.5-11.62,22.94-17,35.38-23.87,10.15-5.61,20.93-10.09,31.29-15v-48.72c-2.16-2.16-4.52-4.52-6.93-6.93h-20.88c-2.37,2.55-5.18,5.61-8.02,8.64-1.14,1.22-2.4,2.32-3.53,3.56-9.16,10.02-12.46,13.49-20.7,15.41-13.59,3.17-23.52,12.19-35.34,19.48v22.4c-5.28,3.01-10.02,5.67-14.71,8.41-6.15,3.59-7.86,11.58-4.77,14.96,10.16,11.08,1.96,20.82.96,32.76ZM1264.13,148.55c-1.84,4.13-3.64,6.49-3.67,8.89-.02,1.27,4.02,3.98,4.51,3.63,2.11-1.5,4.11-3.7,5-6.07.32-.86-2.55-2.93-5.84-6.44Z"/><path class="cls-1" d="M0,206.67c9.68-1.13,3.99-9.21,5.76-13.75,6.65-17.03,15.16-32.79,28.19-48.58,9.16,6.13,18.29,12.25,27.15,18.19-4.46,11.48-8.33,21.45-12.14,31.27,21.8,10.17,37.65-4.15,54.79-8.44,17.35-4.34,33.33-12.9,51.95-14.72,10-.98,20.8-8.09,28.36-15.4,6.48-6.26,6.99-16.83,8-26.77,2.62-25.78-8.27-50.31-5.28-75.8,2.44-2.44,4.81-4.81,7.24-7.24h35.55c18.16,19.32,18.46,43.48,17.2,67.78,4.37,4.36,8.53,8.51,13.01,12.99,10.27-.98,20.24.77,30.34,4.64,14.58,5.59,16.03,10.1,5.84,24.23-15.48,2.48-30.52,4.89-47.91,7.67-3.9,4.31-9.49,10.49-15.66,17.3-2.28,25.51-4.69,52.39-7.17,80.13,21.39,5.2,41.14,10.52,55.39,27.65,10.7,12.85,15.11,24.79,8.25,41.61-4.19,10.29-6.32,21-14.66,29.27-3.2,3.18-7.06,8.3-6.6,12.04,1.13,9.15-4,14.04-9.61,18.88-12.71,10.98-18.53,24.44-15.6,41.78,9.13,7.04,22.83-3.94,31.75,6.59,10.04-1.97,20.07-3.93,30.3-5.94,6.52,6.86,13.03,12.39,17.81,19.14,4.43,6.25,8.54,13.5,10.06,20.87,2.28,11.01-3.35,16.76-14.8,16.83-32.73.2-65.46.41-98.18-.14-9.21-.15-18.74.2-25.21,5.83-10.31,8.98-23.58.82-34.43,8.91-6.94,5.18-17.57,7.29-27.71,5.87-3.6-.5-7.76,1.23-11.33,2.71-16.93,7.04-16.89,7.13-37.86,7.13-7.1-20.25.1-39.83,4.62-59.03,2.23-9.48,10.42-16.33,22.42-16.84,11.1-.47,22.23-2.6,33.1-5.08,3.4-.78,5.99-5.09,9.9-8.65-13.7-20.27-34.13-6.39-51.46-13.1-7.18-6.7-11.24-16.48-10.81-28.72.62-17.57.16-35.18.16-51.83,17.92-24.88,40.4-42.57,68.04-53.91,5.73-2.35,10.62-6.85,15.78-10.52,11.4-8.11,15.04-20.78,16.62-33.28,1.68-13.22.92-26.84.05-40.21-.27-4.16-4.37-8.08-5.99-10.85-29.4,3.28-52.11,19.56-76.92,30.48-5.33,2.34-10.57,2.92-15.64,4.83-19.08,7.18-37.07,16.5-53.73,28.34-4.49,3.19-9.45,5.72-13.87,8.99-8.14,6.02-13.68,1.63-20.03-5.37,0-9.63.28-20.42-.23-31.18-.11-2.25-3.13-4.35-4.81-6.52,0-3.36,0-6.72,0-10.08ZM223.46,378.93c16.93-16.53,26.43-37.28,33.98-59.01-15-10.05-28.04-9.55-39.58-.3-3.47,11,.45,21.18-5.23,32.03-3.84,7.34-5.12,21.66,10.82,27.28ZM185.55,343.64h-17.35c-4.64,9.46-8.71,17.78-12.68,25.89,15.31,12.5,17.68,11.72,26.22-2.18,4.67-7.6,5.66-14.71,3.81-23.71Z"/><path class="cls-1" d="M902.28,509.11c-20.02-18.78-40.04-37.56-60.49-56.74,0-23.56-.06-46.92.03-70.28.04-9.29,10.25-44.52,15.18-51.57,2.36-3.37,5.17-7.15,8.69-8.87,20.73-10.13,29.75-30.28,42.74-47.31,6.67-8.75,13.9-18.36,25.62-22.59,4.33-1.56,7.51-6.29,11.47-9.8,6.28,0,13,.24,19.69-.07,6.1-.29,15.34-7.52,19.03-13.78,5.19-8.79,10.71-17.37,15.95-26.13,5-8.35,4.85-17.22.31-25.39-5.34-9.62-8.61-20.29-17.39-28.23-6.32-5.71-11.77-13.41-15.01-21.29-8.18-19.88-6.12-41.99,12.66-56.67,11.97,1.84,24.3.17,37.58,4.28,18.41,5.71,37.13.13,50.42-16.6,3.02-3.8,7.66-6.32,12.58-10.25-3.79-4.82-5.86-8.2-8.64-10.84-5.89-5.57-4.51-10.7-1.42-17.41,2.88-6.24,9.3-11.46,7.43-19.56,5.04,0,10.08,0,15.12,0,2.7,2.23,5.39,4.45,9.34,7.71v56.77c-25.67,9.14-32.3,39.08-54.28,52.49-.7,11.74-.53,20.97,7.22,30.84,4.6,5.86,1.6,18.63.16,28.01-1.15,7.51-5.1,14.58-7.48,20.98,6.78,11.3,13.25,22.08,20.23,33.71-14.11,32.46-15.87,65.22,5.12,96.48-7.86,10.71-7.08,21.06.02,31.96-12.71,16.42-17.83,35.1-15.81,56.12,1.12,11.64.27,23.47.18,35.21-.06,8.02-.33,15.46-4.57,23.32-5.71,10.6-6.88,23.12-5.47,35.42,3.4,29.8-6.38,58.79-5.41,88.52.23,7.04-4.94,12.45-11.34,17.96-17.15,14.75-33.64,17.4-55.28,10.34-13.75-4.49-27.96-5.95-38.87-18.56,0-4.82-.07-10.59.01-16.35.19-13.03,1.27-25.99-9.88-36.33-3.68-3.42-3.86-10.42-7.29-14.35-5.34-6.12-4.84-16.23-2.24-18.25,14.42-11.12,7.49-26.07,9.78-40.43,8.56-11.8,25.22-19.81,24.91-38.8-.03-1.92,2.18-4.41,4-5.75,8.7-6.42,19.86-8.99,21.73-23.54,1.2-9.31,10.16-17.38,14.18-26.64,4.32-9.93,6.58-20.74,10.4-30.92,3.43-9.15,3.92-18.63,5.46-28.06,1.97-12.07,7.88-23.46,11.74-35.26,1.46-4.47,4.18-10.43,2.47-13.72-6.77-13.06-3.76-27.03-4.83-40.11-17.04-7.53-27.53,4.98-36.57,13.14-26.14,23.55-51.21,48.49-74.68,74.69-8.92,9.96-13.04,24.58-18.1,37.56-8.49,21.77-9.02,61.09-2.44,86.16.81,3.1,1.1,6.5.84,9.69-1.05,12.79,1.84,24.2,11.72,32.88,5.45,4.79,2.73,10.75,3.48,16.22ZM986.93,585.36c5.52-2.49,9.07-4.05,12.58-5.7,17.98-8.41,30.22-20.55,29.04-42.37-.18-3.4,4.65-7.08,4.45-10.48-.85-14.8,8.39-28.01,5.7-43.24-1.34-7.6-.21-15.29,3.95-23.4,3.57-6.96,2.9-18.34-9.3-21.65-12.23,3.26-10.79,13.22-9.95,21.98,1.73,17.99-5.89,32.35-15.55,46.49-14.17,20.75-27.72,41.93-42.29,64.08,7.89,5.27,14.33,9.58,21.36,14.27ZM1042.92,351.72c-6.37,1.41-11.22,1.09-13.93,3.34-9.84,8.17-14.44,30.44-8.79,42.26,1.48,3.1,5.89,4.8,6.42,5.21,7.2-4.74,12.71-8.38,16.29-10.73v-40.08ZM1022.38,422.96c-.43-6.22,5.77-15.03-8.33-14.58v14.58h8.33Z"/><path class="cls-1" d="M2853.02,761.14c-17.73,23.33-21.81,26.05-52.96,35.28-2.25.67-4.95.63-6.74,1.9-19.78,14.05-38.47,7.62-58.4-.8-10.74-4.53-17.75-10.68-23.08-20.22-2.72-4.87-6.01-9.41-10.22-15.94,2.7-20.34-4.47-43.77,5.88-69.79-1.72-1.65-5.05-4.83-7.39-7.07-4.43,1.52-6.41,1.59-7.3,2.6-9.62,11.07-19.68,21.84-28.4,33.6-8.43,11.36-15.69,23.62-23.02,35.76-6.51,10.78-16.85,17.26-27.5,31.13-1.77-11.84-2.66-17.79-3.49-23.34,25.39-15.52,34.46-44.54,55.92-62.56,1.59-1.34.21-6.23.21-10.81-7.83.69-15.48-3.79-21.24,3.46-6.23,7.85-14.08,7.01-23.23,5.46v-31.83c8.94-17.03,32.05-20.98,39.01-41.64-4.31-.84-9.06-1.31-13.46-2.8-2.14-.73-3.62-3.38-5.66-5.42-2.54-14.11,0-26.95,11.48-37.92h26.36c1.28,3.11,2.46,5.98,3.79,9.21,8.15,1.23,12.85-3.79,12.85-10.58,0-10.18,2.48-18,17.37-23.69h16.35c9.49,12.45,9.69,15.39-.27,24.04-6.01,5.23-12.75,9.62-19.22,14.32-5.8,4.21-11.69,8.28-17.49,12.49-7.4,5.38-18.44,20.74-26.74,37.14,10.75,6.47,17.94-2.53,25.88-6.37,6.36-3.08,13.16-7.03,17.32-12.47,8.7-11.35,19.5-10.32,30.99-8.32,2.28,5.14,4.48,10.11,7.43,16.78-9.63,7.86-19.57,15.96-30.61,24.96-3.3,13.97,3.53,25.15,14.65,35.29-.25,20.75-1.83,42.42,16.07,56.75,34.37,6.51,62.93-4.12,88.67-24.9,5.81,3.98,11,7.53,16.19,11.09v25.2Z"/><path class="cls-1" d="M1728.95,952.69c-.02-6.64-5.05-4.75-8.69-5.01-7.87-.57-10.54-5.75-12.08-12.48,21.4-3.63,25.56-1.21,30.85,17.5h-10.08Z"/><path class="cls-1" d="M1850.69,560.19c-5.73-6.15-10.56-11.34-16.95-18.19-11.49,16.92-31.71,23.11-39.95,42.3h-28.53v14.78c-5.48,0-11.52,1.83-14.06-.38-5.25-4.57-8.08-11.82-12.94-17-6.47-6.89-5.9-12.16-.17-19.42,2.48-3.15.87-9.62.91-14.58.09-9.24-1.54-18.84.51-27.59,1.7-7.21,7.69-13.41,10.91-18.65,8.43-2.7,16.16-4.44,23.25-7.62,12.26-5.49,24.18-8.3,36.92-1.58,2.67,1.41,6.3,1.94,9.33,1.58,9.46-1.12,18.81,2.01,28.56-4.27,7.43-4.78,19.07,2.42,28.39-4.33,3.37-2.44,9.6-.69,14.44-1.42,6.97-1.05,13.85-2.63,22.79-4.38.61,6.87,1.3,14.63,2.03,22.93,14.53,11.86,16.86,27.93,13.46,45.11-9.38,12.65-28.83,11.69-34.44,28.45-4.43,13.23-9.93,26.11-15.22,39.83,3.29,5.66,6.84,11.75,10.59,18.2,19.54,4.18,41.63-5.18,58.49,11.68,8.72-3.53,17.17-9.15,26.04-9.89,8.04-.67,16.52,3.98,25.87,6.58v26.11c15.03,6.95,18.44-4.65,24.72-14.9,5.58,5.07,10.55,10.38,16.32,14.62,6.3,4.63,13.03,8.93,20.13,12.14,6.33,2.86,5.38,11.74,14.36,13.32,6.8,1.2,7.66,9.88,3.4,16.47-4.75,7.35-9.86,14.48-15.6,22.85-11.57-3.34-22.48-5.55-32.63-9.63-17.27-6.93-34.17-14.83-51.01-22.77-5.86-2.77-11.11-5.66-18.14-5.2-6.16.4-12.04-.25-18.72-3.18-15.24-6.69-23.07-.03-23.21,16.7-.19,22.67.1,45.34-.16,68.01-.06,5.47-.95,10.53-3.22,16.24-7.17,18.05-13.85,36.95-16.26,56.09-3.48,27.64-13.6,50.62-34.22,69.13-3.12,2.8-5.96,5.91-9.42,9.38-15.55-2.28-31.81,2.86-48-4.57-5.72-2.63-15.03,3.73-22.8,4.13-15.03.77-30.14.23-43.01.23-8.9-5.96-16.15-10.82-23.53-15.76-3.85,2.11-7.25,3.98-11.66,6.4-4.23-5.77-8.6-11.73-11.42-15.58h-41.16c-7.85-15.76-10.52-30.5-4.09-47.01,3.12-8.01-.76-18.93,2.82-26.52,4.31-9.15,2.87-15.45.65-24.55-1.81-7.39,2.35-17.54,8.02-25.71,23.57-34,57.86-55.16,90.74-78.19,14.21-9.95,27.78-20.67,44.47-26.52,11.7-4.11,22.88-9.77,34.69-13.48,8.22-2.58,12.37-6.33,12.03-15.36-.49-13.42-.27-26.87-.09-40.31.21-15.4-2.4-31.15,5.77-44.71ZM1875.57,788.8c-.55-8.49,1.38-18.7-2.3-26.13-5.72-11.55-1.19-22.79-3.18-33.91,12.87-13.37-.25-19.87-7.1-27.62-20.83-4.52-36.91,8.45-54.06,15.19-32.56,12.8-54.03,38.65-69.87,71.5.43,10.54-2,23.67,7.96,34.81,2.64,2.95,1.93,9.27,2.01,14.06.24,13.19.08,26.39.08,39.54,23.2,4.83,43.28,13,59.7,26.83,11.23-5.79,20.01-11.41,21.13-23.91.22-2.48,2.31-5.28,4.33-7.01,5.35-4.6,11.14-8.7,15.65-12.15q0-24.94-9.2-37.08c.39-23.08,23.34-21.72,34.84-34.11ZM1872.99,574.59c5.28-3.46,15.45-3.97,10.39-15.85-8.32,1.98-14.04,4.87-10.39,15.85ZM1729.34,900.55c1.4.8,2.79,1.6,4.19,2.39,1.51-4.75,3.02-9.49,4.52-14.24-2.69-.52-5.38-1.03-8.71-1.67v13.51Z"/><path class="cls-1" d="M467.5,532.19c2.12-11.46,6.21-19.79,21.36-24.1,14.36-4.08,31.47-5,42.89-18.35,2.1-2.46,9.54-.35,12.84-.35,9.52-7.53,17.07-15.43,26.23-20.28,12.71-6.74,25.93-10.32,41.54-5.88,19.09,5.43,44.3,15.33,57.45,27.59v23.98c-11.27,4.57-23.44,9.61-35.71,14.42-5.78,2.27-13.09,2.54-17.41,6.33-34.72,30.44-77.65,50.68-107.68,86.91-2.52,3.04-5.98,5.5-9.42,7.55q-20.95,12.51-31.33,28.66c4.97.93,9.58,1.79,15.58,2.92-3.37,16.09,7.72,20.05,24.28,20.58-5.88,6.77-8.61,10.75-12.14,13.82-26.56,23.14-45.57,51.39-58.84,83.93-5.27,12.92-12.51,25.03-18.76,37.55-9.22,18.5-9.73,19.02-34.13,30.44-3.1-3.82-6.63-8.45-10.43-12.84-6.44-7.42-10.73-15.38-11.16-25.7-.29-6.92-2.46-13.97-4.97-20.51-2.22-5.8-6.06-10.99-9.67-17.31,1.29-3.14,4.89-7.62,4.49-11.72-1.45-15.17,5.27-28.24,10.85-40.98,7.18-16.39,13.63-33.25,18.9-50.01,5.22-16.62,13.64-25.85,29.3-29.68,6.25-12.74,1.48-31.62,21.27-36.51.53-.13.07-4.27.07-8.98-11.74,5.12-22.58,6.77-32.08,15.41-12.46,11.34-27.78,18.75-46.36,15.42-7.79-22.84,8.32-44.69,2.95-67.13,16.26-15.73,30.51-32.89,50.57-43.37,2.24-1.17,3.38-4.28,5.39-6.1,5.26-4.76,10.21-10.16,16.2-13.78,16.57-10.01,32.6-20.38,46.22-34.52,8.96-9.3,19.09-17.91,30-24.73,7.65-4.79,16.76-10.15,27.77-5.06v16.96c-12.28,13.45-26.67,23.88-45.96,27.69-4.65.92-13.07,2.26-15.23,12.33-1.48,6.89-10.72,12.4-17.09,17.83-2.79,2.38-7.18,4.46-10.65,4.19-12.59-.97-16.07,8.7-25.72,18.96,12.34-.64,17.34,12.73,28.79,2.05,3.13-2.92,12.98,1.35,19.79,2.33ZM440.53,587.61c29.19,10.22,45.36-12.21,66.52-19.32,5.04-1.69,13.4-7.28,11.79-17.79h-18.37c-10.58,12.81-24.64,22.81-44.69,18.66-4.84,5.86-9.35,11.3-11.68,21.05-.33-.33-.66-.66-.98-.98-1.37,1.17-2.75,2.34-4.12,3.51l1.59,1.59c1.17-1.37,2.34-2.75-.06-6.72ZM534.95,555.92c10.29-3.27,16.64-6.31,12.65-17.57-8.25,2.48-14.27,5.13-12.65,17.57Z"/><path class="cls-1" d="M841.82,607.53c-1.47,18.77,6.16,36.58,5.54,55.73-.81,25.06-11.31,44.72-27.81,61.54-6.91,7.05-14.45,13.57-21.28,22.66-6.07-4.28-11.77-8.29-17.16-12.09-2.19,1.4-4.62,2.2-4.67,3.11-.33,6.7-.18,13.42-.18,21.73-7.55,4.16-15.78,8.69-24.55,13.53-2.89,11.16,1.1,21.09,9.13,29.98,14.32,15.86,28.54,31.81,42.71,47.8,1.51,1.7,2.38,3.96,4.86,8.23-7.42,1.14-13.35,2.05-20.54,3.15-3.65,3.75-8.32,8.55-13.26,13.62-2.26.18-4.75.9-7.03.46-15.58-2.98-29.92-7.72-42.96-18.17-19.62-15.72-42.87-25.6-67.19-31.95-13.26-3.46-21.48-10.17-22.17-23.02-.62-11.71-.13-23.48-.13-34.37,6.22-6.53,11.99-12.59,17.43-18.32,18.22-2.27,35.94-4.48,58.23-7.26,7.42-10.74,17.24-24.95,27.58-39.92,7.18,2.56,13.06,4.65,20.22,7.2,2.39-3.49,6.96-7.18,7.18-11.12.44-7.74,4.29-10.81,10.19-14.89,9.33-6.44,17.09-15.17,25.51-22.93-.98-15.56,16.53-26.85,8.36-45.54-21.8-23.6-33.56-24.45-71.49-17.69-25.52,4.55-47.35,16.29-69.66,26.75-17.85,8.36-32.66,23.19-49.35,35.54,2.64,9.32-3.37,18.93,5.28,26.31,3.85,27.53-5.44,62.91-35.81,78.4-6.86,3.5-14.77,4.96-23.7,7.84-8.25,31.07-34.9,50.61-58.26,71.53-16.13,14.44-30.68,5.04-38-12.77-9.67-23.51.35-44.75,11.09-64.14,9.24-16.69,22.55-31.34,35.3-45.79,7.96-9.02,18.24-15.99,28.55-24.8v-16.43h-26.54c-8.29-10.96-16-21.13-25.02-33.05,14.18-6.43,25.8-15.4,42.3-13.54,15.12,1.71,30.91-2.45,44.91,7.37,8.37,5.87,15.77,3.9,24.19-2.77,14.2-11.26,30.01-20.5,45.13-30.59,1.98-1.32,3.79-3.51,5.92-3.86,14.13-2.33,26.57-8.35,39.28-14.8,10.93-5.55,23.71-9.28,35.92-10.09,23.4-1.55,46.99-.81,70.48-.16,5.05.14,10.59,3.14,14.89,6.23,9.18,6.6,17.69,14.13,26.56,21.34Z"/><path class="cls-1" d="M594.43,378.26c6.59-2.44,13.18-4.89,20.07-7.44v-11.17c-1.91-.7-3.92-2.14-4.74-1.64-28.27,17.22-60.63,23.91-91.34,34.52-14.02,4.85-23.8,15.71-36.95,20.15-14.04,4.75-25.26,15.93-41.02,16.78-3.12.17-5.95,5.53-8.92,8.48-7.32-.01-14.63-.01-23.25-.01,0-22.19-1.43-43.94.4-65.41,1.88-22.15,16.05-37.14,36.52-44.52,9.24-3.33,14.45-8.09,18.87-16.59,4.72-9.1,11.66-17.21,18.43-25.06,15.56-18.07,31.61-35.72,47.6-53.7,22.99-4.8,39.79,8.6,56.68,19.5,10.64,6.87,14.29,19.08,12.99,32.38-5.89,4.82-9.1,13.92-19.32,12.92-1.46-.14-4.15.43-4.35,1.19-5.78,21.52-26.53,23.03-41.91,31.7-1.41.79-2.4,2.32-4.25,4.17v18.19c4.42-.44,10.1.71,13.18-1.6,13.68-10.31,26.62-21.6,40.76-33.31,14.68,3.17,26.6-8.92,40.76-13.17,16.93-5.08,32.82-13.74,49.9-19.08,15.15-4.74,26.97-4.59,39.33,1.71,2.05,1.05,5.42.82,6.46,2.34,10.02,14.81,30.53,15.37,40.64,31.13v19c-5.72,3.86-11.58,7.8-19.45,13.11-2.45,0-7.46.45-12.36-.08-15.79-1.73-29.85,2.19-43.79,9.87-11.65,6.42-24.32,10.91-38.43,10.69-7.66-.12-16.62,1.14-22.77,5.16-9.39,6.15-18.42,4.32-29.73-.23Z"/><path class="cls-1" d="M2146.42,624.9c-9.6.01-18.46,2.41-24.3-8.23,0-7.77,1.1-17.09-.21-26.06-3.42-23.33,7.17-40.45,24.86-52.49,12.44-8.47,23.27-18.23,33.06-29.11,13.58-15.09,28.89-23.94,50.69-19.2,6.41-11.83,12.34-23.58,19.09-34.83,2.51-4.19,6.66-7.6,10.57-10.72,13.53-10.8,16.68-21.21,10.72-35.97-3.2-7.92-4.83-16.72-9.28-23.8-4.15-6.61-2.47-10.91-.55-17.57,2.9-10.05,2.14-21.16,2.99-32.53,1.7-1.7,4.08-4.08,6.61-6.61h26.2c9.15,17.61,9.3,36.42,3.85,55.55-5.28,18.55-2.75,32.55,10.44,50.38,10.24-2.34,22.74,5.16,31.7-6.75-1.94-11.04-12.65-6.77-19.9-11.14,7.15-17.98,26.53-25.95,34.59-43.28,7.2-15.48,23.8-26.52,21.69-46.15-8.19-16.49-26.77-16.38-39.84-25.08,15.43-16.39,32.34-7.31,47.9-2.71,7.91,2.33,14.13,10.26,21.24,15.48,16.97,12.48,19.68,31.3,15.03,48.53-3.16,11.69-10.73,24.96-24.76,30.73-4.05,1.67-7.21,5.51-14.67,11.46,7.21,1.93,11.59,3.1,15.98,4.27,6.21,7.15,18.01-.9,26.98,9.04,1.32,1.46,4.83.72,6.62,1.99,14.72,10.51,16.11,23.38.3,30.73-24.48,11.38-41.77,31.71-63.89,45.94-14.86,9.56-28.21,14.46-46.53,10.97.82-10.16,7.22-15.6,15.71-18.69,11.1-4.04,19.83-11.22,26.69-20.22,2.74-3.59,2.06-9.8,3.76-19.52-20.95,16.28-43.51,15.24-61.88,27.01-17.53,11.23-37.88,17.97-56.33,27.9-19.58,10.55-35.13,25.74-46.4,45.24-10.51,18.19-21.66,35.74-38.54,49.33-7.94,6.39-17.98,12.39-20.16,26.08ZM2223.79,508.31c1.45-.18,2.9-.36,4.35-.55-.65-2.73-1.3-5.47-1.96-8.2l-2.4.4v8.35Z"/><path class="cls-1" d="M2468.94,645.2c-3.15,0-6.3-.18-9.44.03-24.47,1.63-49.2,1.74-73.32,5.61-14.35,2.3-31.07,5.28-37.33,24.45,16.85,22.16,8.27,49.19,9.94,74.84.17,2.6-2.94,5.38-4.43,8.12-1.86,3.42-4.71,6.73-5.24,10.36-3.25,22.46-3.21,22.8-19.67,39.7-13.44-8.53-27.35-17.35-42.75-27.11-11.65,3.24-25.26,7.03-37.95,10.56-6.13-6.83-11.63-12.94-20.13-22.4v-43.6c11.8-17.89,21.86-37.2,35.8-53.13,14.5-16.56,32.75-29.84,48.46-43.76v-53.5c-12.36-2.57-20.22,3.61-28.53,10.5-5.88,4.88-12.77,10.18-21.35,8.76-5.24-.87-10.22-3.37-14.75-4.94v-43.15c3.84-3.48,8.17-7.4,13.5-12.24,11.88,0,25.3-.76,38.58.26,9.37.72,18.17-1.17,25.42-5.61,13.54-8.29,25.98-5.95,38.77.36,5.47,2.7,5.35,2.96,15.5,22-14.22,10.46-19.8,27.2-28.03,42.47-5.78,10.74-4.47,18.47,4.9,26.53,4.64-1.68,9.56-4.54,14.76-5.16,14.4-1.72,29.59,3.36,43.19-5.24,12.97,5.43,28.49,3.36,39.92,12.84,6.15,5.1,11.1,11.65,16.6,17.54-.81,1.63-1.63,3.26-2.44,4.9ZM2294.56,750.25c8.65,1.38,15.98,1.93,22.8-5.09,12.01-12.38,12.71-27,10.84-42.58-13.35-10-18.02-9.69-24.55,2.47-7.22,13.45-13.71,27.21-9.09,45.2Z"/><path class="cls-1" d="M1700.74,374.09q-17.1,25.26-15.14,43.78c24.47-5.98,45.34-19.8,67.29-31.19,15.95-8.28,31.26-17.81,46.97-26.55,8.4-4.68,16.68-10.34,29.19-5.38.26,3.43.67,8.91,1.15,15.4-10.9,10.39-22.15,21.01-20.93,38.67.28,4.1-2.41,9.66-5.56,12.53-14.92,13.56-25.55,32.6-47.29,37.72-3.71.87-6.96,3.69-10.67,4.55-10.02,2.32-20.21,3.91-30.26,6.1-4.55.99-9,4.06-13.4,3.88-27.12-1.12-49.11,9.02-65.69,30.01-11.83,14.99-22.74,30.75-33.32,46.66-6.11,9.2-10.71,18.83-10.65,31,.08,15.53-9.27,28.63-18.93,39.66-8.67,9.89-13.14,24.29-27.77,28.64-7.08,2.11-17.55-1.22-18.15-7.77-2.1-23.19-10.87-45.36-10.3-68.87.34-14.09,4.8-26.15,15.21-36.63,13.86-13.95,26.33-29.3,39.39-44.04-.42-17.89,14.45-26.27,25.51-34.23,11.06-7.96,17.9-16.73,22.3-28.68,1.07-2.91,1.78-6.23,3.67-8.51,3.74-4.5,7.47-10.4,12.48-12.21,16.73-6.06,19.77-29.43,39.84-30.58,6.46-8,14.51-4.83,25.05-3.96Z"/><path class="cls-1" d="M1839.86,346.13c9.15-5.6,16.46-10.07,23.77-14.55,12.92-7.94,26.33-14.15,42.02-14.11,7.95.02,15.77,1.25,23.45-4.46,3.78-2.81,12.77-2.69,16.98-.05,10.08,6.34,20.66,5.28,30.89,4.35,34.62-3.12,63.27,10.71,89.24,37.62,1.72,12.16,3.94,25.54,5.4,39,1.21,11.08-3.89,19.77-10.94,28.2-14.86,17.79-35.52,27.82-53.45,41.47-7.47,5.69-16.05,9.93-24.3,14.94-19.08-9.41-40.1-2.31-62.44-5.58,1.08-3.38,1.45-7.06,3.27-9.77,5.32-7.9-.62-13.53-3.33-19.72,7.92-18.75,21.54-31.67,40.72-40.77,5.37,3.3,12.55,5.9,17.04,10.91,6.42,7.18,13.8,3.39,22.4,5.59.26-4.96.47-8.88.69-13.01-7.67-3.92-13.8-7.19-16.09-18.1-2.95-14.05-18.91-18.33-30.41-24.9-10.18-5.81-20.14-11.42-34.15-6.08-10.25,3.91-23.2.81-34.95.75-10.51-.05-19.39,7.35-30.69,5.37-11.08-1.94-12.35-2-15.14-17.11Z"/><path class="cls-1" d="M2508.24,765.83h-12.04c-.38-2.54-.63-4.86-1.09-7.14-2.48-12.26-12.03-22.09-10.4-36.09,1.54-13.23.33-26.78.33-40.18,0-3.35.17-6.71-.03-10.05-1.05-17.18-.66-34.59,5.53-50.53,4.34-11.19,3.87-22.07,4.73-33.27.72-9.36,2.74-18.61,4.53-30.1,10.4,6.59,18.63,11.81,28.19,17.87,2.69-11.89,4.74-22.52,7.55-32.95,2.62-9.71,6.04-19.21,9.62-30.4-4.17-8.54-11.13-15.54-24.12-14.33v-11.11c14.08-9.56,27.92-18.56,41.31-28.17,10.93-7.84,10.79-7.99,22.56.92.66.5,1.09,1.41,1.8,1.73,6.45,2.86,16.5,4.47,13.72,13.63-2.64,8.71-1.57,19.42-9.77,26.03-6.21,5-12.96,9.32-19.18,14.3-18.43,14.78-20,38.17-11,59.25,4.9,11.47,15.94,19.63,16.74,33.37.36,6.13,3.21,12.12,4.74,17.5-2.78,2.91-4.38,4.81-6.21,6.48-12.74,11.63-14.75,11.02-25.33-3.61-5.22-7.21-11.99-13.29-17.95-19.77-12.2,3.34-15.42,13.62-16.7,22.08-3.16,20.87-4.55,42.09-5.25,63.21-.4,11.9-.88,23.6,3.9,35.95,4.02,10.4,2.71,24.15-6.18,35.38Z"/><path class="cls-1" d="M2062.74,207.48c-9.2,11.1-23.85,10.4-21.9,29.24-19.14-19.79-39.31-22.93-63.3-18.87-9,14.52-27.1,20.99-42.16,31.4-13.95,9.65-29.64,16.78-42.39,23.82-7.07-7.15-12.04-12.18-17.44-17.63,2.76-8.84,10.97-8.27,19.36-8.58,12.84-.47,13.89-2.24,14.49-18.51-2.91-1.05-5.81-2.11-8.82-3.21v-15.45c11.11-9.92,24.68-8.75,39.2-7.32v13.11h25.32v-12.28c-2.17-.76-5.09-1.77-8.01-2.79-4.55-8.51-.36-15.3,6.42-18.62,10.28-5.03,15.06,7.38,22.41,10.63,11.78-11.49,11.72-11.46,6.62-22.16-.99-2.08-.48-5.52-1.94-6.62-13.32-9.98-11.9-21.66-3.14-34.64-7.45-5.93-14.21-11.32-21.93-17.47-2.61-9.99,7.25-14.23,12.99-20.75,20.99,4.79,38.76,14.85,52.06,32,3.87,4.98,7.15,10.42,10.7,15.65,3.55,5.23,6.39,11.2,10.85,15.48,4.3,4.13,10.26,6.52,17.28,10.74-5.01,5.83-8.61,10.02-12.09,14.07,1.87,9.93,3.78,20.04,5.42,28.76Z"/><path class="cls-1" d="M2801.65,517.63c-8.51,8.59-17.36,18.32-33.3,16.34v-21.66c-4.99-4.53-9.32-8.45-14.14-12.83-13.59.07-39.2,8.47-52.12,16.72-5.19,3.31-11.44,8.08-16.72,7.53-16.72-1.73-31.71,5.83-48.34,6.16-2.26,12.14,2,24.9-5.74,35.71-6.85,9.56-14.82,17.99-15.92,31.37-.54,6.57-9.51,10.82-19.42,6.13,0-12.52-.62-25.8.17-38.99.88-14.83,9.96-26.06,20.87-34.51,10.03-7.77,19.35-17.04,30.21-23.05,11.99-6.63,19.63-17.04,27.88-23.71,6.72-16.22-9.27-17-16.34-25.91,17.27-6.82,29.54-2.22,41.23,7.36,6.18,5.07,10.66,11.44,18.7,15.36,8.22,4.01,14.94,5.46,22.67,2.38,15.22-6.05,29.95-4.57,44.11,2.52,12.11,6.06,19.65,15.39,16.2,33.08Z"/><path class="cls-1" d="M1602.88,327.65c-.43-7.45-.17-15.64-4.41-24.52-6.61-13.86-6.81-29.78-5.7-45.36.75-10.5.29-20.61-6.16-30.14-3.33-4.92-3.49-12-5.5-19.69h31.2v26.11c12.28,7.18,23.72,13.86,36,21.03.22,16.5-2.27,34.7,10.03,49.84-1.43,9.53,1.4,18.93-2.8,28.94-4.12,9.82-8.97,20.27-7.74,32.21.42,4.07-4.93,8.75-9.18,15.64-7.36-9.73-15.29-13.45-16.53-25.86-.9-8.98-11.15-17.02-19.2-28.21Z"/><path class="cls-1" d="M1804.35,245.55c1.19-14.35.25-27.81-10.87-37.56,4.26-8.16,7.83-15.01,11.79-22.61-8.03-9.93-17.07-19.25-23.77-30.03-4.77-7.68-6.37-17.33-10.08-28.14h26.71c9.61,12.55,23.67,22.55,41.41,24.71,1.14,12.82-2.09,24.34,5.05,34.86,1.94,2.86,2.02,9.5-.01,12.09-7.67,9.79-7.76,21.95-11.92,32.76-4.67,12.14-11.88,19.1-28.3,13.92Z"/><path class="cls-1" d="M2202.87,360.29v48.14h28.18c-15.14,21.11-30.44,38.89-28.15,63.45-19.19,1.75-16.47-.06-25.97-14.38-14.34-21.6-8.84-44.31-8.75-66.49.04-10.89,6.57-22.15,11.66-32.5,4.15-8.44,10.08-7.67,23.03,1.78Z"/><path class="cls-1" d="M1087.63,325.45c2.07-9.06,1.51-20.23,6.73-26.75,11.5-14.35,11.67-34.9,27.15-46.61h14.95c.88,1.18,2.34,2.3,2.65,3.68,4.39,19.82-11.85,31.77-18.59,47.31-3.08,7.1-8.52,13.53-14.08,19.07-3.6,3.59-9.35,5.03-14.14,7.43-1.56-1.37-3.11-2.75-4.67-4.12Z"/><path class="cls-1" d="M1828.85,273.38c1.78,15.47-1.23,22.5-10.72,29.54-11.1,8.24-19.53,20.09-28.15,29.34h-23.92c-4.38-8.41-1.47-14.45,5.23-19.19,10.89-7.71,21.89-15.25,32.87-22.83,7-4.83,14.04-9.6,24.68-16.86Z"/><path class="cls-1" d="M1174.47,160.21c0,7.8.4,14.54-.15,21.2-.31,3.78-2.43,7.37-3.32,11.14-2.44,10.39-12.19,15.05-17.6,22.96-4.62,6.77-7.26,14.89-11.95,24.91-5.67-5.42-10.87-8.14-11.83-11.93-.98-3.88,3.12-8.76,3.35-13.29.62-11.92,16.18-14.02,16.32-26.02.12-10.69,12.49-14.21,14.52-24.25.43-2.13,6.68-3.08,10.65-4.73Z"/><path class="cls-1" d="M537.85,425.71c5.88-9.01,11.39-17.45,17.95-27.49,3.37,0,7.32.22,11.24-.05,6.98-.48,10.66,3.9,12.47,9.4,2.02,6.17-.97,11.82-6.38,14.59-10.6,5.44-21.73,9.78-35.27,3.55Z"/><path class="cls-1" d="M902.74,508.58c1.37,1.17,2.75,2.34,4.12,3.51l-1.59,1.59c-1.17-1.37-2.34-2.75-3.51-4.12.33-.33.66-.66.98-.98Z"/></g></svg>