<?xml version="1.0" encoding="UTF-8"?><svg id="Layer_2" xmlns="http://www.w3.org/2000/svg" xmlns:xlink="http://www.w3.org/1999/xlink" viewBox="0 0 1148.41 188.02"><defs><style>.cls-1{fill:#5b5fa0;font-size:90px;}.cls-1,.cls-2{font-family:TimesNewRomanPS-BoldMT, 'Times New Roman';font-weight:700;}.cls-3{fill:#f8e3b2;}.cls-4{fill:#e7b000;}.cls-5{fill:#75106d;}.cls-2{fill:#171b61;filter:url(#outer-glow-1);font-size:55px;}</style><filter id="outer-glow-1" filterUnits="userSpaceOnUse"><feOffset dx="0" dy="0"/><feGaussianBlur result="blur" stdDeviation="5"/><feFlood flood-color="#f5f6f7" flood-opacity="1"/><feComposite in2="blur" operator="in"/><feComposite in="SourceGraphic"/></filter></defs><g id="_圖層_1"><text class="cls-2" transform="translate(249.37 154.91) scale(.99 1)"><tspan x="0" y="0">The Chinese University of Hong Kong</tspan></text><path class="cls-5" d="M108.41,139.63c1.56,0,8.79-2.58,11.61-4.06,15.12-7.99,28.33-18.8,36.94-33.75,6.91-12.02,7.34-26.84,8.47-40.3,1.46-17.41,1.32-34.84,1.05-52.31-.02-1.26-25.01-4.01-27.58-4.25-10.13-.95-23.7-1.58-30.48-1.58s-20.35.63-30.48,1.58c-2.57.24-27.56,2.99-27.58,4.25-.27,17.48-.41,34.9,1.05,52.31,1.13,13.47,1.57,28.29,8.47,40.3,8.6,14.95,21.81,25.77,36.94,33.75,2.82,1.48,10.04,4.06,11.61,4.06"/><path class="cls-4" d="M142.53,75.52c.06,0,.11.01.17.02-.06,0-.1-.02-.17-.03h0ZM139.25,77.61c.1.04.2.08.3.12-.09-.05-.19-.1-.3-.14v.02ZM158.78,45.74s.06-.87.1-.92c.64-.21,3.46-1.34,4-4.93.07-.55.1-1.17.04-1.84l-.16.14c-.56.53-2.26,2.14-3.2,1.93-.24-.05-.42-.22-.53-.51,0-3.57-.27-6.41-.65-10.08,1.02-.56,3.16-2.14,3.15-5.52,0-.45-.05-.93-.14-1.44l-.17.19c-.56.64-2.03,2.33-2.9,2.23-.21-.02-.37-.15-.49-.38l-.04-.48c-.71-7.58-2.27-11.32-5.37-12.92,0,0-.19-.07-.19-.09,0,.06.16.29.31.52.45.67,1.21,1.79,1.5,3.12.5,2.26.68,4.08.68,5.56,0,1.72-.24,3-.5,4.02-.41.75-1,1.22-1.74,1.39-1.71.41-3.66-1.48-4.31-3.02-.02-.05-.05-.1-.09-.1-.13,0-.37.41-.49.7-.56,2.02.13,4.57,1.5,5.55.5.36,1.31.66,2.28,0,.5-.34.87-.46,1.13-.39.14.04.24.14.3.33-.65,1.81-1.38,3.63-2.2,5.43-.46.42-.99.64-1.55.68-1.93.12-3.54-2.25-3.92-3.94-.02-.07-.04-.11-.08-.12-.14-.03-.47.36-.66.64-.97,2-.75,4.77.48,6.04.46.48,1.24.93,2.4.42.59-.27,1-.33,1.23-.21.11.06.18.16.2.34-.94,1.77-1.98,3.53-3.11,5.25-.42.28-.88.41-1.41.4-2.05,0-3.39-2.36-3.55-3.98,0-.07-.02-.11-.05-.12-.14-.04-.55.33-.8.61-1.27,1.9-1.45,4.53-.41,5.86.58.75,1.48.95,2.53.56.64-.23,1.03-.29,1.21-.16.07.05.11.12.1.25-1.09,1.48-2.26,2.94-3.49,4.36-.81.54-1.62.73-2.47.6-2.16-.33-3.5-3.43-3.5-5.5,0-.09-.02-.15-.07-.17-.17-.07-.66.32-.93.57-1.63,2.06-2.08,5.3-.98,7.08.41.66,1.2,1.39,2.67,1.09.77-.16,1.22-.14,1.36.06.09.12.06.29-.08.53,0,0-3.54,3.28-3.54,3.28-.88.56-2.23,1.12-3.65.6-2.38-.85-3.22-4.66-2.78-7.01.02-.11,0-.19-.04-.22-.19-.12-.83.21-1.19.45-2.29,1.99-3.5,5.6-2.64,7.86.33.85,1.07,1.85,2.8,1.83.96-.01,1.47.12,1.58.41.09.24-.12.56-.65.99-.48.27-1.03.63-1.48,1.18-1.05,1.28-1.53,2.32-1.65,3.6l-.1,1.3c-.07,1.01-.14,2.06-.36,3.06-.19.96-.49,1.81-.89,2.53-2.21,4.02-7.37,6.12-12.79,6.9v-7.54c6.6-.2,9.44-3.07,9.44-9.52,0-5.49-1.98-7.87-6.62-7.96-.93-.02-1.89.13-2.82.44v-4.2c3.31-1.5,7.04-3.19,10.95-4.18,8.97-2.28,16.19-7.24,18.7-12.53.35-.76.6-1.54.76-2.33-.48.31-6.47,4.11-10.95,5.07l-.61.1c-.61.12-1.23.24-1.56-.03-.16-.12-.23-.32-.23-.59,0-2.42,1.34-4.32,3.76-5.34l.24-.1c5.43-2.3,9.66-4.1,11.7-6.92.53-.75.92-1.56,1.12-2.48-.46.24-6.75,3.57-10.8,4.14l-.22.03c-.49.08-1.3.23-1.69-.19-.23-.24-.27-.64-.13-1.18.46-1.84,1.24-2.93,2.7-3.77,1.59-.91,3.3-1.68,4.96-2.41,2.81-1.25,5.31-2.37,6.57-3.86.07-.08.14-.16.2-.25.01-.02.03-.05.04-.07.23-.34.39-.7.48-1.09l-5.9,1.86-1.16.36c-1.68.53-3.43,1.08-3.99.53-.21-.21-.24-.54-.1-1.02.3-1.02.56-1.59,1.04-2.27,2.21-3.14,6.69-6.47,12.05-5.52.89.17,1.35.1,1.37,0,.02-.06-.14-.23-.84-.49-4.05-1.47-7.83-1.34-11.22.4-6.21,3.17-11.33,11.75-15.22,25.47-2.22,7.85-7.05,10.68-12.03,12.91v-17.51c1.81-.72,3.38-1.74,4.72-3.08,3.78-3.78,5.13-8.5,3.59-12.62-1.24-3.33-4.19-5.64-7.51-5.88-.28-.02-.54-.02-.8-.03v-2.53c-6.22,0-19.1.58-29.14,1.51-3.61.34-26.35,2.95-26.36,4.04-.1,5.93-.17,11.81-.17,17.68,0,10.92.26,21.75,1.17,32.62l.34,4.24c.92,11.9,1.88,24.2,7.78,34.5,7.47,13.05,19.37,23.96,35.35,32.44.99.52,5.58,2.88,9.41,3.71.02,0,.04,0,.06.01.17.04.34.06.5.09.37.06.73.12,1.07.14v-18.75c5.33.08,13.6.14,15.8-.62,2.11-.73,3.48-2.36,3.84-4.57.41-2.56-.63-5.44-2.46-6.83-.26-.19-.61-.22-.71-.1-.07.09-.03.18.1.41.2.36.53.95.53,2.16,0,1.11-.39,2.03-1.15,2.74-2.07,1.93-6.28,1.67-6.32,1.67l-4.86-.05h-4.72c.06-.01.11-.04.16-.05h-.17c2.74-.63,4.68-2.62,5.5-4.13,2.1-3.81.34-6.33-.22-7.06-.1-.11-.16-.17-.16-.17h.03s-.03-.04-.03-.05c.32,0,.64,0,.95-.03-.3.02-.59.04-.91.04,0,0,.01.01.04.04,1.24,0,2.36-.13,3.39-.37-.75.16-1.58.24-2.44.29,10.09-.58,12.23-9.69,13.39-14.66l.19-.81c.36-1.48,1.29-4.07,3.52-4.76,1.42-.45,2.36-.98,3.04-1.38l.82-.43s.28-.11.3-.12c1.27.04,1.25,1.11,1.22,1.82,0,.29-.02.57.08.63.05.03.15,0,.29-.09,1.1-.68,1.64-2.71,1.79-3.87,0-.08.01-.18.02-.25h0s0-.03.01-.05c1.38.49,1.51,1.31,1.58,1.74.01.12.03.23.07.24.04.02.16-.05.35-.21,1.01-.81,1.23-2.68,1.26-3.77,0,0,0-.03,0-.04h0s0-.03,0-.05c1.7.12,1.87,1.09,1.95,1.55.02.1.04.23.07.23.01,0,.07,0,.28-.22.88-.93.88-2.91.85-3.77,0-.04,0-.08-.01-.11h0v-.05c1.1.1,1.35.92,1.5,1.42.05.17.1.34.16.35.03,0,.1-.02.26-.22,1-1.29.95-3.23.79-3.95-.02-.06-.04-.12-.06-.16h.02s0-.04-.02-.06c1.13.07,1.38.8,1.53,1.23.05.14.1.28.15.28.04,0,.11-.03.29-.26.8-1.02.74-3,.52-4.05,1.48-1.75,2.41-3.25,2.67-4.34.2-.82.32-.93.43-.92.17.02.22.48.23.76-.23,2.65-.79,6.06-1.59,9.57,0,.02-.01.04-.02.06,0,.02-.01.05-.02.08-.11.49-.22.98-.33,1.48,0,0-.02-.01-.02-.02,0,.02,0,.04-.02.06-.49-.47-1.77-.62-2.04-.33-.14.14.02.35.16.5.54.57.84,1.63.88,2.61.02.14.02.28.03.41,0,0-.02-.01-.02-.01,0,.02,0,.04,0,.06-.6-.32-1.6-.39-1.8-.12-.1.14.04.34.18.48.64.66.86,2.05.75,3.08,0,.18-.02.34-.05.48,0,0-.01-.02-.03-.02,0,.02,0,.04,0,.06-.49-.48-1.76-.63-2.05-.34-.14.14.01.35.16.51.56.58.7,2.15.59,3.19-.01.18-.03.35-.05.49,0,0-.02-.01-.03-.02,0,.02,0,.04,0,.06-.57-.52-1.54-.8-1.76-.61-.1.09-.05.28.13.54.72,1.06.49,3.02.27,3.75-3.24,7.2-6.85,10.89-10.73,10.97-3.15.06-4.85-2.76-5.04-4.79-.28-2.93,2.51-4.88,4.2-5.57,1.22-.5,1.99.19,2.26.51.99,1.19.87,2.01.59,2.49-.37.63-1.21.95-1.77.84-.93-.17-1.68.18-1.99.95-.3.72-.1,1.54.47,1.94.93.65,2.14.7,3.41.13,1.6-.72,2.96-2.27,3.12-3.55.26-1.12-.17-3.37-1.04-4.29-1.98-2.69-4.48-3.49-6.67-2.13-3.91,2.42-6.11,5.18-6.34,7.98-.21,2.55,1.17,5.17,4.12,7.75,3.5,3.08,9.17,1.19,11.7-1.53,0,0,.3-.22.35-.22.66.25,3.76,1.18,6.53-1.53.34-.34.68-.74,1.01-1.2l-.26.02c-.83.09-3.03.32-3.56-.4-.14-.2-.16-.45-.03-.75,1.61-2.19,3.07-4.98,4.4-8.33.67-.04,3.71-.43,5.11-3.78.21-.52.38-1.1.5-1.76l-.23.12c-.78.44-2.85,1.61-3.51,1.1-.23-.17-.27-.51-.14-1,.78-2.69,1.48-5.68,2.13-8.93.95-.15,3.82-.92,4.7-4.64.1-.45.18-.94.21-1.48l-.22.14c-.72.49-2.62,1.78-3.48,1.42-.22-.09-.35-.28-.4-.58.43-2.87.81-5.99,1.15-9.31.44-.13,4.18-1.36,4.18-6.15,0-.16,0-.33-.02-.51-.06.05-.13.11-.13.11-.63.58-2.33,2.13-3.21,1.9-.22-.06-.37-.21-.46-.48l.38-7.7.05-1.2ZM108.35,11.11c2.97,1.05,4.59,3.49,4.34,6.59-.24,2.99-2.18,5.67-4.34,6v-12.59ZM108.35,60.12c.35-.04.73-.06,1.16-.06,2.92,0,4.22,1.38,4.22,4.46,0,2.21-.66,4.47-5.38,4.68v-9.08ZM122.27,84.05h0c-1.89,3.16-4.28,5.12-10.32,5.12,0,0-1.55,0-3.59,0v-3.31h3.23c4.94,0,8.31-.66,9.75-1.92.66-.58.86-.56.95-.49.17.12.02.53-.02.61M155.25,35.95l-.1,1.44c-1.35,20.74-7.78,28.22-13.9,32.81l-.22.17c-1.93,1.44-4.12,3.08-8.12,4.41l-.13.04c-.75.24-3.05.98-3.66,2.03-.59,1.01-.76,1.09-.87,1.04-.25-.14.23-1.52.4-1.84.44-.85,1.21-1.32,2.65-1.99,2.75-1.29,3.11-2.93,3.08-3.79-.04-1.22-.89-2.39-2.05-2.83-.89-.34-1.75-.16-2.3.47.24.11.88.38.98,1.4.14,1.56-.67,2.21-1.41,2.29-.88.1-1.88-.5-2.05-1.68-.32-2.19.84-3.6,1.58-4.09.9-.6,1.46-.79,2.12-1.02,0,0,1.14-.43,1.15-.43,1.83-.32,3.1.68,3.78,1.22.25.2.47.37.56.34l.09-.1c.26-.54-.11-2.67-.56-3.81l.04-.11h.06c1.67-.24,2.54.89,3.05,1.56.17.23.34.44.41.41.04-.02.07-.06.1-.13.22-.65-.37-2.99-.89-4.09-.02-.03-.03-.06-.05-.09t0,0s-.01-.04-.02-.05c1.71-.5,2.76.45,3.32.95.21.19.39.35.47.31l.08-.13c.16-.62-.6-2.8-1.24-3.88,0,0,.32-.35.34-.36,1.63-.64,2.69.02,3.32.41.24.15.43.26.52.22l.08-.14c.14-.62-.66-2.61-1.31-3.55,0,0,.32-.4.34-.41,1.31-.44,2.33-.11,2.94.08.25.08.45.15.53.1.04-.02.07-.07.08-.15.08-.58-.7-2.37-1.28-3.02,0,0,.28-.39.3-.41,1.22-.43,2.16-.12,2.72.07l.48.1s.07-.11.07-.23c.01-.71-.75-2.47-1.2-2.9,0,0,0,0-.02-.01h0s-.02-.03-.03-.04c1.18-.98,2.29-.92,2.89-.89l.45-.03s.04-.07.03-.13c-.02-.47-.88-1.72-1.47-2.19,1.41-2.64,2.42-5.1,2.98-7.33.71-2.81.83-2.79.93-2.78.16.03.14.59-.02,2.78M139.02,59.57c.08-.02.16-.04.24-.06-.08.02-.16.02-.24.04,0,0,0,0,0,.01M149.54,46.53c.16-.13.32-.24.48-.33-.16.09-.33.19-.5.32,0,0,.01.01.02.02M149.97,81.39c.06.04.12.09.17.15,0,0,0-.02,0-.03-.05-.04-.11-.08-.17-.12M142.25,23.95s-.16.09-.42.22c.21-.1.35-.16.41-.19,0,0,0-.02,0-.03M144.35,15.33s0-.01,0-.02c0,0-.06.02-.17.06.07-.02.13-.03.16-.04M138.77,34.26s-.17.11-.44.28c.22-.12.36-.21.43-.24,0-.01,0-.03,0-.04M109.91,112.47c-.47.2-.97.37-1.51.47h.18c.47-.12.91-.29,1.33-.47M148.75,70.6c-.13-.05-.26-.09-.43-.11,0,0,0,.02.01.03.16.02.29.04.42.08M148.58,85.26c.06.05.13.11.18.17,0-.01,0-.02,0-.03-.06-.04-.12-.09-.18-.14M150.89,77.47c.07.03.13.07.19.11,0,0,0-.02,0-.03-.06-.03-.12-.06-.19-.08M151.93,74.2c.06.04.12.09.16.14,0,0,0-.02,0-.03-.05-.04-.11-.08-.17-.12M145.66,73.12s0,0,0,.01c.07.01.14.02.2.03-.06-.02-.13-.04-.2-.05"/><path class="cls-5" d="M106.54,23.2c-.55-.55-.49-3.05-.49-3.08,0-3.22-2.7-4.36-5-4.36-2.46,0-5.01,1.3-5.01,3.47l.02,8.2c0,.43-.15.79-.42,1.02-.24.21-.58.32-.95.32-.76,0-1.54-.47-1.54-1.26v-4.41c0-5.02-5.61-5.77-8.96-5.77-4.79,0-9.88,2.14-9.88,6.11v2.2s0,18.07,0,18.07c.03,1.08-.66,1.87-1.27,2.21-.52.3-1.07.33-1.45.09-.33-.22-.71-.73-.6-1.98.02-.16-.06-.29-.19-.32-.17-.04-.43.09-.63.59-.58,1.5-.54,2.88.1,4.11.83,1.58,2.47,2.48,3.37,2.69l-.04,2.81h-.03c-3.18-.06-7.03-1.28-7.03-7.08v-27.93c0-4.26-1.77-5.71-3.25-6.17-2.73-.85-6.31,1-7.81,3.19-1.58,2.29-1.12,4.37-.16,5.56,1.08,1.33,2.9,1.77,4.51,1.1.04-.01.33-.21.31-.4-.01-.12-.13-.2-.36-.23-1.09-.17-1.75-.91-1.75-1.97,0-1.16,1.02-2.15,2.24-2.15s2.18.97,2.18,2.15v4.09l.02,24.01c-3.25-.05-4.13,2.59-4.13,4.16,0,2.46,1.72,3.38,1.79,3.42.07.04.24.03.35-.07.08-.08.15-.24,0-.53-.41-.81-.42-1.52-.04-2.05.49-.68,1.54-.93,2.32-.82.49.07.83.27.94.55,1.2,3.38,4.29,5.09,9.48,5.25.11,0,.3.11.49.3l-.02,1.54c-1.59.68-5.13,3-4.98,9.67.11,5.1,1.12,12.2,2.08,12.91.08.06.17.08.25.06,4.32-1.2,10.72-1.28,13.97.65.45.27.69.58.66.88-.02.17-.12.3-.27.36-.16.06-.33.01-.47-.13-1.42-1.41-5.42-1.58-6.61-1.6-4.48-.07-13.68,1.31-16.4,7.06-1.55,3.29,1.59,9.93,3.28,12.04.1.14.33.13.5.06.13-.06.2-.15.18-.26-.66-3.29.64-6.54,3.67-9.14,3.68-3.16,9.04-4.61,12.49-3.36.46.17.76.45.81.77.02.15-.02.28-.11.35-.08.07-.2.07-.33.02-4.48-1.94-9.07,1.01-9.11,1.04,1.94,11.64,16.11,11.35,26.46,11.14l3.54-.05s3.96,3.93,3.42,7.22c-.21,1.32-1.12,2.37-2.7,3.14-1.58.77-7.89.37-8.55-.15-.35-.29-.49-1.11-.36-2.12.21-1.56,1.14-3.68,3.1-4.53.21-.06.32-.15.29-.26-.05-.25-.71-.42-1.15-.37-3.6.45-6.2,2.27-7.12,4.99-.2.6-.29.89-.3,1.54-.1,1.14-.37,1.17-1.87,1.33l-.81.09c-2.85.35-4.47,1.71-4.81,4.03-.27,1.84.3,3.7,1.56,5.11,1.05,1.17,2.41,1.8,3.72,1.75.07,0,.2-.08.23-.2.03-.11,0-.28-.34-.47-1.6-.92-2.02-2.42-1.73-3.5.32-1.18,1.46-1.91,2.96-1.89.03,0,.64-.01.66.46v.45s.1,1.3.1,1.3c.61,3.51,3.29,6.59,6.53,7.47.12.03.37-.06.43-.23.05-.14,0-.35-.55-.58-1.71-1.27-2.33-3.78-2.35-5.71,0-1.28.26-2.35.66-2.65.72-.56,3.37-.91,4.68.41,1.3,1.29,1.89,2.48,1.65,3.35-.15.57-.67.99-1.51,1.21-.1.02-.16.2-.13.34.01.07.08.28.4.23,3.46-.51,4.66-3.23,4.64-5.4,0-.02-.04-.13.03-.22.07-.09.22-.14.43-.14l2.55.03c.43,0,.9.01,1.38.02v-29.24l-9.72-.02c-2.25,0-3.11.99-3.17,1.9-.07,1.21,1.2,2.67,3.71,2.98.15.02.55.26.54.41,0,.04-.05.16-.59.17-1.66.02-5.13.08-6.39-1.97-.77-1.25-.82-2.86-.13-4.1.89-1.6,2.91-2.48,5.67-2.48h10.07v-3.9c-5.05.74-10.34.33-13.67-.75-6.27-2.04-11.5-7.77-9.36-14.76.3-.97.98-1.98,2.08-3.08,1.37-1.36,2.73-1.4,3.18-1.41.19.03.31,0,.36-.1.11-.22-.28-.64-.29-.66-2.17-2.58-11.24-3.36-13.04-2.59-.05.02-.1-.06-.13-.12-.74-1.33-1-9.89,2.23-12.14,1.35-.94,2.77-1.28,3.79-.92.83.29,1.42,1.02,1.76,2.16.39,1.34,0,2.9-.89,3.48-.66.44-1.49.29-2.35-.42-.24-.2-.34-.48-.43-.74l-.11-.28c-.09-.19-.25-.4-.4-.38-.05,0-.12.03-.16.14-.12,2.73.96,4.71,2.97,5.44,3.48,1.27,7.27-.06,9.66-3.39,2.21-3.11,3.14-8.33.97-10.17-.15-.12-.27-.17-.35-.11-.19.11-.1.59-.08.69.02,2.91-1.87,5-3.71,5.34-1.57.29-2.9-.68-3.64-2.66,0,0,.06-.43.54-.39,1.59.14,2.75-.44,3.33-1.68.73-1.55.12-3.72-1.41-5.04-.06-.02-.37-.11-.5,0-.03.03-.07.07-.06.16.23,1.9-.28,3.11-1.38,3.33-1.01.2-2.22-.54-2.49-1.51-.29-1.04.56-2,2.32-2.64.09-.04.12-.09.13-.13.04-.15-.12-.32-.14-.34-2.32-.77-4.78.06-5.64,1.88-.56,1.21-.04,3.36,1.29,3.98,0,0,.05.08-.04.2-.26.37-1.48.84-2.61.49-.82-.26-1.8-1.04-1.8-3.26v-13.39c0-1.37,1.51-2.11,3-2.23,1.48-.12,3.17.35,3.39,1.66.28,1.68.05,2.11-.48,2.37-1.03.48-1.93-.31-1.94-.31-.01.01-.01.03-.02.05,0,0-.01-.01-.01-.01-.01.02,0,.04-.02.07-.16.32-.14.65.03.97.38.7,1.36,1.28,2.51,1.48,1.13.19,1.99.06,2.54-.4.43-.36.65-.92.65-1.62v-2.17c0-1.01.55-1.5,1.07-1.52.46-.02.96.32,1.04,1.12l.03,2.88-.03,4.75c0,3.43,2.67,4.99,5.15,4.99s5.01-1.6,5.01-4.65v-7.05c0-1.3.53-2.13,1.42-2.22.89-.09,2.01.67,2.28,2.03.3,1.56.18,1.79-.24,2.6l-.24.46-.17.35c-.4.81-.58,1.19-.45,1.37.1.14.37.14.89.08,1.7-.21,3.23-.59,4.62-1.15v-6.62s-.06.01-.09.02c-.61.09-1.25.13-1.78-.4M80.29,66.49c0,2.06-1.76,3.74-3.93,3.74s-3.92-1.68-3.92-3.74,1.76-3.72,3.92-3.72,3.93,1.67,3.93,3.72M82.35,27.86h0s.01,0,.01.01c0,0,0,0-.01-.01M73.86,66.49c0,1.32,1.12,2.39,2.5,2.39s2.52-1.07,2.52-2.39-1.13-2.38-2.52-2.38-2.5,1.07-2.5,2.38M100.41,11.53c-.39.51-.71,1.09-.55,1.24.09.08.25,0,.51-.21,2.18-1.87,4.77-2.36,7.67-1.45.12.04.23.1.36.14v-2.86c-5.08-.12-7.39,2.35-7.99,3.14M96,55.36c-1.08,1.43-1.62,4.8-1.62,10,0,8.24,6.36,9.38,13.24,9.38.27,0,.53-.01.79-.02v-5.62c-.25.01-.51.02-.79.02-5.82,0-8.02-.44-8.02-5.11,0-5.53,2.53-7.77,6.32-9.42l2.43-1.09s.04-.02.06-.03v-5.99c-.63.28-1.26.56-1.88.83-3.8,1.65-7.73,3.35-10.52,7.06M68.6,79.87h.06s.09-.06.09-.06l-.93-6.24c0-.33,0-.57-.15-.69-.17-.12-.5-.09-1.13.1-8.83,2.89-8.86,6.23-8.13,12.36.05.4.61,1.13.81,1.13h.05l.05-.08c.11-.54.44-1.29.58-1.55,2.58-4.55,6.95-4.99,8.7-4.96M68.65,79.82h-.32c.15,0,.26,0,.32,0M103.53,63.44c-.09.37.07.77.34.88.11.04.39.08.66-.42,0,0,.26-.61.26-.61.6-1.49,1.12-2.79,3.62-3.07v-2.78c-2.4.79-4.51,2.73-4.88,6"/><path class="cls-3" d="M215.38,151.19c-.42-5.23-4.86-8.89-25.81-4.03-.08-2.39-.18-4.52-.22-5.54-.18-4.03-4.46-6.24-13.15-5.96-4.28.14-6.56.31-8.17.54-5.83-4.51-7.57-11.68-7.24-18.1l8.43-9.73c2.25-1.74-5.28-9.41-12.59-7.25l-14.32,18.87c.22-.19.45-.35.67-.5-3.47,4.41-3.22,12.8,1.77,21.13-11.8,1.95-25.22,3.84-34.76,3.84-.55,0-1.11,0-1.68-.02-.57.01-1.14.02-1.69.02-9.54,0-22.96-1.89-34.76-3.84,4.99-8.33,5.25-16.72,1.77-21.13.23.16.45.32.67.5l-14.32-18.87c-7.31-2.16-14.83,5.51-12.59,7.25l8.43,9.73c.33,6.43-1.41,13.59-7.24,18.1-1.61-.23-3.89-.39-8.16-.54-8.68-.28-12.97,1.93-13.15,5.96-.05,1.03-.14,3.15-.22,5.54-20.95-4.86-25.39-1.2-25.81,4.03-.34,4.28-.49,12.65,0,15.73.49,3.09,5.1,5.37,10.06,6.22,11.46,1.96,33.24-.56,49.98-15.38,10.55,2.46,23.4,5.55,45.34,5.55.58,0,1.12-.01,1.69-.02.56,0,1.11.02,1.68.02,21.95,0,34.8-3.1,45.35-5.55,16.73,14.82,38.51,17.34,49.98,15.38,4.96-.85,9.57-3.13,10.06-6.22.49-3.09.33-11.45,0-15.73"/><path class="cls-5" d="M48.37,143.67c-.41.99-1.56,7.35-1.69,8.71.34,0,.87.08.92-.03,1.24-2.92,1.86-5.99,2.12-9.15-.52,0-1.11-.14-1.35.47M54.3,143.7c.36,1.43-.06,8.62,1.03,10.69.26.44.87-.1.94-.48.48-3.47.07-6.72-.61-10.18-.02-.1-.85-.03-1.35-.03M56.29,141.55c.08-.02.15-.7-.03-.84-2.41-2.07-5.34-1.01-8.06-.99-.71.02-.46.88-.5,1.43.34,0,.68.03,1.02,0,2.62-.35,4.99.97,7.58.4M216.3,151.12c-.18-2.28-1.06-3.96-2.67-5.14-3.64-2.64-11.04-2.6-23.19.13-.05-1.24-.11-2.59-.17-4.09l-.02-.45c-.14-3.28-2.7-7.12-14.02-6.76-3.97.13-6.25.29-7.87.49-3.01-2.42-4.69-5.45-5.59-8.2-.92-2.81-1.23-5.82-1.11-8.69l8.22-9.48c.42-.37,1.09-1.29.2-3.04-1.5-2.92-7.5-7.41-13.64-5.59-.17.05-.33.15-.43.3l-14.33,18.86c-.16.21-.19.48-.13.72-.47.8-.85,1.68-1.13,2.66-.41,1.42-.6,2.92-.6,4.49,0,4,1.29,8.38,3.65,12.63-11.52,1.88-24.27,3.63-33.47,3.63-.54,0-1.12-.02-1.69-.03-.57,0-1.14.03-1.69.03-9.2,0-21.96-1.75-33.47-3.63,2.36-4.25,3.66-8.63,3.66-12.63,0-1.57-.2-3.07-.6-4.49-.28-.98-.66-1.86-1.13-2.66.06-.24.03-.51-.13-.72l-14.34-18.86c-.11-.14-.26-.25-.43-.3-6.14-1.82-12.15,2.68-13.64,5.59-.9,1.74-.22,2.67.2,3.04l8.22,9.48c.11,2.87-.19,5.87-1.12,8.69-.9,2.75-2.58,5.78-5.59,8.2-1.61-.2-3.89-.36-7.87-.49-11.32-.37-13.87,3.47-14.02,6.76l-.02.45c-.07,1.5-.12,2.86-.17,4.09-12.16-2.73-19.56-2.77-23.2-.13-1.61,1.18-2.48,2.86-2.66,5.14-.34,4.22-.51,12.72,0,15.93.61,3.85,6.17,6.13,10.75,6.92,9.79,1.68,32.37.46,50.39-15.29.06.02.12.03.18.05,10.39,2.42,23.33,5.43,44.98,5.43.57,0,1.12-.01,1.69-.02.56,0,1.11.02,1.69.02,21.65,0,34.58-3.01,44.97-5.43.07-.01.12-.03.19-.05,18.02,15.75,40.61,16.97,50.39,15.29,4.58-.79,10.15-3.06,10.76-6.92.51-3.21.34-11.72,0-15.93M176.29,136.5c5.49-.18,12.08.57,12.29,5.15l.02.45c.28,6.26.37,10.02.37,12.26,0,.86-.02,1.45-.04,1.93-1.49-1.11-3.42-1.41-5.75-1.74-7.27-1.02-13.12-.58-19.08.5l-.1-.59c.21-.47-1.18-7.54-.97-7.86.52-.76,2.95.05,2.91-1.45-.03-1.31-2.11-.71-3.1-.81-.37-.03-.36-.1-.42-.42-.11-.57-.67-3.27-1.14-3.71-.41-.41-1.06-.03-1.19.48-.24.84,1.11,4.15.58,4.17-1.35.06-2.74,1.23-2.83.92-.24-.66-.26-1.68-.74-2.35-.64-.91-2.9-.28-2.93-.7-.05-1,.64-.91,1.05-1.14.27-.14.56-.34.61-.68.08-.41.09-.99-.15-1.33.75-.14,1.5-.27,2.22-.39l1.46-.26c2.94-.52,4.52-.93,5.79-1.25,2.33-.61,3.61-.94,11.15-1.18M188.29,159.96c-.92,1.02-3.67.82-6.1.64-2.41-.18-4.7-.34-6.07.52-.02-.38-.03-.78-.01-1.2.06-2.23.57-3.78,1.05-4.24,1.84.07,3.75.24,5.77.52,2.94.41,4.56.71,5.68,2.04.1.78,0,1.35-.33,1.71M155.58,145.95c.37.05.64.11.64.5.01.46-.68.54-.79.58-.16.06-.6.05-.66-.13-.23-.61.16-1.06.81-.96M154.29,144.64c-.18-.23-.11-.7-.02-.73.1-.03.66-.36.91-.18.16.13.33.39.25.6-.16.37-.86.66-1.14.31M155.47,148.01c.12-.4,1.88.16,2.03-1.09.03-.26.35.23.9.45.53.23,2.07-.57,3.03-.42.06.02,1.39,7.21,1.12,8.28l-3.01.5c-.1-3.61-1.75-7.27-2.61-7.29-.79-.02-1.67.35-1.47-.44M153.28,140.32s-.04-.13-.05-.3c.39-.07.78-.14,1.17-.21-.03.17-.05.34-.21.45-.3.21-.74.01-.91.06M157.14,101.88c5.11-1.35,10.22,2.41,11.44,4.79.17.32.25.61.25.8,0,.11-.02.18-.08.22-.04.03-.08.07-.12.11,0,0-11.73,13.53-12.95,14.93-2.3-3.14-4.88-5.06-7.54-5.45-.97-.14-1.93-.06-2.87.19,3.17-4.17,11.53-15.17,11.86-15.6M141.53,127.18c0-1.42.17-2.73.5-3.88.36-1.27.91-2.35,1.62-3.25,1.39-.93,2.82-1.31,4.27-1.09,2.42.35,4.86,2.28,7.04,5.57.15.22.38.36.65.37.26.02.52-.09.69-.29l3.69-4.25c.07,2.43.42,4.9,1.2,7.27.88,2.68,2.41,5.59,5.03,8.06-.49.11-.96.23-1.49.37-1.24.32-2.78.72-5.65,1.23l-1.46.26c-1.67.29-3.45.61-5.31.93-.28-.01-.63.03-1.12.19h0c-1.91.33-3.89.67-5.92,1.01-2.58-4.48-3.73-8.88-3.73-12.49M151.65,144.57l.19-.13c.23-.06.53-.37.77-.11.26.27.24.76.03.99-.27.31-.96.14-1.16-.16-.13-.21.1-.44.16-.58M150.83,141.27c-.09-.04-.06-.71-.29-.79.41-.07.81-.14,1.21-.21.06.35.09.69-.07.91-.16.24-.6.24-.86.1M151.8,146.65c.28-.19,1-.26,1.14.1.08.16.21.4.08.57-.16.2-.71.37-.97.31-.06-.02-.98-.47-.25-.98M121.58,149.08c.39.15.95.15,1.19-.15.39-.45-.21-1.68.47-1.73,2.01-.16,2.88.94,3.42,1.62.14.18-2.87,2.65-3.76,4.09-1.01-.73-2.73-1.04-4.03-1.46,0,0-.21-.83.42-1.54.79.79,1.72,1.77,3.09,1.77,1.41-.02,3.24-2.7,2.6-3.16-1-.71-1.7,2.68-3.52,1.49-.64-.43-1.68-1.76-.49-1.95.42-.08.19.84.62,1.03M89.2,143.99c1.95.23,3.87.45,5.74.63-1.31,1.34.4,4.34-1.59,5.44-.32-.78-.97-.62-1.52-.48-.77.19-.68,1.19-.42,1.47.76.78,2.98.5,2.39,2.26-.42,1.23-1.26,2.38-2.39,1.5-2.26-1.76-2.18-4.75-1.39-7.56.08-.26,0-1.49-.68-2.16-.24-.25-.3-.84-.15-1.1M87.76,145.71c.34.36.76.67.98,1.11.54,1.07-.47,1.52-.98,2.16-.46-.66-1.1-1.33-.92-2.16.1-.43.58-.74.92-1.11M47.98,107.81s-.08-.08-.12-.11c-.05-.04-.08-.12-.08-.22,0-.2.09-.49.25-.8,1.22-2.38,6.33-6.14,11.44-4.79.33.43,8.69,11.43,11.86,15.6-.94-.25-1.9-.33-2.87-.19-2.65.39-5.23,2.31-7.54,5.45-1.22-1.4-12.95-14.93-12.95-14.93M55.45,127.63c.77-2.37,1.13-4.84,1.2-7.27l3.69,4.25c.17.2.42.3.69.29.26-.02.5-.15.64-.37,2.19-3.29,4.63-5.22,7.05-5.57,1.44-.21,2.87.16,4.27,1.09.71.9,1.26,1.99,1.62,3.25.33,1.14.5,2.45.5,3.88,0,3.62-1.14,8.01-3.73,12.49-4.43-.73-8.65-1.48-12.34-2.13l-1.46-.26c-2.88-.5-4.42-.91-5.66-1.23-.52-.13-.99-.26-1.48-.37,2.61-2.47,4.15-5.38,5.03-8.06M1.99,151.25c.14-1.79.77-3.04,1.98-3.92,3.16-2.3,10.62-2.13,22.15.48-.17,4.87-.17,7.51-.06,8.97.11,1.73.35,3.59,1.02,4.29,1.52,1.59,4.52,1.41,7.47,1.19,2.11-.15,4.51-.33,5.24.4.12.12.27.33.23.86-.06.81-.34,1.37-.9,1.75-2.36,1.67-8.97-.13-14.28-1.58-2.38-.65-4.63-1.26-6.47-1.58-6.02-1.04-12.71-1.93-16.03.68-.23.18-.41.38-.6.59-.12-3.79.02-9.09.27-12.15M28,158.25c1.11-1.34,2.74-1.63,5.68-2.04,2.02-.29,3.94-.45,5.78-.52.48.46.99,2.02,1.05,4.24.01.42,0,.81-.02,1.2-1.37-.85-3.66-.69-6.07-.52-2.42.18-5.17.38-6.1-.64-.33-.37-.42-.93-.32-1.71M11.36,172.32c-5.08-.87-8.9-3.1-9.36-5.44.1-1.2.54-2.1,1.36-2.75,2.65-2.08,8.63-1.39,14.71-.34,1.76.3,3.97.91,6.31,1.54,6.23,1.7,12.68,3.45,15.7,1.33.07-.06.13-.12.2-.18.02-.02.04-.02.06-.03,1.46-1.03,1.91-4.07,1.84-6.57-.02-.95-.17-2.83-.8-4.23,6.29,0,11.81,1.12,18.05,2.56-17.38,14.58-38.74,15.71-48.08,14.11M85.44,161.36c-9.71-1.09-17.05-2.79-23.41-4.28-3.43-.8-6.6-1.54-9.75-2.09-.04-3.83.93-7.94.33-11.77-.01-.08-.85-.01-1.35-.01.2,3.7-1.08,7.71-.83,11.48-5.25-.81-10.56-1.05-16.97-.14-2.33.33-4.26.63-5.75,1.74-.02-.47-.04-1.06-.04-1.93,0-2.24.09-6,.37-12.26l.02-.45c.2-4.58,6.79-5.33,12.29-5.15,7.53.24,8.81.57,11.14,1.18,1.26.33,2.82.73,5.71,1.24.16.09.33.18.48.25,1.37.48,2.48,3.23,2.51,5.04.1,3.71-1.82,7.54-.21,11.2.06.13.6.04.93.04-.82-4.73,2.69-9.85.08-14.36-.18-.33-.1-1.22.27-1.45,7.61,1.34,16.91,2.93,25.84,4.09-.52.56-1.54,1.91-1.76,2.56-.7,2.02,1.05,4.01-.45,6.1-.66.92.73,2.33.55,3.04-.37,1.5-3.16,2.71-1.97,4.19.96,1.18,1.48-1.99,2.16-1.66,1.07.54.3,2.82-.17,3.4M87.34,151.39c.6-.22,1.08,1.19,1.31,1.99.14.48-.44,1.52-.84,1.39-1.55-.45-2.14-2.75-.46-3.38M120.61,162.13s.03.05.04.08c-3.31.17-6.84.27-10.66.27-.58,0-1.12-.01-1.69-.01-.56,0-1.11.01-1.69.01-7.25,0-13.5-.35-19.01-.89-.18-.48-.48-2.12.16-2.18.82-.06,1.9,1.02,2.36.33,1.03-1.62-1.05-2.8-2.37-3.68.34-.37.83-1.02.95-.95,2.22,1.37,6.08,1.8,6.48-1.26.37-2.87,2.15-6.04.58-8.96,0-.08-.02-.13-.04-.19,3.93.36,7.63.58,10.89.58.54,0,1.12-.01,1.69-.03.56.01,1.14.03,1.69.03,3.25,0,6.94-.22,10.85-.58l.03.24c0,.36.56,1.45-.93,1.6-3.28.31-4.32,8.25-2.56,8.31,1.21.05.61-1.29.88-1.9.13-.28,2.72.59,3.68,1.39-.87,1.58-1.19,3.43-1.32,5.27-.03.68.03,2.33-.02,2.52M122.08,162.13v-.38c.23-1.82.43-4.62,1-5.61.71-1.23,1.77.99,1.86,1.28.36,1.05,1.23,3.72,1.27,4.42-1.33.11-2.71.21-4.13.29M154.59,157.08c-7.11,1.66-15.43,3.6-26.96,4.64.11-.13.16-.28.1-.44,0,0-.6-4.99-3.45-7.47.9-1.04,2.6-3.25,3.29-3.17.4.04.08,2.02.45,2.3.22.18,1.38.2,1.41-.12.21-2.11-1.03-7.67-6.48-7.08l.13-.98v-.28c8.56-.89,17.96-2.37,26.21-3.79-.24.11-.42.27-.4.54.03,1.1,1.21,1.59,2.11,1.43.26-.05.22.58.02.82-.35.37-1.58.6-1.48,2.04.29,4.83,3.57,2.48,3.77,2.98.35.96-2.01.44-2.01,1.31.02,1.23,2.82-.08,2.89.2.42,1.36-3.25.47-3.22,1.78.03,1.36,3.7-.07,3.75.21.32,1.34-2.09.44-2.04,1.75.03.56.91.49,1.38.36,1-.29,2-.61,2.8-1.29.35.36.5.83.68,1.28.23.61.1,1.28.23,2.03-.02.09,0,.16.02.23-1.05.24-2.11.48-3.2.74M205.27,172.32c-9.34,1.6-30.7.47-48.08-14.11,6.24-1.44,11.76-2.57,18.05-2.56-.63,1.41-.77,3.28-.8,4.23-.07,2.5.38,5.54,1.84,6.57.02.01.04.01.06.03.07.06.13.12.2.18,3.01,2.12,9.46.37,15.69-1.33,2.35-.64,4.56-1.24,6.31-1.54,6.08-1.05,12.06-1.74,14.7.34.83.65,1.27,1.55,1.37,2.75-.46,2.34-4.27,4.57-9.36,5.44M214.9,163.4c-.19-.21-.38-.41-.6-.59-3.32-2.61-10.02-1.72-16.03-.68-1.83.32-4.08.93-6.47,1.58-5.31,1.45-11.92,3.24-14.29,1.58-.55-.38-.84-.94-.89-1.75-.04-.53.11-.75.22-.86.72-.72,3.12-.55,5.24-.4,2.94.22,5.95.4,7.46-1.19.67-.7.92-2.56,1.02-4.29.11-1.46.11-4.11-.06-8.97,11.53-2.62,18.98-2.78,22.15-.48,1.21.88,1.83,2.12,1.98,3.92.24,3.06.39,8.35.27,12.15"/><text class="cls-1" transform="translate(256.8 74.79)"><tspan x="0" y="0">School of Life Sciences</tspan></text></g></svg>