<svg width="44" height="38" viewBox="0 0 44 38" fill="none" xmlns="http://www.w3.org/2000/svg">
<g filter="url(#filter0_d_50_726)">
<path d="M31.5 6H22.5L18 0L7.5 3.5V10.5L4 24.5L9.5 29.5H31.5L40 24.5V8.5L31.5 6Z" fill="white"/>
</g>
<path d="M10.9 4.5H17.9C18.2713 4.5 18.6274 4.64487 18.8899 4.90273C19.1525 5.16059 19.3 5.51033 19.3 5.875V25.125C19.3 25.4897 19.1525 25.8394 18.8899 26.0973C18.6274 26.3551 18.2713 26.5 17.9 26.5H10.9C10.5287 26.5 10.1726 26.3551 9.91005 26.0973C9.6475 25.8394 9.5 25.4897 9.5 25.125V5.875C9.5 5.51033 9.6475 5.16059 9.91005 4.90273C10.1726 4.64487 10.5287 4.5 10.9 4.5ZM10.9 19.625V22.375H13.7V19.625H10.9ZM23.5 8.625H34.7C35.4426 8.625 36.1548 8.91473 36.6799 9.43046C37.205 9.94618 37.5 10.6457 37.5 11.375V19.625C37.5 20.3543 37.205 21.0538 36.6799 21.5695C36.1548 22.0853 35.4426 22.375 34.7 22.375H23.5C22.7574 22.375 22.0452 22.0853 21.5201 21.5695C20.995 21.0538 20.7 20.3543 20.7 19.625V11.375C20.7 10.6457 20.995 9.94618 21.5201 9.43046C22.0452 8.91473 22.7574 8.625 23.5 8.625ZM26.3 23.75H31.9C32.2713 23.75 32.6274 23.8949 32.8899 24.1527C33.1525 24.4106 33.3 24.7603 33.3 25.125C33.3 25.4897 33.1525 25.8394 32.8899 26.0973C32.6274 26.3551 32.2713 26.5 31.9 26.5H26.3C25.9287 26.5 25.5726 26.3551 25.3101 26.0973C25.0475 25.8394 24.9 25.4897 24.9 25.125C24.9 24.7603 25.0475 24.4106 25.3101 24.1527C25.5726 23.8949 25.9287 23.75 26.3 23.75Z" fill="#768748"/>
<defs>
<filter id="filter0_d_50_726" x="0" y="0" width="44" height="37.5" filterUnits="userSpaceOnUse" color-interpolation-filters="sRGB">
<feFlood flood-opacity="0" result="BackgroundImageFix"/>
<feColorMatrix in="SourceAlpha" type="matrix" values="0 0 0 0 0 0 0 0 0 0 0 0 0 0 0 0 0 0 127 0" result="hardAlpha"/>
<feOffset dy="4"/>
<feGaussianBlur stdDeviation="2"/>
<feComposite in2="hardAlpha" operator="out"/>
<feColorMatrix type="matrix" values="0 0 0 0 0 0 0 0 0 0 0 0 0 0 0 0 0 0 0.25 0"/>
<feBlend mode="normal" in2="BackgroundImageFix" result="effect1_dropShadow_50_726"/>
<feBlend mode="normal" in="SourceGraphic" in2="effect1_dropShadow_50_726" result="shape"/>
</filter>
</defs>
</svg>
