<svg width="41" height="38" viewBox="0 0 41 38" fill="none" xmlns="http://www.w3.org/2000/svg">
<g filter="url(#filter0_d_50_732)">
<path d="M14.5 0H20.5L29.5 2L34 7.5L37 16.5L34 23L29.5 30L20.5 28H12L5.5 25.5L8 15L4 12.5L8 2L14.5 0Z" fill="white"/>
</g>
<path d="M19.5986 1C20.5167 0.999949 21.4002 1.35079 22.0682 1.98074C22.7362 2.61069 23.1382 3.47213 23.1921 4.3888L23.1981 4.6V5.8H26.7976C27.403 5.79981 27.9861 6.02849 28.43 6.4402C28.8739 6.8519 29.1458 7.41621 29.1912 8.02L29.1972 8.2V11.8H30.3971C31.334 11.7991 32.2344 12.1636 32.9069 12.8161C33.5794 13.4686 33.971 14.3577 33.9984 15.2944C34.0259 16.231 33.6872 17.1415 33.0541 17.8324C32.4211 18.5232 31.5436 18.9399 30.6082 18.994L30.3971 19H29.1972V22.6C29.1974 23.2055 28.9688 23.7887 28.5571 24.2327C28.1455 24.6766 27.5812 24.9486 26.9775 24.994L26.7976 25H23.1981C22.5927 25.0002 22.0096 24.7715 21.5657 24.3598C21.1218 23.9481 20.8498 23.3838 20.8044 22.78L20.7984 22.6V21.4C20.7981 21.0941 20.681 20.8 20.4711 20.5776C20.2611 20.3552 19.9742 20.2213 19.6689 20.2034C19.3636 20.1855 19.063 20.2848 18.8285 20.4811C18.594 20.6774 18.4433 20.9559 18.4072 21.2596L18.3988 21.4V22.6C18.399 23.2055 18.1703 23.7887 17.7587 24.2327C17.347 24.6766 16.7828 24.9486 16.1791 24.994L15.9991 25H12.3997C11.7942 25.0002 11.2111 24.7715 10.7672 24.3598C10.3233 23.9481 10.0514 23.3838 10.006 22.78L10 22.6V19C9.99981 18.3945 10.2285 17.8113 10.6401 17.3673C11.0518 16.9234 11.616 16.6514 12.2197 16.606L12.3997 16.6H13.5995C13.9053 16.5997 14.1994 16.4825 14.4218 16.2726C14.6442 16.0626 14.778 15.7757 14.7959 15.4703C14.8138 15.165 14.7145 14.8643 14.5182 14.6298C14.3219 14.3953 14.0435 14.2445 13.7399 14.2084L13.5995 14.2H12.3997C11.7942 14.2002 11.2111 13.9715 10.7672 13.5598C10.3233 13.1481 10.0514 12.5838 10.006 11.98L10 11.8V8.2C9.99981 7.59451 10.2285 7.01132 10.6401 6.56734C11.0518 6.12336 11.616 5.85141 12.2197 5.806L12.3997 5.8H15.9991V4.6C15.9991 3.64522 16.3784 2.72955 17.0534 2.05442C17.7284 1.37928 18.644 1 19.5986 1Z" fill="#768748"/>
<defs>
<filter id="filter0_d_50_732" x="0" y="0" width="41" height="38" filterUnits="userSpaceOnUse" color-interpolation-filters="sRGB">
<feFlood flood-opacity="0" result="BackgroundImageFix"/>
<feColorMatrix in="SourceAlpha" type="matrix" values="0 0 0 0 0 0 0 0 0 0 0 0 0 0 0 0 0 0 127 0" result="hardAlpha"/>
<feOffset dy="4"/>
<feGaussianBlur stdDeviation="2"/>
<feComposite in2="hardAlpha" operator="out"/>
<feColorMatrix type="matrix" values="0 0 0 0 0 0 0 0 0 0 0 0 0 0 0 0 0 0 0.25 0"/>
<feBlend mode="normal" in2="BackgroundImageFix" result="effect1_dropShadow_50_732"/>
<feBlend mode="normal" in="SourceGraphic" in2="effect1_dropShadow_50_732" result="shape"/>
</filter>
</defs>
</svg>
