<svg width="35" height="37" viewBox="0 0 35 37" fill="none" xmlns="http://www.w3.org/2000/svg">
<g filter="url(#filter0_d_50_714)">
<path d="M4 24.8571V5.69643L11.56 2.58929V1.55357L20.2 0L26.14 2.58929L31 4.66071V12.4286V24.8571L27.76 29L20.2 27.9643L7.78 29L4 24.8571Z" fill="white"/>
</g>
<path d="M24.8889 6.2002H20.4767C20.2605 5.55719 19.858 5.00007 19.3247 4.6059C18.7914 4.21173 18.1538 4 17.5 4C16.8462 4 16.2086 4.21173 15.6753 4.6059C15.142 5.00007 14.7395 5.55719 14.5233 6.2002H10.1111C9.55172 6.20194 9.01572 6.43428 8.62018 6.84648C8.22463 7.25868 8.00167 7.81724 8 8.40018V23.8C8.00167 24.383 8.22463 24.9415 8.62018 25.3537C9.01572 25.7659 9.55172 25.9983 10.1111 26H24.8889C25.4483 25.9983 25.9843 25.7659 26.3798 25.3537C26.7754 24.9415 26.9983 24.383 27 23.8V8.40018C26.9983 7.81724 26.7754 7.25868 26.3798 6.84648C25.9843 6.43428 25.4483 6.20194 24.8889 6.2002ZM17.5 6.2002C17.7088 6.2002 17.9129 6.26471 18.0864 6.38558C18.26 6.50645 18.3953 6.67825 18.4752 6.87924C18.5551 7.08024 18.576 7.30141 18.5353 7.51479C18.4945 7.72816 18.394 7.92416 18.2464 8.078C18.0988 8.23183 17.9107 8.3366 17.7059 8.37904C17.5012 8.42149 17.2889 8.3997 17.0961 8.31645C16.9032 8.23319 16.7383 8.0922 16.6223 7.91131C16.5064 7.73042 16.4444 7.51775 16.4444 7.30019C16.4453 7.00872 16.5568 6.72944 16.7545 6.52334C16.9523 6.31724 17.2203 6.20107 17.5 6.2002ZM15.3889 11.7001L18.3339 14.7735L20.9939 12.0015L19.6111 10.6002H23.8333V15.0001L22.4864 13.558L18.336 17.8865L15.3889 14.8131L12.6592 17.6555L11.1667 16.1001L15.3889 11.7001ZM24.8889 22.7H10.1111V20.5001H24.8889V22.7Z" fill="#768748"/>
<defs>
<filter id="filter0_d_50_714" x="0" y="0" width="35" height="37" filterUnits="userSpaceOnUse" color-interpolation-filters="sRGB">
<feFlood flood-opacity="0" result="BackgroundImageFix"/>
<feColorMatrix in="SourceAlpha" type="matrix" values="0 0 0 0 0 0 0 0 0 0 0 0 0 0 0 0 0 0 127 0" result="hardAlpha"/>
<feOffset dy="4"/>
<feGaussianBlur stdDeviation="2"/>
<feComposite in2="hardAlpha" operator="out"/>
<feColorMatrix type="matrix" values="0 0 0 0 0 0 0 0 0 0 0 0 0 0 0 0 0 0 0.25 0"/>
<feBlend mode="normal" in2="BackgroundImageFix" result="effect1_dropShadow_50_714"/>
<feBlend mode="normal" in="SourceGraphic" in2="effect1_dropShadow_50_714" result="shape"/>
</filter>
</defs>
</svg>
