<svg width="49" height="35" viewBox="0 0 49 35" fill="none" xmlns="http://www.w3.org/2000/svg">
<g filter="url(#filter0_d_50_708)">
<path d="M9 1H20.5H38.5V9.5L43.5 26H24.5H9L5 20L9 1Z" fill="white"/>
<path d="M9 1H20.5H38.5V9.5L43.5 26H24.5H9L5 20L9 1Z" stroke="white"/>
</g>
<path d="M28.1665 13C26.9672 13 25.8075 12.5045 24.8999 11.6052C24.0173 10.7281 23.4783 9.5584 23.3832 8.31261C23.2817 6.98369 23.7198 5.76165 24.6164 4.87102C25.5129 3.9804 26.7665 3.5 28.1665 3.5C29.5566 3.5 30.8137 3.98903 31.7073 4.8775C32.6097 5.7746 33.049 6.99448 32.9475 8.31207C32.8501 9.55948 32.3116 10.7286 31.4308 11.6047C30.5255 12.5045 29.3664 13 28.1665 13ZM35.8565 22.5H20.477C20.2298 22.5012 19.9855 22.4499 19.763 22.3501C19.5405 22.2502 19.3458 22.1045 19.1937 21.924C19.0324 21.7284 18.921 21.5016 18.8679 21.2605C18.8148 21.0195 18.8213 20.7704 18.8869 20.532C19.378 18.707 20.5949 17.1935 22.4055 16.1555C24.0126 15.2346 26.0583 14.7273 28.1665 14.7273C30.3161 14.7273 32.3081 15.2131 33.9246 16.1334C35.7393 17.1659 36.9579 18.6881 37.4467 20.5352C37.5115 20.7738 37.5173 21.0229 37.4636 21.2638C37.4098 21.5048 37.298 21.7314 37.1364 21.9267C36.9845 22.1063 36.7902 22.2514 36.5683 22.3507C36.3465 22.4501 36.103 22.5011 35.8565 22.5ZM17.1416 13.2159C15.0888 13.2159 13.284 11.4498 13.1166 9.27934C13.0337 8.16741 13.4082 7.13914 14.1666 6.38508C14.9167 5.63858 15.9749 5.22727 17.1416 5.22727C18.3082 5.22727 19.3582 5.64074 20.1125 6.39156C20.8766 7.15156 21.25 8.17766 21.1625 9.28042C20.995 11.4503 19.1908 13.2159 17.1416 13.2159ZM20.9717 14.9135C19.9456 14.4493 18.6139 14.2172 17.1421 14.2172C15.4237 14.2172 13.7547 14.6317 12.4423 15.3842C10.9542 16.2386 9.95318 17.4828 9.54893 18.985C9.48978 19.201 9.48418 19.4267 9.53257 19.6451C9.58095 19.8634 9.68207 20.0688 9.82835 20.2459C9.96715 20.4108 10.145 20.544 10.3481 20.6353C10.5513 20.7267 10.7744 20.7737 11.0003 20.7727H17.4752C17.5845 20.7727 17.6903 20.7372 17.7742 20.6724C17.8581 20.6076 17.9148 20.5176 17.9343 20.4181C17.9407 20.3841 17.9489 20.3501 17.9582 20.3166C18.4529 18.4781 19.612 16.9247 21.3246 15.7922C21.3876 15.7502 21.4383 15.6943 21.472 15.6296C21.5058 15.5649 21.5215 15.4934 21.5179 15.4216C21.5142 15.3499 21.4913 15.2801 21.4511 15.2186C21.411 15.1571 21.3548 15.1058 21.2879 15.0695C21.1963 15.0198 21.0913 14.9675 20.9717 14.9135Z" fill="#768748"/>
<defs>
<filter id="filter0_d_50_708" x="0.467407" y="0.5" width="47.7065" height="34" filterUnits="userSpaceOnUse" color-interpolation-filters="sRGB">
<feFlood flood-opacity="0" result="BackgroundImageFix"/>
<feColorMatrix in="SourceAlpha" type="matrix" values="0 0 0 0 0 0 0 0 0 0 0 0 0 0 0 0 0 0 127 0" result="hardAlpha"/>
<feOffset dy="4"/>
<feGaussianBlur stdDeviation="2"/>
<feComposite in2="hardAlpha" operator="out"/>
<feColorMatrix type="matrix" values="0 0 0 0 0 0 0 0 0 0 0 0 0 0 0 0 0 0 0.25 0"/>
<feBlend mode="normal" in2="BackgroundImageFix" result="effect1_dropShadow_50_708"/>
<feBlend mode="normal" in="SourceGraphic" in2="effect1_dropShadow_50_708" result="shape"/>
</filter>
</defs>
</svg>
