<svg width="28" height="39" viewBox="0 0 28 39" fill="none" xmlns="http://www.w3.org/2000/svg">
<g filter="url(#filter0_d_50_720)">
<path d="M4 23.3333L8.58333 15V7.5V2.08333L20.25 0L24 7.5V12.5L20.25 15L24 23.3333V30.4167H16.5H8.58333L4 23.3333Z" fill="white"/>
</g>
<path d="M21.3626 23.4898L18.2601 16.4009C17.9554 15.707 17.7061 14.5218 17.7061 13.7666C17.7061 13.0113 18.1797 12.3934 18.7587 12.3934C19.3376 12.3934 19.8113 11.9291 19.8113 11.3635C19.8113 10.798 19.1797 10.3337 18.4078 10.3337H12.092C11.3201 10.3337 10.6885 10.7962 10.6885 11.3635C10.6885 11.9309 11.1622 12.3934 11.7411 12.3934C12.3201 12.3934 12.7938 13.0113 12.7938 13.7666C12.7938 14.5218 12.5445 15.707 12.2398 16.4018L9.13727 23.4916C8.83256 24.1854 8.58325 25.0635 8.58325 25.4402C8.58325 25.8169 8.89904 26.4366 9.28501 26.8133C9.67097 27.1901 10.6183 27.4999 11.3903 27.4999H19.1096C19.8806 27.4999 20.827 27.1928 21.2148 26.8133C21.6026 26.4339 21.9166 25.8178 21.9166 25.4402C21.9166 25.0626 21.6673 24.1845 21.3626 23.4916V23.4898ZM16.2499 8.30105C16.2499 8.56053 16.3553 8.80938 16.5428 8.99286C16.7303 9.17634 16.9847 9.27942 17.2499 9.27942C17.5151 9.27942 17.7695 9.17634 17.957 8.99286C18.1446 8.80938 18.2499 8.56053 18.2499 8.30105C18.2498 8.04157 18.1443 7.79276 17.9567 7.60936C17.7691 7.42597 17.5147 7.32301 17.2495 7.32312C16.9842 7.32324 16.7299 7.42644 16.5425 7.61C16.355 7.79357 16.2498 8.04157 16.2499 8.30105ZM13.5583 8.45191C13.6808 8.45191 13.7982 8.40432 13.8848 8.31961C13.9714 8.2349 14.02 8.12001 14.02 8.00022C14.02 7.88042 13.9714 7.76553 13.8848 7.68082C13.7982 7.59611 13.6808 7.54852 13.5583 7.54852C13.4359 7.54852 13.3184 7.59611 13.2319 7.68082C13.1453 7.76553 13.0966 7.88042 13.0966 8.00022C13.0966 8.12001 13.1453 8.2349 13.2319 8.31961C13.3184 8.40432 13.4359 8.45191 13.5583 8.45191ZM15.3284 6.19343C15.5264 6.20306 15.7244 6.17319 15.9102 6.10565C16.0961 6.03811 16.2659 5.93431 16.4095 5.80055C16.5531 5.6668 16.6674 5.50587 16.7454 5.32757C16.8235 5.14926 16.8637 4.95729 16.8636 4.76332C16.8634 4.56935 16.823 4.37743 16.7447 4.19922C16.6664 4.02101 16.5519 3.86023 16.4082 3.72665C16.2644 3.59307 16.0944 3.48948 15.9085 3.42217C15.7225 3.35486 15.5246 3.32524 15.3266 3.3351C14.9549 3.35774 14.6061 3.51819 14.3513 3.78373C14.0964 4.04928 13.9546 4.39994 13.9548 4.76422C13.9551 5.12849 14.0973 5.47897 14.3525 5.7442C14.6078 6.00944 14.9568 6.16945 15.3284 6.19163V6.19343Z" fill="#768748"/>
<defs>
<filter id="filter0_d_50_720" x="0" y="0" width="28" height="38.4167" filterUnits="userSpaceOnUse" color-interpolation-filters="sRGB">
<feFlood flood-opacity="0" result="BackgroundImageFix"/>
<feColorMatrix in="SourceAlpha" type="matrix" values="0 0 0 0 0 0 0 0 0 0 0 0 0 0 0 0 0 0 127 0" result="hardAlpha"/>
<feOffset dy="4"/>
<feGaussianBlur stdDeviation="2"/>
<feComposite in2="hardAlpha" operator="out"/>
<feColorMatrix type="matrix" values="0 0 0 0 0 0 0 0 0 0 0 0 0 0 0 0 0 0 0.25 0"/>
<feBlend mode="normal" in2="BackgroundImageFix" result="effect1_dropShadow_50_720"/>
<feBlend mode="normal" in="SourceGraphic" in2="effect1_dropShadow_50_720" result="shape"/>
</filter>
</defs>
</svg>
