<svg width="318" height="85" viewBox="0 0 318 85" fill="none" xmlns="http://www.w3.org/2000/svg">
<path d="M25.6609 0.828819C26.2896 1.40988 26.5343 2.08127 26.561 2.91742C26.5638 3.09443 26.5643 3.27141 26.5646 3.44845C26.5655 3.55024 26.5664 3.65202 26.5675 3.75381C26.57 4.03868 26.5715 4.32355 26.5728 4.60843C26.5744 4.92217 26.577 5.2359 26.5794 5.54964C26.5841 6.18123 26.5879 6.81282 26.5914 7.44442C26.5954 8.17656 26.5999 8.9087 26.6047 9.64084C26.6135 10.9869 26.6219 12.333 26.6299 13.679C26.631 13.8534 26.632 14.0278 26.6331 14.2022C26.6528 17.4802 26.6617 20.758 26.6577 24.036C26.6854 24.0154 26.713 23.9948 26.7415 23.9736C26.8686 23.8791 26.9959 23.7849 27.1232 23.6908C27.1667 23.6584 27.2102 23.626 27.255 23.5926C28.0432 23.0109 28.9188 22.6798 29.9164 22.8071C31.4727 23.0589 32.61 24.141 33.5021 25.3506C33.7235 25.6633 33.9401 25.9792 34.1573 26.2946C35.0733 27.6924 35.0733 27.6924 36.4615 28.5613C36.7011 28.601 36.8307 28.592 37.0542 28.4915C37.712 27.9181 38.063 27.2107 38.4101 26.4299C38.4432 26.3564 38.4763 26.2829 38.5095 26.2095C38.7066 25.7709 38.8279 25.4425 38.8304 24.9612C38.8309 24.9085 38.8314 24.8558 38.8319 24.8015C38.8335 24.6236 38.8347 24.4458 38.836 24.268C38.8371 24.1403 38.8382 24.0126 38.8393 23.8848C38.8424 23.5348 38.845 23.1848 38.8476 22.8348C38.8505 22.4627 38.8536 22.0905 38.8568 21.7184C38.8621 21.0824 38.8672 20.4464 38.8721 19.8104C38.8772 19.1509 38.8825 18.4914 38.8881 17.8318C38.8884 17.7911 38.8888 17.7504 38.8891 17.7084C38.8905 17.5439 38.8919 17.3793 38.8933 17.2148C38.9173 14.3527 38.9407 11.4907 38.9545 8.62854C38.956 8.31999 38.9576 8.01145 38.9593 7.70291C38.96 7.55657 38.9608 7.41023 38.9616 7.2639C38.9621 7.16948 38.9626 7.07507 38.9631 6.98065C38.966 6.44599 38.9682 5.91134 38.9694 5.37668C38.9703 5.01331 38.9721 4.64995 38.9741 4.28658C38.9748 4.14258 38.9751 3.99858 38.9751 3.85458C38.9752 2.75854 39.0172 1.67905 39.8577 0.851227C40.4209 0.432945 40.6041 0.371863 40.6571 0.34265C40.71 0.313437 40.7168 0.315207 40.773 0.285994C41.7 -0.0539434 42.7614 -0.024031 43.7076 0.253681C43.8528 0.364469 43.8862 0.401953 43.9139 0.582332C43.8865 0.760749 43.85 0.800653 43.7076 0.910982C43.5853 0.939459 43.5853 0.939459 43.446 0.948329C43.3949 0.952199 43.3437 0.95607 43.291 0.960058C43.2369 0.963582 43.1828 0.967106 43.1271 0.970737C42.3617 1.0345 41.654 1.12246 41.1257 1.72514C40.7179 2.49425 40.6433 3.12814 40.647 3.98376C40.6576 6.58405 40.654 9.18401 40.629 11.7842C40.6214 12.5835 40.6146 13.3827 40.6079 14.182C40.6075 14.2246 40.6072 14.2673 40.6068 14.3112C40.5883 16.511 40.5766 18.7109 40.5655 20.9107C40.5647 21.0698 40.5639 21.2289 40.5631 21.3879C40.558 22.3848 40.553 23.3817 40.5481 24.3785C40.5345 27.1092 40.5203 29.8399 40.5058 32.5707C40.5052 32.6694 40.5052 32.6694 40.5047 32.7701C40.473 38.7275 40.4362 44.6848 40.3809 53.2435C40.3804 53.3208 40.3798 53.3982 40.3793 53.4778C40.3786 53.5936 40.3786 53.5936 40.3778 53.7116C40.3733 54.4048 40.3688 55.0979 40.3644 55.791C40.339 59.7264 40.3131 63.6617 40.2854 67.5971C40.2851 67.6508 40.2847 67.7044 40.2843 67.7597C40.2756 68.9999 40.2666 70.24 40.2568 71.4802C40.2545 71.7778 40.2522 72.0753 40.25 72.3729C40.2407 73.6378 40.2295 74.9028 40.2029 76.1675C40.2008 76.2732 40.1987 76.3789 40.1969 76.4846C40.1612 78.4679 39.7234 80.1552 38.2482 81.6C36.5428 83.1786 34.1278 83.4669 31.8822 83.4284C30.266 83.3802 28.7297 83.0031 27.4522 81.998C27.4099 81.9664 27.3676 81.9348 27.324 81.9023C26.318 81.1083 25.7689 79.8568 25.4852 78.6554C25.4749 78.6127 25.4647 78.57 25.4542 78.5259C25.2857 77.7701 25.3019 76.995 25.2961 76.2255C25.295 76.1073 25.2939 75.9891 25.2928 75.8709C25.2897 75.5486 25.287 75.2263 25.2844 74.904C25.2816 74.559 25.2784 74.214 25.2753 73.8691C25.2693 73.1985 25.2636 72.528 25.258 71.8575C25.2535 71.3096 25.2488 70.7617 25.2441 70.2139C25.1954 64.5436 25.1566 58.8733 25.1171 49.7118C25.1165 49.5741 25.116 49.4363 25.1154 49.2986C25.114 48.9474 25.1126 48.5962 25.1111 48.2449C25.1106 48.1017 25.11 47.9584 25.1094 47.8152C25.1085 47.5975 25.1076 47.3799 25.1068 47.1622C25.1063 47.0535 25.1063 47.0535 25.1059 46.9426C25.1044 46.5741 25.1029 46.2056 25.1015 45.8371C25.0848 41.6652 25.0647 37.4933 25.0409 33.3214C25.04 33.1497 25.039 32.9779 25.038 32.8062C25.0247 30.4765 25.0113 28.1469 24.9973 25.8172C24.99 24.6112 24.9828 23.4053 24.9758 22.1993C24.9751 22.086 24.9745 21.9727 24.9738 21.8594C24.9562 18.8585 24.9421 15.8576 24.935 12.8566C24.9339 12.3859 24.9326 11.9151 24.9313 11.4444C24.9304 11.117 24.9295 10.7896 24.9286 10.4621C24.9282 10.3427 24.9279 10.2233 24.9276 10.1038C24.9251 9.19567 24.9234 8.2875 24.923 7.37933C24.9227 6.82985 24.9216 6.28037 24.9199 5.73089C24.9188 5.36288 24.9186 4.9949 24.9193 4.62689C24.9194 4.40624 24.9186 4.1856 24.9174 3.96495C24.9171 3.86538 24.9172 3.76582 24.9177 3.66625C24.9216 2.9024 24.878 2.1451 24.3966 1.50853C23.9331 1.05532 23.3949 1.00476 22.7647 0.965324C22.413 0.937202 22.413 0.937202 22.2246 0.787505C22.1952 0.749376 22.1658 0.711248 22.1355 0.671964C22.1699 0.500169 22.1699 0.500169 22.2577 0.313436C22.4525 0.235008 22.4525 0.235008 22.6855 0.193927C22.7473 0.181602 22.809 0.169278 22.8727 0.15658C23.8906 0.0617892 24.8519 0.176575 25.6609 0.828819Z" fill="#404231"/>
<path d="M41.5075 36.704C42.1263 36.7713 42.1263 36.7713 42.3376 36.8222C42.386 36.8337 42.4344 36.8451 42.4843 36.857C42.5355 36.8695 42.5867 36.882 42.6395 36.895C42.6953 36.9083 42.7512 36.9217 42.8087 36.9355C42.9938 36.98 43.1788 37.025 43.3637 37.07C43.4955 37.1019 43.6274 37.1337 43.7592 37.1656C44.1903 37.2699 44.6211 37.3752 45.0519 37.4808C45.1644 37.5084 45.1644 37.5084 45.2792 37.5366C48.0581 38.2184 50.8204 38.9402 53.5733 39.7157C53.8277 39.7873 54.0822 39.8586 54.3368 39.9296C55.3186 40.2036 56.293 40.4948 57.2634 40.8055C57.5047 40.8826 57.7464 40.9588 57.9881 41.0349C59.1682 41.4066 60.3441 41.783 61.5077 42.2021C61.7336 42.2823 61.9609 42.3586 62.1883 42.4347C64.3973 43.1748 66.5531 44.0585 68.7018 44.9502C68.8024 44.9919 68.8024 44.9919 68.9051 45.0345C69.5565 45.3055 70.1997 45.5845 70.8299 45.8999C71.0742 46.0217 71.3217 46.1362 71.5697 46.2506C74.0465 47.3945 76.4974 48.7014 78.724 50.2683C78.7634 50.2959 78.8028 50.3235 78.8435 50.3519C80.0715 51.21 81.2637 52.1029 82.3634 53.1158C82.5003 53.2407 82.6403 53.3621 82.7802 53.4839C83.3381 53.9742 83.3381 53.9742 83.4906 54.1524C83.4906 54.1918 83.4906 54.2312 83.4906 54.2719C83.5511 54.2916 83.6116 54.3113 83.6739 54.3316C83.7661 54.421 83.7661 54.421 83.8649 54.537C84.0277 54.7253 84.1942 54.9086 84.3652 55.0898C86.0686 56.9413 87.3388 59.2317 87.8295 61.6814C87.8402 61.7309 87.851 61.7803 87.862 61.8312C87.9726 62.391 87.9786 62.9471 87.9784 63.5152C87.9785 63.5923 87.9785 63.5923 87.9786 63.6709C87.9765 64.5506 87.8928 65.3733 87.6461 66.2228C87.6314 66.2755 87.6167 66.3281 87.6015 66.3824C87.0422 68.3332 85.9101 70.1546 84.4937 71.6252C84.3794 71.7451 84.2702 71.8665 84.1614 71.991C83.8785 72.3083 83.5746 72.6053 83.2703 72.9028C83.1705 73.0005 83.0712 73.0987 82.9719 73.1969C82.5737 73.5883 82.1612 73.9462 81.7184 74.2897C81.6504 74.3456 81.5827 74.4018 81.5155 74.4587C79.1866 76.425 76.5335 78.0159 73.8962 79.5481C73.8444 79.5782 73.7925 79.6084 73.7392 79.6395C73.6006 79.72 73.462 79.8003 73.3233 79.8805C73.2852 79.9025 73.2472 79.9246 73.208 79.9473C72.6499 80.2682 72.0764 80.561 71.5014 80.8515C71.0848 81.0627 70.6713 81.2772 70.2639 81.505C69.5323 81.9129 68.7723 82.2618 68.0111 82.6131C67.6664 82.7731 67.3307 82.943 66.9963 83.1226C66.5493 83.3583 66.0851 83.5589 65.6233 83.7649C65.2505 83.9315 64.8808 84.1015 64.5157 84.2836C64.173 84.4529 63.8288 84.6183 63.4806 84.7766C63.4145 84.8081 63.4145 84.8081 63.3469 84.8401C63.0314 84.9809 62.7536 85.0263 62.4074 84.9857C62.1275 84.8763 61.9931 84.7085 61.8574 84.448C61.8157 84.2169 61.8338 84.0232 61.9299 83.8056C62.1471 83.542 62.4038 83.3938 62.716 83.2557C62.7878 83.2235 62.8596 83.1914 62.9336 83.1583C63.009 83.1251 63.0844 83.0919 63.1598 83.0587C63.7485 82.7974 64.3293 82.5255 64.9064 82.2406C65.0837 82.1534 65.2616 82.0672 65.4395 81.981C65.6248 81.8913 65.81 81.8013 65.9951 81.7112C66.0884 81.6659 66.1818 81.6207 66.2751 81.5755C66.8612 81.2921 67.4376 80.9974 68.0052 80.68C68.3672 80.4776 68.7326 80.2816 69.1035 80.0954C70.698 79.291 72.2365 78.3422 73.7189 77.3547C73.8483 77.2686 73.9781 77.1832 74.1079 77.0977C75.1175 76.4304 76.0932 75.7285 77.0326 74.9695C77.1698 74.8594 77.3089 74.7519 77.4483 74.6445C77.7007 74.4475 77.9474 74.2444 78.1931 74.0394C78.2289 74.0096 78.2648 73.9797 78.3018 73.949C78.4661 73.8111 78.621 73.6728 78.7724 73.521C78.9073 73.3933 78.9073 73.3933 79.0295 73.3933C79.0497 73.3342 79.0698 73.275 79.0906 73.2141C79.1908 73.1324 79.293 73.053 79.3962 72.9751C79.5462 72.8353 79.6827 72.7018 79.8049 72.5381C79.8446 72.4882 79.8446 72.4882 79.8851 72.4373C79.9254 72.4373 79.9657 72.4373 80.0073 72.4373C80.0236 72.4016 80.0399 72.366 80.0567 72.3292C80.131 72.1955 80.2031 72.1179 80.3167 72.0153C80.5772 71.7673 80.8018 71.4961 81.0284 71.2184C81.1119 71.1171 81.1967 71.0169 81.2818 70.9168C81.7389 70.3747 82.1381 69.8098 82.5128 69.2105C82.5368 69.1729 82.5608 69.1353 82.5856 69.0966C83.7413 67.2744 84.283 65.1675 83.7962 63.0558C83.5047 61.9146 82.8139 60.8608 82.0479 59.9712C81.9985 59.9137 81.9985 59.9137 81.948 59.855C81.9185 59.8211 81.889 59.7872 81.8585 59.7524C81.7748 59.6437 81.7157 59.534 81.6573 59.4108C81.6169 59.4108 81.5766 59.4108 81.535 59.4108C81.4446 59.3188 81.4446 59.3188 81.3403 59.1942C81.1617 58.9872 80.9754 58.8147 80.758 58.6475C80.7321 58.6233 80.7062 58.5991 80.6795 58.5742C80.6795 58.5348 80.6795 58.4953 80.6795 58.4547C80.6444 58.4395 80.6093 58.4243 80.5732 58.4087C80.4195 58.3269 80.3091 58.2322 80.1811 58.1158C79.9009 57.8676 79.6081 57.6438 79.3045 57.4239C79.2516 57.3854 79.1988 57.347 79.1443 57.3073C78.3706 56.7463 77.5872 56.2025 76.7684 55.706C76.7014 55.6653 76.6343 55.6246 76.5653 55.5827C75.8928 55.1801 75.202 54.8082 74.5127 54.4341C74.3378 54.3391 74.1631 54.2439 73.9883 54.1486C73.8851 54.0926 73.7818 54.0366 73.6785 53.9806C73.6343 53.9565 73.5902 53.9324 73.5447 53.9075C72.7084 53.4564 71.8414 53.0609 70.9782 52.6622C70.9273 52.6387 70.8764 52.6152 70.824 52.591C69.3709 51.9165 69.3709 51.9165 67.8861 51.3131C67.704 51.2407 67.5263 51.1641 67.3478 51.0839C66.9795 50.9189 66.6061 50.768 66.2306 50.6194C66.1587 50.5909 66.0867 50.5623 66.0126 50.5329C65.7887 50.4444 65.5647 50.3563 65.3407 50.2683C65.2744 50.2423 65.2082 50.2162 65.1399 50.1894C63.8168 49.6711 62.4804 49.1875 61.1431 48.7058C61.0179 48.6607 60.8926 48.6155 60.7674 48.5704C59.9328 48.2699 59.0919 47.9897 58.2475 47.7168C57.6661 47.5288 57.0868 47.3356 56.5082 47.1397C55.5988 46.8321 54.6853 46.544 53.7646 46.2701C53.3833 46.1564 53.0027 46.0405 52.622 45.9249C52.5469 45.9022 52.4718 45.8794 52.3944 45.856C52.0914 45.7641 51.7884 45.6722 51.4864 45.5769C50.7282 45.3376 49.9631 45.1227 49.1971 44.9089C48.7794 44.7919 48.3622 44.674 47.9477 44.5466C46.7343 44.1736 45.5084 43.8506 44.2804 43.5273C43.9094 43.4295 43.5384 43.3316 43.1675 43.2333C43.0212 43.1947 42.8748 43.1563 42.7284 43.1179C42.6385 43.0941 42.5485 43.0703 42.4586 43.0465C42.3809 43.026 42.3032 43.0056 42.2231 42.9845C41.9808 42.914 41.7442 42.826 41.5075 42.7392C41.5075 40.7476 41.5075 38.756 41.5075 36.704Z" fill="#404231"/>
<path d="M23.9075 5.33285C23.9075 6.67374 23.9075 8.01464 23.9075 9.39616C23.0885 9.72985 23.0885 9.72985 22.766 9.85366C19.729 11.026 16.7405 12.3539 14.0076 14.1168C13.9571 14.1492 13.9571 14.1492 13.9055 14.1822C13.0337 14.7412 12.1921 15.33 11.3798 15.9692C11.319 16.0168 11.319 16.0168 11.2569 16.0653C10.6359 16.5521 10.0433 17.0608 9.47075 17.6014C9.3753 17.6907 9.27845 17.778 9.18056 17.8647C8.69681 18.3076 8.34897 18.8229 7.98649 19.3621C7.86699 19.5382 7.74253 19.7105 7.6177 19.8831C7.55189 19.9768 7.4861 20.0705 7.42082 20.1645C7.36679 20.2423 7.31244 20.3199 7.2579 20.3974C6.79174 21.0646 6.44595 21.6963 6.24653 22.4824C6.23395 22.5312 6.22136 22.5801 6.2084 22.6304C5.77975 24.3579 5.9737 25.9664 6.91875 27.5018C7.73526 28.728 9.06038 29.3641 10.4021 29.892C10.4638 29.9166 10.5255 29.9413 10.589 29.9667C14.6469 31.5805 19.053 32.3304 23.3506 33.0443C23.4045 33.0533 23.4583 33.0623 23.5137 33.0715C23.5839 33.0831 23.5839 33.0831 23.6555 33.0949C23.7813 33.118 23.9056 33.1482 24.0298 33.1785C24.0298 35.0124 24.0298 36.8462 24.0298 38.7357C23.5842 38.6631 23.1411 38.5896 22.6985 38.5037C22.6172 38.488 22.6172 38.488 22.5343 38.472C22.3593 38.4381 22.1843 38.4039 22.0093 38.3697C21.9487 38.3578 21.888 38.346 21.8256 38.3338C20.8153 38.1359 19.8099 37.922 18.8069 37.6915C18.4801 37.6164 18.1527 37.5439 17.8251 37.472C14.4226 36.7229 10.9287 35.8331 7.78704 34.3189C7.68496 34.2699 7.5826 34.2214 7.48011 34.1732C6.29506 33.6154 5.15295 33.008 4.10765 32.2224C4.04684 32.1788 3.98602 32.1351 3.92337 32.0901C3.37712 31.6947 2.88158 31.2532 2.39655 30.7883C2.31549 30.7114 2.31549 30.7114 2.23279 30.6329C0.744027 29.1294 -0.0326968 27.1374 0.00105507 25.06C0.0629212 23.1166 0.944799 21.3345 1.90766 19.674C1.93242 19.6312 1.95717 19.5884 1.98268 19.5443C3.11318 17.6062 4.69151 15.7265 6.43106 14.2781C6.57205 14.1598 6.70892 14.0375 6.84618 13.9151C7.16711 13.6326 7.49756 13.3638 7.83541 13.101C7.87546 13.0697 7.91551 13.0385 7.95677 13.0063C8.5573 12.5396 9.16749 12.0944 9.80531 11.6776C9.9026 11.614 9.99946 11.5498 10.0963 11.4855C11.0539 10.853 12.0379 10.2738 13.048 9.72528C13.1984 9.64325 13.348 9.56015 13.4975 9.47646C14.1662 9.10377 14.8535 8.77693 15.5505 8.4578C15.7043 8.38697 15.8575 8.31502 16.0104 8.24239C22.1154 5.66836 21.9995 5.89499 23.9075 5.33285Z" fill="#404231"/>
<path d="M56.9683 2.34513C57.1191 2.36366 57.2698 2.38217 57.4206 2.40068C59.7176 2.69009 62.0085 3.11507 64.2405 3.71948C64.307 3.73749 64.3736 3.75549 64.4422 3.77404C66.5411 4.34799 68.6154 5.07034 70.5275 6.1016C70.6701 6.17623 70.8147 6.24568 70.96 6.31508C71.2591 6.46032 71.5409 6.62466 71.822 6.80058C71.8965 6.84702 71.8965 6.84702 71.9726 6.8944C72.779 7.40109 73.5446 7.93826 74.2626 8.55961C74.3165 8.60567 74.3704 8.65173 74.4259 8.69919C76.3563 10.3699 77.7523 12.4919 78.1126 15.0131C78.1206 15.0654 78.1287 15.1177 78.137 15.1716C78.3087 16.4992 78.1062 17.8717 77.6848 19.1362C77.6707 19.1791 77.6566 19.2221 77.6421 19.2663C77.4371 19.8827 77.1871 20.4691 76.8904 21.0483C76.8603 21.1079 76.8603 21.1079 76.8296 21.1687C76.1235 22.557 75.1678 23.8151 74.0998 24.9573C73.9847 25.0817 73.8725 25.2077 73.7606 25.3348C73.5131 25.6119 73.2497 25.8718 72.9831 26.1312C72.9367 26.1768 72.8903 26.2225 72.8424 26.2695C72.5517 26.5532 72.2527 26.8228 71.9404 27.0835C71.8787 27.136 71.8171 27.1884 71.7554 27.2409C71.2219 27.6876 70.6687 28.1054 70.1071 28.5176C70.0688 28.546 70.0305 28.5743 69.9911 28.6035C68.886 29.4213 67.707 30.122 66.5016 30.7883C66.4549 30.8142 66.4082 30.8401 66.3601 30.8667C65.6203 31.2732 64.8456 31.5995 64.0656 31.9248C63.9388 31.9727 63.9388 31.9727 63.8738 32.0432C63.9142 32.0557 63.9545 32.0682 63.9961 32.081C64.1204 32.1195 64.2446 32.158 64.3688 32.1964C64.5172 32.2424 64.6657 32.2883 64.8141 32.3343C65.1853 32.4492 65.5565 32.5641 65.9277 32.6792C66.1382 32.7445 66.3488 32.8098 66.5593 32.8751C66.6013 32.8881 66.6433 32.9011 66.6865 32.9145C67.2328 33.0838 67.7796 33.2518 68.3268 33.4185C68.4969 33.4705 68.6669 33.5225 68.837 33.5746C68.942 33.6066 69.047 33.6384 69.152 33.67C69.2965 33.7136 69.4408 33.7577 69.585 33.802C69.626 33.8141 69.6669 33.8263 69.7092 33.8388C70.1569 33.9776 70.4841 34.1391 70.7182 34.5529C70.8187 34.8477 70.8154 35.1064 70.7144 35.3969C70.5283 35.6669 70.3038 35.883 69.9849 35.987C69.6295 36.0077 69.3559 35.9615 69.0229 35.8357C68.9564 35.8117 68.9564 35.8117 68.8886 35.7872C68.7936 35.7528 68.6988 35.718 68.6041 35.6829C68.456 35.628 68.3075 35.5742 68.1589 35.5206C67.9005 35.4273 67.6425 35.3329 67.3847 35.2381C67.227 35.1802 67.0692 35.1225 66.9114 35.0647C66.3708 34.8666 65.8323 34.6643 65.2971 34.4523C65.0024 34.337 64.7055 34.2278 64.4078 34.1203C64.1844 34.0394 63.9616 33.957 63.7389 33.8743C62.9472 33.5819 62.1545 33.3135 61.342 33.0814C60.7067 32.8982 60.7067 32.8982 60.5127 32.6407C60.4471 32.3033 60.4572 32.0283 60.5354 31.6928C60.545 31.6488 60.5546 31.6049 60.5644 31.5596C60.5961 31.4156 60.6288 31.2719 60.6617 31.1282C60.6845 31.0258 60.7072 30.9234 60.7299 30.821C60.7989 30.5111 60.8695 30.2015 60.9405 29.892C60.9556 29.8258 60.9556 29.8258 60.9711 29.7582C61.0857 29.2569 61.2031 28.7563 61.322 28.256C61.4048 27.9067 61.4856 27.5571 61.5659 27.2073C61.6311 26.924 61.6967 26.6407 61.7624 26.3575C61.7948 26.2176 61.8269 26.0777 61.8588 25.9377C61.9038 25.7404 61.9496 25.5433 61.9956 25.3462C62.0088 25.2874 62.022 25.2285 62.0357 25.1679C62.1315 24.7621 62.2472 24.3901 62.537 24.0734C62.8248 23.9144 63.1272 23.8303 63.4591 23.875C63.7869 23.9746 63.9932 24.1772 64.1793 24.4543C64.3158 24.8546 64.2386 25.2468 64.1175 25.6431C63.9612 26.1892 63.8307 26.74 63.7045 27.2934C63.6945 27.3372 63.6845 27.381 63.6742 27.4261C63.6122 27.6976 63.5506 27.9691 63.489 28.2406C63.4359 28.4746 63.3825 28.7086 63.3292 28.9426C63.2253 29.3984 63.1217 29.8543 63.0182 30.3103C63.6846 30.0544 64.3487 29.7988 64.9929 29.4924C65.0882 29.4473 65.0882 29.4473 65.1853 29.4014C65.865 29.0755 66.5208 28.7121 67.1738 28.3384C67.2273 28.3082 67.2808 28.278 67.3359 28.2469C68.3849 27.6545 69.3531 27.0073 70.2293 26.1872C70.4425 25.9997 70.6575 25.8159 70.8824 25.642C71.1779 25.4077 71.4196 25.1319 71.6623 24.8472C71.6936 24.8161 71.7249 24.7851 71.7571 24.7531C71.7974 24.7531 71.8378 24.7531 71.8793 24.7531C71.9002 24.7039 71.9002 24.7039 71.9216 24.6537C72.025 24.4732 72.1571 24.3426 72.3033 24.1929C74.1589 22.2501 75.8872 19.5379 75.9737 16.8057C75.9762 16.7417 75.9786 16.6777 75.9811 16.6118C76.0041 15.4461 75.7814 14.3837 75.2404 13.34C75.2128 13.2861 75.1853 13.2323 75.1568 13.1768C74.1347 11.2616 72.3054 9.88862 70.4126 8.85838C70.3582 8.82874 70.3038 8.79911 70.2478 8.76857C66.6749 6.84343 62.5761 5.94344 58.5572 5.45237C58.4929 5.4443 58.4286 5.43623 58.3623 5.42792C57.5201 5.32287 56.6761 5.24463 55.8301 5.176C55.7623 5.1704 55.7623 5.1704 55.6932 5.16468C54.1002 5.03407 52.5085 5.02285 50.911 5.02301C50.6705 5.02302 50.4301 5.02261 50.1896 5.02179C48.1656 5.015 46.1523 5.07547 44.135 5.24323C44.0394 5.2509 43.9437 5.25855 43.848 5.26617C43.577 5.28789 43.306 5.31027 43.035 5.33286C42.9567 5.33936 42.8783 5.34586 42.7976 5.35255C42.4081 5.38498 42.0188 5.41834 41.6295 5.45237C41.6279 5.09106 41.6268 4.72975 41.6261 4.36844C41.6258 4.24582 41.6254 4.1232 41.6249 4.00058C41.6193 2.69334 41.6193 2.69334 41.6906 2.10611C46.4875 1.22359 52.1614 1.7255 56.9683 2.34513Z" fill="#404231"/>
<path d="M77.1351 0.313438C77.1862 0.326909 77.2374 0.340379 77.29 0.354257C78.4643 0.672708 79.6292 1.20585 80.5573 1.98657C80.6094 2.03001 80.6614 2.07345 80.7151 2.11821C80.8693 2.25069 81.0192 2.3865 81.1684 2.52436C81.2179 2.56896 81.2675 2.61356 81.3185 2.65951C82.0332 3.32527 82.5422 4.0964 82.9406 4.9743C82.9859 5.07297 82.9859 5.07297 83.032 5.17364C83.631 6.58135 83.5648 8.10692 82.9826 9.50445C82.3458 10.9583 81.3499 12.1316 80.0531 13.0785C80.0185 13.1047 79.9839 13.1309 79.9483 13.1579C79.698 13.3348 79.5186 13.3821 79.2128 13.3399C79.0183 13.2183 78.9755 13.0398 78.9035 12.832C78.3768 11.4505 77.5156 10.1414 76.524 9.03761C76.4945 9.00476 76.465 8.97191 76.4347 8.93806C75.8709 8.31441 75.281 7.71799 74.61 7.20413C74.4919 7.11366 74.3744 7.02242 74.2569 6.93126C72.3818 5.48421 70.3234 4.25131 67.9494 3.768C67.724 3.71945 67.724 3.71945 67.6018 3.59994C67.6525 3.07411 68.0756 2.69428 68.4638 2.3682C68.5222 2.32114 68.5805 2.27408 68.6407 2.22559C68.6732 2.19921 68.7057 2.17284 68.7392 2.14567C71.0506 0.28152 74.2107 -0.484253 77.1351 0.313438Z" fill="#404231"/>
<path d="M64.6813 7.74735C65.0428 7.82239 65.3876 7.95047 65.7342 8.07407C65.7755 8.08863 65.8168 8.10318 65.8594 8.11817C67.8215 8.81009 69.8233 9.64741 71.4519 10.9498C71.4854 10.9765 71.5189 11.0033 71.5534 11.0309C72.8065 12.0395 74.059 13.2861 74.5669 14.8359C74.5686 15.0131 74.5686 15.0131 74.4406 15.1686C74.2374 15.3325 74.1269 15.3609 73.8682 15.3912C73.7909 15.4007 73.7136 15.4103 73.6339 15.4201C73.5508 15.4289 73.4677 15.4376 73.3845 15.4463C73.2988 15.4561 73.213 15.4659 73.1272 15.4758C72.407 15.5562 71.6878 15.6005 70.963 15.6106C70.909 15.6115 70.8551 15.6124 70.7995 15.6134C70.4261 15.6188 70.0531 15.6171 69.6797 15.6106C69.6279 15.6099 69.5761 15.6091 69.5228 15.6083C68.3046 15.5862 67.0993 15.4233 65.9519 15.0131C65.8884 14.9918 65.8249 14.9706 65.7595 14.9487C64.7927 14.5963 63.9669 13.9142 63.5231 12.9988C62.8841 11.6004 63.1878 10.0507 63.7204 8.66765C64.1186 7.67082 64.1186 7.67082 64.6813 7.74735Z" fill="#404231"/>
<path d="M38.3391 2.41552C38.3124 3.07282 38.3324 3.7165 38.3124 4.38369C38.3106 4.44362 38.3106 4.44362 38.3087 4.50476C38.2947 4.96586 38.3087 5.39572 38.3124 5.90563C38.066 5.99164 37.736 6.0255 37.4774 6.06312C37.4044 6.07405 37.3315 6.08497 37.2563 6.09623C37.1775 6.10787 37.0988 6.11951 37.0176 6.13151C33.7166 6.63367 30.4908 7.44808 27.2781 8.33123C27.2781 7.02977 27.2781 5.72831 27.2781 4.38742C29.0588 3.95211 29.0588 3.95211 29.9211 3.76747C29.9732 3.75628 30.0253 3.74509 30.079 3.73357C36.2048 2.61957 36.2627 2.56291 38.3391 2.41552Z" fill="#404231"/>
<path d="M97.9252 28.4147H110.348V30.8215H97.9252V28.4147ZM98.4156 38.8576H112.269V41.3051H95.4733V18.2574H111.778V20.7049H98.4156V38.8576Z" fill="#404231"/>
<path d="M141.3 35.0231C141.3 36.3013 140.945 37.4298 140.237 38.4089C139.556 39.3879 138.548 40.1629 137.213 40.734C135.905 41.2779 134.284 41.5499 132.35 41.5499C130.579 41.5499 128.877 41.2779 127.242 40.734C125.635 40.1901 124.368 39.4967 123.442 38.6536L124.667 36.3692C125.512 37.1579 126.629 37.8106 128.018 38.3273C129.435 38.8168 130.906 39.0615 132.432 39.0615C134.557 39.0615 136.069 38.6944 136.968 37.9601C137.894 37.1987 138.357 36.3013 138.357 35.2678C138.357 34.3976 138.098 33.7177 137.581 33.2282C137.063 32.7115 136.382 32.3036 135.538 32.0044C134.693 31.6781 133.767 31.4062 132.759 31.1886C131.751 30.971 130.743 30.7263 129.735 30.4543C128.727 30.1824 127.787 29.8152 126.915 29.3529C126.071 28.8906 125.389 28.2787 124.872 27.5173C124.381 26.7558 124.136 25.7496 124.136 24.4986C124.136 23.2477 124.477 22.1327 125.158 21.1536C125.839 20.1746 126.833 19.3996 128.141 18.8285C129.449 18.2574 131.056 17.9718 132.963 17.9718C134.325 17.9718 135.66 18.1486 136.968 18.5021C138.303 18.8285 139.447 19.3316 140.4 20.0115L139.338 22.3774C138.357 21.6975 137.308 21.2216 136.191 20.9497C135.074 20.6505 133.971 20.501 132.881 20.501C130.865 20.501 129.381 20.8817 128.427 21.6432C127.501 22.3774 127.038 23.2884 127.038 24.3762C127.038 25.2465 127.296 25.94 127.814 26.4567C128.332 26.9462 129.013 27.3541 129.857 27.6804C130.702 27.9796 131.628 28.2379 132.636 28.4555C133.671 28.6731 134.693 28.9178 135.701 29.1898C136.709 29.4617 137.635 29.8288 138.48 30.2912C139.324 30.7263 140.005 31.3246 140.523 32.086C141.041 32.8475 141.3 33.8265 141.3 35.0231Z" fill="#404231"/>
<path d="M154.721 41.3051V18.2574H157.663V41.3051H154.721Z" fill="#404231"/>
<path d="M181.865 41.5499C179.74 41.5499 177.696 41.2099 175.735 40.5301C173.801 39.823 172.302 38.9256 171.24 37.8378L172.425 35.5126C173.433 36.4916 174.781 37.3211 176.471 38.0009C178.187 38.6536 179.985 38.98 181.865 38.98C183.663 38.98 185.12 38.7624 186.237 38.3273C187.381 37.865 188.212 37.2531 188.73 36.4916C189.275 35.7302 189.547 34.8871 189.547 33.9625C189.547 32.8475 189.22 31.9501 188.567 31.2702C187.94 30.5903 187.109 30.06 186.074 29.6793C185.039 29.2713 183.894 28.9178 182.641 28.6187C181.388 28.3195 180.135 28.0068 178.882 27.6804C177.628 27.3269 176.471 26.8646 175.408 26.2935C174.373 25.7224 173.528 24.9745 172.874 24.0499C172.248 23.0981 171.935 21.8607 171.935 20.3378C171.935 18.9237 172.302 17.6319 173.038 16.4625C173.801 15.2659 174.959 14.3141 176.511 13.607C178.064 12.8728 180.053 12.5056 182.478 12.5056C184.085 12.5056 185.679 12.7368 187.259 13.1991C188.839 13.6342 190.201 14.2461 191.345 15.0348L190.324 17.4415C189.098 16.6257 187.79 16.0274 186.401 15.6467C185.039 15.2659 183.717 15.0756 182.437 15.0756C180.721 15.0756 179.304 15.3067 178.187 15.769C177.07 16.2313 176.239 16.8568 175.694 17.6455C175.176 18.4069 174.918 19.2772 174.918 20.2562C174.918 21.3712 175.231 22.2686 175.858 22.9485C176.511 23.6284 177.356 24.1587 178.391 24.5394C179.454 24.9201 180.612 25.2601 181.865 25.5592C183.118 25.8584 184.357 26.1847 185.583 26.5382C186.837 26.8918 187.981 27.3541 189.016 27.9252C190.079 28.4691 190.923 29.2034 191.55 30.128C192.204 31.0526 192.53 32.2628 192.53 33.7585C192.53 35.1455 192.149 36.4372 191.386 37.6338C190.623 38.8032 189.452 39.755 187.872 40.4893C186.319 41.1964 184.317 41.5499 181.865 41.5499Z" fill="#404231"/>
<path d="M208.559 28.4147H220.982V30.8215H208.559V28.4147ZM209.049 38.8576H222.903V41.3051H206.107V18.2574H222.412V20.7049H209.049V38.8576Z" fill="#404231"/>
<path d="M236.609 41.3051V18.2574H239.02L254.712 37.6746H253.568V18.2574H256.51V41.3051H254.058L238.366 21.8471H239.551V41.3051H236.609Z" fill="#404231"/>
<path d="M287.783 35.0231C287.783 36.3013 287.429 37.4298 286.72 38.4089C286.039 39.3879 285.031 40.1629 283.696 40.734C282.389 41.2779 280.768 41.5499 278.833 41.5499C277.063 41.5499 275.36 41.2779 273.725 40.734C272.118 40.1901 270.851 39.4967 269.925 38.6536L271.151 36.3692C271.995 37.1579 273.112 37.8106 274.502 38.3273C275.918 38.8168 277.39 39.0615 278.915 39.0615C281.04 39.0615 282.552 38.6944 283.451 37.9601C284.377 37.1987 284.841 36.3013 284.841 35.2678C284.841 34.3976 284.582 33.7177 284.064 33.2282C283.547 32.7115 282.865 32.3036 282.021 32.0044C281.176 31.6781 280.25 31.4062 279.242 31.1886C278.234 30.971 277.226 30.7263 276.218 30.4543C275.21 30.1824 274.27 29.8152 273.398 29.3529C272.554 28.8906 271.873 28.2787 271.355 27.5173C270.865 26.7558 270.62 25.7496 270.62 24.4986C270.62 23.2477 270.96 22.1327 271.641 21.1536C272.322 20.1746 273.317 19.3996 274.624 18.8285C275.932 18.2574 277.539 17.9718 279.446 17.9718C280.809 17.9718 282.144 18.1486 283.451 18.5021C284.786 18.8285 285.93 19.3316 286.884 20.0115L285.821 22.3774C284.841 21.6975 283.792 21.2216 282.675 20.9497C281.558 20.6505 280.454 20.501 279.365 20.501C277.349 20.501 275.864 20.8817 274.91 21.6432C273.984 22.3774 273.521 23.2884 273.521 24.3762C273.521 25.2465 273.78 25.94 274.297 26.4567C274.815 26.9462 275.496 27.3541 276.341 27.6804C277.185 27.9796 278.112 28.2379 279.12 28.4555C280.155 28.6731 281.176 28.9178 282.184 29.1898C283.192 29.4617 284.119 29.8288 284.963 30.2912C285.808 30.7263 286.489 31.3246 287.006 32.086C287.524 32.8475 287.783 33.8265 287.783 35.0231Z" fill="#404231"/>
<path d="M303.656 28.4147H316.079V30.8215H303.656V28.4147ZM304.147 38.8576H318V41.3051H301.204V18.2574H317.51V20.7049H304.147V38.8576Z" fill="#404231"/>
<path d="M109.498 64.3093C108.96 64.3093 108.462 64.221 108.006 64.0442C107.55 63.8606 107.155 63.6057 106.821 63.2793C106.487 62.953 106.225 62.5689 106.034 62.127C105.85 61.685 105.759 61.2023 105.759 60.6788C105.759 60.1553 105.85 59.6726 106.034 59.2307C106.225 58.7888 106.487 58.4046 106.821 58.0783C107.162 57.752 107.56 57.5004 108.016 57.3236C108.473 57.1401 108.97 57.0483 109.508 57.0483C110.026 57.0483 110.513 57.1367 110.969 57.3134C111.425 57.4834 111.81 57.7418 112.123 58.0885L111.643 58.5678C111.35 58.2687 111.027 58.0545 110.673 57.9253C110.318 57.7894 109.937 57.7214 109.528 57.7214C109.099 57.7214 108.701 57.7962 108.333 57.9457C107.965 58.0885 107.645 58.2959 107.373 58.5678C107.1 58.833 106.886 59.1457 106.729 59.506C106.579 59.8596 106.504 60.2505 106.504 60.6788C106.504 61.1071 106.579 61.5015 106.729 61.8618C106.886 62.2153 107.1 62.5281 107.373 62.8C107.645 63.0652 107.965 63.2725 108.333 63.4221C108.701 63.5649 109.099 63.6363 109.528 63.6363C109.937 63.6363 110.318 63.5683 110.673 63.4323C111.027 63.2963 111.35 63.0788 111.643 62.7796L112.123 63.2589C111.81 63.6057 111.425 63.8674 110.969 64.0442C110.513 64.221 110.022 64.3093 109.498 64.3093Z" fill="#404231"/>
<path d="M118.455 64.3093C117.542 64.3093 116.824 64.0476 116.299 63.5241C115.775 63.0006 115.513 62.2255 115.513 61.1989V57.1095H116.269V61.1683C116.269 62.0114 116.459 62.6335 116.841 63.0346C117.222 63.4357 117.76 63.6363 118.455 63.6363C119.156 63.6363 119.698 63.4357 120.079 63.0346C120.461 62.6335 120.651 62.0114 120.651 61.1683V57.1095H121.387V61.1989C121.387 62.2255 121.125 63.0006 120.6 63.5241C120.083 64.0476 119.367 64.3093 118.455 64.3093Z" fill="#404231"/>
<path d="M130.735 57.1095H131.48V64.2482H130.735V57.1095ZM126.26 64.2482H125.504V57.1095H126.26V64.2482ZM130.806 60.9542H126.178V60.2913H130.806V60.9542Z" fill="#404231"/>
<path d="M136.307 62.4737L136.277 61.5559L140.608 57.1095H141.477L138.32 60.4137L137.891 60.8726L136.307 62.4737ZM135.654 64.2482V57.1095H136.41V64.2482H135.654ZM140.792 64.2482L137.707 60.6992L138.218 60.1485L141.691 64.2482H140.792Z" fill="#404231"/>
<path d="M148.502 64.2482V63.7281L151.475 60.8216C151.747 60.5564 151.952 60.3253 152.088 60.1281C152.224 59.9242 152.316 59.7338 152.364 59.557C152.411 59.3803 152.435 59.2137 152.435 59.0573C152.435 58.6426 152.292 58.3163 152.006 58.0783C151.727 57.8403 151.312 57.7214 150.76 57.7214C150.338 57.7214 149.963 57.786 149.636 57.9151C149.316 58.0443 149.04 58.2449 148.809 58.5168L148.287 58.0681C148.567 57.7418 148.924 57.4902 149.36 57.3134C149.796 57.1367 150.283 57.0483 150.821 57.0483C151.305 57.0483 151.724 57.1265 152.078 57.2828C152.432 57.4324 152.704 57.6534 152.895 57.9457C153.093 58.2381 153.191 58.5814 153.191 58.9757C153.191 59.2069 153.157 59.4347 153.089 59.659C153.028 59.8834 152.912 60.1213 152.742 60.3729C152.578 60.6176 152.337 60.8964 152.016 61.2091L149.289 63.881L149.084 63.5955H153.518V64.2482H148.502Z" fill="#404231"/>
<path d="M159.111 64.3093C158.559 64.3093 158.069 64.1666 157.64 63.881C157.21 63.5887 156.873 63.174 156.628 62.6369C156.383 62.093 156.26 61.4403 156.26 60.6788C156.26 59.9174 156.383 59.2681 156.628 58.731C156.873 58.1871 157.21 57.7724 157.64 57.4868C158.069 57.1945 158.559 57.0483 159.111 57.0483C159.662 57.0483 160.153 57.1945 160.582 57.4868C161.011 57.7724 161.348 58.1871 161.593 58.731C161.845 59.2681 161.971 59.9174 161.971 60.6788C161.971 61.4403 161.845 62.093 161.593 62.6369C161.348 63.174 161.011 63.5887 160.582 63.881C160.153 64.1666 159.662 64.3093 159.111 64.3093ZM159.111 63.6363C159.533 63.6363 159.901 63.5241 160.214 63.2997C160.527 63.0686 160.772 62.7354 160.95 62.3003C161.127 61.8584 161.215 61.3179 161.215 60.6788C161.215 60.0397 161.127 59.5026 160.95 59.0675C160.772 58.6256 160.527 58.2925 160.214 58.0681C159.901 57.8369 159.533 57.7214 159.111 57.7214C158.702 57.7214 158.338 57.8369 158.018 58.0681C157.697 58.2925 157.449 58.6256 157.272 59.0675C157.095 59.5026 157.006 60.0397 157.006 60.6788C157.006 61.3179 157.095 61.8584 157.272 62.3003C157.449 62.7354 157.697 63.0686 158.018 63.2997C158.338 63.5241 158.702 63.6363 159.111 63.6363Z" fill="#404231"/>
<path d="M164.731 64.2482V63.7281L167.704 60.8216C167.976 60.5564 168.18 60.3253 168.317 60.1281C168.453 59.9242 168.545 59.7338 168.592 59.557C168.64 59.3803 168.664 59.2137 168.664 59.0573C168.664 58.6426 168.521 58.3163 168.235 58.0783C167.956 57.8403 167.54 57.7214 166.988 57.7214C166.566 57.7214 166.192 57.786 165.865 57.9151C165.545 58.0443 165.269 58.2449 165.037 58.5168L164.516 58.0681C164.795 57.7418 165.153 57.4902 165.589 57.3134C166.025 57.1367 166.512 57.0483 167.05 57.0483C167.533 57.0483 167.952 57.1265 168.306 57.2828C168.661 57.4324 168.933 57.6534 169.124 57.9457C169.321 58.2381 169.42 58.5814 169.42 58.9757C169.42 59.2069 169.386 59.4347 169.318 59.659C169.256 59.8834 169.141 60.1213 168.97 60.3729C168.807 60.6176 168.565 60.8964 168.245 61.2091L165.517 63.881L165.313 63.5955H169.747V64.2482H164.731Z" fill="#404231"/>
<path d="M172.157 62.3717V61.8414L175.947 57.1095H176.764L173.005 61.8414L172.606 61.719H178.358V62.3717H172.157ZM176.192 64.2482V62.3717L176.213 61.719V60.0669H176.928V64.2482H176.192Z" fill="#404231"/>
<path d="M185.866 64.2482V58.8941H186.591V64.2482H185.866ZM186.233 57.7112C186.083 57.7112 185.957 57.6602 185.855 57.5582C185.753 57.4562 185.702 57.3338 185.702 57.1911C185.702 57.0483 185.753 56.9293 185.855 56.8341C185.957 56.7321 186.083 56.6812 186.233 56.6812C186.383 56.6812 186.509 56.7287 186.611 56.8239C186.714 56.9191 186.765 57.0381 186.765 57.1809C186.765 57.3304 186.714 57.4562 186.611 57.5582C186.516 57.6602 186.39 57.7112 186.233 57.7112Z" fill="#404231"/>
<path d="M193.738 64.3093C193.193 64.3093 192.689 64.221 192.226 64.0442C191.769 63.8606 191.371 63.6057 191.03 63.2793C190.697 62.953 190.434 62.5689 190.244 62.127C190.06 61.685 189.968 61.2023 189.968 60.6788C189.968 60.1553 190.06 59.6726 190.244 59.2307C190.434 58.7888 190.7 58.4046 191.041 58.0783C191.381 57.752 191.78 57.5004 192.236 57.3236C192.699 57.1401 193.203 57.0483 193.748 57.0483C194.293 57.0483 194.79 57.1333 195.24 57.3032C195.696 57.4732 196.084 57.7316 196.404 58.0783L195.934 58.5576C195.635 58.2585 195.304 58.0443 194.943 57.9151C194.582 57.786 194.194 57.7214 193.779 57.7214C193.336 57.7214 192.927 57.7962 192.553 57.9457C192.185 58.0885 191.861 58.2959 191.582 58.5678C191.31 58.833 191.095 59.1457 190.938 59.506C190.789 59.8596 190.714 60.2505 190.714 60.6788C190.714 61.1003 190.789 61.4913 190.938 61.8516C191.095 62.2119 191.31 62.5281 191.582 62.8C191.861 63.0652 192.185 63.2725 192.553 63.4221C192.927 63.5649 193.332 63.6363 193.768 63.6363C194.177 63.6363 194.562 63.5751 194.923 63.4527C195.291 63.3303 195.628 63.123 195.934 62.8306L196.363 63.4017C196.023 63.7009 195.624 63.9286 195.168 64.085C194.712 64.2346 194.235 64.3093 193.738 64.3093ZM195.638 63.3099V60.6788H196.363V63.4017L195.638 63.3099Z" fill="#404231"/>
<path d="M201.016 60.3015H204.796V60.944H201.016V60.3015ZM201.098 63.5955H205.399V64.2482H200.342V57.1095H205.246V57.7622H201.098V63.5955Z" fill="#404231"/>
<path d="M209.015 64.2482V57.1095H209.638L212.907 62.6777H212.58L215.819 57.1095H216.442V64.2482H215.717V58.2415H215.89L212.907 63.3405H212.55L209.546 58.2415H209.74V64.2482H209.015Z" fill="#404231"/>
<path d="M226.513 64.2482V57.7622H224V57.1095H229.782V57.7622H227.269V64.2482H226.513Z" fill="#404231"/>
<path d="M234.395 64.2992C233.837 64.2992 233.347 64.1836 232.924 63.9524C232.502 63.7145 232.172 63.3915 231.933 62.9836C231.695 62.5689 231.576 62.0964 231.576 61.5661C231.576 61.0358 231.688 60.5666 231.913 60.1587C232.144 59.7508 232.458 59.4312 232.853 59.2001C233.255 58.9621 233.704 58.8432 234.201 58.8432C234.705 58.8432 235.151 58.9587 235.54 59.1899C235.935 59.4143 236.245 59.7338 236.469 60.1485C236.694 60.5564 236.806 61.029 236.806 61.5661C236.806 61.6 236.803 61.6374 236.796 61.6782C236.796 61.7122 236.796 61.7496 236.796 61.7904H232.127V61.2499H236.408L236.122 61.4641C236.122 61.0765 236.037 60.7332 235.867 60.4341C235.703 60.1281 235.478 59.8902 235.192 59.7202C234.906 59.5502 234.576 59.4652 234.201 59.4652C233.834 59.4652 233.503 59.5502 233.21 59.7202C232.917 59.8902 232.689 60.1281 232.526 60.4341C232.362 60.74 232.281 61.0901 232.281 61.4845V61.5967C232.281 62.0046 232.369 62.3649 232.546 62.6777C232.73 62.9836 232.982 63.2249 233.302 63.4017C233.629 63.5717 234 63.6567 234.416 63.6567C234.743 63.6567 235.046 63.5989 235.325 63.4833C235.611 63.3677 235.856 63.191 236.061 62.953L236.469 63.4221C236.231 63.7077 235.931 63.9252 235.57 64.0748C235.216 64.2244 234.825 64.2992 234.395 64.2992Z" fill="#404231"/>
<path d="M243.333 64.2482V63.0652L243.303 62.8714V60.893C243.303 60.4375 243.173 60.0873 242.914 59.8426C242.662 59.5978 242.284 59.4754 241.78 59.4754C241.433 59.4754 241.103 59.5332 240.789 59.6488C240.476 59.7644 240.211 59.9174 239.993 60.1077L239.666 59.5672C239.938 59.3361 240.265 59.1593 240.646 59.0369C241.028 58.9077 241.43 58.8432 241.852 58.8432C242.547 58.8432 243.081 59.0165 243.456 59.3633C243.837 59.7032 244.028 60.2233 244.028 60.9236V64.2482H243.333ZM241.484 64.2992C241.082 64.2992 240.732 64.2346 240.432 64.1054C240.139 63.9694 239.914 63.7858 239.758 63.5547C239.601 63.3167 239.523 63.0448 239.523 62.7388C239.523 62.4601 239.587 62.2085 239.717 61.9842C239.853 61.753 240.071 61.5695 240.371 61.4335C240.677 61.2907 241.086 61.2193 241.597 61.2193H243.446V61.7598H241.617C241.099 61.7598 240.738 61.8516 240.534 62.0352C240.337 62.2187 240.238 62.4465 240.238 62.7184C240.238 63.0244 240.357 63.2691 240.595 63.4527C240.834 63.6363 241.167 63.7281 241.597 63.7281C242.005 63.7281 242.356 63.6363 242.649 63.4527C242.948 63.2623 243.166 62.9904 243.303 62.6369L243.466 63.1366C243.33 63.4901 243.092 63.7723 242.751 63.983C242.417 64.1938 241.995 64.2992 241.484 64.2992Z" fill="#404231"/>
<path d="M254.539 58.8432C254.975 58.8432 255.353 58.9281 255.673 59.0981C256 59.2613 256.252 59.5128 256.429 59.8528C256.613 60.1927 256.705 60.621 256.705 61.1377V64.2482H255.979V61.2091C255.979 60.6448 255.843 60.2199 255.571 59.9344C255.305 59.642 254.927 59.4958 254.437 59.4958C254.069 59.4958 253.749 59.574 253.476 59.7304C253.211 59.88 253.003 60.1009 252.853 60.3933C252.71 60.6788 252.639 61.0256 252.639 61.4335V64.2482H251.913V61.2091C251.913 60.6448 251.777 60.2199 251.505 59.9344C251.232 59.642 250.851 59.4958 250.36 59.4958C249.999 59.4958 249.683 59.574 249.41 59.7304C249.138 59.88 248.927 60.1009 248.777 60.3933C248.634 60.6788 248.562 61.0256 248.562 61.4335V64.2482H247.837V58.8941H248.532V60.3423L248.419 60.0873C248.583 59.6998 248.845 59.3973 249.206 59.1797C249.574 58.9553 250.006 58.8432 250.503 58.8432C251.028 58.8432 251.474 58.9757 251.842 59.2409C252.21 59.4992 252.448 59.8902 252.557 60.4137L252.271 60.3015C252.428 59.8664 252.703 59.5162 253.098 59.2511C253.5 58.9791 253.98 58.8432 254.539 58.8432Z" fill="#404231"/>
</svg>
