<svg width="1620" height="433" viewBox="0 0 1620 433" fill="none" xmlns="http://www.w3.org/2000/svg">
<path d="M130.725 4.2221C133.928 7.18207 135.175 10.6022 135.311 14.8617C135.325 15.7634 135.327 16.665 135.329 17.5668C135.334 18.0853 135.338 18.6038 135.344 19.1223C135.357 20.5735 135.364 22.0247 135.371 23.4759C135.379 25.0741 135.392 26.6723 135.405 28.2705C135.429 31.4879 135.448 34.7053 135.465 37.9227C135.486 41.6524 135.509 45.382 135.533 49.1116C135.578 55.9686 135.621 62.8256 135.662 69.6827C135.667 70.571 135.673 71.4593 135.678 72.3477C135.778 89.046 135.824 105.744 135.803 122.442C135.944 122.337 136.085 122.232 136.23 122.124C136.878 121.643 137.526 121.163 138.175 120.684C138.396 120.519 138.618 120.353 138.846 120.183C142.862 117.22 147.322 115.534 152.404 116.182C160.333 117.465 166.126 122.977 170.671 129.139C171.799 130.732 172.902 132.341 174.009 133.948C178.675 141.068 178.675 141.069 185.747 145.494C186.968 145.697 187.628 145.651 188.767 145.139C192.118 142.218 193.906 138.614 195.674 134.637C195.843 134.263 196.012 133.888 196.181 133.514C197.185 131.28 197.802 129.607 197.815 127.155C197.818 126.887 197.82 126.618 197.823 126.342C197.831 125.436 197.837 124.53 197.844 123.624C197.849 122.973 197.855 122.323 197.861 121.672C197.876 119.889 197.89 118.106 197.903 116.323C197.918 114.428 197.934 112.532 197.95 110.636C197.977 107.396 198.002 104.157 198.028 100.917C198.054 97.5569 198.081 94.1972 198.109 90.8374C198.111 90.63 198.113 90.4226 198.114 90.2089C198.121 89.3706 198.128 88.5323 198.135 87.694C198.258 73.1144 198.377 58.5348 198.447 43.9548C198.455 42.383 198.463 40.8113 198.472 39.2395C198.476 38.4941 198.48 37.7486 198.484 37.0031C198.486 36.5222 198.489 36.0412 198.491 35.5603C198.506 32.8367 198.517 30.1131 198.524 27.3894C198.528 25.5384 198.537 23.6874 198.547 21.8363C198.551 21.1028 198.553 20.3693 198.553 19.6357C198.553 14.0523 198.767 8.55327 203.048 4.33625C205.918 2.20547 206.851 1.89432 207.121 1.7455C207.391 1.59669 207.425 1.6057 207.711 1.45689C212.434 -0.274794 217.841 -0.122417 222.662 1.29228C223.401 1.85665 223.571 2.04759 223.712 2.96647C223.573 3.87534 223.387 4.07862 222.662 4.64065C222.038 4.78571 222.038 4.78571 221.329 4.8309C221.068 4.85062 220.808 4.87033 220.539 4.89065C220.264 4.9086 219.988 4.92655 219.704 4.94505C215.805 5.26985 212.2 5.71793 209.508 8.78806C207.431 12.706 207.051 15.9351 207.07 20.2937C207.124 33.5399 207.105 46.7844 206.978 60.0302C206.939 64.1016 206.904 68.1731 206.87 72.2447C206.868 72.4619 206.867 72.6792 206.865 72.9031C206.771 84.1091 206.711 95.3153 206.655 106.522C206.65 107.332 206.646 108.142 206.642 108.953C206.616 114.031 206.591 119.109 206.566 124.187C206.496 138.098 206.424 152.008 206.35 165.919C206.347 166.422 206.347 166.422 206.345 166.935C206.183 197.282 205.996 227.63 205.714 271.229C205.711 271.623 205.709 272.017 205.706 272.422C205.702 273.012 205.702 273.012 205.698 273.613C205.675 277.144 205.653 280.675 205.63 284.206C205.5 304.253 205.369 324.3 205.228 344.348C205.226 344.621 205.224 344.894 205.222 345.176C205.177 351.493 205.132 357.811 205.082 364.128C205.07 365.644 205.058 367.16 205.047 368.676C205 375.12 204.943 381.564 204.807 388.006C204.796 388.545 204.786 389.083 204.777 389.621C204.595 399.725 202.365 408.32 194.85 415.68C186.161 423.722 173.858 425.19 162.419 424.994C154.185 424.748 146.359 422.828 139.851 417.707C139.635 417.546 139.42 417.386 139.198 417.22C134.073 413.175 131.275 406.8 129.83 400.68C129.778 400.462 129.726 400.245 129.672 400.02C128.814 396.17 128.896 392.221 128.867 388.302C128.861 387.699 128.856 387.097 128.85 386.495C128.834 384.853 128.821 383.212 128.807 381.57C128.793 379.813 128.777 378.055 128.761 376.298C128.73 372.882 128.701 369.466 128.673 366.05C128.65 363.26 128.626 360.469 128.602 357.678C128.354 328.793 128.156 299.908 127.955 253.238C127.952 252.536 127.949 251.835 127.946 251.133C127.939 249.344 127.932 247.555 127.925 245.765C127.922 245.036 127.919 244.306 127.916 243.576C127.911 242.467 127.907 241.359 127.902 240.25C127.9 239.696 127.9 239.696 127.898 239.131C127.89 237.254 127.883 235.377 127.875 233.5C127.791 212.247 127.688 190.995 127.567 169.743C127.562 168.868 127.557 167.993 127.552 167.119C127.485 155.251 127.416 143.383 127.345 131.516C127.308 125.373 127.271 119.229 127.235 113.086C127.232 112.509 127.228 111.932 127.225 111.355C127.135 96.0674 127.063 80.7804 127.027 65.4931C127.022 63.0951 127.015 60.6972 127.008 58.2992C127.004 56.6312 126.999 54.9633 126.995 53.2954C126.993 52.687 126.991 52.0785 126.99 51.4701C126.977 46.8438 126.968 42.2175 126.966 37.5912C126.965 34.792 126.959 31.9929 126.95 29.1938C126.945 27.3192 126.944 25.4446 126.947 23.5699C126.948 22.4459 126.944 21.3219 126.938 20.1979C126.936 19.6907 126.937 19.1835 126.939 18.6763C126.959 14.7852 126.737 10.9274 124.285 7.68462C121.923 5.37592 119.181 5.11838 115.971 4.91748C114.179 4.77422 114.179 4.77422 113.219 4.01164C113.07 3.81741 112.92 3.62318 112.766 3.42306C112.941 2.54792 112.941 2.54792 113.389 1.59668C114.381 1.19716 114.381 1.19716 115.568 0.987886C115.882 0.925104 116.197 0.862322 116.521 0.797638C121.707 0.314761 126.604 0.899492 130.725 4.2221Z" fill="#3C240A"/>
<path d="M211.453 186.975C214.606 187.317 214.606 187.317 215.682 187.576C215.929 187.635 216.175 187.694 216.429 187.754C216.69 187.818 216.951 187.882 217.22 187.947C217.504 188.015 217.789 188.084 218.082 188.154C219.025 188.38 219.967 188.61 220.91 188.839C221.581 189.001 222.253 189.164 222.924 189.326C225.12 189.857 227.315 190.394 229.51 190.932C230.083 191.072 230.083 191.072 230.668 191.216C244.824 194.689 258.896 198.366 272.921 202.316C274.217 202.681 275.513 203.044 276.81 203.406C281.812 204.802 286.776 206.286 291.719 207.868C292.949 208.261 294.18 208.649 295.411 209.037C301.423 210.93 307.414 212.848 313.341 214.983C314.492 215.391 315.65 215.779 316.808 216.167C328.062 219.938 339.044 224.439 349.99 228.981C350.503 229.194 350.503 229.194 351.026 229.411C354.344 230.791 357.621 232.213 360.832 233.82C362.076 234.44 363.337 235.023 364.6 235.606C377.218 241.433 389.704 248.09 401.047 256.073C401.247 256.213 401.448 256.354 401.655 256.498C407.911 260.87 413.985 265.418 419.587 270.578C420.285 271.214 420.998 271.833 421.71 272.453C424.553 274.951 424.553 274.951 425.329 275.859C425.329 276.059 425.329 276.26 425.329 276.467C425.638 276.568 425.946 276.668 426.263 276.772C426.733 277.227 426.733 277.227 427.236 277.818C428.066 278.777 428.914 279.711 429.785 280.634C438.463 290.066 444.933 301.733 447.433 314.213C447.488 314.464 447.543 314.716 447.599 314.976C448.162 317.827 448.193 320.66 448.192 323.554C448.192 323.946 448.192 323.946 448.193 324.347C448.182 328.828 447.756 333.019 446.499 337.347C446.424 337.615 446.349 337.883 446.272 338.16C443.423 348.098 437.655 357.376 430.439 364.867C429.857 365.478 429.301 366.096 428.747 366.731C427.305 368.347 425.757 369.86 424.207 371.375C423.699 371.873 423.193 372.373 422.687 372.874C420.659 374.868 418.557 376.691 416.301 378.44C415.955 378.725 415.61 379.012 415.268 379.301C403.403 389.318 389.888 397.422 376.452 405.227C376.188 405.381 375.924 405.535 375.652 405.693C374.947 406.103 374.24 406.512 373.534 406.92C373.34 407.033 373.146 407.145 372.946 407.261C370.103 408.896 367.182 410.387 364.253 411.867C362.13 412.943 360.024 414.036 357.948 415.196C354.221 417.274 350.35 419.051 346.471 420.841C344.715 421.656 343.006 422.521 341.302 423.436C339.025 424.637 336.66 425.659 334.307 426.708C332.408 427.557 330.525 428.423 328.665 429.351C326.919 430.213 325.165 431.056 323.392 431.862C323.055 432.022 323.055 432.022 322.711 432.186C321.103 432.903 319.688 433.134 317.924 432.927C316.499 432.37 315.814 431.515 315.122 430.188C314.91 429.011 315.002 428.024 315.492 426.916C316.599 425.573 317.906 424.818 319.497 424.114C319.863 423.951 320.228 423.787 320.605 423.618C320.989 423.449 321.373 423.28 321.757 423.111C324.757 421.78 327.715 420.395 330.655 418.943C331.559 418.499 332.465 418.06 333.371 417.621C334.315 417.164 335.258 416.705 336.202 416.247C336.677 416.016 337.152 415.785 337.628 415.555C340.614 414.112 343.55 412.61 346.442 410.993C348.286 409.963 350.147 408.964 352.037 408.016C360.159 403.918 367.997 399.084 375.549 394.054C376.208 393.615 376.87 393.18 377.531 392.745C382.674 389.345 387.645 385.77 392.43 381.903C393.129 381.342 393.838 380.795 394.548 380.248C395.834 379.244 397.091 378.21 398.342 377.166C398.525 377.014 398.708 376.862 398.896 376.705C399.733 376.002 400.522 375.298 401.293 374.525C401.98 373.874 401.98 373.874 402.603 373.874C402.706 373.573 402.809 373.272 402.914 372.961C403.425 372.545 403.945 372.141 404.471 371.744C405.235 371.032 405.931 370.352 406.553 369.518C406.755 369.263 406.755 369.263 406.962 369.004C407.167 369.004 407.373 369.004 407.584 369.004C407.667 368.822 407.75 368.641 407.836 368.453C408.215 367.773 408.582 367.377 409.16 366.854C410.488 365.591 411.632 364.209 412.786 362.795C413.212 362.279 413.644 361.768 414.077 361.259C416.406 358.497 418.439 355.619 420.348 352.567C420.471 352.375 420.593 352.184 420.719 351.986C426.606 342.703 429.366 331.971 426.886 321.214C425.401 315.401 421.882 310.032 417.98 305.5C417.728 305.207 417.728 305.207 417.471 304.908C417.321 304.736 417.17 304.563 417.015 304.386C416.589 303.832 416.287 303.273 415.99 302.645C415.784 302.645 415.579 302.645 415.367 302.645C414.906 302.177 414.906 302.177 414.375 301.542C413.465 300.488 412.516 299.609 411.409 298.757C411.277 298.634 411.145 298.511 411.009 298.384C411.009 298.183 411.009 297.982 411.009 297.775C410.83 297.698 410.651 297.62 410.467 297.541C409.684 297.124 409.122 296.641 408.47 296.049C407.042 294.784 405.551 293.644 404.004 292.524C403.735 292.328 403.465 292.132 403.188 291.93C399.246 289.072 395.255 286.302 391.084 283.773C390.743 283.566 390.401 283.359 390.049 283.145C386.624 281.094 383.105 279.2 379.593 277.294C378.702 276.81 377.812 276.325 376.922 275.84C376.396 275.554 375.869 275.269 375.343 274.983C375.118 274.861 374.893 274.738 374.661 274.611C370.401 272.313 365.984 270.299 361.587 268.268C361.328 268.148 361.069 268.028 360.801 267.905C353.399 264.469 353.399 264.469 345.835 261.395C344.907 261.026 344.002 260.636 343.093 260.227C341.216 259.387 339.314 258.618 337.401 257.861C337.035 257.716 336.668 257.57 336.29 257.421C335.15 256.97 334.009 256.521 332.868 256.073C332.53 255.94 332.193 255.807 331.845 255.671C325.105 253.03 318.297 250.567 311.484 248.113C310.846 247.883 310.208 247.653 309.57 247.423C305.318 245.892 301.034 244.465 296.732 243.075C293.771 242.117 290.82 241.133 287.872 240.135C283.239 238.568 278.585 237.1 273.895 235.706C271.953 235.126 270.014 234.536 268.074 233.947C267.692 233.831 267.309 233.715 266.915 233.596C265.371 233.128 263.827 232.66 262.289 232.174C258.427 230.955 254.529 229.86 250.627 228.771C248.499 228.175 246.374 227.575 244.262 226.926C238.08 225.026 231.835 223.38 225.579 221.733C223.689 221.235 221.799 220.736 219.91 220.236C219.165 220.039 218.419 219.843 217.673 219.648C217.215 219.526 216.757 219.405 216.299 219.284C215.903 219.18 215.507 219.075 215.099 218.968C213.865 218.609 212.659 218.161 211.453 217.719C211.453 207.573 211.453 197.428 211.453 186.975Z" fill="#3C240A"/>
<path d="M121.793 27.1662C121.793 33.9968 121.793 40.8275 121.793 47.8652C117.621 49.565 117.621 49.565 115.978 50.1957C100.506 56.1679 85.2817 62.9322 71.3595 71.9125C71.102 72.0775 71.102 72.0775 70.8393 72.2458C66.398 75.0935 62.1106 78.0928 57.9727 81.3488C57.6627 81.5913 57.6627 81.5913 57.3463 81.8387C54.1827 84.3185 51.1638 86.9095 48.2472 89.6637C47.761 90.1186 47.2676 90.5633 46.7689 91.0051C44.3045 93.2613 42.5325 95.8862 40.6859 98.6326C40.0771 99.5301 39.4431 100.408 38.8072 101.287C38.4719 101.764 38.1367 102.241 37.8042 102.72C37.5289 103.117 37.252 103.512 36.9742 103.907C34.5994 107.305 32.8379 110.523 31.8219 114.528C31.7578 114.777 31.6937 115.025 31.6277 115.282C29.444 124.082 30.4321 132.276 35.2465 140.097C39.406 146.344 46.1566 149.584 52.9916 152.273C53.306 152.399 53.6203 152.524 53.9441 152.654C74.6163 160.875 97.0627 164.695 118.956 168.332C119.23 168.377 119.504 168.423 119.787 168.47C120.145 168.529 120.145 168.529 120.509 168.59C121.15 168.707 121.783 168.861 122.416 169.015C122.416 178.357 122.416 187.699 122.416 197.324C120.146 196.954 117.889 196.58 115.634 196.142C115.22 196.062 115.22 196.062 114.797 195.981C113.906 195.808 113.014 195.634 112.123 195.46C111.814 195.399 111.505 195.339 111.187 195.277C106.04 194.269 100.918 193.179 95.8089 192.005C94.1437 191.623 92.476 191.253 90.8072 190.887C73.4737 187.071 55.6743 182.538 39.6698 174.824C39.1498 174.575 38.6283 174.328 38.1062 174.082C32.0692 171.241 26.2509 168.147 20.9258 164.145C20.616 163.922 20.3062 163.7 19.987 163.471C17.2042 161.457 14.6797 159.207 12.2088 156.839C11.7959 156.447 11.7959 156.447 11.3746 156.047C3.79033 148.389 -0.166569 138.241 0.00537491 127.659C0.320542 117.758 4.81312 108.681 9.71829 100.221C9.8444 100.003 9.97051 99.7855 10.1004 99.5609C15.8596 89.6882 23.9001 80.1126 32.762 72.7342C33.4802 72.1316 34.1775 71.5088 34.8768 70.8852C36.5117 69.4462 38.1951 68.0766 39.9162 66.7378C40.1203 66.5787 40.3243 66.4197 40.5345 66.2558C43.5938 63.8783 46.7023 61.6103 49.9516 59.4871C50.4472 59.1631 50.9407 58.8359 51.4338 58.5084C56.3125 55.2864 61.3251 52.3357 66.4709 49.5417C67.237 49.1238 67.9995 48.7005 68.7607 48.2742C72.1677 46.3757 75.6689 44.7107 79.2194 43.085C80.003 42.7242 80.7833 42.3577 81.5625 41.9877C112.663 28.8753 112.073 30.0298 121.793 27.1662Z" fill="#3C240A"/>
<path d="M290.216 11.9464C290.984 12.0407 291.752 12.1351 292.52 12.2294C304.222 13.7036 315.892 15.8685 327.263 18.9475C327.602 19.0392 327.941 19.1309 328.291 19.2254C338.983 22.1492 349.55 25.8289 359.291 31.0823C360.017 31.4625 360.754 31.8162 361.494 32.1697C363.018 32.9096 364.454 33.7468 365.886 34.643C366.265 34.8795 366.265 34.8795 366.653 35.1209C370.761 37.702 374.661 40.4384 378.319 43.6036C378.594 43.8383 378.868 44.0729 379.151 44.3147C388.985 52.8252 396.097 63.6351 397.932 76.4785C397.973 76.745 398.014 77.0114 398.056 77.2859C398.931 84.0491 397.9 91.0404 395.753 97.4819C395.681 97.7007 395.609 97.9195 395.535 98.145C394.491 101.285 393.217 104.272 391.706 107.223C391.552 107.526 391.552 107.526 391.396 107.836C387.799 114.908 382.93 121.317 377.49 127.136C376.903 127.769 376.332 128.411 375.762 129.058C374.501 130.47 373.159 131.794 371.801 133.115C371.564 133.348 371.328 133.58 371.084 133.82C369.603 135.265 368.08 136.639 366.489 137.967C366.175 138.234 365.861 138.501 365.546 138.768C362.829 141.044 360.01 143.172 357.149 145.272C356.954 145.417 356.759 145.561 356.558 145.71C350.929 149.876 344.923 153.445 338.782 156.839C338.544 156.971 338.306 157.103 338.061 157.239C334.292 159.309 330.345 160.972 326.372 162.629C325.726 162.873 325.726 162.873 325.395 163.232C325.6 163.295 325.806 163.359 326.018 163.425C326.651 163.621 327.284 163.816 327.917 164.012C328.673 164.246 329.429 164.481 330.185 164.715C332.076 165.3 333.967 165.886 335.858 166.472C336.931 166.805 338.003 167.137 339.076 167.469C339.29 167.536 339.503 167.602 339.724 167.67C342.507 168.533 345.292 169.389 348.08 170.238C348.946 170.502 349.813 170.768 350.679 171.033C351.214 171.196 351.749 171.358 352.284 171.519C353.02 171.741 353.755 171.966 354.49 172.191C354.698 172.253 354.907 172.315 355.122 172.379C357.403 173.086 359.07 173.909 360.263 176.016C360.775 177.518 360.758 178.836 360.243 180.316C359.295 181.691 358.152 182.792 356.527 183.322C354.716 183.427 353.323 183.192 351.626 182.551C351.287 182.429 351.287 182.429 350.942 182.304C350.458 182.129 349.975 181.952 349.493 181.773C348.738 181.493 347.982 181.219 347.225 180.946C345.908 180.471 344.594 179.99 343.281 179.507C342.477 179.212 341.673 178.918 340.87 178.624C338.115 177.614 335.372 176.584 332.646 175.504C331.145 174.917 329.632 174.36 328.115 173.813C326.977 173.401 325.842 172.981 324.708 172.56C320.674 171.07 316.636 169.703 312.497 168.521C309.261 167.587 309.261 167.587 308.272 166.276C307.938 164.557 307.989 163.156 308.388 161.447C308.437 161.223 308.486 160.999 308.536 160.768C308.697 160.035 308.864 159.303 309.031 158.571C309.147 158.049 309.263 157.528 309.379 157.006C309.73 155.427 310.09 153.85 310.451 152.273C310.529 151.936 310.529 151.936 310.607 151.592C311.191 149.038 311.789 146.488 312.395 143.939C312.817 142.16 313.229 140.379 313.638 138.597C313.97 137.154 314.304 135.711 314.639 134.268C314.804 133.556 314.967 132.843 315.13 132.13C315.359 131.125 315.592 130.121 315.827 129.117C315.894 128.817 315.961 128.517 316.031 128.208C316.519 126.141 317.108 124.246 318.585 122.633C320.051 121.823 321.592 121.395 323.282 121.622C324.952 122.13 326.003 123.162 326.951 124.573C327.646 126.612 327.253 128.61 326.636 130.629C325.84 133.411 325.175 136.217 324.533 139.036C324.482 139.259 324.431 139.482 324.378 139.712C324.062 141.095 323.748 142.478 323.435 143.861C323.164 145.053 322.892 146.245 322.62 147.437C322.091 149.759 321.563 152.082 321.036 154.404C324.431 153.101 327.814 151.799 331.096 150.238C331.581 150.008 331.581 150.008 332.076 149.774C335.538 148.114 338.879 146.263 342.206 144.359C342.479 144.205 342.751 144.051 343.032 143.893C348.376 140.876 353.308 137.578 357.772 133.401C358.858 132.446 359.953 131.509 361.099 130.623C362.605 129.43 363.836 128.025 365.072 126.574C365.232 126.416 365.391 126.258 365.555 126.095C365.76 126.095 365.966 126.095 366.178 126.095C366.284 125.845 366.284 125.845 366.393 125.589C366.92 124.669 367.593 124.004 368.337 123.242C377.791 113.345 386.595 99.5285 387.036 85.6104C387.048 85.2844 387.061 84.9583 387.074 84.6223C387.191 78.6842 386.056 73.2724 383.3 67.9554C383.16 67.6811 383.019 67.4069 382.875 67.1243C377.667 57.3679 368.348 50.3738 358.706 45.1256C358.429 44.9747 358.152 44.8237 357.866 44.6681C339.665 34.8613 318.784 30.2766 298.31 27.775C297.982 27.7339 297.655 27.6928 297.317 27.6504C293.027 27.1153 288.727 26.7168 284.417 26.3672C284.072 26.3386 284.072 26.3386 283.72 26.3095C275.605 25.6442 267.496 25.587 259.358 25.5878C258.133 25.5878 256.908 25.5858 255.683 25.5816C245.372 25.547 235.115 25.855 224.839 26.7096C224.351 26.7487 223.864 26.7877 223.377 26.8265C221.996 26.9371 220.615 27.0511 219.235 27.1662C218.836 27.1993 218.437 27.2324 218.025 27.2665C216.041 27.4317 214.058 27.6017 212.075 27.775C212.067 25.9345 212.061 24.0939 212.058 22.2533C212.056 21.6287 212.054 21.004 212.051 20.3794C212.023 13.7202 212.023 13.7202 212.386 10.7288C236.823 6.23312 265.728 8.78988 290.216 11.9464Z" fill="#3C240A"/>
<path d="M392.952 1.59669C393.213 1.66531 393.473 1.73393 393.742 1.80463C399.724 3.42685 405.658 6.14274 410.386 10.1198C410.651 10.3411 410.917 10.5624 411.19 10.7904C411.975 11.4653 412.74 12.1571 413.499 12.8594C413.752 13.0866 414.004 13.3138 414.264 13.5478C417.905 16.9393 420.498 20.8676 422.528 25.3397C422.758 25.8423 422.758 25.8423 422.993 26.3551C426.045 33.5262 425.707 41.2976 422.742 48.4168C419.497 55.8231 414.424 61.7997 407.818 66.6235C407.642 66.7569 407.465 66.8903 407.284 67.0278C406.009 67.929 405.095 68.1702 403.537 67.9553C402.546 67.3358 402.328 66.4264 401.961 65.3679C399.278 58.3302 394.891 51.6613 389.839 46.0387C389.689 45.8713 389.539 45.704 389.384 45.5315C386.512 42.3546 383.507 39.3163 380.089 36.6987C379.487 36.2378 378.889 35.7731 378.29 35.3087C368.738 27.9372 358.251 21.6567 346.157 19.1946C345.009 18.9473 345.009 18.9473 344.387 18.3385C344.645 15.6599 346.8 13.725 348.778 12.0639C349.075 11.8242 349.373 11.5844 349.679 11.3374C349.845 11.2031 350.01 11.0687 350.181 10.9303C361.956 1.4341 378.054 -2.46684 392.952 1.59669Z" fill="#3C240A"/>
<path d="M329.508 39.4659C331.35 39.8482 333.107 40.5006 334.872 41.1303C335.083 41.2044 335.293 41.2785 335.51 41.3549C345.506 44.8796 355.703 49.145 364 55.7794C364.171 55.9158 364.342 56.0522 364.517 56.1927C370.901 61.3304 377.281 67.6811 379.869 75.5759C379.878 76.4784 379.878 76.4784 379.225 77.2705C378.191 78.1054 377.628 78.2501 376.31 78.4046C375.916 78.4532 375.522 78.5018 375.116 78.5518C374.693 78.5967 374.269 78.6412 373.846 78.6853C373.409 78.7351 372.972 78.7851 372.535 78.8354C368.866 79.2451 365.202 79.4707 361.51 79.5224C361.235 79.527 360.96 79.5316 360.677 79.5363C358.774 79.5642 356.874 79.5555 354.972 79.5224C354.708 79.5185 354.444 79.5147 354.173 79.5108C347.967 79.3977 341.826 78.5683 335.982 76.4784C335.658 76.3701 335.335 76.2618 335.001 76.1502C330.076 74.3553 325.869 70.8806 323.608 66.2176C320.353 59.0936 321.9 51.1993 324.613 44.154C326.642 39.0761 326.642 39.0761 329.508 39.4659Z" fill="#3C240A"/>
<path d="M195.312 12.3049C195.176 15.6533 195.278 18.9323 195.176 22.331C195.167 22.6363 195.167 22.6363 195.158 22.9478C195.086 25.2967 195.158 27.4865 195.176 30.084C193.921 30.5221 192.24 30.6946 190.922 30.8862C190.551 30.9419 190.179 30.9976 189.796 31.0549C189.395 31.1142 188.994 31.1735 188.58 31.2346C171.764 33.7927 155.331 37.9414 138.964 42.4402C138.964 35.8105 138.964 29.1807 138.964 22.35C148.036 20.1325 148.036 20.1325 152.428 19.1919C152.694 19.1349 152.959 19.0779 153.233 19.0192C184.439 13.3444 184.735 13.0558 195.312 12.3049Z" fill="#3C240A"/>
<path d="M498.864 144.748H562.151V157.008H498.864V144.748ZM501.362 197.945H571.935V210.413H486.373V93.0052H569.437V105.473H501.362V197.945Z" fill="#3C240A"/>
<path d="M719.828 178.412C719.828 184.923 718.023 190.672 714.415 195.659C710.945 200.647 705.81 204.595 699.01 207.504C692.348 210.275 684.09 211.66 674.236 211.66C665.215 211.66 656.541 210.275 648.214 207.504C640.025 204.733 633.572 201.201 628.853 196.906L635.098 185.269C639.401 189.287 645.091 192.612 652.169 195.244C659.386 197.737 666.881 198.984 674.653 198.984C685.478 198.984 693.181 197.114 697.761 193.373C702.479 189.494 704.839 184.923 704.839 179.659C704.839 175.225 703.52 171.762 700.883 169.268C698.246 166.636 694.777 164.558 690.474 163.034C686.172 161.372 681.453 159.987 676.318 158.878C671.183 157.77 666.048 156.523 660.913 155.138C655.778 153.753 650.99 151.882 646.548 149.527C642.246 147.172 638.776 144.055 636.139 140.176C633.641 136.297 632.392 131.171 632.392 124.799C632.392 118.426 634.127 112.746 637.597 107.759C641.066 102.772 646.132 98.8237 652.794 95.9145C659.456 93.0052 667.644 91.5506 677.359 91.5506C684.298 91.5506 691.099 92.4511 697.761 94.252C704.561 95.9144 710.39 98.4773 715.248 101.941L709.835 113.993C704.839 110.53 699.495 108.105 693.805 106.72C688.115 105.196 682.494 104.434 676.943 104.434C666.672 104.434 659.109 106.374 654.251 110.253C649.532 113.993 647.173 118.634 647.173 124.175C647.173 128.609 648.491 132.141 651.128 134.773C653.765 137.267 657.235 139.345 661.537 141.007C665.84 142.531 670.558 143.847 675.694 144.956C680.967 146.064 686.172 147.311 691.307 148.696C696.442 150.081 701.161 151.952 705.463 154.307C709.766 156.523 713.235 159.571 715.872 163.45C718.509 167.329 719.828 172.316 719.828 178.412Z" fill="#3C240A"/>
<path d="M788.202 210.413V93.0052H803.191V210.413H788.202Z" fill="#3C240A"/>
<path d="M926.481 211.66C915.655 211.66 905.246 209.928 895.254 206.465C885.4 202.863 877.766 198.291 872.354 192.75L878.391 180.905C883.526 185.893 890.396 190.118 899.001 193.581C907.744 196.906 916.904 198.569 926.481 198.569C935.641 198.569 943.066 197.46 948.756 195.244C954.585 192.889 958.818 189.772 961.455 185.893C964.231 182.014 965.618 177.719 965.618 173.009C965.618 167.329 963.953 162.757 960.622 159.294C957.43 155.831 953.197 153.129 947.923 151.19C942.649 149.112 936.82 147.311 930.436 145.787C924.052 144.263 917.668 142.67 911.283 141.007C904.899 139.206 899.001 136.851 893.588 133.942C888.314 131.033 884.012 127.223 880.681 122.513C877.489 117.664 875.893 111.361 875.893 103.603C875.893 96.3993 877.766 89.8189 881.514 83.8619C885.4 77.7664 891.298 72.9177 899.209 69.3158C907.12 65.5754 917.251 63.7052 929.603 63.7052C937.792 63.7052 945.911 64.8827 953.96 67.2378C962.01 69.4544 968.949 72.5714 974.778 76.5889L969.574 88.8492C963.328 84.6932 956.667 81.6454 949.589 79.7059C942.649 77.7664 935.918 76.7967 929.395 76.7967C920.652 76.7967 913.435 77.9742 907.744 80.3293C902.054 82.6844 897.821 85.8707 895.045 89.8882C892.408 93.7672 891.09 98.2003 891.09 103.188C891.09 108.867 892.686 113.439 895.878 116.902C899.209 120.366 903.511 123.067 908.785 125.007C914.198 126.946 920.096 128.678 926.481 130.202C932.865 131.726 939.18 133.388 945.425 135.189C951.809 136.99 957.638 139.345 962.912 142.254C968.325 145.025 972.627 148.765 975.819 153.476C979.15 158.186 980.816 164.35 980.816 171.97C980.816 179.035 978.873 185.616 974.987 191.711C971.101 197.668 965.133 202.517 957.083 206.257C949.172 209.859 938.971 211.66 926.481 211.66Z" fill="#3C240A"/>
<path d="M1062.47 144.748H1125.76V157.008H1062.47V144.748ZM1064.97 197.945H1135.54V210.413H1049.98V93.0052H1133.04V105.473H1064.97V197.945Z" fill="#3C240A"/>
<path d="M1205.37 210.413V93.0052H1217.65L1297.59 191.919H1291.76V93.0052H1306.75V210.413H1294.26L1214.32 111.292H1220.36V210.413H1205.37Z" fill="#3C240A"/>
<path d="M1466.06 178.412C1466.06 184.923 1464.26 190.672 1460.65 195.659C1457.18 200.647 1452.05 204.595 1445.25 207.504C1438.58 210.275 1430.33 211.66 1420.47 211.66C1411.45 211.66 1402.78 210.275 1394.45 207.504C1386.26 204.733 1379.81 201.201 1375.09 196.906L1381.33 185.269C1385.64 189.287 1391.33 192.612 1398.41 195.244C1405.62 197.737 1413.12 198.984 1420.89 198.984C1431.71 198.984 1439.42 197.114 1444 193.373C1448.72 189.494 1451.07 184.923 1451.07 179.659C1451.07 175.225 1449.76 171.762 1447.12 169.268C1444.48 166.636 1441.01 164.558 1436.71 163.034C1432.41 161.372 1427.69 159.987 1422.55 158.878C1417.42 157.77 1412.28 156.523 1407.15 155.138C1402.01 153.753 1397.23 151.882 1392.78 149.527C1388.48 147.172 1385.01 144.055 1382.38 140.176C1379.88 136.297 1378.63 131.171 1378.63 124.799C1378.63 118.426 1380.36 112.746 1383.83 107.759C1387.3 102.772 1392.37 98.8237 1399.03 95.9145C1405.69 93.0052 1413.88 91.5506 1423.59 91.5506C1430.53 91.5506 1437.33 92.4511 1444 94.252C1450.8 95.9144 1456.63 98.4773 1461.48 101.941L1456.07 113.993C1451.07 110.53 1445.73 108.105 1440.04 106.72C1434.35 105.196 1428.73 104.434 1423.18 104.434C1412.91 104.434 1405.34 106.374 1400.49 110.253C1395.77 113.993 1393.41 118.634 1393.41 124.175C1393.41 128.609 1394.73 132.141 1397.36 134.773C1400 137.267 1403.47 139.345 1407.77 141.007C1412.08 142.531 1416.79 143.847 1421.93 144.956C1427.2 146.064 1432.41 147.311 1437.54 148.696C1442.68 150.081 1447.4 151.952 1451.7 154.307C1456 156.523 1459.47 159.571 1462.11 163.45C1464.75 167.329 1466.06 172.316 1466.06 178.412Z" fill="#3C240A"/>
<path d="M1546.93 144.748H1610.22V157.008H1546.93V144.748ZM1549.43 197.945H1620V210.413H1534.44V93.0052H1617.5V105.473H1549.43V197.945Z" fill="#3C240A"/>
<path d="M557.818 327.599C555.077 327.599 552.545 327.149 550.22 326.249C547.895 325.314 545.883 324.015 544.183 322.352C542.482 320.69 541.147 318.733 540.175 316.482C539.238 314.231 538.77 311.772 538.77 309.105C538.77 306.438 539.238 303.979 540.175 301.728C541.147 299.477 542.482 297.52 544.183 295.858C545.917 294.195 547.947 292.914 550.272 292.013C552.597 291.078 555.129 290.611 557.87 290.611C560.507 290.611 562.988 291.061 565.313 291.961C567.638 292.827 569.598 294.143 571.194 295.91L568.748 298.351C567.256 296.827 565.608 295.736 563.804 295.078C561.999 294.386 560.056 294.039 557.975 294.039C555.789 294.039 553.759 294.42 551.885 295.182C550.012 295.91 548.381 296.966 546.993 298.351C545.605 299.702 544.512 301.295 543.714 303.131C542.951 304.932 542.569 306.923 542.569 309.105C542.569 311.287 542.951 313.296 543.714 315.131C544.512 316.932 545.605 318.525 546.993 319.911C548.381 321.261 550.012 322.318 551.885 323.08C553.759 323.807 555.789 324.171 557.975 324.171C560.056 324.171 561.999 323.824 563.804 323.132C565.608 322.439 567.256 321.331 568.748 319.807L571.194 322.249C569.598 324.015 567.638 325.348 565.313 326.249C562.988 327.149 560.49 327.599 557.818 327.599Z" fill="#3C240A"/>
<path d="M603.449 327.599C598.8 327.599 595.139 326.266 592.467 323.599C589.796 320.932 588.46 316.984 588.46 311.755V290.922H592.311V311.599C592.311 315.893 593.283 319.062 595.226 321.106C597.169 323.149 599.91 324.171 603.449 324.171C607.023 324.171 609.781 323.149 611.724 321.106C613.667 319.062 614.639 315.893 614.639 311.599V290.922H618.386V311.755C618.386 316.984 617.05 320.932 614.378 323.599C611.741 326.266 608.098 327.599 603.449 327.599Z" fill="#3C240A"/>
<path d="M666.007 290.922H669.806V327.288H666.007V290.922ZM643.211 327.288H639.36V290.922H643.211V327.288ZM666.371 310.508H642.795V307.131H666.371V310.508Z" fill="#3C240A"/>
<path d="M694.396 318.248L694.24 313.573L716.307 290.922H720.731L704.649 307.754L702.463 310.092L694.396 318.248ZM691.065 327.288V290.922H694.916V327.288H691.065ZM717.244 327.288L701.526 309.209L704.128 306.404L721.824 327.288H717.244Z" fill="#3C240A"/>
<path d="M756.52 327.288V324.638L771.665 309.832C773.053 308.482 774.094 307.304 774.788 306.3C775.482 305.261 775.95 304.291 776.193 303.391C776.436 302.49 776.557 301.642 776.557 300.845C776.557 298.732 775.828 297.07 774.371 295.858C772.949 294.646 770.832 294.039 768.022 294.039C765.871 294.039 763.962 294.368 762.297 295.026C760.666 295.685 759.261 296.706 758.081 298.092L755.427 295.806C756.849 294.143 758.671 292.862 760.892 291.961C763.112 291.061 765.593 290.611 768.334 290.611C770.797 290.611 772.931 291.009 774.736 291.806C776.54 292.568 777.928 293.693 778.899 295.182C779.905 296.672 780.408 298.421 780.408 300.429C780.408 301.607 780.235 302.767 779.888 303.91C779.576 305.053 778.986 306.265 778.118 307.547C777.286 308.793 776.054 310.213 774.423 311.806L760.527 325.418L759.486 323.963H782.074V327.288H756.52Z" fill="#3C240A"/>
<path d="M810.564 327.599C807.753 327.599 805.255 326.872 803.069 325.418C800.883 323.928 799.166 321.816 797.917 319.08C796.668 316.309 796.043 312.984 796.043 309.105C796.043 305.226 796.668 301.919 797.917 299.183C799.166 296.412 800.883 294.299 803.069 292.845C805.255 291.355 807.753 290.611 810.564 290.611C813.374 290.611 815.872 291.355 818.058 292.845C820.244 294.299 821.961 296.412 823.211 299.183C824.494 301.919 825.136 305.226 825.136 309.105C825.136 312.984 824.494 316.309 823.211 319.08C821.961 321.816 820.244 323.928 818.058 325.418C815.872 326.872 813.374 327.599 810.564 327.599ZM810.564 324.171C812.715 324.171 814.589 323.599 816.185 322.456C817.781 321.279 819.03 319.582 819.932 317.365C820.834 315.114 821.285 312.361 821.285 309.105C821.285 305.85 820.834 303.113 819.932 300.897C819.03 298.646 817.781 296.949 816.185 295.806C814.589 294.628 812.715 294.039 810.564 294.039C808.482 294.039 806.626 294.628 804.995 295.806C803.364 296.949 802.098 298.646 801.196 300.897C800.293 303.113 799.842 305.85 799.842 309.105C799.842 312.361 800.293 315.114 801.196 317.365C802.098 319.582 803.364 321.279 804.995 322.456C806.626 323.599 808.482 324.171 810.564 324.171Z" fill="#3C240A"/>
<path d="M839.194 327.288V324.638L854.339 309.832C855.727 308.482 856.768 307.304 857.462 306.3C858.156 305.261 858.624 304.291 858.867 303.391C859.11 302.49 859.231 301.642 859.231 300.845C859.231 298.732 858.503 297.07 857.046 295.858C855.623 294.646 853.506 294.039 850.696 294.039C848.545 294.039 846.637 294.368 844.971 295.026C843.34 295.685 841.935 296.706 840.755 298.092L838.101 295.806C839.524 294.143 841.345 292.862 843.566 291.961C845.786 291.061 848.267 290.611 851.008 290.611C853.472 290.611 855.606 291.009 857.41 291.806C859.214 292.568 860.602 293.693 861.573 295.182C862.58 296.672 863.083 298.421 863.083 300.429C863.083 301.607 862.909 302.767 862.562 303.91C862.25 305.053 861.66 306.265 860.793 307.547C859.96 308.793 858.728 310.213 857.098 311.806L843.202 325.418L842.161 323.963H864.748V327.288H839.194Z" fill="#3C240A"/>
<path d="M877.026 317.729V315.027L896.334 290.922H900.498L881.345 315.027L879.316 314.404H908.617V317.729H877.026ZM897.583 327.288V317.729L897.687 314.404V305.988H901.331V327.288H897.583Z" fill="#3C240A"/>
<path d="M946.862 327.288V300.014H950.557V327.288H946.862ZM948.736 293.987C947.973 293.987 947.331 293.728 946.81 293.208C946.29 292.689 946.029 292.065 946.029 291.338C946.029 290.611 946.29 290.005 946.81 289.52C947.331 289 947.973 288.74 948.736 288.74C949.499 288.74 950.141 288.983 950.661 289.468C951.182 289.953 951.442 290.559 951.442 291.286C951.442 292.048 951.182 292.689 950.661 293.208C950.176 293.728 949.534 293.987 948.736 293.987Z" fill="#3C240A"/>
<path d="M986.966 327.599C984.19 327.599 981.622 327.149 979.263 326.249C976.938 325.314 974.909 324.015 973.174 322.352C971.474 320.69 970.138 318.733 969.166 316.482C968.229 314.231 967.761 311.772 967.761 309.105C967.761 306.438 968.229 303.979 969.166 301.728C970.138 299.477 971.491 297.52 973.226 295.858C974.961 294.195 976.99 292.914 979.315 292.013C981.675 291.078 984.242 290.611 987.018 290.611C989.794 290.611 992.326 291.044 994.616 291.909C996.941 292.775 998.919 294.091 1000.55 295.858L998.155 298.299C996.629 296.775 994.946 295.685 993.107 295.026C991.268 294.368 989.29 294.039 987.174 294.039C984.919 294.039 982.837 294.42 980.929 295.182C979.055 295.91 977.407 296.966 975.984 298.351C974.596 299.702 973.503 301.295 972.705 303.131C971.942 304.932 971.56 306.923 971.56 309.105C971.56 311.252 971.942 313.244 972.705 315.079C973.503 316.915 974.596 318.525 975.984 319.911C977.407 321.261 979.055 322.318 980.929 323.08C982.837 323.807 984.901 324.171 987.122 324.171C989.204 324.171 991.164 323.859 993.003 323.236C994.877 322.612 996.594 321.556 998.155 320.067L1000.34 322.976C998.607 324.5 996.577 325.66 994.252 326.457C991.927 327.218 989.499 327.599 986.966 327.599ZM996.646 322.508V309.105H1000.34V322.976L996.646 322.508Z" fill="#3C240A"/>
<path d="M1024.04 307.183H1043.3V310.456H1024.04V307.183ZM1024.46 323.963H1046.37V327.288H1020.61V290.922H1045.59V294.247H1024.46V323.963Z" fill="#3C240A"/>
<path d="M1064.79 327.288V290.922H1067.97L1084.62 319.287H1082.96L1099.45 290.922H1102.63V327.288H1098.93V296.689H1099.82L1084.62 322.664H1082.8L1067.5 296.689H1068.49V327.288H1064.79Z" fill="#3C240A"/>
<path d="M1153.94 327.288V294.247H1141.13V290.922H1170.59V294.247H1157.79V327.288H1153.94Z" fill="#3C240A"/>
<path d="M1194.09 327.547C1191.24 327.547 1188.75 326.959 1186.6 325.781C1184.44 324.569 1182.76 322.924 1181.55 320.846C1180.33 318.733 1179.73 316.326 1179.73 313.625C1179.73 310.923 1180.3 308.534 1181.44 306.456C1182.62 304.378 1184.22 302.75 1186.23 301.572C1188.28 300.36 1190.57 299.754 1193.1 299.754C1195.67 299.754 1197.94 300.343 1199.92 301.52C1201.93 302.663 1203.51 304.291 1204.66 306.404C1205.8 308.482 1206.37 310.889 1206.37 313.625C1206.37 313.798 1206.36 313.988 1206.32 314.196C1206.32 314.369 1206.32 314.56 1206.32 314.768H1182.54V312.014H1204.34L1202.89 313.105C1202.89 311.131 1202.45 309.382 1201.58 307.858C1200.75 306.3 1199.61 305.088 1198.15 304.222C1196.69 303.356 1195.01 302.923 1193.1 302.923C1191.23 302.923 1189.54 303.356 1188.05 304.222C1186.56 305.088 1185.4 306.3 1184.57 307.858C1183.73 309.417 1183.32 311.2 1183.32 313.209V313.781C1183.32 315.859 1183.77 317.694 1184.67 319.287C1185.61 320.846 1186.89 322.075 1188.52 322.976C1190.19 323.842 1192.08 324.275 1194.19 324.275C1195.86 324.275 1197.4 323.98 1198.83 323.391C1200.28 322.803 1201.53 321.902 1202.57 320.69L1204.66 323.08C1203.44 324.534 1201.91 325.643 1200.07 326.405C1198.27 327.167 1196.28 327.547 1194.09 327.547Z" fill="#3C240A"/>
<path d="M1239.62 327.288V321.261L1239.47 320.274V310.196C1239.47 307.876 1238.81 306.092 1237.49 304.845C1236.2 303.598 1234.28 302.975 1231.71 302.975C1229.94 302.975 1228.26 303.269 1226.66 303.858C1225.07 304.447 1223.71 305.226 1222.6 306.196L1220.94 303.442C1222.33 302.265 1223.99 301.364 1225.93 300.741C1227.88 300.083 1229.92 299.754 1232.08 299.754C1235.61 299.754 1238.34 300.637 1240.25 302.403C1242.19 304.135 1243.16 306.785 1243.16 310.352V327.288H1239.62ZM1230.2 327.547C1228.16 327.547 1226.37 327.218 1224.84 326.56C1223.35 325.868 1222.2 324.933 1221.41 323.755C1220.61 322.543 1220.21 321.158 1220.21 319.599C1220.21 318.179 1220.54 316.898 1221.2 315.755C1221.89 314.577 1223 313.642 1224.53 312.949C1226.09 312.222 1228.17 311.858 1230.77 311.858H1240.19V314.612H1230.88C1228.24 314.612 1226.4 315.079 1225.36 316.014C1224.36 316.95 1223.85 318.11 1223.85 319.495C1223.85 321.054 1224.46 322.3 1225.67 323.236C1226.89 324.171 1228.59 324.638 1230.77 324.638C1232.86 324.638 1234.64 324.171 1236.14 323.236C1237.66 322.266 1238.77 320.88 1239.47 319.08L1240.3 321.625C1239.6 323.426 1238.39 324.863 1236.66 325.937C1234.96 327.011 1232.8 327.547 1230.2 327.547Z" fill="#3C240A"/>
<path d="M1296.71 299.754C1298.93 299.754 1300.85 300.187 1302.48 301.053C1304.15 301.884 1305.43 303.165 1306.34 304.897C1307.27 306.629 1307.74 308.811 1307.74 311.443V327.288H1304.05V311.806C1304.05 308.932 1303.35 306.767 1301.96 305.313C1300.61 303.823 1298.69 303.079 1296.19 303.079C1294.31 303.079 1292.68 303.477 1291.29 304.274C1289.94 305.036 1288.88 306.161 1288.12 307.65C1287.39 309.105 1287.03 310.871 1287.03 312.949V327.288H1283.33V311.806C1283.33 308.932 1282.64 306.767 1281.25 305.313C1279.86 303.823 1277.92 303.079 1275.42 303.079C1273.58 303.079 1271.97 303.477 1270.58 304.274C1269.19 305.036 1268.12 306.161 1267.35 307.65C1266.63 309.105 1266.26 310.871 1266.26 312.949V327.288H1262.57V300.014H1266.11V307.391L1265.53 306.092C1266.37 304.118 1267.7 302.577 1269.54 301.468C1271.41 300.325 1273.62 299.754 1276.15 299.754C1278.82 299.754 1281.09 300.429 1282.97 301.78C1284.84 303.096 1286.06 305.088 1286.61 307.754L1285.15 307.183C1285.95 304.966 1287.36 303.183 1289.37 301.832C1291.42 300.447 1293.86 299.754 1296.71 299.754Z" fill="#3C240A"/>
</svg>
