<svg width="202" height="54" viewBox="0 0 202 54" fill="none" xmlns="http://www.w3.org/2000/svg">
<path d="M16.3003 0.526544C16.6997 0.895685 16.8551 1.32222 16.8721 1.85342C16.8738 1.96588 16.8742 2.07831 16.8744 2.19078C16.8749 2.25545 16.8755 2.32011 16.8762 2.38477C16.8778 2.56575 16.8788 2.74673 16.8796 2.92771C16.8806 3.12703 16.8822 3.32634 16.8838 3.52565C16.8868 3.9269 16.8892 4.32814 16.8914 4.72939C16.8939 5.19452 16.8968 5.65965 16.8998 6.12477C16.9054 6.97992 16.9107 7.83507 16.9159 8.69022C16.9165 8.801 16.9172 8.91179 16.9179 9.02257C16.9304 11.105 16.9361 13.1874 16.9335 15.2699C16.9511 15.2568 16.9687 15.2438 16.9868 15.2303C17.0675 15.1702 17.1483 15.1104 17.2292 15.0506C17.2568 15.03 17.2845 15.0094 17.3129 14.9882C17.8136 14.6187 18.3698 14.4084 19.0035 14.4892C19.9921 14.6492 20.7145 15.3366 21.2812 16.1051C21.4219 16.3037 21.5594 16.5044 21.6974 16.7048C22.2793 17.5928 22.2793 17.5928 23.1611 18.1448C23.3133 18.1701 23.3956 18.1643 23.5376 18.1005C23.9554 17.7362 24.1784 17.2868 24.3989 16.7908C24.4199 16.7441 24.4409 16.6974 24.462 16.6507C24.5872 16.3721 24.6642 16.1635 24.6658 15.8577C24.6661 15.8242 24.6665 15.7907 24.6668 15.7562C24.6678 15.6432 24.6686 15.5303 24.6694 15.4173C24.6701 15.3362 24.6708 15.255 24.6715 15.1739C24.6734 14.9515 24.6751 14.7292 24.6768 14.5068C24.6786 14.2704 24.6806 14.034 24.6826 13.7976C24.686 13.3935 24.6892 12.9895 24.6923 12.5854C24.6956 12.1664 24.699 11.7475 24.7025 11.3285C24.7027 11.3026 24.7029 11.2767 24.7031 11.2501C24.704 11.1455 24.7049 11.041 24.7058 10.9364C24.7211 9.11819 24.7359 7.29995 24.7447 5.48166C24.7456 5.28564 24.7467 5.08963 24.7477 4.89361C24.7482 4.80064 24.7487 4.70768 24.7492 4.61471C24.7495 4.55473 24.7498 4.49475 24.7502 4.43477C24.752 4.0951 24.7534 3.75544 24.7542 3.41577C24.7547 3.18492 24.7558 2.95408 24.7571 2.72324C24.7576 2.63176 24.7578 2.54028 24.7578 2.44879C24.7578 1.75248 24.7845 1.06669 25.3184 0.54078C25.6762 0.275048 25.7926 0.236243 25.8262 0.217684C25.8598 0.199125 25.8642 0.200249 25.8998 0.18169C26.4887 -0.0342699 27.1629 -0.0152668 27.764 0.161162C27.8562 0.231545 27.8774 0.255358 27.895 0.369952C27.8776 0.483299 27.8544 0.50865 27.764 0.578741C27.6863 0.596833 27.6863 0.596833 27.5978 0.602468C27.5653 0.604927 27.5328 0.607386 27.4993 0.609919C27.465 0.612158 27.4306 0.614397 27.3952 0.616703C26.909 0.657209 26.4595 0.713091 26.1239 1.09597C25.8648 1.58458 25.8174 1.98729 25.8198 2.53086C25.8266 4.18281 25.8242 5.83455 25.8084 7.48644C25.8035 7.9942 25.7992 8.50196 25.7949 9.00972C25.7947 9.03682 25.7945 9.06392 25.7943 9.09184C25.7825 10.4894 25.7751 11.8869 25.768 13.2844C25.7675 13.3855 25.767 13.4866 25.7665 13.5876C25.7633 14.2209 25.7601 14.8542 25.7569 15.4875C25.7483 17.2223 25.7393 18.9571 25.7301 20.6919C25.7297 20.7547 25.7297 20.7547 25.7294 20.8186C25.7093 24.6033 25.6859 28.388 25.6507 33.8253C25.6504 33.8744 25.6501 33.9235 25.6498 33.9741C25.6493 34.0477 25.6493 34.0477 25.6488 34.1227C25.6459 34.563 25.6431 35.0034 25.6403 35.4437C25.6241 37.9438 25.6077 40.4439 25.5901 42.944C25.5899 42.9781 25.5896 43.0122 25.5894 43.0473C25.5839 43.8352 25.5781 44.6231 25.5719 45.4109C25.5704 45.6 25.569 45.789 25.5676 45.9781C25.5617 46.7817 25.5546 47.5853 25.5377 48.3888C25.5363 48.4559 25.5351 48.523 25.5339 48.5902C25.5112 49.8502 25.2331 50.9221 24.2961 51.84C23.2127 52.8429 21.6786 53.026 20.2522 53.0015C19.2256 52.9709 18.2497 52.7314 17.4382 52.0928C17.4113 52.0728 17.3844 52.0527 17.3567 52.032C16.7177 51.5276 16.3689 50.7326 16.1887 49.9693C16.1822 49.9422 16.1757 49.915 16.169 49.8871C16.062 49.4069 16.0723 48.9144 16.0686 48.4256C16.0679 48.3505 16.0672 48.2754 16.0665 48.2003C16.0645 47.9956 16.0628 47.7908 16.0612 47.5861C16.0594 47.3669 16.0573 47.1477 16.0554 46.9286C16.0515 46.5026 16.0479 46.0766 16.0444 45.6506C16.0415 45.3026 16.0386 44.9545 16.0356 44.6065C16.0046 41.0042 15.98 37.4019 15.9549 31.5816C15.9545 31.4941 15.9542 31.4066 15.9538 31.3191C15.9529 31.096 15.952 30.8729 15.9511 30.6497C15.9507 30.5587 15.9504 30.4677 15.95 30.3767C15.9494 30.2384 15.9489 30.1002 15.9483 29.9619C15.948 29.8928 15.948 29.8928 15.9478 29.8223C15.9468 29.5882 15.9459 29.3541 15.945 29.12C15.9344 26.4696 15.9216 23.8193 15.9065 21.1689C15.9059 21.0598 15.9053 20.9507 15.9046 20.8416C15.8962 19.3616 15.8877 17.8815 15.8788 16.4015C15.8742 15.6354 15.8696 14.8692 15.8651 14.1031C15.8647 14.0311 15.8643 13.9591 15.8639 13.8872C15.8527 11.9807 15.8437 10.0742 15.8392 8.16773C15.8385 7.86868 15.8377 7.56962 15.8369 7.27057C15.8363 7.06256 15.8357 6.85455 15.8351 6.64654C15.8349 6.57066 15.8347 6.49478 15.8345 6.41891C15.8329 5.84195 15.8318 5.265 15.8316 4.68805C15.8314 4.33896 15.8307 3.98988 15.8296 3.6408C15.8289 3.40701 15.8288 3.17323 15.8292 2.93944C15.8293 2.79926 15.8288 2.65909 15.8281 2.51891C15.8278 2.45565 15.8279 2.3924 15.8282 2.32915C15.8307 1.84388 15.803 1.36277 15.4972 0.958359C15.2028 0.670438 14.8609 0.63832 14.4606 0.613265C14.2372 0.595399 14.2372 0.595399 14.1175 0.500297C14.0988 0.476074 14.0802 0.451851 14.0609 0.426894C14.0828 0.317754 14.0828 0.317755 14.1386 0.199124C14.2623 0.149299 14.2623 0.149299 14.4103 0.123201C14.4495 0.115371 14.4888 0.107541 14.5292 0.0994745C15.1758 0.0392543 15.7865 0.112177 16.3003 0.526544Z" fill="#404231"/>
<path d="M26.3664 23.3179C26.7595 23.3606 26.7595 23.3606 26.8937 23.3929C26.9244 23.4002 26.9552 23.4075 26.9869 23.415C27.0194 23.423 27.0519 23.4309 27.0854 23.4391C27.1209 23.4477 27.1564 23.4562 27.193 23.4649C27.3105 23.4932 27.428 23.5218 27.5455 23.5504C27.6292 23.5706 27.713 23.5908 27.7967 23.6111C28.0706 23.6774 28.3442 23.7443 28.6179 23.8114C28.6894 23.8289 28.6894 23.8289 28.7623 23.8468C30.5275 24.2799 32.2821 24.7385 34.0308 25.2311C34.1924 25.2767 34.3541 25.3219 34.5158 25.3671C35.1395 25.5411 35.7585 25.7261 36.3748 25.9235C36.5282 25.9725 36.6817 26.0209 36.8352 26.0692C37.5849 26.3053 38.3318 26.5445 39.0709 26.8108C39.2144 26.8617 39.3588 26.9101 39.5032 26.9585C40.9065 27.4287 42.2759 27.9901 43.6408 28.5566C43.7047 28.5831 43.7047 28.5831 43.7699 28.6101C44.1837 28.7823 44.5923 28.9596 44.9926 29.16C45.1478 29.2373 45.305 29.3101 45.4625 29.3827C47.0359 30.1094 48.5927 30.9397 50.007 31.9352C50.0321 31.9527 50.0572 31.9702 50.083 31.9882C50.863 32.5334 51.6204 33.1007 52.3189 33.7441C52.4059 33.8235 52.4948 33.9006 52.5836 33.978C52.9381 34.2895 52.9381 34.2895 53.0349 34.4027C53.0349 34.4277 53.0349 34.4528 53.0349 34.4786C53.0733 34.4911 53.1118 34.5037 53.1514 34.5166C53.2099 34.5734 53.2099 34.5734 53.2727 34.6471C53.3761 34.7667 53.4818 34.8831 53.5905 34.9982C54.6725 36.1745 55.4793 37.6296 55.791 39.1859C55.7979 39.2173 55.8047 39.2487 55.8117 39.281C55.882 39.6366 55.8858 39.9899 55.8857 40.3508C55.8857 40.3998 55.8857 40.3998 55.8858 40.4498C55.8845 41.0086 55.8313 41.5312 55.6746 42.071C55.6652 42.1044 55.6559 42.1379 55.6462 42.1723C55.291 43.4117 54.5718 44.5688 53.6721 45.5031C53.5995 45.5793 53.5301 45.6563 53.461 45.7354C53.2813 45.937 53.0883 46.1257 52.895 46.3147C52.8316 46.3768 52.7685 46.4392 52.7054 46.5016C52.4525 46.7502 52.1904 46.9776 51.9092 47.1958C51.866 47.2313 51.823 47.267 51.7803 47.3032C50.3009 48.5524 48.6156 49.563 46.9404 50.5364C46.9074 50.5556 46.8745 50.5747 46.8406 50.5945C46.7526 50.6456 46.6645 50.6966 46.5764 50.7476C46.5523 50.7616 46.5281 50.7756 46.5032 50.79C46.1487 50.9939 45.7844 51.1799 45.4191 51.3645C45.1545 51.4987 44.8918 51.635 44.6331 51.7797C44.1683 52.0388 43.6856 52.2604 43.202 52.4836C42.983 52.5853 42.7698 52.6932 42.5574 52.8073C42.2734 52.957 41.9786 53.0844 41.6852 53.2153C41.4484 53.3212 41.2136 53.4292 40.9817 53.5449C40.764 53.6524 40.5453 53.7575 40.3242 53.8581C40.2821 53.8781 40.2821 53.8781 40.2393 53.8984C40.0388 53.9879 39.8624 54.0167 39.6424 53.9909C39.4647 53.9214 39.3793 53.8148 39.293 53.6493C39.2666 53.5025 39.2781 53.3795 39.3391 53.2412C39.4771 53.0737 39.6401 52.9796 39.8385 52.8918C39.8841 52.8714 39.9297 52.851 39.9767 52.83C40.0246 52.8089 40.0725 52.7878 40.1204 52.7667C40.4943 52.6007 40.8633 52.428 41.2298 52.247C41.3425 52.1916 41.4555 52.1368 41.5685 52.0821C41.6862 52.0251 41.8038 51.9679 41.9214 51.9107C41.9807 51.8819 42.04 51.8531 42.0993 51.8245C42.4716 51.6444 42.8377 51.4572 43.1983 51.2555C43.4282 51.127 43.6603 51.0024 43.896 50.8842C44.9088 50.3731 45.8861 49.7703 46.8277 49.143C46.9099 49.0883 46.9924 49.034 47.0749 48.9797C47.7162 48.5558 48.3359 48.1099 48.9327 47.6277C49.0198 47.5577 49.1082 47.4894 49.1967 47.4212C49.357 47.2961 49.5138 47.167 49.6698 47.0368C49.6926 47.0179 49.7154 46.9989 49.7389 46.9794C49.8432 46.8918 49.9416 46.8039 50.0378 46.7075C50.1235 46.6264 50.1235 46.6264 50.2011 46.6264C50.2139 46.5888 50.2268 46.5512 50.24 46.5125C50.3036 46.4606 50.3685 46.4102 50.434 46.3606C50.5294 46.2719 50.616 46.187 50.6936 46.083C50.7189 46.0513 50.7189 46.0513 50.7446 46.019C50.7702 46.019 50.7958 46.019 50.8222 46.019C50.8326 45.9963 50.8429 45.9737 50.8536 45.9503C50.9008 45.8654 50.9466 45.8161 51.0188 45.7509C51.1843 45.5933 51.327 45.421 51.4709 45.2447C51.5239 45.1803 51.5778 45.1166 51.6318 45.053C51.9222 44.7086 52.1758 44.3497 52.4138 43.969C52.4291 43.9452 52.4443 43.9213 52.46 43.8967C53.1941 42.739 53.5382 41.4005 53.229 40.059C53.0439 39.334 52.605 38.6645 52.1185 38.0994C52.0871 38.0628 52.0871 38.0628 52.055 38.0255C52.0363 38.004 52.0175 37.9825 51.9982 37.9603C51.945 37.8913 51.9074 37.8216 51.8703 37.7433C51.8447 37.7433 51.8191 37.7433 51.7927 37.7433C51.7352 37.6849 51.7352 37.6849 51.669 37.6057C51.5555 37.4742 51.4372 37.3646 51.2991 37.2584C51.2827 37.243 51.2662 37.2277 51.2492 37.2118C51.2492 37.1868 51.2492 37.1617 51.2492 37.1359C51.227 37.1263 51.2047 37.1166 51.1817 37.1067C51.0841 37.0548 51.0139 36.9945 50.9326 36.9206C50.7547 36.7629 50.5687 36.6208 50.3758 36.4811C50.3422 36.4566 50.3087 36.4322 50.2741 36.407C49.7826 36.0506 49.2849 35.7051 48.7648 35.3897C48.7223 35.3638 48.6797 35.338 48.6358 35.3114C48.2087 35.0556 47.7698 34.8193 47.332 34.5817C47.2209 34.5213 47.1099 34.4608 46.9989 34.4003C46.9333 34.3647 46.8677 34.3291 46.8021 34.2935C46.774 34.2782 46.746 34.2629 46.717 34.2471C46.1858 33.9606 45.6351 33.7093 45.0868 33.456C45.0544 33.4411 45.0221 33.4261 44.9888 33.4107C44.0658 32.9823 44.0658 32.9823 43.1226 32.5989C43.0069 32.5529 42.8941 32.5043 42.7807 32.4533C42.5467 32.3485 42.3095 32.2526 42.071 32.1582C42.0253 32.1401 41.9796 32.1219 41.9325 32.1033C41.7903 32.0471 41.648 31.9911 41.5057 31.9352C41.4636 31.9186 41.4215 31.9021 41.3782 31.885C40.5378 31.5557 39.6888 31.2485 38.8393 30.9425C38.7598 30.9139 38.6802 30.8852 38.6007 30.8565C38.0705 30.6656 37.5364 30.4875 37 30.3142C36.6307 30.1948 36.2627 30.072 35.8952 29.9476C35.3175 29.7522 34.7372 29.5691 34.1524 29.3951C33.9102 29.3229 33.6684 29.2493 33.4266 29.1758C33.3788 29.1614 33.3311 29.1469 33.282 29.132C33.0895 29.0737 32.897 29.0153 32.7052 28.9547C32.2236 28.8027 31.7376 28.6662 31.251 28.5303C30.9856 28.456 30.7206 28.3812 30.4573 28.3002C29.6865 28.0632 28.9078 27.858 28.1278 27.6526C27.8921 27.5905 27.6565 27.5283 27.4209 27.4659C27.3279 27.4413 27.235 27.4169 27.142 27.3925C27.0848 27.3774 27.0277 27.3623 26.9706 27.3472C26.9212 27.3342 26.8718 27.3212 26.821 27.3078C26.6671 27.263 26.5167 27.2071 26.3664 27.152C26.3664 25.8867 26.3664 24.6215 26.3664 23.3179Z" fill="#404231"/>
<path d="M15.1866 3.38793C15.1866 4.23979 15.1866 5.09165 15.1866 5.96933C14.6663 6.18132 14.6663 6.18132 14.4614 6.25997C12.5323 7.00478 10.6339 7.84836 8.89791 8.96831C8.8658 8.98888 8.8658 8.98888 8.83305 9.00986C8.27926 9.365 7.74466 9.73906 7.2287 10.1451C7.19004 10.1754 7.19004 10.1754 7.15059 10.2062C6.75612 10.5155 6.37969 10.8386 6.01601 11.1821C5.95538 11.2388 5.89386 11.2943 5.83168 11.3494C5.52439 11.6307 5.30344 11.9581 5.07318 12.3006C4.99727 12.4125 4.91821 12.522 4.83892 12.6316C4.79711 12.6911 4.75532 12.7507 4.71386 12.8104C4.67953 12.8598 4.64501 12.9091 4.61037 12.9584C4.31425 13.3822 4.0946 13.7835 3.96792 14.283C3.95993 14.314 3.95193 14.345 3.9437 14.3769C3.67141 15.4744 3.79462 16.4963 4.39493 17.4717C4.91359 18.2507 5.75533 18.6548 6.6076 18.9902C6.64679 19.0059 6.68599 19.0215 6.72637 19.0377C9.30401 20.0629 12.1029 20.5393 14.8328 20.9928C14.867 20.9986 14.9012 21.0043 14.9364 21.0101C14.981 21.0175 14.981 21.0175 15.0265 21.025C15.1064 21.0397 15.1853 21.0588 15.2642 21.0781C15.2642 22.2432 15.2642 23.4082 15.2642 24.6085C14.9812 24.5624 14.6997 24.5158 14.4185 24.4612C14.3669 24.4512 14.3669 24.4512 14.3142 24.441C14.2031 24.4195 14.0919 24.3978 13.9807 24.376C13.9422 24.3685 13.9037 24.361 13.8641 24.3532C13.2223 24.2275 12.5837 24.0916 11.9465 23.9452C11.7389 23.8975 11.531 23.8514 11.3229 23.8057C9.16154 23.3298 6.94211 22.7646 4.94649 21.8026C4.88164 21.7714 4.81662 21.7407 4.75152 21.71C3.99875 21.3556 3.27326 20.9698 2.60926 20.4707C2.57063 20.443 2.532 20.4152 2.4922 20.3866C2.14521 20.1355 1.83044 19.855 1.52234 19.5596C1.47085 19.5107 1.47085 19.5107 1.41831 19.4609C0.472621 18.5057 -0.0207697 17.2403 0.000670205 15.9205C0.0399688 14.6858 0.600155 13.5537 1.21179 12.4987C1.22751 12.4716 1.24324 12.4444 1.25944 12.4164C1.97756 11.1851 2.98014 9.99095 4.08514 9.07077C4.1747 8.99563 4.26164 8.91795 4.34883 8.84019C4.55269 8.66073 4.7626 8.48993 4.97721 8.32296C5.00265 8.30312 5.02809 8.28328 5.0543 8.26284C5.43577 7.96635 5.82337 7.68351 6.22853 7.41871C6.29033 7.37831 6.35186 7.3375 6.41335 7.29665C7.02168 6.89483 7.64671 6.52686 8.28835 6.17841C8.38387 6.1263 8.47895 6.0735 8.57386 6.02034C8.99868 5.78357 9.43526 5.57593 9.87797 5.37319C9.97568 5.32819 10.073 5.28248 10.1701 5.23634C14.0482 3.60108 13.9745 3.74505 15.1866 3.38793Z" fill="#404231"/>
<path d="M36.1874 1.48985C36.2832 1.50162 36.379 1.51338 36.4747 1.52514C37.9338 1.709 39.389 1.97898 40.8068 2.36297C40.8491 2.3744 40.8914 2.38584 40.935 2.39763C42.2682 2.76225 43.5859 3.22116 44.8005 3.87631C44.8911 3.92372 44.9829 3.96784 45.0752 4.01193C45.2652 4.1042 45.4442 4.20861 45.6228 4.32037C45.6701 4.34987 45.6701 4.34987 45.7184 4.37997C46.2307 4.70187 46.717 5.04313 47.1731 5.43787C47.2073 5.46713 47.2416 5.49639 47.2768 5.52654C48.5031 6.58791 49.3898 7.93602 49.6187 9.53774C49.6238 9.57096 49.6289 9.60419 49.6342 9.63842C49.7433 10.4819 49.6147 11.3538 49.347 12.1571C49.338 12.1844 49.329 12.2117 49.3198 12.2398C49.1896 12.6314 49.0308 13.0039 48.8423 13.3719C48.8232 13.4097 48.8232 13.4097 48.8037 13.4483C48.3552 14.3303 47.7481 15.1296 47.0697 15.8553C46.9966 15.9343 46.9253 16.0143 46.8542 16.095C46.697 16.2711 46.5297 16.4362 46.3603 16.601C46.3309 16.63 46.3014 16.659 46.271 16.6889C46.0863 16.8691 45.8964 17.0404 45.698 17.206C45.6588 17.2393 45.6197 17.2726 45.5805 17.306C45.2416 17.5898 44.8902 17.8552 44.5334 18.1171C44.5091 18.1351 44.4848 18.1531 44.4598 18.1717C43.7578 18.6912 43.0089 19.1363 42.2431 19.5596C42.2135 19.5761 42.1838 19.5925 42.1533 19.6094C41.6833 19.8677 41.1912 20.075 40.6958 20.2817C40.6152 20.3121 40.6152 20.3121 40.5739 20.3568C40.5996 20.3648 40.6252 20.3727 40.6516 20.3809C40.7305 20.4053 40.8095 20.4298 40.8884 20.4542C40.9827 20.4834 41.0769 20.5126 41.1712 20.5418C41.407 20.6148 41.6428 20.6878 41.8786 20.7609C42.0123 20.8024 42.1461 20.8439 42.2798 20.8853C42.3065 20.8936 42.3331 20.9019 42.3606 20.9104C42.7077 21.0179 43.055 21.1247 43.4025 21.2306C43.5106 21.2636 43.6186 21.2966 43.7267 21.3297C43.7933 21.35 43.86 21.3703 43.9268 21.3904C44.0185 21.418 44.1102 21.4461 44.2018 21.4742C44.2278 21.4819 44.2538 21.4896 44.2807 21.4976C44.5651 21.5858 44.7729 21.6884 44.9216 21.9512C44.9855 22.1385 44.9834 22.3029 44.9192 22.4874C44.801 22.659 44.6584 22.7963 44.4558 22.8623C44.23 22.8755 44.0563 22.8461 43.8447 22.7662C43.8025 22.751 43.8025 22.751 43.7594 22.7354C43.6991 22.7135 43.6389 22.6914 43.5787 22.6691C43.4846 22.6343 43.3903 22.6001 43.2959 22.566C43.1318 22.5067 42.9679 22.4468 42.8041 22.3866C42.7039 22.3498 42.6037 22.3131 42.5035 22.2764C42.16 22.1505 41.818 22.022 41.478 21.8874C41.2909 21.8141 41.1023 21.7447 40.9131 21.6765C40.7712 21.6251 40.6297 21.5727 40.4882 21.5202C39.9853 21.3344 39.4818 21.1638 38.9657 21.0164C38.5621 20.9 38.5621 20.9 38.4389 20.7365C38.3972 20.5221 38.4036 20.3474 38.4533 20.1343C38.4594 20.1063 38.4655 20.0784 38.4718 20.0496C38.4918 19.9581 38.5127 19.8669 38.5335 19.7755C38.548 19.7105 38.5624 19.6455 38.5768 19.5804C38.6207 19.3835 38.6655 19.1868 38.7106 18.9902C38.7202 18.9481 38.7202 18.9481 38.73 18.9052C38.8029 18.5867 38.8774 18.2687 38.953 17.9508C39.0056 17.729 39.0569 17.5069 39.1079 17.2846C39.1493 17.1046 39.191 16.9247 39.2327 16.7448C39.2533 16.6559 39.2737 16.567 39.294 16.4781C39.3225 16.3527 39.3516 16.2275 39.3809 16.1023C39.3893 16.0649 39.3977 16.0275 39.4063 15.989C39.4672 15.7312 39.5407 15.4949 39.7248 15.2937C39.9076 15.1927 40.0997 15.1393 40.3105 15.1676C40.5187 15.2309 40.6498 15.3597 40.768 15.5357C40.8547 15.79 40.8057 16.0391 40.7287 16.2909C40.6295 16.6379 40.5466 16.9878 40.4664 17.3393C40.4601 17.3672 40.4537 17.395 40.4471 17.4237C40.4078 17.5961 40.3686 17.7686 40.3295 17.9411C40.2958 18.0898 40.2618 18.2384 40.228 18.3871C40.162 18.6766 40.0962 18.9663 40.0305 19.2559C40.4538 19.0934 40.8756 18.931 41.2848 18.7363C41.3453 18.7077 41.3453 18.7077 41.407 18.6785C41.8388 18.4715 42.2553 18.2407 42.6701 18.0032C42.7041 17.984 42.7381 17.9648 42.7731 17.9451C43.4395 17.5688 44.0545 17.1576 44.6111 16.6366C44.7465 16.5175 44.8831 16.4007 45.026 16.2902C45.2137 16.1413 45.3672 15.9661 45.5213 15.7853C45.5412 15.7655 45.5611 15.7458 45.5816 15.7255C45.6072 15.7255 45.6328 15.7255 45.6592 15.7255C45.6725 15.6942 45.6725 15.6942 45.686 15.6623C45.7517 15.5477 45.8357 15.4647 45.9285 15.3696C47.1072 14.1354 48.2051 12.4123 48.26 10.6766C48.2616 10.6359 48.2631 10.5953 48.2647 10.5534C48.2794 9.81281 48.1379 9.1379 47.7942 8.47481C47.7767 8.4406 47.7592 8.4064 47.7411 8.37115C47.0918 7.15443 45.9299 6.28218 44.7275 5.62768C44.693 5.60885 44.6584 5.59002 44.6228 5.57062C42.3533 4.34759 39.7496 3.77584 37.1967 3.46386C37.1558 3.45873 37.115 3.4536 37.0729 3.44832C36.5379 3.38159 36.0018 3.33188 35.4644 3.28828C35.4214 3.28472 35.4214 3.28472 35.3775 3.28109C34.3655 3.19812 33.3545 3.19099 32.3397 3.19109C32.1869 3.19109 32.0342 3.19083 31.8815 3.19031C30.5958 3.186 29.3169 3.22441 28.0354 3.33099C27.9747 3.33587 27.9139 3.34073 27.8532 3.34557C27.681 3.35937 27.5088 3.37358 27.3367 3.38793C27.2869 3.39206 27.2372 3.39619 27.1859 3.40045C26.9385 3.42105 26.6912 3.44224 26.4439 3.46386C26.4429 3.23432 26.4422 3.00478 26.4417 2.77524C26.4416 2.69734 26.4413 2.61944 26.4409 2.54154C26.4374 1.71106 26.4374 1.71106 26.4827 1.338C29.5298 0.77734 33.134 1.0962 36.1874 1.48985Z" fill="#404231"/>
<path d="M48.9978 0.199126C49.0302 0.207683 49.0627 0.216241 49.0962 0.225057C49.8421 0.427367 50.5821 0.766069 51.1716 1.26205C51.2047 1.28965 51.2378 1.31725 51.2718 1.34569C51.3698 1.42985 51.4651 1.51613 51.5598 1.60371C51.5913 1.63204 51.6227 1.66038 51.6552 1.68957C52.1091 2.11252 52.4325 2.60242 52.6855 3.16014C52.7143 3.22283 52.7143 3.22283 52.7436 3.28678C53.1241 4.1811 53.082 5.15028 52.7122 6.03812C52.3077 6.96177 51.6751 7.70713 50.8514 8.30871C50.8294 8.32534 50.8074 8.34198 50.7848 8.35912C50.6258 8.47152 50.5118 8.5016 50.3176 8.47479C50.194 8.39753 50.1668 8.28413 50.1211 8.15211C49.7865 7.27444 49.2395 6.44275 48.6096 5.74154C48.5909 5.72067 48.5721 5.6998 48.5529 5.6783C48.1947 5.2821 47.82 4.90319 47.3938 4.57674C47.3188 4.51926 47.2441 4.4613 47.1695 4.40339C45.9784 3.48409 44.6708 2.70083 43.1628 2.39379C43.0197 2.36295 43.0197 2.36295 42.942 2.28702C42.9743 1.95296 43.243 1.71166 43.4896 1.50451C43.5267 1.47461 43.5637 1.44471 43.6019 1.4139C43.6226 1.39715 43.6432 1.38039 43.6645 1.36313C45.1328 0.178848 47.1401 -0.307643 48.9978 0.199126Z" fill="#404231"/>
<path d="M41.0869 4.92184C41.3165 4.96952 41.5356 5.05089 41.7557 5.12941C41.7819 5.13866 41.8082 5.1479 41.8352 5.15743C43.0816 5.597 44.3531 6.12894 45.3877 6.95632C45.409 6.97333 45.4302 6.99034 45.4522 7.00787C46.2482 7.64859 47.0437 8.44059 47.3664 9.42517C47.3674 9.53772 47.3674 9.53772 47.2861 9.63651C47.1571 9.74063 47.0869 9.75867 46.9225 9.77795C46.8735 9.784 46.8244 9.79006 46.7738 9.7963C46.721 9.80189 46.6682 9.80744 46.6153 9.81294C46.5608 9.81915 46.5064 9.82539 46.4519 9.83166C45.9944 9.88276 45.5375 9.91089 45.0771 9.91734C45.0429 9.91791 45.0086 9.91849 44.9733 9.91908C44.7361 9.92256 44.4991 9.92146 44.2619 9.91734C44.229 9.91686 44.1962 9.91638 44.1623 9.91589C43.3885 9.9018 42.6228 9.79835 41.894 9.53772C41.8537 9.52421 41.8133 9.51071 41.7718 9.49679C41.1576 9.27294 40.6331 8.83962 40.3512 8.25809C39.9452 7.36964 40.1382 6.38514 40.4765 5.50651C40.7294 4.87323 40.7294 4.87323 41.0869 4.92184Z" fill="#404231"/>
<path d="M24.3538 1.53456C24.3368 1.95214 24.3495 2.36107 24.3368 2.78493C24.3357 2.823 24.3357 2.823 24.3345 2.86185C24.3256 3.15478 24.3345 3.42787 24.3368 3.75181C24.1803 3.80645 23.9707 3.82796 23.8064 3.85186C23.76 3.85881 23.7137 3.86575 23.666 3.8729C23.6159 3.8803 23.5659 3.88769 23.5143 3.89531C21.4174 4.21433 19.3684 4.73172 17.3276 5.29278C17.3276 4.46597 17.3276 3.63916 17.3276 2.7873C18.4588 2.51075 18.4588 2.51075 19.0065 2.39345C19.0396 2.38634 19.0727 2.37924 19.1068 2.37191C22.998 1.6642 23.0348 1.6282 24.3538 1.53456Z" fill="#404231"/>
<path d="M62.2041 18.0517H70.0954V19.5807H62.2041V18.0517ZM62.5156 24.686H71.3154V26.2409H60.6466V11.5988H71.0039V13.1537H62.5156V24.686Z" fill="#404231"/>
<path d="M89.7563 22.25C89.7563 23.062 89.5313 23.779 89.0814 24.4009C88.6488 25.0229 88.0085 25.5153 87.1605 25.8781C86.3298 26.2236 85.3001 26.3964 84.0714 26.3964C82.9466 26.3964 81.865 26.2236 80.8267 25.8781C79.8056 25.5326 79.0009 25.092 78.4125 24.5564L79.1913 23.1052C79.7278 23.6062 80.4373 24.0208 81.3199 24.3491C82.2198 24.6601 83.1543 24.8156 84.1234 24.8156C85.4732 24.8156 86.4336 24.5823 87.0047 24.1159C87.5931 23.6321 87.8873 23.062 87.8873 22.4055C87.8873 21.8526 87.7229 21.4207 87.3941 21.1097C87.0653 20.7814 86.6327 20.5223 86.0962 20.3322C85.5597 20.1249 84.9713 19.9521 84.331 19.8139C83.6907 19.6757 83.0504 19.5202 82.4101 19.3475C81.7698 19.1747 81.1728 18.9414 80.619 18.6477C80.0825 18.354 79.6499 17.9653 79.3211 17.4816C79.0096 16.9978 78.8538 16.3586 78.8538 15.5638C78.8538 14.7691 79.0702 14.0607 79.5028 13.4388C79.9354 12.8168 80.5671 12.3244 81.3978 11.9616C82.2284 11.5988 83.2494 11.4174 84.4608 11.4174C85.3261 11.4174 86.1741 11.5297 87.0047 11.7543C87.8527 11.9616 88.5795 12.2812 89.1852 12.7132L88.5103 14.2162C87.8873 13.7843 87.221 13.482 86.5115 13.3092C85.802 13.1192 85.1011 13.0241 84.4089 13.0241C83.1283 13.0241 82.1852 13.266 81.5795 13.7498C80.9911 14.2162 80.6969 14.795 80.6969 15.4861C80.6969 16.0389 80.8613 16.4795 81.1901 16.8078C81.5189 17.1187 81.9515 17.3779 82.488 17.5852C83.0245 17.7753 83.6128 17.9394 84.2532 18.0776C84.9108 18.2158 85.5597 18.3713 86.2 18.5441C86.8403 18.7169 87.4287 18.9501 87.9652 19.2438C88.5017 19.5202 88.9343 19.9003 89.2631 20.3841C89.5919 20.8678 89.7563 21.4898 89.7563 22.25Z" fill="#404231"/>
<path d="M98.282 26.2409V11.5988H100.151V26.2409H98.282Z" fill="#404231"/>
<path d="M115.524 26.3964C114.174 26.3964 112.876 26.1804 111.63 25.7485C110.402 25.2993 109.45 24.7292 108.775 24.0381L109.528 22.5609C110.168 23.1829 111.025 23.7099 112.098 24.1418C113.188 24.5564 114.33 24.7637 115.524 24.7637C116.666 24.7637 117.592 24.6255 118.302 24.3491C119.028 24.0554 119.556 23.6667 119.885 23.1829C120.231 22.6992 120.404 22.1636 120.404 21.5762C120.404 20.8678 120.197 20.2977 119.781 19.8658C119.383 19.4338 118.855 19.0969 118.198 18.8551C117.54 18.5959 116.813 18.3713 116.017 18.1813C115.221 17.9912 114.425 17.7925 113.629 17.5852C112.833 17.3606 112.098 17.0669 111.423 16.7041C110.765 16.3413 110.229 15.8662 109.813 15.2788C109.415 14.6741 109.216 13.888 109.216 12.9205C109.216 12.0221 109.45 11.2014 109.917 10.4585C110.402 9.69835 111.137 9.09366 112.124 8.64447C113.11 8.17799 114.373 7.94476 115.914 7.94476C116.935 7.94476 117.947 8.09161 118.951 8.38531C119.954 8.66174 120.82 9.05047 121.546 9.5515L120.897 11.0805C120.119 10.5622 119.288 10.1821 118.405 9.94023C117.54 9.69835 116.701 9.57742 115.888 9.57742C114.797 9.57742 113.897 9.72427 113.188 10.018C112.478 10.3117 111.951 10.709 111.604 11.2101C111.276 11.6938 111.111 12.2467 111.111 12.8686C111.111 13.577 111.31 14.1471 111.708 14.5791C112.124 15.011 112.66 15.3479 113.318 15.5897C113.993 15.8316 114.728 16.0476 115.524 16.2376C116.32 16.4277 117.108 16.635 117.886 16.8596C118.682 17.0842 119.409 17.3779 120.067 17.7407C120.742 18.0862 121.278 18.5527 121.676 19.1401C122.092 19.7275 122.299 20.4964 122.299 21.4466C122.299 22.3277 122.057 23.1484 121.572 23.9085C121.088 24.6514 120.344 25.2561 119.34 25.7226C118.354 26.1718 117.082 26.3964 115.524 26.3964Z" fill="#404231"/>
<path d="M132.481 18.0517H140.372V19.5807H132.481V18.0517ZM132.792 24.686H141.592V26.2409H130.923V11.5988H141.281V13.1537H132.792V24.686Z" fill="#404231"/>
<path d="M150.299 26.2409V11.5988H151.83L161.798 23.9344H161.072V11.5988H162.941V26.2409H161.383L151.415 13.8793H152.168V26.2409H150.299Z" fill="#404231"/>
<path d="M182.805 22.25C182.805 23.062 182.581 23.779 182.131 24.4009C181.698 25.0229 181.058 25.5153 180.21 25.8781C179.379 26.2236 178.349 26.3964 177.121 26.3964C175.996 26.3964 174.914 26.2236 173.876 25.8781C172.855 25.5326 172.05 25.092 171.462 24.5564L172.24 23.1052C172.777 23.6062 173.486 24.0208 174.369 24.3491C175.269 24.6601 176.203 24.8156 177.173 24.8156C178.522 24.8156 179.483 24.5823 180.054 24.1159C180.642 23.6321 180.936 23.062 180.936 22.4055C180.936 21.8526 180.772 21.4207 180.443 21.1097C180.114 20.7814 179.682 20.5223 179.145 20.3322C178.609 20.1249 178.021 19.9521 177.38 19.8139C176.74 19.6757 176.1 19.5202 175.459 19.3475C174.819 19.1747 174.222 18.9414 173.668 18.6477C173.132 18.354 172.699 17.9653 172.37 17.4816C172.059 16.9978 171.903 16.3586 171.903 15.5638C171.903 14.7691 172.119 14.0607 172.552 13.4388C172.985 12.8168 173.616 12.3244 174.447 11.9616C175.278 11.5988 176.299 11.4174 177.51 11.4174C178.375 11.4174 179.223 11.5297 180.054 11.7543C180.902 11.9616 181.629 12.2812 182.234 12.7132L181.56 14.2162C180.937 13.7843 180.27 13.482 179.561 13.3092C178.851 13.1192 178.15 13.0241 177.458 13.0241C176.177 13.0241 175.234 13.266 174.629 13.7498C174.04 14.2162 173.746 14.795 173.746 15.4861C173.746 16.0389 173.91 16.4795 174.239 16.8078C174.568 17.1187 175.001 17.3779 175.537 17.5852C176.074 17.7753 176.662 17.9394 177.302 18.0776C177.96 18.2158 178.609 18.3713 179.249 18.5441C179.89 18.7169 180.478 18.9501 181.014 19.2438C181.551 19.5202 181.983 19.9003 182.312 20.3841C182.641 20.8678 182.805 21.4898 182.805 22.25Z" fill="#404231"/>
<path d="M192.889 18.0517H200.78V19.5807H192.889V18.0517ZM193.2 24.686H202V26.2409H191.331V11.5988H201.688V13.1537H193.2V24.686Z" fill="#404231"/>
<path d="M69.5551 40.8554C69.2134 40.8554 68.8975 40.7992 68.6077 40.6869C68.3178 40.5703 68.0669 40.4083 67.8549 40.201C67.6429 39.9937 67.4763 39.7496 67.3552 39.4689C67.2384 39.1881 67.18 38.8815 67.18 38.5489C67.18 38.2163 67.2384 37.9097 67.3552 37.6289C67.4763 37.3482 67.6429 37.1041 67.8549 36.8968C68.0712 36.6895 68.3243 36.5297 68.6142 36.4174C68.904 36.3008 69.2198 36.2424 69.5616 36.2424C69.8904 36.2424 70.1998 36.2986 70.4896 36.4109C70.7795 36.5189 71.0239 36.683 71.223 36.9033L70.918 37.2078C70.7319 37.0177 70.5264 36.8817 70.3014 36.7996C70.0765 36.7132 69.8342 36.67 69.5746 36.67C69.302 36.67 69.049 36.7176 68.8153 36.8126C68.5817 36.9033 68.3784 37.035 68.2053 37.2078C68.0323 37.3762 67.896 37.5749 67.7965 37.8038C67.7013 38.0284 67.6537 38.2768 67.6537 38.5489C67.6537 38.821 67.7013 39.0715 67.7965 39.3004C67.896 39.525 68.0323 39.7237 68.2053 39.8965C68.3784 40.0649 68.5817 40.1967 68.8153 40.2917C69.049 40.3824 69.302 40.4277 69.5746 40.4277C69.8342 40.4277 70.0765 40.3846 70.3014 40.2982C70.5264 40.2118 70.7319 40.0736 70.918 39.8835L71.223 40.188C71.0239 40.4083 70.7795 40.5746 70.4896 40.6869C70.1998 40.7992 69.8883 40.8554 69.5551 40.8554Z" fill="black"/>
<path d="M75.2449 40.8554C74.6651 40.8554 74.2087 40.6891 73.8756 40.3565C73.5424 40.0239 73.3759 39.5315 73.3759 38.8793V36.2813H73.8561V38.8599C73.8561 39.3955 73.9772 39.7907 74.2195 40.0455C74.4618 40.3003 74.8036 40.4277 75.2449 40.4277C75.6905 40.4277 76.0344 40.3003 76.2767 40.0455C76.519 39.7907 76.6401 39.3955 76.6401 38.8599V36.2813H77.1074V38.8793C77.1074 39.5315 76.9408 40.0239 76.6077 40.3565C76.2789 40.6891 75.8246 40.8554 75.2449 40.8554Z" fill="black"/>
<path d="M83.0453 36.2813H83.519V40.8165H83.0453V36.2813ZM80.2028 40.8165H79.7226V36.2813H80.2028V40.8165ZM83.0907 38.7238H80.1509V38.3027H83.0907V38.7238Z" fill="black"/>
<path d="M86.5852 39.6892L86.5657 39.1061L89.3173 36.2813H89.8689L87.8636 38.3804L87.5911 38.672L86.5852 39.6892ZM86.1698 40.8165V36.2813H86.6501V40.8165H86.1698ZM89.4341 40.8165L87.4743 38.5619L87.7987 38.212L90.0052 40.8165H89.4341Z" fill="black"/>
<path d="M94.3315 40.8165V40.4861L96.2199 38.6396C96.393 38.4711 96.5228 38.3243 96.6093 38.199C96.6958 38.0695 96.7543 37.9485 96.7845 37.8362C96.8148 37.7239 96.83 37.6181 96.83 37.5188C96.83 37.2553 96.7391 37.048 96.5574 36.8968C96.38 36.7456 96.1161 36.67 95.7657 36.67C95.4974 36.67 95.2595 36.7111 95.0518 36.7931C94.8485 36.8752 94.6733 37.0026 94.5262 37.1754L94.1952 36.8903C94.3726 36.683 94.5997 36.5232 94.8766 36.4109C95.1535 36.2986 95.4628 36.2424 95.8046 36.2424C96.1118 36.2424 96.3779 36.2921 96.6028 36.3915C96.8278 36.4865 97.0009 36.6269 97.122 36.8126C97.2475 36.9983 97.3102 37.2164 97.3102 37.4669C97.3102 37.6138 97.2886 37.7585 97.2453 37.901C97.2064 38.0435 97.1328 38.1947 97.0247 38.3545C96.9208 38.51 96.7672 38.6871 96.5639 38.8858L94.8312 40.5832L94.7014 40.4018H97.5179V40.8165H94.3315Z" fill="black"/>
<path d="M101.07 40.8554C100.72 40.8554 100.408 40.7646 100.136 40.5832C99.8632 40.3975 99.6491 40.134 99.4933 39.7928C99.3376 39.4473 99.2597 39.0326 99.2597 38.5489C99.2597 38.0651 99.3376 37.6527 99.4933 37.3114C99.6491 36.9659 99.8632 36.7024 100.136 36.521C100.408 36.3353 100.72 36.2424 101.07 36.2424C101.421 36.2424 101.732 36.3353 102.005 36.521C102.277 36.7024 102.492 36.9659 102.647 37.3114C102.807 37.6527 102.887 38.0651 102.887 38.5489C102.887 39.0326 102.807 39.4473 102.647 39.7928C102.492 40.134 102.277 40.3975 102.005 40.5832C101.732 40.7646 101.421 40.8554 101.07 40.8554ZM101.07 40.4277C101.339 40.4277 101.572 40.3565 101.771 40.214C101.97 40.0671 102.126 39.8555 102.238 39.579C102.351 39.2983 102.407 38.9549 102.407 38.5489C102.407 38.1429 102.351 37.8017 102.238 37.5252C102.126 37.2445 101.97 37.0329 101.771 36.8903C101.572 36.7435 101.339 36.67 101.07 36.67C100.811 36.67 100.579 36.7435 100.376 36.8903C100.173 37.0329 100.015 37.2445 99.9022 37.5252C99.7897 37.8017 99.7334 38.1429 99.7334 38.5489C99.7334 38.9549 99.7897 39.2983 99.9022 39.579C100.015 39.8555 100.173 40.0671 100.376 40.214C100.579 40.3565 100.811 40.4277 101.07 40.4277Z" fill="black"/>
<path d="M104.64 40.8165V40.4861L106.529 38.6396C106.702 38.4711 106.832 38.3243 106.918 38.199C107.005 38.0695 107.063 37.9485 107.093 37.8362C107.124 37.7239 107.139 37.6181 107.139 37.5188C107.139 37.2553 107.048 37.048 106.866 36.8968C106.689 36.7456 106.425 36.67 106.074 36.67C105.806 36.67 105.568 36.7111 105.361 36.7931C105.157 36.8752 104.982 37.0026 104.835 37.1754L104.504 36.8903C104.681 36.683 104.908 36.5232 105.185 36.4109C105.462 36.2986 105.772 36.2424 106.113 36.2424C106.421 36.2424 106.687 36.2921 106.912 36.3915C107.137 36.4865 107.31 36.6269 107.431 36.8126C107.556 36.9983 107.619 37.2164 107.619 37.4669C107.619 37.6138 107.597 37.7585 107.554 37.901C107.515 38.0435 107.442 38.1947 107.333 38.3545C107.23 38.51 107.076 38.6871 106.873 38.8858L105.14 40.5832L105.01 40.4018H107.827V40.8165H104.64Z" fill="black"/>
<path d="M109.358 39.6244V39.2875L111.765 36.2813H112.284L109.896 39.2875L109.643 39.2097H113.297V39.6244H109.358ZM111.921 40.8165V39.6244L111.934 39.2097V38.1602H112.388V40.8165H111.921Z" fill="black"/>
<path d="M118.066 40.8165V37.4151H118.526V40.8165H118.066ZM118.299 36.6636C118.204 36.6636 118.124 36.6312 118.059 36.5664C117.994 36.5016 117.962 36.4238 117.962 36.3331C117.962 36.2424 117.994 36.1669 118.059 36.1064C118.124 36.0416 118.204 36.0092 118.299 36.0092C118.394 36.0092 118.474 36.0394 118.539 36.0999C118.604 36.1604 118.637 36.236 118.637 36.3267C118.637 36.4217 118.604 36.5016 118.539 36.5664C118.479 36.6312 118.399 36.6636 118.299 36.6636Z" fill="black"/>
<path d="M123.066 40.8554C122.72 40.8554 122.4 40.7992 122.106 40.6869C121.816 40.5703 121.563 40.4083 121.346 40.201C121.134 39.9937 120.968 39.7496 120.847 39.4689C120.73 39.1881 120.671 38.8815 120.671 38.5489C120.671 38.2163 120.73 37.9097 120.847 37.6289C120.968 37.3482 121.137 37.1041 121.353 36.8968C121.569 36.6895 121.822 36.5297 122.112 36.4174C122.406 36.3008 122.726 36.2424 123.073 36.2424C123.419 36.2424 123.735 36.2964 124.02 36.4044C124.31 36.5124 124.557 36.6765 124.76 36.8968L124.461 37.2013C124.271 37.0113 124.061 36.8752 123.832 36.7931C123.603 36.7111 123.356 36.67 123.092 36.67C122.811 36.67 122.551 36.7176 122.313 36.8126C122.08 36.9033 121.874 37.035 121.697 37.2078C121.524 37.3762 121.387 37.5749 121.288 37.8038C121.193 38.0284 121.145 38.2768 121.145 38.5489C121.145 38.8167 121.193 39.065 121.288 39.294C121.387 39.5229 121.524 39.7237 121.697 39.8965C121.874 40.0649 122.08 40.1967 122.313 40.2917C122.551 40.3824 122.809 40.4277 123.086 40.4277C123.345 40.4277 123.59 40.3889 123.819 40.3111C124.053 40.2334 124.267 40.1017 124.461 39.9159L124.734 40.2787C124.518 40.4688 124.265 40.6135 123.975 40.7128C123.685 40.8078 123.382 40.8554 123.066 40.8554ZM124.273 40.2204V38.5489H124.734V40.2787L124.273 40.2204Z" fill="black"/>
<path d="M127.69 38.3092H130.091V38.7173H127.69V38.3092ZM127.741 40.4018H130.474V40.8165H127.261V36.2813H130.376V36.696H127.741V40.4018Z" fill="black"/>
<path d="M132.77 40.8165V36.2813H133.166L135.243 39.8187H135.035L137.093 36.2813H137.488V40.8165H137.028V37.0005H137.138L135.243 40.2399H135.016L133.108 37.0005H133.231V40.8165H132.77Z" fill="black"/>
<path d="M143.886 40.8165V36.696H142.289V36.2813H145.962V36.696H144.366V40.8165H143.886Z" fill="black"/>
<path d="M148.893 40.8489C148.538 40.8489 148.226 40.7754 147.958 40.6286C147.69 40.4774 147.48 40.2723 147.329 40.0131C147.177 39.7496 147.102 39.4495 147.102 39.1126C147.102 38.7757 147.173 38.4776 147.316 38.2185C147.463 37.9593 147.662 37.7563 147.913 37.6095C148.168 37.4583 148.454 37.3827 148.769 37.3827C149.09 37.3827 149.373 37.4561 149.62 37.603C149.87 37.7455 150.067 37.9485 150.21 38.212C150.353 38.4711 150.424 38.7713 150.424 39.1126C150.424 39.1341 150.422 39.1579 150.418 39.1838C150.418 39.2054 150.418 39.2292 150.418 39.2551H147.452V38.9117H150.171L149.989 39.0478C149.989 38.8016 149.935 38.5835 149.827 38.3934C149.723 38.199 149.581 38.0479 149.399 37.9399C149.217 37.8319 149.007 37.7779 148.769 37.7779C148.536 37.7779 148.326 37.8319 148.14 37.9399C147.954 38.0479 147.809 38.199 147.705 38.3934C147.601 38.5878 147.549 38.8102 147.549 39.0607V39.132C147.549 39.3911 147.606 39.6201 147.718 39.8187C147.835 40.0131 147.995 40.1664 148.198 40.2787C148.406 40.3867 148.642 40.4407 148.906 40.4407C149.113 40.4407 149.306 40.404 149.483 40.3306C149.665 40.2571 149.821 40.1448 149.951 39.9937L150.21 40.2917C150.059 40.4731 149.868 40.6113 149.639 40.7063C149.414 40.8014 149.165 40.8489 148.893 40.8489Z" fill="black"/>
<path d="M154.57 40.8165V40.0649L154.551 39.9418V38.685C154.551 38.3956 154.469 38.1731 154.304 38.0176C154.144 37.8621 153.904 37.7844 153.584 37.7844C153.363 37.7844 153.153 37.8211 152.954 37.8945C152.755 37.968 152.587 38.0651 152.448 38.1861L152.24 37.8427C152.414 37.6959 152.621 37.5836 152.863 37.5058C153.106 37.4237 153.361 37.3827 153.629 37.3827C154.071 37.3827 154.41 37.4929 154.648 37.7131C154.89 37.9291 155.012 38.2595 155.012 38.7044V40.8165H154.57ZM153.396 40.8489C153.14 40.8489 152.918 40.8078 152.727 40.7258C152.541 40.6394 152.398 40.5228 152.299 40.3759C152.199 40.2247 152.15 40.052 152.15 39.8576C152.15 39.6805 152.191 39.5207 152.273 39.3782C152.359 39.2313 152.498 39.1147 152.688 39.0283C152.883 38.9376 153.143 38.8923 153.467 38.8923H154.642V39.2356H153.48C153.151 39.2356 152.922 39.294 152.792 39.4106C152.667 39.5272 152.604 39.6719 152.604 39.8447C152.604 40.039 152.68 40.1945 152.831 40.3111C152.982 40.4277 153.194 40.4861 153.467 40.4861C153.727 40.4861 153.949 40.4277 154.135 40.3111C154.326 40.1902 154.464 40.0174 154.551 39.7928L154.655 40.1103C154.568 40.3349 154.417 40.5141 154.2 40.648C153.988 40.7819 153.72 40.8489 153.396 40.8489Z" fill="black"/>
<path d="M161.688 37.3827C161.965 37.3827 162.205 37.4367 162.409 37.5447C162.616 37.6483 162.776 37.8082 162.889 38.0241C163.006 38.2401 163.064 38.5122 163.064 38.8404V40.8165H162.603V38.8858C162.603 38.5273 162.517 38.2574 162.344 38.0759C162.175 37.8902 161.935 37.7974 161.623 37.7974C161.39 37.7974 161.186 37.847 161.013 37.9464C160.845 38.0414 160.713 38.1818 160.617 38.3675C160.527 38.5489 160.481 38.7692 160.481 39.0283V40.8165H160.02V38.8858C160.02 38.5273 159.934 38.2574 159.761 38.0759C159.588 37.8902 159.346 37.7974 159.034 37.7974C158.805 37.7974 158.604 37.847 158.43 37.9464C158.257 38.0414 158.123 38.1818 158.028 38.3675C157.937 38.5489 157.892 38.7692 157.892 39.0283V40.8165H157.431V37.4151H157.872V38.3351L157.801 38.1731C157.905 37.9269 158.071 37.7347 158.301 37.5965C158.534 37.454 158.809 37.3827 159.125 37.3827C159.458 37.3827 159.741 37.4669 159.975 37.6354C160.209 37.7995 160.36 38.0479 160.429 38.3804L160.248 38.3092C160.347 38.0328 160.522 37.8103 160.773 37.6419C161.028 37.4691 161.333 37.3827 161.688 37.3827Z" fill="black"/>
</svg>
