<?xml version="1.0" encoding="UTF-8"?><svg id="Layer_2" xmlns="http://www.w3.org/2000/svg" viewBox="0 0 537.38 537.41"><defs><style>.cls-1{fill:#ab9fd4;}.cls-2{fill:#c7738d;}.cls-3{fill:#7ec3d5;}.cls-4{font-family:Baloo2-Bold, 'Baloo 2';font-size:30.25px;font-variation-settings:'wght' 700;font-weight:700;}.cls-5{fill:#78b585;}</style></defs><g id="Layer_1-2"><path class="cls-2" d="M432.91,56.36c18.71,13.32,34.35,29.78,48.37,47.82,21.23,27.32,36.67,57.69,46.05,90.96,6.56,23.25,9.74,47.07,10.03,71.31.5,42.32-8.36,82.6-27.53,120.16-8.54,16.74-20.09,31.95-30.27,47.86-2.15,1.88-4.68,1.51-7.14,1.09-16.25-2.81-32.55-5.32-48.81-8.09-3.42-.58-5.75-2.43-7.19-5.53-7.08-15.26-14.13-30.53-20.96-45.91-.95-2.15-1.5-4.42-1.31-6.8,1.45-5.5,5.71-9.3,8.62-13.9,18.41-29.02,27.11-60.53,25.3-94.91-2.19-41.63-18.56-76.82-47.98-106.12-3.42-3.41-6.86-6.79-10.61-9.86-1.24-1.01-2.75-2.04-2.22-4.09,12.27-5.96,24.8-11.32,37.22-16.95,4.09-1.86,8.11-3.9,12.32-5.49,3.83-1.44,5.75-4.11,6.37-8.14,2.5-16.29,5.56-32.5,8.22-48.76.26-1.62.2-3.36,1.5-4.65Z"/><path class="cls-3" d="M395.24,368.92c2.68,7.1,5.09,14.32,8.12,21.27,4.57,10.49,9.43,20.87,14.5,31.13.95,1.92,3.26,4.07,5.24,4.42,17.46,3.15,34.99,5.92,52.5,8.76,1.29.21,2.64,0,3.96-.02-13.14,18.46-29.6,33.62-47.39,47.43-28.33,22-60.05,37.42-94.62,46.52-46.39,12.21-92.94,11.99-139.33-.67-33.76-9.22-64.54-24.43-92.36-45.64-1.31-1-2.48-2.19-3.71-3.29-2.27-2.34-1.97-5.2-1.49-8.01,2.75-16.24,5.56-32.48,8.31-48.72.54-3.18,2.12-5.58,5.09-6.93,15.76-7.16,31.54-14.26,47.32-21.37,1.52-.68,3.13-1.13,4.84-1.02,4.64,1.18,8.21,4.34,11.99,6.97,30.12,20.94,63.74,30.28,100.04,28.11,40.59-2.42,75.64-18.36,104.37-47.51,2.92-2.96,5.84-5.93,8.58-9.06,1.05-1.21,1.99-2.79,4.04-2.36Z"/><path class="cls-1" d="M166.77,393.75c-11.08,4.74-22.16,9.46-33.22,14.24-6.07,2.62-12.22,5.12-18.07,8.17-2.04,1.06-4.35,3.4-4.76,5.5-3.12,16.21-5.87,32.49-8.56,48.78-.45,2.72-.03,5.58,0,8.38-14.7-14.59-30.56-28.19-43.85-43.97-25.44-30.22-41.93-65.52-50.81-103.86-14.07-60.78-8.55-120.08,18.58-176.49,8.36-17.38,20.03-33.16,30.19-49.68,1.72-1.78,3.85-1.72,6.05-1.37,16.6,2.64,33.2,5.31,49.75,8.3,3.97.72,6.57,2.78,8.18,6.47,6.52,14.96,13.74,29.59,20.3,44.53.87,1.98,1.81,3.94,1.87,6.16.08,2.7-1.48,4.68-2.95,6.71-19.27,26.54-29.04,56.26-29.92,88.99-.87,32.76,7.78,62.9,25.21,90.5,7.86,12.44,17.58,23.41,28.65,33.15,1.65,1.45,4.17,2.5,3.36,5.51Z"/><path class="cls-5" d="M141.27,169.44c-3.47-8.24-6.84-16.53-10.45-24.71-3.82-8.66-7.59-17.35-11.98-25.72-1.31-2.49-4.42-5.13-7.09-5.64-16.79-3.22-33.68-5.88-50.55-8.65-1.6-.26-3.29.04-4.94.08,12.49-17.41,27.74-32.16,44.3-45.59,25.99-21.08,55.03-36.67,86.91-46.67C211.3,5.09,235.64.72,260.81.09c51.72-1.29,99.74,11.09,144.29,37,9.72,5.65,18.56,12.81,27.81,19.27-1.07,8.02-1.97,16.07-3.24,24.06-1.69,10.64-3.54,21.25-5.63,31.81-.39,1.97-1.85,4.54-3.53,5.32-16.2,7.59-32.53,14.87-48.86,22.17-1.33.59-2.9.63-4.36.92-2.29.85-3.8-.8-5.38-1.85-11.81-7.84-24.06-14.78-37.43-19.68-20.24-7.41-41.03-10.53-62.62-9.78-26.57.93-50.94,8.73-73.83,21.73-15.78,8.97-29.23,20.76-40.96,34.57-1.52,1.79-2.56,4.54-5.79,3.79Z"/><text class="cls-4" transform="translate(153.5 89.74) rotate(-30.74)"><tspan x="0" y="0">L</tspan></text><text class="cls-4" transform="translate(166.86 81.91) rotate(-27.53)"><tspan x="0" y="0">i</tspan></text><text class="cls-4" transform="translate(174.18 78.05) rotate(-24.81)"><tspan x="0" y="0">t</tspan></text><text class="cls-4" transform="translate(184.74 73.08) rotate(-21.03)"><tspan x="0" y="0">e</tspan></text><text class="cls-4" transform="translate(200.12 67.24) rotate(-17.13)"><tspan x="0" y="0">r</tspan></text><text class="cls-4" transform="translate(211.46 63.67) rotate(-13.38)"><tspan x="0" y="0">a</tspan></text><text class="cls-4" transform="translate(227.23 59.99) rotate(-9.58)"><tspan x="0" y="0">t</tspan></text><text class="cls-4" transform="translate(238.9 57.93) rotate(-5.64)"><tspan x="0" y="0">u</tspan></text><text class="cls-4" transform="translate(256.26 56.31) rotate(-1.67)"><tspan x="0" y="0">r</tspan></text><text class="cls-4" transform="translate(268.03 55.88) rotate(2)"><tspan x="0" y="0">e</tspan></text><text class="cls-4" transform="translate(284.43 56.59) rotate(5)"><tspan x="0" y="0"> </tspan></text><text class="cls-4" transform="translate(290.54 56.95) rotate(8.28)"><tspan x="0" y="0">R</tspan></text><text class="cls-4" transform="translate(308.28 59.55) rotate(12.88)"><tspan x="0" y="0">e</tspan></text><text class="cls-4" transform="translate(324.21 63.2) rotate(17.27)"><tspan x="0" y="0">v</tspan></text><text class="cls-4" transform="translate(339.62 68.11) rotate(20.59)"><tspan x="0" y="0">i</tspan></text><text class="cls-4" transform="translate(347.43 70.92) rotate(23.95)"><tspan x="0" y="0">e</tspan></text><text class="cls-4" transform="translate(362.51 77.43) rotate(29.34)"><tspan x="0" y="0">w</tspan></text><text class="cls-4" transform="translate(172.14 109.25) rotate(-28.77)"><tspan x="0" y="0">a</tspan></text><text class="cls-4" transform="translate(185.49 101.84) rotate(-23.86)"><tspan x="0" y="0">n</tspan></text><text class="cls-4" transform="translate(200.52 95.15) rotate(-18.76)"><tspan x="0" y="0">d</tspan></text><text class="cls-4" transform="translate(216.86 89.78) rotate(-15.19)"><tspan x="0" y="0"> </tspan></text><text class="cls-4" transform="translate(222.32 88.07) rotate(-11.47)"><tspan x="0" y="0">B</tspan></text><text class="cls-4" transform="translate(239.79 84.63) rotate(-6.96)"><tspan x="0" y="0">r</tspan></text><text class="cls-4" transform="translate(251.04 83.15) rotate(-2.9)"><tspan x="0" y="0">a</tspan></text><text class="cls-4" transform="translate(266.77 82.45) rotate(.93)"><tspan x="0" y="0">i</tspan></text><text class="cls-4" transform="translate(274.76 82.4) rotate(4.47)"><tspan x="0" y="0">n</tspan></text><text class="cls-4" transform="translate(291.33 83.72) rotate(9.14)"><tspan x="0" y="0">s</tspan></text><text class="cls-4" transform="translate(305.28 86) rotate(13.09)"><tspan x="0" y="0">t</tspan></text><text class="cls-4" transform="translate(316.07 88.36) rotate(17.39)"><tspan x="0" y="0">o</tspan></text><text class="cls-4" transform="translate(332.11 93.47) rotate(21.8)"><tspan x="0" y="0">r</tspan></text><text class="cls-4" transform="translate(342.37 97.17) rotate(27.2)"><tspan x="0" y="0">m</tspan></text><text class="cls-4" transform="translate(371.66 455.11) rotate(153.76)"><tspan x="0" y="0">H</tspan></text><text class="cls-4" transform="translate(353.45 464.01) rotate(158.86)"><tspan x="0" y="0">u</tspan></text><text class="cls-4" transform="translate(337.21 470.5) rotate(164.7)"><tspan x="0" y="0">m</tspan></text><text class="cls-4" transform="translate(312.56 477.01) rotate(170.34)"><tspan x="0" y="0">a</tspan></text><text class="cls-4" transform="translate(296.57 479.75) rotate(174.88)"><tspan x="0" y="0">n</tspan></text><text class="cls-4" transform="translate(279.21 481.14) rotate(178.02)"><tspan x="0" y="0"> </tspan></text><text class="cls-4" transform="translate(273.1 481.51) rotate(-178.85)"><tspan x="0" y="0">P</tspan></text><text class="cls-4" transform="translate(256.19 481.11) rotate(-175.05)"><tspan x="0" y="0">r</tspan></text><text class="cls-4" transform="translate(244.32 480.15) rotate(-171.32)"><tspan x="0" y="0">a</tspan></text><text class="cls-4" transform="translate(228.31 477.68) rotate(-167.14)"><tspan x="0" y="0">c</tspan></text><text class="cls-4" transform="translate(213.94 474.35) rotate(-163.52)"><tspan x="0" y="0">t</tspan></text><text class="cls-4" transform="translate(202.57 470.94) rotate(-160.79)"><tspan x="0" y="0">i</tspan></text><text class="cls-4" transform="translate(194.72 468.3) rotate(-157.67)"><tspan x="0" y="0">c</tspan></text><text class="cls-4" transform="translate(181.43 462.89) rotate(-153.55)"><tspan x="0" y="0">e</tspan></text><text class="cls-4" transform="translate(337.43 441.88) rotate(159.71)"><tspan x="0" y="0">I</tspan></text><text class="cls-4" transform="translate(329.5 444.98) rotate(163.67)"><tspan x="0" y="0">n</tspan></text><text class="cls-4" transform="translate(313.37 449.62) rotate(168.01)"><tspan x="0" y="0">t</tspan></text><text class="cls-4" transform="translate(302.53 452.03) rotate(172.14)"><tspan x="0" y="0">e</tspan></text><text class="cls-4" transform="translate(286.84 454.14) rotate(176.35)"><tspan x="0" y="0">r</tspan></text><text class="cls-4" transform="translate(274.87 455.03) rotate(-179.07)"><tspan x="0" y="0">v</tspan></text><text class="cls-4" transform="translate(258.89 454.71) rotate(-175.78)"><tspan x="0" y="0">i</tspan></text><text class="cls-4" transform="translate(250.96 454.26) rotate(-172.1)"><tspan x="0" y="0">e</tspan></text><text class="cls-4" transform="translate(235.95 452.43) rotate(-166.34)"><tspan x="0" y="0">w</tspan></text><text class="cls-4" transform="translate(214.28 446.99) rotate(-160.8)"><tspan x="0" y="0">s</tspan></text><text class="cls-4" transform="translate(104.73 395.38) rotate(-125.32)"><tspan x="0" y="0">P</tspan></text><text class="cls-4" transform="translate(95.19 381.82) rotate(-121.47)"><tspan x="0" y="0">r</tspan></text><text class="cls-4" transform="translate(89.16 372.19) rotate(-117.59)"><tspan x="0" y="0">o</tspan></text><text class="cls-4" transform="translate(81.31 356.88) rotate(-114.08)"><tspan x="0" y="0">j</tspan></text><text class="cls-4" transform="translate(77.89 349.55) rotate(-110.71)"><tspan x="0" y="0">e</tspan></text><text class="cls-4" transform="translate(72.24 334.55) rotate(-106.47)"><tspan x="0" y="0">c</tspan></text><text class="cls-4" transform="translate(68.19 320.73) rotate(-102.86)"><tspan x="0" y="0">t</tspan></text><text class="cls-4" transform="translate(65.67 309.4) rotate(-100.43)"><tspan x="0" y="0"> </tspan></text><text class="cls-4" transform="translate(64.3 303.83) rotate(-96.36)"><tspan x="0" y="0">M</tspan></text><text class="cls-4" transform="translate(61.85 280.52) rotate(-90.93)"><tspan x="0" y="0">o</tspan></text><text class="cls-4" transform="translate(61.57 263.42) rotate(-86.18)"><tspan x="0" y="0">d</tspan></text><text class="cls-4" transform="translate(62.85 246.3) rotate(-82.72)"><tspan x="0" y="0">i</tspan></text><text class="cls-4" transform="translate(63.62 238.44) rotate(-78.77)"><tspan x="0" y="0">fi</tspan></text><text class="cls-4" transform="translate(67.73 218.33) rotate(-73.92)"><tspan x="0" y="0">c</tspan></text><text class="cls-4" transform="translate(71.67 204.5) rotate(-69.71)"><tspan x="0" y="0">a</tspan></text><text class="cls-4" transform="translate(77.21 189.69) rotate(-65.91)"><tspan x="0" y="0">t</tspan></text><text class="cls-4" transform="translate(81.98 179.12) rotate(-63.18)"><tspan x="0" y="0">i</tspan></text><text class="cls-4" transform="translate(85.43 171.97) rotate(-59.7)"><tspan x="0" y="0">o</tspan></text><text class="cls-4" transform="translate(94.05 157.19) rotate(-54.98)"><tspan x="0" y="0">n</tspan></text><text class="cls-4" transform="translate(448.5 165.98) rotate(61.44)"><tspan x="0" y="0">I</tspan></text><text class="cls-4" transform="translate(452.89 173.32) rotate(66.1)"><tspan x="0" y="0">m</tspan></text><text class="cls-4" transform="translate(462.82 196.18) rotate(71.94)"><tspan x="0" y="0">p</tspan></text><text class="cls-4" transform="translate(468.02 212.52) rotate(75.45)"><tspan x="0" y="0">l</tspan></text><text class="cls-4" transform="translate(470.15 220.25) rotate(78.81)"><tspan x="0" y="0">e</tspan></text><text class="cls-4" transform="translate(473.49 235.87) rotate(84.47)"><tspan x="0" y="0">m</tspan></text><text class="cls-4" transform="translate(475.82 260.7) rotate(90.93)"><tspan x="0" y="0">e</tspan></text><text class="cls-4" transform="translate(475.72 276.74) rotate(94.57)"><tspan x="0" y="0">n</tspan></text><text class="cls-4" transform="translate(474.27 293.74) rotate(98.51)"><tspan x="0" y="0">t</tspan></text><text class="cls-4" transform="translate(472.65 305.17) rotate(102.31)"><tspan x="0" y="0">a</tspan></text><text class="cls-4" transform="translate(469.22 320.59) rotate(106.12)"><tspan x="0" y="0">t</tspan></text><text class="cls-4" transform="translate(465.96 331.73) rotate(108.85)"><tspan x="0" y="0">i</tspan></text><text class="cls-4" transform="translate(463.53 339.3) rotate(112.36)"><tspan x="0" y="0">o</tspan></text><text class="cls-4" transform="translate(457.05 355.1) rotate(117.09)"><tspan x="0" y="0">n</tspan></text></g></svg>