<?xml version="1.0" encoding="UTF-8"?><svg id="Layer_2" xmlns="http://www.w3.org/2000/svg" viewBox="0 0 537.38 537.41"><defs><style>.cls-1{fill:#ab9fd4;}.cls-2{fill:#c7738d;}.cls-3{fill:#7ec3d5;}.cls-4{fill:#78b585;}</style></defs><g id="Layer_1-2"><path class="cls-2" d="M432.91,56.36c18.71,13.32,34.35,29.78,48.37,47.82,21.23,27.32,36.67,57.69,46.05,90.96,6.56,23.25,9.74,47.07,10.03,71.31.5,42.32-8.36,82.6-27.53,120.16-8.54,16.74-20.09,31.95-30.27,47.86-2.15,1.88-4.68,1.51-7.14,1.09-16.25-2.81-32.55-5.32-48.81-8.09-3.42-.58-5.75-2.43-7.19-5.53-7.08-15.26-14.13-30.53-20.96-45.91-.95-2.15-1.5-4.42-1.31-6.8,1.45-5.5,5.71-9.3,8.62-13.9,18.41-29.02,27.11-60.53,25.3-94.91-2.19-41.63-18.56-76.82-47.98-106.12-3.42-3.41-6.86-6.79-10.61-9.86-1.24-1.01-2.75-2.04-2.22-4.09,12.27-5.96,24.8-11.32,37.22-16.95,4.09-1.86,8.11-3.9,12.32-5.49,3.83-1.44,5.75-4.11,6.37-8.14,2.5-16.29,5.56-32.5,8.22-48.76.26-1.62.2-3.36,1.5-4.65Z"/><path class="cls-3" d="M395.24,368.92c2.68,7.1,5.09,14.32,8.12,21.27,4.57,10.49,9.43,20.87,14.5,31.13.95,1.92,3.26,4.07,5.24,4.42,17.46,3.15,34.99,5.92,52.5,8.76,1.29.21,2.64,0,3.96-.02-13.14,18.46-29.6,33.62-47.39,47.43-28.33,22-60.05,37.42-94.62,46.52-46.39,12.21-92.94,11.99-139.33-.67-33.76-9.22-64.54-24.43-92.36-45.64-1.31-1-2.48-2.19-3.71-3.29-2.27-2.34-1.97-5.2-1.49-8.01,2.75-16.24,5.56-32.48,8.31-48.72.54-3.18,2.12-5.58,5.09-6.93,15.76-7.16,31.54-14.26,47.32-21.37,1.52-.68,3.13-1.13,4.84-1.02,4.64,1.18,8.21,4.34,11.99,6.97,30.12,20.94,63.74,30.28,100.04,28.11,40.59-2.42,75.64-18.36,104.37-47.51,2.92-2.96,5.84-5.93,8.58-9.06,1.05-1.21,1.99-2.79,4.04-2.36Z"/><path class="cls-1" d="M166.77,393.75c-11.08,4.74-22.16,9.46-33.22,14.24-6.07,2.62-12.22,5.12-18.07,8.17-2.04,1.06-4.35,3.4-4.76,5.5-3.12,16.21-5.87,32.49-8.56,48.78-.45,2.72-.03,5.58,0,8.38-14.7-14.59-30.56-28.19-43.85-43.97-25.44-30.22-41.93-65.52-50.81-103.86-14.07-60.78-8.55-120.08,18.58-176.49,8.36-17.38,20.03-33.16,30.19-49.68,1.72-1.78,3.85-1.72,6.05-1.37,16.6,2.64,33.2,5.31,49.75,8.3,3.97.72,6.57,2.78,8.18,6.47,6.52,14.96,13.74,29.59,20.3,44.53.87,1.98,1.81,3.94,1.87,6.16.08,2.7-1.48,4.68-2.95,6.71-19.27,26.54-29.04,56.26-29.92,88.99-.87,32.76,7.78,62.9,25.21,90.5,7.86,12.44,17.58,23.41,28.65,33.15,1.65,1.45,4.17,2.5,3.36,5.51Z"/><path class="cls-4" d="M141.27,169.44c-3.47-8.24-6.84-16.53-10.45-24.71-3.82-8.66-7.59-17.35-11.98-25.72-1.31-2.49-4.42-5.13-7.09-5.64-16.79-3.22-33.68-5.88-50.55-8.65-1.6-.26-3.29.04-4.94.08,12.49-17.41,27.74-32.16,44.3-45.59,25.99-21.08,55.03-36.67,86.91-46.67C211.3,5.09,235.64.72,260.81.09c51.72-1.29,99.74,11.09,144.29,37,9.72,5.65,18.56,12.81,27.81,19.27-1.07,8.02-1.97,16.07-3.24,24.06-1.69,10.64-3.54,21.25-5.63,31.81-.39,1.97-1.85,4.54-3.53,5.32-16.2,7.59-32.53,14.87-48.86,22.17-1.33.59-2.9.63-4.36.92-2.29.85-3.8-.8-5.38-1.85-11.81-7.84-24.06-14.78-37.43-19.68-20.24-7.41-41.03-10.53-62.62-9.78-26.57.93-50.94,8.73-73.83,21.73-15.78,8.97-29.23,20.76-40.96,34.57-1.52,1.79-2.56,4.54-5.79,3.79Z"/><path d="M155.72,80.28l-3.95,2.35-5.83-9.8c.15-.14.39-.34.72-.6.32-.26.65-.49.98-.69.76-.45,1.39-.65,1.87-.58.48.06.94.46,1.38,1.19l4.84,8.14ZM148.83,77.7l3.95-2.35,6.42,10.79-1.72,1.31c-.64.38-1.27.5-1.87.34-.61-.15-1.1-.55-1.48-1.19l-5.29-8.89ZM157.48,87.44l-1.92-3.22,8.16-4.85c.22.1.46.26.71.48.25.22.47.49.66.82.33.55.46,1.04.38,1.46-.08.42-.33.76-.77,1.02l-7.23,4.3Z"/><path d="M159.64,64.59c-.32-.61-.37-1.23-.17-1.86.21-.63.63-1.11,1.27-1.45.66-.34,1.3-.42,1.93-.22.62.2,1.1.6,1.41,1.21.31.59.37,1.21.18,1.85-.19.64-.61,1.14-1.27,1.48-.64.34-1.29.4-1.93.19-.64-.21-1.12-.61-1.43-1.2ZM169.88,73.96l-3.97,2.07-4.01-7.7c.13-.14.35-.32.65-.55.3-.23.64-.44,1.02-.63.77-.4,1.39-.56,1.87-.48.47.08.9.49,1.29,1.22l3.16,6.06ZM164.83,73.96l3.97-2.07,3.68,7.05c-.13.14-.35.31-.65.53-.3.21-.64.42-1.01.61-.77.4-1.4.56-1.89.47-.49-.09-.92-.48-1.28-1.18l-2.82-5.42Z"/><path d="M176.8,68.87l-4.04,1.87-4.56-9.86c.16-.14.39-.32.69-.53.3-.22.63-.41,1-.58.79-.36,1.42-.49,1.89-.38.47.11.88.54,1.22,1.27l3.79,8.21ZM173.88,66.36l-1.45-3.13,5.27-2.44c.16.1.35.27.57.5.22.23.4.51.56.84.25.55.32,1.01.19,1.38-.13.37-.4.65-.83.85l-4.31,1.99ZM172.45,70.05l4.04-1.87,1.36,2.94c.24.51.58.81,1.02.9.44.09.96-.01,1.56-.29.28-.13.56-.3.85-.51.29-.21.53-.41.7-.61.22.1.45.24.68.42.23.18.42.43.56.74.29.62.27,1.25-.06,1.89s-1.09,1.24-2.3,1.8c-1.54.71-2.89.92-4.07.61-1.17-.3-2.12-1.24-2.85-2.81l-1.49-3.21Z"/><path d="M186.48,66.9l-1.25-2.76,6.58-3.79c-.24-.51-.66-.92-1.24-1.21-.59-.29-1.29-.28-2.1.03-.85.33-1.44.88-1.79,1.68-.34.79-.33,1.72.04,2.79l.89,1.89c.57.97,1.29,1.54,2.18,1.71.88.17,1.82.06,2.8-.31.79-.3,1.49-.7,2.1-1.2s1.08-.95,1.42-1.36c.35.06.67.21.96.44s.51.52.64.86c.22.56.18,1.12-.12,1.67-.3.55-.8,1.06-1.51,1.55-.71.49-1.56.92-2.56,1.31-1.45.56-2.86.79-4.22.68s-2.59-.57-3.67-1.41c-1.08-.84-1.93-2.08-2.56-3.71-.46-1.2-.67-2.32-.63-3.36.05-1.03.28-1.96.71-2.79.43-.82,1-1.53,1.71-2.13.71-.6,1.51-1.07,2.39-1.41,1.3-.5,2.53-.68,3.7-.53,1.17.15,2.2.55,3.08,1.23.89.67,1.55,1.6,2,2.76.22.58.23,1.09.03,1.51-.21.42-.57.78-1.11,1.07l-8.47,4.78Z"/><path d="M202.95,55.26l1.11,3.61-4.28,1.32-1.27-4.13c-.17-.54-.18-1.04-.03-1.49s.4-.9.78-1.33c.52-.58,1.19-1.12,2.02-1.62.83-.5,1.73-.9,2.72-1.2,1.97-.61,3.15-.25,3.55,1.06.1.31.14.61.14.91,0,.3-.03.56-.09.79-.21.02-.45.06-.74.12-.29.06-.6.14-.92.24-.58.18-1.13.42-1.67.74-.54.31-.97.65-1.3,1ZM199.44,59.09l4.3-1.23,2.32,7.52c-.18.12-.43.25-.76.41-.33.15-.7.29-1.1.42-.81.25-1.45.29-1.91.11s-.81-.64-1.04-1.39l-1.8-5.84Z"/><path d="M215.32,47.36c2.04-.48,3.77-.45,5.19.12,1.42.56,2.34,1.74,2.77,3.52l1.59,6.68c.12.49.08.92-.1,1.28-.18.37-.45.7-.79,1.01-.5.49-1.17.95-1.99,1.36s-1.79.75-2.91,1.02c-2,.48-3.69.46-5.06-.04s-2.24-1.53-2.61-3.08c-.32-1.33-.15-2.46.5-3.37.65-.91,1.78-1.64,3.37-2.18l3.82-1.34-.08-.35c-.16-.67-.53-1.09-1.12-1.26-.59-.17-1.37-.14-2.33.09-.75.18-1.46.44-2.13.79-.67.35-1.27.71-1.78,1.08-.27-.1-.53-.29-.77-.58-.24-.28-.41-.6-.49-.96-.2-.82.11-1.53.93-2.12.51-.37,1.13-.7,1.86-.99.73-.29,1.45-.52,2.15-.68ZM218.3,59.09c.45-.11.89-.26,1.31-.45.42-.19.71-.37.88-.54l-.67-2.82-2.42.82c-.66.2-1.16.46-1.49.79-.34.33-.45.73-.34,1.2.11.47.39.8.83,1,.44.2,1.07.2,1.9,0Z"/><path d="M232.17,51.83l-4.38.74-1.81-10.71c.19-.09.46-.2.8-.33.35-.13.72-.23,1.12-.3.85-.14,1.5-.1,1.92.14.43.23.71.75.84,1.54l1.5,8.92ZM227.66,51.82l4.38-.74.54,3.19c.09.56.34.93.74,1.13.4.2.93.24,1.59.13.3-.05.62-.14.95-.27.34-.13.62-.26.84-.4.19.15.37.35.54.58.17.24.29.52.35.86.11.68-.07,1.28-.55,1.81-.48.53-1.38.91-2.69,1.13-1.67.28-3.03.12-4.08-.48-1.05-.6-1.72-1.75-2.01-3.46l-.59-3.49ZM230,48.63l-.57-3.4,5.73-.97c.13.14.26.35.41.64.15.28.26.6.32.96.1.6.04,1.06-.18,1.38-.22.32-.56.52-1.02.6l-4.68.79Z"/><path d="M244.46,50.87l-4.46.44-.78-7.95c.17-.08.44-.17.79-.26.36-.1.74-.16,1.16-.21.86-.09,1.5,0,1.92.25.42.25.67.79.75,1.61l.6,6.11ZM240.09,52.13l-.21-2.17,4.46-.44.21,2.14c.09.92.39,1.56.9,1.92.51.35,1.2.49,2.06.4.54-.05.99-.15,1.34-.28.35-.14.61-.26.78-.38l-.42-4.27,4.49-.44.48,4.82c.05.48,0,.9-.16,1.26-.16.36-.43.69-.83.99-.6.46-1.36.86-2.27,1.18-.91.32-1.94.54-3.08.65-1.43.14-2.7.05-3.81-.26s-2.01-.89-2.69-1.72-1.09-1.96-1.23-3.39ZM253.83,49.95l-4.49.44-.79-7.95c.2-.08.47-.17.83-.26.35-.1.74-.16,1.16-.21.86-.08,1.5,0,1.92.25.42.25.67.79.75,1.61l.6,6.11Z"/><path d="M262.18,45.51l.11,3.78-4.47.13-.13-4.32c-.02-.56.11-1.05.37-1.45.26-.4.63-.76,1.1-1.08.65-.42,1.45-.76,2.38-1.02.93-.26,1.91-.4,2.94-.43,2.06-.06,3.1.6,3.14,1.97,0,.32-.03.63-.11.91-.08.29-.18.53-.3.73-.2-.03-.45-.06-.74-.08-.29-.02-.61-.03-.95-.02-.61.02-1.21.11-1.81.26-.6.16-1.11.37-1.52.62ZM257.78,48.27l4.48-.04.23,7.86c-.2.07-.48.13-.84.19-.36.06-.75.1-1.18.11-.85.02-1.47-.11-1.87-.4-.4-.29-.61-.83-.64-1.62l-.18-6.11Z"/><path d="M272.05,50.88l-.08-3.03,7.54-.92c-.02-.56-.24-1.1-.67-1.6-.43-.5-1.07-.76-1.94-.79-.91-.03-1.67.25-2.3.84-.63.59-.98,1.45-1.06,2.58l.08,2.09c.14,1.12.59,1.92,1.34,2.42.75.5,1.65.77,2.7.81.85.03,1.65-.06,2.4-.28s1.37-.45,1.84-.69c.3.19.54.45.71.78.18.33.26.68.25,1.04-.02.6-.28,1.1-.76,1.49-.49.39-1.15.67-2,.84-.84.17-1.8.24-2.87.2-1.55-.05-2.94-.4-4.16-1.02s-2.16-1.54-2.82-2.73c-.67-1.19-.97-2.67-.91-4.42.04-1.29.29-2.4.74-3.33.45-.93,1.03-1.69,1.74-2.28s1.52-1.02,2.41-1.29,1.8-.39,2.75-.36c1.39.05,2.59.37,3.61.96,1.02.59,1.8,1.37,2.36,2.34.55.97.8,2.08.76,3.33-.02.62-.21,1.09-.56,1.4-.35.31-.83.5-1.44.56l-9.66,1.09Z"/><path d="M293.81,49.45l4.55.66-1.13,7.78c-.19.03-.49.05-.89.04-.41,0-.82-.04-1.24-.1-.9-.13-1.51-.38-1.83-.76s-.43-.96-.31-1.76l.85-5.87ZM300.44,52.15l-6.88-1,1.52-10.45c.06-.38.21-.66.46-.85.25-.19.57-.31.94-.38.69-.14,1.49-.2,2.39-.17s1.83.11,2.79.25c2.69.39,4.64,1.25,5.83,2.58,1.19,1.33,1.65,2.96,1.37,4.89-.17,1.2-.66,2.22-1.44,3.08-.79.85-1.78,1.46-2.99,1.83-1.2.36-2.54.44-3.99.23ZM298.59,48.28l1.95.28c1,.15,1.83.04,2.51-.32.67-.36,1.07-.98,1.2-1.86.12-.86-.07-1.55-.58-2.09-.51-.53-1.37-.89-2.57-1.06-.34-.05-.65-.08-.93-.1-.28-.02-.56-.02-.83,0l-.75,5.15ZM299.76,50.95l4.21-.37c.37.71.75,1.4,1.15,2.09.4.69.78,1.36,1.15,2,.36.64.69,1.24.98,1.78.29.54.52,1,.69,1.37-.27.57-.65.99-1.16,1.25-.51.26-1.05.35-1.63.27-.74-.11-1.28-.35-1.62-.74-.34-.39-.64-.87-.9-1.46l-2.86-6.19Z"/><path d="M313.17,55.4l.5-2.99,7.58.52c.09-.56-.03-1.12-.36-1.7-.32-.57-.91-.95-1.75-1.15-.88-.2-1.69-.07-2.42.39-.73.47-1.24,1.24-1.53,2.33l-.32,2.07c-.07,1.12.21,2,.86,2.63.64.63,1.47,1.07,2.5,1.3.83.19,1.63.25,2.41.18.78-.07,1.43-.18,1.94-.33.25.24.44.55.55.9.11.36.13.71.05,1.07-.13.59-.48,1.03-1.03,1.32-.55.29-1.26.44-2.12.45-.86,0-1.81-.1-2.85-.34-1.51-.35-2.81-.94-3.89-1.79-1.08-.85-1.83-1.92-2.26-3.22-.43-1.3-.45-2.8-.05-4.51.29-1.26.74-2.3,1.35-3.13.61-.83,1.33-1.47,2.14-1.91.82-.44,1.68-.72,2.61-.82.92-.1,1.85-.04,2.77.17,1.36.31,2.48.85,3.37,1.62.89.77,1.51,1.69,1.87,2.74.36,1.05.4,2.19.12,3.41-.14.61-.41,1.03-.82,1.27-.41.24-.91.33-1.52.27l-9.69-.76Z"/><path d="M341.15,52.94c.6.19,1.05.47,1.37.85.31.38.38.88.18,1.5-.11.35-.37.86-.79,1.53-.42.67-.94,1.44-1.56,2.3-.62.86-1.27,1.74-1.97,2.62-.7.88-1.37,1.7-2.03,2.46-.66.76-1.23,1.38-1.72,1.86-.26.09-.64.12-1.14.1s-1.03-.11-1.59-.29c-.65-.2-1.19-.47-1.61-.79-.42-.32-.67-.69-.75-1.12-.09-.47-.17-1.12-.25-1.95-.08-.83-.15-1.76-.21-2.8-.06-1.04-.1-2.12-.14-3.23-.04-1.11-.05-2.17-.05-3.18,0-1.01.02-1.89.06-2.64.33-.17.72-.29,1.17-.35.45-.06.91-.02,1.37.13.6.19,1.05.46,1.36.83s.44.93.4,1.68l-.13,5c-.01.59-.02,1.18-.03,1.77,0,.59-.01,1.14-.02,1.64,0,.5-.02.94-.02,1.29l.12.04c.95-1.42,1.93-2.94,2.96-4.58,1.03-1.63,1.98-3.24,2.88-4.82.67-.13,1.39-.08,2.14.16Z"/><path d="M344.18,61.29l4.19,1.57-2.8,7.45c-.19,0-.47-.05-.82-.13s-.73-.19-1.13-.34c-.81-.31-1.35-.67-1.61-1.09-.26-.42-.25-1,.02-1.74l2.15-5.72ZM347.55,65.05l-4.19-1.57,3.05-8.13c.19,0,.47.05.84.12s.75.19,1.15.34c.81.3,1.35.66,1.6,1.07.25.41.24,1-.05,1.77l-2.4,6.4ZM347.69,51.18c.24-.64.67-1.1,1.27-1.36s1.25-.27,1.93-.02c.7.26,1.18.69,1.45,1.29.27.6.29,1.22.04,1.86-.23.62-.65,1.08-1.26,1.37-.6.29-1.26.3-1.95.04-.68-.26-1.16-.69-1.43-1.31-.27-.62-.29-1.24-.06-1.86Z"/><path d="M353.03,67.78l1.06-2.84,7.33,1.97c.19-.53.18-1.11-.03-1.73-.21-.62-.71-1.11-1.5-1.46-.83-.37-1.65-.39-2.45-.08-.8.32-1.45.98-1.95,2l-.71,1.97c-.28,1.09-.17,2,.34,2.75.51.74,1.24,1.33,2.2,1.75.77.34,1.55.56,2.33.64s1.43.1,1.97.05c.2.29.33.62.37.99.04.37,0,.73-.16,1.06-.25.55-.67.92-1.26,1.09-.6.18-1.32.19-2.17.03-.85-.16-1.76-.45-2.74-.88-1.42-.63-2.58-1.46-3.47-2.5-.9-1.04-1.43-2.23-1.6-3.59-.17-1.35.1-2.83.81-4.44.52-1.18,1.17-2.12,1.93-2.82.76-.7,1.59-1.19,2.47-1.47s1.79-.38,2.71-.3c.92.08,1.82.31,2.69.7,1.27.56,2.27,1.31,2.99,2.24.72.93,1.16,1.94,1.31,3.05.15,1.1-.03,2.23-.54,3.37-.25.57-.6.94-1.05,1.09-.44.16-.96.15-1.54-.02l-9.37-2.6Z"/><path d="M377.14,75.6c-.69.77-1.43,1.54-2.24,2.32-.81.77-1.56,1.49-2.27,2.16-.71.67-1.28,1.2-1.72,1.6-.31.06-.68.04-1.12-.05-.43-.09-.91-.28-1.41-.57-.6-.34-1.08-.72-1.45-1.16-.37-.44-.54-.87-.51-1.29.04-.44.14-1.04.3-1.81.16-.76.37-1.62.63-2.58.26-.95.54-1.94.86-2.97.31-1.03.62-2.02.92-2.97.3-.95.6-1.8.88-2.54.33-.09.72-.12,1.18-.09.45.04.9.18,1.34.42.54.31.92.68,1.12,1.13.2.45.17.99-.1,1.63-.5,1.29-.92,2.42-1.28,3.39-.36.97-.66,1.8-.9,2.5-.24.7-.43,1.27-.58,1.71-.14.44-.25.79-.33,1.05l.11.06c.33-.35.84-.88,1.52-1.59.68-.72,1.47-1.53,2.38-2.44.91-.91,1.82-1.84,2.74-2.78.4,0,.78.03,1.14.12s.76.25,1.18.49c.54.31.96.66,1.25,1.05s.39.8.29,1.21c-.29,1.25-.58,2.45-.87,3.61-.29,1.16-.54,2.17-.76,3.06s-.39,1.54-.52,1.98l.13.07c1.04-1.27,2.11-2.61,3.23-4.02,1.12-1.41,2.2-2.83,3.27-4.27.72-.01,1.41.17,2.06.53.54.31.92.67,1.13,1.1.21.43.16.93-.16,1.49-.15.26-.42.64-.81,1.14-.39.5-.87,1.05-1.43,1.68-.56.62-1.16,1.28-1.79,1.96-.64.68-1.27,1.34-1.88,1.96-.62.62-1.18,1.18-1.68,1.66-.5.48-.92.85-1.25,1.1-.29.07-.69.03-1.19-.1-.5-.13-1.01-.34-1.52-.63-1.3-.73-1.89-1.48-1.76-2.24.11-.56.25-1.29.42-2.19.17-.9.38-1.86.63-2.89.25-1.03.52-2.02.82-2.99Z"/><path d="M171.54,92.5c1.84-1.01,3.52-1.43,5.03-1.26s2.72,1.06,3.6,2.66l3.3,6.02c.24.44.32.86.24,1.26-.08.4-.24.79-.49,1.18-.36.61-.88,1.22-1.56,1.84-.69.62-1.53,1.2-2.54,1.76-1.8.99-3.43,1.42-4.89,1.31-1.46-.12-2.57-.88-3.34-2.27-.66-1.2-.79-2.33-.41-3.38.39-1.05,1.28-2.05,2.67-3l3.32-2.31-.17-.32c-.33-.6-.8-.91-1.42-.91-.61,0-1.35.23-2.22.7-.67.37-1.29.81-1.84,1.32-.56.51-1.04,1.02-1.43,1.51-.29-.02-.59-.14-.9-.35-.31-.21-.55-.47-.73-.79-.41-.74-.3-1.5.33-2.29.4-.49.91-.98,1.54-1.45.63-.47,1.26-.88,1.89-1.23ZM177.52,103.02c.41-.22.79-.48,1.14-.78.35-.3.59-.55.71-.75l-1.4-2.54-2.11,1.44c-.58.37-.99.75-1.23,1.16-.24.41-.24.82,0,1.25s.59.67,1.06.74c.48.07,1.09-.1,1.83-.5Z"/><path d="M195.98,86.92l1.15,2.6-4.12,1.82-1.09-2.46c-.3-.68-.72-1.1-1.26-1.24-.54-.15-1.13-.08-1.78.21-.46.2-.86.45-1.19.74-.33.29-.62.59-.86.89l1.7,3.85-4.09,1.81-1.91-4.32c-.2-.46-.28-.89-.22-1.28.06-.39.22-.79.48-1.19.41-.67,1.02-1.34,1.82-2.01.8-.67,1.76-1.26,2.87-1.75,1.99-.88,3.72-1.12,5.2-.73,1.47.39,2.58,1.41,3.3,3.05ZM183.87,93.86l4.09-1.81,3.21,7.25c-.16.14-.4.3-.71.49s-.66.38-1.05.55c-.77.34-1.4.46-1.88.34-.48-.12-.88-.54-1.2-1.26l-2.46-5.56ZM192.45,90.07l4.12-1.82,3.21,7.25c-.16.14-.4.3-.71.49s-.66.38-1.05.55c-.78.34-1.41.46-1.9.34-.49-.11-.9-.53-1.21-1.25l-2.46-5.56Z"/><path d="M209.94,88.15l-2.93-8.62,4.24-1.44,3.11,9.17c.16.46.19.88.11,1.26s-.29.77-.63,1.16c-.4.52-.97,1.05-1.71,1.59-.74.54-1.66.99-2.75,1.36-1.58.54-3.04.74-4.38.59-1.34-.14-2.5-.65-3.49-1.52-.99-.87-1.75-2.1-2.3-3.71-.57-1.68-.72-3.17-.45-4.46s.86-2.4,1.77-3.3c.91-.9,2.02-1.58,3.34-2.03.69-.23,1.32-.36,1.91-.39.59-.03,1.09,0,1.5.1l1.19,3.49c-.35-.14-.77-.23-1.27-.27-.5-.04-1.04.03-1.62.23-.67.23-1.21.57-1.63,1.03s-.67,1.04-.76,1.73c-.09.69.03,1.49.34,2.41.45,1.34,1.09,2.22,1.9,2.64s1.74.46,2.77.11c.42-.14.77-.32,1.06-.54.29-.21.51-.41.66-.59ZM211.54,78.92l-4.23,1.47-2.54-7.48c.15-.12.39-.26.71-.43.32-.17.69-.33,1.09-.47.84-.29,1.49-.35,1.95-.18.46.16.82.63,1.08,1.39l1.93,5.7Z"/><path d="M230.09,78.6l-.14-2.53c1.64-.33,3.04-.41,4.21-.24,1.17.17,2.09.56,2.78,1.16.69.6,1.13,1.41,1.34,2.41.39,1.92-.03,3.48-1.27,4.7-1.23,1.22-3.17,2.09-5.79,2.63-.47.1-1.02.19-1.63.27-.61.08-1.24.14-1.88.17-.64.03-1.24,0-1.79-.07-1.1-.17-1.75-.72-1.95-1.67l-2.88-14.17c-.08-.38-.03-.69.15-.96.17-.26.43-.49.76-.68.62-.37,1.4-.71,2.34-1,.94-.29,1.91-.54,2.92-.75,2.45-.5,4.43-.46,5.94.12,1.51.58,2.43,1.73,2.78,3.45.19.95.08,1.82-.34,2.6-.42.78-1.12,1.46-2.1,2.03-.99.57-2.23,1.01-3.73,1.31l-.61-1.94c.95-.19,1.61-.52,1.99-.99.38-.47.5-1.05.36-1.74-.13-.65-.5-1.1-1.09-1.35-.6-.25-1.42-.27-2.46-.06-.38.08-.77.17-1.18.29-.41.11-.75.23-1.01.34l2.34,11.53c.35.01.77-.01,1.27-.07s.96-.13,1.39-.22c.99-.2,1.74-.55,2.27-1.06.53-.51.71-1.16.55-1.95-.15-.75-.52-1.25-1.11-1.5-.59-.25-1.39-.27-2.42-.06ZM231.66,74.94l.65,3.2-6.61,1.34-.65-3.2,6.61-1.34Z"/><path d="M244.69,73.33l.46,3.75-4.44.54-.52-4.29c-.07-.56,0-1.05.23-1.48s.56-.81,1-1.17c.61-.48,1.37-.89,2.27-1.24s1.86-.58,2.88-.7c2.04-.25,3.15.31,3.31,1.67.04.32.03.63-.03.92-.06.29-.13.54-.23.76-.21-.02-.46-.02-.75-.02-.29,0-.61.03-.95.07-.6.07-1.19.22-1.78.43-.58.21-1.07.47-1.46.76ZM240.57,76.49l4.46-.45.95,7.81c-.19.08-.47.17-.82.27-.36.09-.74.17-1.16.22-.84.1-1.47.03-1.9-.23-.43-.25-.69-.77-.78-1.55l-.74-6.06Z"/><path d="M257.8,67.82c2.09-.11,3.79.25,5.08,1.06,1.29.81,1.99,2.14,2.08,3.97l.35,6.86c.03.5-.08.92-.33,1.24s-.57.61-.96.85c-.59.39-1.32.72-2.21.98s-1.9.41-3.05.47c-2.05.1-3.71-.22-4.97-.96-1.26-.74-1.93-1.91-2.01-3.5-.07-1.37.3-2.44,1.11-3.22.81-.78,2.04-1.29,3.71-1.54l4-.63-.02-.36c-.03-.68-.33-1.16-.88-1.44-.55-.27-1.32-.39-2.3-.34-.77.04-1.51.17-2.24.39-.73.22-1.37.46-1.95.73-.25-.15-.47-.39-.66-.71-.19-.32-.29-.67-.31-1.03-.04-.85.39-1.48,1.3-1.91.57-.27,1.24-.48,2.01-.63s1.52-.24,2.24-.28ZM258.6,79.89c.46-.02.92-.09,1.37-.21.45-.11.77-.24.96-.37l-.15-2.9-2.53.37c-.68.08-1.22.24-1.61.51-.39.26-.57.63-.55,1.12s.24.86.63,1.13c.4.27,1.02.39,1.86.34Z"/><path d="M268.77,74.49l4.48.07-.13,7.95c-.18.06-.46.11-.82.15s-.76.06-1.18.06c-.87-.01-1.49-.18-1.88-.48-.39-.31-.58-.86-.56-1.64l.1-6.11ZM268.67,63.78c.01-.69.26-1.26.74-1.71.48-.46,1.08-.68,1.81-.67.75.01,1.35.25,1.8.72.46.47.68,1.05.67,1.74-.01.67-.25,1.24-.72,1.71-.47.48-1.08.71-1.83.7-.73-.01-1.32-.26-1.79-.75-.46-.49-.69-1.07-.68-1.74ZM273.21,76.89l-4.48-.07.14-8.68c.18-.06.46-.11.83-.17.37-.05.77-.08,1.2-.07.87.01,1.49.17,1.87.47.38.3.56.86.55,1.69l-.11,6.83Z"/><path d="M277.13,74.6l4.46.35-.62,7.9c-.21.04-.49.08-.86.1-.37.02-.76.02-1.18-.02-.84-.07-1.45-.27-1.82-.6-.37-.33-.52-.89-.46-1.67l.47-6.06ZM291.08,74.24l-.22,2.83-4.49-.35.21-2.68c.06-.74-.12-1.31-.52-1.69-.41-.39-.96-.61-1.66-.66-.5-.04-.97,0-1.4.09-.43.1-.83.22-1.18.38l-.33,4.19-4.46-.35.37-4.7c.04-.5.18-.91.42-1.23.24-.32.57-.59.99-.82.68-.39,1.53-.69,2.56-.91,1.03-.21,2.14-.27,3.35-.18,2.17.17,3.81.78,4.92,1.83,1.11,1.05,1.6,2.47,1.46,4.26ZM286.47,75.33l4.49.35-.62,7.9c-.21.04-.49.08-.86.1-.37.02-.76.02-1.18-.02-.84-.07-1.46-.27-1.83-.6-.38-.33-.54-.89-.48-1.68l.47-6.06Z"/><path d="M305.37,81.69c-.23,1.45-.97,2.5-2.19,3.15-1.23.65-2.89.81-4.98.47-1.63-.26-2.94-.72-3.92-1.37-.98-.65-1.39-1.44-1.24-2.38.07-.42.22-.77.44-1.05s.5-.49.8-.62c.51.41,1.11.81,1.81,1.2.7.39,1.53.66,2.49.81,1.45.23,2.25-.07,2.38-.9.06-.36-.03-.66-.25-.91-.23-.25-.63-.47-1.21-.67l-1.21-.5c-1.54-.59-2.64-1.31-3.32-2.14-.67-.83-.91-1.87-.71-3.1.22-1.39.96-2.41,2.22-3.06,1.26-.65,2.84-.81,4.75-.51.96.15,1.81.39,2.57.7.76.32,1.33.7,1.73,1.17s.55.98.45,1.56c-.06.4-.2.73-.41,1.01-.21.27-.46.49-.75.65-.2-.17-.51-.38-.93-.61-.42-.23-.89-.44-1.4-.62-.51-.18-1-.31-1.45-.39-.72-.12-1.29-.11-1.72.01-.43.13-.67.39-.74.78-.04.26.04.5.24.73.2.23.58.44,1.13.66l1.15.49c1.71.68,2.89,1.46,3.55,2.33s.89,1.9.7,3.1Z"/><path d="M308.83,78.62l4.33,1.01-.73,3.15c-.13.55-.04.99.25,1.33.29.34.77.58,1.41.73.29.07.62.11.98.12.36.01.67,0,.93-.05.12.21.21.46.28.75.07.29.06.59-.01.93-.16.67-.56,1.15-1.21,1.46-.65.3-1.62.31-2.92,0-1.65-.38-2.84-1.05-3.58-2.01s-.91-2.28-.52-3.97l.8-3.45ZM312.99,80.37l-4.33-1.01,2.46-10.58c.21-.01.5-.01.87,0,.37.01.75.07,1.14.16.84.2,1.42.49,1.72.87s.37.97.18,1.75l-2.05,8.81ZM312.22,76.58l.78-3.36,5.66,1.31c.06.18.11.43.14.75.03.32,0,.65-.08,1.01-.14.59-.37.99-.7,1.2-.33.21-.72.27-1.17.16l-4.63-1.08Z"/><path d="M333.91,86.34c-.47,1.5-1.18,2.71-2.13,3.63-.95.92-2.07,1.5-3.35,1.75-1.28.25-2.67.15-4.15-.32-1.48-.46-2.68-1.16-3.59-2.09s-1.5-2.04-1.76-3.34c-.26-1.3-.15-2.7.32-4.22.47-1.5,1.18-2.7,2.14-3.61.96-.9,2.09-1.49,3.38-1.75,1.3-.26,2.68-.16,4.14.3,1.46.46,2.64,1.16,3.54,2.11s1.48,2.07,1.75,3.37.17,2.69-.29,4.17ZM327.83,80.07c-.91-.28-1.73-.16-2.48.37-.75.53-1.32,1.43-1.72,2.7-.4,1.29-.45,2.36-.15,3.2.31.85.92,1.41,1.84,1.7.92.29,1.75.17,2.49-.36.74-.53,1.3-1.43,1.7-2.7.39-1.25.44-2.31.14-3.17-.3-.86-.91-1.44-1.83-1.73Z"/><path d="M336.71,86.71l4.12,1.75-2.92,7.3c-.21-.02-.49-.07-.85-.16-.36-.09-.73-.21-1.12-.37-.79-.31-1.31-.69-1.56-1.11s-.23-1.01.06-1.74l2.27-5.67ZM341.84,85.92l-1.4,3.51-4.16-1.66,1.61-4.02c.21-.52.51-.92.91-1.18.4-.26.88-.45,1.44-.55.77-.13,1.63-.12,2.59,0,.96.13,1.91.39,2.87.77,1.91.76,2.61,1.78,2.1,3.06-.12.3-.27.56-.46.79-.19.23-.38.41-.56.56-.17-.11-.39-.24-.65-.37-.26-.14-.55-.27-.87-.4-.56-.22-1.15-.38-1.76-.48s-1.16-.11-1.65-.04Z"/><path d="M347.56,90.89l3.98,2.05-3.62,7.05c-.21-.04-.48-.12-.83-.24-.35-.12-.71-.28-1.08-.47-.75-.39-1.24-.81-1.45-1.25-.21-.45-.14-1.02.22-1.72l2.78-5.41ZM360.23,95.09l-1.58,3.07-4.01-2.06,1.31-2.56c.31-.61.36-1.15.15-1.62-.21-.47-.59-.85-1.12-1.12-.39-.2-.78-.33-1.15-.37-.37-.04-.7-.06-.98-.04l-1.95,3.79-3.98-2.05,2.16-4.2c.23-.45.52-.77.86-.97.34-.2.75-.32,1.23-.37.8-.11,1.7-.07,2.69.12.99.19,1.95.53,2.88,1.01.86.44,1.6.99,2.21,1.65.62.66,1.06,1.41,1.33,2.25.09.18.17.36.24.55.07.19.11.37.11.55.03.38.02.78-.04,1.2-.06.42-.18.81-.37,1.17ZM355.28,94.86l4.01,2.06-3.62,7.05c-.21-.04-.48-.12-.83-.24-.35-.12-.71-.28-1.08-.47-.77-.4-1.26-.82-1.47-1.27-.21-.45-.14-1.02.22-1.72l2.78-5.41ZM367.75,99.46l-1.37,2.66-3.98-2.05,1.31-2.56c.31-.61.37-1.15.18-1.61s-.57-.84-1.12-1.12c-.41-.21-.85-.33-1.3-.35s-.88.02-1.27.11l-.91-3.39c.83-.16,1.71-.22,2.63-.16.92.06,1.93.36,3.03.93.93.48,1.72,1.09,2.36,1.83.64.74,1.02,1.58,1.15,2.53s-.11,2.01-.71,3.17ZM363.03,98.84l3.98,2.05-3.62,7.05c-.19-.03-.46-.1-.8-.23s-.71-.28-1.08-.47c-.77-.4-1.26-.82-1.47-1.27-.21-.45-.14-1.02.22-1.72l2.78-5.41Z"/><path d="M365.27,472.52l-4.15,2.04-5.64-11.45c.15-.14.4-.33.74-.55.34-.22.7-.43,1.08-.62.81-.4,1.46-.54,1.94-.41.48.12.89.55,1.25,1.27l4.79,9.71ZM358.55,469.36l4.15-2.04,5.04,10.23c-.18.13-.44.32-.77.55s-.68.44-1.05.62c-.78.38-1.41.52-1.9.41-.49-.11-.92-.54-1.3-1.3l-4.17-8.46ZM360.52,468.83l10.61-5.23,1.62,3.28-10.61,5.23-1.62-3.28ZM375.39,467.53l-4.12,2.03-5.64-11.45c.14-.13.37-.31.71-.54.34-.22.7-.43,1.08-.62.81-.4,1.46-.54,1.94-.41.48.12.89.55,1.25,1.27l4.79,9.71ZM368.7,464.36l4.12-2.03,5.04,10.23c-.16.12-.42.31-.76.54-.34.24-.69.44-1.03.61-.79.39-1.43.54-1.91.44s-.9-.53-1.28-1.29l-4.19-8.49Z"/><path d="M353.85,469.92l.79,2.03-4.18,1.61-.77-2c-.33-.87-.8-1.4-1.38-1.61-.59-.21-1.29-.15-2.09.16-.51.2-.91.41-1.21.63-.3.22-.52.42-.65.58l1.55,4.01-4.2,1.62-1.75-4.51c-.17-.45-.23-.87-.18-1.26.06-.39.23-.78.53-1.18.46-.61,1.08-1.19,1.87-1.75s1.72-1.04,2.79-1.45c1.34-.52,2.58-.77,3.74-.76,1.16,0,2.18.32,3.06.94.88.62,1.58,1.6,2.09,2.94ZM341.19,475.69l4.2-1.62,2.88,7.45c-.17.13-.41.29-.72.47-.32.19-.67.36-1.07.51-.81.31-1.45.4-1.92.27s-.86-.58-1.16-1.35l-2.21-5.73ZM349.97,472.3l4.17-1.61,2.88,7.45c-.15.12-.38.28-.7.46s-.67.36-1.07.51c-.81.31-1.45.4-1.92.27-.47-.13-.86-.58-1.16-1.35l-2.21-5.73Z"/><path d="M320.84,483.23l-4.32,1.18-2.09-7.64c.16-.11.41-.23.74-.38.34-.14.71-.27,1.12-.38.84-.23,1.48-.25,1.94-.06.46.19.79.66,1,1.42l1.6,5.86ZM316.94,485.96l-.79-2.89,4.32-1.18.76,2.77c.18.66.5,1.1.95,1.31s.98.23,1.59.07c.45-.12.84-.33,1.19-.62.35-.29.63-.61.86-.94l2.96,1.89c-.5.68-1.12,1.31-1.83,1.9-.72.58-1.67,1.04-2.86,1.36-1.01.28-2,.36-2.97.25-.97-.11-1.82-.47-2.56-1.09-.73-.62-1.27-1.55-1.62-2.82ZM329.24,480.93l-4.35,1.19-2.09-7.64c.18-.11.44-.24.77-.38.34-.14.71-.27,1.12-.38.84-.23,1.48-.25,1.94-.06.46.19.79.66,1,1.42l1.61,5.86ZM325.44,484.1l-.91-3.33,4.35-1.19.76,2.77c.18.66.51,1.09.98,1.3.47.2,1,.23,1.59.07.43-.12.8-.29,1.1-.5.31-.22.56-.43.75-.63l-1.13-4.11,4.32-1.18,1.25,4.55c.13.49.14.92.02,1.29-.12.38-.33.74-.65,1.1-.52.62-1.21,1.2-2.07,1.73-.86.53-1.79.93-2.81,1.21-.93.26-1.85.35-2.75.28-.9-.07-1.73-.32-2.5-.76-.19-.07-.37-.16-.55-.24-.18-.09-.33-.2-.45-.33-.28-.26-.54-.56-.78-.92-.24-.35-.42-.72-.52-1.11ZM337.61,478.64l-4.32,1.18-2.09-7.64c.18-.11.44-.24.77-.38.34-.14.71-.27,1.12-.38.82-.22,1.45-.24,1.91-.05.46.19.79.66,1,1.42l1.61,5.86Z"/><path d="M307.64,493.03c-2.07.35-3.79.2-5.17-.45-1.38-.66-2.22-1.89-2.53-3.7l-1.15-6.77c-.08-.5-.02-.92.18-1.27.21-.35.49-.67.85-.96.54-.46,1.23-.87,2.08-1.23.85-.36,1.84-.64,2.97-.83,2.03-.35,3.71-.22,5.05.37,1.34.59,2.14,1.67,2.41,3.24.23,1.35-.01,2.46-.72,3.33s-1.88,1.52-3.5,1.96l-3.89,1.09.06.36c.12.68.46,1.12,1.04,1.33.58.21,1.35.23,2.33.06.76-.13,1.48-.34,2.18-.65.7-.3,1.31-.62,1.85-.96.27.12.51.33.73.63.23.3.37.63.43.99.14.83-.21,1.52-1.06,2.05-.54.34-1.18.62-1.92.86s-1.48.42-2.19.54ZM305.43,481.13c-.46.08-.9.2-1.33.36-.43.17-.74.33-.92.48l.49,2.86,2.46-.67c.67-.15,1.18-.38,1.54-.69.36-.31.5-.7.41-1.17-.08-.48-.33-.83-.76-1.05-.43-.22-1.06-.26-1.89-.12Z"/><path d="M286.2,488.66l-4.49.4-.71-7.89c.2-.08.47-.16.83-.24.36-.08.75-.14,1.17-.18.84-.08,1.48.02,1.91.28s.68.79.75,1.57l.54,6.06ZM281.84,490.51l-.25-2.83,4.49-.4.24,2.68c.07.74.33,1.27.79,1.58.46.31,1.05.44,1.75.38.5-.04.96-.15,1.37-.32.41-.17.78-.36,1.1-.57l-.38-4.19,4.46-.4.42,4.7c.04.5-.02.93-.2,1.28-.18.35-.46.67-.84.97-.6.5-1.39.94-2.37,1.32s-2.07.63-3.28.73c-2.17.19-3.89-.13-5.16-.98s-1.99-2.17-2.15-3.95ZM295.53,487.82l-4.46.4-.71-7.89c.2-.08.47-.16.83-.24.36-.08.75-.14,1.17-.18.84-.08,1.47.02,1.89.29.42.27.66.79.73,1.57l.54,6.05Z"/><path d="M264.15,487.23l6.68.13-.22,10.83c0,.38-.12.68-.35.9s-.52.38-.89.5c-.67.23-1.47.38-2.4.47-.93.08-1.77.12-2.51.1-2.72-.05-4.77-.67-6.15-1.86-1.38-1.19-2.05-2.78-2.01-4.78.03-1.29.36-2.41.99-3.37.63-.96,1.53-1.69,2.69-2.2,1.16-.51,2.55-.75,4.16-.72ZM266.19,490.9l-1.81-.04c-1.03-.02-1.84.21-2.45.68-.6.47-.92,1.16-.93,2.07-.02.91.25,1.6.81,2.07.55.48,1.37.72,2.44.75.36,0,.69,0,.98-.01.29-.01.58-.04.86-.07l.11-5.44ZM270.79,489.39l-4.6-.09.16-7.89c.18-.06.48-.11.88-.15s.82-.06,1.24-.05c.91.02,1.54.19,1.91.52s.54.9.53,1.71l-.12,5.96Z"/><path d="M249.06,491.14l.33-3.77,4.46.39-.37,4.31c-.05.56-.23,1.03-.53,1.4-.3.37-.71.68-1.22.94-.7.34-1.52.59-2.48.74s-1.94.18-2.97.09c-2.05-.18-3.01-.95-2.9-2.31.03-.32.1-.62.21-.89.11-.27.24-.51.38-.7.2.06.44.11.73.17.29.06.6.1.95.13.6.05,1.21.03,1.83-.05.61-.09,1.14-.24,1.59-.44ZM253.75,488.91l-4.45-.48.68-7.83c.21-.04.49-.07.86-.09.37-.02.76-.01,1.18.03.84.07,1.45.28,1.81.61.37.33.51.9.45,1.68l-.53,6.09Z"/><path d="M234.62,493.82c-2.07-.32-3.66-1-4.76-2.06-1.1-1.06-1.52-2.49-1.24-4.3l1.04-6.79c.08-.5.27-.88.57-1.15.31-.27.68-.48,1.11-.64.65-.27,1.44-.44,2.36-.51.92-.07,1.95-.02,3.08.15,2.03.31,3.59.96,4.68,1.94,1.08.98,1.51,2.26,1.27,3.83-.21,1.35-.78,2.33-1.73,2.93-.95.6-2.26.85-3.94.76l-4.04-.19-.05.36c-.1.68.09,1.21.57,1.59s1.21.64,2.19.79c.76.12,1.51.14,2.27.07.76-.07,1.44-.18,2.05-.33.21.2.38.47.5.83.12.35.15.71.1,1.07-.13.84-.68,1.38-1.65,1.61-.62.15-1.31.22-2.1.22-.78,0-1.54-.07-2.25-.18ZM236.26,481.83c-.46-.07-.92-.09-1.38-.07-.46.02-.8.08-1.02.17l-.44,2.87,2.55.14c.68.06,1.24,0,1.68-.17s.69-.51.76-.99c.07-.48-.06-.89-.39-1.24-.33-.35-.92-.58-1.76-.71Z"/><path d="M216.43,486.66c1.06.24,2.05.1,2.97-.42.92-.53,1.53-1.46,1.83-2.79.3-1.32.16-2.39-.41-3.23-.57-.83-1.41-1.38-2.51-1.63-.65-.15-1.23-.19-1.75-.14-.52.06-.98.14-1.38.26-.28-.31-.48-.63-.59-.96-.11-.33-.12-.7-.03-1.11.17-.73.69-1.23,1.58-1.5.89-.27,2.03-.25,3.43.07,1.55.36,2.86.95,3.91,1.78,1.05.83,1.77,1.88,2.17,3.15.39,1.27.41,2.71.04,4.32-.39,1.71-1.07,3.04-2.03,3.99-.96.95-2.09,1.57-3.39,1.86s-2.63.28-4.01-.03c-1.36-.31-2.37-.8-3.03-1.47-.66-.67-.91-1.37-.75-2.09.08-.35.24-.65.47-.9s.48-.45.75-.62c.33.28.71.56,1.16.84.44.28.97.49,1.58.62Z"/><path d="M206.46,483.33l-.98,3.31-5.57-1.65c-.05-.18-.08-.43-.09-.75-.01-.32.04-.65.14-1,.17-.58.43-.97.77-1.16s.73-.22,1.18-.09l4.55,1.35ZM209.96,481.5l-4.26-1.26.92-3.1c.16-.54.1-.99-.17-1.34-.27-.35-.73-.62-1.37-.81-.29-.09-.61-.14-.97-.18-.36-.03-.67-.03-.93,0-.1-.22-.18-.47-.23-.76-.05-.29-.03-.6.07-.93.19-.66.63-1.12,1.29-1.38.67-.27,1.64-.21,2.92.17,1.62.48,2.78,1.22,3.46,2.22.68,1,.78,2.33.28,3.99l-1,3.39ZM205.91,479.51l4.26,1.26-3.08,10.41c-.21,0-.5-.02-.87-.05-.37-.04-.75-.11-1.13-.22-.83-.25-1.39-.57-1.67-.97-.28-.4-.31-.98-.08-1.76l2.57-8.67Z"/><path d="M194.91,488.07c-.23.65-.64,1.11-1.24,1.39-.6.28-1.24.3-1.93.07-.7-.25-1.2-.66-1.48-1.25s-.32-1.21-.09-1.86c.22-.63.63-1.1,1.22-1.4.6-.3,1.25-.33,1.95-.09.69.24,1.17.67,1.46,1.28.29.61.32,1.23.1,1.86ZM194.72,474.19l4.23,1.47-2.86,8.2c-.19,0-.47-.04-.84-.1s-.76-.17-1.16-.31c-.82-.29-1.36-.63-1.63-1.03-.26-.4-.26-.99,0-1.77l2.25-6.46ZM198.18,477.87l-4.23-1.47,2.62-7.51c.19,0,.47.04.83.11s.74.18,1.14.32c.82.29,1.36.63,1.64,1.05.27.41.28.99.02,1.74l-2.01,5.77Z"/><path d="M181.52,475.2c1.01.41,2.01.44,3,.07.99-.37,1.75-1.18,2.27-2.45.51-1.25.56-2.33.13-3.25-.43-.92-1.17-1.59-2.21-2.02-.62-.25-1.18-.39-1.71-.42-.52-.03-.99-.02-1.4.03-.22-.35-.37-.7-.42-1.04-.06-.34,0-.71.16-1.1.28-.69.89-1.1,1.81-1.22.92-.12,2.05.09,3.37.63,1.47.61,2.66,1.4,3.56,2.4.9.99,1.44,2.14,1.62,3.46.18,1.32-.05,2.74-.67,4.27-.67,1.62-1.55,2.82-2.66,3.6-1.1.78-2.32,1.2-3.65,1.28-1.33.08-2.64-.15-3.95-.69-1.29-.53-2.2-1.18-2.75-1.95-.54-.77-.68-1.5-.39-2.19.14-.33.34-.61.61-.81.27-.21.55-.37.84-.49.28.33.61.67,1,1.02.39.35.88.64,1.46.88Z"/><path d="M175.7,465.78l-1.18,2.79-7.24-2.28c-.21.52-.23,1.1-.05,1.73s.66,1.14,1.44,1.53c.81.4,1.63.47,2.44.18.82-.28,1.49-.92,2.03-1.91l.79-1.94c.33-1.07.26-1.99-.22-2.76-.47-.77-1.18-1.38-2.12-1.85-.76-.38-1.53-.62-2.3-.74-.78-.12-1.43-.16-1.96-.13-.19-.3-.3-.63-.33-1.01-.03-.37.04-.72.2-1.05.27-.54.71-.89,1.31-1.04.6-.15,1.33-.13,2.16.06.84.19,1.74.53,2.69,1,1.39.69,2.51,1.58,3.36,2.65.85,1.08,1.33,2.29,1.44,3.66.11,1.36-.22,2.83-1.01,4.4-.57,1.16-1.26,2.07-2.05,2.73-.79.67-1.64,1.12-2.53,1.36-.9.24-1.8.3-2.72.18-.92-.12-1.8-.39-2.65-.81-1.25-.62-2.21-1.41-2.89-2.37s-1.08-1.99-1.18-3.1c-.1-1.11.13-2.22.68-3.34.28-.56.64-.91,1.09-1.04.45-.14.96-.11,1.54.09l9.25,3.01Z"/><path d="M339.85,454.62l-4.31,1.59-4.42-11.97c.15-.12.4-.27.76-.46.36-.19.74-.35,1.14-.5.85-.31,1.51-.38,1.97-.21.46.17.83.64,1.11,1.4l3.75,10.16ZM333.53,450.77l4.31-1.59,3.95,10.7c-.17.11-.45.26-.81.46-.37.2-.74.37-1.12.51-.81.3-1.45.38-1.92.22-.46-.15-.84-.62-1.14-1.42l-3.28-8.88Z"/><path d="M321.06,455.74l-4.32,1.27-2.23-7.6c.18-.11.43-.25.77-.4s.71-.29,1.11-.4c.81-.24,1.46-.27,1.93-.09.47.18.82.64,1.04,1.4l1.71,5.83ZM317.14,458.4l-.8-2.73,4.33-1.27.76,2.58c.21.72.57,1.18,1.09,1.4.52.22,1.11.23,1.79.03.48-.14.91-.33,1.28-.58s.69-.5.97-.77l-1.18-4.04,4.3-1.26,1.33,4.53c.14.48.16.91.05,1.29s-.32.75-.63,1.12c-.49.61-1.18,1.19-2.07,1.76s-1.91,1.02-3.07,1.36c-2.09.61-3.84.62-5.25.04-1.41-.58-2.37-1.74-2.87-3.46ZM330.06,453.11l-4.29,1.26-2.23-7.61c.18-.12.43-.25.77-.4.33-.15.7-.29,1.11-.4.81-.24,1.45-.27,1.91-.09.46.18.8.65,1.03,1.4l1.71,5.83Z"/><path d="M313.28,457.8l-4.35.92-.67-3.17c-.12-.55-.38-.92-.79-1.1s-.94-.2-1.59-.06c-.3.06-.61.17-.94.31s-.6.29-.82.44c-.2-.14-.38-.33-.57-.56-.18-.23-.31-.51-.38-.85-.14-.67.02-1.28.48-1.83.46-.55,1.34-.96,2.64-1.24,1.66-.35,3.02-.25,4.1.3,1.08.55,1.79,1.68,2.16,3.38l.73,3.46ZM311.07,461.09l.72,3.37-5.68,1.21c-.13-.14-.28-.34-.44-.62-.16-.28-.28-.59-.36-.95-.13-.59-.08-1.05.12-1.39.21-.33.54-.55.99-.64l4.64-.99ZM308.78,457.99l4.35-.92,2.26,10.62c-.19.1-.45.22-.79.37s-.71.26-1.1.34c-.85.18-1.49.16-1.93-.05s-.74-.72-.91-1.51l-1.88-8.85Z"/><path d="M299.43,457.65l.59,2.97-7.27,2.19c.12.55.43,1.04.93,1.46.5.42,1.19.57,2.05.45.9-.12,1.61-.53,2.12-1.22.52-.69.72-1.6.6-2.72l-.44-2.05c-.33-1.07-.91-1.79-1.73-2.16s-1.75-.48-2.79-.33c-.84.12-1.61.34-2.32.69-.71.34-1.27.67-1.69,1-.32-.14-.6-.35-.84-.65-.23-.29-.38-.62-.43-.98-.08-.6.08-1.13.5-1.59.41-.46,1.02-.85,1.82-1.17.8-.31,1.73-.54,2.79-.69,1.54-.21,2.96-.11,4.27.3,1.31.41,2.39,1.14,3.25,2.21.86,1.06,1.41,2.46,1.65,4.2.18,1.28.12,2.42-.16,3.41-.28.99-.72,1.84-1.33,2.55-.6.7-1.32,1.27-2.15,1.69-.83.42-1.71.69-2.65.82-1.38.19-2.62.08-3.72-.33-1.11-.41-2.01-1.04-2.72-1.9-.71-.86-1.15-1.91-1.32-3.15-.08-.62.02-1.11.32-1.48.29-.37.74-.63,1.32-.79l9.33-2.72Z"/><path d="M281.3,465.13l-.24-3.77,4.47-.29.27,4.32c.04.56-.07,1.05-.32,1.46-.25.41-.6.78-1.07,1.11-.64.44-1.42.81-2.34,1.1-.92.29-1.9.47-2.92.53-2.05.13-3.12-.49-3.21-1.86-.02-.32,0-.63.08-.91.07-.29.16-.54.27-.74.21.03.45.05.75.06s.61,0,.95-.02c.6-.04,1.2-.15,1.8-.33.59-.18,1.1-.4,1.5-.67ZM285.6,462.22l-4.47.2-.5-7.85c.2-.07.48-.15.83-.22s.75-.12,1.17-.15c.85-.05,1.47.06,1.89.33.41.28.64.81.69,1.59l.39,6.1Z"/><path d="M261.51,469.64c-.62,0-1.14-.15-1.55-.43-.41-.28-.61-.74-.6-1.39,0-.36.12-.93.33-1.69.21-.76.5-1.65.85-2.65.35-1,.73-2.03,1.15-3.07.42-1.04.84-2.02,1.26-2.93.42-.91.79-1.67,1.13-2.27.22-.16.58-.3,1.06-.42.49-.12,1.02-.18,1.61-.17.69.01,1.27.11,1.76.3.49.19.83.48,1.03.86.22.43.48,1.03.79,1.8.31.77.64,1.65.99,2.63.35.98.69,2,1.04,3.06.35,1.05.66,2.07.95,3.04.29.97.51,1.82.68,2.55-.27.26-.61.48-1.02.66-.42.18-.87.27-1.35.27-.62,0-1.14-.15-1.54-.42-.4-.27-.68-.77-.85-1.5l-1.28-4.83c-.15-.57-.31-1.13-.47-1.7-.16-.57-.31-1.09-.44-1.58s-.25-.9-.34-1.25h-.12c-.51,1.62-1.03,3.37-1.55,5.22-.52,1.86-.99,3.67-1.4,5.44-.61.31-1.31.46-2.09.45Z"/><path d="M255.91,473.23c-.05.68-.33,1.24-.84,1.67-.51.43-1.12.62-1.85.56-.74-.05-1.33-.33-1.76-.83-.43-.5-.62-1.09-.57-1.77.05-.66.32-1.22.82-1.67.5-.45,1.12-.64,1.86-.59.72.05,1.3.34,1.74.86s.63,1.11.58,1.77ZM252.14,459.88l4.46.33-.64,8.66c-.19.05-.47.09-.84.12-.38.03-.78.03-1.2,0-.86-.06-1.48-.26-1.84-.58-.36-.32-.51-.89-.45-1.72l.5-6.82ZM256.43,462.53l-4.46-.33.58-7.93c.19-.05.46-.08.83-.11.37-.02.76-.02,1.18.01.87.06,1.48.26,1.85.59.37.33.53.89.47,1.67l-.45,6.09Z"/><path d="M246.45,458.83l-.24,3.02-7.59.14c-.04.56.13,1.12.5,1.66.37.54.99.87,1.85.99.9.12,1.69-.08,2.37-.6.68-.53,1.12-1.35,1.32-2.46l.14-2.09c-.03-1.12-.39-1.97-1.08-2.55-.69-.58-1.56-.93-2.6-1.08-.84-.12-1.64-.11-2.42.03-.77.14-1.41.3-1.9.5-.28-.22-.48-.5-.63-.85-.14-.35-.19-.7-.14-1.06.08-.6.39-1.07.91-1.4.53-.33,1.22-.54,2.07-.63.86-.08,1.81-.05,2.87.09,1.54.21,2.88.7,4.03,1.45,1.15.75,1.99,1.75,2.53,3.01s.69,2.75.45,4.49c-.18,1.28-.54,2.36-1.08,3.24-.54.88-1.2,1.58-1.97,2.09s-1.62.86-2.53,1.04-1.83.2-2.77.07c-1.38-.19-2.54-.63-3.5-1.33-.95-.69-1.65-1.55-2.1-2.57s-.59-2.15-.42-3.39c.09-.62.32-1.07.7-1.34.38-.27.88-.41,1.49-.4l9.72-.09Z"/><path d="M222.36,458.15c.45-.93.96-1.87,1.53-2.83.57-.96,1.1-1.86,1.6-2.69s.91-1.5,1.22-2.01c.28-.14.64-.22,1.09-.25s.95.03,1.52.17c.67.16,1.24.4,1.71.73.47.32.75.69.84,1.11.08.43.15,1.04.2,1.82.05.78.08,1.66.09,2.65,0,.99,0,2.02-.02,3.09-.02,1.07-.05,2.11-.09,3.11s-.09,1.89-.15,2.69c-.29.18-.66.31-1.11.4-.45.09-.92.07-1.41-.05-.61-.15-1.07-.41-1.38-.79-.31-.38-.43-.91-.34-1.59.13-1.38.23-2.58.32-3.61.08-1.03.15-1.91.19-2.65s.08-1.34.09-1.8c.02-.46.03-.83.03-1.1l-.12-.03c-.23.42-.57,1.07-1.03,1.94-.46.87-1,1.87-1.63,3s-1.25,2.26-1.89,3.42c-.38.11-.76.18-1.14.19-.38.01-.8-.04-1.27-.15-.61-.15-1.1-.37-1.49-.67-.38-.3-.59-.66-.61-1.08-.06-1.28-.11-2.52-.14-3.71-.03-1.19-.06-2.24-.09-3.15-.03-.91-.04-1.59-.03-2.05l-.15-.04c-.66,1.5-1.33,3.08-2.02,4.74s-1.36,3.32-1.99,4.99c-.69.21-1.4.22-2.13.04-.61-.15-1.07-.4-1.39-.76-.32-.36-.4-.85-.25-1.48.07-.29.23-.73.48-1.32.25-.58.55-1.25.92-2,.37-.75.77-1.54,1.2-2.37.43-.83.86-1.63,1.28-2.4.42-.77.81-1.45,1.17-2.05.35-.6.65-1.07.9-1.4.26-.14.66-.22,1.18-.23.52,0,1.07.06,1.63.19,1.45.35,2.22.91,2.3,1.68.05.57.11,1.31.19,2.22.08.91.14,1.9.17,2.95.04,1.06.04,2.09.02,3.1Z"/><path d="M200.12,446.55c.48-1.39,1.39-2.3,2.71-2.72,1.32-.42,2.98-.29,4.98.41,1.56.54,2.77,1.22,3.62,2.03.85.81,1.12,1.66.81,2.56-.14.4-.35.72-.62.95s-.57.39-.9.47c-.43-.49-.95-.99-1.58-1.49-.62-.51-1.39-.92-2.31-1.24-1.39-.48-2.22-.33-2.5.47-.12.34-.09.66.09.94.18.29.54.58,1.07.87l1.1.7c1.41.85,2.38,1.75,2.89,2.69.52.94.57,2,.16,3.18-.46,1.33-1.37,2.21-2.72,2.62-1.35.42-2.94.3-4.77-.33-.91-.32-1.71-.7-2.41-1.14-.69-.44-1.19-.93-1.5-1.45s-.37-1.06-.17-1.61c.13-.38.33-.69.58-.92.25-.23.54-.4.85-.5.16.21.43.46.81.76.38.3.8.59,1.27.86.47.27.93.48,1.36.63.69.24,1.25.33,1.69.29.44-.05.73-.26.87-.64.09-.25.05-.5-.1-.76-.16-.26-.49-.54-1-.85l-1.04-.68c-1.56-.97-2.59-1.94-3.08-2.92s-.54-2.03-.14-3.17Z"/><path d="M94.8,391.57l3.86,5.45-8.83,6.26c-.31.22-.62.31-.93.25-.31-.05-.62-.19-.93-.42-.58-.4-1.18-.95-1.8-1.65-.62-.7-1.14-1.35-1.58-1.96-1.57-2.22-2.29-4.24-2.16-6.05.14-1.81,1.02-3.3,2.65-4.45,1.05-.75,2.15-1.15,3.3-1.21,1.14-.06,2.27.23,3.37.86,1.1.63,2.12,1.6,3.05,2.92ZM93.06,395.4l-1.05-1.48c-.59-.84-1.26-1.36-2-1.57-.74-.21-1.48-.05-2.22.48s-1.14,1.15-1.19,1.88.23,1.53.85,2.4c.21.29.41.56.59.78.19.23.38.45.57.65l4.44-3.15ZM97.01,398.2l-2.66-3.75,6.44-4.56c.15.11.37.32.64.62.27.3.53.62.78.97.52.74.76,1.36.71,1.85-.05.49-.4.97-1.06,1.44l-4.86,3.45Z"/><path d="M82.89,382.05l3.22-1.97,2.34,3.82-3.69,2.26c-.48.29-.96.43-1.44.4s-.97-.17-1.48-.42c-.69-.36-1.38-.88-2.07-1.55s-1.3-1.46-1.84-2.33c-1.07-1.75-1.03-2.99.14-3.71.28-.17.56-.29.84-.36s.55-.11.79-.11c.07.19.17.42.3.69.13.26.28.54.46.84.32.52.69.99,1.13,1.44.44.44.87.78,1.29,1.02ZM87.47,384.49l-2.26-3.87,6.71-4.11c.16.14.35.35.58.64s.46.61.68.97c.44.72.64,1.33.58,1.82s-.41.95-1.08,1.36l-5.21,3.19Z"/><path d="M75.11,360.97c1.39-.73,2.75-1.08,4.07-1.05,1.32.03,2.53.4,3.61,1.13s1.99,1.78,2.71,3.16,1.07,2.72,1.06,4.02c-.01,1.3-.38,2.5-1.12,3.61-.73,1.1-1.81,2.02-3.22,2.76-1.39.73-2.75,1.07-4.07,1.03-1.32-.04-2.53-.43-3.63-1.16-1.1-.73-2-1.78-2.71-3.14-.71-1.36-1.05-2.69-1.01-3.99s.42-2.51,1.15-3.62,1.78-2.02,3.16-2.74ZM74.97,369.72c.44.84,1.11,1.34,2.01,1.49.9.16,1.94-.07,3.12-.69,1.2-.62,1.99-1.35,2.37-2.16.38-.81.35-1.65-.1-2.51-.45-.86-1.12-1.36-2.02-1.51-.89-.15-1.93.09-3.11.71-1.16.61-1.94,1.32-2.34,2.15s-.38,1.66.07,2.52Z"/><path d="M63.57,363.02c-.62.28-1.24.3-1.86.07-.61-.23-1.07-.69-1.38-1.37-.3-.66-.33-1.3-.1-1.93.23-.62.66-1.07,1.28-1.35.61-.27,1.23-.29,1.86-.05.63.24,1.1.68,1.4,1.35.3.68.33,1.33.08,1.95-.25.62-.68,1.07-1.29,1.34ZM73.57,353.22l1.76,4.15-7.92,3.54c-.14-.16-.31-.39-.51-.7-.2-.31-.39-.65-.56-1.04-.35-.79-.48-1.43-.37-1.9.11-.48.54-.89,1.29-1.22l6.32-2.83ZM84.48,355.6c-.42-.34-.82-.6-1.22-.76-.39-.17-.81-.24-1.24-.21-.43.03-.92.16-1.47.41l-6.93,3.1-1.84-4.12,7.37-3.29c1.16-.52,2.18-.75,3.06-.71.88.05,1.62.28,2.2.69.58.41,1.02.94,1.3,1.59.31.7.34,1.35.09,1.95s-.7,1.05-1.33,1.36Z"/><path d="M71.73,347.77l-2.77,1.24-3.75-6.6c-.51.24-.92.65-1.21,1.23s-.29,1.29.02,2.1c.32.85.88,1.45,1.66,1.8.79.35,1.72.34,2.79-.02l1.9-.88c.97-.56,1.55-1.28,1.72-2.17.17-.88.07-1.82-.3-2.8-.3-.79-.69-1.49-1.18-2.11s-.94-1.09-1.35-1.43c.06-.35.21-.67.45-.96.23-.29.52-.5.86-.63.57-.21,1.12-.17,1.67.13.54.3,1.06.81,1.54,1.52.48.71.92,1.57,1.29,2.57.55,1.45.77,2.86.66,4.23s-.58,2.59-1.43,3.66c-.84,1.07-2.09,1.92-3.73,2.54-1.21.46-2.33.66-3.36.61-1.03-.05-1.96-.29-2.78-.73-.82-.43-1.53-1.01-2.12-1.72-.59-.71-1.06-1.51-1.39-2.4-.49-1.3-.66-2.54-.51-3.7s.57-2.19,1.25-3.07c.68-.88,1.6-1.54,2.77-1.99.58-.22,1.09-.23,1.51-.02s.78.58,1.07,1.12l4.73,8.49Z"/><path d="M58.58,328.57c.31,1.04.92,1.84,1.82,2.38s2.02.62,3.33.23c1.3-.38,2.17-1.03,2.61-1.94.45-.91.51-1.91.19-2.99-.19-.64-.43-1.17-.74-1.6-.3-.42-.6-.78-.9-1.07.13-.4.32-.72.55-.98.23-.26.55-.45.95-.57.72-.21,1.41,0,2.08.65s1.21,1.65,1.62,3.02c.45,1.53.57,2.95.37,4.28-.21,1.32-.77,2.47-1.68,3.43-.91.96-2.16,1.68-3.75,2.15-1.68.5-3.17.56-4.47.19-1.3-.37-2.39-1.05-3.29-2.04-.89-.99-1.54-2.16-1.94-3.51-.39-1.33-.46-2.45-.21-3.36.26-.91.75-1.47,1.46-1.68.35-.1.69-.11,1.02-.03.33.08.63.2.91.35-.08.42-.14.9-.16,1.42-.02.52.05,1.08.23,1.68Z"/><path d="M59.75,316.25l.99,4.33-10.59,2.42c-.1-.18-.23-.44-.38-.78-.15-.34-.27-.7-.36-1.1-.19-.85-.18-1.49.03-1.93.21-.44.71-.75,1.49-.93l8.82-2.01ZM56.69,318.59l-3.36.77-1.29-5.66c.13-.13.34-.28.61-.45.27-.17.58-.29.94-.37.59-.13,1.05-.1,1.39.1.34.2.56.53.66.98l1.06,4.63ZM60.01,320.75l-.99-4.33,3.16-.72c.55-.12.91-.39,1.09-.81s.19-.94.04-1.59c-.07-.29-.17-.61-.32-.93-.15-.33-.3-.6-.45-.81.14-.2.33-.39.55-.58.23-.19.51-.32.84-.39.67-.15,1.28,0,1.84.45.56.45.99,1.33,1.28,2.62.38,1.65.3,3.02-.24,4.1-.54,1.08-1.65,1.82-3.34,2.21l-3.45.79Z"/><path d="M58.18,290.12c.21.2.39.48.55.84.16.36.27.78.32,1.26.07.62.05,1.15-.07,1.59-.11.44-.35.74-.72.9-1.83.89-3.35,1.65-4.56,2.26-1.21.61-2.26,1.1-3.15,1.46l.02.15c1.27-.08,2.43-.16,3.47-.24,1.05-.08,2.07-.16,3.06-.25.99-.09,2-.17,3.03-.25s2.16-.14,3.39-.19c.08.21.19.5.31.86.12.36.2.72.24,1.08.08.76.02,1.37-.19,1.83-.21.46-.64.72-1.28.8-.44.05-1.1.1-1.98.14s-1.89.1-3.03.15c-1.14.06-2.34.12-3.62.19-1.27.07-2.53.13-3.77.18-1.24.05-2.39.09-3.44.12-.26-.13-.54-.43-.84-.88s-.5-1.1-.6-1.94c-.1-.9-.04-1.64.19-2.23.23-.58.66-1.03,1.3-1.35.69-.38,1.49-.79,2.4-1.24.91-.45,1.84-.89,2.77-1.33.94-.44,1.78-.84,2.53-1.21l-.02-.15c-1.83-.37-3.61-.75-5.36-1.15-1.75-.4-3.21-.75-4.38-1.05-.19-.26-.36-.6-.5-1.03-.14-.42-.23-.87-.29-1.35-.1-.86-.05-1.57.14-2.13s.53-.92,1.02-1.07c.37-.12.96-.28,1.78-.46.81-.18,1.75-.38,2.81-.6,1.06-.22,2.17-.45,3.33-.68s2.29-.45,3.39-.67c1.1-.21,2.09-.4,2.97-.56s1.57-.28,2.09-.35c.21.28.38.58.51.9.13.32.22.73.27,1.23.07.64.01,1.2-.18,1.68-.19.48-.62.77-1.3.89-1.55.27-3.03.52-4.44.74s-2.69.41-3.86.57c-1.17.16-2.17.31-3.01.44l.02.15c.89.16,2.02.41,3.38.73s3.12.72,5.26,1.19Z"/><path d="M54.33,264.22c1.57-.03,2.94.27,4.11.89,1.17.62,2.08,1.49,2.72,2.63.64,1.14.98,2.48,1,4.04.02,1.55-.26,2.91-.86,4.07-.6,1.16-1.47,2.07-2.62,2.72-1.15.65-2.52.99-4.11,1.02-1.57.03-2.94-.28-4.1-.9-1.16-.63-2.07-1.51-2.72-2.66s-.99-2.49-1.02-4.02c-.02-1.53.27-2.87.89-4.02.62-1.15,1.5-2.06,2.65-2.72,1.15-.66,2.5-1.01,4.05-1.03ZM50.28,271.96c.02.95.39,1.69,1.12,2.24.74.54,1.77.8,3.1.78,1.35-.02,2.38-.31,3.09-.87s1.05-1.32,1.04-2.29c-.02-.97-.39-1.72-1.13-2.25-.73-.53-1.77-.79-3.1-.77-1.31.02-2.33.31-3.06.87-.73.56-1.08,1.32-1.07,2.29Z"/><path d="M50.81,247.03l-.27,4.47-7.88-.53c-.05-.18-.09-.46-.13-.83-.04-.37-.04-.76-.01-1.18.06-.88.25-1.51.58-1.87.33-.36.89-.52,1.7-.46l6.01.4ZM58.73,252.04l-9.08-.61.3-4.47,9.66.64c.48.03.88.16,1.2.38.32.22.59.57.83,1.03.33.57.6,1.3.81,2.19.21.89.28,1.91.21,3.06-.11,1.67-.49,3.09-1.13,4.27s-1.56,2.06-2.74,2.64-2.62.81-4.31.7c-1.77-.12-3.2-.55-4.29-1.3s-1.88-1.72-2.37-2.9c-.49-1.18-.68-2.47-.59-3.86.05-.72.17-1.36.37-1.92s.42-1,.67-1.35l3.68.25c-.26.27-.51.62-.74,1.07-.23.45-.37.98-.41,1.58-.05.7.06,1.34.33,1.9.27.56.7,1.02,1.3,1.36.6.34,1.39.55,2.35.61,1.41.09,2.46-.15,3.17-.74.71-.59,1.1-1.43,1.17-2.51.03-.44,0-.84-.09-1.19-.09-.35-.19-.63-.29-.84Z"/><path d="M44.51,242.34c-.68-.09-1.22-.39-1.62-.92-.4-.53-.55-1.15-.46-1.87.09-.74.4-1.31.92-1.71.52-.4,1.12-.56,1.8-.47.66.08,1.2.39,1.62.91.42.52.58,1.15.49,1.89-.09.72-.41,1.28-.95,1.69-.54.41-1.14.57-1.8.49ZM58.04,239.28l-.57,4.44-8.61-1.1c-.04-.19-.06-.47-.08-.85s0-.78.06-1.2c.11-.86.33-1.46.67-1.8s.92-.46,1.74-.36l6.78.87ZM55.16,243.43l.57-4.44,7.89,1.01c.04.19.06.46.06.83,0,.37-.02.76-.08,1.18-.11.86-.34,1.47-.69,1.82-.35.35-.92.48-1.69.38l-6.06-.77Z"/><path d="M50.41,229.62l4.03.8-.83,4.18-4.18-.83c-1.31-.26-2.31-.74-3.01-1.45-.7-.7-1.15-1.57-1.35-2.61s-.18-2.14.05-3.3c.28-1.38.66-2.38,1.16-2.99.5-.61,1.16-.83,1.97-.67.36.07.66.21.91.41.25.2.43.41.56.62-.19.35-.37.74-.54,1.16-.17.42-.3.9-.41,1.43-.18.93-.16,1.67.09,2.21.24.54.76.89,1.55,1.05ZM48.07,220.77c-.67-.13-1.19-.48-1.55-1.03s-.47-1.19-.33-1.9c.15-.73.49-1.28,1.04-1.64.54-.36,1.15-.48,1.83-.35.65.13,1.17.47,1.56,1.02s.5,1.19.36,1.92c-.14.71-.5,1.25-1.06,1.62-.57.37-1.18.49-1.83.36ZM54.85,231.21l-3.38-.67,1.15-5.79c.18-.07.42-.12.74-.16s.65-.03,1.01.05c.61.12,1.03.34,1.24.66.21.32.27.72.18,1.19l-.94,4.72ZM61.78,218.65l-.87,4.39-8.51-1.69c-.02-.19-.03-.47-.02-.85.01-.38.06-.77.14-1.19.17-.85.44-1.44.8-1.75.36-.32.95-.4,1.76-.24l6.71,1.33ZM52.76,234.43l.87-4.39,11.18,2.22c.02.21.02.5,0,.86-.02.37-.07.76-.16,1.17-.17.83-.43,1.41-.81,1.74-.37.33-.95.41-1.72.26l-9.38-1.86ZM58.63,222.59l.87-4.39,7.8,1.55c.02.19.03.47,0,.83-.02.37-.07.76-.16,1.17-.17.85-.44,1.44-.81,1.77-.37.33-.95.41-1.72.26l-5.99-1.19Z"/><path d="M59.42,205.96c-.3,1.05-.21,2.04.26,2.99.47.94,1.37,1.61,2.69,1.99,1.3.37,2.38.3,3.24-.23.87-.53,1.46-1.33,1.77-2.42.18-.64.26-1.22.23-1.74-.03-.52-.09-.99-.18-1.39.33-.26.66-.44.99-.53.33-.09.7-.08,1.11.04.72.21,1.19.76,1.41,1.67.22.9.13,2.04-.26,3.42-.44,1.53-1.1,2.8-1.99,3.8-.89,1-1.97,1.67-3.26,1.99s-2.73.25-4.32-.21c-1.69-.49-2.97-1.24-3.87-2.25-.89-1.01-1.45-2.18-1.67-3.49-.22-1.31-.13-2.65.26-4,.39-1.34.93-2.32,1.64-2.94.71-.62,1.42-.83,2.13-.63.35.1.64.27.87.52.23.25.43.51.58.78-.3.31-.6.68-.9,1.11-.3.43-.54.94-.71,1.54Z"/><path d="M60.24,192.25c.73-1.97,1.72-3.38,2.97-4.25,1.26-.87,2.75-.98,4.47-.35l6.44,2.38c.47.17.81.44,1.01.79s.34.76.41,1.21c.13.69.14,1.5.03,2.41-.11.92-.37,1.91-.77,2.99-.71,1.93-1.66,3.33-2.84,4.19-1.18.87-2.52,1.02-4.01.47-1.29-.48-2.13-1.24-2.52-2.29-.4-1.05-.38-2.39.05-4.01l1-3.92-.34-.13c-.64-.24-1.2-.16-1.67.24-.47.4-.88,1.06-1.22,1.98-.27.72-.44,1.46-.53,2.21-.08.75-.12,1.45-.09,2.08-.24.17-.54.28-.91.33s-.73,0-1.07-.12c-.79-.29-1.21-.94-1.25-1.94-.03-.63.05-1.33.21-2.1s.37-1.49.62-2.17ZM71.65,196.27c.16-.44.28-.88.35-1.34s.09-.8.04-1.03l-2.72-1.01-.65,2.47c-.2.66-.26,1.22-.17,1.68.09.46.36.78.81.95.45.17.88.12,1.29-.14.41-.26.76-.78,1.05-1.58Z"/><path d="M73.16,181.05l-1.81,4.06-9.91-4.43c.03-.21.08-.49.17-.85s.21-.72.37-1.09c.35-.79.75-1.3,1.18-1.53.43-.23,1.02-.17,1.75.15l8.26,3.69ZM69.3,181.08l-3.15-1.41,2.37-5.3c.19-.03.44-.02.76,0,.32.03.64.12.97.27.55.25.9.55,1.05.92.15.36.12.76-.06,1.18l-1.94,4.33ZM70.65,184.8l1.82-4.06,2.95,1.32c.52.23.97.23,1.35,0,.39-.22.72-.64.99-1.25.12-.28.23-.59.3-.94.08-.35.12-.66.13-.92.23-.07.49-.12.79-.13s.6.05.91.19c.63.28,1.03.77,1.2,1.46s0,1.65-.55,2.87c-.69,1.55-1.58,2.59-2.66,3.13-1.08.54-2.42.46-4-.25l-3.23-1.44Z"/><path d="M66.02,169.26c-.61-.31-1.02-.78-1.22-1.41-.2-.63-.14-1.27.19-1.92.34-.67.82-1.1,1.44-1.31.62-.21,1.24-.15,1.85.16.59.3,1,.77,1.23,1.4.22.63.17,1.28-.17,1.95-.33.65-.81,1.07-1.46,1.28-.65.2-1.27.16-1.86-.14ZM79.8,170.9l-2.02,4-7.75-3.92c.03-.19.1-.46.21-.82s.27-.73.46-1.11c.39-.77.8-1.27,1.24-1.48s1.02-.13,1.76.24l6.1,3.08ZM75.7,173.84l2.02-4,7.1,3.59c-.03.19-.1.46-.22.8-.12.35-.27.71-.46,1.09-.39.77-.81,1.27-1.26,1.48-.45.21-1.02.14-1.72-.21l-5.45-2.76Z"/><path d="M87.45,154.13c1.36.79,2.38,1.76,3.06,2.89.68,1.13,1,2.35.96,3.66-.04,1.31-.45,2.63-1.24,3.97s-1.73,2.35-2.84,3.03c-1.11.68-2.33,1-3.65.97-1.32-.04-2.67-.46-4.05-1.26-1.36-.79-2.37-1.76-3.04-2.9-.67-1.14-.98-2.37-.95-3.69.04-1.32.44-2.64,1.21-3.97s1.72-2.32,2.84-2.98c1.12-.66,2.35-.98,3.67-.95,1.33.03,2.66.43,4,1.22ZM79.97,158.65c-.48.82-.54,1.65-.2,2.5.35.84,1.09,1.6,2.24,2.27,1.17.68,2.2.97,3.09.86.89-.11,1.58-.58,2.07-1.42s.56-1.67.2-2.51c-.35-.84-1.1-1.59-2.25-2.26-1.13-.66-2.15-.94-3.06-.84-.91.1-1.61.57-2.1,1.4Z"/><path d="M95.32,138.99l2.33,1.63-2.59,3.69-2.21-1.54c-.61-.43-1.19-.57-1.72-.41-.54.15-1.01.52-1.41,1.1-.29.41-.5.83-.64,1.25-.14.42-.23.83-.28,1.21l3.44,2.41-2.57,3.67-3.86-2.71c-.41-.29-.7-.62-.85-.98-.15-.36-.22-.79-.2-1.27,0-.78.18-1.67.52-2.67.34-.99.86-1.99,1.55-2.98,1.25-1.78,2.61-2.89,4.07-3.31,1.47-.42,2.94-.12,4.41.91ZM88.54,151.19l2.57-3.67,6.49,4.55c-.07.2-.18.46-.35.79s-.37.66-.62,1.01c-.49.69-.96,1.12-1.44,1.26s-1.03,0-1.68-.45l-4.98-3.49ZM93.92,143.51l2.59-3.69,6.49,4.55c-.07.2-.18.46-.35.79s-.37.66-.61,1.01c-.49.69-.97,1.12-1.45,1.28-.48.16-1.04,0-1.68-.44l-4.98-3.49Z"/><path d="M460.76,161.75l2.2,4.04-11.21,6.1c-.14-.13-.33-.36-.57-.69-.24-.33-.46-.68-.66-1.05-.43-.8-.6-1.44-.49-1.92.11-.48.51-.92,1.22-1.3l9.51-5.18ZM457.86,168.57l-2.2-4.04,10.02-5.45c.13.16.32.4.57.74.25.33.47.68.67,1.03.41.76.58,1.38.5,1.86-.08.48-.5.92-1.24,1.33l-8.32,4.53Z"/><path d="M460.89,171.72l1.81,4.09-7.25,3.21c-.14-.16-.3-.4-.5-.71-.19-.31-.38-.66-.55-1.05-.34-.77-.46-1.4-.34-1.88s.54-.88,1.25-1.2l5.56-2.46ZM464.4,179.66l1.83,4.12-7.25,3.21c-.14-.16-.3-.4-.5-.71-.19-.31-.38-.66-.55-1.05-.35-.79-.47-1.43-.35-1.91.12-.48.54-.88,1.25-1.2l5.56-2.46ZM468.11,182.95l-3.15,1.4-1.83-4.12,2.63-1.16c.63-.28,1.01-.67,1.14-1.17s.08-1.03-.17-1.58c-.18-.41-.4-.74-.66-1.01-.26-.27-.51-.49-.74-.65l-3.9,1.73-1.81-4.09,4.31-1.91c.46-.2.89-.28,1.28-.22.39.06.79.22,1.19.48.69.42,1.37,1.02,2.02,1.79s1.19,1.63,1.61,2.59c.39.89.62,1.78.69,2.67s-.06,1.76-.38,2.58c-.04.2-.1.39-.16.58s-.14.36-.26.5c-.21.31-.48.62-.79.91-.31.29-.65.52-1.02.68ZM467.93,187.62l1.81,4.09-7.25,3.21c-.13-.14-.29-.37-.48-.68s-.38-.66-.55-1.05c-.35-.79-.47-1.43-.35-1.91s.54-.88,1.25-1.2l5.56-2.46ZM471.21,191.07l-2.74,1.21-1.81-4.09,2.63-1.16c.63-.28,1.01-.66,1.15-1.14.14-.48.08-1.01-.17-1.58-.19-.42-.45-.79-.79-1.09-.34-.3-.7-.54-1.06-.71l1.42-3.21c.75.4,1.46.91,2.15,1.53.68.62,1.27,1.5,1.77,2.62.42.96.66,1.93.69,2.9s-.2,1.87-.69,2.69-1.35,1.49-2.55,2.02Z"/><path d="M459.64,203.78c-.12-.17-.27-.42-.44-.75s-.32-.69-.45-1.09c-.26-.81-.31-1.44-.15-1.91.17-.47.63-.83,1.4-1.08l5.98-1.95,1.39,4.26-7.74,2.52ZM464.81,202.79c0-.63.04-1.2.13-1.7l3.59-1.17c-.16.41-.28.89-.36,1.44-.08.54-.02,1.11.18,1.71.34,1.05.95,1.76,1.81,2.13.86.37,1.96.33,3.3-.11.92-.3,1.62-.67,2.1-1.12.48-.44.78-.95.89-1.51.11-.57.06-1.18-.15-1.83-.14-.44-.33-.82-.55-1.14-.22-.32-.45-.58-.68-.78l-8.8,2.87-1.38-4.23,9.4-3.07c.48-.16.91-.19,1.29-.1s.76.29,1.14.61c.55.46,1.09,1.09,1.62,1.89.53.8.97,1.75,1.32,2.84.48,1.48.65,2.87.52,4.17-.14,1.31-.63,2.45-1.49,3.43-.86.98-2.13,1.74-3.82,2.29-1.63.53-3.09.67-4.38.41-1.29-.26-2.39-.82-3.3-1.69-.91-.87-1.58-1.98-2.02-3.32-.24-.73-.36-1.41-.36-2.04Z"/><path d="M476.23,212.36l1.04,4.38-7.61,1.98c-.11-.18-.23-.44-.37-.78-.14-.34-.26-.71-.37-1.12-.21-.82-.22-1.46-.03-1.93.19-.47.67-.8,1.43-1l5.91-1.53ZM475.02,217.33l-1.04-4.38,13.58-3.53c.11.18.24.44.39.77.15.34.28.71.38,1.12.22.84.23,1.49.04,1.94-.19.46-.68.79-1.46.99l-11.89,3.09Z"/><path d="M475.95,223.02l2.93-.77,2.61,7.13c.54-.15,1.01-.49,1.4-1.02.39-.53.5-1.22.33-2.07-.18-.89-.62-1.57-1.35-2.05s-1.64-.62-2.75-.44l-2.02.55c-1.05.39-1.74,1.01-2.05,1.86s-.37,1.78-.17,2.81c.16.83.44,1.59.82,2.27.38.68.75,1.23,1.09,1.63-.12.33-.32.62-.6.87-.28.25-.6.41-.95.48-.59.12-1.13-.02-1.62-.4s-.91-.97-1.27-1.75-.64-1.7-.85-2.75c-.3-1.52-.29-2.95.05-4.28s1-2.45,2.01-3.37,2.38-1.55,4.1-1.89c1.27-.25,2.4-.27,3.41-.04,1.01.22,1.88.61,2.62,1.18.74.56,1.34,1.25,1.81,2.05s.79,1.67.98,2.6c.27,1.36.23,2.61-.11,3.74-.34,1.13-.92,2.07-1.74,2.83-.82.76-1.84,1.26-3.06,1.5-.61.12-1.11.04-1.49-.23-.38-.27-.67-.7-.87-1.28l-3.26-9.16Z"/><path d="M481.58,236.86l.43,4.46-7.89.76c-.08-.19-.16-.47-.25-.83-.08-.36-.15-.75-.19-1.17-.08-.84,0-1.47.27-1.9.26-.42.79-.67,1.57-.74l6.05-.59ZM482.42,245.5l.43,4.49-7.89.76c-.08-.2-.16-.47-.25-.83-.09-.36-.15-.75-.19-1.17-.08-.86,0-1.5.27-1.93s.79-.67,1.57-.74l6.05-.59ZM483.26,254.17l.43,4.46-7.89.76c-.08-.17-.16-.44-.25-.8-.08-.36-.15-.75-.19-1.17-.08-.86,0-1.5.27-1.93.26-.42.79-.67,1.57-.74l6.05-.59ZM484.9,249.79l-3.43.33-.43-4.49,2.86-.28c.68-.07,1.16-.32,1.45-.75.28-.43.39-.95.34-1.55-.04-.44-.15-.83-.31-1.17-.17-.34-.33-.62-.49-.85l-4.25.41-.43-4.46,4.7-.45c.5-.05.93.02,1.28.2s.68.46.98.83c.53.62.98,1.39,1.35,2.33.37.94.61,1.93.71,2.97.09.96.03,1.88-.19,2.75-.22.87-.61,1.65-1.17,2.33-.1.17-.22.34-.33.5-.12.16-.25.29-.4.39-.3.23-.65.44-1.04.62s-.78.29-1.18.33ZM485.28,258.47l-2.98.29-.43-4.46,2.86-.28c.68-.07,1.17-.31,1.45-.72.28-.41.4-.93.34-1.55-.04-.46-.18-.89-.41-1.28-.23-.39-.49-.73-.78-1l2.36-2.6c.59.61,1.11,1.32,1.56,2.13.45.81.74,1.82.86,3.05.1,1.04.01,2.03-.26,2.97s-.78,1.72-1.51,2.33-1.75.99-3.05,1.12Z"/><path d="M480.9,264.65l3.03-.13,1.06,7.52c.56-.03,1.09-.26,1.58-.7.49-.44.74-1.09.76-1.95.02-.91-.28-1.67-.88-2.28-.61-.61-1.47-.95-2.6-1.01l-2.09.12c-1.11.16-1.91.62-2.4,1.38-.49.76-.74,1.66-.75,2.71-.01.85.09,1.64.32,2.39.23.75.47,1.36.73,1.83-.19.3-.44.54-.77.73-.33.19-.67.28-1.03.27-.61,0-1.11-.25-1.5-.74s-.69-1.14-.88-1.98c-.19-.84-.27-1.79-.26-2.86.03-1.55.34-2.94.95-4.17s1.5-2.19,2.68-2.88c1.18-.69,2.65-1.02,4.4-.99,1.29.02,2.41.25,3.35.67.94.43,1.71,1,2.32,1.7s1.05,1.5,1.34,2.38c.29.88.42,1.8.41,2.74-.02,1.39-.32,2.6-.89,3.63-.57,1.03-1.33,1.83-2.29,2.4-.96.57-2.06.84-3.31.82-.62-.01-1.1-.19-1.41-.54-.32-.35-.51-.82-.58-1.43l-1.26-9.64Z"/><path d="M482.76,288.47l-.36,4.49-7.9-.63c-.04-.21-.08-.49-.1-.86-.02-.37-.02-.76.02-1.18.07-.84.27-1.46.6-1.83.33-.38.89-.54,1.68-.47l6.06.48ZM483.51,279.13l-.36,4.46-7.9-.63c-.04-.21-.08-.49-.1-.86-.02-.37-.01-.76.02-1.18.07-.84.27-1.45.6-1.82.33-.37.89-.52,1.67-.46l6.06.48ZM483.85,293.08l-2.83-.23.36-4.49,2.68.21c.74.06,1.31-.11,1.69-.52.39-.4.61-.96.66-1.66.04-.5.01-.97-.08-1.4s-.22-.83-.38-1.18l-4.19-.33.36-4.46,4.7.38c.5.04.91.18,1.23.42.31.24.59.57.82.99.39.68.69,1.53.9,2.56s.27,2.15.17,3.35c-.17,2.17-.79,3.81-1.83,4.92-1.05,1.11-2.47,1.59-4.26,1.45Z"/><path d="M481.91,296.69l-.66,4.4-3.2-.48c-.56-.08-1,.04-1.31.36s-.52.81-.62,1.47c-.04.3-.06.63-.04.99.02.36.06.67.12.92-.2.13-.44.24-.72.33-.28.09-.59.11-.93.06-.68-.1-1.19-.46-1.55-1.09-.36-.62-.43-1.59-.24-2.91.25-1.67.83-2.92,1.72-3.73.9-.81,2.2-1.09,3.92-.84l3.5.52ZM480.5,300.97l.66-4.4,10.74,1.61c.03.21.05.5.07.87.02.37,0,.75-.07,1.15-.13.86-.37,1.45-.73,1.79-.36.33-.93.44-1.73.32l-8.95-1.34ZM484.21,299.9l3.41.51-.86,5.74c-.17.08-.42.14-.73.2-.31.05-.65.06-1.01,0-.6-.09-1.02-.29-1.26-.6-.24-.31-.32-.7-.25-1.16l.7-4.7Z"/><path d="M485.67,315.72c-.45,2.05-1.23,3.59-2.36,4.62-1.12,1.03-2.58,1.36-4.37.96l-6.71-1.46c-.49-.11-.86-.32-1.11-.65-.25-.32-.44-.71-.57-1.15-.22-.67-.35-1.46-.36-2.39s.1-1.94.34-3.07c.44-2.01,1.18-3.52,2.23-4.54,1.05-1.02,2.35-1.36,3.91-1.02,1.34.29,2.28.93,2.82,1.92.54.98.71,2.31.51,3.98l-.44,4.02.35.08c.67.15,1.21,0,1.62-.47.41-.46.72-1.17.93-2.13.16-.75.24-1.5.21-2.26-.02-.76-.09-1.45-.2-2.07.21-.2.49-.35.86-.45.36-.1.72-.11,1.07-.03.83.18,1.33.76,1.51,1.75.11.62.14,1.33.08,2.11-.06.78-.16,1.53-.32,2.24ZM473.81,313.32c-.1.45-.15.91-.16,1.37,0,.46.03.81.1,1.03l2.84.62.31-2.53c.11-.68.08-1.24-.07-1.69-.15-.45-.46-.72-.93-.82-.47-.1-.89,0-1.26.31-.37.31-.64.88-.82,1.71Z"/><path d="M476.4,324.53l-1.23,4.27-3.11-.9c-.54-.16-.99-.1-1.34.18-.35.28-.62.73-.81,1.37-.08.29-.14.62-.17.97s-.03.67,0,.93c-.22.1-.47.18-.76.24-.29.05-.6.03-.93-.06-.66-.19-1.12-.62-1.39-1.28-.27-.67-.22-1.64.15-2.92.47-1.63,1.2-2.78,2.2-3.47s2.33-.79,3.99-.31l3.4.98ZM474.44,328.59l1.23-4.27,10.43,3.01c0,.21-.01.5-.05.87s-.11.75-.22,1.13c-.24.83-.56,1.39-.96,1.68-.4.28-.98.31-1.76.09l-8.69-2.51ZM478.25,328.02l3.31.96-1.61,5.58c-.18.05-.43.08-.75.1-.32.01-.65-.03-1-.13-.58-.17-.97-.42-1.17-.76-.2-.34-.23-.73-.1-1.18l1.32-4.56Z"/><path d="M472.91,336.08l-1.45,4.24-7.53-2.57c0-.19.04-.47.11-.83.07-.36.17-.74.31-1.14.28-.82.63-1.37,1.04-1.64.41-.27.99-.28,1.74-.03l5.78,1.97ZM469.26,339.57l1.45-4.24,8.21,2.8c0,.19-.03.47-.1.85-.06.37-.16.76-.3,1.16-.28.82-.62,1.36-1.02,1.63-.4.27-.99.27-1.78,0l-6.47-2.21ZM483.14,339.29c.65.22,1.12.63,1.4,1.23.29.6.31,1.24.08,1.93-.24.71-.66,1.2-1.25,1.49s-1.21.32-1.86.1c-.63-.21-1.1-.62-1.41-1.22-.31-.6-.34-1.25-.1-1.95.23-.69.66-1.18,1.27-1.47.61-.29,1.23-.33,1.86-.12Z"/><path d="M464,357.26c-1.46-.6-2.6-1.41-3.43-2.44-.83-1.03-1.32-2.19-1.46-3.49s.08-2.67.67-4.1c.59-1.44,1.39-2.57,2.39-3.4,1.01-.83,2.17-1.32,3.48-1.46,1.31-.15,2.71.08,4.18.69,1.45.6,2.59,1.41,3.41,2.45s1.3,2.21,1.45,3.52-.07,2.68-.66,4.1-1.38,2.53-2.41,3.34c-1.02.81-2.19,1.29-3.51,1.45-1.32.16-2.7-.06-4.13-.65ZM470.79,351.74c.36-.88.31-1.71-.15-2.5s-1.31-1.44-2.54-1.94c-1.25-.51-2.31-.66-3.18-.42s-1.49.79-1.86,1.69c-.37.9-.32,1.73.14,2.51.46.78,1.31,1.42,2.54,1.93,1.21.5,2.26.64,3.15.41.89-.22,1.52-.78,1.88-1.68Z"/><path d="M459.06,368.65l-2.05,4.01-7.05-3.61c.04-.21.12-.48.24-.83.12-.35.28-.71.47-1.08.38-.75.8-1.24,1.26-1.46s1.03-.15,1.73.21l5.41,2.77ZM463.33,360.3l-2.04,3.99-7.05-3.61c.04-.21.12-.48.24-.83.12-.35.28-.71.47-1.08.39-.75.8-1.24,1.25-1.45.45-.21,1.02-.14,1.72.22l5.41,2.77ZM458.3,373.32l-2.53-1.29,2.05-4.01,2.4,1.23c.66.34,1.25.4,1.76.17.51-.23.93-.65,1.25-1.28.23-.45.38-.89.46-1.33.08-.44.11-.85.11-1.24l-3.74-1.92,2.04-3.99,4.2,2.15c.45.23.77.51.97.85.2.34.32.75.37,1.23.1.78.05,1.68-.15,2.71-.2,1.03-.57,2.08-1.12,3.16-.99,1.94-2.19,3.22-3.58,3.84-1.4.62-2.89.53-4.49-.29Z"/></g></svg>