<?xml version="1.0" encoding="UTF-8"?><svg id="Layer_2" xmlns="http://www.w3.org/2000/svg" viewBox="0 0 500 230"><defs><style>.cls-1{letter-spacing:-.01em;}.cls-2{letter-spacing:0em;}.cls-3{letter-spacing:0em;}.cls-4{letter-spacing:0em;}.cls-5{letter-spacing:0em;}.cls-6{letter-spacing:-.02em;}.cls-7{stroke:#78b585;}.cls-7,.cls-8,.cls-9,.cls-10{fill:none;stroke-dasharray:0 20 1000;stroke-miterlimit:10;stroke-width:7px;}.cls-11{letter-spacing:0em;}.cls-12{letter-spacing:0em;}.cls-13{letter-spacing:-.01em;}.cls-14{letter-spacing:0em;}.cls-15{letter-spacing:0em;}.cls-16{letter-spacing:0em;}.cls-17{letter-spacing:-.02em;}.cls-18{letter-spacing:0em;}.cls-8{stroke:#c7738d;}.cls-19{letter-spacing:-.02em;}.cls-20{letter-spacing:0em;}.cls-21{letter-spacing:0em;}.cls-22{font-size:12px;}.cls-22,.cls-23{font-family:Baloo2-Bold, 'Baloo 2';font-variation-settings:'wght' 700;font-weight:700;}.cls-24{font-size:16px;}.cls-24,.cls-25,.cls-26{font-family:Baloo2-Medium, 'Baloo 2';font-variation-settings:'wght' 500;font-weight:500;}.cls-27{font-family:Baloo2-Regular, 'Baloo 2';font-size:9px;font-variation-settings:'wght' 400;}.cls-28{letter-spacing:-.01em;}.cls-25{font-size:15px;}.cls-9{stroke:#7ec3d5;}.cls-29{letter-spacing:-.02em;}.cls-30{letter-spacing:-.01em;}.cls-31{letter-spacing:0em;}.cls-32{letter-spacing:0em;}.cls-33{letter-spacing:-.01em;}.cls-34{fill:#ab9fd4;}.cls-35{letter-spacing:-.01em;}.cls-36{letter-spacing:-.01em;}.cls-37{letter-spacing:0em;}.cls-38{letter-spacing:0em;}.cls-39{fill:#c7738d;}.cls-40{letter-spacing:-.04em;}.cls-41{letter-spacing:-.03em;}.cls-42{letter-spacing:-.02em;}.cls-43{letter-spacing:0em;}.cls-44{letter-spacing:-.02em;}.cls-26{font-size:8.36px;}.cls-45{letter-spacing:0em;}.cls-46{letter-spacing:-.01em;}.cls-23{fill:#fff;font-size:8px;}.cls-47{letter-spacing:-.01em;}.cls-48{letter-spacing:0em;}.cls-49{fill:#7ec3d5;}.cls-10{stroke:#ab9fd4;}.cls-50{letter-spacing:0em;}.cls-51{letter-spacing:0em;}.cls-52{letter-spacing:-.01em;}.cls-53{letter-spacing:0em;}.cls-54{letter-spacing:0em;}.cls-55{letter-spacing:-.01em;}.cls-56{letter-spacing:0em;}.cls-57{letter-spacing:-.05em;}.cls-58{letter-spacing:0em;}.cls-59{letter-spacing:0em;}.cls-60{letter-spacing:-.02em;}.cls-61{letter-spacing:0em;}.cls-62{letter-spacing:-.02em;}.cls-63{fill:#78b585;}.cls-64{letter-spacing:-.01em;}.cls-65{letter-spacing:-.02em;}</style></defs><g id="Layer_1-2"><text transform="translate(196.48 94.27)"><tspan class="cls-22"><tspan x="0" y="0">Human </tspan><tspan class="cls-6" x="40.68" y="0">P</tspan><tspan class="cls-35" x="47.38" y="0">r</tspan><tspan x="52.07" y="0">acti</tspan><tspan class="cls-28" x="72.25" y="0">c</tspan><tspan x="77.91" y="0">e and</tspan></tspan><tspan class="cls-22"><tspan class="cls-6" x="14.46" y="12">P</tspan><tspan class="cls-17" x="21.16" y="12">r</tspan><tspan x="25.8" y="12">oject D</tspan><tspan class="cls-15" x="63.43" y="12">e</tspan><tspan x="69.95" y="12">sign</tspan></tspan><tspan class="cls-26"><tspan x="3.49" y="33.37">Our human p</tspan><tspan class="cls-61" x="50.34" y="33.37">r</tspan><tspan class="cls-16" x="53.53" y="33.37">acti</tspan><tspan class="cls-64" x="67.07" y="33.37">c</tspan><tspan x="70.98" y="33.37">e aims </tspan><tspan class="cls-36" x="95.8" y="33.37">t</tspan><tspan x="98.86" y="33.37">o </tspan></tspan><tspan class="cls-26"><tspan class="cls-59" x="-8.08" y="41.37">e</tspan><tspan x="-3.64" y="41.37">s</tspan><tspan class="cls-53" x=".19" y="41.37">t</tspan><tspan x="3.38" y="41.37">ab</tspan><tspan class="cls-21" x="12.31" y="41.37">l</tspan><tspan x="14.46" y="41.37">ish the </tspan><tspan class="cls-30" x="40.65" y="41.37">c</tspan><tspan x="44.56" y="41.37">onnection be</tspan><tspan class="cls-48" x="92.36" y="41.37">t</tspan><tspan class="cls-4" x="95.48" y="41.37">w</tspan><tspan x="101.65" y="41.37">een </tspan></tspan><tspan class="cls-26"><tspan x="10.66" y="49.37">our lab </tspan><tspan class="cls-4" x="37.67" y="49.37">w</tspan><tspan x="43.84" y="49.37">ork and </tspan><tspan class="cls-36" x="72.92" y="49.37">r</tspan><tspan x="76.07" y="49.37">ea</tspan><tspan class="cls-32" x="84.73" y="49.37">l</tspan><tspan x="86.88" y="49.37">i</tspan><tspan class="cls-11" x="88.98" y="49.37">t</tspan><tspan x="92.16" y="49.37">y</tspan></tspan></text><path class="cls-10" d="M299.5,164.5c-27.36,27.36-71.64,27.36-98.99,0l-25.5,30.5h-50"/><path class="cls-7" d="M200.5,164.5c-27.36-27.36-27.36-71.64,0-98.99l-25.5-30.5h-50"/><path class="cls-9" d="M299.5,65.5c27.36,27.36,27.36,71.64,0,98.99l25.5,30.5h50"/><path class="cls-8" d="M200.5,65.5c27.36-27.36,71.64-27.36,98.99,0l25.5-30.5h50"/><rect class="cls-49" x="340" y="160" width="160" height="70" rx="30" ry="30"/><text transform="translate(364.99 179.26)"><tspan class="cls-24"><tspan x="0" y="0">Mar</tspan><tspan class="cls-13" x="26.93" y="0">k</tspan><tspan x="34.78" y="0">et Analysis</tspan></tspan><tspan class="cls-27"><tspan class="cls-18" x="4.16" y="11">C</tspan><tspan x="9.41" y="11">u</tspan><tspan class="cls-18" x="14.36" y="11">r</tspan><tspan class="cls-43" x="17.75" y="11">r</tspan><tspan x="21.1" y="11">ent AMR si</tspan><tspan class="cls-18" x="61.5" y="11">t</tspan><tspan x="64.81" y="11">uation and</tspan></tspan><tspan class="cls-27"><tspan x="12.85" y="20">the </tspan><tspan class="cls-54" x="27.63" y="20">v</tspan><tspan x="32.01" y="20">oid in the mar</tspan><tspan class="cls-43" x="84.85" y="20">k</tspan><tspan x="89.14" y="20">et</tspan></tspan><tspan class="cls-23"><tspan x="3.1" y="35">Dr Helen Ma, </tspan><tspan class="cls-42" x="49.61" y="35">P</tspan><tspan class="cls-62" x="54.07" y="35">r</tspan><tspan x="57.17" y="35">of Maga</tspan><tspan class="cls-62" x="86.11" y="35">r</tspan><tspan x="89.21" y="35">et I</tspan><tspan class="cls-55" x="100.63" y="35">p</tspan><tspan x="105.16" y="35">,</tspan></tspan><tspan class="cls-23"><tspan x="1.73" y="42">Dr </tspan><tspan class="cls-55" x="11.86" y="42">P</tspan><tspan x="16.41" y="42">ie</tspan><tspan class="cls-14" x="22.92" y="42">r</tspan><tspan class="cls-62" x="26.08" y="42">r</tspan><tspan x="29.17" y="42">e Chan, Dr </tspan><tspan class="cls-29" x="66.68" y="42">E</tspan><tspan x="70.9" y="42">dmond Ma</tspan></tspan></text><rect class="cls-34" y="160" width="160" height="70" rx="30" ry="30"/><text transform="translate(44.79 179.26)"><tspan class="cls-24"><tspan class="cls-3" x="0" y="0">K</tspan><tspan x="9.17" y="0">it </tspan><tspan class="cls-15" x="22.43" y="0">D</tspan><tspan class="cls-51" x="32.94" y="0">e</tspan><tspan x="41.44" y="0">sign</tspan></tspan><tspan class="cls-27"><tspan class="cls-65" x="-33.58" y="11">C</tspan><tspan x="-28.51" y="11">o</tspan><tspan class="cls-37" x="-23.54" y="11">l</tspan><tspan x="-21.29" y="11">lecting opintion </tspan><tspan class="cls-40" x="41.24" y="11">f</tspan><tspan class="cls-43" x="44.48" y="11">r</tspan><tspan x="47.83" y="11">om </tspan><tspan class="cls-60" x="61.95" y="11">P</tspan><tspan x="66.88" y="11">oC d</tspan><tspan class="cls-12" x="83.87" y="11">e</tspan><tspan x="88.5" y="11">vi</tspan><tspan class="cls-33" x="95.12" y="11">c</tspan><tspan x="99.32" y="11">e </tspan></tspan><tspan class="cls-27"><tspan class="cls-20" x="-35.55" y="20">e</tspan><tspan x="-30.84" y="20">xper</tspan><tspan class="cls-56" x="-13.48" y="20">t</tspan><tspan x="-10.07" y="20">s and po</tspan><tspan class="cls-46" x="21.8" y="20">t</tspan><tspan x="25.02" y="20">ential u</tspan><tspan class="cls-38" x="53.61" y="20">s</tspan><tspan x="57.68" y="20">ers </tspan><tspan class="cls-54" x="71.61" y="20">(</tspan><tspan x="73.82" y="20">doc</tspan><tspan class="cls-46" x="88.02" y="20">t</tspan><tspan x="91.24" y="20">ors)</tspan></tspan><tspan class="cls-23"><tspan class="cls-42" x="2.69" y="35">P</tspan><tspan class="cls-62" x="7.16" y="35">r</tspan><tspan x="10.25" y="35">of S</tspan><tspan class="cls-45" x="24.21" y="35">t</tspan><tspan x="27.28" y="35">ephen </tspan><tspan class="cls-57" x="51.38" y="35">T</tspan><tspan x="55.35" y="35">sui,</tspan></tspan><tspan class="cls-23"><tspan x="-18.07" y="42">Dr </tspan><tspan class="cls-55" x="-7.94" y="42">P</tspan><tspan x="-3.39" y="42">ie</tspan><tspan class="cls-14" x="3.12" y="42">r</tspan><tspan class="cls-62" x="6.28" y="42">r</tspan><tspan x="9.37" y="42">e Chan, Dr </tspan><tspan class="cls-29" x="46.88" y="42">E</tspan><tspan x="51.1" y="42">dmond Ma</tspan></tspan></text><rect class="cls-63" width="160" height="70" rx="30" ry="30"/><text transform="translate(25.22 19.26)"><tspan class="cls-24"><tspan class="cls-19" x="0" y="0">P</tspan><tspan class="cls-52" x="8.82" y="0">r</tspan><tspan x="14.85" y="0">obe </tspan><tspan class="cls-58" x="44.4" y="0">S</tspan><tspan x="52.93" y="0">election</tspan></tspan><tspan class="cls-27"><tspan class="cls-20" x="-2.54" y="11">E</tspan><tspan x="2.27" y="11">xper</tspan><tspan class="cls-56" x="19.63" y="11">t</tspan><tspan x="23.04" y="11">s in gene de</tspan><tspan class="cls-46" x="68.3" y="11">t</tspan><tspan x="71.51" y="11">ection and</tspan></tspan><tspan class="cls-27"><tspan class="cls-38" x="16.46" y="20">s</tspan><tspan x="20.53" y="20">ensing app</tspan><tspan class="cls-43" x="62.25" y="20">r</tspan><tspan class="cls-31" x="65.59" y="20">o</tspan><tspan x="70.59" y="20">ach</tspan><tspan class="cls-50" x="84.34" y="20">e</tspan><tspan x="89.06" y="20">s</tspan></tspan><tspan class="cls-23"><tspan class="cls-42" x="3.14" y="35">P</tspan><tspan class="cls-62" x="7.6" y="35">r</tspan><tspan x="10.7" y="35">of Ka</tspan><tspan class="cls-62" x="29.4" y="35">r</tspan><tspan x="32.49" y="35">en </tspan><tspan class="cls-41" x="43.03" y="35">T</tspan><tspan x="47.16" y="35">am, Dr Helen Ma,</tspan></tspan><tspan class="cls-23"><tspan class="cls-42" x="-6.32" y="42">P</tspan><tspan class="cls-62" x="-1.85" y="42">r</tspan><tspan x="1.25" y="42">of Maga</tspan><tspan class="cls-62" x="30.19" y="42">r</tspan><tspan x="33.28" y="42">et I</tspan><tspan class="cls-55" x="44.71" y="42">p</tspan><tspan x="49.23" y="42">, </tspan><tspan class="cls-42" x="52.59" y="42">P</tspan><tspan class="cls-62" x="57.05" y="42">r</tspan><tspan x="60.15" y="42">of S</tspan><tspan class="cls-45" x="74.1" y="42">t</tspan><tspan x="77.18" y="42">ephen </tspan><tspan class="cls-57" x="101.27" y="42">T</tspan><tspan x="105.25" y="42">sui</tspan></tspan></text><rect class="cls-39" x="340" width="160" height="70" rx="30" ry="30"/><text><tspan class="cls-25"><tspan x="344.91" y="27.46">Out</tspan><tspan class="cls-47" x="369.35" y="27.46">r</tspan><tspan x="375" y="27.46">eaching </tspan><tspan class="cls-44" x="429.47" y="27.46">E</tspan><tspan x="437.24" y="27.46">du</tspan><tspan class="cls-2" x="453.96" y="27.46">c</tspan><tspan x="461.22" y="27.46">ation</tspan></tspan><tspan class="cls-27"><tspan x="357.96" y="38.46">Objecti</tspan><tspan class="cls-54" x="385.77" y="38.46">v</tspan><tspan x="390.16" y="38.46">e of our edu</tspan><tspan class="cls-20" x="436.7" y="38.46">c</tspan><tspan x="441.04" y="38.46">ation </tspan><tspan class="cls-43" x="462.77" y="38.46">w</tspan><tspan x="469.25" y="38.46">ork</tspan></tspan><tspan class="cls-27"><tspan x="372.99" y="47.46">and out</tspan><tspan class="cls-43" x="402.43" y="47.46">r</tspan><tspan x="405.78" y="47.46">each p</tspan><tspan class="cls-43" x="430.92" y="47.46">r</tspan><tspan x="434.26" y="47.46">omotion</tspan></tspan><tspan class="cls-23"><tspan x="373.47" y="62.46">Dr Helen Ma, Dr </tspan><tspan class="cls-1" x="430.12" y="62.46">V</tspan><tspan x="435" y="62.46">ic</tspan><tspan class="cls-45" x="441.06" y="62.46">t</tspan><tspan class="cls-5" x="444.13" y="62.46">or Lau</tspan></tspan></text></g></svg>