<?xml version="1.0" encoding="UTF-8"?><svg id="Layer_2" xmlns="http://www.w3.org/2000/svg" viewBox="0 0 503.28 792.3"><defs><style>.cls-1{letter-spacing:-.04em;}.cls-2{letter-spacing:-.04em;}.cls-2,.cls-3,.cls-4,.cls-5,.cls-6,.cls-7,.cls-8,.cls-9,.cls-10,.cls-11,.cls-12,.cls-13,.cls-14,.cls-15,.cls-16,.cls-17,.cls-18,.cls-19,.cls-20,.cls-21,.cls-22,.cls-23,.cls-24,.cls-25,.cls-26,.cls-27,.cls-28,.cls-29,.cls-30,.cls-31,.cls-32,.cls-33{isolation:isolate;}.cls-2,.cls-3,.cls-4,.cls-5,.cls-6,.cls-7,.cls-8,.cls-9,.cls-10,.cls-12,.cls-13,.cls-15,.cls-16,.cls-17,.cls-18,.cls-19,.cls-20,.cls-21,.cls-22,.cls-23,.cls-24,.cls-25,.cls-26,.cls-27,.cls-28,.cls-29,.cls-30,.cls-31,.cls-32,.cls-33{font-family:Inter-Regular, Inter;font-variation-settings:'opsz' 14, 'wght' 400;}.cls-2,.cls-5,.cls-6,.cls-10,.cls-12,.cls-15,.cls-19,.cls-33{font-size:11px;}.cls-34{stroke:#212121;stroke-width:4px;}.cls-34,.cls-35,.cls-36,.cls-37,.cls-38,.cls-39,.cls-40,.cls-41,.cls-42,.cls-43,.cls-44{fill:none;}.cls-34,.cls-35,.cls-37,.cls-38,.cls-40,.cls-41,.cls-43{stroke-linecap:round;stroke-linejoin:round;}.cls-3,.cls-4,.cls-13,.cls-16,.cls-20,.cls-21,.cls-23,.cls-25,.cls-26,.cls-27,.cls-31{font-size:12px;}.cls-3,.cls-12,.cls-21{letter-spacing:.02em;}.cls-4{letter-spacing:-.08em;}.cls-35,.cls-37,.cls-38,.cls-40,.cls-41,.cls-43{stroke-width:2px;}.cls-35,.cls-45,.cls-41,.cls-42{stroke:#c7738d;}.cls-35,.cls-38,.cls-40{stroke-dasharray:0 0 .99 5.94;}.cls-5{letter-spacing:0em;}.cls-46,.cls-36,.cls-37,.cls-38,.cls-44{stroke:#7ec3d5;}.cls-46,.cls-36,.cls-45,.cls-47,.cls-39,.cls-48,.cls-42,.cls-44{stroke-miterlimit:10;}.cls-46,.cls-49,.cls-45,.cls-47,.cls-20,.cls-21,.cls-23,.cls-48,.cls-26,.cls-27{fill:#fff;}.cls-46,.cls-45,.cls-47,.cls-48{stroke-width:3px;}.cls-36{stroke-width:7px;}.cls-7{letter-spacing:-.02em;}.cls-7,.cls-8,.cls-11,.cls-17,.cls-18,.cls-24,.cls-28,.cls-29,.cls-32{font-size:10.5px;}.cls-8{letter-spacing:0em;}.cls-50,.cls-29{letter-spacing:-.02em;}.cls-9,.cls-22,.cls-30{font-size:12.57px;}.cls-10{letter-spacing:-.05em;}.cls-11{font-family:MyriadPro-Regular, 'Myriad Pro';}.cls-47,.cls-40,.cls-43{stroke:#ab9fd4;}.cls-39,.cls-48{stroke:#78b585;}.cls-39,.cls-44{stroke-width:6px;}.cls-51{fill:#ab9fd4;}.cls-52{fill:#ecf0f3;}.cls-15{letter-spacing:-.03em;}.cls-53{fill:#c7738d;}.cls-16,.cls-23{letter-spacing:-.06em;}.cls-17{letter-spacing:-.03em;}.cls-18{letter-spacing:0em;}.cls-19,.cls-25,.cls-26{letter-spacing:-.02em;}.cls-54{fill:#7ec3d5;}.cls-22{letter-spacing:-.02em;}.cls-24{letter-spacing:.02em;}.cls-27{letter-spacing:-.07em;}.cls-28{letter-spacing:-.05em;}.cls-30{letter-spacing:-.04em;}.cls-31{letter-spacing:-.05em;}.cls-42{stroke-width:5px;}.cls-33{letter-spacing:-.08em;}.cls-55{fill:#78b585;}</style></defs><g id="Layer_2-2"><g id="Layer_1-2"><rect class="cls-45" x="1.5" y="73.67" width="190.84" height="49.31" rx="9.64" ry="9.64"/><rect class="cls-53" x="1.5" y="25.42" width="190.84" height="39.33" rx="9.64" ry="9.64"/><g class="cls-14"><text class="cls-13" transform="translate(26.91 39.88)"><tspan x="0" y="0">P</tspan></text><text class="cls-25" transform="translate(34.57 39.88)"><tspan x="0" y="0">r</tspan></text><text class="cls-13" transform="translate(38.89 39.88)"><tspan x="0" y="0">emina</tspan></text><text class="cls-3" transform="translate(73.13 39.88)"><tspan x="0" y="0">r</tspan></text><text class="cls-13" transform="translate(77.84 39.88)"><tspan x="0" y="0">y P</tspan></text><text class="cls-25" transform="translate(95.62 39.88)"><tspan x="0" y="0">r</tspan></text><text class="cls-13" transform="translate(99.94 39.88)"><tspan x="0" y="0">oject Design</tspan></text></g><g class="cls-14"><text class="cls-20" transform="translate(54.96 57.55)"><tspan x="0" y="0">P</tspan></text><text class="cls-26" transform="translate(62.62 57.55)"><tspan x="0" y="0">r</tspan></text><text class="cls-20" transform="translate(66.94 57.55)"><tspan x="0" y="0">o</tspan></text><text class="cls-23" transform="translate(74.14 57.55)"><tspan x="0" y="0">f</tspan></text><text class="cls-20" transform="translate(77.9 57.55)"><tspan x="0" y="0">. Ka</tspan></text><text class="cls-26" transform="translate(99.53 57.55)"><tspan x="0" y="0">r</tspan></text><text class="cls-20" transform="translate(103.85 57.55)"><tspan x="0" y="0">en </tspan></text><text class="cls-27" transform="translate(121.31 57.55)"><tspan x="0" y="0">T</tspan></text><text class="cls-20" transform="translate(128.18 57.55)"><tspan x="0" y="0">am</tspan></text></g><g class="cls-14"><text class="cls-10" transform="translate(18.92 93.17)"><tspan x="0" y="0">W</tspan></text><text class="cls-6" transform="translate(29.2 93.17)"><tspan x="0" y="0">e brains</tspan></text><text class="cls-6" transform="translate(70.73 93.17)"><tspan x="0" y="0">t</tspan></text><text class="cls-6" transform="translate(74.22 93.17)"><tspan x="0" y="0">o</tspan></text><text class="cls-12" transform="translate(80.82 93.17)"><tspan x="0" y="0">r</tspan></text><text class="cls-6" transform="translate(85.13 93.17)"><tspan x="0" y="0">med a p</tspan></text><text class="cls-19" transform="translate(127.01 93.17)"><tspan x="0" y="0">r</tspan></text><text class="cls-6" transform="translate(130.97 93.17)"><tspan x="0" y="0">emina</tspan></text><text class="cls-12" transform="translate(162.36 93.17)"><tspan x="0" y="0">r</tspan></text><text class="cls-6" transform="translate(166.67 93.17)"><tspan x="0" y="0">y </tspan></text><text class="cls-6" transform="translate(18.92 106.37)"><tspan x="0" y="0">p</tspan></text><text class="cls-19" transform="translate(25.66 106.37)"><tspan x="0" y="0">r</tspan></text><text class="cls-6" transform="translate(29.61 106.37)"><tspan x="0" y="0">oject design </tspan></text><text class="cls-15" transform="translate(96.22 106.37)"><tspan x="0" y="0">f</tspan></text><text class="cls-6" transform="translate(99.97 106.37)"><tspan x="0" y="0">or DNA sensing</tspan></text></g><rect class="cls-53" x=".63" y="462.42" width="190.84" height="39.33" rx="9.64" ry="9.64"/><rect class="cls-47" x="2.73" y="280.32" width="190.84" height="71.3" rx="9.64" ry="9.64"/><rect class="cls-51" x=".27" y="232.07" width="190.84" height="39.33" rx="9.64" ry="9.64"/><g class="cls-14"><text class="cls-13" transform="translate(50.89 248.84)"><tspan x="0" y="0">P</tspan></text><text class="cls-25" transform="translate(58.55 248.84)"><tspan x="0" y="0">r</tspan></text><text class="cls-13" transform="translate(62.87 248.84)"><tspan x="0" y="0">obe Selection</tspan></text></g><g class="cls-14"><text class="cls-20" transform="translate(47.99 264.31)"><tspan x="0" y="0">P</tspan></text><text class="cls-26" transform="translate(55.65 264.31)"><tspan x="0" y="0">r</tspan></text><text class="cls-20" transform="translate(59.97 264.31)"><tspan x="0" y="0">o</tspan></text><text class="cls-23" transform="translate(67.17 264.31)"><tspan x="0" y="0">f</tspan></text><text class="cls-20" transform="translate(70.93 264.31)"><tspan x="0" y="0">. Ma</tspan></text><text class="cls-26" transform="translate(95.34 264.31)"><tspan x="0" y="0">r</tspan></text><text class="cls-20" transform="translate(99.66 264.31)"><tspan x="0" y="0">ga</tspan></text><text class="cls-26" transform="translate(113.76 264.31)"><tspan x="0" y="0">r</tspan></text><text class="cls-20" transform="translate(118.07 264.31)"><tspan x="0" y="0">et Ip</tspan></text></g><g class="cls-14"><text class="cls-32" transform="translate(9.6 298.53)"><tspan x="0" y="0">S</tspan></text><text class="cls-29" transform="translate(16.34 298.53)"><tspan x="0" y="0">k</tspan></text><text class="cls-32" transform="translate(21.86 298.53)"><tspan x="0" y="0">ele</tspan></text><text class="cls-32" transform="translate(36.65 298.53)"><tspan x="0" y="0">t</tspan></text><text class="cls-32" transform="translate(39.98 298.53)"><tspan x="0" y="0">on of the sensing p</tspan></text><text class="cls-7" transform="translate(135.27 298.53)"><tspan x="0" y="0">r</tspan></text><text class="cls-32" transform="translate(139.05 298.53)"><tspan x="0" y="0">ocedu</tspan></text><text class="cls-7" transform="translate(170.1 298.53)"><tspan x="0" y="0">r</tspan></text><text class="cls-32" transform="translate(173.88 298.53)"><tspan x="0" y="0">es</tspan></text><text class="cls-32" transform="translate(62.8 311.13)"><tspan x="0" y="0">a</tspan></text><text class="cls-7" transform="translate(68.7 311.13)"><tspan x="0" y="0">r</tspan></text><text class="cls-32" transform="translate(72.47 311.13)"><tspan x="0" y="0">e confi</tspan></text><text class="cls-24" transform="translate(106.48 311.13)"><tspan x="0" y="0">r</tspan></text><text class="cls-32" transform="translate(110.59 311.13)"><tspan x="0" y="0">med</tspan></text><text class="cls-28" transform="translate(30.08 323.73)"><tspan x="0" y="0">W</tspan></text><text class="cls-32" transform="translate(39.89 323.73)"><tspan x="0" y="0">e consu</tspan></text><text class="cls-8" transform="translate(79.21 323.73)"><tspan x="0" y="0">l</tspan></text><text class="cls-32" transform="translate(81.91 323.73)"><tspan x="0" y="0">t</tspan></text><text class="cls-32" transform="translate(85.24 323.73)"><tspan x="0" y="0">ed p</tspan></text><text class="cls-7" transform="translate(107.18 323.73)"><tspan x="0" y="0">r</tspan></text><text class="cls-32" transform="translate(110.95 323.73)"><tspan x="0" y="0">o</tspan></text><text class="cls-17" transform="translate(117.25 323.73)"><tspan x="0" y="0">f</tspan></text><text class="cls-32" transform="translate(120.83 323.73)"><tspan x="0" y="0">essor </tspan></text><text class="cls-17" transform="translate(151.24 323.73)"><tspan x="0" y="0">f</tspan></text><text class="cls-32" transform="translate(154.82 323.73)"><tspan x="0" y="0">or</tspan></text><text class="cls-32" transform="translate(27.54 336.33)"><tspan x="0" y="0" xml:space="preserve"> selecting app</tspan></text><text class="cls-7" transform="translate(97.14 336.33)"><tspan x="0" y="0">r</tspan></text><text class="cls-32" transform="translate(100.92 336.33)"><tspan x="0" y="0">op</tspan></text><text class="cls-32" transform="translate(113.65 336.33)"><tspan x="0" y="0">r</tspan></text><text class="cls-32" transform="translate(117.7 336.33)"><tspan x="0" y="0">ia</tspan></text><text class="cls-32" transform="translate(126.14 336.33)"><tspan x="0" y="0">t</tspan></text><text class="cls-32" transform="translate(129.48 336.33)"><tspan x="0" y="0">e p</tspan></text><text class="cls-7" transform="translate(144.98 336.33)"><tspan x="0" y="0">r</tspan></text><text class="cls-32" transform="translate(148.76 336.33)"><tspan x="0" y="0">obe</tspan></text></g><rect class="cls-48" x="310.94" y="380.52" width="190.84" height="64.42" rx="9.64" ry="9.64"/><rect class="cls-55" x="310.94" y="332.27" width="190.84" height="39.33" rx="9.64" ry="9.64"/><g class="cls-14"><text class="cls-13" transform="translate(354.08 349.04)"><tspan x="0" y="0">D</tspan></text><text class="cls-25" transform="translate(362.74 349.04)"><tspan x="0" y="0">e</tspan></text><text class="cls-13" transform="translate(369.5 349.04)"><tspan x="0" y="0">vice/ </tspan></text><text class="cls-3" transform="translate(400.7 349.04)"><tspan x="0" y="0">K</tspan></text><text class="cls-13" transform="translate(408.95 349.04)"><tspan x="0" y="0">it Design</tspan></text></g><g class="cls-14"><text class="cls-20" transform="translate(354.5 364.52)"><tspan x="0" y="0">P</tspan></text><text class="cls-26" transform="translate(362.16 364.52)"><tspan x="0" y="0">r</tspan></text><text class="cls-20" transform="translate(366.48 364.52)"><tspan x="0" y="0">o</tspan></text><text class="cls-23" transform="translate(373.68 364.52)"><tspan x="0" y="0">f</tspan></text><text class="cls-20" transform="translate(377.44 364.52)"><tspan x="0" y="0">. S</tspan></text><text class="cls-20" transform="translate(391.97 364.52)"><tspan x="0" y="0">t</tspan></text><text class="cls-20" transform="translate(395.78 364.52)"><tspan x="0" y="0">ephen </tspan></text><text class="cls-27" transform="translate(434.68 364.52)"><tspan x="0" y="0">T</tspan></text><text class="cls-20" transform="translate(441.54 364.52)"><tspan x="0" y="0">sui</tspan></text></g><g class="cls-14"><text class="cls-6" transform="translate(328.64 397.39)"><tspan x="0" y="0">All mechanism was confi</tspan></text><text class="cls-12" transform="translate(457.56 397.39)"><tspan x="0" y="0">r</tspan></text><text class="cls-6" transform="translate(461.87 397.39)"><tspan x="0" y="0">med</tspan></text><text class="cls-10" transform="translate(334.39 410.59)"><tspan x="0" y="0">W</tspan></text><text class="cls-6" transform="translate(344.67 410.59)"><tspan x="0" y="0">e consu</tspan></text><text class="cls-5" transform="translate(385.87 410.59)"><tspan x="0" y="0">l</tspan></text><text class="cls-6" transform="translate(388.69 410.59)"><tspan x="0" y="0">t</tspan></text><text class="cls-6" transform="translate(392.18 410.59)"><tspan x="0" y="0">ed p</tspan></text><text class="cls-19" transform="translate(415.16 410.59)"><tspan x="0" y="0">r</tspan></text><text class="cls-6" transform="translate(419.12 410.59)"><tspan x="0" y="0">o</tspan></text><text class="cls-15" transform="translate(425.72 410.59)"><tspan x="0" y="0">f</tspan></text><text class="cls-6" transform="translate(429.47 410.59)"><tspan x="0" y="0">essor </tspan></text><text class="cls-15" transform="translate(461.32 410.59)"><tspan x="0" y="0">f</tspan></text><text class="cls-6" transform="translate(465.07 410.59)"><tspan x="0" y="0">or </tspan></text><text class="cls-6" transform="translate(337.77 423.79)"><tspan x="0" y="0">p</tspan></text><text class="cls-19" transform="translate(344.51 423.79)"><tspan x="0" y="0">r</tspan></text><text class="cls-6" transform="translate(348.47 423.79)"><tspan x="0" y="0">ocedu</tspan></text><text class="cls-19" transform="translate(381 423.79)"><tspan x="0" y="0">r</tspan></text><text class="cls-6" transform="translate(384.96 423.79)"><tspan x="0" y="0">es assemble and </tspan></text><text class="cls-6" transform="translate(370.43 436.99)"><tspan x="0" y="0">d</tspan></text><text class="cls-19" transform="translate(377.16 436.99)"><tspan x="0" y="0">e</tspan></text><text class="cls-6" transform="translate(383.36 436.99)"><tspan x="0" y="0">vice design</tspan></text></g><rect class="cls-46" x="310.94" y="170.54" width="190.84" height="58.8" rx="9.64" ry="9.64"/><rect class="cls-54" x="310.94" y="122.3" width="190.84" height="39.33" rx="9.64" ry="9.64"/><g class="cls-14"><text class="cls-13" transform="translate(331.93 138.74)"><tspan x="0" y="0">AMR Bac</tspan></text><text class="cls-25" transform="translate(383.59 138.74)"><tspan x="0" y="0">k</tspan></text><text class="cls-13" transform="translate(389.91 138.74)"><tspan x="0" y="0">g</tspan></text><text class="cls-25" transform="translate(397.27 138.74)"><tspan x="0" y="0">r</tspan></text><text class="cls-13" transform="translate(401.59 138.74)"><tspan x="0" y="0">ound Ana</tspan></text><text class="cls-13" transform="translate(455.8 138.74)"><tspan x="0" y="0">l</tspan></text><text class="cls-13" transform="translate(458.76 138.74)"><tspan x="0" y="0">ysis</tspan></text></g><g class="cls-14"><text class="cls-20" transform="translate(369.73 154.1)"><tspan x="0" y="0">D</tspan></text><text class="cls-23" transform="translate(378.39 154.1)"><tspan x="0" y="0">r</tspan></text><text class="cls-20" transform="translate(382.16 154.1)"><tspan x="0" y="0">. Helen Ma</tspan></text></g><g class="cls-14"><text class="cls-28" transform="translate(314.16 188.76)"><tspan x="0" y="0">W</tspan></text><text class="cls-32" transform="translate(323.97 188.76)"><tspan x="0" y="0">e d</tspan></text><text class="cls-32" transform="translate(339.48 188.76)"><tspan class="cls-1" x="0" y="0">e</tspan><tspan class="cls-50" x="5.71" y="0">v</tspan></text><text class="cls-32" transform="translate(351.09 188.76)"><tspan x="0" y="0">o</tspan></text><text class="cls-32" transform="translate(357.39 188.76)"><tspan x="0" y="0">l</tspan></text><text class="cls-32" transform="translate(359.98 188.76)"><tspan x="0" y="0">ving in</tspan></text><text class="cls-32" transform="translate(392.77 188.76)"><tspan x="0" y="0">t</tspan></text><text class="cls-32" transform="translate(396.1 188.76)"><tspan x="0" y="0">o the actual situation</tspan></text><text class="cls-32" transform="translate(318.9 201.36)"><tspan x="0" y="0">of AMR n</tspan></text><text class="cls-29" transform="translate(364.68 201.36)"><tspan x="0" y="0">o</tspan></text><text class="cls-32" transform="translate(370.79 201.36)"><tspan x="0" y="0">wad</tspan></text><text class="cls-18" transform="translate(391.7 201.36)"><tspan x="0" y="0">a</tspan></text><text class="cls-32" transform="translate(397.45 201.36)"><tspan x="0" y="0">ys and the obs</tspan></text><text class="cls-32" transform="translate(470.31 201.36)"><tspan x="0" y="0">t</tspan></text><text class="cls-32" transform="translate(473.8 201.36)"><tspan x="0" y="0">acle</tspan></text><text class="cls-32" transform="translate(322.76 213.96)"><tspan x="0" y="0">of add</tspan></text><text class="cls-7" transform="translate(354.64 213.96)"><tspan x="0" y="0">r</tspan></text><text class="cls-32" transform="translate(358.42 213.96)"><tspan x="0" y="0">essing it </tspan></text><text class="cls-29" transform="translate(402.7 213.96)"><tspan x="0" y="0">b</tspan></text><text class="cls-32" transform="translate(408.92 213.96)"><tspan x="0" y="0">y meeting it with</tspan></text></g><circle class="cls-44" cx="95.32" cy="174.5" r="29.66"/><circle class="cls-52" cx="95.55" cy="173.94" r="17.94"/><circle class="cls-49" cx="95.29" cy="174.43" r="26.63"/><g class="cls-14"><text class="cls-9" transform="translate(82.1 169.49)"><tspan x="0" y="0">Dec </tspan></text><text class="cls-9" transform="translate(79.36 184.57)"><tspan x="0" y="0">2023</tspan></text></g><circle class="cls-51" cx="406.22" cy="277.64" r="33.49"/><circle class="cls-52" cx="406.45" cy="277.08" r="17.94"/><circle class="cls-49" cx="406.19" cy="277.57" r="26.63"/><g class="cls-14"><text class="cls-9" transform="translate(395.53 272.27)"><tspan x="0" y="0">Jan</tspan></text><text class="cls-9" transform="translate(390.46 287.35)"><tspan x="0" y="0">20</tspan></text><text class="cls-22" transform="translate(406.85 287.35)"><tspan x="0" y="0">2</tspan></text><text class="cls-9" transform="translate(414.57 287.35)"><tspan x="0" y="0">4</tspan></text></g><circle class="cls-39" cx="96.43" cy="397.45" r="29.66"/><circle class="cls-52" cx="96.66" cy="396.89" r="17.94"/><circle class="cls-49" cx="96.39" cy="397.38" r="26.63"/><g class="cls-14"><text class="cls-30" transform="translate(85.82 392.07)"><tspan x="0" y="0">F</tspan></text><text class="cls-9" transform="translate(92.7 392.07)"><tspan x="0" y="0">eb</tspan></text><text class="cls-9" transform="translate(80.66 407.15)"><tspan x="0" y="0">20</tspan></text><text class="cls-22" transform="translate(97.05 407.15)"><tspan x="0" y="0">2</tspan></text><text class="cls-9" transform="translate(104.77 407.15)"><tspan x="0" y="0">4</tspan></text></g><circle class="cls-42" cx="406.22" cy="498.29" r="29.66"/><circle class="cls-52" cx="406.45" cy="497.73" r="17.94"/><circle class="cls-49" cx="406.19" cy="498.22" r="26.63"/><g class="cls-14"><text class="cls-9" transform="translate(394.7 492.91)"><tspan x="0" y="0">Mar</tspan></text><text class="cls-9" transform="translate(390.46 507.99)"><tspan x="0" y="0">20</tspan></text><text class="cls-22" transform="translate(406.85 507.99)"><tspan x="0" y="0">2</tspan></text><text class="cls-9" transform="translate(414.57 507.99)"><tspan x="0" y="0">4</tspan></text></g><circle class="cls-36" cx="96.43" cy="613.9" r="29.66"/><circle class="cls-52" cx="96.66" cy="613.34" r="17.94"/><circle class="cls-49" cx="96.39" cy="613.83" r="26.63"/><g class="cls-14"><text class="cls-9" transform="translate(85.75 608.52)"><tspan x="0" y="0">Apr</tspan></text><text class="cls-9" transform="translate(80.66 623.6)"><tspan x="0" y="0">20</tspan></text><text class="cls-22" transform="translate(97.05 623.6)"><tspan x="0" y="0">2</tspan></text><text class="cls-9" transform="translate(104.77 623.6)"><tspan x="0" y="0">4</tspan></text></g><circle class="cls-51" cx="406.22" cy="718.94" r="32.4"/><circle class="cls-52" cx="406.45" cy="718.37" r="17.94"/><circle class="cls-49" cx="406.19" cy="718.87" r="26.63"/><g class="cls-14"><text class="cls-9" transform="translate(397.47 713.56)"><tspan x="0" y="0">Jul</tspan></text><text class="cls-9" transform="translate(390.45 728.64)"><tspan x="0" y="0">20</tspan></text><text class="cls-22" transform="translate(406.84 728.64)"><tspan x="0" y="0">2</tspan></text><text class="cls-9" transform="translate(414.56 728.64)"><tspan x="0" y="0">4</tspan></text></g><line class="cls-34" x1="258.25" y1="2" x2="254.07" y2="773.65"/><circle class="cls-42" cx="405.03" cy="57" r="29.66"/><circle class="cls-52" cx="405.26" cy="56.43" r="17.94"/><circle class="cls-49" cx="404.99" cy="56.92" r="26.63"/><g class="cls-14"><text class="cls-9" transform="translate(392.99 51.62)"><tspan x="0" y="0">Aug</tspan></text><text class="cls-9" transform="translate(389.35 66.7)"><tspan x="0" y="0">2023</tspan></text></g><rect class="cls-46" x="310.94" y="604.36" width="190.84" height="71.3" rx="9.64" ry="9.64"/><rect class="cls-54" x="310.94" y="556.07" width="190.84" height="39.33" rx="9.64" ry="9.64"/><g class="cls-14"><text class="cls-13" transform="translate(365.93 572.83)"><tspan x="0" y="0">Doc</tspan></text><text class="cls-13" transform="translate(388.64 572.83)"><tspan x="0" y="0">t</tspan></text><text class="cls-13" transform="translate(392.45 572.83)"><tspan x="0" y="0">o</tspan></text><text class="cls-3" transform="translate(399.64 572.83)"><tspan x="0" y="0">r</tspan></text><text class="cls-4" transform="translate(404.35 572.83)"><tspan x="0" y="0">’</tspan></text><text class="cls-13" transform="translate(406.56 572.83)"><tspan x="0" y="0">s Need</tspan></text></g><g class="cls-14"><text class="cls-20" transform="translate(363.34 589.36)"><tspan x="0" y="0">D</tspan></text><text class="cls-23" transform="translate(372 589.36)"><tspan x="0" y="0">r</tspan></text><text class="cls-20" transform="translate(375.77 589.36)"><tspan x="0" y="0">. Pie</tspan></text><text class="cls-21" transform="translate(400.17 589.36)"><tspan x="0" y="0">r</tspan></text><text class="cls-26" transform="translate(404.87 589.36)"><tspan x="0" y="0">r</tspan></text><text class="cls-20" transform="translate(409.19 589.36)"><tspan x="0" y="0">e Chan</tspan></text></g><g class="cls-14"><text class="cls-10" transform="translate(326.27 622.57)"><tspan x="0" y="0">W</tspan></text><text class="cls-6" transform="translate(336.55 622.57)"><tspan x="0" y="0">et Lab was doing at that time</tspan></text><text class="cls-6" transform="translate(336.15 635.77)"><tspan x="0" y="0">Doc</tspan></text><text class="cls-6" transform="translate(356.97 635.77)"><tspan x="0" y="0">t</tspan></text><text class="cls-6" transform="translate(360.46 635.77)"><tspan x="0" y="0">o</tspan></text><text class="cls-12" transform="translate(367.06 635.77)"><tspan x="0" y="0">r</tspan></text><text class="cls-33" transform="translate(371.37 635.77)"><tspan x="0" y="0">’</tspan></text><text class="cls-6" transform="translate(373.39 635.77)"><tspan x="0" y="0">s vi</tspan></text><text class="cls-19" transform="translate(391.14 635.77)"><tspan x="0" y="0">e</tspan></text><text class="cls-6" transform="translate(397.35 635.77)"><tspan x="0" y="0">w was used </tspan></text><text class="cls-15" transform="translate(462.08 635.77)"><tspan x="0" y="0">f</tspan></text><text class="cls-6" transform="translate(465.83 635.77)"><tspan x="0" y="0">or</tspan></text><text class="cls-19" transform="translate(323.49 648.97)"><tspan x="0" y="0">r</tspan></text><text class="cls-19" transform="translate(327.45 648.97)"><tspan x="0" y="0">e</tspan></text><text class="cls-6" transform="translate(333.65 648.97)"><tspan x="0" y="0">vi</tspan></text><text class="cls-19" transform="translate(342.5 648.97)"><tspan x="0" y="0">e</tspan></text><text class="cls-6" transform="translate(348.71 648.97)"><tspan x="0" y="0">wing our e</tspan></text><text class="cls-2" transform="translate(403.46 648.97)"><tspan x="0" y="0">f</tspan></text><text class="cls-15" transform="translate(407.1 648.97)"><tspan x="0" y="0">f</tspan></text><text class="cls-6" transform="translate(410.85 648.97)"><tspan x="0" y="0">ecti</tspan></text><text class="cls-19" transform="translate(429.81 648.97)"><tspan x="0" y="0">v</tspan></text><text class="cls-6" transform="translate(435.78 648.97)"><tspan x="0" y="0">eness and</tspan></text><text class="cls-6" transform="translate(356.1 662.17)"><tspan x="0" y="0">our ma</tspan></text><text class="cls-12" transform="translate(392.25 662.17)"><tspan x="0" y="0">r</tspan></text><text class="cls-19" transform="translate(396.56 662.17)"><tspan x="0" y="0">k</tspan></text><text class="cls-6" transform="translate(402.35 662.17)"><tspan x="0" y="0">et position</tspan></text></g><rect class="cls-47" x="1.91" y="727.12" width="190.84" height="63.68" rx="9.64" ry="9.64"/><rect class="cls-51" x="1.09" y="678.88" width="190.84" height="39.33" rx="9.64" ry="9.64"/><g class="cls-14"><text class="cls-13" transform="translate(45.32 695.64)"><tspan x="0" y="0">Glo</tspan></text><text class="cls-13" transform="translate(64.37 695.64)"><tspan x="0" y="0">b</tspan></text><text class="cls-13" transform="translate(71.84 695.64)"><tspan x="0" y="0">al AMR </tspan></text><text class="cls-16" transform="translate(115.08 695.64)"><tspan x="0" y="0">T</tspan></text><text class="cls-25" transform="translate(122.14 695.64)"><tspan x="0" y="0">r</tspan></text><text class="cls-13" transform="translate(126.46 695.64)"><tspan x="0" y="0">end</tspan></text></g><g class="cls-14"><text class="cls-20" transform="translate(43.41 711.12)"><tspan x="0" y="0">D</tspan></text><text class="cls-23" transform="translate(52.07 711.12)"><tspan x="0" y="0">r</tspan></text><text class="cls-20" transform="translate(55.84 711.12)"><tspan x="0" y="0">. Edmond SK Ma</tspan></text></g><g class="cls-14"><text class="cls-32" transform="translate(29.53 742.3)"><tspan x="0" y="0">Confi</tspan></text><text class="cls-24" transform="translate(56.13 742.3)"><tspan x="0" y="0">r</tspan></text><text class="cls-32" transform="translate(60.25 742.3)"><tspan x="0" y="0">ming our objecti</tspan></text><text class="cls-7" transform="translate(140.36 742.3)"><tspan x="0" y="0">v</tspan></text><text class="cls-32" transform="translate(146.06 742.3)"><tspan x="0" y="0">e in</tspan></text><text class="cls-32" transform="translate(7.02 754.9)"><tspan x="0" y="0" xml:space="preserve"> edu</tspan></text><text class="cls-32" transform="translate(28.73 754.9)"><tspan x="0" y="0">c</tspan></text><text class="cls-32" transform="translate(34.83 754.9)"><tspan x="0" y="0">ation out</tspan></text><text class="cls-7" transform="translate(78.1 754.9)"><tspan x="0" y="0">r</tspan></text><text class="cls-32" transform="translate(81.88 754.9)"><tspan x="0" y="0">e</tspan></text><text class="cls-32" transform="translate(88.1 754.9)"><tspan x="0" y="0">ach</tspan></text><text class="cls-11" transform="translate(106.21 754.9)"><tspan x="0" y="0"> </tspan></text><text class="cls-32" transform="translate(108.43 754.9)"><tspan x="0" y="0">and unders</tspan></text><text class="cls-32" transform="translate(164.37 754.9)"><tspan x="0" y="0">t</tspan></text><text class="cls-32" transform="translate(167.86 754.9)"><tspan x="0" y="0">and</tspan></text><text class="cls-32" transform="translate(5.51 767.5)"><tspan x="0" y="0">the t</tspan></text><text class="cls-7" transform="translate(27.66 767.5)"><tspan x="0" y="0">r</tspan></text><text class="cls-32" transform="translate(31.44 767.5)"><tspan x="0" y="0">end in the globe, in </tspan></text><text class="cls-32" transform="translate(129.07 767.5)"><tspan x="0" y="0">p</tspan></text><text class="cls-32" transform="translate(135.61 767.5)"><tspan x="0" y="0">a</tspan></text><text class="cls-24" transform="translate(141.5 767.5)"><tspan x="0" y="0">r</tspan></text><text class="cls-32" transform="translate(145.62 767.5)"><tspan x="0" y="0">ticular in</tspan></text><text class="cls-32" transform="translate(11.54 780.1)"><tspan x="0" y="0">l</tspan></text><text class="cls-29" transform="translate(14.09 780.1)"><tspan x="0" y="0">o</tspan></text><text class="cls-32" transform="translate(20.19 780.1)"><tspan x="0" y="0">w- and middle-income count</tspan></text><text class="cls-32" transform="translate(163.6 780.1)"><tspan x="0" y="0">r</tspan></text><text class="cls-32" transform="translate(167.66 780.1)"><tspan x="0" y="0">ies</tspan></text></g><rect class="cls-45" x="1.5" y="508.96" width="190.84" height="56.26" rx="9.64" ry="9.64"/><g class="cls-14"><text class="cls-13" transform="translate(17.61 477)"><tspan x="0" y="0">Edu</tspan></text><text class="cls-13" transform="translate(39.27 477)"><tspan x="0" y="0">c</tspan></text><text class="cls-13" transform="translate(46.24 477)"><tspan x="0" y="0">ation </tspan></text><text class="cls-31" transform="translate(77.47 477)"><tspan x="0" y="0">W</tspan></text><text class="cls-13" transform="translate(88.68 477)"><tspan x="0" y="0">o</tspan></text><text class="cls-3" transform="translate(95.88 477)"><tspan x="0" y="0">r</tspan></text><text class="cls-13" transform="translate(100.58 477)"><tspan x="0" y="0">kShop Design</tspan></text></g><g class="cls-14"><text class="cls-10" transform="translate(19.35 526.64)"><tspan x="0" y="0">W</tspan></text><text class="cls-6" transform="translate(29.63 526.64)"><tspan x="0" y="0">e </tspan></text><text class="cls-19" transform="translate(39.14 526.64)"><tspan x="0" y="0">w</tspan></text><text class="cls-6" transform="translate(47.94 526.64)"><tspan x="0" y="0">e</tspan></text><text class="cls-19" transform="translate(54.35 526.64)"><tspan x="0" y="0">r</tspan></text><text class="cls-6" transform="translate(58.31 526.64)"><tspan x="0" y="0">e planning </tspan></text><text class="cls-6" transform="translate(115.4 526.64)"><tspan x="0" y="0">t</tspan></text><text class="cls-6" transform="translate(118.89 526.64)"><tspan x="0" y="0">o o</tspan></text><text class="cls-19" transform="translate(135.17 526.64)"><tspan x="0" y="0">r</tspan></text><text class="cls-6" transform="translate(139.13 526.64)"><tspan x="0" y="0">ganise </tspan></text><text class="cls-6" transform="translate(13.09 539.84)"><tspan x="0" y="0">mu</tspan></text><text class="cls-5" transform="translate(29.23 539.84)"><tspan x="0" y="0">l</tspan></text><text class="cls-6" transform="translate(32.06 539.84)"><tspan x="0" y="0">tiple edu</tspan></text><text class="cls-6" transform="translate(76.88 539.84)"><tspan x="0" y="0">c</tspan></text><text class="cls-6" transform="translate(83.27 539.84)"><tspan x="0" y="0">ational out</tspan></text><text class="cls-19" transform="translate(137.44 539.84)"><tspan x="0" y="0">r</tspan></text><text class="cls-6" transform="translate(141.39 539.84)"><tspan x="0" y="0">e</tspan></text><text class="cls-6" transform="translate(147.92 539.84)"><tspan x="0" y="0">aching</tspan></text><text class="cls-6" transform="translate(38.87 553.04)"><tspan x="0" y="0">in the n</tspan></text><text class="cls-19" transform="translate(77.23 553.04)"><tspan x="0" y="0">e</tspan></text><text class="cls-12" transform="translate(83.4 553.04)"><tspan x="0" y="0">x</tspan></text><text class="cls-6" transform="translate(89.62 553.04)"><tspan x="0" y="0">t </tspan></text><text class="cls-15" transform="translate(96.31 553.04)"><tspan x="0" y="0">f</tspan></text><text class="cls-19" transform="translate(100.06 553.04)"><tspan x="0" y="0">e</tspan></text><text class="cls-6" transform="translate(106.28 553.04)"><tspan x="0" y="0">w months</tspan></text></g><g class="cls-14"><text class="cls-20" transform="translate(52.2 494.17)"><tspan x="0" y="0">P</tspan></text><text class="cls-26" transform="translate(59.86 494.17)"><tspan x="0" y="0">r</tspan></text><text class="cls-20" transform="translate(64.18 494.17)"><tspan x="0" y="0">o</tspan></text><text class="cls-23" transform="translate(71.38 494.17)"><tspan x="0" y="0">f</tspan></text><text class="cls-20" transform="translate(75.14 494.17)"><tspan x="0" y="0">. Vic</tspan></text><text class="cls-20" transform="translate(100.01 494.17)"><tspan x="0" y="0">t</tspan></text><text class="cls-20" transform="translate(103.82 494.17)"><tspan x="0" y="0">or Lau</tspan></text></g><circle class="cls-53" cx="258.04" cy="58.1" r="7.4"/><line class="cls-41" x1="268.48" y1="58.48" x2="268.98" y2="58.48"/><line class="cls-35" x1="274.92" y1="58.48" x2="355.06" y2="58.48"/><line class="cls-41" x1="358.02" y1="58.48" x2="358.52" y2="58.48"/><circle class="cls-54" cx="149.34" cy="174.73" r="4.42"/><circle class="cls-54" cx="257.89" cy="174.73" r="7.4"/><line class="cls-37" x1="155.47" y1="174.56" x2="155.97" y2="174.56"/><line class="cls-38" x1="161.9" y1="174.56" x2="242.04" y2="174.56"/><line class="cls-37" x1="245.01" y1="174.56" x2="245.51" y2="174.56"/><circle class="cls-53" cx="363.91" cy="58.84" r="4.42"/><circle class="cls-51" cx="256.38" cy="281.43" r="7.4"/><line class="cls-43" x1="266.83" y1="281.8" x2="267.33" y2="281.8"/><line class="cls-40" x1="273.26" y1="281.8" x2="353.4" y2="281.8"/><line class="cls-43" x1="356.37" y1="281.8" x2="356.87" y2="281.8"/><circle class="cls-51" cx="362.25" cy="282.17" r="4.42"/><circle class="cls-55" cx="146.94" cy="395.31" r="4.42"/><circle class="cls-55" cx="255.5" cy="395.31" r="7.4"/><line class="cls-37" x1="153.07" y1="395.14" x2="153.57" y2="395.14"/><line class="cls-38" x1="159.51" y1="395.14" x2="239.64" y2="395.14"/><line class="cls-37" x1="242.61" y1="395.14" x2="243.11" y2="395.14"/><circle class="cls-53" cx="255.69" cy="501.29" r="7.4"/><line class="cls-41" x1="266.13" y1="501.66" x2="266.63" y2="501.66"/><line class="cls-35" x1="272.56" y1="501.66" x2="352.7" y2="501.66"/><line class="cls-41" x1="355.67" y1="501.66" x2="356.17" y2="501.66"/><circle class="cls-53" cx="361.55" cy="502.03" r="4.42"/><circle class="cls-54" cx="144.87" cy="612.25" r="4.42"/><circle class="cls-54" cx="253.43" cy="612.25" r="7.4"/><line class="cls-37" x1="151" y1="612.08" x2="151.5" y2="612.08"/><line class="cls-38" x1="157.44" y1="612.08" x2="237.57" y2="612.08"/><line class="cls-37" x1="240.54" y1="612.08" x2="241.04" y2="612.08"/><circle class="cls-51" cx="255.12" cy="719.83" r="7.4"/><line class="cls-43" x1="265.56" y1="720.2" x2="266.06" y2="720.2"/><line class="cls-40" x1="272" y1="720.2" x2="352.14" y2="720.2"/><line class="cls-43" x1="355.1" y1="720.2" x2="355.6" y2="720.2"/><circle class="cls-51" cx="360.99" cy="720.57" r="4.42"/></g></g></svg>