<?xml version="1.0" encoding="UTF-8"?><svg id="Layer_2" xmlns="http://www.w3.org/2000/svg" viewBox="0 0 1619.53 912.66"><defs><style>.cls-1{fill:#dda300;}.cls-1,.cls-2,.cls-3,.cls-4{stroke-width:0px;}.cls-2{fill:#750f6d;}.cls-3{fill:#221815;}.cls-4{fill:#f4dfb0;}</style></defs><g id="Layer_1-2"><g id="_2NlABQ.tif"><path class="cls-2" d="M1017.58,158.97c-.26,4.41-.46,8.83-.79,13.24-.51,6.94-1.13,13.88-1.65,20.82-.34,4.54-.53,9.1-.89,13.64-.52,6.51-1.14,13.02-1.69,19.53-.32,3.82-.62,7.64-.88,11.47-.33,4.83-.43,9.68-.98,14.48-.96,8.29-2.1,16.55-3.33,24.8-1.02,6.83-2.06,13.67-3.48,20.42-3.14,14.82-7.27,29.34-14.04,42.99-.67,1.34-1.04,2.83-1.57,4.3,2.93.39,5.55.97,8.19,1.04,9.22.26,16.8,4.52,24.14,9.51,4.58,3.11,8.02,7.18,10.69,11.96,1.95,3.49,1.3,7.53-1.34,10.58-6.43,7.42-12.77,14.94-19.17,22.38-2.61,3.03-5.22,6.06-7.99,8.93-1.39,1.45-2.08,2.96-2.08,4.94-.01,16.92,3.19,32.91,13.43,46.89,2.86,3.91,6.13,7.46,9.92,10.47.78.62,2.1.72,3.17.73.95,0,1.9-.63,2.86-.66,12.28-.36,24.58-1.06,36.85-.84,8.05.14,16.06,1.6,23.45,5.32,8.72,4.39,13.06,11.45,13.25,21.15.09,4.41.18,8.82.28,13.53,1.75-.25,3.17-.3,4.5-.66,9.46-2.53,19.13-3.89,28.83-5.03,6.5-.77,13.03-1.37,19.57-1.62,6.96-.27,13.9.61,20.59,2.5,11.38,3.22,18.35,10.76,19.34,23.83,1.26,16.59,1.05,33.16.64,49.74-.14,5.45-1.34,10.62-5.4,14.84-4.21,4.37-9.23,7.48-14.61,10.04-7.05,3.35-14.76,4.61-22.29,6.25-4.9,1.07-10.12.86-15.21.94-8.45.14-16.89.07-25.34.09-4.1-1.95-8.6-.41-12.9-1.64-4.36-1.24-9.09-1.1-13.59-1.92-5.28-.96-10.58-2.03-15.73-3.54-9.01-2.65-18.04-5.33-26.82-8.63-10.15-3.82-19.98-8.39-29.43-13.82-6.14-3.53-12.41-6.83-18.12-11.04-5.95-4.38-11.87-8.82-17.57-13.51-2.13-1.76-4.37-2.23-6.69-1.72-10.76,2.38-21.45,5.06-32.2,7.47-4.79,1.07-9.67,1.78-14.51,2.63-6.85,1.2-13.69,2.48-20.57,3.53-3.32.51-6.72.47-10.06.86-6.96.81-13.89,1.9-20.87,2.56-3.97.38-8.01-.07-12,.2-24.89,1.69-49.81,1.54-74.73,1.6-.27-.02-.54-.03-.81-.05-3.24-.24-6.48-.56-9.73-.69-5.37-.22-10.74-.32-16.11-.48-.26-.03-.52-.05-.78-.08-2.71-.17-5.42-.36-8.13-.5-5.64-.28-11.29-.37-16.91-.84-3.59-.3-7.11-1.25-10.69-1.71-3.33-.43-6.71-.56-10.05-.88-2.63-.25-5.32-.31-7.85-.97-3.4-.9-6.81-1.27-10.29-1.63-3.82-.4-7.55-1.59-11.34-2.3-3.94-.74-7.92-1.26-11.86-2-2.7-.51-5.36-1.28-8.05-1.87-4.97-1.1-9.96-2.11-14.92-3.24-1.89-.43-3.72-1.09-5.59-1.57-1.98-.51-3.88-.57-5.56.98-7.62,7.03-16.17,12.85-24.85,18.44-9.58,6.17-19.7,11.34-30.12,16.05-9.68,4.37-19.71,7.65-29.7,11.06-6.4,2.18-13.14,3.41-19.78,4.8-5.22,1.09-10.53,1.71-15.78,2.63-13.53,2.37-27.18,1.66-40.8,1.86-6.39.09-12.68-.86-18.77-2.01-9.27-1.74-18.45-4.62-26.24-10.39-4.37-3.24-8.14-7.14-9.56-12.61-.73-2.83-1.1-5.79-1.26-8.71-.2-3.56-.06-7.14.02-10.71.27-12.01.8-24.03.79-36.04,0-6.16,1.84-11.38,5.14-16.45,2.59-3.98,6.29-6.4,10.42-7.82,9.07-3.1,18.58-4.24,28.09-3.44,8.72.73,17.52,1.03,26.12,3.15,5.89,1.45,11.9,2.41,17.89,3.44,1.63.28,3.35.04,5.36.04.3-6,.55-11.68.86-17.36.37-6.76,4.05-11.6,9.44-15.14,5.74-3.77,12.38-5.08,19.05-6.17,8.82-1.44,17.69-.82,26.54-.83,1.72,0,3.44-.01,5.16-.02.28.03.57.05.85.08,4.52.53,9.03,1.22,13.57,1.47,1.35.07,3.05-.79,4.11-1.75,5.8-5.22,10.86-10.89,14.39-18.11,3.34-6.83,5.37-13.83,6.8-21.21.44-2.27.5-4.43.66-6.65.23-3.22.78-6.42.83-9.64.02-1.45-.49-3.14-1.33-4.31-1.81-2.51-4.01-4.75-6.03-7.12-3.3-3.87-6.54-7.79-9.87-11.64-2.32-2.68-4.75-5.25-7.11-7.89-2.26-2.53-4.96-4.83-6.57-7.73-1.02-1.84-.87-4.68-.44-6.92.78-3.98,3.54-7.05,6.36-9.73,7.88-7.53,16.99-12.64,28.15-13.65,3.11-.28,6.13-1.22,9.07.12,1.81-1.46.4-2.74-.08-3.91-2.4-5.88-5.33-11.58-7.3-17.6-3.03-9.26-5.7-18.66-8.02-28.12-1.38-5.65-1.75-11.53-2.65-17.3-.87-5.61-1.99-11.19-2.72-16.82-.5-3.88-.41-7.84-.8-11.75-.49-4.87-1.24-9.72-1.8-14.58-.13-1.12.13-2.29.05-3.42-.16-2.1-.43-4.19-.67-6.28-.05-.41-.26-.81-.28-1.22-.23-5.22-.37-10.45-.7-15.66-.16-2.52-.87-5.01-.99-7.52-.19-3.99-.07-8-.15-12.01-.03-1.28-.29-2.55-.44-3.82.09-.09.27-.26.26-.27-.15-.2-.33-.37-.5-.55-.2-4.6-.39-9.21-.59-13.81.09-.1.28-.24.26-.28-.11-.22-.28-.42-.42-.63-.42-17.69-.84-35.38-1.29-53.08-.04-1.55-.35-3.09-.54-4.63.11-.02.21-.04.32-.06-.12-.17-.25-.34-.37-.5.02-14.9-.07-29.79.09-44.69.17-15.59.59-31.18.91-47.31,3.64-.84,7.41-1.94,11.25-2.55,11.73-1.87,23.53-3.33,35.24-5.36,11.83-2.06,23.78-2.95,35.69-4.23,8.62-.92,17.25-1.81,25.89-2.56,8.08-.69,16.18-1.13,24.26-1.76,6.1-.47,12.19-1.06,18.28-1.6.22-.03.44-.06.65-.09,9.25-.48,18.49-1.02,27.74-1.42,5.09-.22,10.18-.3,15.27-.3,11.59-.01,23.19-.22,34.77.16,13.11.43,26.2,1.45,39.3,2.16,3.43.19,6.86.2,10.29.29.31.02.62.04.93.05,1.27.2,2.54.51,3.82.59,6.12.4,12.25.59,18.35,1.13,7.48.67,14.93,1.65,22.39,2.44,5.92.63,11.86,1.09,17.77,1.78,5.91.68,11.81,1.56,17.71,2.33,5.05.66,10.12,1.27,15.17,1.95,6.74.91,13.49,1.73,20.19,2.85,5.01.83,9.99,1.92,14.91,3.15,4.31,1.08,3.95,1.3,4.77,5.45,1.35,6.83.7,13.69.74,20.52.14,28.23.08,56.46-.05,84.7-.04,9.29-.5,18.59-.76,27.88-.04.49-.08.98-.12,1.47ZM811.19,192.72v-12.85c-1.17,0-1.96-.22-2.54.04-3.91,1.71-7.91,3.27-11.63,5.34-6.06,3.38-11.34,7.71-14.23,14.3-3.29,7.49-4.11,15.22-2.67,23.31.9,5.02,3.52,8.32,8.23,9.97,1.72.6,3.58,1.01,5.39,1.13,5.82.38,11.66.58,17.49.85v20.13c4.82-.76,9.23-1.05,13.4-2.21,8.74-2.44,15.09-7.71,17.86-16.72,2.91-9.47,3.02-18.95.74-28.58-1.57-6.61-5.12-11.43-11.47-13.8-2.74-1.03-5.78-1.62-8.7-1.69-3.95-.1-7.92.49-11.88.79ZM811.24,157.41v20.87c1.8-.8,3.06-1.42,4.36-1.93,8.93-3.51,17.82-7.16,26.83-10.44,5.45-1.98,11.17-3.24,16.68-5.07,10.79-3.58,21.31-7.81,31.12-13.64,1.34-.8,2.57-1.77,3.87-2.63,8.35-5.51,15.3-12.46,20.72-20.81,2.41-3.71,4.49-7.76,4.62-12.02-8.66,4.37-17.25,8.84-25.96,13.03-5.13,2.47-10.63,3.99-16.23,5.02-4.02.74-5.18-.29-4.99-4.46.34-7.47,4.57-12.58,10.81-15.8,6.95-3.59,14.26-6.49,21.42-9.66,7.22-3.2,13.96-7.17,19.93-12.35,3.59-3.11,4.8-7.58,6.37-11.82.06-.17-.24-.47-.39-.75-.25,0-.56-.08-.79.02-.65.28-1.29.61-1.91.95-11.32,6.15-23.12,10.95-35.87,13.25-4.4.79-6.78-1.13-5.6-5.24,1.48-5.13,3.82-9.97,8.85-12.63,6.05-3.2,12.1-6.43,18.37-9.13,6.57-2.83,12.93-5.95,18.76-10.07,1.85-1.3,3.47-3.02,4.88-4.8.84-1.06,2.1-2.4,1.04-4.1-9.07,2.94-17.97,5.85-26.89,8.7-3.64,1.16-7.31,2.35-11.28.98-.65-4.4,1.15-7.98,3.46-11.24,5.64-7.99,12.94-13.98,22.01-17.84,6.18-2.63,12.42-3.92,19.12-2.42,1.82.41,3.77.22,5.66.3-.42-1.17-.96-1.58-1.56-1.84-7.51-3.25-15.39-3.95-23.47-3.57-4.76.22-9.25,1.37-13.59,3.25-12.06,5.24-20.89,14.14-28.3,24.73-9.73,13.9-16.6,29.21-22.18,45.13-3.34,9.51-6.23,19.17-9.38,28.75-4.45,13.55-13,23.94-24.81,31.77-.59.39-1.19.8-1.83,1.1-4.63,2.18-9.28,4.33-13.92,6.49v-60.84c-6.6,1.9-12.87,4-20.19,3.95.54-2.01.79-3.51,1.35-4.89.8-1.98,1.92-3.83,2.74-5.8,1.85-4.48-.61-11.23-4.77-13.36-3.19-1.63-6.16-.74-7.38,2.56-.68,1.82-.91,3.89-.93,5.85-.1,8.02-.1,16.05-.01,24.07.03,3.25-.71,6.38-2.48,8.91-7.52,10.77-21.99,8.83-28.12,3.45-4.45-3.9-6.13-8.85-6.24-14.42-.16-8.02-.04-16.05-.04-24.07,0-1,.1-2.02-.06-3-.25-1.57-.62-3.1-2.69-3.32-2.1-.22-3.25.89-3.85,2.67-.31.92-.38,1.95-.4,2.94-.06,2.58.12,5.17-.06,7.73-.18,2.59-.76,5.17-3.48,6.4-4.75,2.15-13.25.59-16.42-3.89-.93-1.32-2.14-2.72-.8-4.66.63.17,1.16.31,1.69.47,5.76,1.68,7.31.49,7.12-5.49-.01-.43-.01-.86-.05-1.29-.29-2.95-1.68-4.78-4.61-5.96-3.96-1.6-7.76-1.3-11.64-.23-3.91,1.07-6.45,4.05-6.37,8.35.29,15.47.11,30.95.12,46.42,0,1.15-.17,2.35.1,3.43.83,3.28,1.34,6.77,5.45,7.92,3.54.98,6.85,1.33,9.94-1.62-.91-.84-1.69-1.47-2.37-2.2-4.67-5.05-3.7-13.25,1.91-17.25,3.03-2.16,6.47-3.04,10.01-3.09,2.35-.04,5.03.04,7,2.4-2.3,1.4-4.32,2.68-6.39,3.86-1.66.95-2.38,2.4-2.46,4.2-.2,4.69,2.39,6.01,6.8,7.35,2.09.64,6.06-1.96,6.31-5.12.2-2.51.67-5,1.02-7.52,5.61,2.37,8.58,8.14,7.4,15.71-1.25,8.05-7.94,8.65-14.46,9.23.37,3.41,2.87,5.06,4.85,6.97,2.73,2.64,7.02,3.21,10.35,1.49,6.69-3.48,10.8-8.65,10.59-16.58-.03-1.05.22-2.1.38-3.49,2.6.91,3.92,2.55,4.53,4.53,1.34,4.35,2.07,8.7,1.09,13.37-2.07,9.9-6.01,18.6-13.98,25.2-7.67,6.34-16.25,8.45-25.95,6.17-9.1-2.14-14.28-10.78-12.7-20.5q1.71.79,2.61,2.68c2.2,4.63,7.49,5.43,10.79,1.64,3.63-4.17,2.57-13.52-1.9-16.69-.23-.16-.45-.39-.71-.47-4.8-1.31-9.59-1.24-13.99,1.17-5.11,2.8-7.05,7.89-8.76,13.12-1.71,5.21-1.83,10.64-2.38,15.99-.52,5.08.43,10.12,1.84,15.15,2.84-.3,5.37-.77,7.91-.81,9.02-.14,17.87,1.36,26.55,3.65,4.52,1.19,8.85,3.09,12.39,6.45,1.21,1.15,1.17,2.03.81,3.11-2.09.44-3.96.59-5.66,1.22-5.32,1.99-9.18,5.87-11.85,10.68-4.59,8.27-4.9,17.08-2.2,26.05,3.06,10.16,9.68,17.65,18.24,23.5,11.29,7.7,24.12,10.79,37.55,11.14,8.98.24,17.99-.49,26.98-.79,0,4.61,0,9.21,0,13.82-12.16.02-24.32-.11-36.48.11-6.14.11-12.08,1.13-17.11,5.41-6.71,5.7-6.38,16.94,1.1,21.58,5.91,3.67,12.66,3.72,19.36,3.55.36,0,.71-.6,1.39-1.21-1.52-.44-2.63-.64-3.65-1.08-2.59-1.1-5.33-2.01-7.66-3.54-2.49-1.62-3.85-4.27-3.36-7.36.48-2.96,2.48-4.85,5.36-5.44,2.62-.54,5.33-.88,8-.9,11.01-.09,22.03-.02,33.05,0-.03.86-.08,1.72-.08,2.58,0,32.96,0,65.93,0,98.89,0,.82.17,1.64.29,2.8,3.27.21,6.37.61,9.47.57,8.86-.11,17.73-.33,26.58-.64,5.27-.19,10.56-.46,15.81-1,8.85-.9,15.95-7.08,17.78-16.41.8-4.08.48-7.94-.31-11.82-.86-4.23-2.89-8.04-5.71-11.3-1.28-1.48-2.71-3.35-5.39-2.15.4.97.75,1.74,1.04,2.53,1.09,2.95,1.72,5.81.94,9.11-1.14,4.79-4.12,7.57-8.26,9.64-4.7,2.36-9.74,3.14-14.89,3.19-8.17.09-16.34-.01-24.52-.03-3.52,0-7.03,0-11.29,0,1.26-.74,1.82-1.18,2.45-1.43,6.66-2.59,11.72-7.23,15.31-13.17,3.19-5.29,5.13-11.17,3.18-17.53-.9-2.92-2.03-5.77-3.06-8.64,3.1-.4,6.35-.65,9.54-1.26,12.73-2.43,22.49-9.19,29.41-20.18,5.31-8.44,8.15-17.78,10.54-27.32,1.07-4.26,2.07-8.56,3.55-12.69,2.07-5.77,6.02-9.84,11.93-12.03,3.85-1.43,7.59-3.2,11.26-5.07,3.96-2.02,6.35-.88,6.72,3.52.11,1.32.17,2.64.28,4.4,6.16-3.66,5.97-9.95,8.04-15.01,3.47.33,4.13,3.31,5.51,5.38,5.31-3.06,3.49-8.9,5.82-13.46,1.48.63,3.17.9,4.18,1.88,1.12,1.09,1.63,2.82,2.46,4.38,4.2-4.11,3.39-9.53,4.26-14.49,3.9.27,3.95,3.82,5.46,5.96,4.66-4.34,3.55-10.02,3.77-15.36,3.68.21,4.55,2.73,5.57,4.95.43-.17.77-.2.92-.38,2.51-3.07,3.03-6.74,2.76-10.48-.24-3.33.46-5.99,2.76-8.6,3.21-3.65,5.59-7.91,6.78-12.73.11-.43.52-.79.96-1.43,1.34,5.27-3.78,35.88-6.75,41.44q-4.14-.91-6.62-.24c1.12,3.29,2.35,6.56,3.33,9.9.5,1.71-.25,2.45-1.92,2.03-1.55-.4-2.97-.66-4.69.37,2.57,4.3,4.58,8.61,3.29,13.6-2.48-.26-4.81-.51-7.72-.82,1.14,2.88,2.35,4.98,2.75,7.23.43,2.41.1,4.96.1,7.6-2.26-.65-3.96-1.13-5.6-1.6-.26.56-.51.84-.46,1.06.17.82.38,1.64.67,2.43,1.86,5.09,1.6,10.03-.8,14.91-3.48,7.05-6.94,14.11-11.89,20.27-4.26,5.29-8.4,10.69-14.77,13.83-8.59,4.24-17.87,3.08-23.69-4.78-3.62-4.88-4.97-10.4-3.05-16.16,2.22-6.67,7.55-10.71,13.75-13.32,4.64-1.96,6.71-.56,9.39,3.17.33.46.56,1,.81,1.51,2.18,4.35-.13,8.4-5.01,8.74-1.14.08-2.3-.06-3.44.01-2.85.19-4.73,2.04-4.99,4.84-.41,4.31,1.82,6.79,6.45,7.29,9.85,1.07,18.12-6.75,18.42-16.55.26-8.52-3.62-15.48-10.7-20.24-4.62-3.11-9.94-3.91-14.97-1.06-8.39,4.75-16.14,10.42-21.02,19.03-3.27,5.78-4.08,12.02-2.36,18.58,2.05,7.81,7.32,13.27,12.84,18.69,6.99,6.86,15.24,7.35,24.24,5.79,6.65-1.16,11.8-4.82,16.72-8.94,1.77-1.48,3.31-1.89,5.43-1.31,5.24,1.44,10.22.23,14.88-2.11,3.57-1.79,6.59-4.37,9.01-8.45-2.9,0-5.27-.02-7.64,0-2.47.03-4.87-.05-6.37-2.58.29-.71.44-1.45.85-2,6.04-8.22,10.41-17.33,14.29-26.7.78-1.89,1.9-2.85,4.04-3.25,6.55-1.23,11.41-5.01,14.41-10.93,1.21-2.39,2.64-4.88,2.15-7.93-3.4,1.44-6.47,2.97-9.69,4.04-2.78.92-4.31-.57-3.65-3.33,2.36-9.78,4.9-19.52,7.16-29.33.54-2.34,1.79-3.39,3.85-3.94,3.74-1.01,6.71-3.26,9.04-6.2,3.12-3.95,5.18-8.37,4.79-13.83-4.82,1.1-8.18,5.71-13.95,3.99.41-4.28.73-8.49,1.24-12.68.7-5.78,1.86-11.52,2.19-17.31.19-3.34,1.3-5.19,4.29-6.53,7.11-3.17,12.2-12.56,10.84-21.63-.78.52-1.46.96-2.12,1.41-2.22,1.54-4.4,3.15-6.67,4.61-1.65,1.07-3.21.93-4.61-1.2.62-11.06,1.26-22.44,1.9-33.79,10.62-4.67,15.31-12.63,14.56-24.35-1.75,1.34-3.16,2.48-4.65,3.52-1.39.98-2.78,2.02-4.3,2.74-3.36,1.58-4.67.68-4.82-3.04-.26-6.28-.45-12.56-.89-18.83-.29-4.25-.92-8.47-1.47-12.7-.21-1.61.29-2.55,1.68-3.53,8.17-5.81,10.53-13.92,8.94-24.46-1.48,1.73-2.42,2.98-3.52,4.08-1.42,1.41-2.83,2.88-4.48,3.99-2.75,1.84-3.92,1.25-4.6-1.98-.23-1.11-.6-2.22-.66-3.34-.39-7.13-1.75-14.09-3.56-20.96-1.69-6.38-4.36-12.29-8.85-17.24-1.75-1.93-3.7-3.63-6.83-4.45,1.69,2.97,3.32,5.32,4.42,7.89,3.02,7.02,3.82,14.58,4.12,22.07.2,4.91-.78,9.9-1.45,14.82-.55,4.04-3.93,6.84-7.98,6.85-4.67.02-8.09-2.42-10.83-5.91-1.28-1.63-2.3-3.47-3.65-5.55-.67,1.2-1.3,1.98-1.58,2.87-1.91,5.97-.72,11.53,2.4,16.79,2.92,4.92,6.52,5.84,11.51,3.14,1.12-.61,2.45-.85,3.82-1.3.19,1,.45,1.48.32,1.8-2.41,6.07-4.73,12.17-7.39,18.13-.81,1.81-2.72,2.71-4.99,2.77-5.02.13-8.4-2.41-10.89-6.37-1.54-2.44-2.77-5.08-4.28-7.91-.96,1.07-1.86,1.69-2.23,2.54-2.8,6.33-3.09,12.87.12,18.97,2.02,3.84,4.46,6.17,10.31,4.06,1.39-.5,2.87-.73,4.73-1.2-.14,1.44.03,2.39-.34,3.03-2.91,5.08-5.78,10.18-8.93,15.1-2.6,4.06-7.77,4.94-11.55,1.93-2.98-2.38-6.09-4.87-5.99-9.4.03-1.13-.7-2.27-1.28-4-1.31,1.43-2.42,2.33-3.12,3.47-2.45,3.99-3.41,8.36-3.27,13.06.21,6.92,5.66,10.37,11.24,8.27,1.17-.44,2.36-.86,3.79.43-1.9,2.51-3.7,4.87-5.47,7.24-1.86,2.48-3.57,5.07-5.57,7.42-3.22,3.79-10.85,4.17-14.56.1-3.64-3.99-6.17-8.51-6.65-13.99-.11-1.25.12-2.65-1.75-3.3-1.96,1.24-3.53,2.99-4.69,5.17-2.93,5.49-3.68,11.39-2.94,17.44.82,6.73,5.15,9.6,12.05,8.49,1.32-.21,2.71-.03,5.02-.03-1.13,1.69-1.59,2.7-2.33,3.4-3,2.85-6.07,5.64-9.16,8.4-1.17,1.04-2.38,2.09-3.72,2.87-6.11,3.54-12.05,2.95-16.53-2.29-3.27-3.82-4.78-8.39-5.13-13.32-.2-2.82-.04-5.66-.04-9.24-1.94.94-3.35,1.48-4.61,2.25-2.32,1.42-3.74,3.6-5.17,5.89-3.51,5.61-5.15,11.55-4.94,18.22.21,6.99,5.41,10.83,10.49,10.44,2.12-.17,4.2.08,5.94,1.55-.12,2.17-1.69,2.89-3.13,3.83-5.42,3.51-8.84,8.49-9.94,14.83-.76,4.33-1.08,8.74-1.45,13.13-.84,10.09-5.36,18.08-13.27,24.36-4.65,3.69-9.84,6.29-15.28,8.45-6.63,2.63-13.51,4.32-20.59,5.19v-25.66c-4.52-.35-8.5-.57-12.44-.99-4.94-.53-9.99-.74-14.78-1.94-15.61-3.89-22.33-13.47-23.36-28.2-.6-8.54.49-17.06,1.35-25.6,1-9.89,5.99-17.12,13.38-22.96,10.74-8.5,23.2-13.8,35.91-18.55ZM811.24,72.32l-.05-.05v23.41c1.01-.37,1.54-.53,2.04-.75,5.96-2.65,11.04-6.48,15.54-11.2,10.36-10.87,16.3-23.28,13.41-38.65-2.15-11.42-8.63-19.67-19.29-24.47-3.63-1.64-7.51-1.97-11.85-2.25v8.95c-5.66-.19-10.96-.89-16.15-.4-5.43.52-9.81,4.07-14.67,7.73.18-1.57-.01-2.58.4-3.14,1.52-2.06,2.98-4.29,4.94-5.87,6.05-4.89,13.07-7.4,20.89-7.55,1.39-.03,2.77-.17,4.38-.28v-8.34c-1.75,0-3.18-.03-4.61,0-9.86.27-19.72.52-29.58.86-4.85.17-9.69.52-14.53.78-11.25.6-22.51,1.19-33.76,1.82-5.13.29-10.26.63-15.38,1.01-3.12.23-6.25.53-9.36.89-6.64.77-13.26,1.63-19.9,2.41-5.65.66-11.33,1.15-16.97,1.9-7.32.98-14.62,2.1-21.92,3.25-8.97,1.41-17.94,2.86-26.89,4.43-2.16.38-4.23,1.31-6.3,1.97,0,1.76,0,3.05,0,4.34.17,41.25-1.01,82.5.78,123.73.24,5.41.51,10.83.82,16.24.56,9.54,1.11,19.07,1.76,28.6.49,7.25,1.1,14.49,1.69,21.73.86,10.51,1.71,21.02,2.65,31.52.54,6.1.95,12.23,1.94,18.26,1.84,11.2,3.77,22.38,6.69,33.37,4.27,16.07,10.48,31.31,19.08,45.54,10.6,17.55,23.1,33.66,37.56,48.2,5.45,5.48,10.96,10.94,16.87,15.88,8.95,7.48,17.99,14.91,27.52,21.61,10.25,7.21,20.96,13.8,31.74,20.21,13.26,7.88,27.12,14.55,42.11,18.62,2.68.73,5.24.87,8.11.67v-65.99h-15.03c-.37,1.89-.67,3.56-1.04,5.21-2,9.02-7.6,13.47-15.41,15.09-1.28.26-2.23-.18-2.52-1.85.49-.21.98-.39,1.45-.62,4.97-2.44,5.88-5.71,3.03-10.4-3.85-6.32-9.12-9.61-16.78-8.49-3.67.54-5.23,1.46-5.88,5.05-1.89,10.45-.16,19.82,8.69,26.82,1.06.84,1.01,1.58-.08,2.62-11.07-2.76-18.03-10.15-22.28-20.42-1.41-3.42-2.27-7.05-1.92-10.85.12-1.35-.06-2.78-1.61-3.12-4.75-1.03-11.13,2.18-11.4,7.58-.24,4.67,1.52,8.03,5.32,10.47,1.13.72,2.27,1.33,1.44,3.28-1,0-2.15.19-3.21-.03-4.65-.99-8.19-3.71-11.3-7.24-4.85-5.51-5.95-12.05-4.61-18.83,1.37-6.96,6.32-10.95,13.17-12.43,3.32-.72,6.7-1.25,10.08-1.62,2.38-.26,3-1.45,3.2-3.65.55-5.83,2.7-10.96,6.96-15.18,5.55-5.51,12.53-7.66,19.95-8.79,1.48-.22,3.18-.26,4,1.81-1.21.82-2.4,1.57-3.52,2.4-5.98,4.42-8.54,10.53-8.53,17.77,0,3.13.94,4.1,4.22,4.76,2.36.47,4.81.46,7.18.89,5.83,1.05,11.65,1.03,17.42-.17,5.63-1.18,10.21-4.17,12.03-9.8,1.33-4.11.85-8.49-.94-12.56-2.15-4.88-5.23-9.14-8.71-13.16-1.42-1.64-2.98-2.44-5.22-2.27-4.41.34-8.83.59-13.24.66-12.72.2-25.42-.03-38.1-1.44-8.24-.92-16.33-2.32-24.07-5.31-9.36-3.62-17.63-8.71-22.98-17.64-2.88-4.81-4.9-9.88-5.73-15.75,2.85-2.8,6.81-3.66,10.51-4.98,3.84-1.36,7.88-1.49,11.86-1.18,3.87.3,7.71,1.07,11.89,1.68-.85-3.1-3.32-3.58-5.34-4.12-6.2-1.65-12.38-1.06-18.56.58-7.96,2.11-15.28,5.54-21.74,10.56-6.4,4.97-11.39,11.01-14.06,18.95-1.75,5.19-1.49,10.29-1.2,15.52-2.39.71-2.45.75-3.64-1.05-5.82-8.75-9.92-18.28-11.81-28.59-1.02-5.52-.51-11.13,2.76-16.09,3.71-5.62,8.68-9.86,14.59-12.94,15.36-8,31.92-10.33,48.94-9.19,6.28.42,12.82,1.2,18.11,5.54.3.25,1.34-.41,2.9-.94-2.24-1.61-3.69-2.99-5.41-3.84-6.24-3.08-13.05-3.95-19.86-4.35-9.57-.56-19,.85-28.72,3.23-.62-1.16-1.39-2.31-1.87-3.56-2.55-6.55-3.21-13.5-4.12-20.39-.5-3.81-.62-7.67-1.1-11.48-.98-7.83-1.3-15.67.29-23.42,1.91-9.3,6.25-17.09,14.93-21.84.73-.4,1.38-.95,1.88-1.3v-5.4c-4.71-.66-9.23-1.13-13.68-1.96-6.44-1.19-12.39-3.61-16.72-8.75-1.99-2.36-3.66-5.09-4.96-7.89-.98-2.12-2.82-2.8-4.41-2.76-2.15.06-4.44.92-6.34,2.01-.98.56-1.71,2.36-1.71,3.6,0,2.04.68,4.08,1.07,6.11-2.24.58-3.64.05-5.13-2.17-2.21-3.3-3.2-6.87-2.94-10.93.42-6.43,4.19-11.28,10.5-12.9,1.35-.34,2.68-.73,4.24-1.15,0-1.35,0-2.62,0-3.89-.02-8.74-.06-17.49-.06-26.23,0-22.79.02-45.58-.02-68.37-.01-6.74-5.93-10.19-11.78-7-2.68,1.46-3.86,3.71-3.68,6.69.17,2.81,1.51,4.84,4.19,5.9,1.14.45,2.27.93,3.92,1.61-1.3.85-2.04,1.57-2.92,1.87-8.27,2.9-17.11-2.3-18.13-11.39-.69-6.09,1.51-11.15,5.55-15.6,4.27-4.7,9.65-7.86,15.67-9.1,7.52-1.55,14.04-.84,18.89,7.23,2.43,4.05,3.02,8.51,3.02,13.13-.02,30.39-.04,60.77.02,91.16.01,4.99.4,9.97.69,14.95.69,11.93,10.48,21.22,24.21,19.91.21-2.94.42-5.84.64-8.88-1.18-.59-2.3-1.19-3.45-1.72-4.68-2.13-7.76-5.73-9.6-10.45-1.71-4.37-1.22-8.61,1-12.65.37-.67,1.29-1.04,1.98-1.56.4.57.54.68.55.81.08.99.12,1.98.19,2.97.2,2.63,1.43,3.95,3.88,4.19,3.7.36,6.95-2.22,7.41-5.98.16-1.27.07-2.58.07-3.87,0-22.65.02-45.29,0-67.94,0-4.53.65-9.01,3.76-12.39,2.47-2.68,5.5-5.01,8.66-6.86,4.83-2.83,10.28-3.88,15.84-4.68,9.52-1.37,18.75-.68,27.7,2.8,7.49,2.91,12.42,8.62,11.99,17.71-.2,4.15-.08,8.31-.02,12.47.02,1.26.17,2.56.52,3.77.74,2.58,3.26,3.95,5.83,3.33,3.14-.76,3.91-1.62,3.93-5.1.03-9.03.06-18.06-.09-27.09-.09-5.53,2.52-9.15,7.21-11.64,5.43-2.88,11.3-3.28,16.98-1.75,7.13,1.92,12.71,7.32,12.02,15.54-.13,1.56-.23,3.21.12,4.71,1.42,6.19.36,7.39,8.48,7ZM640.61,543.4c-3.38-.07-3.58-.02-4.11-2.23-.73-3.02-1.71-6.16-1.54-9.19.34-5.95,1.49-11.86,2.14-17.8.81-7.41,1.37-14.76-2.27-21.81-2.46-4.76-6.1-7.33-11.28-8.1-2.81-.42-5.59-1.07-8.38-1.64-8.36-1.71-16.65-4.22-25.1-4.95-12.09-1.05-24.3-1.09-36.45-1-6.39.05-12.76,1.37-18.7,4.03-5.94,2.66-10.39,6.63-10.99,13.54-.45,5.12-.7,10.27-.79,15.41-.2,10.6-.24,21.2-.32,31.8,0,1.23.12,2.45.17,3.39,26.34-8.66,52.92-8.21,79.75-4.59.23-4.21.28-8.05.68-11.86.88-8.23,2.56-16.37,2.41-24.7-.02-1.09.18-2.19.28-3.2,5.12-.94,5.28-.84,5.48,3.7.43,9.45-.2,18.84-1.42,28.22-.39,3.04-.06,6.18-.06,9.18,4.19.77,8,1.33,11.75,2.17,24.31,5.45,48.46,11.63,73.06,15.71,8.29,1.37,16.61,2.62,24.92,3.84,2.92.43,5.87.62,8.63.91,3.38-6.03,3.47-8.46.31-11.72-.7.89-1.41,1.7-2.02,2.58-.65.94-1.1,2.03-1.82,2.9-1.45,1.75-2.94,1.54-4.03-.45-1.13-2.06-.44-3.9.82-5.54,1.13-1.47,2.48-2.77,3.73-4.15,2.59-2.84,4.15-5.73,1.5-9.53-1.23-1.77-1.77-4.13-.36-6.09,2.71-3.76,2.21-7.68,1.41-11.86-1.04-5.38-.55-10.55,3.57-14.81.82-.84,1.35-1.96,2.01-2.95-30.75-4.91-61.22-9.78-91.91-14.68-1.06,1.87-1.14,3.65-.06,5.62,3.71,6.78,3.24,14.09,2.3,21.35-.87,6.77-2.29,13.47-3.23,20.23-.36,2.6-.06,5.3-.06,8.28ZM684.69,488.66c1.1.31,1.64.52,2.19.61,8.61,1.27,17.23,2.46,25.82,3.8,18.48,2.87,37.01,5.33,55.66,6.74,4.13.31,8.25.81,12.38,1.05,8.27.47,16.55.86,24.83,1.16,1.98.07,3.98-.41,5.97-.46,3.83-.08,7.67.13,11.5-.06,10.7-.51,21.41-1.06,32.09-1.79,6.55-.45,13.1-1.11,19.62-1.93,9.62-1.21,19.22-2.61,28.82-4.01,10.31-1.51,20.6-3.1,30.89-4.7.35-.05.63-.52.98-.83-10.36-20.56-15.07-41.89-8.57-65.66-2.18,1.71-3.41,2.66-4.63,3.63-5.69,4.55-11.27,9.25-17.1,13.62-13.98,10.48-28.77,19.71-43.97,28.32-14.12,8-29.14,13.73-44.7,18.21-3.83,1.1-7.56,1.09-11.32-.1-5.03-1.59-10.08-3.11-15.07-4.81-12.2-4.17-23.65-9.93-34.78-16.42-18.81-10.98-36.85-23.04-53.52-37.09-2.31-1.95-4.68-3.83-7.02-5.74-.26.12-.53.24-.79.36,8.18,23.53,1.41,44.93-9.3,66.12ZM1010.14,541.58c2.42-.45,4.5-.99,6.62-1.2,9.23-.92,18.45-2,27.7-2.51,5.68-.32,11.42.15,17.12.5,12.51.76,25.04,1.46,36.9,7,.06-1.32.18-2.45.16-3.57-.23-9.57-.49-19.14-.72-28.71-.13-5.3-.24-10.6-.31-15.89-.1-7.62-3.49-13.07-10.52-16.19-6.35-2.82-13.09-4.32-19.93-4.36-11.87-.07-23.75.28-35.6.89-5.23.27-10.43,1.47-15.6,2.5-8.09,1.61-16.13,3.47-24.2,5.17-3.71.79-7.44,1.47-11.34,2.23.57,4.08-.4,7.01-4.56,8.24-.72.21-1.08,1.65-2.06,3.26,2.18,0,3.43-.03,4.69,0,5.49.14,7.02,1.43,8.16,6.78.25,1.18.56,2.35.89,3.69,3.75-1.5,7-2.8,10.32-4.13-.71-3.1-1.42-6-2.03-8.93-.29-1.39-.44-2.81-.53-4.23-.12-1.87,1.02-3.01,2.67-3.38,1.57-.35,2.26.99,2.75,2.2.58,1.44,1.05,2.94,1.46,4.45.77,2.85,1.47,5.72,2.2,8.6,2.38,0,4.52-.08,6.66.03,1.25.06,2.64.15,3.69.73.84.47,1.71,1.69,1.73,2.59.02.9-.8,2.11-1.6,2.68-.86.6-2.13.63-3.23.87-1.75.38-3.52.73-5.76,1.2,1.46,10.04,2.85,19.59,4.29,29.47ZM854.26,567.39c.33-9.69.48-19.23,4.98-28.04-3.99-2.53-7.9-4.38-12.56-5.06-.26,1.81-.31,3.53-.82,5.1-.23.71-1.31,1.51-2.08,1.59-.8.09-1.87-.46-2.48-1.06-.54-.53-.65-1.53-.9-2.34-1.56-4.97.25-9.58,1.65-14.18,1.78-5.9,4.75-10.72,11.62-11.64,1.71-.23,2.44-1.45,2.21-3.1-.13-.94-.56-1.83-.87-2.79-29.82,2.73-59.38,2.7-89.2,0,2.43,5.35,2.96,10.47,1.65,15.81-1.42,5.8-2.71,11.63-4.01,17.46-.65,2.91-2.44,4.83-5.11,5.89-2.55,1.01-5.25,1.54-7.96.75-3.14-.91-6.23-2-9.34-2.99-.39-.12-.83-.07-1.52-.12-.64.93-1.33,1.93-1.76,2.56,2.68,2.41,5.25,4.45,7.48,6.81,1.55,1.64,1.88,3.77.74,5.97-.79,1.5-1.79,2.13-3.46,1.44-1.81-.75-3.65-1.42-5.43-2.11q-1.69,3.23-.19,7.83c38.9,3.68,77.99,4.06,117.4,2.22ZM984.04,534.43c-2.71,1.21-5.22,2.51-7.86,3.46-1.7.61-3.57.86-5.38.96-.64.03-1.83-.82-1.88-1.35-.07-.82.4-2.06,1.05-2.49,1.02-.67,2.42-.71,3.58-1.19,1.06-.44,2.63-.68,1.86-2.71-1.55.24-3.06.49-4.58.7-1.55.22-3.1.48-4.65.58-1.61.1-3.19-.02-3.5-2.73,1.46-.51,2.97-1.14,4.55-1.55,1.65-.43,3.4-.51,5.01-1.02.7-.22,1.19-1.12,1.77-1.71-2.17-.23-4-.08-5.71.44-2.28.68-3.87.31-4.9-2.59,2.49-.98,4.83-1.9,7.88-3.1-2.16-.95-3.56-.65-4.85-.31-2.16.56-4.21-.05-5.57-1.39-2.79-2.75-3.4-6.46-3.4-10.28,0-2.93,1.52-4.74,3.97-6.08,1.06-.58,2.24-1.37,1.54-3.21-4.26-.25-7.86-1.56-8.16-6.62-30.42,4.48-60.65,8.93-90.91,13.38v3.55c4.74-.2,9,.37,12.89,3.01,3.74,2.54,6.11,6.03,7.58,10.11,1.45,4.01,3.5,8.09,1.44,12.46-4.72.13-5.13-.2-5.57-4.15-.12-1.08-.27-2.16-.45-3.57-5.24,2.26-8.35,6.15-11.36,10.45,7.59,7.73,10.38,17.39,12.22,27.7,1.21,0,2.18.08,3.14-.01,5.24-.54,10.5-1.03,15.72-1.72,8.76-1.15,17.57-2.08,26.23-3.75,14.67-2.82,29.25-6.1,43.86-9.25,5.68-1.23,11.31-2.65,16.94-3.98.55-4.55.08-8.52-2.51-12.02ZM1191.69,570.51c0-5.34.11-10.19-.02-15.03-.26-9.14-.56-18.29-1.07-27.42-.25-4.54-1.78-8.85-5.54-11.63-2.7-2-5.84-3.64-9.03-4.69-6.7-2.2-13.75-2.71-20.73-2.36-11.67.6-23.29,1.94-34.78,4.18-5.27,1.03-10.5,2.27-15.82,3.42,0,3.92-.4,7.53.08,11.02,1.16,8.45.1,16.82-.38,25.21-.13,2.24-.96,4.43-1.43,6.66-.61,2.9-2.44,4.77-5.01,6.04-3.38,1.68-6.95,2.61-10.73,2.5-8.14-.23-16.29-.58-24.43-.81-1.55-.04-3.18.05-4.66.47-3.02.84-3.89,2.53-3.18,5.5,1.1,4.59,4.6,6.81,10.08,6.93,5.54.12,11.22-.07,16.63-1.17,10.02-2.03,19.88-4.9,29.83-7.28,7.89-1.89,15.78-3.8,23.74-5.29,6.43-1.21,12.96-2,19.48-2.61,5.39-.5,10.84-.77,16.25-.59,5.56.19,11.03,1.35,16.01,4.1,1.46.8,2.85,1.72,4.71,2.85ZM429.7,570.21c.41-.09.89-.06,1.19-.29,6.7-5.13,14.57-6.35,22.65-6.47,4.84-.07,9.73.16,14.53.78,9.03,1.17,18.1,2.31,26.99,4.23,10.84,2.34,21.47,5.61,32.25,8.23,8.86,2.16,17.75,4.48,26.99,3.87,2.63-.17,5.36-.89,7.76-1.98,2.79-1.27,4.22-5.4,3.15-8.2-.99-2.58-3.48-2.8-5.76-2.75-4.99.1-9.98.48-14.97.63-6.27.19-12.54.68-18.7-1.29-4.37-1.39-7.18-4.04-7.92-8.58-.66-4.07-1.48-8.18-1.56-12.28-.2-9.55,0-19.11.04-29.03-.94-.27-2.27-.72-3.64-1.01-3.75-.81-7.5-1.66-11.29-2.3-15.46-2.59-30.92-5.56-46.71-3.74-4.34.5-8.74,1.4-12.85,2.88-5.88,2.11-9.65,6.56-10.82,12.8-.58,3.07-.75,6.23-.93,9.36-.23,3.85-.35,7.72-.38,11.58-.06,7.82-.02,15.64-.02,23.55ZM985.44,553.22c1.3,1.15,2.01,1.84,2.78,2.45,14.14,11.29,29.41,20.76,45.84,28.34,18.21,8.41,37.22,14.33,56.93,17.86,12.22,2.19,24.57,3.78,37.04,3.6,6.57-.09,13.14-.48,19.71-.76,7.89-.34,15.55-2.02,23-4.53,6.27-2.11,12.29-4.93,16.73-10.03,3.95-4.54,4.29-6.94.99-12.8-1.45-2.57-3.98-4.05-6.68-5.15-5.82-2.36-11.99-2.6-18.1-2.56-4.97.03-9.94.91-14.9,1.4-9.95.99-19.71,2.97-29.39,5.45-15.44,3.96-30.63,8.99-46.63,10.51-4.62.44-9.08.1-13.53-1.13-5.43-1.5-8.99-4.87-10.52-10.25-2.64-9.26-2.56-18.59-.44-27.94.21-.94.36-1.9.62-3.27-21.57-.58-42.11,4.1-63.44,8.8ZM634.81,553.47c-17.32-4.91-53.77-11.05-63.44-8.56,2.64,8.61,3.22,17.36,1.49,26.19-.97,4.93-2.24,9.74-7,12.69-4.84,3-10.19,3.93-15.61,3.32-7.2-.81-14.38-2.11-21.46-3.65-17.37-3.77-34.2-9.82-51.97-11.95-10.07-1.21-20.1-2.52-30.22-1.21-5.15.67-10.05,2.19-13.47,6.62-3.26,4.22-3.11,8.8.41,12.82,3.58,4.08,8.12,6.71,13.02,8.84,10.63,4.62,21.94,6.18,33.34,6.74,14.01.69,27.97-.1,41.88-2.19,12.99-1.95,25.71-4.74,38.2-8.82,23.41-7.64,45.1-18.58,65.01-33.03,3.33-2.42,6.44-5.12,9.83-7.82ZM603.45,473.24c24.99,6.59,49.92,9.67,74.54,14.23,1.2-2.12,2.28-3.81,3.14-5.6,5.03-10.46,8.78-21.24,9.91-32.94.92-9.49-.22-18.39-4.26-27.02-1.78-3.8-4.64-6.05-8.45-7.3-8.04-2.64-15.13-.58-21.71,4.34-5,3.75-8.81,8.52-12.38,13.55-2.23,3.14-3.82,3.22-6.36.37-2.19-2.45-4.31-4.96-6.5-7.41-1.77-1.98-3.59-3.91-5.78-6.3-1.04,20.86-6.9,38.9-22.14,54.07ZM942.47,487.45c24.71-4.6,49.41-7.66,74.08-14.07-1.49-1.83-2.72-3.18-3.77-4.65-2.9-4.07-6.09-7.98-8.49-12.32-5.61-10.13-8.43-21.14-9.07-32.7-.07-1.31.42-2.85-1.18-3.76-4.59,5.17-9.13,10.27-13.38,15.06-2.76-.27-3.83-1.69-5.06-3.16-3.28-3.95-6.53-7.99-10.26-11.48-5.31-4.97-11.69-7.72-19.18-6.7-5.15.7-9.56,2.67-12.18,7.62-3.07,5.79-4.51,11.97-4.89,18.43-.45,7.63.64,15.1,2.61,22.44,2.33,8.71,5.79,16.96,10.77,25.3ZM677.02,407.59c-.46-.9-.61-1.31-.86-1.65-13.04-17.19-26.1-34.37-39.12-51.58-1.31-1.73-2.87-2.47-5.05-2.69-11.66-1.17-21.7,2.58-30.5,9.93-3.46,2.89-6.86,6.02-7.65,10.85,15.56,18.07,31.03,35.99,46.76,53.86,2.9-3.13,5.3-5.96,7.95-8.53,7.8-7.59,16.72-12.3,28.48-10.19ZM980.07,426.31c.52-.63,1.23-1.52,1.98-2.37,11.52-13.27,23.06-26.53,34.58-39.8,2.81-3.24,5.46-6.62,8.38-9.74,1.69-1.81,1.73-3.45.46-5.36-.39-.6-.75-1.22-1.2-1.77-8.72-10.51-19.66-16.13-33.56-15.73-3.76.11-6.32,1.31-8.61,4.39-10.74,14.43-21.71,28.68-32.58,43.01-2.03,2.68-3.98,5.41-6.3,8.57,10.16-1.74,18.35,1.31,25.41,7.48,3.94,3.44,7.46,7.35,11.45,11.33ZM1053.13,562.86c2.2-.47,4.13-1.15,6.09-1.24,4.25-.18,8.52-.06,12.78-.06,6.08,0,12.16,1.23,18.25.15,1.52-.27,3.1-.57,4.49-1.2,3.07-1.39,4.76-6.66.69-9.1-2.41-1.45-5.05-2.81-7.77-3.41-9.2-2.03-18.54-3.1-27.96-3.61-3.02-.16-3.64-.11-4.89,3.49-1.64,4.75-2.22,9.71-1.68,14.99ZM563.62,544.15c-3.99.38-7.84.63-11.66,1.13-6.07.79-12.16,1.57-18.18,2.7-2.46.47-4.82,1.72-7.1,2.86-2.22,1.12-3.26,2.99-2.93,5.64.34,2.72,2.04,4.21,4.37,4.65,3.18.59,6.46.84,9.7.87,7.98.05,15.94-1.42,23.93-.37,1.9.25,3.76.84,5.96,1.34-.72-6.39-.16-12.77-4.1-18.82ZM741.81,503.27c.65,1.84.86,3.24,1.57,4.31,1.99,2.98,2.03,6.17,1.4,9.47-.37,1.95-1.06,3.85-1.3,5.82-.71,5.91.62,11.34,4.44,16,.79.97,1.86,1.8,2.95,2.42,2.2,1.25,3.92.58,5.74-1.98,2.31-3.25,2.91-6.39,1.24-7.8-.93-.79-2.23-1.19-3.43-1.59-.65-.22-1.44,0-2.13-.14-1.93-.39-3.08-1.79-3.04-3.56.03-1.83,1.19-3.26,3.23-3.27,1.71-.01,3.42.58,5.56.98,1.71-1.24,2.42-3.44,2.48-6,.11-4.08.31-8.16.49-12.59-5.83-.63-12-1.29-19.22-2.07ZM979.32,519.13c.74.05,1.59.26,2.38.13,3.27-.56,5.2,1.05,6.31,3.85,1.41,3.56,2.92,7.11,3.98,10.78.97,3.34,1.39,6.84,2.06,10.29,3.39-.64,6.57-1.24,9.67-1.82.65-6.68-2.12-24.44-4.41-28.58-4.25.14-8.42,3.2-12.76.23-1.43,2.09-3.17,3.13-5.56,2.97-1.24-.08-2.4.16-1.67,2.15ZM696.13,212.42c-7.3-.54-14.12,5.71-13.99,12.9.13,7.74,5.61,12.86,13.68,13.48,7.17.55,14.53-6.56,14.5-13.4-.04-7.1-6.43-12.95-14.18-12.98ZM865.04,543.68c-1.07,2.18-2.1,3.56-2.44,5.1-1.33,5.89-2.13,11.87-2.37,18.23,5.21-.52,9.92.33,14.62-1.55-2.86-7.17-2.95-15.32-9.81-21.78ZM863.05,533.36c3.89-4.27,9.25-7.81,13.02-12.84-3.62-4.26-4.47-4.83-8.24-5.67-3.95-.89-4.68-.39-4.84,3.77-.06,1.65-.51,2.87-2.15,3.16-1.66.3-3.08-.27-3.85-1.93-.32-.68-.6-1.38-1.34-3.12-.72,1.75-1.45,2.62-1.29,3.27.68,2.68,2.73,4.4,5.14,5.3,2.14.8,3.76-.82,5.16-2.29.68-.72,1.14-1.66,1.87-2.31.89-.79,1.97-1.37,3.13-2.15.53.9,1.02,1.36,1.04,1.84.14,4.15-5.06,9.15-9.27,9.48-3.86.3-6.98-.77-9.61-3.55-.55-.58-1.24-1.04-1.98-1.66-1.09,1.73-1.99,3.12-1.45,4.23,5.2,1.59,9.76,2.98,14.67,4.47ZM737.32,529.94c-3.95-.02-4.83.51-5.25,3.05-.59,3.49,1.45,6.28,5.61,7.68,3.1-3.31,3.06-5.02-.36-10.72ZM736.94,509.85c-4.4,3.37-4.32,5.92.12,10.37,5.12-4.02,5.15-6.02-.12-10.37ZM967.67,503.72c-1.19.96-2.27,1.84-3.32,2.69,1.18,2.03,2.63,2.48,4.06,1.44,1.4-1.02,1.02-2.4-.74-4.13ZM981.96,512.09c-1.94-2.2-3.5-2.54-4.96-1.14-1,.95-1.01,2.22.68,3.4,1.23-.65,2.58-1.37,4.28-2.26ZM970.23,514.5c-.29-.58-.46-1.11-.79-1.52-1.16-1.44-2.53-.86-3.7-.1-.39.25-.65,1.37-.42,1.79.78,1.44,2.05,1.78,3.51.88.45-.28.86-.64,1.41-1.05ZM979.67,503.85c-1.57-.79-2.29-1.41-3.08-1.5-1.17-.13-2.4.41-2.24,1.77.07.62,1.27,1.57,1.91,1.54.9-.05,1.76-.88,3.41-1.81ZM965.69,490.26c-1.42.1-2.58.18-3.72.26-.09,1.63-.3,3.1,1.62,3.05,1.94-.04,1.96-1.51,2.1-3.31Z"/><path class="cls-3" d="M533.88,724.17c-1.41.94-2.59,1.33-3.14,2.15-5.32,8.01-13.39,12.42-21.7,16.4-1.53.73-3.6.35-5.59.49-.39,1.81-.73,3.59-1.16,5.35-.2.82-.48,1.64-.88,2.38-1.69,3.07-4.11,3.22-5.73.15-2.39-4.52-4.09-9.33-4.38-14.49-.17-2.98.01-3.26,2.89-3.66,2.24-.32,4.02-1.32,5.4-2.91,3.03-3.48,5.93-7.09,8.83-10.69,2.11-2.61,4.06-5.36,6.24-7.91.58-.68,1.74-.85,2.98-.91-3.69,9.95-8.71,19.12-13,29.72,5.98-2.54,9.43-6.79,13.31-10.47,3.91-3.71,7.55-7.62,10.5-12.17,2.95-4.54,6.04-8.98,7.74-14.78-1.88-.04-3.65-.19-5.41-.09-2.96.17-5.9.52-8.85.76-3.55.28-5.62-1.77-7.32-4.84,8.91-1.49,17.88-2.04,26.45-4.41-.62-4.15-1.17-7.75-1.7-11.32-2,0-3.69-.01-5.39,0-3.6.04-7.3.42-9.77-3.64,4.7-.9,9.36-1.8,14.32-2.75-.16-5.08-1.15-9.94-3.86-14.19-1.03-1.61-1.51-2.93-1-4.88,5.08-1.12,9.24,1.07,13.55,3.9-.37,4.21-.73,8.4-1.14,13.09,2.34-.36,4.2-.59,6.04-.94,2.19-.42,4.35-1.28,6.54-1.34,3.08-.08,4.32-2.01,4.59-4.37.55-4.86,2.63-9.86-.58-14.6-.13-.2.01-.57-.06-.83-.8-2.8.43-4.57,2.98-3.71,3.57,1.2,6.99,2.91,10.36,4.62,1.49.76,1.45,2.26.74,3.76-1.21,2.55-2.34,5.14-3.45,7.74-.53,1.24-.96,2.53-1.49,3.93,3.61-.16,6.78-.27,9.95-.45,1.61-.09,2.77.59,3.59,1.87.92,1.43.81,2.58-.86,3.52-1.64.91-3.27,1.4-5.17,1.52-3.76.24-7.5.77-11.07,1.16-1.34,4.48-2.52,8.39-3.85,12.84,2.95-.46,5.68-.84,8.4-1.32,4.04-.71,8.04-1.58,12.09-2.19,3.27-.49,8.53,2.36,10.12,5.24.86,1.56.08,3-2.03,3.21-3.7.36-7.41.53-11.12.75-5.69.34-11.38.59-17.07,1-1.22.09-2.41.66-4.17,1.18,7.92,7.48,16.07,14.32,25.49,19,9.22,4.58,19.19,7.67,29.62,11.73-1.98,1-3.24,2.07-4.61,2.25-7.01.88-13.98,2.56-21.12,1.79-1.56-.17-3.32-.77-4.5-1.76-3.69-3.09-7.14-6.46-10.68-9.72-1.23-1.14-2.46-2.28-4.17-3.86-.24,2.82-1.04,4.59-3.15,5.89-2.69,1.65-2.98,4.96-4.37,7.8.98.86,1.89,1.65,2.87,2.5-.55,4.02-3.72,4.59-6.7,5.18-4.98.98-9.93,2.23-15.1,1.91-.87-.05-1.79.58-2.68.9.14,1.82.34,3.6.4,5.39.2,6.3,1.94,8.61,8.11,8.98,3.76.23,7.58.13,11.45-.4,4.77-.66,9.23-1.68,13.69-3.49,3.03-1.22,6.15.31,8.8,2.05,1.38.91,1.32,2.66.06,4.11-2.47,2.84-5.89,3.97-9.38,4.61-7.54,1.39-15.16,2.42-22.85,1.61-4.5-.48-9.24-.83-12.44-4.7-3.26-3.93-5.56-8.06-4.8-13.69.89-6.62,1.07-13.38-.62-20.94ZM568.93,715.93c.24-.27.48-.53.71-.8-.76-.95-1.51-1.92-2.29-2.86-3.71-4.49-7.4-9-11.18-13.43-.44-.52-1.49-.88-2.17-.77-2.91.45-5.79,1.11-8.79,1.72q2.91,4.24-.36,8.48c-1.05,1.36-2.05,2.75-3.1,4.11-.98,1.28-1.98,2.54-3.32,4.26,1.47.17,2.16.37,2.82.3,5.15-.59,10.17-1.97,14.65-4.45,2.41-1.34,4.25-1.23,6.37-.16,2.25,1.13,4.43,2.39,6.65,3.6ZM557.15,720.28c-5.34.86-10.17,1.64-14.99,2.41v11.82c4.93-1.1,9.59-2.15,14.08-3.15.37-2.25.74-3.91.88-5.6.14-1.66.03-3.33.03-5.49ZM558.2,691.11c.98-4.39,1.92-8.59,2.95-13.17-5.21,1.09-9.72,2.03-14.36,3-.45,4.26-.55,8.24.62,12.25,3.6-.7,6.93-1.34,10.79-2.08Z"/><path class="cls-3" d="M353.99,757.08c-.51,3.07-.82,5.75-1.45,8.34-.23.93-1.09,2.1-1.94,2.4-1.36.47-1.59-1.04-2.26-1.94-3.58-4.79-3.28-10.41-2.09-15.43,1.34-5.62,1.17-11.04.76-16.55-.37-4.96-1.04-9.95-3.56-14.44-.25-.45-.18-1.07-.34-2.17,8.19.49,16.25,1.5,23.92-1.74-1.07-2-2.04-3.91-3.09-5.79-2.39-4.27.76-7.99,1.16-11.98.29-2.87.87-5.7.74-8.93-1.26,1.44-2.6,2.8-3.75,4.32-8.72,11.45-19.07,21.05-32.08,27.43-4.16,2.04-8.64,3.48-13.08,4.85-1.94.6-4.15.36-6.16.5-.31-1.99.26-2.66,1.72-3.33,9.32-4.25,17.85-9.74,25.88-16.14,6.46-5.15,11.74-11.3,17.38-17.88-2.3-.91-4.05-.53-5.99-.06-4.63,1.12-9.33,1.98-14.02,2.88-3.28.64-6.07-.48-8.51-2.64-.95-.84-1.86-1.73-3.22-3,5.45-.7,10.41-1.19,15.31-1.99,8.11-1.32,16.19-2.77,24.26-4.3,2.26-.43,2.69-1.42,2.33-3.52-.4-2.3-.83-4.6-1.08-6.91-.19-1.76-1.07-2.62-2.75-2.55-.97.04-1.96.28-2.88.6-3.42,1.18-6.95,1.27-10.49,1.16-.92-.03-1.83-.33-2.86-1.33,1.82-.71,3.68-1.32,5.45-2.13,6.09-2.79,12.1-5.75,18.22-8.44,4.25-1.87,8.33-3.79,9.92-8.71,3.95.3,6.68,2.67,9.64,4.49,1.56.96,3.08,2.08,4.35,3.39.66.69,1.04,1.96.96,2.92-.04.42-1.51.87-2.39,1.04-6.47,1.3-12.95,2.52-19.42,3.81-.36.07-.64.53-1.15.98,1.54,1.25,3.01,2.45,4.4,3.58-.91,3.33-1.75,6.39-2.61,9.55,3.6,1.27,6.69-.39,9.83-.93,6.01-1.03,11.93-2.63,17.94-3.62,3.8-.63,7.33.52,9.98,3.55,1.89,2.15,1.38,4.11-1.3,4.74-1.89.45-3.87.67-5.81.76-7.72.35-15.45.58-23.16.93-1.03.05-2.05.57-3.59,1.03,4.47,4.22,8.91,7.47,13.62,10.33,4.82,2.93,9.64,5.97,14.79,8.19,4.99,2.15,10.39,3.39,15.64,4.91,5.18,1.5,10.68,1.65,16.2,3.05-1.49,3.37-4.2,2.7-6.15,3.17-4.78,1.16-9.65,2.05-14.54,2.64-3.38.41-6.85.24-10.27.15-.73-.02-1.44-.77-2.15-1.2-9.09-5.59-16.56-13.06-23.95-20.62-2.09-2.14-4.08-4.36-6.56-6.37-.62,9.01.66,18.05-3.91,26.35,3.34,1.03,5.91-.94,8.48-1.96,2.85-1.13,5.43-1.3,8.15-.25,2.62,1.02,5.32,1.97,7.72,3.39,2.78,1.65,2.7,2.52,1.5,5.65-.8,2.09-1.56,4.36-1.57,6.55-.02,6.43.82,12.88.45,19.28-.47,8.1-.64,16.52-7.3,22.74-2.66,2.48-4.07,2.03-5.24-1.53-.91-2.78-1.93-5.52-3.05-8.23-1.62-3.93-4.23-4.99-8.67-4.42-5.33.68-10.72.92-16.3,1.38ZM354.51,723.82v10.95c2.16-.59,3.94-1.07,5.71-1.58,3.02-.87,6.01-1.87,9.06-2.61,3.09-.75,6,.1,8.52,1.88.76.54,1.34,1.89,1.29,2.83-.03.64-1.21,1.46-2.04,1.76-1.32.48-2.77.68-4.18.87-6.06.81-12.13,1.58-18.31,2.38v11.51c1.64-.22,3.03-.35,4.4-.61,3.93-.74,7.89-1.37,11.77-2.33,4.67-1.15,9.04-1.43,12.57,2.96.23-.86.43-1.27.43-1.68.02-6.56.04-13.13,0-19.69-.01-2-.1-4.01-.29-6-.36-3.92-1.26-4.73-5.11-4.59-1.57.06-3.14.26-4.68.53-6.32,1.1-12.63,2.24-19.14,3.41Z"/><path class="cls-3" d="M359.9,880.88c-.53,1.15-.63,1.86-1,2.05-.59.3-1.36.35-2.05.34-21.36,0-42.71-.02-64.07-.05-.25,0-.51-.2-1.07-.43-.07-.95-.2-2.04-.21-3.14-.02-8.46.05-16.91-.03-25.37-.06-5.9-2.61-10.25-8.26-12.58-5.31-2.18-13.26.51-15.86,5.56-.5.96-.79,2.15-.8,3.23-.05,8.46-.04,16.91.03,25.37.03,3.38.12,3.35,3.8,4.07,1.5.3,2.98.74,4.46,1.12.53,1.09.49,2.07-.92,2.16-1.85.12-3.72-.01-5.58-.01-6.14,0-12.29,0-18.59,0-.42-1.32-.58-2.38.95-2.75,1.24-.3,2.55-.53,3.82-.49,2.28.08,3.02-1.38,3.33-3.16.24-1.4.22-2.85.22-4.28-.01-17.48-.05-34.97-.07-52.45,0-.72.03-1.44-.04-2.15-.27-2.79-.85-3.33-3.81-3.41-1.82-.05-3.63,0-5.79,0,.3-1.13.33-2.04.58-2.1,5.62-1.49,11.27-2.89,17.38-4.42v34.49c2.52-.04,3.84-1.43,5.01-2.95,2.62-3.41,6.09-4.77,10.32-4.66,3.42.09,6.75.05,10.02,1.58,4.11,1.92,6.28,5.29,7.3,9.3.83,3.26.99,6.74,1.06,10.13.15,6.59.03,13.18.04,19.78,0,3.7.12,3.39,3.52,4.42,3.34,1.01,6.46.39,9.67-.15,2.03-.35,3.32-1.49,3.32-3.71,0-10.29.06-20.58-.03-30.88-.02-2.19-1.91-3.76-4.17-3.94-1.12-.09-2.24-.02-4.1-.02.53-1.23.7-2.47,1.18-2.61,4.7-1.34,9.44-2.49,14.18-3.68.37-.09.78-.01,1.52-.01,0,1.56,0,2.96,0,4.37,0,10.75,0,21.5,0,32.25,0,1.29-.04,2.59.1,3.87.38,3.57.77,3.44,4.28,4.53,3.36,1.04,6.45.21,9.64-.18,1.52-.18,2.16-.98,2.44-2.77,1.15-7.23.54-14.48.61-21.72.04-3.79-.28-7.6-.72-11.37-.09-.76-1.36-1.79-2.22-1.95-1.64-.31-3.38-.09-5.4-.09-.05-1-.09-1.78-.14-2.85,5.5-1.42,10.95-2.82,16.85-4.35v7.7c2.33-.05,3.66-1.12,4.69-2.63,5.17-7.6,18.67-5.81,23.55-1.68,2.58,2.18,4.45,5.24,4.72,8.79.4,5.39.64,10.79.79,16.19.13,4.44-.02,8.89.04,13.33.04,2.87.18,2.9,3.12,3.44,1.51.27,2.99.69,4.47,1.03.48,1.51.04,2.29-1.52,2.29-4.71,0-9.42,0-14.4,0-.11-1.35-.27-2.44-.28-3.53-.02-8.46.08-16.91-.05-25.37-.09-5.77-2.03-10.57-8.11-12.49-3.36-1.06-6.75-1.73-9.97.6-.77.55-1.85.66-2.63,1.21-2.39,1.69-4.25,3.71-4.23,6.94.05,8.46-.01,16.91.05,25.37.03,3.41.12,3.38,3.47,3.94.82.14,1.59.57,2.42.73.81.16,1.65.14,3.13.24Z"/><path class="cls-3" d="M715.78,715.51c-7.05.45-14.1.91-21.01,1.35-.54,2.38-.77,4.36-1.45,6.17-.92,2.44-3.48,2.83-4.9.7-.96-1.44-1.39-3.27-1.88-4.98-.83-2.91-1.57-5.77-1.76-8.89-.36-6.05-.96-12.16-3.19-17.89-.85-2.18-2.3-4.12-3.52-6.15-.42-.7-1.1-1.27-1.38-2.01-.27-.7-.51-1.87-.15-2.25.57-.61,1.73-1.14,2.51-.99,8,1.52,16.08,1.92,24.17,1.39,4.22-.28,8.4-1.18,13.13-1.88,0-2.25.35-4.56-.07-6.72-1.01-5.17-.83-10.58-2.97-15.53-.87-2.02-1.75-4.05-2.72-6.03-.49-1-1.51-1.93-.52-3.03.92-1.01,1.83-2.46,3.52-1.9,3.44,1.14,6.91,2.24,10.19,3.75,1.29.59,2.05,2.27,3.16,3.36,1.53,1.51.22,2.92-.05,4.35-1.24,6.55-2.07,13.13-1.57,20.08,3.72.79,7.31-.42,10.81-1,4.78-.78,9.41-2.47,14.15-3.59,1.46-.35,3.29-.6,4.56-.03,5.59,2.49,10.71,5.75,14.74,10.48.17.2.18.53.42,1.27-7.06,5.12-11.94,12.32-16.47,19.76,1.62,1.81,3.14,3.52,4.45,4.99-.77,2.82-2.63,2.62-4.32,2.71-5.28.27-10.56.45-15.83.77-4.22.25-8.44.65-12.66.99-.22.26-.44.52-.66.79.23,11.29.47,22.57.68,33.86.14,7.54.02,15.07-1.71,22.47-.44,1.89-.64,4.45-3.02,4.56-2.75.13-2.29-2.85-2.8-4.48-3-9.63-1.98-19.58-1.89-29.43.08-8.71.43-17.41.65-26.12-.21-.3-.42-.61-.63-.91ZM724.67,708.86c6.74-.23,13.06-1.06,19.28-2.64,2.47-.63,4.09-2.19,4.67-4.54,1.19-4.82,2.46-9.65,3.1-14.55.51-3.91-.88-5.11-5.02-4.99-7.39.21-14.69,1.26-22.03,2.72v24ZM716.31,685.83c-8.07,1.12-15.6,2.16-23.3,3.23.41,4.18.87,7.85,1.1,11.53.23,3.62.23,7.26.33,11.1,7.67-.79,14.89-.8,21.86-2.25v-23.61Z"/><path class="cls-3" d="M1196.97,721.14c-1.72-3.05-1.51-6.16-.09-9.27,1.32-2.89,3.33-5.45,3.57-8.83.16-2.26.83-4.48,1.34-7.05,3.16.45,4.53,3.4,6.8,6.02,4.06-.89,8.39-1.84,13.09-2.87-.3-2.37-.39-4.7-.93-6.93-1.29-5.3-2.6-10.6-4.3-15.78-.99-3.01-2.62-5.84-4.21-8.6-.66-1.15-2.42-1.76-1.53-3.53.84-1.67,2.51-1.2,3.82-1.14,3.29.15,5.41-1.56,6.65-4.23.67-1.44.46-3.28.64-4.94,4.6-2.37,8.71-1.03,11.88,4.15-3.08,3.21-7.58,4.4-11.32,7.39.33,1.81.71,3.83,1.05,5.73,2.13,1.25,3.67-.2,5.34-.74,3.96-1.26,5.43-.51,6.63,3.8-1.52.81-3.07,1.78-4.73,2.5-1.68.73-3.46,1.23-5.35,1.88.39,2.14.74,4.04,1.17,6.37,1.87-.58,3.43-1.18,5.04-1.53,1.51-.32,3.15-.71,4.59-.41,1.01.21,2.16,1.41,2.5,2.42.18.52-1.13,2.03-2.02,2.33-2.55.85-5.24,1.31-7.87,1.93-.26.06-.51.17-1.3.43.38,2.47.78,5.04,1.22,7.88,14.06-1.6,27.77-3.17,41.54-4.74.46-3.05.86-5.67,1.26-8.35q-11.2.4-12.95-4.48c4.54-.47,9.01-.93,13.86-1.43.47-2,.97-4.12,1.53-6.51-5.34-.52-11.12,1.88-14.64-3.45-1.22,1.76-2.32,3.35-3.53,5.11,1.48,2.91-.72,5.21-2.49,7.76,2.36,3.23,6.13,6,3.87,10.91-3.78,0-5.12-3.41-7.97-5.39-4.47,3.14-8.27,8.06-15.54,8.4,3.83-4.56,7.1-8.44,10.7-12.73-2.28-1.99-4.48-3.92-6.75-5.9,3.47-1.53,6.7-.56,10.06,1.27.52-1.67.69-3.3,1.5-4.49.68-1,2.11-1.5,3.3-2.29-1.09-1.26-2.38-2.77-3.73-4.34-3.57,3.23-7.21,6.13-12.68,6.68,1.56-4.66,5.96-7.05,7.38-11.34-2.39-2.62-6.27-3.61-7.63-7.14,4.24-1.5,7.39,1.43,11.05,2.67,1.83-3.09,2.84-6.19,2.61-10.11,1.73.38,3.08.61,4.38.99,5.23,1.52,6.04,4.16,2.67,8.6-.43.57-.94,1.08-1.36,1.65-1.01,1.4-1.3,2.68.08,4.17,1.22,1.31,2.11,2.94,3.28,4.61,4.63-.51,9.55-1,14.46-1.6,1.8-.22,3.02-2.99,2.4-5.28-.14-.52-.45-.99-.87-1.88-1.79.21-3.73.38-5.65.67-3.51.53-6.65.03-9.28-3.04.54-.6,1.05-1.67,1.59-1.69,4.81-.16,9.1-2.12,13.51-3.68.84-.3,1.98-.58,2.69-.25,4.23,1.98,8.38,4.12,11.67,8.35-5.4,2.96-6.44,8.28-7.64,13.47-1.33,5.77-2.55,11.57-3.78,17.36-.14.66-.02,1.38-.02,2.43,4.75.19,9.12-.83,13.44-1.94,3.3-.85,6.21-1.02,8.71,1.97,2.25,2.69,4.85,5.08,7.25,7.56-.69,2.13-2.06,2.61-3.71,2.77-1.12.11-2.22.4-3.34.45-4.69.18-9.05,1.8-13.53,2.91-.51.13-1.09-.05-1.94-.11.46-4.01,4.53-5.1,5.95-8.48-.82-.2-1.69-.62-2.53-.57-6.39.4-12.78.87-19.17,1.38-3.25.26-6.48.67-9.73.98-6.21.6-12.43,1.06-18.62,1.82-5.02.61-9.99,1.6-14.99,2.36-4.16.63-8.34,1.17-12.5,1.76-2.87.41-3.56.97-4.11,3.92-.67,3.59-2.35,6.52-4.87,9.17-1.98,2.08-4.04,3.05-6.89,2.05Z"/><path class="cls-3" d="M1060.12,694.09c0-7.06.41-13.63-.11-20.12-.56-6.99-1.42-14.07-6.68-19.61-1.15-1.21-.03-3.12,1.95-3.18,1.95-.05,3.96.21,5.86.68,2.57.65,5.16,1.41,7.56,2.52,4.15,1.92,4.95,3.89,3.81,8.18-.43,1.62-1.07,3.2-1.47,4.83-2,8.08-1.76,16.3-1.76,24.68,3.89,1.03,7.39-.38,10.83-1.26,4.96-1.27,9.81-3,14.68-4.63,6.3-2.1,11.73.18,16.76,3.54,2.62,1.75,2,4.11-.98,5.24-.64.24-1.28.61-1.95.67-3.94.36-7.9.55-11.84.98-6.73.74-13.44,1.63-20.17,2.43-2.63.31-5.26.57-7.82.84-.85,5,.16,8.87,2.8,12.84,5.45,8.2,11.37,15.96,18.64,22.58,7.62,6.94,16.37,11.84,26.63,13.91,5.8,1.17,11.51,2.78,17.25,4.21.49.12.94.4,1.92.83-1.25.71-2,1.46-2.82,1.56-8.28,1.02-16.57,1.93-24.86,2.86-.57.06-1.15.03-1.72.11-7.12,1.04-11.7-2.76-15.65-8-1.94-2.58-4.33-4.83-6.23-7.44-3.77-5.17-7.39-10.46-10.98-15.76-2.32-3.43-4.49-6.96-7.2-11.19-1.56,3.54-2.83,6.41-4.1,9.29-4.39,9.97-11.21,17.77-20.44,23.63-4.37,2.78-8.96,4.82-13.89,6.15-2.13.57-4.39.7-6.6.83-.42.02-.9-.9-1.58-1.64,23.37-9.54,36.95-26.15,39.32-51.67-2.44-.24-4.37-.32-6.54.11-5.93,1.15-11.85,2.56-18.03,2.18-4.39-.27-7.76-1.82-9.93-5.76,11.66-2.15,23.55-2.83,35.37-5.43Z"/><path class="cls-3" d="M900.26,688.06c2.49,1.83,4.37,3.09,6.11,4.53,1.02.85,1.69,1.98.65,3.36-4.38,5.84-4.62,13.18-7.13,19.7-1.25,3.25-2.16,6.64-3.15,9.72,16.49,17.42,37.52,24.46,60.69,26.28-.05,1.84-.73,2.32-2.1,2.53-5.39.83-10.77,1.65-16.06,3.13-3.62,1.01-7.45,1.27-11.16,1.97-3.98.75-6.88-1.66-9.83-3.49-3.4-2.11-6.64-4.58-9.57-7.3-5.63-5.23-11-10.76-16.75-16.43-.21.13-.92.5-1.56.97-4.42,3.28-8.73,6.72-13.29,9.79-1.65,1.11-3.89,1.3-5.84,2-9.15,3.28-18.54,5.01-28.27,4.19-1.5-.13-2.91-1.18-4.37-1.8.03-.33.06-.66.09-.99,3.36-.66,6.72-1.29,10.07-1.99,10.63-2.24,20.74-5.8,29.58-12.27,2.74-2,5.05-4.59,7.86-7.2-5.74-7.14-11.68-13.76-19.46-18.51-1.31-.8-2.58-1.69-3.94-2.39-1.18-.6-1.68-1.52-1.55-2.73.16-1.4,1.2-1.65,2.45-1.84,5.35-.82,9.92.67,13.53,4.65,3.43,3.78,6.64,7.77,9.96,11.65.36.42.83.73,1.5,1.29,2.12-2.98,2.37-6.46,3.36-9.6.95-3,1.4-6.2,1.75-9.35.26-2.35.46-4.83-1.51-7.38-2.83.32-6.19.15-9.13,1.17-5.25,1.82-10.74,2.03-16.09,3.05-3.03.58-6.31.3-9.42-.1-3.84-.5-6.7-2.68-8.2-6.39.28-.05.55-.13.83-.13,11.79.07,23.41-1.05,35.04-3.31,7.59-1.48,14.94-3.42,22.18-5.99,3.23-1.15,6.29-2.78,9.54-3.87,5.54-1.87,11.11-2.22,16.45.79.73.41,1.5.82,2.1,1.38,1.6,1.51,1.74,2.97.18,4.42-.99.92-2.32,1.84-3.6,2.03-5.29.78-10.64,1.19-15.94,1.92-5.12.7-10.21,1.61-15.99,2.54Z"/><path class="cls-3" d="M55.89,883.18v-2.16c1.33-.33,2.66-.71,4.02-.98,3.63-.71,4.49-1.59,4.56-5.2.08-4.15.04-8.31.04-12.47,0-14.19,0-28.37,0-42.56,0-4.32-.05-4.35-5.13-5.34v13.2c-2,.75-3.35,1.01-3.6-1.4-.22-2.12-.63-4.22-.75-6.34-.15-2.71-.81-3.62-3.47-3.66-5.29-.07-10.58-.02-16.33-.02-.24,3.09-.65,6.02-.66,8.95-.07,15.33-.06,30.66,0,45.99.01,2.41.02,4.97.8,7.19,1.04,2.97,4.5.6,6.46,2.17.63.51,1.85.3,2.73.41.32,2.59-1.33,2.31-2.76,2.31-6.74-.02-13.47-.05-20.21-.08-2.26,0-4.52,0-7.37,0,.61-1.19.78-2.15,1.29-2.4.99-.48,2.16-.64,3.28-.8,4.7-.69,5.68-1.67,6.12-6.27.03-.28,0-.57,0-.86-.03-17.77-.05-35.53-.09-53.3,0-.97-.1-1.93-.17-3.29-5.96,0-11.65-.1-17.34.05-2.28.06-2.97,1.18-3.18,3.72-.22,2.64-.5,5.28-.85,8.93-1.36-1.08-2.47-1.53-2.51-2.06-.36-4.95-.53-9.91-.78-15.26,2.89,0,5.57,0,8.25,0,15.76,0,31.53.19,47.29-.08,4.3-.07,8.58-1.5,12.87-2.33,1.35-.26,2.68-.63,4.6-1.09v35.33c3.05-2.34,5.59-4.06,7.83-6.08,1.65-1.49,3.29-2.44,5.57-2.31,2.22.12,4.46-.02,6.69,0,5.26.08,10.93,3.8,12.44,9.84.65,2.59.97,5.32,1.02,8,.13,7.31.02,14.61.07,21.92.01,1.53.29,3.05.45,4.53,2.63.57,4.93,1.07,7.18,1.56v2.12h-16.04c-.06-1.27-.15-2.37-.15-3.48,0-7.59.08-15.19-.04-22.78-.04-2.78-.24-5.64-.95-8.32-1.09-4.11-4.36-6.24-8.25-7.36-4.65-1.33-11,1.14-13.94,5.13-1.25,1.69-1.82,3.46-1.8,5.55.05,7.59-.02,15.19.05,22.78.02,1.66.44,3.32.67,4.95,2.74.5,5.2.94,8.43,1.53-.86.99-1.32,2-1.91,2.08-1.54.22-3.14.01-4.71.01-6.43,0-12.86,0-19.72,0Z"/><path class="cls-3" d="M1136.5,847.44c0,5.35-.09,10.47.03,15.6.1,4.57.52,9.13.62,13.69.05,2.46,1.19,3.16,3.47,3.23,1.94.06,3.86.61,5.95.97v1.97c-.27.13-.52.36-.77.36-8.74.03-17.48.04-26.23.03-1.36,0-3.1.4-2.76-2.3,2.9-.61,5.87-1.23,9.4-1.97.27-3.85.74-7.74.77-11.63.09-14.62.04-29.23.04-43.85,0-.43.1-.88,0-1.29-.44-2.02-.52-4.27-1.51-5.99-1.21-2.1-3.68-.53-5.56-.88-.83-.16-1.71-.03-2.87-.03-.13-1.13-.24-2.16-.39-3.46h29.91v2.31c-.44.08-.98.29-1.5.27-8.03-.32-8.16,1.09-8.45,8.2-.26,6.55-.06,13.11-.06,19.93,1.05.09,1.87.23,2.68.23,11.76.01,23.51.02,35.27,0,3.89,0,3.99-.13,4.01-4.18.02-4.3.09-8.6-.02-12.9-.06-2.64-.14-5.35-.77-7.89-.25-1.02-1.86-2.04-3.06-2.42-1.3-.42-2.84-.02-4.27-.11-2.29-.14-2.39-.35-1.83-3.5,2.05,0,4.15.01,6.25,0,6.88-.04,13.76-.08,20.64-.15,1.63-.02,3.27-.14,2.62,2.33-2.18.42-4.24.74-6.27,1.22-3.06.73-3.5,1.24-3.78,4.02-.09.85-.02,1.72-.02,2.58,0,17.2-.01,34.39.02,51.59,0,1.39.25,2.79.55,4.15.35,1.56,1.34,2.28,3.06,2.38,2.2.12,4.39.63,6.43.94.57,2.43-.83,2.39-2.17,2.39-5.73-.03-11.47-.08-17.2-.1-3.58-.02-7.15,0-10.91,0,.56-2.64,2.14-3.41,4.49-3.3,1.53.08,3.22.42,4.33-1.12.47-.64,1.06-1.39,1.09-2.12.33-6.51.59-13.03.79-19.55.1-3.13.02-6.26.02-9.66h-42.07Z"/><path class="cls-3" d="M1404.83,845.39c1.1-.85,2.31-1.59,3.28-2.56,8.61-8.6,17.2-17.22,25.73-25.9,1.41-1.43,2.47-3.21,3.88-5.08h15.88v2.39c-1.77.16-3.6.19-5.37.5-4.09.73-6.95,3.53-9.86,6.18-7.37,6.71-14.72,13.44-22.09,20.15-.62.56-1.36,1-2.25,1.64.32.71.46,1.62,1,2.13,3.17,3.05,6.46,5.99,9.66,9.02,1.98,1.87,3.84,3.86,5.8,5.74,5.99,5.72,11.92,11.5,18.06,17.05,1.84,1.66,4.24,2.76,6.51,3.87,1.09.53,1.69.95,1.08,2.65-4.77,0-9.72.07-14.67-.07-.82-.02-1.74-.84-2.41-1.5-5.27-5.25-10.4-10.64-15.75-15.8-5.91-5.7-12.01-11.2-18.24-16.98-.33.56-.93,1.11-.92,1.65.15,8.72.3,17.44.65,26.15.12,2.97.39,2.91,3.29,3.28,2.06.27,4.11.7,6.17,1.05v2.33h-29.72c-.05-.33-.17-1.15-.34-2.25,1.69-.39,3.31-.78,4.94-1.14,1.45-.32,2.91-.61,4.24-.89,2.12-9.59,1.01-19.01,1.18-28.36.17-9.45.09-18.91,0-28.36-.02-1.79-.33-3.66-.96-5.32-.29-.77-1.61-1.38-2.58-1.63-1.88-.47-3.88-.52-5.76-1.01-.51-.13-.79-1.19-1.6-2.51,3.9,0,7.12,0,10.33,0,3.3,0,6.59,0,9.89,0,3.29,0,6.58,0,10.13,0,.11.67.24,1.43.36,2.11-.45.25-.68.48-.93.5-.86.06-1.72.02-2.58.06-5.15.19-6.38,1.04-6.55,6.04-.28,8.01-.11,16.03-.13,24.05.21.27.43.53.64.8Z"/><path class="cls-3" d="M972.63,835.97h19.97c.19,1.24.39,2.35-1.25,2.52-3.66.37-5.77,2.65-7.14,5.74-3.82,8.61-7.56,17.26-11.36,25.88-4.82,10.94-9.61,21.9-14.54,32.79-1.87,4.13-4.96,7.22-9.27,8.89-3.16,1.23-6.29,1.21-9.7-.65.77-2.68,1.53-5.31,2.29-7.96,1.77.6,3.29,1.3,4.89,1.63,4.51.92,7.36-1.7,9.26-5.18,2.11-3.89,3.54-8.15,5.5-12.12,1-2.03-.11-3.64-.71-5.14-4.63-11.6-9.47-23.11-14.23-34.65-.32-.77-.56-1.56-.84-2.34-1.13-3.13-2.63-5.91-6.54-6.8-.45,1.36-.92,2.77-1.49,4.49h-11.7c-.08,1.27-.19,2.23-.19,3.18,0,8.74-.02,17.47.02,26.21.03,4.96,2.39,6.54,7.21,5.09,1.38-.41,2.94-2.4,4.53.37-1.62,1.62-3.19,3.49-5.04,5-5.1,4.14-14.06.64-15.08-5.84-.24-1.55-.22-3.14-.23-4.71-.02-8.16-.01-16.33-.01-24.49,0-1.26,0-2.52,0-4.08h-8.78c.48-1.1.64-1.85,1.09-2.35.32-.36,1.07-.29,1.55-.55,2.01-1.12,4-2.3,5.99-3.45-.1-3.1-.16-6.2-.31-9.29-.08-1.69-.3-3.36-.46-5.09,1.65-.77,3.12-1.45,4.6-2.14,1.37-.63,2.74-1.26,4.64-2.14.36.92,1.06,1.86,1.02,2.76-.27,5.5-.71,11-1.11,16.79h11.93c.39-.89.71-1.63.99-2.27h23.37v2.46c-1.32,0-2.58-.07-3.83.01-3,.21-4.16,1.72-3.28,4.52.88,2.82,1.96,5.58,3.08,8.32,2.76,6.77,5.59,13.52,8.4,20.27.21.51.49.99.92,1.84.53-.65,1.04-1.07,1.26-1.61,3.79-9.24,7.55-18.5,11.31-27.75,1.32-3.25,1.19-3.54-2.25-4.71-1.05-.36-2.21-.5-3.15-1.04-.53-.31-.71-1.23-1.32-2.39Z"/><path class="cls-3" d="M1250.32,722.64c2.11-3.42,5.32-6.12,6.43-10.18-2.82-.83-5.37-.29-7.99.6-4.47,1.53-8.98,2.99-13.56,4.13-5.02,1.25-9.88-1.16-12.29-5.58,3.91-.34,7.93-.33,11.8-1.11,5.73-1.15,11.46-2.55,17-4.42,5.73-1.94,10.67-.74,15.48,2.32.59.38,1.11.87,1.69,1.29,2.42,1.75,2.5,3.58,0,5.32-1.71,1.2-3.75,1.94-5.44,3.15-3.41,2.46-6.69,5.1-10.81,8.28,6.39.84,11.36-.78,16.41-1.63,3.5-.59,7.02-1.28,10.56-1.44,4.41-.2,8.32,1.45,11.51,4.56,2.21,2.15,2.18,2.18.86,5.21-6.19-.12-12.31-.29-18.43-.35-5.99-.06-11.98-.01-18.29-.01,0,2.42-.3,4.43.05,6.31,1.33,7.1.92,14.02-.87,21.04-1.65,6.49-5.14,11.12-11.46,13.84-2.32-2.51-4.56-5.23-7.11-7.61-2.37-2.22-5.06-4.1-7.61-6.13.15-.34.31-.69.46-1.03,3.28.54,6.59.97,9.84,1.64,4.96,1.02,8.32-1.11,8.94-6.14.48-3.91.76-7.86.79-11.8.02-2.62-.58-5.24-.92-8.06-4.56-1.21-9.16.06-13.66.9-6.86,1.28-13.62,3.14-20.44,4.66-4.65,1.03-10.39-1.57-13.03-5.78-.19-.3.02-.84.06-1.69,5.66-.59,11.37-1.18,17.08-1.8,4.51-.49,9.01-1.05,13.52-1.54,3.53-.39,7.07-.7,10.59-1.09,1.06-.12,2.1-.39,3.96-.74-1.99-2.08-3.41-3.57-5.07-5.31,3.38-3.96,6.63-.18,9.94.21Z"/><path class="cls-3" d="M635.6,842.87c2.38-2.16,4.74-4.34,7.15-6.48.29-.26.82-.23,1.2-.42,6.25-3.19,17.5-.64,21.1,5.14,1.94,3.11,2.75,6.75,2.72,10.52-.05,6.73,0,13.46,0,20.19,0,1-.05,2.01.01,3.01.32,4.76,2.25,6.09,7.11,5.2,1.66-.3,3.41-.13,5.12-.12,3.17.01,4.54-1.2,4.79-4.42.1-1.28.02-2.58.02-3.87,0-7.73.02-15.47.02-23.2,0-.72.06-1.44-.03-2.15-.4-3.31-1.8-4.61-5.19-4.89-.82-.07-1.65-.08-3.24-.15.67-1.17.9-2.18,1.5-2.48,1.08-.54,2.38-.66,3.58-.96,2.7-.67,5.4-1.35,8.1-2.03,1.05-.26,2.09-.55,3.55-.94.1,1.7.23,2.94.23,4.18.02,11.89-.01,23.77.04,35.66,0,1.64.38,3.27.57,4.8,2.91.57,5.36,1.05,7.7,1.5.5,1.38.28,2.25-1.1,2.28-1.86.05-3.72-.06-5.58-.06-10.88,0-21.77,0-32.65,0-.82,0-1.65-.12-2.75-.21,0-3.59,0-7,0-10.4,0-6.01.06-12.03-.03-18.04-.05-3.42-.83-6.76-3.04-9.42-4.77-5.72-12.81-5.08-18.11-1.17-2.7,1.99-4.14,4.58-4.07,7.99.17,8.29.35,16.57.42,24.86.02,2.18.81,3.08,3,3.19,1.63.08,3.23.65,4.86,1.01-.05.79-.08,1.34-.12,2.09h-25.57c0-1.01-.74-2.13,1.12-2.41,1.36-.21,2.71-.52,4.08-.72,2.51-.37,3.47-1.18,3.85-3.61.18-1.12.21-2.28.21-3.42.02-8.02-.03-16.04.03-24.06.02-2.48-.25-4.8-2.28-6.98h-6.07v-2.8c5.25-1.37,10.54-2.76,16.13-4.22.16,2.88.3,5.41.44,7.94.17.25.35.51.52.76l.66-.7Z"/><path class="cls-3" d="M1576.9,884.04c-1.45-.73-2.04-.99-2.6-1.31-4.4-2.5-4.71-7.16-.68-10.44,1.92-1.56,3.86-3.1,6.03-4.85-4.35-1.56-8.03-3.44-10.05-7.64-2.27-4.71-1.34-12.92,1.98-17.08,3.52-4.41,8.36-6.48,13.58-7.39,4.39-.76,8.98-.96,13.35.67.13.05.32,0,.42.07,4.59,3.57,9.96,2.4,15.12,2.52,1.63.04,3.27,0,5.49,0-1.03,1.56-1.73,2.42-2.2,3.39-.66,1.34-1.66,1.8-3.1,1.76-2.27-.07-4.54-.02-6.67-.02-.24.51-.5.78-.44.97,2.77,10.03-2.43,16.43-10.7,20.34-2.71,1.28-5.53,2.13-8.65,1.95-3.16-.18-5.88,1.18-7.39,3.94-1.76,3.22-1.36,5.23,2.71,6.26,1.22.31,2.56.15,3.85.15,5.3.01,10.6-.03,15.9,0,8.06.06,13.13,4.38,13.46,12.26.18,4.21-1.24,8.46-3.99,11.8-5.47,6.65-12.54,10.56-21.26,11.11-6.81.43-13.31-.41-19.11-4.44-3.84-2.66-5.94-6.19-6.07-10.85-.04-1.4-.21-2.9.19-4.19.79-2.54,2.13-4.73,4.87-5.83,1.85-.74,3.54-1.86,5.99-3.18ZM1588.75,909.66c.04-.16.08-.32.12-.48,1.14,0,2.31.14,3.43-.02,6.71-.94,12.51-3.56,15.02-10.3,2.87-7.7.18-13.39-8.02-13.96-3.55-.25-7.12-.62-10.67-.48-2.93.11-6.08.34-8.7,1.5-4.42,1.95-6.56,5.98-6.29,10.76.27,4.96,2.42,9.15,7.36,11.07,2.46.96,5.16,1.29,7.76,1.91ZM1576.51,850.41c.69,2.58,1.09,5.29,2.14,7.72,1.75,4.07,6.46,6.54,10.84,6.14,4.61-.42,8.67-3.58,9.56-7.93.97-4.75.43-9.44-2.24-13.61-4.11-6.41-13.48-6.69-17.8-.58-1.71,2.42-2.19,5.22-2.49,8.26Z"/><path class="cls-3" d="M1322.07,884.1c-1.11-.58-1.66-.85-2.2-1.14-4.49-2.44-4.99-7.89-.97-11.08,1.93-1.54,3.97-2.95,6.11-4.52-3.34-1.01-6.05-2.3-8.27-4.81-5.75-6.49-4.45-14.02.06-19.65,4.04-5.05,9.56-7.52,16.03-7.78,1.8-.07,3.61-.12,5.41,0,5.55.39,6.39.74,10.54,3.8h15.21c-.85,1.73-1.51,3.06-2.31,4.69h-9.18c-.04.98-.18,1.65-.08,2.29,1.28,8.24-1.38,13.71-8.62,17.87-3.63,2.08-7.4,3.65-11.68,3.16-3.72-.43-5.31,2.43-7.05,4.69-1.35,1.76-.17,4.31,2.07,5.1,1.3.46,2.77.59,4.16.61,5.44.06,10.89-.02,16.33.03,11.76.1,15.21,8.71,12.72,17.94-2.23,8.26-8.62,12.65-16.22,15.38-6.28,2.26-12.76,2.6-19.28.94-5.58-1.43-10.71-3.91-12.75-9.59-2.37-6.57-1.57-12.46,4.94-15.27,1.57-.68,3.03-1.59,5.04-2.67ZM1336.92,884.18c-3.26.26-6.41.33-9.49.82-1.46.23-2.95,1.06-4.15,1.97-7.49,5.69-5.26,17.72,3.18,21.04,4.41,1.74,9.04,1.67,13.51.72,5.7-1.21,10.37-4.34,12.46-10.02,2.44-6.63.78-13.43-8.36-13.86-2.42-.11-4.83-.45-7.15-.67ZM1344.57,852.58c0-4.17-1.22-8.18-3.32-10.83-2.72-3.43-7.56-4.8-12-3.38-4.13,1.32-6.82,4.78-7.05,9.24-.1,2-.15,4.02.04,6,.58,6.21,5.85,10.9,11.84,10.67,6.29-.24,10.47-4.91,10.48-11.71Z"/><path class="cls-3" d="M596.57,811.79h23.92c.77,1.45.88,2.48-1.11,2.7-1.94.22-3.87.49-5.8.74-1.33.18-1.95.93-2.05,2.29-.18,2.42-.67,4.83-.69,7.25-.08,10.75-.05,21.5-.03,32.25,0,4.86-.87,9.51-2.61,14.07-2.47,6.44-7.08,10.14-13.55,12.29-7.42,2.46-14.95,1.21-22.44,1.6-4.4-1.89-9.52-2.13-12.93-6.33-1.39-1.71-2.2-3.33-2.9-5.43-1.9-5.7-1.6-11.48-1.63-17.27-.05-11.18,0-22.36-.03-33.54,0-1.41.09-3.02-.53-4.19-.65-1.23-1.94-2.53-3.22-2.92-2.22-.68-4.65-.7-7.04-1,.31-.91.52-1.55.82-2.43h28.62c.57,1.38.75,2.52-1.29,2.59-1.29.05-2.58-.02-3.87.03-2.95.12-4.72,1.82-4.77,4.75-.07,4.16-.01,8.31-.01,12.47,0,10.03-.04,20.07,0,30.1.02,5.18,1.69,9.68,5.67,13.24,2.8,2.5,6.37,3.38,9.75,3.74,6,.64,12.21.73,17.73-2.42,5.4-3.08,8.4-7.6,9.13-14.12,1.36-12.13.33-24.24.66-36.35.07-2.64-.31-5.33-.82-7.93-.34-1.72-1.45-2.89-3.63-2.77-1.48.08-3.04-.35-4.45-.87-.45-.17-.51-1.37-.9-2.55Z"/><path class="cls-3" d="M246.71,813.95c-.69,5.29-1.33,10.21-2,15.35-1.2.25-2.42.5-2.55-1.48-.05-.71,0-1.43-.01-2.15-.03-5.66-.76-6.73-6.09-8.94-7.34-3.05-14.92-3.97-22.67-2.11-8.24,1.97-14.6,6.66-18.19,14.39-5.3,11.4-5.23,23.04.31,34.27,4.39,8.91,12.24,13.79,21.84,15.68,10.02,1.98,19.58.47,28.45-4.76.32-.19.76-.16,1.64-.33-1.09,3.7-2.94,6.2-6.35,7.44-7.11,2.59-14.4,3.75-22,3.75-6.95,0-13.31-1.81-19.58-4.49-5.28-2.25-8.5-6.85-12.56-10.51-1.96-5.87-5.68-11.19-5.41-17.75.08-1.85,0-3.72-.13-5.58-.49-6.96,1.92-13.33,4.64-19.42,1.43-3.2,4.31-6.05,7.16-8.24,8.26-6.34,17.82-9.04,28.24-9.19,8.61-.12,16.91,1.17,25.26,4.04Z"/><path class="cls-3" d="M1547.75,883c0-1.48,0-2.87,0-4.26,0-8.3.07-16.61-.03-24.91-.03-2.6-.58-5.09-1.82-7.55-2.28-4.54-9.01-6.18-13.45-4.9-1.18.34-2.43.65-3.47,1.27-3.6,2.13-6.07,4.9-5.96,9.55.16,7.15-.05,14.31-.06,21.47,0,1.14.16,2.28.29,3.41.21,1.8,1.07,2.81,3.04,2.88,1.39.05,2.82.34,4.13.82.53.2.75,1.2,1.36,2.25h-26.12c-.07-.62-.13-1.15-.22-2.01,1.76-.37,3.5-.84,5.26-1.07,2.15-.28,3.31-1.44,3.63-3.5.2-1.26.39-2.53.4-3.8.03-7.59.01-15.17.01-22.76,0-.14.01-.29,0-.43-.27-5.32-.09-8.41-7.91-8.23-.65-1.06-.99-2.12.65-2.57,4.41-1.21,8.83-2.34,13.26-3.48.53-.14,1.1-.13,2.05-.23v8.42c2.55-1.85,5-2.91,6.35-4.77,2.56-3.5,6.26-3.47,9.75-3.91,2.17-.27,4.52.24,6.69.78,7.35,1.81,10.4,8,10.65,14.18.3,7.43.1,14.89.12,22.33,0,1.15-.06,2.3.03,3.43.26,3.34.68,3.76,4.17,4.51,1.09.23,2.24.38,3.22.86.55.27.81,1.14,1.52,2.21h-17.54Z"/><path class="cls-3" d="M1278,883.29c-8.89,0-16.75,0-24.61,0-1.38,0-1.72-.74-1.49-2.18.93-.3,1.95-.72,3.02-.96,4.59-1.03,5.39-1.92,5.47-6.61.07-3.58,0-7.16,0-10.75,0-4.44-.07-8.89,0-13.33.11-6-.67-8.4-7.59-8.3-.5-1.06-.97-2.1.77-2.52,3.79-.91,7.6-1.77,11.39-2.7,1.15-.28,2.27-.71,3.92-1.23v8.7c1.2-.79,1.91-1.16,2.51-1.67,2.28-1.9,4.51-3.84,6.77-5.75.31-.26.68-.59,1.05-.64,5.11-.7,10.27-1.25,15.11,1.05,2.57,1.22,4.58,3.07,5.38,6.15,1.03,3.99,2.01,7.93,1.94,12.11-.12,7.16-.05,14.33-.03,21.49.01,3.3.06,3.26,3.17,3.78,1.5.25,2.96.68,4.34,1,.38,1.36.17,2.26-1.21,2.27-4.85.04-9.7.02-14.47.02.17-1.07.37-1.75.37-2.43.02-8.88.08-17.77-.01-26.65-.04-3.69-.82-7.12-3.72-9.9-3.3-3.16-7.27-3.89-11.33-3.04-3.55.75-6.91,2.54-8.81,6-.52.94-.99,2.06-1,3.11-.08,8.45-.07,16.91-.03,25.36.01,3.11.48,3.59,3.53,4.24,1.37.29,2.8.41,4.09.89.51.19.72,1.18,1.44,2.47Z"/><path class="cls-3" d="M1010.08,860.91c-.28-7.92,2-14.86,7.91-20.44,2.99-2.82,6.73-4.24,10.48-5.01,4.65-.95,9.69-1.36,14.24.08,7.43,2.36,13.21,6.93,15.68,14.83,3.26,10.42.95,19.61-6.51,27.3-4.53,4.67-10.42,7.14-17.03,7.32-3.94.11-8.06.59-11.7-1.28-8.02-4.1-12.48-10.71-13.05-19.79-.06-1,0-2,0-3ZM1050.87,862.5c-.52-6.95-1.87-13.45-6.1-19.01-3.6-4.73-8.39-6.71-14.33-5.41-5.87,1.29-8.87,5.38-10.18,10.84-1.46,6.07-1.3,12.22.58,18.17.97,3.08,2.17,6.26,4,8.88,3.4,4.86,8.43,6.57,14.28,5.65,5.3-.84,8.16-4.43,9.63-9.18.99-3.23,1.44-6.63,2.13-9.95Z"/><path class="cls-3" d="M1226.81,834.78c15.43-.73,26.66,14.26,23.48,29.19-2.69,12.66-14.06,21.18-26.91,21.14-6.62-.02-12.17-1.82-16.43-6.79-3.67-4.28-5.82-9.31-5.91-15.08-.09-5.78.52-11.23,3.29-16.6,3.67-7.12,9.64-10.09,16.92-11.43,1.82-.34,3.71-.3,5.56-.43ZM1241.91,862.56c-.29-5.64-1.42-10.88-3.93-15.8-1.87-3.67-4.53-6.7-8.41-8.19-6.25-2.39-15.69-.51-18.24,10.36-1.71,7.27-1.07,14.47,1.59,21.41.9,2.36,2.17,4.72,3.79,6.63,6.8,8.02,19.14,6.06,22.87-3.69,1.29-3.38,1.58-7.14,2.33-10.72Z"/><path class="cls-3" d="M1455.35,860.98c-.54-6.93,1.45-13.15,5.76-18.48,3.12-3.87,7.57-6.32,12.34-7.1,5.28-.86,10.76-1.23,16.07.63,8.49,2.96,14.73,11.49,15.27,20.48.72,12.15-4.88,20.6-15.01,26.4-1.98,1.13-4.55,1.33-6.89,1.74-7.44,1.29-14.73.63-20.37-4.68-3.67-3.45-6.63-7.9-6.86-13.42-.08-1.86-.21-3.71-.31-5.57ZM1480.56,881.8c6.13.2,9.87-2.08,12.27-6.76,3.36-6.56,3.2-13.44,1.95-20.41-.85-4.72-2.67-9.03-5.99-12.57-7.21-7.66-19.68-5.06-22.79,4.95-2.87,9.24-1.89,18.38,2.66,26.92,2.64,4.95,6.8,8.07,11.92,7.86Z"/><path class="cls-3" d="M157.73,858.43c-10.67.36-21.6.72-32.56,1.09-1.07,10.75,5.47,19.48,16.23,20.34,4.23.34,7.94-.93,11.55-2.9,1.27-.69,2.68-1.12,4.65-1.93-.88,3.47-2.57,5.05-4.9,6.32-6.21,3.4-12.96,4.65-19.73,3.48-6.91-1.2-12.47-5.09-15.39-11.92-2.38-5.57-1.86-11.42-1.54-17.2.15-2.61.65-5.3,1.55-7.74,2.34-6.35,7.88-9.47,13.66-11.61,7.02-2.6,13.99-2.29,20.67,2.11,4.72,3.11,8.36,12.44,6.81,18.55-.1.38-.48.68-1.02,1.41ZM149.6,855.46c.36-4.92-.47-8.9-2.59-12.58-1.77-3.08-4.47-5.03-7.99-4.94-5.17.13-9.4,2.29-11.8,7.16-1.47,2.99-2.04,6.16-1.71,9.8,7.97,1.35,15.88.77,24.08.57Z"/><path class="cls-3" d="M523.88,857.51c-11.26,2.42-22.38,1.44-33.41,1.79-.77,4.48.23,8.4,2.11,12.1,3.7,7.27,14.11,10.46,21.7,7.25,1.63-.69,3.21-1.52,4.85-2.19,1.09-.44,2.24-.7,3.49-1.08-.72,3.79-3.23,5.29-5.97,6.57-5.94,2.77-12.3,4.03-18.65,2.9-5.89-1.04-11.14-4.02-14.2-9.63-2.87-5.25-4.24-10.99-3.72-16.87.49-5.5,1.77-11.08,5.76-15.25,2.24-2.34,5.06-4.35,7.99-5.78,6.75-3.28,13.79-3.66,20.7-.34,5.53,2.66,8.45,7.36,9.31,13.3.32,2.23.05,4.54.05,7.22ZM515.2,855.44c-.03-5.16-.82-9.93-3.88-14.1-1.7-2.32-4.08-3.53-6.95-3.59-3.7-.08-6.99,1.01-9.67,3.67-3.83,3.81-4.81,8.46-4.18,14.02h24.68Z"/><path class="cls-3" d="M402.64,859.21c-.32,5.29.83,9.59,3.48,13.68,4.28,6.63,14.8,8.52,20.34,5.82,1.69-.82,3.37-1.66,5.11-2.36,1.08-.44,2.25-.63,3.66-1.01-.82,3.26-2.55,4.84-4.96,6.13-6.27,3.34-12.99,4.5-19.79,3.29-8.14-1.45-13.55-6.79-16.36-14.5-.79-2.17-.89-4.66-.91-7.01-.03-3.78-.07-7.5.68-11.34,1.25-6.45,5.38-10.41,10.4-13.48,4.4-2.7,9.41-3.78,14.82-3.64,7.38.19,16.9,7.03,17.05,15.49.02.95.6,1.88.71,2.84.4,3.65-.74,4.71-4.44,5.19-8.66,1.12-17.35.86-26.03.9-1.13,0-2.25,0-3.75,0ZM427.42,855.47c.41-4.51-.29-8.59-2.47-12.4-2.59-4.51-6.53-6.24-11.51-4.98-7.4,1.87-11.77,9.05-10.29,17.38h24.27Z"/><path class="cls-3" d="M800.23,857.56c-11.21,2.27-22.31,1.47-33.3,1.69-1.88,11.24,6.11,21.17,17.73,20.53,3.43-.19,6.68-1.23,9.69-3.01,1.38-.82,2.83-1.91,4.61-.84-.95,4-4.29,5.34-7.55,6.67-6.44,2.62-13.14,3.5-19.82,1.4-5.72-1.8-9.98-5.54-12.61-11.18-2.99-6.4-2.38-13.2-1.68-19.65.62-5.65,4.26-10.31,9.42-13.72,5.43-3.59,11.07-4.98,17.45-4.51,8.33.61,16.27,8.41,16.07,16.91-.04,1.84,0,3.68,0,5.7ZM766.89,855.41c8,.63,16.07.33,24.31.24.65-4.92-.46-9.11-2.66-13.01-2.27-4.01-6.51-5.59-11.01-4.66-6.94,1.43-11.95,8.71-10.63,17.43Z"/><path class="cls-3" d="M1095,808.93v8.13c-2.05-.71-3.82-1.35-5.6-1.94-5.42-1.8-8.4-.24-8.96,5.2-.6,5.79-.68,11.63-1,17.72,4.86,1.37,9.21-1.46,13.82.18-.29,1.37-.61,2.9-.99,4.7h-11.94c-.99,4.51-.79,32.9.24,36.62,2.4.45,4.86.9,7.53,1.4.34,1.51-.05,2.37-1.81,2.35-2.72-.04-5.44-.07-8.16-.07-4.44,0-8.87.03-13.31.07-1.39.01-2.7-.02-2.14-2.23,1.24-.34,2.56-.79,3.91-1.05,3.52-.68,4.44-1.62,4.5-5.24.07-4.15.02-8.3.02-12.45v-18.31c-2.29-.18-4.5-.36-6.68-.53-.41-1.62-.02-2.6,1.47-3.17,1.03-.39,1.92-1.19,2.97-1.44,1.95-.48,2.33-1.76,2.25-3.47-.05-1.14,0-2.29-.01-3.43-.1-6.01,1.82-11.19,6.16-15.46,1.39-1.37,2.53-3,3.72-4.55,2.85-3.72,8.89-5.11,14-3.01Z"/><path class="cls-3" d="M874.67,848.63c-1.03.08-1.84.13-2.84.21-.14-.57-.46-1.13-.37-1.61.89-5.36-3.5-7.98-8.53-8.69-3.15-.45-6.07-1.12-9.2.72-2.29,1.35-3.74,2.59-3.93,5.37-.21,3.21.03,6.2,3.32,7.59,2.84,1.2,5.87,1.99,8.89,2.66,3.99.9,7.91,1.84,11.63,3.66,4.01,1.96,5.46,5.45,5.37,9.33-.11,4.57-1.81,8.63-5.81,11.6-4.83,3.59-10.02,5.63-16.07,5.56-5.31-.06-10.66.2-15.27-2.28.11-2.95.13-5.72.36-8.48.14-1.65.52-3.3,1.02-4.88.13-.42,1.11-.58,2.05-1.03.15,1.26.33,2.19.36,3.11.12,4.5,2.9,8.11,7.22,9.28,4.94,1.34,9.66,1.2,14.16-1.64,2.43-1.53,4.9-5.57,4.47-7.94-.67-3.69-2.17-4.91-6.37-5.98-5.05-1.29-10.11-2.6-15-4.38-4.25-1.55-7.35-4.7-7.88-9.39-.63-5.52.88-10.47,5.92-13.51,2.07-1.25,4.51-2.23,6.89-2.56,6.64-.91,13.3-1.03,19.62,2.03v11.26Z"/><path class="cls-3" d="M441.01,869.04c.46-.08,1.39-.25,2.6-.46.09,1.29.18,2.39.25,3.49.26,3.93,2.27,6.72,5.86,8.13,4.9,1.93,9.78,1.98,14.66-.48,2.9-1.46,4.4-3.85,5.25-6.67,1.03-3.44-1.44-6.8-5.35-7.83-4.74-1.24-9.57-2.26-14.19-3.87-5.74-2.01-9.53-5.2-9.71-11.13-.14-4.69,2.27-11.98,9.26-14.03,7.71-2.25,15.58-2.07,23.28.99v11.41h-3c-.11-.49-.28-.89-.27-1.29.05-5.19-3.12-8.51-8.4-8.72-2.57-.1-4.99-1.21-7.76-.21-3.24,1.16-5.33,3.13-5.43,6.58-.16,5.2.82,6.81,5.89,8.31,4.59,1.35,9.34,2.16,13.91,3.53,3.23.97,6.2,2.43,8.11,5.67,3.34,5.67.22,13.5-4.04,16.82-4.72,3.68-10.15,5.9-16.35,5.76-5.19-.12-10.44.27-15.29-2.15-.23-.11-.4-.35-.2-.17.32-4.7.61-9.03.92-13.67Z"/><path class="cls-3" d="M742.81,839.51c-2.63-.54-4.65-.96-6.75-1.4.29-.99.11-2.23,1.99-2.19,5.7.11,11.39.04,17.24.04.08.75.14,1.28.2,1.89-.41.22-.77.59-1.1.56-3.42-.32-5.24,1.69-6.51,4.43-3.32,7.13-6.68,14.25-9.88,21.43-2.74,6.14-5.27,12.38-8.01,18.82h-5.27c-1.75-3.89-3.64-8.02-5.47-12.18-2.33-5.3-4.65-10.61-6.91-15.94-1.78-4.2-3.46-8.44-5.17-12.66-.85-2.1-2.2-3.51-4.57-3.86-1.27-.19-1.26-.3-1.61-2.35h23.22c.25,1.28.23,2.29-1.39,2.4-1.28.09-2.58-.03-3.86.1-2.06.22-2.84,1.22-2.2,3.16,1.05,3.22,2.24,6.4,3.53,9.53,2.72,6.63,5.51,13.23,8.33,19.82.35.81,1.04,1.47,1.89,2.63,4.52-11.44,10.85-21.59,12.3-34.22Z"/><path class="cls-3" d="M820.65,844.53c1.85-2.19,3.73-4.37,5.56-6.58,2.18-2.62,5.34-2.88,8.33-3.22,1.57-.18,3.25.55,4.6.81-.21,4.2-.4,8.12-.59,11.93-1.72,1.19-2.49-.13-3.35-.97-1.42-1.39-2.8-2.67-5.01-2.8-5.04-.28-8.02,1.71-9.47,6.64-.32,1.09-.64,2.24-.64,3.36-.04,7.44-.15,14.89.09,22.32.11,3.31.72,3.51,4.28,3.93.97.11,1.9.55,2.87.69.81.12,1.65.02,2.56.02.52,1.88.03,2.66-1.71,2.63-3.01-.05-6.01-.08-9.02-.09-5.42-.01-10.83,0-16.39,0v-2.26c1.56-.34,3.06-.69,4.57-.99,2.94-.58,3.77-1.39,4.2-4.37.14-.99.2-1.99.2-2.99.05-7.44.1-14.89.11-22.33.01-7.8-.63-8.52-8.53-9.21.34-.89.48-2.17.95-2.31,4.53-1.3,9.12-2.42,13.7-3.57.5-.13,1.03-.13,2.04-.25v7.95c.22.55.43,1.1.65,1.65Z"/><path class="cls-3" d="M907.36,881.08c.52,1.67-.25,2.21-1.66,2.2-1.86,0-3.72-.07-5.58-.07-5.3.01-10.59.06-15.89.08-1.3,0-2.77.16-2.28-2.3,1.44-.34,3.03-.94,4.64-1.02,1.93-.09,2.83-.79,2.97-2.74.11-1.51.74-2.99.75-4.49.09-6.72.12-13.45,0-20.18-.05-2.94-.44-5.88-.82-8.8-.16-1.25-1.04-1.92-2.43-1.86-1.55.07-3.12.02-4.97.02-.08-1-.15-1.9-.21-2.71,5.67-1.47,11.1-2.89,17.1-4.45,0,2.09,0,3.48,0,4.88,0,12.02,0,24.04,0,36.06,0,3.62.04,3.58,3.57,4.21,1.64.29,3.24.78,4.8,1.17Z"/><path class="cls-3" d="M878.19,654.48c1.29-.31,2.09-.7,2.88-.66,3.11.16,6.21.57,9.32.66,4.4.12,8.33,1.52,11.84,4.08,2.57,1.87,3.88,4.39,3.66,7.7-.31,4.87-3.27,6.82-7.85,4.8-2.44-1.07-4.94-2.26-7.01-3.91-4.6-3.65-9.56-7-12.85-12.67Z"/><path class="cls-3" d="M491.66,688.25c5.52-.54,10.05.53,14.21,2.66,3.73,1.91,5.35,5.39,5.06,9.61-.18,2.57-1.59,3.64-4.13,3.93-4.03.46-6.48-1.91-8.42-4.78-2.32-3.43-4.23-7.14-6.72-11.42Z"/><path class="cls-3" d="M501.82,663.3c5.41-.33,10.45-.61,15.22,2.06,2.8,1.56,4.5,3.76,5.5,6.65.9,2.6.29,5.08-1.44,6.17-1.52.96-5.14.39-6.73-1.01-4.62-4.06-8.65-8.66-12.55-13.87Z"/><path class="cls-3" d="M887.73,817.79c2.08-4.35,4.36-6.22,6.87-5.76,2.51.47,5.1,3.25,5.15,5.52.05,2.31-1.7,4.64-4.03,5.36-3.36,1.05-5.15-.07-7.99-5.13Z"/><path class="cls-3" d="M325.99,817.97c-.11,3.07-2.6,5.15-6.08,5.08-3.11-.07-5.22-2.32-5.04-5.38.21-3.46,2.39-5.76,5.39-5.69,3.45.08,5.85,2.59,5.73,6Z"/><path class="cls-3" d="M688.51,811.98c2.78.12,5.84,3.27,5.7,5.88-.16,3.27-2.77,5.35-6.46,5.15-2.87-.15-4.81-2.58-4.65-5.81.17-3.38,2.22-5.36,5.4-5.23Z"/><path class="cls-1" d="M811.24,72.32c-8.13.39-7.06-.81-8.48-7-.35-1.5-.25-3.15-.12-4.71.69-8.22-4.88-13.62-12.02-15.54-5.68-1.53-11.55-1.13-16.98,1.75-4.69,2.49-7.3,6.11-7.21,11.64.15,9.03.12,18.06.09,27.09-.01,3.48-.78,4.35-3.93,5.1-2.58.62-5.09-.75-5.83-3.33-.35-1.21-.5-2.51-.52-3.77-.06-4.16-.18-8.32.02-12.47.43-9.09-4.5-14.8-11.99-17.71-8.94-3.47-18.18-4.17-27.7-2.8-5.56.8-11.01,1.86-15.84,4.68-3.16,1.85-6.19,4.18-8.66,6.86-3.11,3.38-3.76,7.85-3.76,12.39.02,22.65,0,45.29,0,67.94,0,1.29.09,2.59-.07,3.87-.46,3.76-3.71,6.34-7.41,5.98-2.45-.24-3.68-1.56-3.88-4.19-.07-.99-.12-1.98-.19-2.97,0-.12-.15-.24-.55-.81-.69.52-1.61.89-1.98,1.56-2.21,4.04-2.71,8.27-1,12.65,1.85,4.72,4.92,8.32,9.6,10.45,1.15.52,2.27,1.13,3.45,1.72-.22,3.04-.43,5.94-.64,8.88-13.73,1.31-23.52-7.98-24.21-19.91-.29-4.98-.68-9.97-.69-14.95-.06-30.39-.04-60.77-.02-91.16,0-4.62-.59-9.08-3.02-13.13-4.85-8.07-11.37-8.78-18.89-7.23-6.02,1.24-11.39,4.4-15.67,9.1-4.04,4.44-6.24,9.5-5.55,15.6,1.03,9.09,9.87,14.29,18.13,11.39.88-.31,1.62-1.02,2.92-1.87-1.64-.68-2.78-1.15-3.92-1.61-2.68-1.06-4.02-3.09-4.19-5.9-.18-2.98,1-5.23,3.68-6.69,5.85-3.19,11.77.26,11.78,7,.04,22.79,0,45.58.02,68.37,0,8.74.04,17.49.06,26.23,0,1.27,0,2.54,0,3.89-1.55.42-2.89.8-4.24,1.15-6.31,1.62-10.09,6.46-10.5,12.9-.26,4.06.72,7.64,2.94,10.93,1.49,2.22,2.89,2.75,5.13,2.17-.39-2.04-1.08-4.08-1.07-6.11,0-1.24.74-3.04,1.71-3.6,1.9-1.09,4.19-1.95,6.34-2.01,1.58-.04,3.43.63,4.41,2.76,1.29,2.8,2.97,5.53,4.96,7.89,4.33,5.14,10.28,7.56,16.72,8.75,4.45.83,8.97,1.3,13.68,1.96v5.4c-.5.35-1.15.9-1.88,1.3-8.69,4.75-13.02,12.54-14.93,21.84-1.59,7.75-1.27,15.59-.29,23.42.48,3.81.6,7.67,1.1,11.48.9,6.89,1.57,13.84,4.12,20.39.49,1.25,1.25,2.4,1.87,3.56,9.73-2.38,19.15-3.79,28.72-3.23,6.81.4,13.62,1.26,19.86,4.35,1.72.85,3.17,2.23,5.41,3.84-1.56.53-2.6,1.19-2.9.94-5.29-4.34-11.83-5.12-18.11-5.54-17.02-1.14-33.58,1.19-48.94,9.19-5.91,3.08-10.88,7.32-14.59,12.94-3.27,4.97-3.78,10.57-2.76,16.09,1.9,10.31,6,19.84,11.81,28.59,1.19,1.8,1.25,1.76,3.64,1.05-.28-5.22-.54-10.33,1.2-15.52,2.67-7.94,7.66-13.98,14.06-18.95,6.47-5.02,13.78-8.45,21.74-10.56,6.18-1.64,12.36-2.23,18.56-.58,2.02.54,4.49,1.02,5.34,4.12-4.18-.61-8.02-1.38-11.89-1.68-3.98-.31-8.02-.18-11.86,1.18-3.71,1.32-7.66,2.17-10.51,4.98.83,5.87,2.85,10.94,5.73,15.75,5.35,8.93,13.62,14.02,22.98,17.64,7.73,2.99,15.83,4.39,24.07,5.31,12.68,1.41,25.38,1.64,38.1,1.44,4.42-.07,8.84-.32,13.24-.66,2.24-.17,3.79.63,5.22,2.27,3.48,4.02,6.56,8.28,8.71,13.16,1.8,4.07,2.28,8.45.94,12.56-1.82,5.62-6.4,8.62-12.03,9.8-5.76,1.2-11.59,1.22-17.42.17-2.37-.43-4.82-.42-7.18-.89-3.28-.66-4.22-1.63-4.22-4.76,0-7.24,2.56-13.36,8.53-17.77,1.12-.83,2.31-1.57,3.52-2.4-.82-2.07-2.52-2.03-4-1.81-7.43,1.13-14.4,3.28-19.95,8.79-4.25,4.22-6.41,9.36-6.96,15.18-.21,2.2-.82,3.39-3.2,3.65-3.38.37-6.76.9-10.08,1.62-6.85,1.48-11.79,5.47-13.17,12.43-1.34,6.78-.24,13.32,4.61,18.83,3.1,3.53,6.64,6.25,11.3,7.24,1.06.23,2.22.03,3.21.03.82-1.95-.32-2.56-1.44-3.28-3.81-2.44-5.56-5.8-5.32-10.47.28-5.41,6.65-8.61,11.4-7.58,1.56.34,1.74,1.77,1.61,3.12-.34,3.8.51,7.43,1.92,10.85,4.25,10.27,11.21,17.66,22.28,20.42,1.09-1.03,1.14-1.78.08-2.62-8.85-7-10.58-16.37-8.69-26.82.65-3.59,2.21-4.51,5.88-5.05,7.66-1.12,12.93,2.17,16.78,8.49,2.85,4.69,1.94,7.96-3.03,10.4-.47.23-.96.41-1.45.62.29,1.67,1.24,2.12,2.52,1.85,7.81-1.61,13.42-6.06,15.41-15.09.37-1.65.66-3.32,1.04-5.21h15.03v65.99c-2.87.2-5.43.06-8.11-.67-14.99-4.08-28.85-10.74-42.11-18.62-10.78-6.41-21.49-13-31.74-20.21-9.53-6.7-18.57-14.13-27.52-21.61-5.92-4.95-11.43-10.41-16.87-15.88-14.46-14.54-26.96-30.64-37.56-48.2-8.6-14.23-14.81-29.47-19.08-45.54-2.92-10.99-4.85-22.18-6.69-33.37-.99-6.03-1.4-12.16-1.94-18.26-.94-10.5-1.79-21.01-2.65-31.52-.59-7.24-1.2-14.48-1.69-21.73-.65-9.53-1.2-19.07-1.76-28.6-.32-5.41-.59-10.82-.82-16.24-1.79-41.24-.61-82.49-.78-123.73,0-1.29,0-2.57,0-4.34,2.08-.67,4.14-1.59,6.3-1.97,8.95-1.57,17.92-3.01,26.89-4.43,7.3-1.15,14.6-2.27,21.92-3.25,5.64-.76,11.32-1.24,16.97-1.9,6.64-.78,13.26-1.64,19.9-2.41,3.11-.36,6.23-.66,9.36-.89,5.12-.38,10.25-.72,15.38-1.01,11.25-.63,22.51-1.21,33.76-1.82,4.84-.26,9.68-.61,14.53-.78,9.86-.34,19.72-.59,29.58-.86,1.43-.04,2.86,0,4.61,0v8.34c-1.61.11-2.99.25-4.38.28-7.82.15-14.84,2.66-20.89,7.55-1.96,1.58-3.42,3.81-4.94,5.87-.42.56-.23,1.57-.4,3.14,4.86-3.66,9.24-7.21,14.67-7.73,5.19-.5,10.49.21,16.15.4v-8.95c4.34.28,8.22.61,11.85,2.25,10.66,4.81,17.14,13.05,19.29,24.47,2.89,15.37-3.04,27.78-13.41,38.65-4.5,4.72-9.58,8.55-15.54,11.2-.5.22-1.03.38-2.04.75v-23.41c3.76.23,6.23-2.35,8.23-4.7,5.59-6.56,8.14-14.32,6.38-22.95-1.62-7.94-6.31-13.48-14.55-16.3v44.01ZM633.96,297.5c2.88-4.87,4.57-9.55,8.23-13.02,3.66-3.48,7.26-6.98,12.24-8.36,4.75-1.31,9.59-2.28,14.47-3.42-1-6.95-2.12-14.23-3.07-21.53-.44-3.34-1.13-4.08-4.37-2.83-5.7,2.19-11.44,4.37-16.85,7.18-6.1,3.17-10.86,7.94-12.82,14.8-2.13,7.44-1.32,14.98-.13,22.46.23,1.42,1.29,2.71,2.31,4.74Z"/><path class="cls-1" d="M811.19,281.3c7.08-.86,13.96-2.56,20.59-5.19,5.44-2.16,10.63-4.76,15.28-8.45,7.91-6.28,12.43-14.27,13.27-24.36.37-4.39.69-8.8,1.45-13.13,1.11-6.33,4.52-11.31,9.94-14.83,1.44-.93,3.02-1.66,3.13-3.83-1.74-1.47-3.82-1.71-5.94-1.55-5.07.4-10.27-3.44-10.49-10.44-.2-6.66,1.43-12.6,4.94-18.22,1.43-2.29,2.85-4.47,5.17-5.89,1.26-.77,2.67-1.31,4.61-2.25,0,3.58-.16,6.43.04,9.24.35,4.93,1.86,9.5,5.13,13.32,4.48,5.24,10.42,5.83,16.53,2.29,1.34-.78,2.55-1.83,3.72-2.87,3.09-2.76,6.16-5.54,9.16-8.4.74-.71,1.19-1.72,2.33-3.4-2.32,0-3.7-.18-5.02.03-6.9,1.11-11.23-1.76-12.05-8.49-.73-6.05.02-11.95,2.94-17.44,1.16-2.17,2.73-3.93,4.69-5.17,1.88.65,1.64,2.05,1.75,3.3.48,5.49,3.01,10,6.65,13.99,3.72,4.08,11.34,3.7,14.56-.1,2-2.35,3.72-4.95,5.57-7.42,1.78-2.37,3.57-4.73,5.47-7.24-1.43-1.29-2.62-.88-3.79-.43-5.57,2.1-11.03-1.35-11.24-8.27-.14-4.7.82-9.07,3.27-13.06.7-1.14,1.81-2.04,3.12-3.47.58,1.72,1.3,2.87,1.28,4-.1,4.53,3,7.02,5.99,9.4,3.78,3.02,8.94,2.13,11.55-1.93,3.15-4.92,6.03-10.02,8.93-15.1.37-.64.2-1.59.34-3.03-1.86.46-3.34.7-4.73,1.2-5.85,2.11-8.29-.22-10.31-4.06-3.21-6.1-2.92-12.65-.12-18.97.38-.85,1.27-1.47,2.23-2.54,1.52,2.83,2.74,5.47,4.28,7.91,2.5,3.95,5.88,6.5,10.89,6.37,2.27-.06,4.19-.96,4.99-2.77,2.66-5.96,4.98-12.06,7.39-18.13.13-.32-.13-.79-.32-1.8-1.38.46-2.7.7-3.82,1.3-5,2.71-8.59,1.78-11.51-3.14-3.12-5.26-4.32-10.82-2.4-16.79.29-.89.91-1.67,1.58-2.87,1.36,2.08,2.37,3.92,3.65,5.55,2.74,3.5,6.16,5.93,10.83,5.91,4.04-.02,7.42-2.82,7.98-6.85.68-4.92,1.65-9.9,1.45-14.82-.31-7.49-1.11-15.05-4.12-22.07-1.1-2.57-2.73-4.92-4.42-7.89,3.13.82,5.08,2.51,6.83,4.45,4.49,4.95,7.16,10.86,8.85,17.24,1.82,6.87,3.18,13.84,3.56,20.96.06,1.12.43,2.23.66,3.34.68,3.23,1.85,3.82,4.6,1.98,1.65-1.1,3.06-2.58,4.48-3.99,1.1-1.09,2.04-2.35,3.52-4.08,1.59,10.54-.77,18.64-8.94,24.46-1.38.98-1.89,1.92-1.68,3.53.55,4.23,1.17,8.45,1.47,12.7.43,6.27.62,12.55.89,18.83.16,3.72,1.46,4.63,4.82,3.04,1.53-.72,2.91-1.76,4.3-2.74,1.48-1.04,2.89-2.18,4.65-3.52.75,11.72-3.94,19.68-14.56,24.35-.64,11.35-1.28,22.73-1.9,33.79,1.41,2.13,2.96,2.27,4.61,1.2,2.27-1.47,4.45-3.07,6.67-4.61.66-.46,1.33-.89,2.12-1.41,1.36,9.06-3.73,18.46-10.84,21.63-2.99,1.33-4.1,3.18-4.29,6.53-.33,5.79-1.49,11.53-2.19,17.31-.51,4.19-.83,8.4-1.24,12.68,5.77,1.72,9.13-2.89,13.95-3.99.39,5.46-1.67,9.88-4.79,13.83-2.32,2.94-5.3,5.19-9.04,6.2-2.06.55-3.31,1.61-3.85,3.94-2.26,9.81-4.8,19.55-7.16,29.33-.67,2.76.87,4.25,3.65,3.33,3.22-1.07,6.29-2.59,9.69-4.04.49,3.05-.95,5.54-2.15,7.93-3,5.92-7.86,9.7-14.41,10.93-2.13.4-3.25,1.36-4.04,3.25-3.88,9.37-8.25,18.48-14.29,26.7-.41.55-.56,1.29-.85,2,1.49,2.53,3.89,2.61,6.37,2.58,2.37-.03,4.74,0,7.64,0-2.42,4.08-5.45,6.66-9.01,8.45-4.67,2.34-9.64,3.55-14.88,2.11-2.12-.58-3.66-.17-5.43,1.31-4.92,4.12-10.08,7.78-16.72,8.94-9,1.56-17.25,1.07-24.24-5.79-5.52-5.42-10.79-10.88-12.84-18.69-1.72-6.56-.92-12.79,2.36-18.58,4.87-8.61,12.63-14.28,21.02-19.03,5.03-2.85,10.35-2.05,14.97,1.06,7.07,4.77,10.96,11.72,10.7,20.24-.3,9.81-8.57,17.62-18.42,16.55-4.63-.5-6.85-2.98-6.45-7.29.26-2.8,2.14-4.65,4.99-4.84,1.14-.08,2.3.07,3.44-.01,4.88-.34,7.19-4.39,5.01-8.74-.26-.51-.48-1.05-.81-1.51-2.68-3.73-4.74-5.13-9.39-3.17-6.2,2.61-11.53,6.65-13.75,13.32-1.92,5.77-.56,11.28,3.05,16.16,5.82,7.85,15.1,9.01,23.69,4.78,6.36-3.14,10.51-8.54,14.77-13.83,4.95-6.16,8.42-13.22,11.89-20.27,2.41-4.88,2.67-9.82.8-14.91-.29-.79-.5-1.61-.67-2.43-.04-.22.2-.49.46-1.06,1.64.47,3.34.95,5.6,1.6,0-2.64.33-5.18-.1-7.6-.4-2.25-1.62-4.36-2.75-7.23,2.91.31,5.25.56,7.72.82,1.29-4.98-.72-9.3-3.29-13.6,1.73-1.04,3.14-.77,4.69-.37,1.67.43,2.42-.32,1.92-2.03-.97-3.34-2.21-6.61-3.33-9.9q2.48-.68,6.62.24c2.97-5.57,8.09-36.18,6.75-41.44-.44.64-.85,1-.96,1.43-1.18,4.82-3.56,9.08-6.78,12.73-2.3,2.61-3,5.27-2.76,8.6.28,3.74-.24,7.41-2.76,10.48-.15.18-.49.21-.92.38-1.03-2.22-1.89-4.74-5.57-4.95-.22,5.34.89,11.02-3.77,15.36-1.51-2.14-1.55-5.69-5.46-5.96-.87,4.96-.06,10.37-4.26,14.49-.83-1.56-1.34-3.29-2.46-4.38-1.01-.98-2.7-1.26-4.18-1.88-2.33,4.56-.51,10.39-5.82,13.46-1.38-2.07-2.04-5.05-5.51-5.38-2.07,5.06-1.88,11.35-8.04,15.01-.11-1.76-.17-3.08-.28-4.4-.37-4.4-2.76-5.54-6.72-3.52-3.66,1.87-7.41,3.65-11.26,5.07-5.91,2.19-9.86,6.26-11.93,12.03-1.48,4.13-2.48,8.43-3.55,12.69-2.39,9.54-5.23,18.89-10.54,27.32-6.91,10.99-16.68,17.75-29.41,20.18-3.19.61-6.44.86-9.54,1.26,1.03,2.88,2.16,5.72,3.06,8.64,1.95,6.36,0,12.24-3.18,17.53-3.59,5.94-8.65,10.58-15.31,13.17-.63.25-1.19.69-2.45,1.43,4.25,0,7.77,0,11.29,0,8.17.02,16.35.12,24.52.03,5.15-.06,10.18-.84,14.89-3.19,4.14-2.07,7.12-4.85,8.26-9.64.78-3.3.15-6.16-.94-9.11-.29-.79-.64-1.56-1.04-2.53,2.68-1.2,4.11.67,5.39,2.15,2.83,3.27,4.85,7.08,5.71,11.3.79,3.87,1.11,7.73.31,11.82-1.83,9.32-8.92,15.5-17.78,16.41-5.25.53-10.53.81-15.81,1-8.86.31-17.72.53-26.58.64-3.1.04-6.2-.36-9.47-.57-.12-1.16-.29-1.98-.29-2.8-.01-32.96,0-65.93,0-98.89,0-.86.05-1.72.08-2.58,0,0-.06.06-.06.06,3.55.23,7.11.77,10.65.62,4.82-.21,9.61-.93,14.41-1.46,9.77-1.09,16.88-6.4,22.41-14.17.94-1.33,2.28-2.52,2.18-4.8-.96.26-1.88.24-2.4.69-3.44,2.99-7.51,4.44-11.87,5.52-6.55,1.61-13.24,1.82-19.89,2.27-5.14.34-10.32.1-15.48.11l.06.05c0-4.61,0-9.21,0-13.82l-.05.05ZM881.89,265.3l.82.47c.82-1.12,1.55-2.31,2.47-3.34.93-1.04,1.88-2.22,3.09-2.82,3.56-1.77,7.14-3.63,10.92-4.84,6.98-2.24,13.53-5.32,19.65-9.27,8.65-5.59,16.25-12.46,23.39-19.85,9.05-9.36,15.55-20.32,20.55-32.26,4.07-9.73,7.17-19.77,9.21-30.09,1.76-8.9,3.07-17.89,4.35-26.87.76-5.35,1.24-10.74,1.57-16.14.25-4.09.05-8.2.05-12.3-3.62,12.09-7.39,24.07-13.78,35.12,2.71,2.33,4.53,4.77,5.25,7.96-3.81,1.14-8.4-1.31-11.19,2.96,1.02,3.75,4.24,6.83,3.28,10.84-3.32-.21-6.28-.6-9.24-.53-2.62.06-3.21,1.39-1.76,3.66,1.78,2.78,2.72,5.77,3.12,9.42-2.52-.41-4.71-.93-6.93-1.09-2.23-.16-4.6-.41-6.64,1.85.54,1.15,1.2,2.38,1.71,3.67.93,2.37,1.88,4.75,2.59,7.19.21.74-.33,1.7-.56,2.71-6.98-4.19-10.47-4.42-14.29-1.23,1.26,4.68,4.72,8.77,3.69,14.25-4.1-1.57-6.65-6.85-11.98-3.87,1.09,4.95,3.73,9.59,2.28,15.35-3.57-3.81-6.36-8.36-12.42-6.82,1.37,4.69,2.47,9.15,1.35,14.29-1.5-1.11-2.6-1.99-3.77-2.77-3.53-2.34-7.35-4.09-11.65-3.02-3.01.75-5.96,1.99-8.72,3.42-1.98,1.03-3.95,2.46-5.33,4.19-3.39,4.22-4.94,8.98-2.59,14.32,1.13,2.56,3.33,3.81,6.2,3.62,2.66-.17,3.93-1.85,4.83-4.16,1.44-3.72.17-6.56-2.75-8.96,1.43-1.95,3.44-2.35,5.39-2.3,6.16.14,11.43,7.43,9.86,13.42-1.12,4.27-3.82,7.26-7.6,9.36-2.87,1.59-5.84,3.01-8.64,4.72-3.64,2.22-5.36,5.64-5.75,9.73Z"/><path class="cls-4" d="M640.61,543.4c0-2.98-.3-5.68.06-8.28.94-6.76,2.35-13.46,3.23-20.23.94-7.26,1.41-14.57-2.3-21.35-1.08-1.97-.99-3.75.06-5.62,30.69,4.9,61.16,9.77,91.91,14.68-.66.99-1.19,2.11-2.01,2.95-4.12,4.25-4.6,9.42-3.57,14.81.8,4.18,1.3,8.1-1.41,11.86-1.41,1.96-.87,4.32.36,6.09,2.65,3.8,1.09,6.69-1.5,9.53-1.25,1.38-2.6,2.68-3.73,4.15-1.27,1.64-1.95,3.49-.82,5.54,1.09,1.99,2.59,2.2,4.03.45.72-.87,1.17-1.96,1.82-2.9.61-.88,1.32-1.69,2.02-2.58,3.16,3.26,3.07,5.69-.31,11.72-2.75-.28-5.71-.48-8.63-.91-8.32-1.22-16.63-2.47-24.92-3.84-24.6-4.07-48.75-10.26-73.06-15.71-3.75-.84-7.56-1.41-11.75-2.17,0-3.01-.33-6.14.06-9.18,1.22-9.38,1.85-18.77,1.42-28.22-.21-4.55-.36-4.64-5.48-3.7-.09,1.01-.3,2.11-.28,3.2.15,8.33-1.52,16.48-2.41,24.7-.41,3.8-.45,7.65-.68,11.86-26.84-3.62-53.41-4.07-79.75,4.59-.05-.93-.18-2.16-.17-3.39.08-10.6.13-21.2.32-31.8.1-5.14.34-10.29.79-15.41.6-6.9,5.05-10.88,10.99-13.54,5.95-2.66,12.31-3.98,18.7-4.03,12.15-.09,24.36-.05,36.45,1,8.45.73,16.74,3.25,25.1,4.95,2.79.57,5.57,1.22,8.38,1.64,5.18.78,8.82,3.34,11.28,8.1,3.65,7.05,3.08,14.4,2.27,21.81-.65,5.94-1.8,11.84-2.14,17.8-.17,3.03.81,6.17,1.54,9.19.54,2.21.73,2.16,4.11,2.23ZM621.05,540.18c2.4-.26,3.21-1.7,3.4-3.75.91-9.4.45-18.74-1.3-28.01-.41-2.2-.84-4.39-1.24-6.46h-5.02c.23,2.86.49,5.39.62,7.94.37,7.41.61,14.82,1.08,22.23.18,2.78.63,5.61,2.46,8.06ZM624.23,494.14c.83-1.94-.07-3.21-1.68-4.22-2.82-1.77-5.82-3.16-9.2-3.08-6.4.16-12.8.49-19.62.77-.3,1.79-.56,3.32-.82,4.87.91.24,1.32.46,1.72.44,5.89-.38,11.63.57,17.44,1.42,3.96.58,8.13,2.03,12.17-.2ZM600.6,500.17c-4.22.02-4.44.14-5.34,2.85-.31.94-.61,1.9-.8,2.87-1.65,8.49-3.28,16.98-4.88,25.47-.04.21.21.48.42.91h3.32c4.48-10.22,6.74-20.77,7.29-32.1Z"/><path class="cls-1" d="M811.24,281.25c-8.99.3-18,1.03-26.98.79-13.43-.36-26.26-3.44-37.55-11.14-8.56-5.84-15.18-13.33-18.24-23.5-2.7-8.97-2.39-17.78,2.2-26.05,2.67-4.81,6.53-8.69,11.85-10.68,1.69-.63,3.56-.79,5.66-1.22.36-1.07.4-1.96-.81-3.11-3.54-3.37-7.86-5.26-12.39-6.45-8.67-2.29-17.52-3.79-26.55-3.65-2.53.04-5.06.5-7.91.81-1.41-5.02-2.36-10.06-1.84-15.15.55-5.35.68-10.78,2.38-15.99,1.71-5.23,3.65-10.32,8.76-13.12,4.39-2.41,9.18-2.48,13.99-1.17.26.07.48.3.71.47,4.47,3.17,5.53,12.52,1.9,16.69-3.3,3.79-8.59,2.98-10.79-1.64q-.9-1.89-2.61-2.68c-1.58,9.71,3.6,18.35,12.7,20.5,9.7,2.28,18.29.18,25.95-6.17,7.97-6.6,11.92-15.3,13.98-25.2.97-4.67.25-9.03-1.09-13.37-.61-1.98-1.93-3.62-4.53-4.53-.16,1.39-.4,2.45-.38,3.49.21,7.93-3.89,13.1-10.59,16.58-3.32,1.73-7.62,1.15-10.35-1.49-1.98-1.91-4.49-3.57-4.85-6.97,6.52-.58,13.21-1.18,14.46-9.23,1.18-7.57-1.79-13.34-7.4-15.71-.35,2.53-.82,5.01-1.02,7.52-.25,3.16-4.22,5.76-6.31,5.12-4.4-1.34-7-2.67-6.8-7.35.08-1.8.79-3.25,2.46-4.2,2.07-1.18,4.09-2.46,6.39-3.86-1.96-2.36-4.65-2.44-7-2.4-3.54.05-6.99.93-10.01,3.09-5.61,4-6.58,12.21-1.91,17.25.68.73,1.46,1.36,2.37,2.2-3.09,2.95-6.4,2.61-9.94,1.62-4.11-1.14-4.62-4.64-5.45-7.92-.27-1.08-.1-2.28-.1-3.43,0-15.47.17-30.95-.12-46.42-.08-4.3,2.46-7.28,6.37-8.35,3.88-1.06,7.68-1.36,11.64.23,2.93,1.18,4.32,3.02,4.61,5.96.04.43.04.86.05,1.29.19,5.98-1.36,7.17-7.12,5.49-.53-.15-1.06-.29-1.69-.47-1.35,1.95-.14,3.34.8,4.66,3.17,4.48,11.66,6.04,16.42,3.89,2.72-1.23,3.3-3.8,3.48-6.4.18-2.57,0-5.16.06-7.73.02-.98.1-2.01.4-2.94.59-1.78,1.74-2.89,3.85-2.67,2.06.22,2.43,1.75,2.69,3.32.16.98.06,2,.06,3,0,8.02-.12,16.05.04,24.07.11,5.58,1.79,10.52,6.24,14.42,6.13,5.37,20.6,7.32,28.12-3.45,1.77-2.53,2.51-5.66,2.48-8.91-.08-8.02-.08-16.05.01-24.07.02-1.96.26-4.03.93-5.85,1.22-3.3,4.19-4.2,7.38-2.56,4.16,2.13,6.62,8.88,4.77,13.36-.81,1.97-1.94,3.82-2.74,5.8-.56,1.38-.81,2.88-1.35,4.89,7.31.05,13.58-2.05,20.19-3.95v60.84l.06-.07c-12.71,4.75-25.17,10.05-35.91,18.55-7.38,5.84-12.38,13.08-13.38,22.96-.86,8.53-1.95,17.06-1.35,25.6,1.03,14.72,7.75,24.3,23.36,28.2,4.79,1.19,9.83,1.41,14.78,1.94,3.95.42,7.92.64,12.44.99v25.66l.05-.05Z"/><path class="cls-1" d="M811.19,157.48c4.64-2.16,9.28-4.31,13.92-6.49.64-.3,1.24-.7,1.83-1.1,11.8-7.83,20.35-18.21,24.81-31.77,3.15-9.58,6.04-19.24,9.38-28.75,5.58-15.91,12.45-31.22,22.18-45.13,7.41-10.58,16.25-19.49,28.3-24.73,4.34-1.88,8.83-3.03,13.59-3.25,8.08-.37,15.96.32,23.47,3.57.6.26,1.14.67,1.56,1.84-1.89-.08-3.85.1-5.66-.3-6.7-1.5-12.93-.21-19.12,2.42-9.07,3.86-16.37,9.85-22.01,17.84-2.31,3.26-4.11,6.84-3.46,11.24,3.98,1.37,7.64.18,11.28-.98,8.92-2.85,17.82-5.76,26.89-8.7,1.06,1.71-.21,3.05-1.04,4.1-1.41,1.78-3.03,3.5-4.88,4.8-5.83,4.11-12.19,7.24-18.76,10.07-6.27,2.7-12.32,5.94-18.37,9.13-5.03,2.66-7.37,7.5-8.85,12.63-1.18,4.1,1.2,6.03,5.6,5.24,12.75-2.3,24.55-7.11,35.87-13.25.63-.34,1.26-.68,1.91-.95.23-.1.54-.02.79-.02.15.28.45.58.39.75-1.56,4.24-2.77,8.71-6.37,11.82-5.98,5.18-12.72,9.15-19.93,12.35-7.16,3.17-14.47,6.07-21.42,9.66-6.24,3.22-10.47,8.34-10.81,15.8-.19,4.17.97,5.2,4.99,4.46,5.6-1.04,11.1-2.56,16.23-5.02,8.72-4.19,17.3-8.66,25.96-13.03-.13,4.26-2.22,8.31-4.62,12.02-5.42,8.35-12.37,15.3-20.72,20.81-1.3.86-2.53,1.84-3.87,2.63-9.81,5.82-20.33,10.06-31.12,13.64-5.51,1.83-11.23,3.09-16.68,5.07-9.02,3.28-17.9,6.93-26.83,10.44-1.3.51-2.57,1.13-4.36,1.93v-20.87l-.06.07Z"/><path class="cls-4" d="M1010.14,541.58c-1.44-9.88-2.83-19.43-4.29-29.47,2.24-.47,4-.82,5.76-1.2,1.1-.24,2.37-.27,3.23-.87.81-.57,1.63-1.77,1.6-2.68-.02-.91-.89-2.13-1.73-2.59-1.05-.58-2.43-.67-3.69-.73-2.13-.11-4.27-.03-6.66-.03-.73-2.88-1.43-5.75-2.2-8.6-.41-1.5-.88-3-1.46-4.45-.48-1.2-1.18-2.55-2.75-2.2-1.64.37-2.79,1.51-2.67,3.38.09,1.42.25,2.84.53,4.23.61,2.92,1.32,5.82,2.03,8.93-3.32,1.33-6.57,2.63-10.32,4.13-.32-1.34-.64-2.51-.89-3.69-1.14-5.35-2.66-6.64-8.16-6.78-1.25-.03-2.5,0-4.69,0,.98-1.61,1.34-3.04,2.06-3.26,4.15-1.23,5.13-4.17,4.56-8.24,3.9-.76,7.63-1.45,11.34-2.23,8.07-1.71,16.11-3.56,24.2-5.17,5.16-1.03,10.37-2.23,15.6-2.5,11.85-.61,23.74-.96,35.6-.89,6.84.04,13.58,1.54,19.93,4.36,7.02,3.12,10.42,8.57,10.52,16.19.07,5.3.18,10.6.31,15.89.23,9.57.5,19.14.72,28.71.03,1.12-.1,2.25-.16,3.57-11.86-5.54-24.39-6.24-36.9-7-5.7-.34-11.44-.81-17.12-.5-9.25.52-18.47,1.59-27.7,2.51-2.12.21-4.2.75-6.62,1.2Z"/><path class="cls-4" d="M854.26,567.39c-39.4,1.84-78.5,1.46-117.4-2.22q-1.5-4.6.19-7.83c1.78.69,3.62,1.36,5.43,2.11,1.68.69,2.68.06,3.46-1.44,1.15-2.19.82-4.33-.74-5.97-2.23-2.36-4.8-4.4-7.48-6.81.43-.63,1.12-1.63,1.76-2.56.7.05,1.14,0,1.52.12,3.12.99,6.2,2.08,9.34,2.99,2.71.79,5.41.26,7.96-.75,2.68-1.06,4.46-2.98,5.11-5.89,1.3-5.83,2.59-11.66,4.01-17.46,1.31-5.34.78-10.47-1.65-15.81,29.81,2.71,59.38,2.74,89.2,0,.31.96.74,1.85.87,2.79.23,1.65-.5,2.87-2.21,3.1-6.87.92-9.84,5.74-11.62,11.64-1.39,4.61-3.21,9.22-1.65,14.18.25.81.36,1.8.9,2.34.62.61,1.69,1.15,2.48,1.06.77-.08,1.85-.88,2.08-1.59.51-1.57.56-3.29.82-5.1,4.66.68,8.56,2.53,12.56,5.06-4.5,8.81-4.65,18.34-4.98,28.04Z"/><path class="cls-4" d="M984.04,534.43c2.59,3.5,3.06,7.47,2.51,12.02-5.63,1.33-11.26,2.75-16.94,3.98-14.6,3.16-29.19,6.44-43.86,9.25-8.67,1.66-17.47,2.6-26.23,3.75-5.23.69-10.48,1.18-15.72,1.72-.96.1-1.94.01-3.14.01-1.85-10.31-4.64-19.97-12.22-27.7,3.01-4.31,6.12-8.2,11.36-10.45.18,1.41.33,2.48.45,3.57.44,3.95.85,4.28,5.57,4.15,2.06-4.38.01-8.45-1.44-12.46-1.47-4.08-3.84-7.56-7.58-10.11-3.88-2.64-8.15-3.21-12.89-3.01v-3.55c30.26-4.45,60.49-8.9,90.91-13.38.3,5.07,3.9,6.38,8.16,6.62.7,1.85-.48,2.63-1.54,3.21-2.45,1.34-3.97,3.15-3.97,6.08,0,3.82.62,7.53,3.4,10.28,1.36,1.34,3.4,1.96,5.57,1.39,1.29-.34,2.69-.64,4.85.31-3.05,1.2-5.39,2.12-7.88,3.1,1.04,2.91,2.62,3.28,4.9,2.59,1.72-.51,3.54-.67,5.71-.44-.58.59-1.07,1.49-1.77,1.71-1.62.51-3.36.59-5.01,1.02-1.57.41-3.09,1.04-4.55,1.55.31,2.71,1.89,2.83,3.5,2.73,1.56-.1,3.1-.36,4.65-.58,1.52-.21,3.03-.46,4.58-.7.77,2.03-.8,2.27-1.86,2.71-1.17.48-2.57.53-3.58,1.19-.65.43-1.12,1.66-1.05,2.49.04.52,1.24,1.38,1.88,1.35,1.81-.1,3.68-.35,5.38-.96,2.64-.95,5.16-2.25,7.86-3.46Z"/><path class="cls-4" d="M1191.69,570.51c-1.86-1.13-3.25-2.05-4.71-2.85-4.98-2.75-10.45-3.91-16.01-4.1-5.41-.18-10.86.08-16.25.59-6.52.61-13.05,1.41-19.48,2.61-7.97,1.49-15.86,3.4-23.74,5.29-9.96,2.39-19.81,5.25-29.83,7.28-5.41,1.1-11.09,1.28-16.63,1.17-5.48-.12-8.97-2.34-10.08-6.93-.71-2.97.16-4.66,3.18-5.5,1.49-.41,3.11-.51,4.66-.47,8.14.22,16.29.57,24.43.81,3.78.11,7.35-.83,10.73-2.5,2.56-1.27,4.39-3.14,5.01-6.04.47-2.22,1.3-4.42,1.43-6.66.48-8.39,1.54-16.76.38-25.21-.48-3.49-.08-7.11-.08-11.02,5.32-1.16,10.55-2.4,15.82-3.42,11.49-2.24,23.11-3.58,34.78-4.18,6.97-.36,14.03.15,20.73,2.36,3.19,1.05,6.33,2.69,9.03,4.69,3.76,2.78,5.29,7.09,5.54,11.63.51,9.13.8,18.27,1.07,27.42.14,4.84.02,9.69.02,15.03Z"/><path class="cls-4" d="M429.7,570.21c0-7.91-.04-15.73.02-23.55.03-3.86.15-7.72.38-11.58.18-3.13.35-6.29.93-9.36,1.18-6.24,4.94-10.69,10.82-12.8,4.1-1.47,8.5-2.37,12.85-2.88,15.79-1.83,31.25,1.15,46.71,3.74,3.78.63,7.53,1.49,11.29,2.3,1.37.29,2.7.75,3.64,1.01-.04,9.92-.24,19.48-.04,29.03.09,4.1.9,8.21,1.56,12.28.74,4.54,3.54,7.19,7.92,8.58,6.16,1.96,12.43,1.48,18.7,1.29,4.99-.15,9.98-.53,14.97-.63,2.28-.05,4.77.17,5.76,2.75,1.07,2.8-.35,6.93-3.15,8.2-2.4,1.09-5.13,1.81-7.76,1.98-9.24.61-18.13-1.72-26.99-3.87-10.78-2.63-21.41-5.89-32.25-8.23-8.89-1.92-17.96-3.06-26.99-4.23-4.8-.62-9.69-.86-14.53-.78-8.08.12-15.95,1.34-22.65,6.47-.29.22-.78.2-1.19.29Z"/><path class="cls-4" d="M985.44,553.22c21.33-4.7,41.87-9.38,63.44-8.8-.26,1.37-.41,2.33-.62,3.27-2.13,9.35-2.2,18.68.44,27.94,1.53,5.37,5.09,8.75,10.52,10.25,4.46,1.23,8.92,1.57,13.53,1.13,16-1.52,31.19-6.55,46.63-10.51,9.67-2.48,19.44-4.46,29.39-5.45,4.97-.49,9.93-1.38,14.9-1.4,6.11-.03,12.29.21,18.1,2.56,2.7,1.09,5.24,2.58,6.68,5.15,3.3,5.86,2.96,8.26-.99,12.8-4.44,5.1-10.46,7.92-16.73,10.03-7.45,2.51-15.1,4.19-23,4.53-6.57.28-13.14.67-19.71.76-12.47.18-24.82-1.41-37.04-3.6-19.71-3.53-38.72-9.45-56.93-17.86-16.43-7.59-31.7-17.05-45.84-28.34-.77-.61-1.48-1.3-2.78-2.45Z"/><path class="cls-4" d="M634.81,553.47c-3.38,2.7-6.5,5.4-9.83,7.82-19.91,14.46-41.6,25.39-65.01,33.03-12.49,4.08-25.22,6.87-38.2,8.82-13.92,2.09-27.88,2.88-41.88,2.19-11.4-.56-22.71-2.12-33.34-6.74-4.9-2.13-9.44-4.75-13.02-8.84-3.52-4.02-3.67-8.6-.41-12.82,3.41-4.43,8.31-5.96,13.47-6.62,10.12-1.31,20.16,0,30.22,1.21,17.77,2.13,34.6,8.18,51.97,11.95,7.09,1.54,14.26,2.83,21.46,3.65,5.42.61,10.77-.32,15.61-3.32,4.76-2.95,6.04-7.77,7-12.69,1.74-8.83,1.15-17.59-1.49-26.19,9.67-2.49,46.12,3.65,63.44,8.56Z"/><path class="cls-4" d="M603.45,473.24c15.25-15.17,21.1-33.21,22.14-54.07,2.19,2.38,4.01,4.32,5.78,6.3,2.19,2.45,4.31,4.97,6.5,7.41,2.55,2.84,4.14,2.76,6.36-.37,3.57-5.03,7.37-9.8,12.38-13.55,6.58-4.93,13.67-6.99,21.71-4.34,3.81,1.25,6.67,3.5,8.45,7.3,4.05,8.63,5.18,17.54,4.26,27.02-1.13,11.7-4.88,22.49-9.91,32.94-.86,1.79-1.94,3.48-3.14,5.6-24.62-4.57-49.55-7.64-74.54-14.23Z"/><path class="cls-4" d="M942.47,487.45c-4.98-8.34-8.44-16.59-10.77-25.3-1.97-7.34-3.05-14.81-2.61-22.44.38-6.47,1.82-12.64,4.89-18.43,2.63-4.95,7.03-6.92,12.18-7.62,7.49-1.02,13.87,1.74,19.18,6.7,3.74,3.49,6.98,7.54,10.26,11.48,1.23,1.48,2.29,2.9,5.06,3.16,4.26-4.79,8.79-9.89,13.38-15.06,1.6.91,1.11,2.44,1.18,3.76.64,11.56,3.45,22.57,9.07,32.7,2.41,4.34,5.6,8.26,8.49,12.32,1.05,1.47,2.28,2.82,3.77,4.65-24.66,6.4-49.37,9.47-74.08,14.07Z"/><path class="cls-4" d="M677.02,407.59c-11.76-2.11-20.68,2.61-28.48,10.19-2.65,2.57-5.04,5.4-7.95,8.53-15.73-17.87-31.2-35.78-46.76-53.86.79-4.84,4.19-7.96,7.65-10.85,8.8-7.35,18.85-11.1,30.5-9.93,2.18.22,3.74.96,5.05,2.69,13.02,17.21,26.08,34.39,39.12,51.58.25.33.4.75.86,1.65Z"/><path class="cls-4" d="M980.07,426.31c-4-3.99-7.52-7.9-11.45-11.33-7.06-6.16-15.25-9.22-25.41-7.48,2.31-3.15,4.27-5.89,6.3-8.57,10.87-14.33,21.84-28.58,32.58-43.01,2.29-3.08,4.85-4.28,8.61-4.39,13.9-.41,24.85,5.22,33.56,15.73.45.55.81,1.18,1.2,1.77,1.26,1.91,1.23,3.54-.46,5.36-2.92,3.13-5.57,6.51-8.38,9.74-11.52,13.27-23.05,26.53-34.58,39.8-.74.86-1.45,1.75-1.98,2.37Z"/><path class="cls-1" d="M811.19,192.72c3.96-.29,7.93-.89,11.88-.79,2.92.07,5.96.67,8.7,1.69,6.35,2.38,9.9,7.19,11.47,13.8,2.29,9.64,2.17,19.11-.74,28.58-2.76,9-9.11,14.28-17.86,16.72-4.17,1.16-8.59,1.45-13.4,2.21v-20.13l-.06.05c3.2-.57,6.45-.97,9.6-1.74,3.9-.94,6.34-3.68,7.85-7.29,1.47-3.51,1.98-7.25,1.27-10.91-1.56-8.16-4.6-12.16-14.9-12.7-1.22-.06-2.45-.12-3.78-.19v-9.38l-.05.06Z"/><path class="cls-1" d="M811.24,234.81c-5.83-.27-11.67-.47-17.49-.85-1.82-.12-3.67-.53-5.39-1.13-4.71-1.64-7.34-4.94-8.23-9.97-1.44-8.09-.62-15.83,2.67-23.31,2.89-6.59,8.17-10.92,14.23-14.3,3.71-2.07,7.72-3.64,11.63-5.34.58-.25,1.37-.04,2.54-.04v12.85l.05-.06c-9.93,3.27-15.8,10.11-17.81,20.31-.16.83-.39,1.79-.12,2.52.29.81,1,1.72,1.75,2.02.47.19,1.64-.5,2-1.09.79-1.33,1.29-2.83,1.87-4.28,2.06-5.16,5.58-8.39,12.08-8.79.31,10.56,0,21.04.18,31.51l.06-.05Z"/><path class="cls-1" d="M811.24,306.19c-11.02-.01-22.03-.08-33.05,0-2.67.02-5.38.36-8,.9-2.88.59-4.88,2.48-5.36,5.44-.5,3.09.87,5.74,3.36,7.36,2.33,1.52,5.07,2.44,7.66,3.54,1.02.43,2.13.64,3.65,1.08-.68.61-1.03,1.2-1.39,1.21-6.7.16-13.45.11-19.36-3.55-7.48-4.64-7.8-15.88-1.1-21.58,5.03-4.28,10.97-5.3,17.11-5.41,12.16-.22,24.32-.09,36.48-.11l-.06-.05c0,3.74,0,7.49,0,11.23l.06-.06Z"/><path class="cls-4" d="M1053.13,562.86c-.54-5.28.04-10.23,1.68-14.99,1.25-3.6,1.87-3.65,4.89-3.49,9.42.51,18.77,1.58,27.96,3.61,2.72.6,5.35,1.96,7.77,3.41,4.06,2.44,2.37,7.71-.69,9.1-1.39.63-2.97.93-4.49,1.2-6.08,1.08-12.16-.15-18.25-.15-4.26,0-8.53-.12-12.78.06-1.96.08-3.89.77-6.09,1.24Z"/><path class="cls-4" d="M563.62,544.15c3.94,6.05,3.38,12.43,4.1,18.82-2.2-.5-4.06-1.09-5.96-1.34-7.99-1.05-15.95.42-23.93.37-3.24-.02-6.52-.28-9.7-.87-2.33-.43-4.03-1.92-4.37-4.65-.33-2.65.71-4.52,2.93-5.64,2.28-1.15,4.64-2.4,7.1-2.86,6.01-1.14,12.1-1.91,18.18-2.7,3.82-.5,7.67-.75,11.66-1.13Z"/><path class="cls-4" d="M741.81,503.27c7.21.78,13.38,1.44,19.22,2.07-.18,4.43-.38,8.51-.49,12.59-.07,2.57-.78,4.76-2.48,6-2.14-.41-3.85-1-5.56-.98-2.03.01-3.19,1.44-3.23,3.27-.03,1.77,1.12,3.16,3.04,3.56.69.14,1.48-.08,2.13.14,1.19.41,2.5.81,3.43,1.59,1.67,1.41,1.07,4.55-1.24,7.8-1.82,2.56-3.54,3.22-5.74,1.98-1.09-.62-2.16-1.45-2.95-2.42-3.82-4.66-5.15-10.09-4.44-16,.24-1.96.93-3.86,1.3-5.82.62-3.3.58-6.49-1.4-9.47-.71-1.07-.93-2.47-1.57-4.31Z"/><path class="cls-4" d="M979.32,519.13c-.72-1.99.44-2.23,1.67-2.15,2.39.16,4.13-.89,5.56-2.97,4.33,2.96,8.51-.09,12.76-.23,2.29,4.14,5.06,21.9,4.41,28.58-3.1.58-6.28,1.18-9.67,1.82-.67-3.45-1.1-6.95-2.06-10.29-1.06-3.67-2.57-7.22-3.98-10.78-1.11-2.81-3.05-4.41-6.31-3.85-.79.13-1.64-.08-2.38-.13Z"/><path class="cls-1" d="M696.13,212.42c7.75.03,14.15,5.88,14.18,12.98.03,6.84-7.33,13.95-14.5,13.4-8.07-.61-13.55-5.74-13.68-13.48-.12-7.18,6.7-13.44,13.99-12.9ZM687.26,225.08c-.69,4.27,3.03,8.67,8.62,8.98,4.2.23,9.08-3.2,9.42-8.51.29-4.56-4.13-8.59-9.13-8.79-4.22-.18-9.44,3.91-8.91,8.33Z"/><path class="cls-4" d="M865.04,543.68c6.86,6.46,6.95,14.6,9.81,21.78-4.69,1.87-9.41,1.03-14.62,1.55.24-6.36,1.03-12.33,2.37-18.23.35-1.54,1.37-2.92,2.44-5.1Z"/><path class="cls-4" d="M863.05,533.36c-4.91-1.5-9.47-2.89-14.67-4.47-.54-1.11.37-2.5,1.45-4.23.74.62,1.43,1.08,1.98,1.66,2.63,2.77,5.75,3.84,9.61,3.55,4.21-.33,9.41-5.33,9.27-9.48-.02-.47-.51-.93-1.04-1.84-1.16.78-2.23,1.36-3.13,2.15-.73.65-1.19,1.59-1.87,2.31-1.4,1.47-3.02,3.1-5.16,2.29-2.42-.9-4.46-2.62-5.14-5.3-.16-.65.57-1.52,1.29-3.27.75,1.74,1.03,2.44,1.34,3.12.77,1.66,2.2,2.23,3.85,1.93,1.64-.3,2.09-1.52,2.15-3.16.15-4.16.88-4.65,4.84-3.77,3.77.85,4.62,1.41,8.24,5.67-3.77,5.03-9.13,8.57-13.02,12.84Z"/><path class="cls-4" d="M737.32,529.94c3.41,5.71,3.45,7.41.36,10.72-4.16-1.39-6.2-4.18-5.61-7.68.43-2.53,1.31-3.07,5.25-3.05Z"/><path class="cls-4" d="M736.94,509.85c5.27,4.36,5.24,6.35.12,10.37-4.44-4.45-4.52-7.01-.12-10.37Z"/><path class="cls-4" d="M967.67,503.72c1.76,1.73,2.14,3.11.74,4.13-1.43,1.04-2.88.59-4.06-1.44,1.05-.85,2.14-1.73,3.32-2.69Z"/><path class="cls-4" d="M981.96,512.09c-1.7.9-3.06,1.62-4.28,2.26-1.69-1.19-1.68-2.45-.68-3.4,1.46-1.4,3.02-1.06,4.96,1.14Z"/><path class="cls-4" d="M970.23,514.5c-.55.41-.95.77-1.41,1.05-1.46.89-2.73.55-3.51-.88-.23-.42.03-1.53.42-1.79,1.17-.76,2.54-1.34,3.7.1.33.41.5.94.79,1.52Z"/><path class="cls-4" d="M979.67,503.85c-1.65.94-2.51,1.77-3.41,1.81-.64.03-1.84-.92-1.91-1.54-.16-1.36,1.07-1.9,2.24-1.77.78.09,1.51.7,3.08,1.5Z"/><path class="cls-4" d="M965.69,490.26c-.13,1.8-.16,3.27-2.1,3.31-1.92.04-1.71-1.42-1.62-3.05,1.13-.08,2.3-.16,3.72-.26Z"/><path class="cls-2" d="M633.96,297.5c-1.02-2.03-2.08-3.32-2.31-4.74-1.19-7.48-2-15.02.13-22.46,1.97-6.86,6.72-11.63,12.82-14.8,5.4-2.81,11.15-4.98,16.85-7.18,3.24-1.25,3.94-.51,4.37,2.83.96,7.3,2.07,14.58,3.07,21.53-4.88,1.14-9.72,2.11-14.47,3.42-4.98,1.38-8.59,4.88-12.24,8.36-3.65,3.48-5.35,8.15-8.23,13.02Z"/><path class="cls-2" d="M811.24,72.32V28.32c8.25,2.82,12.93,8.36,14.55,16.3,1.76,8.63-.79,16.39-6.38,22.95-2,2.35-4.47,4.94-8.23,4.7l.05.05Z"/><path class="cls-2" d="M881.89,265.3c.39-4.09,2.11-7.51,5.75-9.73,2.8-1.71,5.77-3.12,8.64-4.72,3.78-2.1,6.48-5.08,7.6-9.36,1.57-6-3.7-13.28-9.86-13.42-1.96-.04-3.97.36-5.39,2.3,2.92,2.4,4.2,5.23,2.75,8.96-.9,2.31-2.17,3.99-4.83,4.16-2.87.19-5.08-1.06-6.2-3.62-2.34-5.34-.8-10.1,2.59-14.32,1.39-1.72,3.35-3.16,5.33-4.19,2.76-1.43,5.71-2.66,8.72-3.42,4.3-1.08,8.12.67,11.65,3.02,1.17.78,2.27,1.66,3.77,2.77,1.11-5.13.02-9.59-1.35-14.29,6.06-1.55,8.85,3.01,12.42,6.82,1.45-5.76-1.19-10.39-2.28-15.35,5.33-2.98,7.88,2.31,11.98,3.87,1.03-5.48-2.43-9.57-3.69-14.25,3.82-3.18,7.31-2.96,14.29,1.23.23-1.01.77-1.97.56-2.71-.71-2.44-1.65-4.82-2.59-7.19-.51-1.29-1.17-2.52-1.71-3.67,2.04-2.27,4.41-2.01,6.64-1.85,2.22.16,4.41.68,6.93,1.09-.4-3.65-1.34-6.64-3.12-9.42-1.45-2.26-.86-3.59,1.76-3.66,2.96-.07,5.92.32,9.24.53.96-4.01-2.26-7.09-3.28-10.84,2.79-4.27,7.38-1.82,11.19-2.96-.72-3.19-2.54-5.63-5.25-7.96,6.39-11.06,10.16-23.04,13.78-35.12,0,4.1.2,8.21-.05,12.3-.33,5.39-.8,10.79-1.57,16.14-1.28,8.98-2.59,17.97-4.35,26.87-2.04,10.32-5.14,20.36-9.21,30.09-5,11.95-11.5,22.91-20.55,32.26-7.14,7.39-14.74,14.26-23.39,19.85-6.12,3.95-12.67,7.03-19.65,9.27-3.77,1.21-7.35,3.07-10.92,4.84-1.2.6-2.16,1.78-3.09,2.82-.92,1.03-1.66,2.22-2.47,3.34l-.82-.47Z"/><path class="cls-2" d="M811.19,306.25c0-3.74,0-7.49,0-11.23,5.16-.02,10.34.23,15.48-.11,6.65-.45,13.34-.65,19.89-2.27,4.36-1.07,8.43-2.53,11.87-5.52.52-.45,1.45-.43,2.4-.69.1,2.28-1.24,3.48-2.18,4.8-5.53,7.77-12.64,13.09-22.41,14.17-4.8.53-9.6,1.25-14.41,1.46-3.53.15-7.1-.39-10.65-.62Z"/><path class="cls-2" d="M621.05,540.18c-1.83-2.44-2.28-5.27-2.46-8.06-.48-7.4-.71-14.82-1.08-22.23-.13-2.54-.39-5.08-.62-7.94h5.02c.4,2.07.83,4.26,1.24,6.46,1.74,9.28,2.21,18.61,1.3,28.01-.2,2.05-1,3.48-3.4,3.75Z"/><path class="cls-2" d="M624.23,494.14c-4.04,2.23-8.21.78-12.17.2-5.8-.85-11.55-1.8-17.44-1.42-.39.03-.8-.2-1.72-.44.26-1.55.52-3.09.82-4.87,6.82-.28,13.22-.61,19.62-.77,3.38-.08,6.38,1.31,9.2,3.08,1.61,1.01,2.51,2.29,1.68,4.22Z"/><path class="cls-2" d="M600.6,500.17c-.56,11.32-2.82,21.87-7.29,32.1h-3.32c-.2-.43-.46-.7-.42-.91,1.61-8.5,3.23-16.99,4.88-25.47.19-.97.49-1.93.8-2.87.9-2.71,1.13-2.83,5.34-2.85Z"/><path class="cls-2" d="M811.19,234.87c-.18-10.47.13-20.95-.18-31.51-6.5.39-10.02,3.63-12.08,8.79-.58,1.45-1.08,2.95-1.87,4.28-.36.59-1.53,1.28-2,1.09-.75-.3-1.46-1.21-1.75-2.02-.27-.73-.04-1.69.12-2.52,2.01-10.2,7.88-17.04,17.81-20.31v9.38c1.33.07,2.55.12,3.78.19,10.3.54,13.33,4.54,14.9,12.7.7,3.67.2,7.41-1.27,10.91-1.51,3.6-3.95,6.34-7.85,7.29-3.16.76-6.4,1.17-9.6,1.74Z"/><path class="cls-2" d="M687.26,225.08c-.53-4.42,4.69-8.51,8.91-8.33,4.99.21,9.42,4.24,9.13,8.79-.34,5.31-5.23,8.75-9.42,8.51-5.59-.31-9.31-4.71-8.62-8.98Z"/></g></g></svg>