<?xml version="1.0" encoding="UTF-8"?><svg id="Layer_2" xmlns="http://www.w3.org/2000/svg" viewBox="0 0 3759.58 445.97"><defs><style>.cls-1,.cls-2{fill:#dda300;}.cls-2{font-family:Palazzo-Bold, Palazzo;font-size:175px;font-weight:700;}</style></defs><g id="Layer_1-2"><text class="cls-2" transform="translate(682.41 193.79)"><tspan x="0" y="0">The Chinese University of Hong Kong</tspan><tspan x="0" y="171">Faculty of Engineering</tspan></text></g><g id="Layer_2-2"><g id="Layer_1-2"><g id="_2NlABQ.tif"><path class="cls-1" d="M433.53,115.9c-.19,3.22-.34,6.44-.58,9.66-.37,5.06-.82,10.12-1.2,15.18-.25,3.31-.39,6.64-.65,9.95-.38,4.75-.83,9.5-1.23,14.24-.23,2.79-.45,5.57-.64,8.36-.24,3.52-.31,7.06-.71,10.56-.7,6.05-1.53,12.07-2.43,18.09-.74,4.98-1.5,9.97-2.54,14.89-2.29,10.81-5.3,21.4-10.24,31.35-.49.98-.76,2.06-1.14,3.14,2.14.28,4.05.71,5.97.76,6.72.19,12.25,3.3,17.61,6.94,3.34,2.27,5.85,5.24,7.8,8.72,1.42,2.55.95,5.49-.98,7.72-4.69,5.41-9.31,10.9-13.98,16.32-1.9,2.21-3.81,4.42-5.83,6.51-1.01,1.06-1.52,2.16-1.52,3.6,0,12.34,2.33,24,9.79,34.2,2.09,2.85,4.47,5.44,7.23,7.64.57.45,1.53.53,2.31.53.69,0,1.39-.46,2.09-.48,8.96-.26,17.93-.77,26.87-.61,5.87.1,11.71,1.17,17.1,3.88,6.36,3.2,9.52,8.35,9.66,15.42.07,3.22.13,6.43.2,9.87,1.28-.18,2.31-.22,3.28-.48,6.9-1.85,13.95-2.84,21.03-3.67,4.74-.56,9.5-1,14.27-1.18,5.08-.2,10.14.44,15.02,1.82,8.3,2.35,13.38,7.85,14.1,17.38.92,12.1.77,24.18.47,36.27-.1,3.97-.98,7.75-3.94,10.82-3.07,3.19-6.73,5.46-10.65,7.32-5.14,2.44-10.76,3.36-16.26,4.56-3.57.78-7.38.63-11.09.69-6.16.1-12.32.05-18.48.07-2.99-1.42-6.27-.3-9.41-1.2-3.18-.9-6.63-.8-9.91-1.4-3.85-.7-7.72-1.48-11.47-2.58-6.57-1.93-13.16-3.89-19.56-6.29-7.4-2.79-14.57-6.12-21.46-10.08-4.48-2.57-9.05-4.98-13.21-8.05-4.34-3.19-8.66-6.43-12.81-9.85-1.55-1.28-3.19-1.63-4.88-1.25-7.85,1.74-15.64,3.69-23.48,5.45-3.49.78-7.05,1.3-10.58,1.92-5,.88-9.98,1.81-15,2.57-2.42.37-4.9.34-7.34.63-5.08.59-10.13,1.39-15.22,1.87-2.9.28-5.84-.05-8.75.15-18.15,1.23-36.33,1.12-54.5,1.17-.2-.01-.39-.02-.59-.04-2.36-.18-4.73-.41-7.1-.5-3.92-.16-7.83-.23-11.75-.35-.19-.02-.38-.04-.57-.06-1.98-.12-3.95-.26-5.93-.36-4.11-.2-8.23-.27-12.33-.61-2.62-.22-5.19-.91-7.8-1.25-2.43-.31-4.89-.41-7.33-.64-1.92-.18-3.88-.23-5.72-.71-2.48-.66-4.97-.93-7.5-1.19-2.79-.29-5.51-1.16-8.27-1.68-2.87-.54-5.78-.92-8.65-1.46-1.97-.37-3.91-.93-5.87-1.36-3.62-.8-7.26-1.54-10.88-2.36-1.38-.31-2.71-.79-4.08-1.14-1.44-.37-2.83-.42-4.05.71-5.56,5.13-11.79,9.37-18.12,13.45-6.99,4.5-14.37,8.27-21.97,11.71-7.06,3.19-14.37,5.58-21.66,8.07-4.67,1.59-9.58,2.49-14.43,3.5-3.81.79-7.68,1.25-11.51,1.92-9.87,1.73-19.82,1.21-29.76,1.36-4.66.07-9.25-.63-13.69-1.47-6.76-1.27-13.46-3.37-19.14-7.58-3.19-2.36-5.94-5.21-6.97-9.2-.53-2.06-.8-4.22-.92-6.35-.15-2.6-.04-5.21.01-7.81.2-8.76.58-17.52.58-26.28,0-4.49,1.34-8.3,3.75-12,1.89-2.9,4.59-4.67,7.6-5.7,6.61-2.26,13.55-3.09,20.49-2.51,6.36.53,12.78.75,19.05,2.3,4.3,1.06,8.68,1.76,13.05,2.51,1.19.2,2.44.03,3.91.03.22-4.38.4-8.52.63-12.66.27-4.93,2.95-8.46,6.88-11.04,4.19-2.75,9.03-3.7,13.89-4.5,6.43-1.05,12.9-.6,19.36-.61,1.25,0,2.51,0,3.76-.01.2.02.42.04.62.06,3.3.39,6.59.89,9.9,1.07.98.05,2.22-.58,3-1.28,4.23-3.81,7.92-7.94,10.49-13.21,2.44-4.98,3.92-10.09,4.96-15.47.32-1.66.36-3.23.48-4.85.17-2.35.57-4.68.61-7.03.01-1.06-.36-2.29-.97-3.14-1.32-1.83-2.92-3.46-4.4-5.19-2.41-2.82-4.77-5.68-7.2-8.49-1.69-1.95-3.46-3.83-5.19-5.75-1.65-1.85-3.62-3.52-4.79-5.64-.74-1.34-.63-3.41-.32-5.05.57-2.9,2.58-5.14,4.64-7.1,5.75-5.49,12.39-9.22,20.53-9.95,2.27-.2,4.47-.89,6.61.09,1.32-1.06.29-2-.06-2.85-1.75-4.29-3.89-8.45-5.32-12.84-2.21-6.75-4.16-13.61-5.85-20.51-1.01-4.12-1.28-8.41-1.93-12.62-.63-4.09-1.45-8.16-1.98-12.27-.36-2.83-.3-5.72-.58-8.57-.36-3.55-.9-7.09-1.31-10.63-.09-.82.09-1.67.04-2.49-.12-1.53-.31-3.06-.49-4.58-.04-.3-.19-.59-.2-.89-.17-3.81-.27-7.62-.51-11.42-.12-1.84-.63-3.65-.72-5.48-.14-2.91-.05-5.83-.11-8.76-.02-.93-.21-1.86-.32-2.79.07-.07.2-.19.19-.2-.11-.15-.24-.27-.36-.4-.15-3.35-.28-6.72-.43-10.07.07-.07.2-.18.19-.2-.08-.16-.2-.31-.31-.46-.31-12.9-.61-25.8-.94-38.71-.03-1.13-.26-2.25-.39-3.38.08-.01.15-.03.23-.04-.09-.12-.18-.25-.27-.36.01-10.87-.05-21.73.07-32.59.12-11.37.43-22.74.66-34.5,2.65-.61,5.4-1.41,8.2-1.86,8.55-1.36,17.16-2.43,25.7-3.91,8.63-1.5,17.34-2.15,26.03-3.08,6.29-.67,12.58-1.32,18.88-1.87,5.89-.5,11.8-.82,17.69-1.28,4.45-.34,8.89-.77,13.33-1.17.16-.02.32-.04.47-.07,6.75-.35,13.48-.74,20.23-1.04,3.71-.16,7.42-.22,11.14-.22,8.45,0,16.91-.16,25.36.12,9.56.31,19.11,1.06,28.66,1.58,2.5.14,5,.15,7.5.21.23.01.45.03.68.04.93.15,1.85.37,2.79.43,4.46.29,8.93.43,13.38.82,5.46.49,10.89,1.2,16.33,1.78,4.32.46,8.65.79,12.96,1.3,4.31.5,8.61,1.14,12.92,1.7,3.68.48,7.38.93,11.06,1.42,4.92.66,9.84,1.26,14.72,2.08,3.65.61,7.29,1.4,10.87,2.3,3.14.79,2.88.95,3.48,3.97.98,4.98.51,9.98.54,14.97.1,20.59.06,41.18-.04,61.77-.03,6.78-.36,13.56-.55,20.33-.03.36-.06.71-.09,1.07v-.03ZM283.01,140.52v-9.37c-.85,0-1.43-.16-1.85.03-2.85,1.25-5.77,2.38-8.48,3.89-4.42,2.47-8.27,5.62-10.38,10.43-2.4,5.46-3,11.1-1.95,17,.66,3.66,2.57,6.07,6,7.27,1.25.44,2.61.74,3.93.82,4.24.28,8.5.42,12.76.62v14.68c3.52-.55,6.73-.77,9.77-1.61,6.37-1.78,11.01-5.62,13.03-12.19,2.12-6.91,2.2-13.82.54-20.84-1.14-4.82-3.73-8.34-8.36-10.06-2-.75-4.22-1.18-6.34-1.23-2.88-.07-5.78.36-8.66.58h0ZM283.05,114.77v15.22c1.31-.58,2.23-1.04,3.18-1.41,6.51-2.56,13-5.22,19.57-7.61,3.97-1.44,8.15-2.36,12.16-3.7,7.87-2.61,15.54-5.7,22.7-9.95.98-.58,1.87-1.29,2.82-1.92,6.09-4.02,11.16-9.09,15.11-15.18,1.76-2.71,3.27-5.66,3.37-8.77-6.32,3.19-12.58,6.45-18.93,9.5-3.74,1.8-7.75,2.91-11.84,3.66-2.93.54-3.78-.21-3.64-3.25.25-5.45,3.33-9.17,7.88-11.52,5.07-2.62,10.4-4.73,15.62-7.04,5.27-2.33,10.18-5.23,14.53-9.01,2.62-2.27,3.5-5.53,4.65-8.62.04-.12-.18-.34-.28-.55-.18,0-.41-.06-.58.01-.47.2-.94.44-1.39.69-8.26,4.49-16.86,7.99-26.16,9.66-3.21.58-4.94-.82-4.08-3.82,1.08-3.74,2.79-7.27,6.45-9.21,4.41-2.33,8.82-4.69,13.4-6.66,4.79-2.06,9.43-4.34,13.68-7.34,1.35-.95,2.53-2.2,3.56-3.5.61-.77,1.53-1.75.76-2.99-6.61,2.14-13.11,4.27-19.61,6.34-2.65.85-5.33,1.71-8.23.71-.47-3.21.84-5.82,2.52-8.2,4.11-5.83,9.44-10.2,16.05-13.01,4.51-1.92,9.06-2.86,13.94-1.76,1.33.3,2.75.16,4.13.22-.31-.85-.7-1.15-1.14-1.34-5.48-2.37-11.22-2.88-17.12-2.6-3.47.16-6.75,1-9.91,2.37-8.8,3.82-15.23,10.31-20.64,18.04-7.1,10.14-12.11,21.3-16.18,32.91-2.44,6.94-4.54,13.98-6.84,20.97-3.25,9.88-9.48,17.46-18.09,23.17-.43.28-.87.58-1.33.8-3.38,1.59-6.77,3.16-10.15,4.73v-44.37c-4.81,1.39-9.39,2.92-14.72,2.88.39-1.47.58-2.56.98-3.57.58-1.44,1.4-2.79,2-4.23,1.35-3.27-.44-8.19-3.48-9.74-2.33-1.19-4.49-.54-5.38,1.87-.5,1.33-.66,2.84-.68,4.27-.07,5.85-.07,11.71,0,17.55.02,2.37-.52,4.65-1.81,6.5-5.48,7.85-16.04,6.44-20.51,2.52-3.25-2.84-4.47-6.45-4.55-10.52-.12-5.85-.03-11.71-.03-17.55,0-.73.07-1.47-.04-2.19-.18-1.14-.45-2.26-1.96-2.42-1.53-.16-2.37.65-2.81,1.95-.23.67-.28,1.42-.29,2.14-.04,1.88.09,3.77-.04,5.64-.13,1.89-.55,3.77-2.54,4.67-3.46,1.57-9.66.43-11.97-2.84-.68-.96-1.56-1.98-.58-3.4.46.12.85.23,1.23.34,4.2,1.23,5.33.36,5.19-4,0-.31,0-.63-.04-.94-.21-2.15-1.23-3.49-3.36-4.35-2.89-1.17-5.66-.95-8.49-.17-2.85.78-4.7,2.95-4.65,6.09.21,11.28.08,22.57.09,33.85,0,.84-.12,1.71.07,2.5.61,2.39.98,4.94,3.97,5.78,2.58.71,5,.97,7.25-1.18-.66-.61-1.23-1.07-1.73-1.6-3.41-3.68-2.7-9.66,1.39-12.58,2.21-1.58,4.72-2.22,7.3-2.25,1.71-.03,3.67.03,5.11,1.75-1.68,1.02-3.15,1.95-4.66,2.82-1.21.69-1.74,1.75-1.79,3.06-.15,3.42,1.74,4.38,4.96,5.36,1.52.47,4.42-1.43,4.6-3.73.15-1.83.49-3.65.74-5.48,4.09,1.73,6.26,5.94,5.4,11.46-.91,5.87-5.79,6.31-10.55,6.73.27,2.49,2.09,3.69,3.54,5.08,1.99,1.93,5.12,2.34,7.55,1.09,4.88-2.54,7.88-6.31,7.72-12.09-.02-.77.16-1.53.28-2.55,1.9.66,2.86,1.86,3.3,3.3.98,3.17,1.51,6.34.79,9.75-1.51,7.22-4.38,13.56-10.2,18.38-5.59,4.62-11.85,6.16-18.93,4.5-6.64-1.56-10.41-7.86-9.26-14.95.83.38,1.47,1.04,1.9,1.95,1.6,3.38,5.46,3.96,7.87,1.2,2.65-3.04,1.87-9.86-1.39-12.17-.17-.12-.33-.28-.52-.34-3.5-.96-6.99-.9-10.2.85-3.73,2.04-5.14,5.75-6.39,9.57-1.25,3.8-1.33,7.76-1.74,11.66-.38,3.7.31,7.38,1.34,11.05,2.07-.22,3.92-.56,5.77-.59,6.58-.1,13.03.99,19.36,2.66,3.3.87,6.45,2.25,9.04,4.7.88.84.85,1.48.59,2.27-1.52.32-2.89.43-4.13.89-3.88,1.45-6.69,4.28-8.64,7.79-3.35,6.03-3.57,12.46-1.6,19,2.23,7.41,7.06,12.87,13.3,17.14,8.23,5.62,17.59,7.87,27.38,8.12,6.55.18,13.12-.36,19.68-.58v10.08c-8.87.01-17.74-.08-26.6.08-4.48.08-8.81.82-12.48,3.95-4.89,4.16-4.65,12.35.8,15.74,4.31,2.68,9.23,2.71,14.12,2.59.26,0,.52-.44,1.01-.88-1.11-.32-1.92-.47-2.66-.79-1.89-.8-3.89-1.47-5.59-2.58-1.82-1.18-2.81-3.11-2.45-5.37.35-2.16,1.81-3.54,3.91-3.97,1.91-.39,3.89-.64,5.83-.66,8.03-.07,16.07-.01,24.1,0-.02.63-.06,1.25-.06,1.88v72.12c0,.6.12,1.2.21,2.04,2.38.15,4.65.44,6.91.42,6.46-.08,12.93-.24,19.38-.47,3.84-.14,7.7-.34,11.53-.73,6.45-.66,11.63-5.16,12.97-11.97.58-2.98.35-5.79-.23-8.62-.63-3.08-2.11-5.86-4.16-8.24-.93-1.08-1.98-2.44-3.93-1.57.29.71.55,1.27.76,1.85.79,2.15,1.25,4.24.69,6.64-.83,3.49-3,5.52-6.02,7.03-3.43,1.72-7.1,2.29-10.86,2.33-5.96.07-11.92,0-17.88-.02h-8.23c.92-.54,1.33-.86,1.79-1.04,4.86-1.89,8.55-5.27,11.17-9.6,2.33-3.86,3.74-8.15,2.32-12.78-.66-2.13-1.48-4.21-2.23-6.3,2.26-.29,4.63-.47,6.96-.92,9.28-1.77,16.4-6.7,21.45-14.72,3.87-6.16,5.94-12.97,7.69-19.92.78-3.11,1.51-6.24,2.59-9.25,1.51-4.21,4.39-7.18,8.7-8.77,2.81-1.04,5.54-2.33,8.21-3.7,2.89-1.47,4.63-.64,4.9,2.57.08.96.12,1.93.2,3.21,4.49-2.67,4.35-7.26,5.86-10.95,2.53.24,3.01,2.41,4.02,3.92,3.87-2.23,2.55-6.49,4.24-9.82,1.08.46,2.31.66,3.05,1.37.82.79,1.19,2.06,1.79,3.19,3.06-3,2.47-6.95,3.11-10.57,2.84.2,2.88,2.79,3.98,4.35,3.4-3.17,2.59-7.31,2.75-11.2,2.68.15,3.32,1.99,4.06,3.61.31-.12.56-.15.67-.28,1.83-2.24,2.21-4.92,2.01-7.64-.18-2.43.34-4.37,2.01-6.27,2.34-2.66,4.08-5.77,4.94-9.28.08-.31.38-.58.7-1.04.98,3.84-2.76,26.17-4.92,30.22-2.01-.44-3.62-.5-4.83-.18.82,2.4,1.71,4.78,2.43,7.22.36,1.25-.18,1.79-1.4,1.48-1.13-.29-2.17-.48-3.42.27,1.87,3.14,3.34,6.28,2.4,9.92-1.81-.19-3.51-.37-5.63-.6.83,2.1,1.71,3.63,2.01,5.27.31,1.76.07,3.62.07,5.54-1.65-.47-2.89-.82-4.08-1.17-.19.41-.37.61-.34.77.12.6.28,1.2.49,1.77,1.36,3.71,1.17,7.31-.58,10.87-2.54,5.14-5.06,10.29-8.67,14.78-3.11,3.86-6.13,7.8-10.77,10.09-6.26,3.09-13.03,2.25-17.28-3.49-2.64-3.56-3.62-7.58-2.22-11.79,1.62-4.86,5.51-7.81,10.03-9.71,3.38-1.43,4.89-.41,6.85,2.31.24.34.41.73.59,1.1,1.59,3.17-.09,6.13-3.65,6.37-.83.06-1.68-.04-2.51,0-2.08.14-3.45,1.49-3.64,3.53-.3,3.14,1.33,4.95,4.7,5.32,7.18.78,13.21-4.92,13.43-12.07.19-6.21-2.64-11.29-7.8-14.76-3.37-2.27-7.25-2.85-10.92-.77-6.12,3.46-11.77,7.6-15.33,13.88-2.38,4.22-2.98,8.77-1.72,13.55,1.5,5.7,5.34,9.68,9.36,13.63,5.1,5,11.11,5.36,17.68,4.22,4.85-.85,8.61-3.52,12.19-6.52,1.29-1.08,2.41-1.38,3.96-.96,3.82,1.05,7.45.17,10.85-1.54,2.6-1.31,4.81-3.19,6.57-6.16-2.11,0-3.84-.01-5.57,0-1.8.02-3.55-.04-4.65-1.88.21-.52.32-1.06.62-1.46,4.4-5.99,7.59-12.64,10.42-19.47.57-1.38,1.39-2.08,2.95-2.37,4.78-.9,8.32-3.65,10.51-7.97.88-1.74,1.93-3.56,1.57-5.78-2.48,1.05-4.72,2.17-7.07,2.95-2.03.67-3.14-.42-2.66-2.43,1.72-7.13,3.57-14.24,5.22-21.39.39-1.71,1.31-2.47,2.81-2.87,2.73-.74,4.89-2.38,6.59-4.52,2.28-2.88,3.78-6.1,3.49-10.09-3.52.8-5.97,4.16-10.17,2.91.3-3.12.53-6.19.9-9.25.51-4.22,1.36-8.4,1.6-12.62.14-2.44.95-3.79,3.13-4.76,5.19-2.31,8.9-9.16,7.91-15.77-.57.38-1.06.7-1.55,1.03-1.62,1.12-3.21,2.3-4.86,3.36-1.2.78-2.34.68-3.36-.88.45-8.07.92-16.37,1.39-24.64,7.75-3.41,11.17-9.21,10.62-17.76-1.28.98-2.3,1.81-3.39,2.57-1.01.71-2.03,1.47-3.14,2-2.45,1.15-3.41.5-3.52-2.22-.19-4.58-.33-9.16-.65-13.73-.21-3.1-.67-6.18-1.07-9.26-.15-1.17.21-1.86,1.23-2.57,5.96-4.24,7.68-10.15,6.52-17.84-1.08,1.26-1.76,2.17-2.57,2.98-1.04,1.03-2.06,2.1-3.27,2.91-2.01,1.34-2.86.91-3.35-1.44-.17-.81-.44-1.62-.48-2.44-.28-5.2-1.28-10.28-2.6-15.29-1.23-4.65-3.18-8.96-6.45-12.57-1.28-1.41-2.7-2.65-4.98-3.25,1.23,2.17,2.42,3.88,3.22,5.75,2.2,5.12,2.79,10.63,3,16.1.15,3.58-.57,7.22-1.06,10.81-.4,2.95-2.87,4.99-5.82,5-3.41.01-5.9-1.76-7.9-4.31-.93-1.19-1.68-2.53-2.66-4.05-.49.88-.95,1.44-1.15,2.09-1.39,4.35-.53,8.41,1.75,12.24,2.13,3.59,4.75,4.26,8.39,2.29.82-.44,1.79-.62,2.79-.95.14.73.33,1.08.23,1.31-1.76,4.43-3.45,8.88-5.39,13.22-.59,1.32-1.98,1.98-3.64,2.02-3.66.09-6.13-1.76-7.94-4.65-1.12-1.78-2.02-3.7-3.12-5.77-.7.78-1.36,1.23-1.63,1.85-2.04,4.62-2.25,9.39.09,13.83,1.47,2.8,3.25,4.5,7.52,2.96,1.01-.36,2.09-.53,3.45-.88-.1,1.05.02,1.74-.25,2.21-2.12,3.7-4.22,7.42-6.51,11.01-1.9,2.96-5.67,3.6-8.42,1.41-2.17-1.74-4.44-3.55-4.37-6.86.02-.82-.51-1.66-.93-2.92-.96,1.04-1.76,1.7-2.28,2.53-1.79,2.91-2.49,6.1-2.38,9.52.15,5.05,4.13,7.56,8.2,6.03.85-.32,1.72-.63,2.76.31-1.39,1.83-2.7,3.55-3.99,5.28-1.36,1.81-2.6,3.7-4.06,5.41-2.35,2.76-7.91,3.04-10.62.07-2.65-2.91-4.5-6.21-4.85-10.2-.08-.91.09-1.93-1.28-2.41-1.43.9-2.57,2.18-3.42,3.77-2.14,4-2.68,8.31-2.14,12.72.6,4.91,3.76,7,8.79,6.19.96-.15,1.98-.02,3.66-.02-.82,1.23-1.16,1.97-1.7,2.48-2.19,2.08-4.43,4.11-6.68,6.13-.85.76-1.74,1.52-2.71,2.09-4.46,2.58-8.79,2.15-12.06-1.67-2.38-2.79-3.49-6.12-3.74-9.71-.15-2.06-.03-4.13-.03-6.74-1.41.69-2.44,1.08-3.36,1.64-1.69,1.04-2.73,2.63-3.77,4.3-2.56,4.09-3.76,8.42-3.6,13.29.15,5.1,3.95,7.9,7.65,7.61,1.55-.12,3.06.06,4.33,1.13-.09,1.58-1.23,2.11-2.28,2.79-3.95,2.56-6.45,6.19-7.25,10.82-.55,3.16-.79,6.37-1.06,9.58-.61,7.36-3.91,13.19-9.68,17.77-3.39,2.69-7.18,4.59-11.14,6.16-4.84,1.92-9.85,3.15-15.02,3.79v-18.71c-3.3-.26-6.2-.42-9.07-.72-3.6-.39-7.29-.54-10.78-1.41-11.38-2.84-16.29-9.82-17.04-20.57-.44-6.23.36-12.44.98-18.67.73-7.21,4.37-12.49,9.76-16.74,7.83-6.2,16.92-10.06,26.19-13.53h0ZM283.05,52.71l-.04-.04v17.07c.74-.27,1.12-.39,1.49-.55,4.35-1.93,8.05-4.73,11.33-8.17,7.56-7.93,11.89-16.98,9.78-28.19-1.57-8.33-6.29-14.35-14.07-17.85-2.65-1.2-5.48-1.44-8.64-1.64v6.53c-4.13-.14-7.99-.65-11.78-.29-3.96.38-7.15,2.97-10.7,5.64.13-1.14,0-1.88.29-2.29,1.11-1.5,2.17-3.13,3.6-4.28,4.41-3.57,9.53-5.4,15.23-5.51,1.01-.02,2.02-.12,3.19-.2v-6.08c-1.28,0-2.32-.02-3.36,0-7.19.2-14.38.38-21.57.63-3.54.12-7.07.38-10.6.57-8.2.44-16.42.87-24.62,1.33-3.74.21-7.48.46-11.22.74-2.28.17-4.56.39-6.83.65-4.84.56-9.67,1.19-14.51,1.76-4.12.48-8.26.84-12.38,1.39-5.34.71-10.66,1.53-15.99,2.37-6.54,1.03-13.08,2.09-19.61,3.23-1.58.28-3.08.96-4.59,1.44v3.17c.12,30.08-.74,60.17.57,90.24.18,3.95.37,7.9.6,11.84.41,6.96.81,13.91,1.28,20.86.36,5.29.8,10.57,1.23,15.85.63,7.66,1.25,15.33,1.93,22.99.39,4.45.69,8.92,1.41,13.32,1.34,8.17,2.75,16.32,4.88,24.34,3.11,11.72,7.64,22.83,13.91,33.21,7.73,12.8,16.85,24.55,27.39,35.15,3.97,4,7.99,7.98,12.3,11.58,6.53,5.46,13.12,10.87,20.07,15.76,7.48,5.26,15.29,10.06,23.15,14.74,9.67,5.75,19.78,10.61,30.71,13.58,1.95.53,3.82.63,5.91.49v-48.13h-10.96c-.27,1.38-.49,2.6-.76,3.8-1.46,6.58-5.54,9.82-11.24,11-.93.19-1.63-.13-1.84-1.35.36-.15.71-.28,1.06-.45,3.62-1.78,4.29-4.16,2.21-7.58-2.81-4.61-6.65-7.01-12.24-6.19-2.68.39-3.81,1.06-4.29,3.68-1.38,7.62-.12,14.45,6.34,19.56.77.61.74,1.15-.06,1.91-8.07-2.01-13.15-7.4-16.25-14.89-1.03-2.49-1.66-5.14-1.4-7.91.09-.98-.04-2.03-1.17-2.28-3.46-.75-8.12,1.59-8.31,5.53-.18,3.41,1.11,5.86,3.88,7.64.82.53,1.66.97,1.05,2.39-.73,0-1.57.14-2.34-.02-3.39-.72-5.97-2.71-8.24-5.28-3.54-4.02-4.34-8.79-3.36-13.73,1-5.08,4.61-7.99,9.6-9.07,2.42-.53,4.89-.91,7.35-1.18,1.74-.19,2.19-1.06,2.33-2.66.4-4.25,1.97-7.99,5.08-11.07,4.05-4.02,9.14-5.59,14.55-6.41,1.08-.16,2.32-.19,2.92,1.32-.88.6-1.75,1.14-2.57,1.75-4.36,3.22-6.23,7.68-6.22,12.96,0,2.28.69,2.99,3.08,3.47,1.72.34,3.51.34,5.24.65,4.25.77,8.5.75,12.7-.12,4.11-.86,7.45-3.04,8.77-7.15.97-3,.62-6.19-.69-9.16-1.57-3.56-3.81-6.67-6.35-9.6-1.04-1.2-2.17-1.78-3.81-1.66-3.22.25-6.44.43-9.66.48-9.28.15-18.54-.02-27.79-1.05-6.01-.67-11.91-1.69-17.55-3.87-6.83-2.64-12.86-6.35-16.76-12.86-2.1-3.51-3.57-7.21-4.18-11.49,2.08-2.04,4.97-2.67,7.66-3.63,2.8-.99,5.75-1.09,8.65-.86,2.82.22,5.62.78,8.67,1.23-.62-2.26-2.42-2.61-3.89-3-4.52-1.2-9.03-.77-13.54.42-5.81,1.54-11.14,4.04-15.85,7.7-4.67,3.62-8.31,8.03-10.25,13.82-1.28,3.79-1.09,7.5-.88,11.32-1.74.52-1.79.55-2.65-.77-4.24-6.38-7.23-13.33-8.61-20.85-.74-4.03-.37-8.12,2.01-11.73,2.71-4.1,6.33-7.19,10.64-9.44,11.2-5.83,23.28-7.53,35.69-6.7,4.58.31,9.35.88,13.21,4.04.22.18.98-.3,2.11-.69-1.63-1.17-2.69-2.18-3.95-2.8-4.55-2.25-9.52-2.88-14.48-3.17-6.98-.41-13.86.62-20.95,2.36-.45-.85-1.01-1.68-1.36-2.6-1.86-4.78-2.34-9.85-3-14.87-.36-2.78-.45-5.59-.8-8.37-.71-5.71-.95-11.43.21-17.08,1.39-6.78,4.56-12.46,10.89-15.93.53-.29,1.01-.69,1.37-.95v-3.94c-3.43-.48-6.73-.82-9.98-1.43-4.7-.87-9.04-2.63-12.19-6.38-1.45-1.72-2.67-3.71-3.62-5.75-.71-1.55-2.06-2.04-3.22-2.01-1.57.04-3.24.67-4.62,1.47-.71.41-1.25,1.72-1.25,2.63,0,1.49.5,2.98.78,4.46-1.63.42-2.65.04-3.74-1.58-1.61-2.41-2.33-5.01-2.14-7.97.31-4.69,3.06-8.23,7.66-9.41.98-.25,1.95-.53,3.09-.84v-2.84c-.01-6.37-.04-12.76-.04-19.13,0-16.62.01-33.24-.01-49.86,0-4.92-4.32-7.43-8.59-5.11-1.95,1.06-2.82,2.71-2.68,4.88.12,2.05,1.1,3.53,3.06,4.3.83.33,1.66.68,2.86,1.17-.95.62-1.49,1.14-2.13,1.36-6.03,2.11-12.48-1.68-13.22-8.31-.5-4.44,1.1-8.13,4.05-11.38,3.11-3.43,7.04-5.73,11.43-6.64,5.48-1.13,10.24-.61,13.78,5.27,1.77,2.95,2.2,6.21,2.2,9.58-.01,22.16-.03,44.32.01,66.48,0,3.64.29,7.27.5,10.9.5,8.7,7.64,15.48,17.66,14.52.15-2.14.31-4.26.47-6.48-.86-.43-1.68-.87-2.52-1.25-3.41-1.55-5.66-4.18-7-7.62-1.25-3.19-.89-6.28.73-9.23.27-.49.94-.76,1.44-1.14.29.42.39.5.4.59.06.72.09,1.44.14,2.17.15,1.92,1.04,2.88,2.83,3.06,2.7.26,5.07-1.62,5.4-4.36.12-.93.05-1.88.05-2.82,0-16.52.01-33.03,0-49.55,0-3.3.47-6.57,2.74-9.04,1.8-1.95,4.01-3.65,6.32-5,3.52-2.06,7.5-2.83,11.55-3.41,6.94-1,13.67-.5,20.2,2.04,5.46,2.12,9.06,6.29,8.74,12.92-.15,3.03-.06,6.06-.01,9.09.01.92.12,1.87.38,2.75.54,1.88,2.38,2.88,4.25,2.43,2.29-.55,2.85-1.18,2.87-3.72.02-6.59.04-13.17-.07-19.76-.07-4.03,1.84-6.67,5.26-8.49,3.96-2.1,8.24-2.39,12.38-1.28,5.2,1.4,9.27,5.34,8.77,11.33-.09,1.14-.17,2.34.09,3.43,1.04,4.51.26,5.39,6.18,5.11h-.04ZM158.61,396.27c-2.47-.05-2.61-.01-3-1.63-.53-2.2-1.25-4.49-1.12-6.7.25-4.34,1.09-8.65,1.56-12.98.59-5.4,1-10.76-1.66-15.91-1.79-3.47-4.45-5.35-8.23-5.91-2.05-.31-4.08-.78-6.11-1.2-6.1-1.25-12.14-3.08-18.31-3.61-8.82-.77-17.72-.79-26.58-.73-4.66.04-9.31,1-13.64,2.94s-7.58,4.84-8.01,9.87c-.33,3.73-.51,7.49-.58,11.24-.15,7.73-.18,15.46-.23,23.19,0,.9.09,1.79.12,2.47,19.21-6.32,38.59-5.99,58.16-3.35.17-3.07.2-5.87.5-8.65.64-6,1.87-11.94,1.76-18.01-.01-.79.13-1.6.2-2.33,3.73-.69,3.85-.61,4,2.7.31,6.89-.15,13.74-1.04,20.58-.28,2.22-.04,4.51-.04,6.69,3.06.56,5.83.97,8.57,1.58,17.73,3.97,35.34,8.48,53.28,11.46,6.05,1,12.11,1.91,18.17,2.8,2.13.31,4.28.45,6.29.66,2.47-4.4,2.53-6.17.23-8.55-.51.65-1.03,1.24-1.47,1.88-.47.69-.8,1.48-1.33,2.11-1.06,1.28-2.14,1.12-2.94-.33-.82-1.5-.32-2.84.6-4.04.82-1.07,1.81-2.02,2.72-3.03,1.89-2.07,3.03-4.18,1.09-6.95-.9-1.29-1.29-3.01-.26-4.44,1.98-2.74,1.61-5.6,1.03-8.65-.76-3.92-.4-7.69,2.6-10.8.6-.61.98-1.43,1.47-2.15-22.43-3.58-44.65-7.13-67.03-10.71-.77,1.36-.83,2.66-.04,4.1,2.71,4.94,2.36,10.28,1.68,15.57-.63,4.94-1.67,9.82-2.36,14.75-.26,1.9-.04,3.87-.04,6.04h-.01ZM190.76,356.34c.8.23,1.2.38,1.6.44,6.28.93,12.57,1.79,18.83,2.77,13.48,2.09,26.99,3.89,40.59,4.92,3.01.23,6.02.59,9.03.77,6.03.34,12.07.63,18.11.85,1.44.05,2.9-.3,4.35-.34,2.79-.06,5.59.09,8.39-.04,7.8-.37,15.61-.77,23.4-1.31,4.78-.33,9.55-.81,14.31-1.41,7.02-.88,14.02-1.9,21.02-2.92,7.52-1.1,15.02-2.26,22.53-3.43.26-.04.46-.38.71-.61-7.56-14.99-10.99-30.55-6.25-47.89-1.59,1.25-2.49,1.94-3.38,2.65-4.15,3.32-8.22,6.75-12.47,9.93-10.2,7.64-20.98,14.37-32.07,20.65-10.3,5.83-21.25,10.01-32.6,13.28-2.79.8-5.51.79-8.26-.07-3.67-1.16-7.35-2.27-10.99-3.51-8.9-3.04-17.25-7.24-25.36-11.97-13.72-8.01-26.87-16.8-39.03-27.05-1.68-1.42-3.41-2.79-5.12-4.19-.19.09-.39.18-.58.26,5.97,17.16,1.03,32.77-6.78,48.22h.01ZM428.1,394.94c1.76-.33,3.28-.72,4.83-.88,6.73-.67,13.46-1.46,20.2-1.83,4.14-.23,8.33.11,12.49.36,9.12.55,18.26,1.06,26.91,5.11.04-.96.13-1.79.12-2.6-.17-6.98-.36-13.96-.53-20.94-.09-3.87-.18-7.73-.23-11.59-.07-5.56-2.55-9.53-7.67-11.81-4.63-2.06-9.55-3.15-14.53-3.18-8.66-.05-17.32.2-25.96.65-3.81.2-7.61,1.07-11.38,1.82-5.9,1.17-11.76,2.53-17.65,3.77-2.71.58-5.43,1.07-8.27,1.63.42,2.98-.29,5.11-3.33,6.01-.53.15-.79,1.2-1.5,2.38,1.59,0,2.5-.02,3.42,0,4,.1,5.12,1.04,5.95,4.94.18.86.41,1.71.65,2.69,2.73-1.09,5.11-2.04,7.53-3.01-.52-2.26-1.04-4.38-1.48-6.51-.21-1.01-.32-2.05-.39-3.08-.09-1.36.74-2.2,1.95-2.47,1.14-.26,1.65.72,2.01,1.6.42,1.05.77,2.14,1.06,3.25.56,2.08,1.07,4.17,1.6,6.27,1.74,0,3.3-.06,4.86.02.91.04,1.93.11,2.69.53.61.34,1.25,1.23,1.26,1.89.01.66-.58,1.54-1.17,1.95-.63.44-1.55.46-2.36.63-1.28.28-2.57.53-4.2.88,1.06,7.32,2.08,14.29,3.13,21.49h-.01ZM314.42,413.76c.24-7.07.35-14.02,3.63-20.45-2.91-1.85-5.76-3.19-9.16-3.69-.19,1.32-.23,2.57-.6,3.72-.17.52-.96,1.1-1.52,1.16-.58.07-1.36-.34-1.81-.77-.39-.39-.47-1.12-.66-1.71-1.14-3.62.18-6.99,1.2-10.34,1.3-4.3,3.46-7.82,8.47-8.49,1.25-.17,1.78-1.06,1.61-2.26-.09-.69-.41-1.33-.63-2.03-21.75,1.99-43.31,1.97-65.05,0,1.77,3.9,2.16,7.64,1.2,11.53-1.04,4.23-1.98,8.48-2.92,12.73-.47,2.12-1.78,3.52-3.73,4.3-1.86.74-3.83,1.12-5.81.55-2.29-.66-4.54-1.46-6.81-2.18-.28-.09-.61-.05-1.11-.09-.47.68-.97,1.41-1.28,1.87,1.95,1.76,3.83,3.25,5.46,4.97,1.13,1.2,1.37,2.75.54,4.35-.58,1.09-1.31,1.55-2.52,1.05-1.32-.55-2.66-1.04-3.96-1.54-.82,1.57-.87,3.47-.14,5.71,28.37,2.68,56.88,2.96,85.62,1.62h-.03ZM409.07,389.72c-1.98.88-3.81,1.83-5.73,2.52-1.24.44-2.6.63-3.92.7-.47.02-1.33-.6-1.37-.98-.05-.6.29-1.5.77-1.82.74-.49,1.76-.52,2.61-.87.77-.32,1.92-.5,1.36-1.98-1.13.18-2.23.36-3.34.51-1.13.16-2.26.35-3.39.42-1.17.07-2.33-.01-2.55-1.99,1.06-.37,2.17-.83,3.32-1.13,1.2-.31,2.48-.37,3.65-.74.51-.16.87-.82,1.29-1.25-1.58-.17-2.92-.06-4.16.32-1.66.5-2.82.23-3.57-1.89,1.82-.71,3.52-1.39,5.75-2.26-1.58-.69-2.6-.47-3.54-.23-1.58.41-3.07-.04-4.06-1.01-2.03-2.01-2.48-4.71-2.48-7.5,0-2.14,1.11-3.46,2.9-4.43.77-.42,1.63-1,1.12-2.34-3.11-.18-5.73-1.14-5.95-4.83-22.19,3.27-44.23,6.51-66.3,9.76v2.59c3.46-.15,6.56.27,9.4,2.2,2.73,1.85,4.46,4.4,5.53,7.37,1.06,2.92,2.55,5.9,1.05,9.09-3.44.09-3.74-.15-4.06-3.03-.09-.79-.2-1.58-.33-2.6-3.82,1.65-6.09,4.49-8.28,7.62,5.54,5.64,7.57,12.68,8.91,20.2.88,0,1.59.06,2.29,0,3.82-.39,7.66-.75,11.46-1.25,6.39-.84,12.81-1.52,19.13-2.73,10.7-2.06,21.33-4.45,31.99-6.75,4.14-.9,8.25-1.93,12.35-2.9.4-3.32.06-6.21-1.83-8.77h0ZM560.51,416.04c0-3.89.08-7.43-.01-10.96-.19-6.67-.41-13.34-.78-20-.18-3.31-1.3-6.45-4.04-8.48-1.97-1.46-4.26-2.65-6.59-3.42-4.89-1.6-10.03-1.98-15.12-1.72-8.51.44-16.99,1.41-25.36,3.05-3.84.75-7.66,1.66-11.54,2.49,0,2.86-.29,5.49.06,8.04.85,6.16.07,12.27-.28,18.39-.09,1.63-.7,3.23-1.04,4.86-.44,2.11-1.78,3.48-3.65,4.4-2.47,1.23-5.07,1.9-7.83,1.82-5.94-.17-11.88-.42-17.82-.59-1.13-.03-2.32.04-3.4.34-2.2.61-2.84,1.85-2.32,4.01.8,3.35,3.35,4.97,7.35,5.05,4.04.09,8.18-.05,12.13-.85,7.31-1.48,14.5-3.57,21.75-5.31,5.75-1.38,11.51-2.77,17.31-3.86,4.69-.88,9.45-1.46,14.21-1.9,3.93-.36,7.91-.56,11.85-.43,4.05.14,8.04.98,11.68,2.99,1.06.58,2.08,1.25,3.43,2.08h0ZM4.79,415.82c.3-.07.65-.04.87-.21,4.89-3.74,10.63-4.63,16.52-4.72,3.53-.05,7.1.12,10.6.57,6.59.85,13.2,1.68,19.68,3.08,7.91,1.71,15.66,4.09,23.52,6,6.46,1.58,12.94,3.27,19.68,2.82,1.92-.12,3.91-.65,5.66-1.44,2.03-.93,3.08-3.94,2.3-5.98-.72-1.88-2.54-2.04-4.2-2.01-3.64.07-7.28.35-10.92.46-4.57.14-9.15.5-13.64-.94-3.19-1.01-5.24-2.95-5.78-6.26-.48-2.97-1.08-5.97-1.14-8.96-.15-6.96,0-13.94.03-21.17-.69-.2-1.66-.53-2.65-.74-2.73-.59-5.47-1.21-8.23-1.68-11.27-1.89-22.55-4.05-34.07-2.73-3.17.36-6.37,1.02-9.37,2.1-4.29,1.54-7.04,4.78-7.89,9.33-.42,2.24-.55,4.54-.68,6.83-.17,2.81-.26,5.63-.28,8.45-.04,5.7-.01,11.41-.01,17.17h0ZM410.09,403.43c.95.84,1.47,1.34,2.03,1.79,10.31,8.23,21.45,15.14,33.43,20.67,13.28,6.13,27.14,10.45,41.52,13.03,8.91,1.6,17.92,2.76,27.01,2.63,4.79-.07,9.58-.35,14.37-.55,5.75-.25,11.34-1.47,16.77-3.3,4.57-1.54,8.96-3.6,12.2-7.31,2.88-3.31,3.13-5.06.72-9.33-1.06-1.87-2.9-2.95-4.87-3.76-4.24-1.72-8.74-1.9-13.2-1.87-3.62.02-7.25.66-10.87,1.02-7.26.72-14.37,2.17-21.43,3.97-11.26,2.89-22.34,6.56-34.01,7.66-3.37.32-6.62.07-9.87-.82-3.96-1.09-6.56-3.55-7.67-7.48-1.93-6.75-1.87-13.56-.32-20.38.15-.69.26-1.39.45-2.38-15.73-.42-30.71,2.99-46.27,6.42h0ZM154.38,403.61c-12.63-3.58-39.21-8.06-46.27-6.24,1.93,6.28,2.35,12.66,1.09,19.1-.71,3.6-1.63,7.1-5.11,9.25-3.53,2.19-7.43,2.87-11.38,2.42-5.25-.59-10.49-1.54-15.65-2.66-12.67-2.75-24.94-7.16-37.9-8.72-7.34-.88-14.66-1.84-22.04-.88-3.76.49-7.33,1.6-9.82,4.83-2.38,3.08-2.27,6.42.3,9.35,2.61,2.98,5.92,4.89,9.5,6.45,7.75,3.37,16,4.51,24.31,4.92,10.22.5,20.4-.07,30.54-1.6,9.47-1.42,18.75-3.46,27.86-6.43,17.07-5.57,32.89-13.55,47.41-24.09,2.43-1.76,4.7-3.73,7.17-5.7h0ZM131.51,345.1c18.22,4.81,36.41,7.05,54.36,10.38.88-1.55,1.66-2.78,2.29-4.08,3.67-7.63,6.4-15.49,7.23-24.02.67-6.92-.16-13.41-3.11-19.71-1.3-2.77-3.38-4.41-6.16-5.32-5.86-1.93-11.03-.42-15.83,3.17-3.65,2.73-6.43,6.21-9.03,9.88-1.63,2.29-2.79,2.35-4.64.27-1.6-1.79-3.14-3.62-4.74-5.4-1.29-1.44-2.62-2.85-4.22-4.59-.76,15.21-5.03,28.37-16.15,39.43h0ZM378.75,355.46c18.02-3.35,36.03-5.59,54.03-10.26-1.09-1.33-1.98-2.32-2.75-3.39-2.11-2.97-4.44-5.82-6.19-8.98-4.09-7.39-6.15-15.42-6.61-23.85-.05-.96.31-2.08-.86-2.74-3.35,3.77-6.66,7.49-9.76,10.98-2.01-.2-2.79-1.23-3.69-2.3-2.39-2.88-4.76-5.83-7.48-8.37-3.87-3.62-8.53-5.63-13.99-4.89-3.76.51-6.97,1.95-8.88,5.56-2.24,4.22-3.29,8.73-3.57,13.44-.33,5.56.47,11.01,1.9,16.37,1.7,6.35,4.22,12.37,7.85,18.45h0ZM185.16,297.22c-.34-.66-.44-.96-.63-1.2-9.51-12.54-19.03-25.07-28.53-37.62-.96-1.26-2.09-1.8-3.68-1.96-8.5-.85-15.83,1.88-22.24,7.24-2.52,2.11-5,4.39-5.58,7.91,11.35,13.18,22.63,26.25,34.1,39.28,2.11-2.28,3.87-4.35,5.8-6.22,5.69-5.54,12.19-8.97,20.77-7.43h0ZM406.17,310.87c.38-.46.9-1.11,1.44-1.73,8.4-9.68,16.82-19.35,25.22-29.03,2.05-2.36,3.98-4.83,6.11-7.1,1.23-1.32,1.26-2.52.34-3.91-.28-.44-.55-.89-.88-1.29-6.36-7.66-14.34-11.76-24.48-11.47-2.74.08-4.61.96-6.28,3.2-7.83,10.52-15.83,20.92-23.76,31.37-1.48,1.95-2.9,3.95-4.59,6.25,7.41-1.27,13.38.96,18.53,5.46,2.87,2.51,5.44,5.36,8.35,8.26h0ZM459.46,410.46c1.6-.34,3.01-.84,4.44-.9,3.1-.13,6.21-.04,9.32-.04,4.43,0,8.87.9,13.31.11,1.11-.2,2.26-.42,3.27-.88,2.24-1.01,3.47-4.86.5-6.64-1.76-1.06-3.68-2.05-5.67-2.49-6.71-1.48-13.52-2.26-20.39-2.63-2.2-.12-2.65-.08-3.57,2.55-1.2,3.46-1.62,7.08-1.23,10.93h0ZM102.46,396.81c-2.91.28-5.72.46-8.5.82-4.43.58-8.87,1.14-13.26,1.97-1.79.34-3.52,1.25-5.18,2.09-1.62.82-2.38,2.18-2.14,4.11.25,1.98,1.49,3.07,3.19,3.39,2.32.43,4.71.61,7.07.63,5.82.04,11.62-1.04,17.45-.27,1.39.18,2.74.61,4.35.98-.53-4.66-.12-9.31-2.99-13.73h0ZM232.41,367c.47,1.34.63,2.36,1.14,3.14,1.45,2.17,1.48,4.5,1.02,6.91-.27,1.42-.77,2.81-.95,4.24-.52,4.31.45,8.27,3.24,11.67.58.71,1.36,1.31,2.15,1.76,1.6.91,2.86.42,4.19-1.44,1.68-2.37,2.12-4.66.9-5.69-.68-.58-1.63-.87-2.5-1.16-.47-.16-1.05,0-1.55-.1-1.41-.28-2.25-1.31-2.22-2.6.02-1.33.87-2.38,2.36-2.38,1.25,0,2.49.42,4.05.71,1.25-.9,1.76-2.51,1.81-4.38.08-2.98.23-5.95.36-9.18-4.25-.46-8.75-.94-14.02-1.51h.01ZM405.63,378.57c.54.04,1.16.19,1.74.09,2.38-.41,3.79.77,4.6,2.81,1.03,2.6,2.13,5.19,2.9,7.86.71,2.44,1.01,4.99,1.5,7.5,2.47-.47,4.79-.9,7.05-1.33.47-4.87-1.55-17.82-3.22-20.84-3.1.1-6.14,2.33-9.31.17-1.04,1.52-2.31,2.28-4.05,2.17-.9-.06-1.75.12-1.22,1.57h0ZM199.1,154.88c-5.32-.39-10.3,4.16-10.2,9.41.09,5.64,4.09,9.38,9.98,9.83,5.23.4,10.6-4.78,10.57-9.77-.03-5.18-4.69-9.44-10.34-9.47h0ZM322.28,396.47c-.78,1.59-1.53,2.6-1.78,3.72-.97,4.3-1.55,8.66-1.73,13.29,3.8-.38,7.23.24,10.66-1.13-2.09-5.23-2.15-11.17-7.15-15.88h0ZM320.83,388.94c2.84-3.11,6.75-5.7,9.5-9.36-2.64-3.11-3.26-3.52-6.01-4.14-2.88-.65-3.41-.28-3.53,2.75-.04,1.2-.37,2.09-1.57,2.3-1.21.22-2.25-.2-2.81-1.41-.23-.5-.44-1.01-.98-2.28-.53,1.28-1.06,1.91-.94,2.38.5,1.95,1.99,3.21,3.75,3.87,1.56.58,2.74-.6,3.76-1.67.5-.53.83-1.21,1.36-1.68.65-.58,1.44-1,2.28-1.57.39.66.74.99.76,1.34.1,3.03-3.69,6.67-6.76,6.91-2.82.22-5.09-.56-7.01-2.59-.4-.42-.9-.76-1.44-1.21-.79,1.26-1.45,2.28-1.06,3.08,3.79,1.16,7.12,2.17,10.7,3.26h0ZM229.14,386.45c-2.88-.01-3.52.37-3.83,2.22-.43,2.55,1.06,4.58,4.09,5.6,2.26-2.41,2.23-3.66-.26-7.82h0ZM228.86,371.8c-3.21,2.46-3.15,4.32.09,7.56,3.73-2.93,3.76-4.39-.09-7.56h0ZM397.13,367.33c-.87.7-1.66,1.34-2.42,1.96.86,1.48,1.92,1.81,2.96,1.05,1.02-.74.74-1.75-.54-3.01ZM407.55,373.43c-1.41-1.6-2.55-1.85-3.62-.83-.73.69-.74,1.62.5,2.48.9-.47,1.88-1,3.12-1.65ZM399,375.19c-.21-.42-.34-.81-.58-1.11-.85-1.05-1.85-.63-2.7-.07-.28.18-.47,1-.31,1.31.57,1.05,1.5,1.3,2.56.64.33-.2.63-.47,1.03-.77h0ZM405.88,367.42c-1.14-.58-1.67-1.03-2.25-1.09-.85-.09-1.75.3-1.63,1.29.05.45.93,1.14,1.39,1.12.66-.04,1.28-.64,2.49-1.32h0ZM395.69,357.51c-1.04.07-1.88.13-2.71.19-.07,1.19-.22,2.26,1.18,2.22,1.41-.03,1.43-1.1,1.53-2.41Z"/><path class="cls-1" d="M153.76,216.93c-.74-1.48-1.52-2.42-1.68-3.46-.87-5.46-1.46-10.95.09-16.38,1.44-5,4.9-8.48,9.35-10.79,3.94-2.05,8.13-3.63,12.29-5.24,2.36-.91,2.87-.37,3.19,2.06.7,5.32,1.51,10.63,2.24,15.7-3.56.83-7.09,1.54-10.55,2.49-3.63,1.01-6.26,3.56-8.93,6.1-2.66,2.54-3.9,5.94-6,9.5h0Z"/><path class="cls-1" d="M283.05,52.71V20.62c6.02,2.06,9.43,6.1,10.61,11.89,1.28,6.29-.58,11.95-4.65,16.74-1.46,1.71-3.26,3.6-6,3.43l.04.04h0Z"/><path class="cls-1" d="M334.57,193.45c.28-2.98,1.54-5.48,4.19-7.1,2.04-1.25,4.21-2.28,6.3-3.44,2.76-1.53,4.73-3.7,5.54-6.83,1.14-4.38-2.7-9.68-7.19-9.79-1.43-.03-2.9.26-3.93,1.68,2.13,1.75,3.06,3.81,2.01,6.53-.66,1.68-1.58,2.91-3.52,3.03-2.09.14-3.7-.77-4.52-2.64-1.71-3.89-.58-7.37,1.89-10.44,1.01-1.25,2.44-2.3,3.89-3.06,2.01-1.04,4.16-1.94,6.36-2.49,3.14-.79,5.92.49,8.5,2.2.85.57,1.66,1.21,2.75,2.02.81-3.74.01-6.99-.98-10.42,4.42-1.13,6.45,2.2,9.06,4.97,1.06-4.2-.87-7.58-1.66-11.19,3.89-2.17,5.75,1.68,8.74,2.82.75-4-1.77-6.98-2.69-10.39,2.79-2.32,5.33-2.16,10.42.9.17-.74.56-1.44.41-1.98-.52-1.78-1.2-3.52-1.89-5.24-.37-.94-.85-1.84-1.25-2.68,1.49-1.66,3.22-1.47,4.84-1.35,1.62.12,3.22.5,5.05.79-.29-2.66-.98-4.84-2.28-6.87-1.06-1.65-.63-2.62,1.28-2.67,2.16-.05,4.32.23,6.74.39.7-2.92-1.65-5.17-2.39-7.91,2.03-3.11,5.38-1.33,8.16-2.16-.53-2.33-1.85-4.11-3.83-5.81,4.66-8.07,7.41-16.8,10.05-25.61,0,2.99.15,5.99-.04,8.97-.24,3.93-.58,7.87-1.14,11.77-.93,6.55-1.89,13.11-3.17,19.6-1.49,7.53-3.75,14.85-6.72,21.94-3.65,8.72-8.39,16.71-14.99,23.53-5.21,5.39-10.75,10.4-17.06,14.48-4.46,2.88-9.24,5.13-14.33,6.76-2.75.88-5.36,2.24-7.96,3.53-.88.44-1.58,1.3-2.25,2.06-.67.75-1.21,1.62-1.8,2.44l-.6-.34h.02Z"/><path class="cls-1" d="M283.01,223.31v-8.19c3.76-.01,7.54.17,11.29-.08,4.85-.33,9.73-.47,14.51-1.66,3.18-.78,6.15-1.85,8.66-4.03.38-.33,1.06-.31,1.75-.5.07,1.66-.9,2.54-1.59,3.5-4.03,5.67-9.22,9.55-16.34,10.33-3.5.39-7,.91-10.51,1.06-2.57.11-5.18-.28-7.77-.45h0Z"/><path class="cls-1" d="M144.34,393.92c-1.33-1.78-1.66-3.84-1.79-5.88-.35-5.4-.52-10.81-.79-16.21-.09-1.85-.28-3.7-.45-5.79h3.66c.29,1.51.61,3.11.9,4.71,1.27,6.77,1.61,13.57.95,20.43-.15,1.5-.73,2.54-2.48,2.73h0Z"/><path class="cls-1" d="M146.66,360.34c-2.95,1.63-5.99.57-8.88.15-4.23-.62-8.42-1.31-12.72-1.04-.28.02-.58-.15-1.25-.32.19-1.13.38-2.25.6-3.55,4.97-.2,9.64-.44,14.31-.56,2.47-.06,4.65.96,6.71,2.25,1.17.74,1.83,1.67,1.23,3.08h0Z"/><path class="cls-1" d="M129.43,364.74c-.41,8.26-2.06,15.95-5.32,23.41h-2.42c-.15-.31-.34-.51-.31-.66,1.17-6.2,2.36-12.39,3.56-18.58.14-.71.36-1.41.58-2.09.66-1.98.82-2.06,3.89-2.08h0Z"/><path class="cls-1" d="M283.01,171.26c-.13-7.64.09-15.28-.13-22.98-4.74.28-7.31,2.65-8.81,6.41-.42,1.06-.79,2.15-1.36,3.12-.26.43-1.12.93-1.46.79-.55-.22-1.06-.88-1.28-1.47-.2-.53-.03-1.23.09-1.84,1.47-7.44,5.75-12.43,12.99-14.81v6.84c.97.05,1.86.09,2.76.14,7.51.39,9.72,3.31,10.87,9.26.51,2.68.15,5.4-.93,7.96-1.1,2.63-2.88,4.62-5.72,5.32-2.3.55-4.67.85-7,1.27h0Z"/><path class="cls-1" d="M192.63,164.12c-.39-3.22,3.42-6.21,6.5-6.07,3.64.15,6.87,3.09,6.66,6.41-.25,3.87-3.81,6.38-6.87,6.21-4.08-.23-6.79-3.43-6.29-6.55h0Z"/></g></g></g></svg>