<?xml version="1.0" encoding="UTF-8"?><svg id="Layer_2" xmlns="http://www.w3.org/2000/svg" viewBox="0 0 6995.67 2042"><defs><style>.cls-1{fill:#014b87;}.cls-1,.cls-2{stroke-width:0px;}.cls-2{fill:#4da9c5;}</style></defs><g id="Layer_1-2"><path class="cls-2" d="M3158.13,887.21c-1.86,2.28-3.47,4.83-5.61,6.8-74.76,68.84-148.95,138.33-224.56,206.24-77.13,69.27-157.54,134.65-242.07,194.81-79.15,56.33-161.66,107.01-249.97,147.85-66.08,30.57-134.32,54.93-205.64,70.12-35.51,7.56-71.28,13.81-107.63,15.19-29.61,1.12-59.32,2.42-88.88,1.15-52.66-2.27-104.52-10.9-155.59-24.16-83.65-21.73-162.57-55.16-238.45-96.14-68.13-36.79-132.91-78.86-195.73-124.04-87.99-63.27-172-131.58-254.26-202.05-64.02-54.84-127.59-110.22-191.45-165.24-2.84-2.45-6.65-3.79-10-5.64-1.5-2.06-2.68-4.5-4.56-6.14-27.52-23.98-55.04-47.96-82.76-71.72-12.08-10.35-24.61-20.18-36.93-30.25-1.57-1.69-2.97-3.57-4.73-5.03-80.6-67.21-162.75-132.41-249.27-191.91-85.51-58.81-174.4-111.67-270.22-152.17-98.96-41.83-201.42-68.5-309.4-71.29-9.19-.24-18.36-1.42-28.77-2.26,0-5.1,0-9.33,0-13.57,0-118.93,0-237.86.01-356.79,0-3.66.21-7.32.32-10.98h6c7.47,1.27,14.89,3.04,22.42,3.74,71.88,6.66,142,21.54,210.23,45.03,79.32,27.31,154.22,64.03,226.19,106.96,87.43,52.14,169.23,112.2,248.19,176.25,69.6,56.46,136.89,115.57,202.76,176.31,43.33,39.96,86.42,80.18,129.68,120.22,2.75,2.55,4.84,6.8,9.87,5.16,2.41,3.42,4.33,7.38,7.32,10.19,34.78,32.81,69.69,65.49,104.71,98.05,2.21,2.05,5.62,2.81,8.48,4.18-1.41,4.17,1.82,6.01,4.2,8.18,18.2,16.63,36.43,33.24,54.68,49.83,64.13,58.29,129.42,115.2,197.28,169.14,77.57,61.65,157.87,119.34,244.2,168.27,75.32,42.69,153.73,78.11,237.41,101.25,53.46,14.78,107.86,23.99,163.22,26.74,34.62,1.72,69.23.55,103.79-3.05,32.17-3.35,63.98-8.53,95.48-15.69,78.04-17.74,152.11-46.42,223.61-81.99,98.8-49.16,190.21-110.07,278.48-175.93,59.84-44.65,117.82-91.65,175.01-139.62,28.85-24.19,57.28-48.88,85.9-73.34.9.37,1.98.54,2.66,1.15,14.1,12.66,28.17,25.36,42.22,38.07,20.21,18.29,40.49,36.51,60.55,54.97,4.28,3.94,7.76,8.74,11.61,13.15Z"/><path class="cls-1" d="M0,1372c16.19-1.68,32.42-2.97,48.55-5.09,81.58-10.7,155.64-42.2,226.49-82.44,66.21-37.61,127.57-82.24,187.04-129.58,76.67-61.03,149.27-126.79,222.33-192.01,59.64-53.24,119.75-105.94,179.66-158.89,12.32,10.07,24.85,19.9,36.93,30.25,27.72,23.75,55.24,47.73,82.76,71.72,1.88,1.64,3.05,4.08,4.56,6.14-51.37,43.41-102.92,86.62-154.08,130.29-65.6,56-130.43,112.93-196.43,168.45-68.33,57.48-139.35,111.51-214.78,159.51-64.48,41.03-131.62,76.75-203.89,102.27-54.56,19.27-110.48,32.06-168.34,35.81-16.94,1.1-33.86,2.37-50.79,3.56,0-46.67,0-93.33,0-140Z"/><path class="cls-1" d="M6260,2042c-5.33-1.32-10.62-2.86-16.01-3.92-64.91-12.76-118.33-66.31-129.69-130.12-15.25-85.66,35.06-166.45,119.62-188.38,73.51-19.06,137.3,1.53,193.15,53.94-4.41,4.21-8.38,8.03-12.38,11.82-3.84,3.63-7.71,7.22-11.83,11.08-3.14-2.79-5.82-5.25-8.57-7.62-32.69-28.1-69.91-45.47-113.65-44.38-39.66.99-73.97,16.01-101.27,45.19-39.1,41.78-45.48,103.25-16.91,152.83,39.36,68.29,126.16,83.73,180.37,59.64,35.15-15.62,57.91-41.74,66.36-79.67.49-2.22.53-4.55.9-7.98h-99.27v-28.73c7.08-2.03,113.49-2.84,133.97-.96,2.07,7.77,0,15.64-.84,23.38-4.29,40.01-20.05,74.3-51.44,100.48-20.76,17.31-44.92,26.96-71.38,31.36-1.77.3-3.43,1.33-5.13,2.02-18.67,0-37.33,0-56,0Z"/><path class="cls-1" d="M1006,2042c-5.71-1.32-11.39-2.8-17.13-3.94-65.14-13.01-117-64.85-129.21-129.26-16.01-84.41,33.5-165.89,116.44-188.54,67.06-18.31,127.85-3.61,181.54,40.45,3.35,2.75,6.47,5.76,9.77,8.57,1.27,1.09,2.73,1.96,5.2,3.71-8.81,8.4-16.62,15.84-24.55,23.4-5.94-5.06-11.06-9.79-16.54-14.05-31.17-24.22-66-39.09-105.98-37.97-60,1.68-117.29,40.1-132.28,103.76-8.91,37.84-1.08,72.74,20.87,104.49,39.48,57.11,116.62,72.01,169.25,51.28,35.26-13.89,59.33-38.61,69.46-75.79,1.11-4.08,1.67-8.32,2.69-13.51h-99.19v-29.88h133.65c0,4.75.29,9.61-.05,14.43-2.18,31.18-10.58,60.27-29.64,85.59-23.66,31.43-55.62,48.83-94.04,55.23-2.14.36-4.18,1.35-6.26,2.04h-54Z"/><path class="cls-1" d="M5874,2042c-3.41-.98-6.78-2.14-10.23-2.92-67.01-15.15-117.52-67.68-126.79-135.86-12.21-89.79,42.16-164.66,118.73-184.22,103.4-26.42,190.98,38.12,207.53,129.77,15.56,86.14-39.2,169.05-124.4,189.35-4.34,1.04-8.57,2.58-12.85,3.89-17.33,0-34.67,0-52,0ZM6032.7,1877.73c.8-84.52-69.78-134.28-132.45-134.05-73.74.28-131.75,59.28-132.6,134.23-.83,72.74,57.39,134.08,132.25,134.13,71.52.04,133.39-55.17,132.81-134.32Z"/><path class="cls-1" d="M5322,2042c-4.33-1.27-8.61-2.76-13-3.79-81.13-19.01-135.56-97.75-123.43-180.36,10.3-70.18,48.81-118.99,117.54-138.18,98.9-27.62,189.48,32.39,208.12,125.73,18.37,91.99-41.81,176.95-131.07,194.4-2.11.41-4.11,1.45-6.15,2.2-17.33,0-34.67,0-52,0ZM5348.33,2012.01c75.23.15,133.39-58.16,133.33-134-.08-88.89-73.47-134.58-132.42-134.35-73.6.29-132.74,59.43-132.96,133.97-.22,74.99,57.99,134.23,132.05,134.37Z"/><path class="cls-1" d="M4398,2042c-5.04-1.25-10.03-2.69-15.11-3.73-64.92-13.23-114.74-65.18-125.02-130.98-5.4-34.57-3.69-68.68,12.19-100.52,27.77-55.67,73.13-86.51,135.01-92.95,32.45-3.38,63.79.93,93.7,14.2,25.19,11.18,45.9,27.93,62.87,51.23-8.1,6.22-15.9,12.22-24.13,18.55-2.06-2.16-3.88-3.94-5.56-5.84-33.58-37.91-75.97-52.3-125.63-46.59-28.99,3.33-54.5,15.07-75.84,34.9-31.95,29.68-44.46,67.18-41.64,110.04,4.45,67.71,60.56,119.64,128.88,122.24,45.43,1.73,83.59-12.86,114.55-46.17,1.35-1.45,2.53-3.07,4.37-5.33,8.42,6.39,16.22,12.31,24.61,18.67-2.18,2.87-3.78,5.3-5.69,7.45-26.04,29.35-59.05,45.86-97.29,52.75-2.14.39-4.17,1.37-6.25,2.08h-54Z"/><path class="cls-1" d="M6860,2042c-1.34-.73-2.6-1.76-4.04-2.14-21.04-5.57-38.05-17.21-51.63-34.05-7.28-9.03-13.9-18.49-19.31-29.72,8.64-5.23,16.82-10.19,25.8-15.63,1.97,3.03,3.75,5.66,5.43,8.36,6.72,10.8,14.25,20.93,24.1,29.14,21.21,17.68,49.62,18.72,72.09,2.67,22.75-16.25,28.7-46.64,12.83-69.95-6.13-9-13.66-17.29-21.65-24.73-11.19-10.42-23.43-19.72-35.19-29.53-13.29-11.09-27-21.73-39.72-33.44-13.4-12.34-20.8-28.14-23.44-46.3-5.89-40.48,23.39-78.27,64.29-82.75,26.78-2.93,50.21,4.35,69.52,23.23,8.28,8.1,15.64,17.15,24.42,26.87-9.21,7.01-17.48,13.31-25.65,19.53-7.11-7.89-13.3-15.31-20.08-22.15-10.57-10.65-23.46-15.89-38.65-15.73-32.62.33-51.55,30.87-37.25,60.49,4.87,10.09,12.11,18.32,20.91,25.13,12.12,9.37,24.34,18.62,36.58,27.84,16,12.05,31.49,24.66,44.62,39.89,14.57,16.9,23.82,36.05,24.09,58.8.42,35.55-23.38,68-58.51,80.07-3.26,1.12-6.36,2.72-9.54,4.1h-40Z"/><path class="cls-2" d="M0,1720c1.32.58,2.64,1.17,3.96,1.75-.02,104.05-.05,208.09-.07,312.14-1.3.04-2.59.07-3.89.11,0-104.67,0-209.33,0-314Z"/><path class="cls-1" d="M1177.84,746.08c-2.85-1.36-6.27-2.12-8.48-4.18-35.02-32.56-69.93-65.24-104.71-98.05-2.99-2.82-4.9-6.77-7.32-10.19,63.44-57.01,126.39-114.58,190.43-170.9,82.85-72.86,168.59-142.21,258.52-206.23,83.16-59.2,169.51-113.1,261.95-156.81,71.26-33.69,144.87-60.56,222.2-76.65,63.29-13.17,127.13-18.02,191.72-13.85,114.15,7.37,221.77,39.18,325.44,86,97.8,44.17,188.8,100.02,276.48,161.52,101.57,71.24,197.83,149.28,292.63,229.17,49.17,41.44,98.13,83.14,147.18,124.72.88.96,1.66,2.03,2.65,2.86,30.5,25.74,60.97,51.51,91.56,77.13,8.12,6.8,16.61,13.16,24.93,19.72,35.51,28.67,70.69,57.76,106.6,85.92,73.45,57.6,149.07,112.16,228.77,160.88,75.46,46.13,153.8,86.39,237.39,115.9,54.15,19.12,109.59,33.03,166.56,40.46,34.41,4.48,69.01,5.96,103.72,5.21,14.27-.31,28.56-.05,43.54-.05v368.97c-1.33.18-2.87.58-4.41.57-79.71-.8-157.93-11.53-234.36-34.72-83.56-25.35-162.4-61.41-238.28-104.27-92.46-52.23-178.97-113.22-262.64-178.38-105.25-81.96-205.09-170.25-303.74-259.92-6.9-6.28-13.73-12.64-20.75-18.79-2.18-1.92-4.86-3.28-7.3-4.9-3.85-4.41-7.32-9.21-11.6-13.15-20.06-18.45-40.34-36.68-60.55-54.97-14.05-12.71-28.12-25.41-42.22-38.07-.68-.61-1.76-.78-2.66-1.15-2.33-2.35-4.55-4.83-7.02-7.03-18.65-16.64-37.28-33.31-56.05-49.82-88.12-77.51-178.02-152.84-273.14-221.71-76.48-55.37-155.78-106.18-240.62-147.97-90.8-44.72-185.25-77.83-286.25-90.3-52.53-6.49-105.06-6.58-157.57-.45-56.75,6.62-112,19.93-166.04,38.42-82.3,28.16-159.6,66.84-234.02,111.49-89.3,53.58-173.77,114.17-254.98,179.19-63.21,50.6-125.09,102.86-187.56,154.38Z"/><path class="cls-1" d="M4866.23,10.04c3.66-.18,6.27-.41,8.88-.41,113.33.02,226.65,0,339.98.12,59.69.06,119.27,3.03,178.69,8.56,88.02,8.19,175.08,21.87,259.9,47.6,84.56,25.65,163.38,62.76,233.39,117.36,73.78,57.55,136.69,124.87,184.09,205.98,41.64,71.24,68.4,147.77,81.2,229.28,9.14,58.21,12.34,116.79,7.01,175.39-21.78,239.3-133.88,424.02-337.65,551.88-87.67,55.01-183.39,91.17-284.13,114.15-62.48,14.25-125.77,23.09-189.76,26.34-35.27,1.79-70.59,3.15-105.9,3.27-120.99.39-241.99.15-362.98.15h-10.74c-.51-.57-.73-.82-.95-1.07-.21-.25-.58-.48-.61-.75-.18-1.98-.4-3.98-.4-5.96-.02-490.26-.02-980.53-.02-1471.89ZM5130.59,120.11v1260.67h10.18c21.33,0,42.67-.08,64,.02,40.72.19,81.22-2.3,121.51-8.52,55.49-8.58,109.71-22.11,161.57-43.69,170.35-70.9,279.59-197.21,334.03-372.07,23.19-74.48,29.98-151.35,28.83-229.07-.83-55.89-7.61-110.99-22.76-164.83-41.25-146.5-124.16-262.77-253.42-344.27-100.14-63.14-210.76-93.04-328.38-97.97-36.61-1.53-73.32-.55-109.98-.69-1.62,0-3.24.24-5.57.42Z"/><path class="cls-1" d="M6341.27,175.61h-372.24c0-55.34,0-109.85,0-164.37,7.03-2.03,1008.73-2.87,1026.63-.79v165.08h-373.04v1313.62h-278.74c-.11-.11-.37-.32-.6-.56-.22-.24-.53-.48-.58-.77-.17-.98-.35-1.98-.35-2.97-.09-435.61-.17-871.21-.26-1306.82,0-.3-.2-.6-.83-2.42Z"/><path class="cls-1" d="M4422.12,10.02h278.9v1478.98h-277.7c-2.42-7.8-3.69-1436.32-1.2-1478.98Z"/><path class="cls-2" d="M3343.03,710.34c-8.32-6.56-16.81-12.92-24.93-19.72-30.59-25.63-61.06-51.4-91.56-77.13-.99-.83-1.77-1.9-2.65-2.86,8.67-6.65,17.72-12.86,25.94-20.02,55.05-47.9,110.04-95.86,164.81-144.07,75.04-66.04,149.65-132.57,228.18-194.5,68.1-53.71,138.44-104.14,214.44-146.26,61.12-33.87,124.74-61.68,192.77-78.58,31.69-7.87,63.72-14.12,96.44-15.45,26.61-1.08,53.26-1.37,79.89-1.97,1.3-.03,2.61.3,3.85.45,1.92,7.16,2.5,122.65.59,136.62-2.94.32-6.13.77-9.34.99-18.59,1.3-37.21,2.32-55.78,3.86-37.67,3.14-74.21,11.79-110.08,23.45-60.54,19.68-116.96,48.05-171.05,81.28-69.15,42.48-133.43,91.6-195.68,143.52-60.41,50.39-118.62,103.24-176.7,156.27-52.9,48.3-106.21,96.17-159.3,144.26-3.44,3.11-6.57,6.56-9.85,9.86Z"/><path class="cls-1" d="M2727.94,2034.46v-312.64c2.21-.3,4.12-.79,6.03-.77,32.32.29,64.65.29,96.96,1.12,19.99.51,39.93,2.8,59.12,8.8,39.74,12.42,69.05,37.57,85.62,75.63,21.05,48.34,22.23,97.72.84,146.42-20.63,46.98-57.28,73.2-108.22,78.91-14.53,1.63-29.23,2.24-43.86,2.42-28.99.37-57.98.11-86.98.11-2.92,0-5.85,0-9.52,0ZM2758.15,2004.21c1.48.32,2.42.73,3.35.7,32.59-.99,65.3-.69,97.75-3.39,39.2-3.26,68.92-22.74,86.84-58.59,12.48-24.95,14.76-51.45,12.24-78.81-5.32-57.82-45.45-99.93-102.85-108.17-29.8-4.28-59.73-4.3-89.69-4.25-2.55,0-5.09.38-7.65.58v251.93Z"/><path class="cls-1" d="M2228,2034.46v-312.59c2.4-.31,4.6-.84,6.8-.82,31.66.27,63.34-.08,94.96,1.21,17.55.71,35.36,2.64,52.4,6.71,43.5,10.4,75.49,36.48,93.51,77.38,21.59,48.99,22.42,99.04.27,148.24-20.73,46.04-57.17,71.63-107.26,77.32-14.2,1.61-28.56,2.26-42.86,2.43-29.66.36-59.32.12-88.99.12-2.62,0-5.24,0-8.84,0ZM2258.09,2005c10.95,0,20.94.12,30.91-.02,27.29-.41,54.66.13,81.65-4.96,32.31-6.1,56.98-23.3,73.02-52.12,14.62-26.26,17.85-54.61,14.77-84.15-6.14-58.83-45.79-99.79-104.21-107.94-30.82-4.3-61.75-4.14-92.71-4.04-1.2,0-2.39.65-3.43.95v252.29Z"/><path class="cls-1" d="M340.59,2033.45c-6.43,2.86-8.96-1.65-11.94-5.08-26.93-30.91-53.84-61.84-80.75-92.76-36.98-42.49-73.96-84.97-110.95-127.46-2.39-2.74-4.82-5.45-7.15-8.08-.69.3-1.02.39-1.29.57-.24.16-.58.4-.6.63-.15,1.65-.31,3.31-.31,4.97-.08,75.33-.15,150.65-.24,225.98,0,.27-.35.55-1.01,1.51h-30.63v-311.52c5.15-3.21,7.79.55,10.62,3.83,13.3,15.38,26.62,30.74,39.93,46.11,52.15,60.21,104.3,120.43,156.46,180.63,1.86,2.15,3.89,4.17,7.22,7.72v-238.93h29.52c2.23,7.3,3.27,284.13,1.12,311.85Z"/><path class="cls-1" d="M4924.09,2034.04h-31.8v-312.16c5.63-2.54,8.03,1.58,10.81,4.78,18.33,21.14,36.64,42.3,54.97,63.45,47.13,54.38,94.25,108.76,141.39,163.13,1.68,1.94,3.42,3.82,6.5,7.25v-238.75h30.99v311.64c-3.71,1.99-6.74,1.16-9.47-2.12-3.83-4.61-7.86-9.06-11.79-13.58-61.02-70.11-122.04-140.22-183.07-210.32-2.17-2.5-4.44-4.91-6.58-7.27-.62.23-.93.31-1.2.46-.27.15-.71.37-.71.56-.03,77.25-.03,154.5-.03,232.94Z"/><path class="cls-1" d="M3080.87,2034.02h-31.2c-2.18-7.89-3.16-276.15-1.12-311.57,4.9-3.52,7.68,0,10.57,3.33,15.92,18.39,31.85,36.76,47.78,55.14,49.52,57.15,99.04,114.31,148.58,171.45,2.06,2.37,4.33,4.55,8,8.39v-239.18h30.02v311.77c-3.62,2.26-6.6,1.03-9.25-2.1-2.8-3.3-5.65-6.56-8.49-9.83-62.77-72.12-125.54-144.25-188.32-216.36-1.7-1.95-3.56-3.75-6.56-6.89v235.86Z"/><path class="cls-1" d="M1325.48,1889.14c37.7,48.8,74.1,95.93,110.94,143.61-4.39,2.68-8.71,1.46-12.72,1.47-8.3.04-17.72,2-24.57-1.26-6.48-3.08-10.33-11.79-15.22-18.11-30.2-39-60.7-77.77-90.29-117.22-6.96-9.28-14.42-10.04-25.02-7.79v144h-30.31v-312.02c1.8-.26,3.69-.8,5.58-.78,32.99.29,65.99.41,98.98,1.15,9.59.22,19.32,1.47,28.68,3.59,40.15,9.09,65.71,45.08,61.6,85.98-4.1,40.79-29.26,67.46-70.28,74.08-8.53,1.38-17.21,1.77-25.83,2.56-3.17.29-6.36.41-11.54.74ZM1269.12,1857.54c1.75.29,3.02.67,4.28.68,19.95.1,39.91.41,59.86.09,8.6-.14,17.3-.98,25.74-2.61,26.16-5.08,42.56-26.21,41.73-52.94-.82-26.18-18.17-46.49-44.96-48.57-28.1-2.18-56.41-1.51-84.64-2.04-.54-.01-1.09.59-2.01,1.12v104.28Z"/><path class="cls-1" d="M4799.01,1721.52h30.85v312.4h-30.59v-149.83h-159.29v149.8h-31.12v-312.27h30.75v130.16h159.39v-130.26Z"/><path class="cls-1" d="M631.53,1721.47h178.26v30.14h-147.12v98.21c12.06.41,24.24.14,36.4.19,12,.05,24,.01,36,.01h73.55v30.37h-145.89v123.29c11.99.51,24.17.18,36.33.24,12,.06,24,.01,36,.01h73.57v29.81h-177.1v-312.27Z"/><path class="cls-1" d="M3359.69,2033.96h-34.77c1.89-4.15,3.33-7.4,4.85-10.62,46.12-97.81,92.24-195.62,138.36-293.42.85-1.81,1.54-3.71,2.57-5.4,2.96-4.83,8.07-4.89,11-.12,1.04,1.69,1.69,3.61,2.54,5.42,45.66,98.02,91.32,196.04,136.96,294.07,1.37,2.94,2.46,6.01,4.04,9.91h-33.22c-15.97-33.39-32.16-67.26-48.57-101.57h-135.55c-15.85,33.45-31.92,67.36-48.21,101.74ZM3528.29,1900.94c-4.31-14.28-48.11-105.74-52.72-110.55-12.63,21.49-50.31,103.63-50.68,110.55h103.4Z"/><path class="cls-1" d="M1769.09,2034.08h-33.42c-16.08-33.57-32.42-67.67-48.86-101.98h-135.06c-15.88,33.51-31.95,67.44-48.24,101.81h-34.51c1.6-3.77,2.76-6.78,4.14-9.69,46.27-98.15,92.56-196.29,138.85-294.44.85-1.81,1.52-3.73,2.57-5.41,2.95-4.71,8-4.49,10.85.45.99,1.72,1.68,3.62,2.52,5.43,45.51,97.77,91.02,195.54,136.52,293.31,1.5,3.22,2.86,6.49,4.64,10.53ZM1619.97,1788.26c-17.09,31.36-51.07,105.52-51.72,112.37h104.54c-17.67-37.61-34.85-74.16-52.82-112.37Z"/><path class="cls-1" d="M4026.52,1716.82h178.35c.6,9.61.43,19.34,0,30.33h-147.26v98.42h145.71v30.29h-144.49c-2.21,7.94-2.86,108.59-.87,123.49h145.44v29.01c-7,2.17-152.9,3.1-176.88,1.03v-312.57Z"/><path class="cls-1" d="M6582.54,1721.4h178.98c0,5.17,0,10.01,0,14.85s0,9.25,0,15.34c-25.07.14-49.56.05-74.06.07-24.26.02-48.53,0-73.42,0v97.96h145.25v30.46c-11.75.95-23.93.3-36.08.41-11.99.12-23.99.03-35.98.03h-73.27v123.26h145.48v29.98h-176.91v-312.38Z"/><path class="cls-1" d="M1987.93,1721.58h177.99v29.85h-146.88v98.29h145.88v30.77h-146.08v123.21c12.09.47,24.28.16,36.44.22,12,.05,24,.01,36,.01h73.57v29.79h-176.92v-312.14Z"/><path class="cls-1" d="M3892.99,2033.83h-32.01v-281.77h-68.99v-30.88h170.15v30.62h-69.15v282.03Z"/><path class="cls-1" d="M472.39,1751.76h-69.72v-30.57h170.33v30.28c-11.11.47-22.62.14-34.1.2-11.29.06-22.57.01-35.02.01v282.04h-31.49v-281.95Z"/><path class="cls-1" d="M1856.5,2033.79h-32.08v-281.81h-69.14v-30.75h170.29v30.25c-22.6.52-45.41-.1-69.07.35v281.95Z"/><path class="cls-1" d="M5570.32,1721.63c2.67-.21,5.26-.55,7.86-.58,7.24-.08,14.49-.03,22.47-.03v282.85c40.44.9,80.17-.12,120.39.57v28.35c-6.99,2.01-134.61,2.71-150.72.76v-311.93Z"/><path class="cls-1" d="M6493.05,1721.63h30.45v312.06h-30.45v-312.06Z"/><path class="cls-1" d="M3.89,2033.89c.02-104.05.05-208.09.07-312.14,9.61,0,19.21,0,29.46,0v312.14H3.89Z"/></g></svg>