<?xml version="1.0" encoding="UTF-8"?><svg id="Layer_2" xmlns="http://www.w3.org/2000/svg" viewBox="0 0 159.94 86.26"><defs><style>.cls-1,.cls-2{fill:#000;}.cls-1,.cls-2,.cls-3{stroke-width:0px;}.cls-2{fill-rule:evenodd;}.cls-3{fill:#f58025;}</style></defs><g id="Layer_1-2"><path class="cls-2" d="M62.24,51.96c-1.8,0-2.7,1.6-2.7,3.1,0,1.7,1,2.6,2.3,2.6,1.6,0,2.7-1.3,2.7-3.2-.1-1.7-1.1-2.5-2.3-2.5h0Z"/><path class="cls-1" d="M50.94,36.86l-.1.4.8.1c.3,0,.4.2.3.7l-1.3,6.1c-.2.8-.3,1.4-.5,1.8-.2.5-.4.6-.8.6h-.4l-.1.4h3.2l.1-.4h-.5c-.4,0-.7-.2-.6-.6,0-.5.1-1.1.3-1.8l1.3-6.1h0c1.3,3,2.5,6,3.7,9h.9l1.5-7.3c.2-.8.3-1.4.5-1.8.2-.5.4-.6.8-.6h.4l.1-.4h-3.2l-.1.4.5.1c.4.1.7.1.6.6,0,.5-.1,1.1-.3,1.8l-1.1,5.4h-.1c-1.2-2.8-2.3-5.6-3.4-8.3h-2.5v-.1Z"/><path class="cls-1" d="M61.94,36.86l-.1.4.8.1c.3,0,.4.2.3.7l-1.6,7.8c-.1.5-.2.7-.6.7l-.8.1-.1.4h7l.7-2.6h-.4c-.7,1.8-1.3,2.1-2.9,2.1-.7,0-1.3,0-1.5-.2s-.2-.4-.1-1.1l.7-3.3h1.8c1.2,0,1.2.3,1.2,1.3h.4l.6-3.1h-.4c-.3,1-.5,1.3-1.7,1.3h-1.8l.8-3.7q.1-.4.4-.4h1.6c1.7,0,1.7.6,1.5,2h.4l.5-2.5h-6.7Z"/><path class="cls-1" d="M69.74,36.86l-.1.4.6.1c.3,0,.4.2.4.6l.6,9.1h.9l3.7-8.2h.1l.7,8.2h.9l2.3-5.3c.8-1.7,1.4-3.2,1.7-3.7.4-.7.5-.8,1.3-.9l.1-.4h-3l-.1.4.9.1c.2,0,.2.2.1.5-.2.6-.7,1.8-1.5,3.7l-1.6,3.7h-.1l-.6-8h-1l-3.6,8.2h-.1l-.4-7.5c0-.3.1-.5.3-.5l.9-.1.1-.4h-3.5Z"/><path class="cls-1" d="M87.64,36.86l-.1.4.8.1c.3,0,.4.2.3.7l-1.6,7.9c-.1.5-.2.7-.6.7l-.8.1-.1.4h7l.7-2.6h-.4c-.7,1.8-1.3,2.1-2.9,2.1-.7,0-1.3,0-1.5-.2s-.2-.4-.1-1.1l.7-3.3h1.8c1.2,0,1.2.3,1.2,1.3h.4l.6-3.1h-.4c-.3,1-.5,1.3-1.7,1.3h-1.8l.8-3.7q.1-.4.4-.4h1.6c1.7,0,1.7.6,1.5,2h.4l.5-2.5h-6.7s0-.1,0-.1Z"/><path class="cls-1" d="M96.24,36.86l-.1.4.8.1c.3,0,.4.2.3.7l-1.3,6.1c-.2.8-.3,1.4-.5,1.8-.2.5-.4.6-.8.6h-.4l-.1.4h3.2l.1-.4h-.5c-.4,0-.7-.2-.6-.6,0-.5.1-1.1.3-1.8l1.3-6.1h0c1.3,3,2.5,6,3.7,9h.9l1.5-7.3c.2-.8.3-1.4.5-1.8.2-.5.4-.6.8-.6h.4l.1-.4h-3.2l-.1.4.5.1c.4.1.7.1.6.6,0,.5-.1,1.1-.3,1.8l-1.1,5.4h-.1c-1.2-2.8-2.3-5.6-3.4-8.3h-2.5s0-.1,0-.1Z"/><path class="cls-1" d="M114.34,37.46c-.8-.5-1.9-.7-3-.7-2.1,0-3.6.8-4.5,2.1-.9,1.2-1.3,2.8-1.3,4.1,0,1.5.4,2.7,1.1,3.4.8.8,1.9,1.1,3.1,1.1,1,0,2.1-.3,2.9-.6l.6-3c.1-.5.2-.7.4-.8l.6-.1.1-.4h-3.5l-.1.4,1,.1c.3,0,.4.2.2.7l-.5,2.2c-.1.4-.3.8-1.7.8-1.6,0-2.8-1.2-2.8-3.8,0-2.4,1.1-5.9,4.3-5.9,2,0,2.2,1.3,2.1,2.5h.4l.6-2.1h0Z"/><path class="cls-1" d="M121.34,47.16l.7-2.6h-.4c-.7,1.8-1.3,2.1-2.8,2.1-.7,0-1.3,0-1.5-.2s-.2-.4-.1-1.1l1.5-7.2c.1-.5.2-.7.6-.7l.8-.1.1-.4h-3.8l-.1.4.8.1c.3,0,.4.2.3.7l-1.6,7.8c-.1.5-.2.7-.6.7l-.7.1-.1.4h6.9Z"/><path class="cls-2" d="M131.54,47.16l.1-.4h-.5c-.4,0-.5-.3-.5-.9l-1-8.9h-1l-2.3,4.4c-.7,1.3-1.8,3.5-2.3,4.4-.4.8-.7.9-1.1,1l-.4.1-.1.4h3l.1-.4-.7-.1c-.3,0-.3-.2-.2-.5.4-.9.9-1.9,1.4-2.9h3l.3,2.9c0,.4-.1.6-.3.6l-.7.1-.1.4h3.3v-.2ZM128.94,42.66h-2.7c.7-1.5,1.5-2.9,2.2-4.4h0l.5,4.4h0Z"/><path class="cls-1" d="M134.14,36.86l-.1.4.8.1c.3,0,.4.2.3.7l-1.3,6.1c-.2.8-.3,1.4-.5,1.8-.2.5-.4.6-.8.6h-.4l-.1.4h3.2l.1-.4h-.5c-.4,0-.7-.2-.6-.6,0-.5.1-1.1.3-1.8l1.3-6.1h0c1.3,3,2.5,6,3.7,9h.9l1.5-7.3c.2-.8.3-1.4.5-1.8.2-.5.4-.6.8-.6h.4l.1-.4h-3.2l-.1.4.5.1c.4.1.7.1.6.6,0,.5-.1,1.1-.3,1.8l-1.1,5.4h-.1c-1.2-2.8-2.3-5.6-3.4-8.3h-2.5v-.1Z"/><path class="cls-2" d="M148.54,37.46c2.8.1,3,2.1,3,3.3,0,1.3-.3,2.5-.9,3.6-.8,1.4-1.9,2.3-4.2,2.3-.7,0-1.2-.1-1.1-.8l1.6-7.9c.2-.5.4-.5,1.6-.5h0ZM142.74,47.16h4.1c2.7,0,4.3-1.1,5.2-2.7.8-1.3.9-2.5.9-3.4,0-1.2-.4-2.4-1.2-3.1-.8-.7-2-1.1-3.5-1.1h-3.6l-.1.4.8.1c.3,0,.4.2.3.7l-1.6,7.8c-.1.5-.2.7-.5.7l-.8.1v.5h0Z"/><path class="cls-1" d="M30.34,86.16h12.3c9.8,0,11.7-6.1,11.7-10.2,0-5.2-3.1-7.5-6.1-8.2v-.1c5.4-.8,7.6-4.4,7.6-8.2,0-2.6-.8-4.6-2.5-5.8-1.8-1.3-4.4-1.7-7.3-1.6h-9.7l-.3,1.3,2.4.3c.9.1,1.2.7.8,2.4l-4.8,26c-.3,1.6-.7,2.2-1.7,2.4l-2.3.3-.1,1.4ZM42.44,68.66c4,0,7.5,1.4,7.5,7,0,4.4-2.2,8.8-7.6,8.8-4,0-4.2-1.2-3.8-3.2l2.3-12.6s1.6,0,1.6,0ZM41.14,66.86l2.1-11.5c.3-1.5.5-1.7,3.2-1.7,3.4,0,5.3,2.1,5.3,5.5,0,2.5-1,4.4-2.4,5.8-1.3,1.2-3.4,1.8-5.6,1.8l-2.6.1h0Z"/><path class="cls-1" d="M78.64,62.86c-9.6,0-11.9,11.2-11.9,15.1,0,4.9,2.3,8.2,7.4,8.2,4.4,0,7.2-2.4,9.1-5.8,1.9-3.3,2.5-7.1,2.5-9.6.1-6.2-3.8-7.9-7.1-7.9M78.64,64.46c2.5,0,3.3,2,3.3,4.8,0,3.2-2.1,15.4-7.6,15.4-2.3,0-3.6-1.6-3.6-4.8,0-5,2.5-15.4,7.9-15.4"/><path class="cls-1" d="M113.84,62.86l-.3,1c-.7-.5-1.9-1-2.9-1-9.6,0-14.2,11.9-14.2,17.9,0,2.7,1.1,5.4,3.9,5.4,4.3,0,8.1-5.6,10.4-10.2h.1l-1.4,5.2c-.8,3.2-.4,5.1,1.8,5.1,3.1,0,5.3-3.1,6.7-6.5l-1-.6c-.7,1.6-2.5,4.8-3.6,4.8-.8,0-.8-1-.4-2.5l4.4-18.4h-3.5v-.2ZM113.14,65.46c-.7,3.4-2.2,7.8-4.3,11.5-2.3,3.9-4.7,6.9-6.7,6.9-1.3,0-1.8-1.4-1.8-3.2,0-5,4-16.2,10.3-16.2,1,0,1.9.4,2.5,1"/><path class="cls-1" d="M129.14,52.06l-7.5,1.1-.2,1,2.3.3c1,.1,1.2.5.8,2.2l-6.1,29.5h1.3l1.5-3.2c.7,1.9,2.8,3.2,5.1,3.2,4.7,0,8.2-3.5,10.2-7.5s2.7-8,2.7-10.1c0-3.3-1.3-5.7-4.3-5.7s-7.1,3.1-10.2,9.3h-.1l4.5-20.1ZM135.24,68.96c0,3.3-2.4,15.6-8.4,15.6-2.1,0-3.3-1.6-3.3-3.9s.8-5.3,2.1-7.9c1.8-3.6,4.9-7.5,7.4-7.5,1.5,0,2.2,1.2,2.2,3.7"/><path class="cls-1" d="M147.84,62.86c-4.1,0-6.5,3-6.5,6.7,0,2.4,1.5,4.4,3.6,6.3,1.7,1.5,2.8,3.5,2.8,5.3,0,2.1-1.2,3.4-2.9,3.4-1.5,0-3-1.4-3.6-3.8-.2-.9-.6-1.4-1.3-1.4-1.2,0-2.1,1.2-2.1,2.4,0,1.9,2.2,4.3,6.1,4.3,4.4,0,7-3.1,7-6.8,0-2.5-1-4.4-3.7-6.9-2.4-2.2-2.9-3.7-2.9-5,0-1.4,1-2.9,2.5-2.9,1.3,0,2.4,1,3.2,3.1.2.5.5.9,1.1.9.8,0,1.9-.7,1.9-2.1-.1-1.3-1.6-3.5-5.2-3.5"/><path class="cls-1" d="M157.54,63.96c1.1,0,2,.9,2,2.1s-.9,2.1-2,2.1-2-.9-2-2.1c.1-1.2.9-2.1,2-2.1M157.54,68.36c1.3,0,2.4-1.1,2.4-2.4s-1.1-2.4-2.4-2.4-2.4,1.1-2.4,2.4c0,1.4,1.1,2.4,2.4,2.4M157.24,65.06q0-.1.3-.1c.2,0,.5.1.5.5s-.2.5-.6.5h-.2v-.9ZM157.54,67.26h0l-.2-.1c-.1,0-.1-.1-.1-.2v-.8h.2c.2,0,.3.1.4.2.1.1.1.4.2.7.1.2.2.3.5.3h.3v-.1c-.1,0-.2-.1-.2-.1-.1-.1-.1-.2-.2-.4-.1-.3-.1-.5-.5-.6h0c.4-.1.6-.3.6-.6,0-.4-.2-.6-.9-.6h-1.2v.1h.2c.1,0,.1.1.1.2v1.8c0,.1,0,.2-.1.2h-.2v.1l1.1-.1h0Z"/><path class="cls-1" d="M90.14,83.76c-.8,0-.8-1-.4-2.5l5.5-25.6.8-3.8-7.4,1.2-.2,1,2.3.3c.7.1,1,.3,1,1.1l-5.5,26.2c-.6,2.6-.1,4.4,2.1,4.4,2.9,0,5.2-3.1,6.5-6.5l-1-.6c-.8,1.6-2.6,4.8-3.7,4.8Z"/><path class="cls-1" d="M64.24,78.96c-.7,1.6-2.5,4.8-3.6,4.8-.8,0-.8-1-.4-2.5l1-4.4h0l2.2-10.2.8-3.8-7.5,1.1-.2,1,2.3.3c.7.1,1,.3,1,1.1l-2.2,10.5h0l-1,4.9c-.6,2.6-.1,4.4,2.1,4.4,2.9,0,5.2-3.1,6.5-6.5l-1-.7Z"/><path class="cls-1" d="M58.64,29.76c-.7-.1-1.3,0-1.6.2-.1,0-.1.1-.2.1-3.8.1-10.6,1.3-15.6,7-.1.1-.1.2-.3.1-.1-.1-.3-.1-.4-.2-.2-.1-.1-.2-.1-.3,2.2-6,7.9-9.1,11.2-10.4h.2c.4,0,.9,0,1.5-.2.9-.3,1.6-.7,1.5-1s-1-.3-1.9,0c-.6.2-1,.4-1.3.7-.1.1-.2.1-.3.2-2.8,1.1-9.1,4.4-11.4,10.6-.1.2-.2.4-.4.3-.8,0-1.2.2-1.6.7-.9,1.1-1.6,2.9-2,3.6-.1.2-.4.1-.4-.1-.4-4.6-3.1-28.8-14-39.4-.3-.3-.6-.5-.9-.7-1.2-.8-2.8-1.2-4.2-.8-1.8.4-2.7,2.1-3.4,3.6-.9,2-1.6,4-2.3,6.1-1.2,4.2-1.9,8.6-1.9,13v.7c.1,1.6.9,3.3,2.2,4.5,0,0,1.1,1.3,4.5,3.8.1.1,0,.3-.1.3-1.5-.4-2.6-.6-3.3-.7-4.2-.8-8.3.6-10.6,4-2.1,3.2-2,7.4,0,10.8.1.2.2.5.1.8-.5,2,.4,4.3,2.5,5.7.2.1.3.2.5.3.3.1.4.4.5.7.1,1.6,1,3.2,2.6,4.3.9.6,2.1.9,2.4,1,4.8.6,16-5.3,16.3-5.4.3-.2.7.1.5.3-.4.5-.8,1-1.3,1.5-.6.6-1.3,1.1-2,1.6-1.2.8-2.4,1.5-3.7,2.1-.7.3-1.4.6-2.1.9-.3.1-.6.3-.9.5-.8.7-2.2,3-2.5,3.9-.1.4-.2.9.1,1.2.6.5,3.3-1.1,7.3-3.5,1.7-1,3.4-1.9,4.9-3.1,2.1-1.6,3.9-3.8,5.4-6,.4-.5.9-.9,1.3-1.3,1.3-1.4,2.5-2.7,3.2-4.5.6-1.5,1-3,1.1-4.6,0-.3.3-.4.5-.4.6.2,1.7.5,2.4.7.8.2,2,.6,2.5-.3.5-.8-1-3.8-1.6-4.9-.1-.1-.1-.3,0-.4,4.9-5.6,11.5-6.7,15.2-6.8.1,0,.2,0,.3.1.3.2.8.3,1.4.4,1,.1,1.8-.1,1.8-.5.2-.3-.6-.7-1.6-.8ZM24.94,9.96c.4.5,3.7,4.7,1.9,4.9-1.9.2-6.5-4.9-6.5-6.3.1-1.9,2.9-.8,4.6,1.4ZM16.74,3.26c.3-.4.7-.6,1.1-.6.5,0,1.1.4,1.5.8s.8.9,1,1.4c.2.6.2,1.2-.2,1.7-.8,1-2.3.2-3-.6-.6-.6-1-2-.4-2.7ZM15.04,11.36c-.8-.3-2.1-1-2.2-2.2-.1-.8.6-2,1.4-2s1.6.7,2.1,1.4c.8,1.2.5,3.4-1.3,2.8ZM27.94,49.06c-.4.6-1,1.2-2.6,2.1-2.9,1.5-4.4,2.3-7.3,3.3-1.8.7-3.6,1.3-5.5,1.8-1.2.3-3,.2-3.8-1.1s.6-1.8,1.5-2.1c3.1-.9,10.1-2.6,12.4-3.3s4.3-1.3,4.8-1.3c.3-.1.8.3.5.6ZM29.04,43.76c-4-1.3-9.2-1.4-10-1.7-.7-.3-.1-1,.2-1.4.5-.7,1.1-1.6,2.7-1.6s4.6,1.4,6.4,2.3c1.8.9,2.4,1.5,2.6,1.9.2.5-.4,1-1.9.5Z"/><path class="cls-3" d="M19.74,11.66c.7.5,1.2,1.1,1.8,1.6.7.6,1.3,1.2,1.9,1.9.4.4.8,1,.8,1.6v2.1c0,.2,0,.6-.2.7-.2.2-.5-.1-.6-.2-.6-.4-1.2-.8-1.7-1.3l-3.3-2.5s-1.7-1.2-1.3-2.2c.3-.7,1.1-2,1.9-2,.1,0,.4.1.7.3Z"/><path class="cls-3" d="M23.84,23.06l1.1,2.8c.1.3.3.8,0,1s-.7-.2-1-.3c-1.1-.7-2.2-1.4-3.2-2.1l-6.3-4s-3.2-1.9-3-3.2c.1-.9.6-2.5,1.8-2.5.5,0,.9.2,1.4.5,1.2.7,2.4,1.7,3.5,2.6,1.3,1,2.6,1.9,3.8,3,.6.6,1.6,1.4,1.9,2.2Z"/><path class="cls-3" d="M7.34,34.26c1.3-.4,2.8-.3,4.2,0,2.3.5,4.6,1.5,6.6,2.9.3.2.5.4.6.7.2.6-.3,1.2-.9,1.1-.3,0-8.9-1.8-10.8-2.2-.5-.1-1.2-.3-1.3-.9-.2-.8.9-1.4,1.6-1.6Z"/><path class="cls-3" d="M3.44,44.06c-.7-.6-.7-2-.5-2.7.4-1,1-1.6,2-1.9,1.1-.4,2-.3,3-.2,2.2.3,7.9,1.2,8.5,1.5.5.3.5.9,0,1.1-1.2.6-3.4.8-6.8,1.5-2.5.6-5.4,1.3-6.2.7Z"/><path class="cls-3" d="M6.24,50.56s-.1,0-.1-.1c-.5-.3-.9-.9-.9-1.5s.2-1.2.7-1.7c.5-.4,1.1-.6,1.7-.8,1.5-.5,7.1-2.2,8.5-2.3,3.5-.3,6-.1,9.4.4,1.4.2,2.2.4,2.5.7.4.4-.1.7-.5.8-5.4,1.6-10.5,2.7-16,4.1-2.7.8-3.9,1.1-5.3.4Z"/><path class="cls-3" d="M28.74,29.56c-.7-1.4-2.8-6.6-3-8-.1-.5-.2-2.3.7-2.3,1.8,0,2.6,2.5,3,3.5,1.1,2.6,1.7,5.3,2.3,8,.4,1.5,1.4,5.1.8,5.3-.7.3-2.9-4.6-3.8-6.5Z"/><path class="cls-3" d="M32.54,42.06c-1.2-1-2.2-2-3.9-3.4-5.2-4.3-8.6-6.9-14.5-11.1-1.1-.7-2.1-1.5-2.4-2.7-.1-.5,0-.9.2-1.3.8-1.6,2.6-.5,2.6-.5l9.1,5.7c2.5,1.5,3.2,2.8,3.2,2.8,0,0,6.3,9.6,6.6,10.1s-.4.8-.9.4Z"/></g></svg>