<?xml version="1.0" encoding="UTF-8"?><svg id="Layer_2" xmlns="http://www.w3.org/2000/svg" viewBox="0 0 439.2 439.2"><defs><style>.cls-1{fill:#eaa8a9;}.cls-2{fill:#2f683f;}.cls-3{fill:#a8d2b9;}.cls-4{fill:none;stroke:#407f9f;stroke-miterlimit:10;stroke-width:13px;}.cls-5{fill:#af3336;}</style></defs><g id="Layer_4"><path class="cls-2" d="M227.67,385.43c-2.3,1.4-6.9,2.7-10.2,3-3.5.3-8.2,0-11.2-.8-2.8-.8-7.3-3-9.9-5s-5.4-4.9-6.1-6.5c-.8-1.6-2-4.9-2.6-7.4s-1.4-16.5-1.7-31.2c-.3-14.7-.4-27.9-.1-29.6.2-1.6,1.5-4.8,2.8-7.3,1.2-2.5,4.4-6.1,6.8-8,2.6-2,6.9-4.1,9.7-4.9,3.7-1,7.2-1.1,12.9-.2,5.5.9,8.8,2,10.9,3.6,1.7,1.2,4.5,4.1,6,6.3,1.6,2.2,3.5,6,4.1,8.5.6,2.4,1.4,15.1,1.7,28.1.3,13.1.5,26.1.4,29.1,0,2.9-.9,7.2-1.9,9.4-.9,2.2-3,5.4-4.7,7.2-1.5,1.8-4.7,4.4-6.9,5.7Z"/><path class="cls-3" d="M222.87,381.83c-1.8.6-5.2,1.2-7.5,1.4h.1c-2.3.2-4.9.2-5.7.2-.8-.1-3.3-.9-5.3-1.8-2.1-1-5.3-3.5-7.2-5.7-1.8-2.1-3.7-5.5-4.1-7.3-.4-1.9-1.1-16-1.4-31.4-.3-16.4-.1-29.4.4-31.1.6-1.7,2.3-4.5,3.8-6.2,1.4-1.6,4.4-3.9,6.5-5.1,2-1.1,6.7-2.2,10.2-2.3,4.9-.2,7.4.2,10.3,1.6,2,1,5.1,3.6,7,5.7,1.8,2.2,3.7,5.3,4.2,6.9.5,1.6,1.1,11.6,1.3,22.2.2,10.7.4,23.5.5,28.6.1,7-.3,10.1-1.6,13.2-1,2.2-3.2,5.4-4.9,7-1.8,1.6-4.8,3.5-6.6,4.1Z"/><path class="cls-2" d="M232.67,359.23c-.4,2.2-2,4.2-4.6,6.3-3.1,2.3-4.9,2.9-7.8,2.4s-4.5-1.6-6.9-4.8c-2.1-2.9-3-5.2-2.6-7.4.3-1.7,1.3-4.3,2.2-5.7,1-1.5,3.2-3.1,4.9-3.5,1.8-.6,4.3-.8,5.8-.6s3.8,1.2,5.1,2.2c1.5.9,3.1,3.1,3.5,4.9.6,1.6.8,4.4.4,6.2Z"/><path class="cls-2" d="M117.87,308.93c-9.1,10.3-9.9,10.9-16.8,13.2-5.1,1.7-8.6,2.2-12.1,1.7-2.9-.5-6.9-2.1-10.2-4.4-2.9-2-6.7-5.3-8.3-7.4-1.7-2.2-3.7-6-4.6-8.5-1-3.2-1.2-6.6-.5-11.4.9-6.3,1.5-7.5,6.4-13.5,2.9-3.7,11.7-13.9,19.5-22.8,7.7-8.9,15.5-17.2,17.3-18.6,1.8-1.3,5.9-3.1,8.9-3.8,4.3-1.2,7-1.1,11.8,0,4.2.9,7.7,2.6,10.5,4.9,2.4,2,5.5,5.3,7.1,7.6,1.6,2.2,3.4,6,3.9,8.5.6,2.5.7,7.1.2,10.3-.6,3.1-1.9,7.1-2.9,8.7-1.1,1.7-6.3,7.8-11.4,13.8-5.1,5.9-13.6,15.7-18.8,21.7Z"/><path class="cls-3" d="M104.87,314.23c-2.1,1.6-5.8,3.3-8.2,3.8-2.8.6-6.2.4-9.1-.3-2.6-.7-6.4-2.7-8.4-4.4-2.1-1.7-4.9-4.7-6.1-6.9-1.4-2-2.6-5.8-2.9-8.4-.3-2.5.1-6.2.7-8.2.6-1.9,5-7.8,9.5-13,4.6-5.2,13.2-15.1,19.4-22.1,7.9-9.1,12.3-13.2,15.5-14.8,3-1.4,6.5-1.9,9.9-1.7,4.1.3,6.5,1.1,9.8,3.5,2.4,1.8,5.3,4.4,6.4,5.7,1.2,1.5,2.8,4.7,3.6,7.2,1.1,3.4,1.2,6,.2,10.3-1.3,5.4-2.7,7.3-18.9,26.1-9.7,11-19.3,21.6-21.4,23.2Z"/><path class="cls-2" d="M125.57,277.93c-1.1,1.5-3.4,3.4-5.3,4-1.8.7-4.5.7-6.7,0-2.3-.7-4.5-2.3-6-4.7-1.7-2.5-2.2-4.7-1.7-7.5.3-2.4,1.5-5,3.2-6.5,1.4-1.5,4.3-2.8,6.4-3.1,3.1-.4,4.5.1,7.3,2,2,1.3,4,3.8,4.5,5.5.6,1.7.9,4,.7,5.2-.2,1.2-1.3,3.5-2.4,5.1Z"/><path class="cls-2" d="M335.87,347.53c-2.9,1.4-6.6,2.7-8.1,3-1.5.2-5.6-.2-9-1-4.2-.9-7.6-2.4-10.5-4.5-3.2-2.4-7.2-8.8-17.2-26.8-7.1-12.9-14-25.6-15.1-28.2-1.4-3.3-1.9-6.5-1.4-11.5.5-5.8,1.2-7.8,4.2-12.3,2.5-3.7,5.4-6.3,9.3-8.4,3.2-1.7,8.3-3.5,11.3-4,3.6-.6,7.1-.5,10.2.4,2.6.7,6.6,2.7,9,4.5,3.1,2.3,6.1,6.4,10.5,14.3,3.3,6.1,9.8,18.1,14.4,26.4,4.5,8.3,8.6,16.8,8.9,18.6.4,1.8.3,6-.2,9.1s-1.6,7.1-2.5,8.7c-.9,1.6-3.2,4.3-4.9,5.9-2.1,1.8-5.9,4.3-8.9,5.8Z"/><path class="cls-3" d="M335.87,341.33c-2.5,1.3-6.2,2.8-8.4,3.2-2.1.4-5.2.5-7,.2-1.7-.3-4.9-1.6-7.1-3-2.1-1.4-5.1-4.5-6.6-6.6-1.5-2.3-4.5-7.5-6.8-11.7-2.4-4.2-7.5-13.8-11.6-21.2-4.1-7.4-7.7-15.2-8.3-17.2-.5-1.9-.5-5.5-.2-7.8.4-2.3,1.4-5.4,2.3-7,.8-1.5,3.3-4,5.4-5.6,2.2-1.7,5.7-3.6,7.9-4.4,2.2-.7,5.5-1.4,7.2-1.5,1.9-.1,5.2.5,7.6,1.5,2.3,1,5.5,3.3,7,5.2,1.6,2,8.5,13.8,15.5,26.4,7,12.6,12.9,24.6,13.5,26.5.4,2,.5,5.7.1,8.1-.4,2.5-1.9,6.3-3.5,8.4-1.4,2.3-4.7,5.1-7,6.5Z"/><path class="cls-2" d="M310.07,296.93c-.9,3.3-2.3,5.3-4.6,6.7-2.1,1.3-4.5,1.7-7.3,1.2-3-.5-4.8-1.5-7.1-4.2-2.4-3.1-2.8-4.3-2.1-8.4.6-3.7,1.5-5.3,3.8-7,1.8-1.3,4.9-2.4,7.5-2.4,4.2-.1,4.7.2,7.9,4.7,3.2,4.4,3.4,4.9,1.9,9.4Z"/><path class="cls-2" d="M250.17,258.23c-2.6,1.5-6.5,3.3-8.7,3.8-2.1.5-6.5.6-9.7.2-4-.6-7.3-2-10.6-4.2-3.6-2.5-9.4-9.6-22.3-27.4-16.1-22.3-17.4-24.5-18.1-30.1-.5-3.3-.6-7-.4-8.1.2-1.2,1.3-4.4,2.6-7.1,1.4-2.8,4.5-6.8,7.1-9s7-4.8,9.9-6c4.2-1.6,6.4-1.8,12.5-.7,4.9.8,8.4,2,10.7,3.6,1.8,1.4,11.1,12.9,20.6,25.8,12.6,17.1,17.7,24.7,18.8,28.9,1.1,3.7,1.4,7.5.8,11.4-.7,4.3-1.9,7.1-4.6,11-2.2,2.7-6,6.3-8.6,7.9Z"/><path class="cls-3" d="M249.37,251.53c-3.1,2.4-7.3,4.8-9.4,5.1-2.1.4-5.7.4-8,.2-2.3-.4-6-1.8-8.1-3.3-2.3-1.5-10.8-12.1-20.8-26-15.6-21.6-16.9-23.8-17.3-28.8-.4-4.3-.1-6.5,1.6-10,1-2.5,3.2-5.7,4.7-7.1,1.4-1.5,5-3.7,7.9-5,4.3-1.9,6.2-2.1,11.5-1.3,5.1.8,7.1,1.6,10.5,4.8,2.4,2,11.1,13.2,19.5,24.8,9.3,13,15.6,22.7,16.2,25.2.6,2.4.9,5.5.6,7.1-.3,1.7-1,4.6-1.8,6.5-.8,1.9-3.6,5.1-7.1,7.8Z"/><path class="cls-2" d="M250.97,240.73c-.9,1.8-3.4,3.8-5.2,4.6s-4.3,1.3-5.3,1.1c-.9-.1-2.9-.9-4.2-1.7-1.4-.9-3.2-2.7-4.2-4.1-1.2-1.9-1.5-4.2-1-7.2.6-3.6,1.4-5,4.2-7.2,2.9-2.1,4.5-2.5,8.2-2,3.6.6,5,1.3,6.8,4,1.3,1.9,2.4,4.7,2.5,6.4,0,1.6-.7,4.3-1.8,6.1Z"/><path class="cls-2" d="M349.87,228.93c-2.3,1.7-6.1,3.6-8.6,4.2-2.5.7-7,.9-10,.5-3-.5-7.9-2.2-10.7-3.8-3.2-1.7-6.7-5-9-8.1-2-2.9-4.2-7.1-4.8-9.5-.5-2.2-.6-6.3-.2-9.2.4-2.7,1.7-6.7,2.9-8.9s8.1-12.7,15.3-23.4c7.2-10.7,14.4-21.1,16.1-23.1,1.6-1.9,5.1-4.7,7.9-6,2.7-1.4,7.2-2.6,10.1-2.7,3.4-.2,6.6.3,9.7,1.5,2.5,1,6.2,2.9,8.2,4.4,1.9,1.4,5.2,4.9,7.1,7.9,2.1,3.2,3.8,7.5,4.1,10.8.4,3,.2,7.2-.5,9.5s-5.3,10.5-10.5,18.3c-5.1,7.8-12.4,18.7-16.2,24.4-3.7,5.6-8.6,11.5-10.9,13.2Z"/><path class="cls-3" d="M346.57,224.43c-1.9,1.3-4.9,2.9-6.8,3.5-1.9.7-5.5.9-8.1.4-2.7-.4-6.8-2.1-9.6-4-2.6-1.8-5.8-4.9-7-6.8-1.2-1.9-2.6-5.5-3-7.9-.5-2.4-.2-6.3.5-8.5.6-2.3,7.9-14.2,16.2-26.5s16-23.4,17.2-24.7c1.3-1.3,4.6-3.1,7.3-3.9,3-1,6.9-1.4,9.7-1,2.7.4,6.8,2.1,9.6,4,2.7,1.8,5.9,5,7.3,7.1,1.3,2.1,2.5,5.9,2.8,8.4.2,2.6-.1,6.3-.9,8.3-.7,1.9-8.2,13.9-16.6,26.4-8.9,13.3-16.7,23.8-18.6,25.2Z"/><path class="cls-2" d="M366.67,167.43c-.6,1.5-2.7,3.7-4.7,4.9-2.5,1.4-4.9,1.9-7.8,1.5-3.1-.5-4.7-1.5-6.8-4.3-2-2.8-2.5-4.6-2-7.8.5-2.9,1.5-5,3.8-6.9,1.7-1.6,4.6-2.8,6.6-2.8,2.3-.1,4.7.7,6.7,2.1,2,1.4,3.6,3.8,4.3,6.5.4,2,.5,5.2-.1,6.8Z"/><path class="cls-2" d="M159.67,136.73c-1.7.6-4.5,1.3-6.2,1.5-1.7.3-5.3-.1-8.2-.7-2.8-.7-6.9-2.5-9.1-4-2.1-1.5-5.4-5-7.5-7.9-1.9-2.9-4-7.5-4.6-10.3-.8-3.5-.8-6.8.2-10.7.8-3.1,2.6-7.5,4.1-9.5,1.4-2.1,4.8-5.3,7.5-7.1,2.6-1.7,13.6-8.7,24.5-15.4,10.8-6.7,21.7-12.9,24.2-13.8,3.3-1.1,6.4-1.3,11.4-.5,4.9.8,7.9,1.9,10.7,3.9,2.1,1.5,5.4,5.2,7.5,8,1.9,2.9,4.1,7.7,4.7,10.8.8,4.2.7,7-.5,11.7-1,3.6-2.9,7.7-4.6,9.7s-13.7,10.2-26.8,18.3c-13.4,8.2-25.6,15.3-27.3,16Z"/><path class="cls-3" d="M169.27,125.03c-6.2,3.8-13,7.1-15.2,7.5-2.1.4-4.8.5-6,.5-1.2-.2-3.8-1.1-5.8-2-2.1-1-5.4-3.8-7.5-6.3-2-2.5-4.2-6.6-5-9.1-.7-2.5-1-6.4-.7-8.7.4-2.3,1.8-6,3.2-8.1,2-2.9,8-7.2,23.4-16.8,11.4-7.2,22.8-14.2,25.4-15.6s6.7-2.9,9.1-3.3c3.4-.4,5.4-.1,8.9,1.4,2.5,1,6.2,3.8,8.2,6s4.4,6.4,5.2,9.2c1,2.8,1.4,7,1,9.4-.4,2.5-1.9,6.3-3.5,8.4-1.8,2.4-7.8,7.1-16.1,12.3-7.3,4.6-18.4,11.4-24.6,15.2Z"/><path class="cls-2" d="M179.67,97.93c-.7,1.9-2.7,4.1-4.8,5.4-2.5,1.4-4.9,1.9-7.8,1.5-3.1-.5-4.7-1.5-6.8-4.3-2-2.8-2.5-4.6-2-7.8.5-2.9,1.5-5,3.8-6.9,1.7-1.5,4.4-2.9,6-2.9,1.7-.1,4.7.9,6.7,2.1,2.4,1.4,4.2,3.7,4.9,6,.7,2.1.7,4.7,0,6.9Z"/><path class="cls-2" d="M291.57,164.23c-2.6,2-7.2,4.5-10.3,5.3-4,1.2-7.5,1.4-12.2.7-3.7-.6-8.3-2-10.2-3.3-2.1-1.2-5.1-3.9-6.7-6.1-1.7-2.2-3.6-5.5-4.1-7.3-.7-1.8-2.3-11.3-3.7-21-1.4-9.7-3.3-22.3-4.2-28.1-1.1-7.5-1.2-11.8-.3-15.1.7-2.6,2.4-6.2,3.6-8,1.3-1.8,4.4-4.9,6.9-6.8,2.4-1.9,6.9-3.9,10.3-4.5,3.1-.7,8-.9,10.8-.5,2.7.4,6.7,1.7,8.9,2.7,2.4,1.2,5.7,4.3,8.3,7.7,4,5.6,4.3,6.7,7.4,26.4,1.7,11.4,3.7,25.2,4.4,30.6.7,5.4,1,10.6.9,11.4-.1.8-1.4,4-2.7,6.8-1.6,3.2-4.4,6.7-7.1,9.1Z"/><path class="cls-3" d="M287.07,160.63c-2.8,1.9-6.8,3.8-8.9,4.2-2.1.3-6.1.2-8.8-.1-3.2-.4-6.5-1.8-8.9-3.4-2.1-1.5-4.8-4.5-5.9-6.6-1.1-2-2.7-8.5-3.6-14.2-.9-5.7-2.9-18.8-4.4-29.2-2.5-17.7-2.5-19-.7-23.2,1.1-2.5,3.5-5.9,5.4-7.7,1.9-1.7,6-3.9,9-4.8,3.2-.9,7.7-1.3,10.4-.9,2.9.5,6.4,1.9,9.1,3.9,2.4,1.8,5.1,5,6.2,7.2.9,2.2,2.2,6.1,2.6,8.9.3,2.7,2.1,13.7,3.6,24.2,1.6,10.6,3.1,21.5,3.3,24.2.4,3.7,0,6-1.5,9.4-1.3,3-3.6,5.7-6.9,8.1Z"/><path class="cls-2" d="M270.27,108.73c-.6,4-1.3,5.1-4.8,7.3-3.6,2.3-4.6,2.5-8.8,1.3-3.6-1-5.2-2.1-6.6-4.7-1.1-1.9-1.7-4.8-1.4-6.7s1.4-4.6,2.5-6.1c1-1.6,3.3-3.1,5.1-3.6,1.9-.6,4.8-.4,6.9.2,1.9.6,4.6,2.5,5.8,4.3,1.6,2.4,1.9,4.3,1.3,8Z"/><path class="cls-5" d="M114.27,205.63c-12.1,1.9-25.2,3.9-29.2,4.5-4.8.7-9.1.7-13.4-.2-4.4-.9-7.6-2.4-10.7-4.9-2.9-2.3-5.5-5.7-7-9-1.3-3.1-2.6-7.3-2.8-9.4-.3-2.1-.1-6.1.3-9.1.5-3.4,2.1-7,4.3-10.3,2.3-3.4,5.2-6.1,8.5-7.6,3.3-1.7,11.9-3.6,25.8-5.8,11.5-1.8,23.9-3.7,27.6-4.3,3.6-.5,9.4-.6,12.9,0,4.4.7,7.6,1.9,10.5,4.1,2.4,1.7,5.6,5.2,7.2,7.8,1.6,2.6,3.2,7.3,3.7,10.3.4,3.1.3,7.9-.2,10.7-.5,2.9-2.1,7-3.4,9.2-1.4,2.1-4.7,5.4-7.4,7.2-4.2,3-7.2,3.8-26.7,6.8Z"/><path class="cls-1" d="M117.37,199.73c-9,1.3-21.5,3.2-27.6,4.3-6.1,1-12.9,1.5-15.3,1.3-2.3-.3-5.8-1.4-7.7-2.5-1.9-1.2-4.8-4.2-6.5-6.8-1.6-2.6-3.4-6.8-3.6-9.1-.4-2.3-.4-6.1-.1-8.3.3-2.1,1.5-5.4,2.6-7.1,1-1.7,3.8-4.5,6-5.9,3.5-2.5,8.3-3.5,32-7.2,18.7-2.9,29.3-4,32.7-3.5,3.5.5,6.4,1.9,9,4.1,2.5,2,4.9,5.3,5.9,8.1,1.1,2.7,1.9,6.9,1.9,9.2.1,2.4-.4,6.3-1.2,8.6-.9,3.3-2.7,5.4-6.5,8.3-4.7,3.6-6.4,4.1-21.6,6.5Z"/><path class="cls-5" d="M123.07,189.83c-1,.9-2.9,2.2-4.4,2.8-1.4.5-3.6.7-4.8.6-1.4-.2-3.8-1.3-5.3-2.4-1.7-1.1-3.4-3.8-3.9-6-.7-3-.7-4.7.6-7.4.9-1.9,3-4.3,4.9-5.2,1.9-1.1,4.8-1.5,7.2-1,2.9.5,4.6,1.6,6.5,4.2,1.4,1.9,2.6,4.7,2.4,6.1-.1,1.3-.5,3.3-.8,4.4-.3,1.1-1.3,2.9-2.4,3.9Z"/><g id="real_Perti_Dish"><circle class="cls-4" cx="219.6" cy="219.6" r="213.1"/></g></g></svg>