<?xml version="1.0" encoding="UTF-8"?><svg id="Layer_2" xmlns="http://www.w3.org/2000/svg" viewBox="0 0 101.87 54.9"><defs><style>.cls-1{fill:#2f683f;}.cls-2{fill:#a8d2b9;}</style></defs><g id="Layer_3"><path class="cls-1" d="M20.55,54.17c-1.76-.38-4.51-1.26-6.06-1.98-1.6-.64-4.46-2.87-6.61-4.9-2.01-2.07-4.56-5.75-5.64-8.18C1.24,36.72.27,32.01,0,28.44c-.09-3.47.54-8.48,1.5-11.18,1.16-3.4,2.89-6.21,5.79-9,2.31-2.22,6.15-5.02,8.48-5.93,2.29-1.05,6.87-1.99,10.11-2.1C29,.15,42.03-.02,54.83,0c12.71-.03,25.24.43,27.84.97,3.39.8,6.13,2.26,9.96,5.56,3.75,3.26,5.72,5.77,7.05,8.94,1,2.38,1.86,7.26,2.18,10.75.09,3.47-.56,8.71-1.68,11.66-1.53,3.99-3.08,6.32-6.57,9.69-2.74,2.54-6.51,5.03-9.01,5.84s-17.02,1.48-32.42,1.49c-15.71-.06-29.82-.43-31.63-.73Z"/><path class="cls-2" d="M34.87,49.26c-7.27-.02-14.79-.79-16.87-1.6-2-.76-4.35-2.1-5.37-2.73-.92-.8-2.66-2.93-3.88-4.75-1.26-1.95-2.6-6.07-3.07-9.3-.39-3.18-.11-7.82.53-10.37.72-2.49,2.51-5.97,3.98-7.77,1.55-1.75,4.68-4.16,6.98-5.21,3.23-1.42,10.59-1.92,28.74-2,13.48-.14,26.86-.1,29.81.07s7.22,1.05,9.48,1.97c3.1,1.45,4.65,2.75,6.84,5.87,1.6,2.16,3.28,6.49,3.82,9.41s.38,7.76-.41,10.56c-.62,2.91-2.49,6.69-4.09,8.52-1.65,1.92-4.93,4.36-7.39,5.31-2.79,1.1-10.37,1.94-20.16,2.01-8.63.08-21.65.03-28.92,0Z"/><path class="cls-1" d="M57.96,31.67c-1.59,1.25-4.45,2.07-6.92,2.07-2.86-.12-5.17-.96-7.42-2.82-2.37-2.05-3.21-3.75-3.53-7.23-.23-3.43.29-5.23,2.4-7.69,1.95-2.2,3.9-3.47,6.86-3.87,2.23-.38,5.27-.16,6.63.68,1.5.81,3.53,3.24,4.6,5.31,1.31,2.45,1.63,5.35,1.02,7.68-.51,2.15-1.87,4.37-3.63,5.87Z"/></g></svg>