<?xml version="1.0" encoding="UTF-8"?><svg id="Layer_2" xmlns="http://www.w3.org/2000/svg" viewBox="0 0 101.78 55.48"><defs><style>.cls-1{fill:#2f683f;}.cls-2{fill:#a8d2b9;}</style></defs><g id="Layer_3"><path class="cls-1" d="M4.24,43.04c-1.64-2.84-3.51-7.73-3.89-10.91-.66-4.12-.39-7.62.92-12.19,1.08-3.59,3.08-7.96,4.62-9.67,1.47-1.92,4.54-4.54,6.93-5.83,2.41-1.39,5.93-2.84,7.78-3.1,1.88-.46,11.51-.78,21.31-.89,9.8-.1,22.54-.32,28.41-.44,7.58-.1,11.85.37,15.01,1.7,2.48,1.04,5.83,3.2,7.45,4.63,1.61,1.53,4.27,5.01,5.83,7.74,1.57,2.63,2.95,7.36,3.1,10.81.28,3.17-.17,8.05-.93,10.77-.75,2.62-2.57,6.42-3.85,8.46-1.51,2.22-5.02,5.08-8.73,7.21-6.08,3.22-7.21,3.37-27.15,3.84-11.52.18-25.47.33-30.91.31-5.45-.02-10.64-.41-11.42-.62-.78-.21-3.78-1.92-6.38-3.58-2.96-2.01-6.06-5.25-8.08-8.24Z"/><path class="cls-2" d="M8.4,39.06c-1.51-3.03-2.87-7.24-2.98-9.38-.02-2.12.61-6.07,1.26-8.71.82-3.12,2.64-6.2,4.55-8.37,1.76-1.88,5.1-4.16,7.32-4.97,2.13-.83,8.78-1.55,14.55-1.69,5.77-.14,19.02-.38,29.53-.49,17.88-.13,19.16.04,23.09,2.38,2.33,1.42,5.38,4.25,6.92,6.37,1.43,2.11,3.07,6.46,3.57,9.56.47,3.29.27,7.8-.49,10.43-.88,2.81-2.73,6.09-5.07,8.5-2.1,2.14-5.63,4.39-7.96,5.19-2.3.6-6.34,1.37-9.17,1.4-2.72-.06-13.86.27-24.46.36-10.72.18-21.72.23-24.42.07-3.72-.09-5.95-.79-9.12-2.73-2.8-1.69-5.17-4.32-7.11-7.91Z"/><path class="cls-1" d="M62.07,29.28c-3.89-1.12-4.88-1.96-6.6-5.72-1.8-3.87-1.87-4.89-.12-8.89,1.47-3.44,2.77-4.88,5.53-5.92,2.03-.84,4.98-1.05,6.83-.5s4.37,2,5.72,3.29c1.45,1.2,2.64,3.68,2.89,5.53.34,1.96-.24,4.81-1.11,6.81-.85,1.8-3.09,4.23-5.03,5.18-2.59,1.27-4.51,1.31-8.1.23Z"/></g></svg>