<?xml version="1.0" encoding="UTF-8"?><svg id="Layer_2" xmlns="http://www.w3.org/2000/svg" viewBox="0 0 101.69 54.99"><defs><style>.cls-1{fill:#2f683f;}.cls-2{fill:#a8d2b9;}</style></defs><g id="Layer_3"><path class="cls-1" d="M101.63,30.26c-.35,2.98-1.24,7.18-2.15,9.25-.85,1.98-3.4,5.57-5.64,7.9-2.87,2.85-5.97,4.66-9.7,5.99-4.16,1.39-13.31,1.8-35.3,1.5-27.5-.42-30.04-.69-34.95-3.48-2.94-1.57-5.97-3.7-6.73-4.52-.84-.88-2.75-3.67-4.14-6.33C1.61,37.77.26,32.9.05,29.5s.34-8.48,1.11-11.52c1.23-4.32,2.38-6.21,6.91-10.44,3.57-3.45,6.62-5.54,9.28-6.43C19.54.5,34.32-.08,50.34,0c21.24.12,30.38.57,34.41,2.2,3.62,1.33,6.85,3.36,9.62,6.17,3.03,3.13,4.56,5.77,6.07,10.26.85,3.38,1.46,8.58,1.19,11.62Z"/><path class="cls-2" d="M95.78,26.9c.07,3.92-.51,8.72-1.53,10.58-.93,1.92-3.09,4.81-4.62,6.53-1.7,1.6-5.03,3.73-7.49,4.52-2.58.95-16.16,1.43-33.28,1.14-26.64-.4-29.18-.67-33.43-3.34-3.69-2.25-5.27-3.8-7.06-7.26-1.41-2.3-2.66-5.97-2.88-8.01-.37-2.02.02-6.22.71-9.32,1.05-4.58,2.02-6.23,5.83-10,3.69-3.61,5.53-4.74,10.12-5.55,3.04-.73,17.22-1.01,31.54-.81,15.98.31,27.52,1.06,29.89,2.07,2.28.95,4.95,2.57,6.05,3.76,1.18,1.26,3.09,3.55,4.14,5.33,1.05,1.78,1.94,5.93,2.01,10.35Z"/><path class="cls-1" d="M88.08,19.16c.91,1.8,1.01,5,.58,6.92-.43,1.92-1.53,4.22-2.29,4.91-.62.66-2.45,1.79-3.87,2.35-1.56.58-4.08.95-5.8.92-2.24-.17-4.26-1.31-6.37-3.5-2.53-2.63-3.17-4.11-3.26-7.67.05-3.58.69-5.1,3.3-7.77,2.63-2.53,4.03-3.23,7.27-3.06,2.3.09,5.2.88,6.63,1.82,1.28.96,3.03,3.13,3.81,5.09Z"/></g></svg>