<?xml version="1.0" encoding="UTF-8"?><svg id="Layer_2" xmlns="http://www.w3.org/2000/svg" viewBox="0 0 102 55.85"><defs><style>.cls-1{fill:#2f683f;}.cls-2{fill:#a8d2b9;}</style></defs><g id="Layer_3"><path class="cls-1" d="M17.87,54.57c-2.72-.89-6.47-2.88-8.41-4.57-2.02-1.63-4.79-5.18-6.21-7.86-1.33-2.73-2.79-7.71-3.11-10.92-.47-3.59.19-8.36,1.38-12.03,1.2-3.31,3.35-7.54,4.96-9.42,1.5-1.68,4.79-4.14,7.38-5.5,2.43-1.24,6.44-2.5,8.93-2.8s15.04-.76,27.94-1.1C63.63.04,76.28-.12,78.9.1c2.48.2,6.79,1.43,9.47,2.96,2.71,1.39,6.29,4.36,8.06,6.66,2.13,2.65,3.58,5.55,4.4,8.77.63,2.62,1.23,6.73,1.17,9.23-.04,2.36-.98,7.08-2.32,10.37-1.39,3.57-3.91,7.44-6.42,9.6-2.21,2.07-5.75,4.34-8.03,5.1s-11.63,1.77-21,2.05c-9.31.37-22.43.74-29.27.95-6.71.23-14.36-.34-17.07-1.23Z"/><path class="cls-2" d="M19.63,49.27c-2.16-.79-5.2-2.31-6.79-3.51-1.67-1.14-3.92-3.96-5.02-6.37-1.24-2.43-2.23-6.76-2.31-10.14-.04-3.16.63-7.57,1.48-9.65.85-2.08,2.97-5.31,4.7-7.02,1.67-1.8,5.02-3.82,7.22-4.52,2.22-.84,16.15-1.8,30.98-2.16s28.34-.53,30.1-.31c1.81.31,5.19,1.95,7.41,3.69,2.55,1.86,5.14,4.81,6.44,7.32,1.24,2.43,2.23,6.76,2.31,10.14.1,3.24-.65,7.71-1.55,10.06-.96,2.28-3.36,5.46-5.22,7.15-2,1.67-5.19,3.57-7.28,4.08-1.95.53-16.08,1.38-31.13,1.78-16,.46-29.07.19-31.32-.54Z"/><path class="cls-1" d="M77.72,32.6c-1.57.38-4.58-.05-6.72-.99-2.59-1.23-4.39-2.89-5.74-5.49-1.39-2.82-1.5-4.7-.44-8.03,1.12-3.25,2.3-4.7,5.2-6.15,2.65-1.27,4.94-1.68,7.83-.9,2.29.46,4.95,2.12,6.11,3.75,1.41,1.82,2.15,4.24,2.17,6.68.02,2.44-1.01,5.14-2.8,7.27-1.4,1.49-3.95,3.42-5.6,3.86Z"/></g></svg>