<?xml version="1.0" encoding="UTF-8"?><svg id="Layer_2" xmlns="http://www.w3.org/2000/svg" viewBox="0 0 101.66 55.11"><defs><style>.cls-1{fill:#2f683f;}.cls-2{fill:#a8d2b9;}</style></defs><g id="Layer_3"><path class="cls-1" d="M101.63,30.06c-.18,3.22-.83,7.08-1.29,8.54-.55,1.41-2.88,4.81-5.23,7.4-2.82,3.24-5.77,5.49-9.01,7.02-3.65,1.64-11.18,2.05-31.78,2.1-14.72-.02-29.18-.12-31.99-.41-3.57-.37-6.61-1.48-10.74-4.33-4.84-3.24-6.25-4.82-8.74-9.62C.83,36.77-.05,32.97,0,28.54c.06-3.62.95-8.96,1.96-11.83,1.21-3.44,2.99-6.46,5.28-8.74,1.87-1.94,5.55-4.47,8.29-5.7C19.04.68,24.08.03,33.13,0c6.94.06,20.58.17,30.07.16,9.44.07,18.86.59,20.58,1.2,1.77.52,5.4,2.64,7.87,4.57s5.44,4.83,6.41,6.39c.97,1.56,2.22,4.88,2.8,7.14.56,2.71.91,7.24.78,10.59Z"/><path class="cls-2" d="M96.2,27.06c-.07,2.82-.55,6.78-1.26,8.9-.66,2.03-2.08,4.79-3.21,6.22-1.08,1.34-3.77,3.52-6.06,4.77-2.24,1.16-6.4,2.29-8.97,2.59-2.74.2-8.74.31-13.53.3-4.84.07-15.71-.11-24.17-.09-8.46.01-17.03-.61-19.07-1.05-1.9-.48-5.06-2.22-6.92-3.6-1.82-1.46-4.05-3.84-5.02-5.4-.93-1.43-1.91-4.82-2.29-7.43-.42-2.75-.4-6.73-.03-9.04.45-2.26,1.43-5.49,2.17-7.03.83-1.71,2.95-4.31,4.99-5.93,1.99-1.53,5.55-3.22,7.94-3.61,2.52-.43,16.19-.77,30.6-.81,14.41-.04,27.77.6,29.72.99,1.94.62,5.23,2.32,7.14,3.83,2,1.56,4.6,4.71,5.66,7.12,1.34,2.34,2.19,6.58,2.31,9.27Z"/><path class="cls-1" d="M44.86,28.19c2.45,2.38,3.53,4.58,3.64,7.27.12,2.47-.69,4.76-2.48,6.97-1.89,2.38-3.63,3.48-7.11,4.19-3.87.6-5.12.37-8.37-2.22-2.95-2.31-3.91-3.88-4.29-6.71-.27-2.2.27-5.45,1.52-7.73,1.94-3.73,2.45-4.02,7.93-4.64,5.4-.67,5.93-.61,9.15,2.88Z"/></g></svg>