<?xml version="1.0" encoding="UTF-8"?><svg id="Layer_2" xmlns="http://www.w3.org/2000/svg" viewBox="0 0 101.72 54.96"><defs><style>.cls-1{fill:#2f683f;}.cls-2{fill:#a8d2b9;}</style></defs><g id="Layer_3"><path class="cls-1" d="M2.7,40.16C1.38,37.81.23,33.17.04,29.86c-.19-3.51.27-8.2,1.17-11.17.89-2.77,3.24-7.2,5.32-9.73s5.07-5.24,6.7-5.88c1.63-.75,4.96-1.84,7.48-2.36S37.24-.13,51.95.05c14.7.18,27.9.51,29.59.87,1.59.25,4.75,1.66,7.2,3.04,2.46,1.28,5.95,4.6,7.77,7.06,1.91,2.66,3.87,7.03,4.58,9.86.88,3.73.86,7.23-.22,12.9-1.08,5.47-2.29,8.73-3.96,10.78-1.26,1.66-4.25,4.36-6.49,5.79-2.25,1.53-6.11,3.3-8.63,3.82-2.42.52-15.14.9-28.14.78-13.1-.13-26.1-.36-29.1-.55-2.9-.1-7.17-1.14-9.33-2.21-2.17-.97-5.3-3.18-7.04-4.93-1.75-1.56-4.24-4.84-5.47-7.08Z"/><path class="cls-2" d="M6.46,35.48c-.54-1.82-1.03-5.24-1.15-7.54v.1c-.13-2.31-.04-4.9-.02-5.7.13-.8,1.01-3.27,1.97-5.24,1.07-2.07,3.67-5.18,5.93-7.01,2.16-1.73,5.62-3.52,7.43-3.86,1.91-.34,16.03-.58,31.43-.37,16.4.24,29.39.86,31.07,1.42,1.68.66,4.42,2.45,6.07,4,1.55,1.45,3.75,4.53,4.88,6.66,1.03,2.03,1.98,6.77,1.96,10.27.04,4.9-.44,7.39-1.94,10.24-1.07,1.97-3.77,4.98-5.93,6.81-2.26,1.73-5.42,3.52-7.03,3.97-1.62.45-11.63.72-22.23.57-10.7-.15-23.5-.37-28.6-.44-7-.13-10.08-.63-13.14-2.03-2.17-1.07-5.29-3.38-6.84-5.13-1.54-1.85-3.34-4.91-3.88-6.73Z"/><path class="cls-1" d="M28.73,46.01c-2.19-.47-4.13-2.14-6.15-4.8-2.2-3.17-2.74-4.99-2.14-7.87s1.75-4.45,5.02-6.74c2.97-2,5.3-2.83,7.48-2.36,1.69.36,4.26,1.44,5.62,2.39,1.47,1.05,2.99,3.3,3.34,5.01.54,1.82.66,4.32.41,5.82s-1.32,3.76-2.37,5.03c-.95,1.47-3.2,3-5.01,3.34-1.62.55-4.42.66-6.21.2Z"/></g></svg>