<?xml version="1.0" encoding="UTF-8"?><svg id="Layer_2" xmlns="http://www.w3.org/2000/svg" viewBox="0 0 101.51 54.91"><defs><style>.cls-1{fill:#2f683f;}.cls-2{fill:#a8d2b9;}</style></defs><g id="Layer_3"><path class="cls-1" d="M33.82,54.91c-13.74-.13-14.72-.34-20.98-4.05-4.63-2.74-7.3-5.06-9.21-8.03-1.52-2.52-2.93-6.59-3.36-10.59-.39-3.5-.38-8.53.15-11.12.55-2.73,2.11-6.73,3.41-9.04,1.76-2.85,4.2-5.23,8.29-7.85C17.47.79,18.77.46,26.52.23,31.21,0,44.68-.04,56.52.03c11.77-.01,23.15.44,25.39.89,2.16.51,6.21,2.43,8.7,4.24,3.72,2.46,5.42,4.57,7.73,8.92,2.07,3.76,3.08,7.52,3.18,11.14.06,3.12-.4,7.63-1.09,10.34-.61,2.65-2.31,6.5-3.87,8.51-1.5,2.09-4.91,5.18-7.65,6.9-2.74,1.58-6.61,3.22-8.47,3.51-2.01.28-10.02.35-17.89.43-7.8.01-20.77,0-28.71,0Z"/><path class="cls-2" d="M21.3,48.56c-2.58-.54-6.29-2.22-8.24-3.71-2.29-1.72-4.36-4.42-5.73-7.07-1.17-2.42-2.15-6.6-2.18-9.23-.09-2.7.34-6.78,1.22-9.13.59-2.37,2.68-5.76,4.45-7.69,1.69-1.86,4.75-3.99,6.65-4.84,1.83-.79,9.17-1.33,16.05-1.34,6.94.07,20.06.08,29.41.18,12.05,0,18.03.65,21.34,2.02,3.02,1.35,5.69,3.67,7.77,6.37,2.46,3.29,3.43,5.63,3.77,9.7.21,2.99.15,6.89-.11,8.57-.35,1.89-1.72,5.19-3.08,7.44-1.85,3.06-3.75,4.84-7.65,6.9-4.93,2.56-7.28,2.74-32.1,2.82-14.67-.12-28.96-.43-31.55-.97Z"/><path class="cls-1" d="M62.29,40.42c-1.85.15-4.8-.34-6.49-1.38-1.71-.9-3.48-2.94-4.39-5.06-.98-2.2-1.21-4.91-.38-7.61.78-2.92,2.11-4.74,4.55-6.2,2.01-1.35,4.76-2.14,7.01-1.84,2.05.08,4.93,1.41,6.53,2.81,2.33,2.08,2.87,3.47,3.27,6.83.33,2.36-.25,5.51-1.21,7-.89,1.57-2.43,3.3-3.47,3.94-1.04.63-3.5,1.31-5.43,1.53Z"/></g></svg>