<?xml version="1.0" encoding="UTF-8"?><svg id="Layer_2" xmlns="http://www.w3.org/2000/svg" viewBox="0 0 101.91 55.05"><defs><style>.cls-1{fill:#eaa8a9;}.cls-2{fill:#af3336;}</style></defs><g id="Layer_3"><path class="cls-2" d="M59.57,54.96c-12.25.07-25.5.09-29.54.09-4.85-.02-9.1-.67-13.22-2.2-4.22-1.55-7.16-3.51-9.85-6.44-2.52-2.71-4.59-6.46-5.58-9.94C.56,33.2-.1,28.86.01,26.75c.02-2.12.81-6.05,1.66-8.95,1-3.29,3.12-6.61,5.79-9.54,2.78-3.02,6.05-5.25,9.54-6.24C20.52.82,29.3.23,43.38.13c11.64-.06,24.18-.09,27.93-.13,3.63.04,9.38.81,12.76,1.93,4.25,1.35,7.23,3.01,9.77,5.62,2.12,2.04,4.76,5.98,5.95,8.79,1.19,2.81,2.07,7.7,2.12,10.74-.07,3.12-.88,7.86-1.8,10.55-.93,2.79-3.12,6.61-4.74,8.59-1.7,1.87-5.45,4.64-8.39,6.01-4.6,2.34-7.69,2.68-27.42,2.74Z"/><path class="cls-1" d="M63.51,49.59c-9.09-.06-21.74-.05-27.93.13-6.18.08-12.98-.44-15.32-1-2.23-.64-5.53-2.25-7.24-3.62-1.7-1.47-4.12-4.87-5.41-7.69-1.19-2.81-2.35-7.23-2.2-9.54-.05-2.33.52-6.09,1.14-8.22.61-2.03,2.29-5.12,3.63-6.63,1.24-1.53,4.43-3.88,6.81-4.94,3.83-1.95,8.73-2.22,32.72-2.34,18.92-.07,29.57.42,32.86,1.42,3.39,1.02,6.04,2.83,8.29,5.4,2.17,2.35,4.05,5.97,4.62,8.89.68,2.83.85,7.11.5,9.38-.26,2.39-1.34,6.17-2.47,8.32-1.38,3.13-3.48,4.94-7.67,7.24-5.19,2.86-6.94,3.1-22.33,3.2Z"/><path class="cls-2" d="M70.63,40.65c-1.12.74-3.2,1.74-4.77,2.11-1.46.29-3.66.15-4.84-.12-1.35-.41-3.56-1.85-4.88-3.16-1.52-1.34-2.79-4.27-2.96-6.52-.24-3.07,0-4.75,1.7-7.23,1.17-1.74,3.61-3.8,5.62-4.41,2.04-.8,4.97-.77,7.27.09,2.79.93,4.31,2.27,5.8,5.12,1.1,2.09,1.87,5.04,1.46,6.39-.29,1.27-.99,3.19-1.45,4.23-.46,1.04-1.72,2.67-2.96,3.5Z"/></g></svg>