<?xml version="1.0" encoding="UTF-8"?><svg id="Layer_2" xmlns="http://www.w3.org/2000/svg" viewBox="0 0 328 383.28"><defs><style>.cls-1{fill:#ae66d7;}.cls-2{fill:#6df2be;}.cls-3{fill:#fad309;}.cls-4{fill:#07e19a;}.cls-5{fill:#fbe15c;}.cls-6{fill:#80499e;}</style></defs><g id="Layer_1-2"><path class="cls-3" d="M259,383.28c-5.33-7.47-10.8-14.85-15.9-22.48-1.77-2.65-3.91-3.43-6.77-3.72-13.5-1.4-27.18-2.28-40.02-7.04-16.46-6.09-32.74-12.69-48.97-19.37-4.77-1.96-8.86-2.85-14.06-.73-8.45,3.44-17.52,1.85-26.24.66-25.7-3.51-49.09-12.97-69.13-29.56-8.12-6.71-15.6-14.38-22.42-22.42-7.27-8.58-9.75-18.88-6.49-30.08.75.64,1.61,1.2,2.24,1.94,8.71,10.39,19.13,18.78,30.55,25.96,22.54,14.16,47.19,21.43,73.78,21.37,10.31-.02,19.02-4.71,25.31-13,2.88-3.8,4.94-8.23,7.37-12.37,5.63,5.57,8.31,12.52,9.65,20.18.23,1.29,1.31,2.95,2.45,3.46,13.56,6.16,27.27,12.01,40.82,18.2,10.48,4.79,21.06,5.34,31.98,1.9,5.69-1.8,11.44-3.44,17.17-5.1,4.24-1.22,7.1.02,8.21,3.44,1.06,3.3-.74,6.08-4.96,7.36-7.97,2.41-15.97,4.74-24.58,7.28,1.41,1.16,2.75,2.12,3.9,3.26,4.16,4.11,8.19,8.36,12.42,12.4,1.16,1.11,2.76,2.24,4.27,2.42,23.11,2.83,46.24,5.49,69.37,8.22,4.81.57,6.99,2.69,6.68,6.28-.32,3.67-3.24,5.48-8.12,4.91-19.54-2.26-39.08-4.55-58.63-6.81-.61-.07-1.24-.04-1.86-.06-.27-.02-.54-.04-.82-.05.14.15.28.3.42.44,2.72,4.13,5.4,8.28,8.15,12.38,3.35,4.99,3.15,6.85-1.3,10.71h-4.49ZM149.85,319.85c26.32,8.91,50.57,23.92,79.86,24.89-6.12-5.82-12.47-10.58-19.73-13.9-14.58-6.66-29.28-13.05-43.93-19.55-3.12-1.38-6.24-2.76-9.19-4.07-2.41,4.35-4.57,8.24-7.01,12.63Z"/><path class="cls-1" d="M80.11,184.64c-3.26,4.37-6.53,8.74-9.79,13.11-.89,1.2-1.66,2.5-2.62,3.64-2.17,2.61-5.5,3.13-7.97,1.35-2.35-1.7-3-4.85-1.18-7.68,2.91-4.5,5.87-8.99,9.19-13.18,2.68-3.39,3.77-6.26-.13-9.43-.93-.75-1.46-1.99-2.44-3.4-3.57,1.71-7.12,3.4-10.66,5.1-2.58,1.24-5.13,2.55-7.75,3.72-3.61,1.61-7.01.65-8.35-2.25-1.4-3.02-.04-6.17,3.5-7.92,4.25-2.09,8.54-4.09,12.8-6.15,1.67-.81,3.33-1.65,4.67-2.32-1.1-7.83-2.16-15.41-3.28-23.35-3.82,1.8-8.03,3.79-12.26,5.77-3.95,1.85-7.1,1.16-8.68-1.89-1.66-3.2-.24-6.28,3.9-8.3,4.35-2.12,8.73-4.19,13.66-6.55-1.59-1.41-2.86-2.49-4.06-3.62-2.99-2.8-6.17-5.45-8.86-8.51-1.75-1.99-3.09-2.23-5.37-1.03-4.85,2.54-9.84,4.82-14.79,7.18-4.6,2.19-7.68,1.62-9.33-1.69-1.7-3.41-.3-6.2,4.31-8.44,5.59-2.72,11.2-5.38,16.56-7.94-1.69-6.92-3.29-13.52-5.06-20.78-4.87-.19-10.41-.41-15.96-.61-1.37-.05-2.74,0-4.11-.05-3.75-.15-6.12-2.38-6.04-5.65.08-3.29,2.46-5.53,6.21-5.57,6.97-.07,13.93-.02,21.06-.02,1.91-5.37,3.94-11.06,6.07-17.03-4.89-2.25-10.12-4.29-14.94-7.07-1.81-1.04-3.55-3.73-3.64-5.75-.07-1.56,2.21-3.65,3.93-4.72,1.03-.64,3.14-.08,4.53.51,4.82,2.03,9.57,4.22,14.27,6.51,1.98.96,3.28.73,4.91-.83,3.12-3.01,6.54-5.69,10.12-8.76-2.25-4.75-4.59-9.67-6.91-14.6-1.81-3.85-1-7.24,2.05-8.63,3.19-1.46,6.21-.07,8.13,3.82,2.04,4.13,4.06,8.28,5.97,12.47.82,1.79,1.7,2.26,3.75,1.68,3.57-1.02,7.28-1.52,10.93-2.24.8,1.07,1.46,2.28,2.41,3.18,11.79,11.16,17.55,24.8,16.98,41.05-.26,7.5,3.12,12.94,8.8,17.58,3.92,3.2,7.68,6.81,10.71,10.84,7.85,10.4,11.25,22.26,10.47,35.36-1.1,18.38-9.84,32.25-24.76,42.48-6.85,4.7-14.6,7.21-23.33,9.02.79.53,1.59,1.05,2.38,1.58Z"/><path class="cls-6" d="M80.11,184.64c-.79-.53-1.59-1.05-2.38-1.58,8.73-1.82,16.48-4.32,23.33-9.02,14.92-10.24,23.66-24.11,24.76-42.48.78-13.09-2.62-24.96-10.47-35.36-3.04-4.03-6.8-7.63-10.71-10.84-5.67-4.64-9.06-10.08-8.8-17.58.57-16.24-5.19-29.89-16.98-41.05-.95-.9-1.61-2.12-2.41-3.18.88-.16,1.76-.31,2.65-.47,3.82.31,7.63.61,11.45.92,5.75,1.99,11.49,3.98,17.24,5.97,3.01,2.01,6.03,4.02,9.04,6.03,4.45,5.76,8.91,11.52,13.36,17.27,1.29,3.46,2.58,6.93,3.86,10.39.5,6.04.98,12.07,1.52,18.1.09.96.42,1.9.64,2.86.29,4.44,2.46,7.82,5.93,10.46,6.45,4.39,11.47,10.14,15.77,16.57,1.72,3.94,3.45,7.89,5.17,11.83.78,2.76,1.55,5.51,2.33,8.27.04,3.77.07,7.54.11,11.31-.87,4.66-1.74,9.33-2.61,13.99-.24,1.3-.52,2.59-.78,3.88-1.91,3.21-3.81,6.42-5.72,9.64-2.5,3.02-4.99,6.04-7.49,9.07-2.97,2.23-5.95,4.46-8.92,6.69-3.51,1.75-7.03,3.5-10.54,5.25-3.55.82-7.1,1.63-10.65,2.45-4.07.04-8.13.07-12.2.11-3.78-.62-7.55-1.23-11.33-1.85-5.05-2.55-10.11-5.11-15.16-7.66Z"/><path class="cls-5" d="M148.26,272.46c-2.43,4.14-4.49,8.57-7.37,12.37-6.29,8.28-15,12.97-25.31,13-26.59.06-51.24-7.21-73.78-21.37-11.42-7.18-21.85-15.56-30.55-25.96-.63-.75-1.49-1.3-2.24-1.94,2.51-12.77,14.68-24.25,27.61-26.23,14.24-2.18,25.48,2.76,34.67,13.63,13.29,15.72,30.3,24.36,50.97,25.32,10.12.47,18.98,3.62,26,11.18Z"/><path class="cls-2" d="M207.11,120.54c-2.14-9.18,1.94-17.41,10.24-20.63,8.2-3.19,16.79.36,21.46,8.62,10.74,19.03,26.98,28.99,48.96,29.27.74,0,1.47-.09,3.22-.2-2.11-4.08-3.9-7.79-5.91-11.37-5.52-9.79-1.9-20.98,8.31-25.03,1.79-.71,3.87-.71,5.82-1.03,1.1,2.36,2.21,4.73,3.31,7.09,8.08,17.33,10.26,35.44,6.86,54.18-3.84,21.14-14.28,38.53-30.82,52.14-8.19,6.74-17.1,12.44-27.7,14.81-3.39-8.81.04-17.65,8.9-21.69,9.85-4.48,18.52-10.42,24.33-19.63,2.94-4.66,4.8-10,7.15-15.03,2.7-7.34,3.66-14.81,2.23-21.79-9.26.11-18.14.7-26.97.2-16.96-.94-32.1-7.26-45.52-17.52-4.9-3.75-9.25-8.23-13.85-12.37Z"/><path class="cls-4" d="M250.84,228.38c10.6-2.37,19.51-8.06,27.7-14.81,16.54-13.61,26.98-31,30.82-52.14,3.4-18.74,1.22-36.85-6.86-54.18-1.1-2.36-2.21-4.73-3.31-7.09,6.46-.27,11.25,2.66,14.74,7.88,30.16,45.13,9.67,110.31-40.84,129.95-9.28,3.61-19.02-.6-22.26-9.62Z"/><path class="cls-4" d="M200.67,193.9c4.56-4.71,11.8-5.82,18.22-2.81,6.49,3.05,10.74,10.23,9.6,17.06-.73,4.39-2.6,8.61-3.13,13-2.01,16.88,5.56,30.02,21.15,37.42,9,4.27,13.03,12.79,10.14,21.44-3.48,10.42-15.98,14.95-24.87,9.01,9.7-8.24,7.34-23.53-4.4-28.46-10.25-4.31-17.13-11.78-20.59-22.31-2.67-8.13-1.84-16.09,1.11-24.08,3-8.11-.17-16.32-7.25-20.27Z"/><path class="cls-2" d="M200.67,193.9c7.08,3.95,10.24,12.16,7.25,20.27-2.95,7.99-3.79,15.95-1.11,24.08,3.46,10.53,10.34,18.01,20.59,22.31,11.73,4.93,14.1,20.22,4.4,28.46-5.68-3.46-11.95-6.23-16.95-10.49-22.48-19.16-30.03-50.08-19.28-77.56,1.03-2.62,3.38-4.73,5.11-7.07Z"/><path class="cls-4" d="M207.11,120.54c4.6,4.15,8.95,8.62,13.85,12.37,13.42,10.26,28.56,16.58,45.52,17.52,8.82.49,17.7-.1,26.97-.2,1.43,6.98.47,14.45-2.23,21.79-36.35.23-63.85-15.13-82.12-46.69-.86-1.48-1.33-3.19-1.99-4.79Z"/><path class="cls-1" d="M118.8,194.04c3.55-.82,7.1-1.63,10.65-2.45,2.15,8.16,4.36,16.31,6.41,24.5.8,3.18-1.16,6.12-4.2,6.86-2.9.7-5.76-.79-6.61-3.98-2.21-8.28-4.18-16.62-6.24-24.93Z"/><path class="cls-1" d="M139.99,186.35c2.97-2.23,5.95-4.46,8.92-6.69,5.17,6.67,10.42,13.28,15.47,20.04,2.13,2.85,1.36,6.32-1.36,8.2-2.53,1.74-5.61,1.21-7.87-1.69-5.12-6.56-10.11-13.23-15.16-19.85Z"/><path class="cls-1" d="M95.27,192.3c3.78.62,7.55,1.23,11.33,1.85-2.81,7.83-5.6,15.66-8.43,23.47-1.01,2.79-3.21,4.63-5.99,3.73-1.9-.61-3.44-2.74-4.76-4.47-.49-.64-.09-2.18.26-3.18,2.48-7.15,5.06-14.26,7.6-21.39Z"/><path class="cls-1" d="M156.41,170.59c1.91-3.21,3.82-6.42,5.72-9.64,7.18,2.36,14.42,4.58,21.52,7.15,3.01,1.09,4.12,4.38,3.03,7.11-1.18,2.95-4.01,4.28-7.34,3.18-7.67-2.54-15.3-5.2-22.94-7.81Z"/><path class="cls-1" d="M134.05,63.68c-1.29-3.46-2.58-6.93-3.86-10.39,6.03-2.97,12.02-6.03,18.1-8.89,3.61-1.7,6.79-.61,8.22,2.47,1.37,2.95.26,5.95-3.24,7.69-6.35,3.15-12.8,6.1-19.22,9.13Z"/><path class="cls-1" d="M165.52,143.08c-.04-3.77-.07-7.54-.11-11.31,6.8.32,13.62.52,20.41,1.01,4.79.35,7.07,2.9,6.56,6.73-.46,3.42-3.5,5.1-7.97,4.74-6.29-.5-12.59-.79-18.89-1.16Z"/><path class="cls-1" d="M116.82,36.01c-3.01-2.01-6.03-4.02-9.04-6.03,4.21-5.54,8.35-11.15,12.67-16.61,2.61-3.32,5.75-3.81,8.41-1.66,2.68,2.16,2.98,5.34.49,8.58-4.09,5.31-8.34,10.49-12.52,15.72Z"/><path class="cls-1" d="M163.08,123.5c-1.72-3.94-3.45-7.89-5.17-11.83,6.06-2.89,12.1-5.8,18.17-8.67,3.61-1.7,6.86-.9,8.39,1.98,1.62,3.06.3,6.27-3.49,8.16-5.11,2.56-10.31,4.96-15.38,7.59-1.04.54-1.69,1.82-2.52,2.76Z"/><path class="cls-1" d="M90.54,24c-3.82-.31-7.63-.61-11.45-.92,1.42-6.17,2.74-12.35,4.29-18.49.84-3.31,3.78-5.16,6.74-4.45,3.33.81,4.83,3.19,4.23,6.42-1.09,5.84-2.52,11.62-3.8,17.43Z"/><path class="cls-1" d="M142.14,95.1c-3.47-2.64-5.64-6.02-5.93-10.46,4.57-2.21,9.1-4.5,13.71-6.61,3.91-1.79,7.22-.85,8.61,2.21,1.41,3.1.02,6.03-3.81,8.08-4.2,2.25-8.39,4.51-12.59,6.77Z"/></g></svg>