<?xml version="1.0" encoding="UTF-8"?><svg id="Layer_2" xmlns="http://www.w3.org/2000/svg" viewBox="0 0 379.23 384"><defs><style>.cls-1{fill:#df68bd;}.cls-2{fill:#6280cb;}.cls-3{fill:#ee8bbd;}.cls-4{fill:#8bb5ee;}</style></defs><g id="Layer_1-2"><path class="cls-3" d="M150.58,305.24c-1.91,15-6.41,29.24-14.21,42.14-5.06,8.38-11.08,16.22-17.15,23.93-4.37,5.55-9.43,10.61-16.6,12.69h-8.25c-3.47-2.06-7.44-3.6-10.32-6.3-7.95-7.45-8.18-19.32-1.09-27.67.63-.74,1.12-1.6,1.68-2.41,3.28-4.02,6.56-8.04,9.84-12.07,2.23-3.3,4.45-6.6,6.68-9.9,2.21-5.21,4.42-10.42,6.62-15.63l2.28-9.27c6.64.66,13.28,1.26,19.92,2,6.88.76,13.74,1.65,20.6,2.48Z"/><path class="cls-3" d="M140.13,0c2.36,5.87,4.94,11.66,7,17.63,1.09,3.15,2.87,5.01,5.85,6.22,4.27,1.72,8.5,3.57,12.62,5.63,1.17.58,2.59,2.07,2.6,3.14,0,1.07-1.41,2.58-2.57,3.16-4.12,2.06-8.35,3.9-12.61,5.63-2.97,1.2-4.88,2.99-5.86,6.21-1.48,4.87-3.34,9.64-5.28,14.36-.5,1.22-1.9,2.07-2.88,3.08-.98-1.02-2.38-1.87-2.88-3.09-1.98-4.83-3.83-9.73-5.42-14.71-.88-2.74-2.41-4.46-5.04-5.54-4.49-1.85-8.95-3.79-13.29-5.95-1.16-.58-2.58-2.09-2.57-3.16,0-1.08,1.44-2.56,2.6-3.14,4.35-2.16,8.8-4.1,13.29-5.95,2.64-1.09,4.06-2.87,5.02-5.55,2.18-6.06,4.75-11.99,7.16-17.97.75,0,1.5,0,2.25,0Z"/><path class="cls-4" d="M38.2,301.28c-.93.57-1.98,1.01-2.76,1.74-6.3,5.96-13.7,7.75-21.76,4.87-8.26-2.95-12.86-9.31-13.61-18.03-.5-5.85,1.52-11.2,5.64-15.36,21.64-21.84,46.95-36.94,77.89-41.03,7.75-1.03,15.67-.8,23.51-1.14,6.93.53,13.88.98,20.8,1.62,7.04.65,14.06,1.49,21.09,2.24,7.22.74,14.43,1.61,21.67,2.14,2.77.21,5.59-.35,8.38-.56,6.31-.12,12.44-.99,18-4.25,3.34-2.11,6.68-4.23,10.02-6.34,4.77-2.56,8.93-5.72,10.99-10.99,3.8-2.48,6.3-5.77,6.61-10.45.81-.84,2.08-1.55,2.34-2.54,1.2-4.45,2.11-8.97,3.13-13.47.37-1.77,1.1-3.54,1.06-5.3-.24-9.6-.66-19.2-1.02-28.8-1.05-14.02-2.11-28.04-3.16-42.06-.21-15.01,1.03-29.84,5.32-44.32,5.26-17.75,14.28-33.38,26.45-47.23,2.87-3.27,5.73-6.66,9.12-9.33,8.65-6.82,21.2-5.86,27.8,1.73,7.76,8.92,7.45,20.41-.7,29.04-1.07,1.14-1.85,2.55-2.77,3.83-3.24,4.03-6.48,8.06-9.73,12.09-1.93,3.67-3.86,7.34-5.79,11-.43.22-1.15.34-1.26.67-1.67,5.06-3.25,10.15-4.86,15.24-.23.56-.57,1.1-.67,1.69-1.82,10.1-2.48,20.26-1.47,30.5,1.24,13.76,2.48,27.53,3.72,41.29.2,6.48.72,12.97.53,19.45-.56,19.12-4.4,37.44-15.08,53.69-15.78,24.02-37.07,40.28-65.94,45.13-11.84,1.99-23.82,1.99-35.77.44-1.23-.16-2.49-.1-3.74-.15-2.82-.4-5.63-.89-8.45-1.19-10.95-1.15-21.9-2.25-32.85-3.36-6.2,0-12.45-.47-18.59.16-5.75.59-11.37,2.36-17.05,3.61-5.13,2.24-10.25,4.48-15.38,6.72-3.3,2.26-6.6,4.53-9.9,6.79-3.92,3.41-7.85,6.82-11.77,10.24Z"/><path class="cls-1" d="M149,236.2c-7.03-.75-14.05-1.59-21.09-2.24-6.92-.64-13.87-1.09-20.8-1.62,0-9.58-.42-19.19.1-28.75,1.07-19.86,7.98-37.71,20.41-53.21,12.59-15.7,27.99-27.66,47.55-33.59,14.4-4.37,29.11-5.15,44.01-3.68,2.61.26,5.23.31,7.85.47,1.05,14.02,2.11,28.04,3.16,42.06-11.58-1.07-23.14-2.98-34.81-1.06-5.51,1.93-11.01,3.86-16.52,5.79-3.27,2.27-6.55,4.53-9.82,6.8-3.48,3.78-6.96,7.56-10.43,11.35-2.11,3.87-4.23,7.75-6.34,11.62-1.28,5.68-2.57,11.37-3.85,17.05l.59,29.03Z"/><path class="cls-3" d="M338.48,93.73c1.6-1.36,3.31-2.62,4.79-4.09,6.08-6.03,13.16-8.42,21.5-5.82,8.21,2.56,12.79,8.44,14.17,16.76,1.02,6.14-.67,11.75-4.96,16.22-19.38,20.22-42.2,34.55-69.92,40.36-1.34.28-2.72.37-4.08.55-.54-5.93-.96-11.88-1.64-17.8-.88-7.63-1.98-15.23-2.98-22.85,1.51-.5,3.02-1,4.54-1.51,5.31-2.02,10.62-4.03,15.92-6.05,3.47-2.01,6.95-4.02,10.42-6.03,4.08-3.25,8.16-6.49,12.24-9.74Z"/><path class="cls-1" d="M295.36,117.06c1,7.61,2.1,15.22,2.98,22.85.68,5.92,1.11,11.86,1.64,17.8-9.27.69-18.54,1.38-27.8,2.06-1.24-13.76-2.48-27.53-3.72-41.29,8.97-.47,17.93-.95,26.9-1.42Z"/><path class="cls-1" d="M110.88,273.77c10.95,1.12,21.9,2.21,32.85,3.36,2.83.3,5.64.78,8.45,1.19-.29,7.9-.55,15.8-.89,23.69-.05,1.08-.47,2.15-.72,3.23-6.87-.83-13.73-1.72-20.6-2.48-6.63-.73-13.28-1.34-19.91-2,.28-9,.55-18,.83-26.99Z"/><path class="cls-2" d="M38.2,301.28c3.92-3.41,7.85-6.82,11.77-10.24,14.83,14.84,29.67,29.68,44.5,44.52-3.28,4.02-6.56,8.04-9.84,12.06-15.48-15.45-30.96-30.9-46.44-46.35Z"/><path class="cls-2" d="M338.48,93.73c-4.08,3.25-8.16,6.49-12.24,9.74-.93-1-1.84-2.03-2.8-3-13.64-13.7-27.29-27.4-40.93-41.09,3.24-4.03,6.48-8.06,9.73-12.09,15.41,15.48,30.83,30.96,46.24,46.44Z"/><path class="cls-3" d="M318.39,280.63c1.02,1.68,1.8,2.62,2.22,3.7,1.3,3.37,2.23,6.9,3.76,10.15.82,1.74,2.33,3.43,3.96,4.43,2.75,1.68,5.89,2.69,8.76,4.18.96.5,2.19,1.61,2.22,2.48.03.84-1.16,2.05-2.1,2.55-3.09,1.61-6.41,2.79-9.44,4.5-1.36.77-2.62,2.23-3.26,3.68-1.46,3.29-2.41,6.81-3.8,10.14-.52,1.24-1.68,2.2-2.54,3.29-.83-1.14-1.9-2.19-2.43-3.46-1.24-2.99-2.39-6.03-3.27-9.14-.75-2.67-2.34-4.21-4.83-5.21-2.89-1.16-5.73-2.45-8.52-3.84-2.85-1.42-2.93-3.31-.11-4.81,2.97-1.58,6.25-2.59,9.11-4.31,1.64-.99,3.17-2.68,3.99-4.42,1.58-3.37,2.55-7.02,3.91-10.49.4-1.03,1.28-1.88,2.36-3.41Z"/><path class="cls-3" d="M345.61,182.41c.87,1.82,2.17,3.56,2.53,5.48,1.51,7.89,5.54,13.35,13.6,15.37.83.21,1.67.61,2.35,1.13.84.63,2.25,1.64,2.12,2.2-.23,1.01-1.24,2.11-2.22,2.63-2.75,1.46-5.6,2.75-8.49,3.9-2.5,1-4.03,2.55-4.77,5.22-.93,3.35-2.22,6.62-3.54,9.84-.41.99-1.44,1.73-2.18,2.58-.77-.89-1.83-1.66-2.26-2.68-1.21-2.87-2.34-5.79-3.16-8.78-.86-3.14-2.55-5.24-5.64-6.37-2.45-.9-4.88-1.94-7.15-3.22-1.14-.65-2.4-1.86-2.64-3.03-.15-.7,1.53-1.81,2.42-2.7.25-.25.64-.43.99-.5,8.61-1.9,12.78-7.73,14.42-15.97.35-1.74,1.44-3.33,2.18-4.99.48-.03.95-.07,1.43-.1Z"/><path class="cls-3" d="M41.39,123.16c.95,1.33,1.58,1.92,1.86,2.65,1.26,3.25,2.65,6.48,3.54,9.83.9,3.37,2.88,5.31,6.03,6.5,2.67,1.01,5.3,2.2,7.82,3.55,2.83,1.53,2.81,3.34-.07,4.85-2.86,1.5-6.05,2.45-8.77,4.14-1.83,1.14-3.59,2.94-4.54,4.86-1.64,3.33-2.56,7-3.91,10.48-.32.82-1.14,1.45-1.73,2.16-.76-.71-1.86-1.29-2.21-2.17-1.36-3.34-2.62-6.74-3.65-10.19-.77-2.58-2.1-4.34-4.67-5.35-3.13-1.22-6.2-2.63-9.18-4.17-2.39-1.24-2.32-3.04-.03-4.45.32-.19.66-.38,1.02-.47,9.58-2.32,14.24-8.96,16.16-18.15.26-1.27,1.33-2.37,2.34-4.09Z"/><path class="cls-3" d="M209.89,364.12c-.03-7.98,6.48-14.57,14.42-14.6,7.76-.03,14.45,6.43,14.63,14.12.18,7.78-6.85,14.89-14.74,14.92-7.58.03-14.28-6.72-14.31-14.44Z"/><path class="cls-3" d="M74.94,59.96c.01,3.47-2.31,5.96-5.64,6.04-3.71.1-6.49-2.58-6.4-6.17.09-3.44,2.79-5.93,6.34-5.85,3.36.07,5.68,2.52,5.7,5.98Z"/><path class="cls-2" d="M59.87,284.26c5.13-2.24,10.25-4.48,15.38-6.72,10.84,10.83,21.69,21.66,32.53,32.49-2.21,5.21-4.42,10.42-6.62,15.63-13.76-13.8-27.52-27.6-41.28-41.41Z"/><path class="cls-2" d="M158.6,178.5c3.48-3.78,6.96-7.56,10.44-11.34,16.35,16.35,32.69,32.69,49.04,49.04-2.06,5.27-6.22,8.43-10.99,10.99-16.16-16.23-32.32-32.46-48.48-48.69Z"/><path class="cls-2" d="M178.86,160.36c5.51-1.93,11.01-3.86,16.52-5.79.91,1.02,1.77,2.09,2.73,3.05,10.67,10.71,21.36,21.41,32.04,32.11-1.02,4.5-1.93,9.02-3.13,13.47-.26.98-1.53,1.7-2.34,2.54-.7-.51-1.48-.94-2.08-1.54-14.59-14.6-29.16-29.23-43.74-43.84Z"/><path class="cls-2" d="M148.41,207.17c1.28-5.68,2.57-11.37,3.85-17.05,1.59,1.16,3.37,2.15,4.75,3.52,13.38,13.26,26.7,26.58,40.04,39.88-5.56,3.27-11.69,4.14-18,4.25-10.21-10.2-20.43-20.41-30.64-30.61Z"/><path class="cls-2" d="M315.82,109.5c-5.31,2.02-10.62,4.03-15.92,6.05-9.76-9.75-19.53-19.5-29.29-29.26,1.61-5.08,3.19-10.17,4.86-15.24.11-.32.82-.45,1.26-.67,13.03,13.04,26.07,26.07,39.1,39.11Z"/></g></svg>