<?xml version="1.0" encoding="UTF-8"?><svg id="Layer_2" xmlns="http://www.w3.org/2000/svg" viewBox="0 0 205.33 253"><defs><style>.cls-1{fill:#fed672;}.cls-2{fill:#60b7fe;}.cls-3{fill:#b0e3f8;}.cls-4{fill:#ea5468;}.cls-5{fill:#e4394f;}.cls-6{fill:#fefefe;}.cls-7{fill:#faba58;}.cls-8{fill:#75cdf7;}.cls-9{fill:#dcd9eb;}</style></defs><g id="Layer_1-2"><path class="cls-4" d="M83.73,76.11c3.48-12.48,6.34-25.18,10.59-37.4C101.85,17.03,117.7,4.66,140.15.55c.52-.1,1.01-.36,1.52-.55,3.95,0,7.91,0,11.86,0-.54.27-1.08.54-1.47.73,3.15,2.5,6.49,4.87,9.49,7.61,5.65,5.16,9.87,11.42,12.99,18.39,4.9,10.92,6.66,22.41,3.82,34.03-3.95,16.15-8.71,32.1-13.09,48.15-1.34,4.89-2.59,9.81-3.87,14.72-.16.03-.32.06-.48.09-7.1-1.98-14.2-3.99-21.31-5.95-14.3-3.95-28.6-7.87-42.91-11.81-.16-.8-.39-1.59-.47-2.4-.61-6.02-2.28-11.73-5.39-16.92-2.18-3.63-4.73-7.03-7.12-10.53Z"/><path class="cls-5" d="M161.4,123.63c1.29-4.91,2.54-9.82,3.87-14.72,4.38-16.04,9.14-32,13.09-48.15,2.84-11.62,1.08-23.11-3.82-34.03-3.12-6.97-7.34-13.23-12.99-18.39-3-2.74-6.34-5.11-9.49-7.61.38-.19.92-.46,1.47-.73.33,0,.66,0,.99,0,3.39.8,6.86,1.35,10.15,2.43,22.1,7.28,35.28,22.47,39.81,45.25,1.96,9.87.29,19.38-2.43,28.9-4.99,17.41-9.71,34.89-14.56,52.34-.19.69-.57,1.32-.85,1.98-.38-.15-.75-.33-1.14-.44-8.03-2.28-16.06-4.56-24.09-6.83Z"/><path class="cls-3" d="M57.67,253c-3.48-.8-7.02-1.42-10.44-2.42-15.24-4.49-26.66-13.77-34.28-27.71-5.47-10.02-7.39-20.8-6.62-32.11.13-1.86.69-3.69,1.06-5.53.64.13,1.32.16,1.91.39,6.78,2.69,13.54,5.43,20.32,8.13,11.65,4.63,23.32,9.23,34.97,13.86,5.94,2.36,11.88,4.73,17.8,7.13,1.12.45,2.37.8,1.77,2.6-3.22,9.77-7.85,18.76-14.67,26.51-2.8,3.18-5.9,6.11-8.86,9.15h-2.96Z"/><path class="cls-8" d="M60.63,253c2.96-3.04,6.06-5.97,8.86-9.15,6.81-7.75,11.45-16.74,14.67-26.51.59-1.8-.66-2.15-1.77-2.6-5.93-2.4-11.86-4.77-17.8-7.13-11.65-4.63-23.32-9.23-34.97-13.86-6.78-2.69-13.54-5.44-20.32-8.13-.6-.24-1.27-.27-1.91-.39.99-6.95,3.69-13.24,7.31-19.18,1.11.23,2.29.31,3.33.73,23.43,9.28,46.85,18.6,70.27,27.91-.86,5.82-1.57,11.66-2.64,17.44-.66,3.58-.89,3.49,2.6,4.87,7.78,3.09,15.53,6.23,23.3,9.35-.87,1.45-1.74,2.9-2.61,4.35-4.5,5.26-9.44,10.05-15.37,13.7-7.08,4.36-14.71,7.18-22.99,8.15-.37.04-.71.3-1.07.46h-8.89Z"/><path class="cls-1" d="M26.14,152.29c-11.65-6.42-19.88-15.73-23.92-28.51-8.76-27.71,9.4-57.35,37.96-61.92,6.89-1.1,13.74-.85,20.5.98.17.13.33.27.5.4,0,0-.02-.04-.02-.04.08.31.07.69.25.93,9.2,13.26,13.2,27.92,12.12,44.02-.75,11.18-4.69,20.83-12.95,28.58-.75.7-1.27,1.65-1.89,2.48-7.63.5-14.85,2.52-21.53,6.19-3.79,2.08-7.34,4.58-11,6.88ZM47.28,85.37c.07-2-1.61-3.72-3.73-3.83-2.34-.11-4.15,1.61-4.14,3.93,0,1.69,2.16,3.89,3.85,3.94,1.77.05,3.94-2.14,4.01-4.04ZM53.71,125.5c0-2.13-1.6-3.87-3.61-3.93-1.97-.06-4.32,2.16-4.26,4.02.05,1.69,2.26,3.85,3.94,3.84,2.11,0,3.94-1.84,3.93-3.93ZM56.68,104.8c.03,1.76,2.34,3.96,4.07,3.88,1.68-.08,3.82-2.29,3.81-3.95-.02-1.87-2.4-4.02-4.34-3.91-2,.11-3.57,1.89-3.53,3.98ZM32.97,110.3c.03-2.15-1.53-3.98-3.44-4.02-2.22-.05-3.94,1.61-3.98,3.84-.04,2.23,1.68,4.06,3.78,4.02,2.01-.04,3.62-1.74,3.64-3.84Z"/><path class="cls-3" d="M26.14,152.29c3.66-2.31,7.21-4.81,11-6.88,6.69-3.67,13.91-5.68,21.53-6.19,4.61.21,9.22.43,13.84.64,5.1,7.11,9.1,14.79,11.71,23.13,3.23,10.3,4.49,20.9,4.08,31.69h0c-23.42-9.31-46.84-18.63-70.27-27.91-1.04-.41-2.22-.49-3.33-.73,3.81-4.59,7.63-9.17,11.44-13.76Z"/><path class="cls-7" d="M72.51,139.86c-4.61-.21-9.22-.43-13.84-.64.63-.83,1.15-1.78,1.89-2.48,8.25-7.75,12.2-17.4,12.95-28.58,1.08-16.11-2.92-30.77-12.12-44.02-.17-.25-.17-.62-.25-.93,4.26,1.76,8.68,3.22,12.72,5.39,2.97,1.6,5.42,4.15,8.11,6.26.56.44,1.17.83,1.75,1.25,2.38,3.5,4.94,6.91,7.12,10.54,3.11,5.18,4.78,10.9,5.39,16.92.08.81.31,1.6.47,2.4.49,13.89-3.72,26.09-13.05,36.46-3.71-.85-7.43-1.71-11.14-2.56Z"/><path class="cls-7" d="M61.17,63.24c-.17-.14-.33-.27-.5-.4.17.14.33.27.5.4Z"/><path class="cls-9" d="M108.96,230.69c.87-1.45,1.74-2.9,2.61-4.35,1.64-2.97,3.28-5.95,4.93-8.92.15-.18.31-.35.46-.53,0,0-.08,0-.08,0,.54-.16,1.14-.23,1.62-.51,13.53-8.08,22.36-19.77,26.61-34.9,4.05-14.42,8.02-28.87,12-43.31,1.32-4.8,2.55-9.64,3.82-14.45.16-.03.32-.06.48-.09,8.03,2.28,16.06,4.55,24.09,6.83.39.11.76.29,1.14.44-1.77,6.55-3.52,13.11-5.32,19.65-3.48,12.62-6.88,25.27-10.52,37.85-6.5,22.49-21.35,36.4-44.05,41.69-4.8,1.12-9.92.85-14.9,1.13-.95.05-1.92-.34-2.88-.53Z"/><path class="cls-6" d="M160.92,123.72c-1.27,4.82-2.5,9.65-3.82,14.45-3.98,14.44-7.95,28.89-12,43.31-4.25,15.14-13.09,26.82-26.61,34.9-.47.28-1.07.34-1.62.51.82-3.28,1.65-6.55,2.47-9.83,1.61-7.4,1.57-14.84.04-22.22-2.65-12.79-8.87-23.5-18.77-32.12-5.09-4.43-10.94-7.48-16.97-10.3,9.33-10.37,13.55-22.57,13.05-36.46,14.3,3.93,28.61,7.86,42.91,11.81,7.11,1.96,14.21,3.97,21.31,5.95Z"/><path class="cls-2" d="M119.34,207.06c-.82,3.28-1.65,6.55-2.47,9.83,0,0,.08,0,.08,0-.15.18-.31.35-.46.53-1.64,2.97-3.28,5.95-4.93,8.92-7.77-3.12-15.52-6.26-23.3-9.35-3.49-1.39-3.27-1.3-2.6-4.87,1.07-5.78,1.78-11.62,2.64-17.44,0,0,0,0,0,0,10.35,4.13,20.7,8.25,31.05,12.38Z"/><path class="cls-7" d="M47.28,85.37c-.07,1.9-2.24,4.09-4.01,4.04-1.69-.05-3.84-2.24-3.85-3.94-.01-2.32,1.8-4.04,4.14-3.93,2.12.1,3.8,1.83,3.73,3.83Z"/><path class="cls-7" d="M53.71,125.5c0,2.09-1.83,3.92-3.93,3.93-1.67,0-3.88-2.15-3.94-3.84-.06-1.86,2.29-4.08,4.26-4.02,2.01.06,3.6,1.81,3.61,3.93Z"/><path class="cls-7" d="M56.68,104.8c-.04-2.09,1.54-3.87,3.53-3.98,1.94-.11,4.32,2.04,4.34,3.91.02,1.65-2.12,3.87-3.81,3.95-1.73.08-4.03-2.12-4.07-3.88Z"/><path class="cls-7" d="M32.97,110.3c-.03,2.1-1.64,3.8-3.64,3.84-2.1.04-3.82-1.79-3.78-4.02.04-2.23,1.76-3.89,3.98-3.84,1.9.04,3.46,1.87,3.44,4.02Z"/><path class="cls-8" d="M119.34,207.06c-10.35-4.13-20.7-8.25-31.05-12.38.42-10.79-.85-21.39-4.08-31.69-2.61-8.34-6.62-16.02-11.71-23.13,3.72.85,7.43,1.71,11.14,2.56,6.03,2.82,11.88,5.87,16.97,10.3,9.9,8.62,16.13,19.33,18.77,32.12,1.53,7.38,1.56,14.82-.04,22.22Z"/><path class="cls-6" d="M116.49,217.42c.15-.18.31-.35.46-.53-.15.18-.31.35-.46.53Z"/></g></svg>