<?xml version="1.0" encoding="UTF-8"?><svg id="Layer_2" xmlns="http://www.w3.org/2000/svg" viewBox="0 0 408.99 394.97"><defs><style>.cls-1{fill:#fc6f71;}.cls-2{fill:#e34c4d;}</style></defs><g id="Layer_1-2"><path class="cls-1" d="M229.46,212.13c6.99-12.74,16.32-23.56,27.63-32.57,23.55-18.74,50.21-29.16,80.57-27.99,22.32.86,42.07,8.3,56.94,25.91,7.37,8.73,11.63,18.91,13.57,30.12.12.72.53,1.39.81,2.08v16.77c-1.89,6.9-3.72,13.81-5.7,20.68-.5,1.72-1.46,3.3-2.21,4.95-.56.25-1.27.36-1.66.77-6.93,7.28-13.15,15.42-20.85,21.75-26,21.38-55.73,31.78-89.7,27.7-18.68-2.24-34.89-9.58-47.34-24.13-13.3-15.54-17.19-33.59-14.12-53.45.65-4.2,1.37-8.39,2.06-12.59ZM267.27,262.16c8.07-1.72,17.42-3.04,26.34-5.76,16.93-5.16,32.08-13.83,45.7-25.22,10.21-8.54,18.99-18.18,24.55-30.39,1.35-2.96,2.43-6.26,2.59-9.46.08-1.7-1.73-4.48-3.3-5.03-1.83-.64-4.55.19-6.45,1.21-1.27.68-2.06,2.7-2.55,4.29-2.44,7.79-7,14.21-12.45,20.13-11.05,12.01-24.24,21.01-39.02,27.74-12.79,5.83-26.03,9.91-40.32,9.1-2.88-.16-5.75-.76-8.6-1.31-4.02-.77-7.32.89-8.27,4.31-.9,3.27,1.31,6.65,5.27,7.48,5.03,1.06,10.13,1.8,16.52,2.91Z"/><path class="cls-1" d="M79.2,226.6c13.1.48,25.79,3.11,37.97,7.88,23.74,9.3,43.47,23.93,57.8,45.19,12.67,18.8,19.32,39.29,14.62,62.2-4.37,21.34-17.27,36.02-36.63,45.29-9.93,4.75-20.52,7.03-31.49,7.63-3.47-.63-6.95-1.23-10.42-1.89-15.02-2.88-28.96-8.6-41.91-16.61-23.7-14.65-41.01-34.54-49.2-61.6-3.92-12.94-4.46-26.08-.77-39.15,7.66-27.07,31.03-43.5,57.61-47.54.86-.13,1.61-.91,2.41-1.39ZM144.77,336.79c3.16-.53,8.67-1.21,14.05-2.45,3.93-.91,5.75-4.14,4.91-7.38-.92-3.53-3.95-4.67-8.13-4.32-7.08.6-14.31,1.41-21.31.6-13.85-1.59-26.58-6.96-38.61-13.92-14.4-8.33-27.09-18.62-36.17-32.79-1.83-2.86-2.65-6.36-4.4-9.29-1.41-2.36-3.12-5.41-5.38-6.22-4.72-1.67-8.44,3.07-6.86,8.35,2.91,9.69,8.15,18.06,14.95,25.51,12.72,13.95,27.97,24.36,45.12,31.98,12.53,5.57,25.63,9.22,41.83,9.92Z"/><path class="cls-1" d="M118.33,11.46c11-3.32,21.8-7.78,33.04-9.7,20.89-3.58,41.64-1.87,61.35,6.71,20.56,8.96,35.99,22.97,42.48,45.16,4.9,16.75,2.53,32.93-5.17,48.31-9.54,19.07-24.68,32.69-43.12,42.91-.5.1-.99.19-1.49.29,0,0,.02-.08.02-.08-.91.15-1.84.19-2.71.46-19.67,6.08-39.68,7.96-60.01,4.24-20.95-3.83-39.31-12.55-52.85-29.64-11.77-14.86-16.22-31.79-12.75-50.36,3.74-20.08,14.54-36.13,30.13-49.11,3.23-2.68,6.32-5.53,9.47-8.3,0,0-.05.08-.05.08.55-.32,1.1-.64,1.65-.96ZM130.23,95.1c.4-.05,1.71-.33,3.02-.35,20.69-.36,40.02-5.98,58.22-15.51,11.63-6.09,22.02-13.81,28.91-25.41,2.29-3.85,1.91-6.57-1.39-8.94-2.87-2.07-5.34-1.61-8.27,1.79-1.9,2.2-3.44,4.72-5.36,6.89-7.85,8.84-17.9,14.47-28.57,19.06-13.74,5.91-28.15,9.31-43.09,10.05-13.01.65-25.68-.86-37.37-7.32-2.77-1.53-5.24-.41-7.04,1.88-1.88,2.39-1.72,4.98.22,7.3.75.9,1.72,1.68,2.73,2.28,11.45,6.78,24.22,7.92,38,8.28Z"/><path class="cls-2" d="M229.46,212.13c-.69,4.2-1.41,8.39-2.06,12.59-3.06,19.87.83,37.92,14.12,53.45,12.45,14.55,28.66,21.89,47.34,24.13,33.97,4.07,63.7-6.32,89.7-27.7,7.7-6.33,13.92-14.47,20.85-21.75.39-.41,1.1-.52,1.66-.77-5.65,13.49-14.46,24.75-25.09,34.56-17.26,15.93-37.41,26.62-60.5,31.09-25.55,4.95-50.15,2.72-71.84-13.19-16.3-11.95-24.66-28.47-25.48-48.71-.64-15.7,3.56-30.17,11.3-43.72Z"/><path class="cls-2" d="M116.73,12.35c-3.15,2.77-6.25,5.62-9.47,8.3-15.59,12.97-26.39,29.02-30.13,49.11-3.46,18.57.98,35.51,12.75,50.36,13.54,17.1,31.9,25.81,52.85,29.64,20.32,3.71,40.33,1.83,60.01-4.24.87-.27,1.81-.31,2.71-.46-6.28,2.89-12.38,6.33-18.88,8.57-14.93,5.16-30.43,7.51-46.21,6.37-26.31-1.9-50.04-10.1-67.02-31.57-15.69-19.84-17.97-42.06-8.41-65.2,9.82-23.75,28.06-39.48,50.64-50.68.34-.17.78-.14,1.17-.2Z"/><path class="cls-2" d="M79.2,226.6c-.8.48-1.56,1.26-2.41,1.39-26.57,4.04-49.95,20.47-57.61,47.54-3.7,13.07-3.15,26.21.77,39.15,8.19,27.06,25.5,46.95,49.2,61.6,12.95,8,26.89,13.73,41.91,16.61,3.47.67,6.95,1.26,10.42,1.89-31.4,1.78-58.65-8.83-82.76-28.21-15.85-12.74-27.81-28.57-34.21-48.02-8.26-25.08-5.71-48.54,12.5-68.82,10.98-12.23,25.29-18.74,41.23-21.52,6.88-1.2,13.98-1.11,20.98-1.61Z"/><path class="cls-2" d="M118.33,11.46c-.55.32-1.1.64-1.65.96.55-.32,1.1-.64,1.65-.96Z"/><path class="cls-2" d="M205.43,145.14c.5-.1.99-.19,1.49-.29-.49.1-.99.19-1.49.29Z"/><path class="cls-2" d="M267.27,262.16c-6.39-1.11-11.49-1.86-16.52-2.91-3.96-.83-6.17-4.22-5.27-7.48.95-3.42,4.25-5.08,8.27-4.31,2.85.55,5.72,1.14,8.6,1.31,14.29.81,27.53-3.27,40.32-9.1,14.78-6.73,27.97-15.73,39.02-27.74,5.44-5.92,10.01-12.34,12.45-20.13.49-1.58,1.29-3.61,2.55-4.29,1.89-1.02,4.62-1.85,6.45-1.21,1.57.55,3.39,3.33,3.3,5.03-.16,3.2-1.24,6.5-2.59,9.46-5.55,12.22-14.33,21.85-24.55,30.39-13.62,11.39-28.77,20.06-45.7,25.22-8.92,2.72-18.27,4.04-26.34,5.76Z"/><path class="cls-2" d="M144.77,336.79c-16.2-.7-29.3-4.35-41.83-9.92-17.15-7.63-32.41-18.03-45.12-31.98-6.8-7.46-12.04-15.82-14.95-25.51-1.58-5.27,2.13-10.02,6.86-8.35,2.27.8,3.98,3.85,5.38,6.22,1.75,2.93,2.56,6.43,4.4,9.29,9.08,14.17,21.76,24.47,36.17,32.79,12.03,6.96,24.77,12.33,38.61,13.92,6.99.8,14.23,0,21.31-.6,4.18-.35,7.21.78,8.13,4.32.84,3.23-.98,6.46-4.91,7.38-5.38,1.25-10.88,1.92-14.05,2.45Z"/><path class="cls-2" d="M130.23,95.1c-13.78-.36-26.54-1.5-38-8.28-1.01-.6-1.98-1.38-2.73-2.28-1.94-2.33-2.1-4.92-.22-7.3,1.8-2.29,4.28-3.41,7.04-1.88,11.69,6.46,24.36,7.97,37.37,7.32,14.94-.74,29.34-4.14,43.09-10.05,10.67-4.59,20.72-10.22,28.57-19.06,1.93-2.17,3.47-4.69,5.36-6.89,2.93-3.4,5.4-3.85,8.27-1.79,3.3,2.38,3.68,5.1,1.39,8.94-6.9,11.59-17.28,19.32-28.91,25.41-18.2,9.52-37.53,15.15-58.22,15.51-1.31.02-2.62.3-3.02.35Z"/></g></svg>