<?xml version="1.0" encoding="UTF-8"?><svg id="Layer_2" xmlns="http://www.w3.org/2000/svg" viewBox="0 0 384 383.31"><defs><style>.cls-1{fill:#16cffe;}.cls-2{fill:#50dafe;}.cls-3{fill:#feb35c;}.cls-4{fill:#c3f2fe;}.cls-5{fill:#8ae6fe;}.cls-6{fill:#636da4;}.cls-7{fill:#534db1;}.cls-8{fill:#fecf6a;}.cls-9{fill:#7587b2;}</style></defs><g id="Layer_1-2"><path class="cls-4" d="M309.75,0c2.63,2,5.52,3.74,7.86,6.05,15.96,15.76,31.81,31.64,47.69,47.49.52.52.98,1.12,1.46,1.68.05.62.03,1.25.17,1.85,2.06,8.8-2.79,14.86-11.86,14.82-1.12,0-2.24,0-3.36,0,0,0,.03.02.03.02-.26,0-.52,0-.78-.01-1.27-.78-2.53-1.56-3.8-2.34-.09-.47,0-1.11-.29-1.39-5.35-5.28-10.74-10.51-16.12-15.76-4.56-4.69-9.09-9.4-13.7-14.03-.73-.73-1.82-1.1-2.74-1.64-.73-1.11-1.3-2.36-2.2-3.29-3.72-3.84-7.54-7.57-11.32-11.35C292.35,13.66,293.42,5.68,303.75,0c2,0,4,0,6,0Z"/><path class="cls-9" d="M0,375.77c1.21-1.41,2.34-2.91,3.65-4.22,20.39-20.39,40.81-40.75,61.21-61.12,2.7,2.7,5.4,5.4,8.11,8.1-20.55,20.5-41.09,41.01-61.65,61.51C6.8,384.55,4.05,384.41,0,379.51c0-1.25,0-2.5,0-3.74Z"/><path class="cls-5" d="M351.71,71.88c1.12,0,2.24,0,3.36,0,9.08.05,13.92-6.02,11.86-14.82-.14-.6-.12-1.23-.17-1.85,4.79,4.72,9.66,9.39,14.34,14.22,1.25,1.29,1.95,3.1,2.9,4.67v5.99c-2.65,5.42-6.42,9.11-13.04,8.24-1.21-.16-2.76-.19-3.53-.92-5.33-5.08-10.5-10.33-15.72-15.53Z"/><path class="cls-4" d="M200.98,134.53c.87-1.17,1.62-2.47,2.64-3.49,14.11-14.14,28.25-28.25,42.41-42.34.97-.96,2.12-1.75,3.52-2.89-1.31-1.45-2.15-2.46-3.07-3.38-6.88-6.89-13.84-13.71-20.65-20.66-5.73-5.85-5.89-12.22-.67-17.41,4.66-4.63,11.49-4.6,16.36.22,9.85,9.75,19.62,19.58,29.47,29.33,1.02,1.01,2.37,1.68,3.57,2.51.37.74.59,1.64,1.14,2.19,5.04,5.04,10.14,10.02,15.23,15.01,4.59,4.65,9.16,9.34,13.8,13.94.73.73,1.8,1.11,2.72,1.65.81,1.19,1.48,2.52,2.47,3.55,5.15,5.34,10.38,10.6,15.59,15.89.27.29.53.58.8.87,0,0-.03-.05-.03-.05,0,1.36,0,2.72.01,4.08.02,7.02-3.36,11.11-10.25,12.21-1.82.29-3.71.18-5.56.25-3.1-3-6.16-6.04-9.31-8.97-.94-.88-2.16-1.46-3.25-2.18-5.13-5.64-10.26-11.29-16.35-17.98-1.26,1.95-1.83,3.29-2.78,4.25-14.18,14.23-28.41,28.43-42.66,42.59-1.02,1.01-2.36,1.7-3.55,2.54-4.88-4.79-9.81-9.54-14.64-14.39-5.69-5.73-11.3-11.54-16.94-17.32Z"/><path class="cls-3" d="M216.55,215.85c-.14.21-.24.45-.42.62-21.76,21.76-43.47,43.55-65.31,65.22-4.46,4.42-11.22,4.17-15.91-.05-1.48-1.33-2.91-2.7-4.36-4.05-3.02-3.2-6.03-6.41-9.05-9.62,7.37,1.86,12.22-1.8,17.13-6.81,19.2-19.57,38.74-38.81,58.11-58.21,1.1-1.1,1.86-2.53,2.78-3.81.22.01.43.02.65.03,5.46,5.56,10.92,11.12,16.38,16.68Z"/><path class="cls-5" d="M232.55,166.23c1.19-.84,2.53-1.53,3.55-2.55,14.26-14.16,28.48-28.35,42.66-42.59.95-.96,1.53-2.3,2.78-4.25,6.09,6.7,11.22,12.34,16.35,17.98-15.57,15.59-31.14,31.19-46.74,46.77-.5.5-1.22.8-1.84,1.19-1.03-.89-2.11-1.73-3.09-2.68-4.57-4.41-9.12-8.84-13.68-13.26,0-.2,0-.41,0-.62Z"/><path class="cls-2" d="M307.44,109.2c-.92-.54-1.99-.92-2.72-1.65-4.64-4.6-9.21-9.28-13.8-13.94.84-1.19,1.53-2.53,2.55-3.55,8.15-8.22,16.39-16.36,24.56-24.57,4.29-4.32,8.49-8.73,12.73-13.09,5.38,5.24,10.77,10.48,16.12,15.76.28.28.2.92.29,1.39-13.24,13.22-26.48,26.43-39.73,39.65Z"/><path class="cls-2" d="M72.97,318.53c-2.7-2.7-5.41-5.4-8.11-8.1-1.98-3.07-2.6-5.99.11-9.13,8.9-10.31,17.69-20.71,26.53-31.07.08.36.04.84.26,1.06,6.79,6.82,13.6,13.61,20.43,20.39.22.22.7.18,1.06.26-10.26,8.73-20.57,17.4-30.76,26.21-3.21,2.77-6.25,2.57-9.52.39Z"/><path class="cls-1" d="M113.25,291.93c-.36-.08-.84-.04-1.06-.26-6.83-6.77-13.64-13.57-20.43-20.39-.22-.22-.18-.7-.26-1.06,4.79-5.75,9.57-11.5,14.36-17.26,4.96,4.75,9.92,9.51,14.87,14.26.26.25.51.5.77.75h0c3.02,3.2,6.03,6.4,9.05,9.61-5.76,4.78-11.53,9.56-17.29,14.35Z"/><path class="cls-7" d="M216.55,215.85c-5.46-5.56-10.92-11.12-16.38-16.68,5.28-5.26,10.56-10.52,15.83-15.79.49,0,.99,0,1.48,0,3.86,3.98,7.76,7.93,11.56,11.97,1.31,1.4,2.35,3.06,3.51,4.59-5.34,5.3-10.67,10.6-16.01,15.9Z"/><path class="cls-5" d="M310.46,145.99c1.86-.07,3.74.04,5.56-.25,6.89-1.1,10.27-5.18,10.25-12.21,0-1.36,0-2.72-.01-4.08,4.71,4.61,9.61,9.04,14.07,13.88,3.93,4.26,3.34,11.81-.75,15.63-4.54,4.25-11.6,4.39-16.24.01-4.44-4.18-8.6-8.65-12.89-12.99Z"/><path class="cls-6" d="M232.56,199.95c-1.16-1.54-2.2-3.19-3.51-4.59-3.79-4.05-7.7-7.99-11.56-11.97.82-1.18,1.5-2.49,2.48-3.52,4.15-4.38,8.38-8.68,12.58-13.01,4.56,4.42,9.11,8.86,13.68,13.26.98.94,2.06,1.79,3.09,2.68-5.59,5.72-11.17,11.44-16.76,17.16Z"/><path class="cls-5" d="M350.96,71.89c.26,0,.52,0,.78.01-.26,0-.52,0-.78-.01Z"/><path class="cls-5" d="M326.29,129.5c-.27-.29-.53-.58-.8-.87.27.29.53.58.8.87Z"/><path class="cls-8" d="M120.74,267.23c-4.96-4.75-9.92-9.51-14.87-14.26-2.54-3.41-6.55-5.75-7.05-10.65-.38-3.73.36-7.02,2.94-9.6,21.55-21.59,43.16-43.12,64.77-64.65.34-.34.82-.55,1.23-.82,10.59,10.63,21.18,21.26,31.77,31.89-.92,1.28-1.68,2.71-2.78,3.81-19.37,19.4-38.91,38.64-58.11,58.21-4.92,5.01-9.76,8.67-17.13,6.81,0,0,0,0,0,0-.26-.25-.51-.5-.77-.75Z"/><path class="cls-5" d="M330.75,52.4c-4.24,4.37-8.44,8.78-12.73,13.09-8.16,8.21-16.4,16.35-24.56,24.57-1.01,1.02-1.7,2.36-2.55,3.55-5.08-5-10.19-9.98-15.23-15.01-.56-.56-.77-1.45-1.14-2.19,13.25-13.23,26.5-26.45,39.76-39.68.92.54,2.01.91,2.74,1.64,4.61,4.63,9.14,9.35,13.7,14.03Z"/><path class="cls-6" d="M199.52,199.14c-10.59-10.63-21.18-21.26-31.77-31.89,5.3-5.36,10.61-10.72,15.91-16.08,1.03.64,2.22,1.12,3.06,1.95,9.14,9.04,18.24,18.13,27.3,27.25.83.84,1.33,2.01,1.99,3.02-5.28,5.26-10.56,10.52-15.83,15.79-.22,0-.43-.02-.65-.03Z"/><path class="cls-9" d="M216.01,183.38c-.65-1.02-1.15-2.19-1.99-3.02-9.06-9.12-18.16-18.2-27.3-27.25-.84-.83-2.03-1.31-3.06-1.95,5.22-5.3,10.42-10.61,15.67-15.88.4-.4,1.09-.51,1.64-.76,5.64,5.78,11.24,11.59,16.94,17.32,4.82,4.85,9.75,9.6,14.64,14.39,0,.21-.01.41,0,.62-4.2,4.33-8.43,8.63-12.58,13.01-.98,1.03-1.66,2.34-2.48,3.52-.49,0-.99,0-1.48,0Z"/><path class="cls-3" d="M120.74,267.23c.26.25.51.5.77.75-.26-.25-.51-.5-.77-.75Z"/></g></svg>