<?xml version="1.0" encoding="UTF-8"?><svg id="Layer_2" xmlns="http://www.w3.org/2000/svg" viewBox="0 0 383.31 381.86"><defs><style>.cls-1{fill:#7dc2ed;}.cls-2{fill:#e17f86;}.cls-3{fill:#5d9fd0;}.cls-4{fill:#8ce0a4;}.cls-5{fill:#de656f;}.cls-6{fill:#db4955;}.cls-7{fill:#b0eea6;}.cls-8{fill:#7cd6a4;}.cls-9{fill:#66addc;}</style></defs><g id="Layer_1-2"><path class="cls-2" d="M376.53,131.22c2.26,2.45,4.52,4.91,6.79,7.36v6.74c-2.27,2.44-4.53,4.88-6.8,7.32-.21-.3-.39-.63-.64-.9-6.98-7.45-6.98-12.12.03-19.62.25-.27.42-.6.63-.9Z"/><path class="cls-2" d="M319.93,99.87c.56,1.18.96,2.47,1.71,3.51,7.02,9.67,11.33,20.35,12.26,32.32,0,3.91,0,7.83,0,11.74-.94,11.97-5.24,22.65-12.27,32.31-.75,1.03-1.14,2.34-1.69,3.52-2.63,2.63-5.26,5.26-7.88,7.9-1.08.47-2.31.75-3.23,1.44-9.66,7.27-20.58,11.25-32.52,12.6-.99-.23-1.98-.46-2.98-.69-.82-.28-1.62-.61-2.46-.82-32.81-8.24-53.4-39.1-48.25-71.45,4.02-25.27,18.81-42.48,43.1-51.18,3-1.08,6.05-2.02,9.08-3.03.5-.03,1-.06,1.5-.09,11.96,1.29,22.86,5.31,32.52,12.58.92.69,2.15.98,3.23,1.45,2.63,2.63,5.25,5.26,7.88,7.89ZM245.58,128.84c-8.26,0-13.44,4.98-13.47,12.99-.03,7.16,6.03,13.16,13.34,13.22,7.1.06,12.86-5.79,12.87-13.07,0-8.24-4.74-13.14-12.74-13.15ZM297.98,167.93c.02-6.6-4.69-11.38-11.22-11.38-6.39,0-11.2,4.89-11.24,11.45-.04,6.33,4.66,11,11.07,11.02,6.72.02,11.37-4.5,11.39-11.08ZM288.74,132.6c6.71.04,11.44-4.44,11.49-10.89.05-6.66-4.69-11.65-11-11.58-6.14.07-11.42,5.31-11.47,11.38-.05,6.34,4.61,11.06,10.98,11.09Z"/><path class="cls-1" d="M110.19,311.85c-6,2.38-12,4.76-18,7.13-.26-.01-.52-.02-.78-.03-1.16-.75-2.23-1.74-3.49-2.2-15.18-5.52-25.98-20.49-25.65-36.65.32-15.79,7.54-27.71,21.61-35.2,2.71-1.44,5.57-2.6,8.36-3.89,5.97,2.32,11.94,4.63,17.91,6.95,2.68,2.69,5.36,5.38,8.03,8.06,2.3,6,4.6,11.99,6.9,17.99.01.27.03.54.04.81,0,3.57,0,7.15,0,10.72-1.83,5.04-3.66,10.08-5.5,15.12-.41,1.12-.87,2.22-1.31,3.33-2.7,2.62-5.41,5.23-8.11,7.85Z"/><path class="cls-4" d="M83.24,126.04c-.55,4.18-1.1,8.37-1.65,12.55-2.23,2.99-4.45,5.97-6.68,8.96-4.62,3.03-9.49,5.43-15.15,5.64-1.43.05-2.87-.23-4.31-.36-1.42-1.56-3.25-2.91-4.19-4.71-2.08-4-4.9-8.13-5.28-12.4-.68-7.56-.03-15.27.53-22.89,1.07-14.55,5.71-28.17,11.83-41.29,5.29-11.34,12.59-21.4,20.64-30.91,4.34-5.13,9.46-9.2,16.39-10.31,1.67-.27,3.32-.66,4.98-1,7.41,4.03,11.16,10.57,12.8,18.57-.51,3.8-1.02,7.6-1.53,11.4-2.09,3.25-4.18,6.5-6.27,9.75-2.67,3.43-5.34,6.86-8.02,10.29-1.99,3.78-3.98,7.57-5.97,11.35-1.49,3.49-2.98,6.98-4.47,10.47-.97,3.96-1.93,7.91-2.9,11.87-.25,4.34-.5,8.69-.75,13.03ZM52.45,123.05c0,1.75-.01,3.49,0,5.24.03,4.11,1.99,6.47,5.43,6.55,3.59.08,5.65-2.35,5.82-6.67.17-4.34.39-8.68.72-13.01,1.27-16.76,7.14-31.94,16.38-45.82,3.29-4.93,7.34-9.37,11.09-13.98,2.36-2.9,2.3-5.78-.33-8.29-2.16-2.06-5.19-1.95-7.57.49-2.43,2.49-4.83,5.03-7,7.74-15.85,19.79-23.87,42.44-24.54,67.74Z"/><path class="cls-4" d="M363.15,331.78c-2.24,5.46-4.47,10.91-6.71,16.37-2.52,2.74-5.04,5.47-7.56,8.21-5.53,2.25-11.07,4.5-16.6,6.75-.22-.01-.43-.03-.65-.07-.7-.57-1.31-1.4-2.11-1.68-15.6-5.51-26.97-21.08-24.85-39.13,1.78-15.15,9.95-25.22,23.81-31.04,1.14-.48,2.1-1.38,3.14-2.09.23-.03.46-.05.69-.05,5.51,2.24,11.02,4.47,16.53,6.71,2.52,2.77,5.04,5.53,7.56,8.3,2.25,5.43,4.5,10.85,6.75,16.28,0,3.81-.02,7.62-.03,11.44ZM315.19,326.1c-1.37,5.53,6.27,11.53,10.84,11.56,6.24.04,11.64-5.4,11.62-11.67-.02-5.88-5.28-11.35-11.05-11.49-6.26-.15-11.42,5.08-11.41,11.6Z"/><path class="cls-5" d="M274.79,78.03c-3.03,1.01-6.08,1.95-9.08,3.03-24.29,8.7-39.08,25.91-43.1,51.18-5.15,32.35,15.44,63.21,48.25,71.45.83.21,1.64.55,2.46.82-.96.47-1.91,1.32-2.87,1.35-1.9.05-3.81-.37-5.72-.59-11.97-1.2-22.79-5.41-32.49-12.51-.97-.71-2.09-1.22-3.14-1.82-2.77-2.49-5.53-4.99-8.3-7.48-.17-.79-.09-1.78-.54-2.35-7.81-9.94-12.06-21.28-13.56-33.74,0-3.86,0-7.72,0-11.58,1.5-12.46,5.72-23.81,13.55-33.74.45-.57.38-1.56.56-2.35,2.77-2.5,5.53-5,8.3-7.49,1.05-.61,2.16-1.12,3.13-1.83,9.71-7.1,20.51-11.33,32.49-12.48,3.36.05,6.71.1,10.07.15Z"/><path class="cls-8" d="M100.35,29.31c-1.66.34-3.31.73-4.98,1-6.93,1.11-12.05,5.18-16.39,10.31-8.05,9.51-15.35,19.57-20.64,30.91-6.12,13.12-10.76,26.74-11.83,41.29-.56,7.61-1.21,15.33-.53,22.89.38,4.27,3.2,8.4,5.28,12.4.94,1.81,2.77,3.16,4.19,4.71-9.99-1.07-16.06-7.18-20.22-15.74-.53-3.8-1.06-7.6-1.6-11.4.25-4.64.51-9.29.76-13.93.53-3.77,1.07-7.55,1.6-11.32,1.4-5.95,2.8-11.9,4.21-17.85,1.34-3.3,2.69-6.61,4.03-9.91,2.84-5.24,5.67-10.49,8.51-15.73,2.18-3.37,4.35-6.73,6.53-10.1,2.79-3.58,5.58-7.15,8.37-10.73,2.91-2.45,5.81-4.9,8.72-7.35,7.68-3.05,15.38-3.78,23.1-.13.32.15.58.44.87.67Z"/><path class="cls-9" d="M92.23,241.01c-2.79,1.29-5.65,2.45-8.36,3.89-14.07,7.49-21.29,19.41-21.61,35.2-.32,16.16,10.48,31.13,25.65,36.65,1.26.46,2.33,1.46,3.49,2.2-3.58.03-7.16.06-10.73.09-6.12-2.45-12.24-4.89-18.36-7.34-2.59-2.59-5.18-5.19-7.77-7.78-2.46-6.14-4.92-12.29-7.39-18.43.02-3.79.05-7.58.07-11.36,2.48-6,4.96-12,7.43-18.01,2.51-2.75,5.02-5.5,7.53-8.26,2.49-1.22,4.9-2.68,7.5-3.62,3.54-1.27,7.22-2.15,10.85-3.2,3.8-.23,7.61-.45,11.41-.68.12.2.22.42.29.65Z"/><path class="cls-8" d="M331.63,289.11c-1.04.71-2,1.61-3.14,2.09-13.86,5.82-22.03,15.89-23.81,31.04-2.13,18.05,9.24,33.62,24.85,39.13.8.28,1.41,1.11,2.11,1.69-3.7.02-7.39.03-11.09.05-5.53-2.27-11.05-4.54-16.58-6.81-2.7-2.47-5.41-4.93-8.11-7.4-.68-1.54-1.42-3.05-2.02-4.62-1.62-4.21-3.18-8.43-4.77-12.65,0-3.69,0-7.39-.01-11.08,2.29-5.75,4.57-11.49,6.86-17.24,2.69-2.48,5.38-4.96,8.06-7.44,5.51-2.26,11.03-4.52,16.54-6.78,3.71.01,7.42.03,11.13.04Z"/><path class="cls-2" d="M353.34,43.57c9.09,2.26,15.53,9.9,15.8,18.78.33,10.67-5.21,18.17-15.84,21.45-1.06-.63-2.11-1.28-3.19-1.88-10.62-5.92-13.89-19.23-7.53-29.53,2.64-4.28,6.75-6.4,10.76-8.82Z"/><path class="cls-2" d="M350.39,199.93c9.06,1.81,15.08,9.33,14.98,18.72-.1,8.79-6.42,16.36-15,17.96-1.02-1-1.92-2.16-3.06-2.96-10.74-7.56-10.72-23.15.05-30.72,1.15-.81,2.03-1.99,3.03-2.99Z"/><path class="cls-2" d="M199.11,47.4c12.01,3.97,16.43,13.81,12.03,26.81-2.51,2.77-5.02,5.53-7.54,8.3-1.34.25-2.68.5-4.02.75-12.96-4.28-16.18-19.96-8.43-29.46,2.1-2.58,5.27-4.29,7.95-6.39Z"/><path class="cls-2" d="M181.3,147.25c-2.58,4.32-4.75,9.01-9.73,11.22-1.1.49-2.3.77-3.45,1.15-11.79-3.31-16.14-18.45-9.5-27.9,2.24-3.19,5.98-5.32,9.04-7.93,6.74,1.61,10.45,6.51,13.32,12.3.11,3.72.22,7.44.32,11.16Z"/><path class="cls-2" d="M276.12,230.6c1.77,1.12,3.66,2.09,5.29,3.39,5.7,4.53,8.57,10.44,7.34,17.72-1.35,7.98-6.24,13.07-14.03,15.34-.96-.89-1.82-1.92-2.88-2.66-9.59-6.66-11.43-17.89-4.14-27.05,1.99-2.51,4.73-4.42,7.13-6.61.43-.05.86-.1,1.29-.14Z"/><path class="cls-7" d="M111.62,59.28c.51-3.8,1.02-7.6,1.53-11.4,5.82-.45,11.64-.98,17.47-1.3,2.12-.12,3.48-.41,4.68-2.66.85-1.58,3.47-2.96,5.38-3.05,2.64-.13,4.56,1.98,5.09,4.68.69,3.53,1.6,7.13,1.46,10.66-.08,1.96-1.74,4.92-3.37,5.49-1.86.65-5.38-.13-6.54-1.59-1.71-2.17-3.31-2.49-5.61-2.31-6.69.53-13.39.99-20.09,1.47Z"/><path class="cls-7" d="M74.91,147.54c2.23-2.99,4.46-5.97,6.68-8.96,4.61,4.69,9.27,9.33,13.82,14.08,1.65,1.72,3.08,2.56,5.8,1.99,1.65-.35,4.57,1.05,5.48,2.55.9,1.47.82,4.78-.26,6.01-2.84,3.22-6.27,6.06-9.89,8.38-1.33.85-4.36.46-5.72-.56-1.36-1.02-2.52-3.76-2.13-5.33.68-2.69-.15-4.13-1.86-5.83-4.05-4.03-7.95-8.21-11.92-12.33Z"/><path class="cls-7" d="M97.33,79.32c2.67-3.43,5.35-6.86,8.02-10.29,5.56,1.18,11.11,2.46,16.71,3.43,1.05.18,2.53-.64,3.46-1.42,2.1-1.78,4.23-2.7,6.74-1.06,2.37,1.55,3.66,3.7,3.04,6.65-.62,2.9-1.42,5.77-1.95,8.69-.58,3.21-2.69,4.88-5.59,5.08-2.65.18-4.4-1.54-5.69-4.03-.7-1.35-2.47-2.64-3.97-2.98-6.88-1.55-13.83-2.75-20.76-4.07Z"/><path class="cls-7" d="M59.28,46.85c-2.18,3.37-4.36,6.73-6.53,10.1-5.78-3.6-11.52-7.27-17.4-10.72-.79-.46-2.34,0-3.38.44-2.58,1.07-4.94.91-6.87-1.09-2.06-2.14-2.09-4.69-.6-7.19,1.59-2.67,3.27-5.28,4.97-7.88,1.63-2.51,4.31-3.63,6.77-2.46,1.79.85,2.85,3.32,4.13,5.14.85,1.2,1.2,3.02,2.3,3.73,5.44,3.47,11.06,6.65,16.62,9.94Z"/><path class="cls-7" d="M33.64,125.69c.53,3.8,1.06,7.6,1.6,11.4-5.5,1.97-11.06,3.8-16.48,5.99-1.31.53-2.53,2.01-3.15,3.36-1.1,2.38-2.17,4.55-5.1,4.82-3.03.28-4.91-1.32-6.09-3.95-1.27-2.84-2.61-5.65-3.82-8.52-1.08-2.55-.73-4.96,1.49-6.75,2.28-1.84,4.65-1.74,7.26-.26,1.25.71,3.19,1.04,4.53.62,6.64-2.07,13.19-4.44,19.77-6.7Z"/><path class="cls-7" d="M76.38,28.77c-2.91,2.45-5.82,4.9-8.72,7.35-3.23-5.89-6.37-11.83-9.78-17.61-.73-1.25-2.32-2.28-3.74-2.77-2.57-.88-5.06-1.61-5.43-4.82-.35-3.07.84-5.35,3.72-6.62,2.96-1.3,5.92-2.6,8.92-3.79,2.47-.98,5.03-.63,6.22,1.73.88,1.75.63,4.1.78,6.2.12,1.7-.47,3.66.19,5.07,2.4,5.18,5.19,10.19,7.84,15.26Z"/><path class="cls-7" d="M83.24,126.04c.25-4.34.5-8.69.75-13.03,6.51,3.92,12.97,7.91,19.56,11.68,1.05.6,2.78.51,4.02.15,2.58-.75,4.9-.98,6.85,1.22,1.87,2.11,2.13,4.43.72,6.89-1.55,2.7-3.17,5.36-4.69,8.07-1.53,2.74-4.02,3.42-6.72,2.7-2.6-.7-3.93-2.65-4.2-5.53-.13-1.32-1.08-3.01-2.19-3.73-4.59-2.98-9.38-5.64-14.09-8.43Z"/><path class="cls-5" d="M353.34,43.57c-4.01,2.42-8.12,4.54-10.76,8.82-6.35,10.3-3.08,23.62,7.53,29.53,1.08.6,2.13,1.25,3.19,1.88-3.96-.22-7.92-.38-11.87-.7-1.3-.1-2.56-.6-3.84-.92-2.54-2.7-5.08-5.4-7.63-8.11-.69-4.1-2.04-8.22-1.93-12.3.34-12.3,13.95-21.89,25.3-18.21Z"/><path class="cls-7" d="M44.24,72.68c-1.34,3.3-2.69,6.61-4.03,9.91-5.48-1.95-10.97-3.88-16.43-5.88-2.25-.83-4.1-1.43-6.49.44-1.31,1.02-4.66,1.01-5.98,0-1.5-1.14-2.68-4.07-2.36-5.94.6-3.48,1.99-7,3.85-10,1.02-1.65,3.8-3.31,5.57-3.11,1.77.21,3.3,2.7,4.89,4.24.96.93,1.66,2.37,2.78,2.86,6.01,2.61,12.12,5,18.2,7.47Z"/><path class="cls-7" d="M36,100.44c-.53,3.77-1.07,7.54-1.6,11.32-6.09-1.13-12.2-2.13-18.25-3.45-2.3-.5-3.95-.45-5.62,1.45-1.72,1.96-4.35,2.76-6.28.84-1.55-1.54-2.73-4.01-2.97-6.19-.27-2.49.71-5.11,1.09-7.68.49-3.37,1.93-6.07,5.59-6.48,3.18-.36,4.83,1.83,6.14,4.46.44.88,1.62,1.73,2.61,1.94,6.42,1.36,12.87,2.54,19.31,3.79Z"/><path class="cls-7" d="M86.89,101.14c1.49-3.49,2.98-6.98,4.47-10.47,5.6,2.04,11.16,4.21,16.82,6.05,1.43.47,3.47.42,4.75-.27,2.46-1.34,4.61-1.68,6.96-.07,2.46,1.68,2.75,4.21,2.04,6.66-.93,3.21-1.97,6.53-3.75,9.29-1.07,1.67-3.6,3.17-5.57,3.29-2.52.16-4.45-1.67-4.94-4.66-.18-1.1-1.27-2.52-2.29-2.92-6.11-2.44-12.32-4.63-18.49-6.9Z"/><path class="cls-1" d="M143.73,212.06c7.55,3.13,11.46,8.63,11.25,15.83-.2,6.78-4.5,12.4-11.24,14.66-.64-.56-1.24-1.16-1.92-1.66-8.69-6.52-10.02-17.15-2.99-24.37,1.54-1.58,3.26-2.98,4.89-4.47Z"/><path class="cls-1" d="M237.25,304.19c6.96,2.88,10.67,8.07,10.61,15.04-.07,7.8-4.18,12.69-11.3,15.32-.72-.78-1.33-1.71-2.17-2.33-4.85-3.61-7.08-8.46-6.74-14.42.37-6.47,4.4-10.48,9.6-13.62Z"/><path class="cls-5" d="M199.11,47.4c-2.68,2.11-5.85,3.82-7.95,6.39-7.75,9.5-4.53,25.18,8.43,29.46-7.95,3.53-18.5-1.09-22.46-9.97-3.19-7.17-2.25-14.02,2.86-19.88,5.02-5.76,11.43-8.21,19.13-6Z"/><path class="cls-5" d="M167.65,123.79c-3.06,2.61-6.8,4.75-9.04,7.93-6.63,9.45-2.29,24.59,9.5,27.9-9.55,3.58-20.46-2.19-23.51-12.43-3.02-10.12,3.19-21.22,13.49-23.45,3.04-.66,6.36,0,9.55.05Z"/><path class="cls-5" d="M350.39,199.93c-1,1.01-1.89,2.19-3.03,2.99-10.77,7.57-10.79,23.16-.05,30.72,1.15.81,2.05,1.97,3.06,2.96-6.7,1.71-12.37-.54-17.04-5.09-5.12-4.99-6.52-11.25-4.86-18.23.39-1.63.5-3.32.74-4.99,2.8-2.46,5.6-4.91,8.39-7.37,2.97-.55,5.92-1.22,8.9-1.58,1.25-.15,2.58.36,3.88.57Z"/><path class="cls-5" d="M274.83,230.74c-2.4,2.19-5.14,4.1-7.13,6.61-7.29,9.16-5.45,20.39,4.14,27.05,1.06.74,1.93,1.77,2.88,2.66-12.3,1.64-21.27-4.63-22.68-16.3-.92-7.59,2.37-13.49,8.71-17.68,1.34-.88,2.76-1.64,4.15-2.45,3.31.04,6.62.08,9.93.12Z"/><path class="cls-1" d="M48.59,325.66c.28,1.7.66,3.39.82,5.1.71,7.51-2.96,13.23-10.5,16.5-.43-.43-.8-.94-1.3-1.27-10.81-7.07-9.48-21.05-.74-26.38.63-.38.91-1.33,1.35-2.02.79.03,1.58.07,2.37.1,2.67,2.66,5.34,5.31,8.01,7.97Z"/><path class="cls-9" d="M143.73,212.06c-1.64,1.48-3.36,2.89-4.89,4.47-7.02,7.22-5.69,17.85,2.99,24.37.67.51,1.28,1.11,1.92,1.66-2.89.13-5.78.29-8.68.38-1.31.04-2.63-.09-3.94-.15-2.61-2.59-5.21-5.18-7.82-7.77-.05-1.57.07-3.16-.18-4.7-.94-5.87.67-10.95,5.07-14.82,4.43-3.91,9.64-5.51,15.53-3.44Z"/><path class="cls-9" d="M237.25,304.19c-5.19,3.14-9.23,7.16-9.6,13.62-.34,5.96,1.89,10.81,6.74,14.42.84.62,1.45,1.55,2.17,2.33-10.96,3.27-20.61-6-20.4-15.15.26-11.23,10.35-18.73,21.08-15.21Z"/><path class="cls-9" d="M38.21,317.59c-.44.69-.72,1.64-1.35,2.02-8.73,5.34-10.07,19.32.74,26.38.5.32.87.84,1.3,1.27-6.56,2-13.42-.14-17.29-5.4-3.95-5.36-4.21-12.56-.66-17.8,3.92-5.77,10.55-8.26,17.25-6.46Z"/><path class="cls-6" d="M333.89,147.44c0-3.91,0-7.83,0-11.74,8.72.09,17.43.19,26.15.28,0,3.74,0,7.49.01,11.23-8.72.08-17.44.15-26.16.23Z"/><path class="cls-6" d="M203.61,82.51c2.51-2.77,5.02-5.53,7.54-8.3,5.99,6,11.97,11.99,17.96,17.99-2.77,2.5-5.53,5-8.3,7.49-5.73-5.73-11.46-11.46-17.19-17.19Z"/><path class="cls-6" d="M220.79,183.46c2.77,2.5,5.53,4.99,8.3,7.48-5.99,5.99-11.97,11.97-17.96,17.96-1.73-2-3.45-4-5.18-6-.78-.75-1.56-1.51-2.34-2.26,5.73-5.73,11.45-11.46,17.18-17.18Z"/><path class="cls-6" d="M329.97,74.08c2.54,2.7,5.08,5.4,7.63,8.11-5.89,5.9-11.78,11.79-17.67,17.69-2.63-2.63-5.25-5.26-7.88-7.89,5.98-5.97,11.95-11.93,17.93-17.9Z"/><path class="cls-6" d="M181.3,147.25c-.11-3.72-.21-7.44-.32-11.16,8.57-.1,17.14-.21,25.72-.31,0,3.86,0,7.72,0,11.58-8.46-.04-16.93-.08-25.39-.11Z"/><path class="cls-6" d="M274.79,78.03c-3.36-.05-6.71-.1-10.07-.15.04-8.96.09-17.92.13-26.88,3.31,1.07,6.63,1.89,9.92-.08.45.04.9.08,1.35.12.06,8.97.12,17.93.17,26.9-.5.03-1,.06-1.5.09Z"/><path class="cls-6" d="M337.6,200.94c-2.8,2.46-5.6,4.91-8.39,7.37-5.72-5.71-11.44-11.43-17.16-17.14,2.63-2.63,5.26-5.26,7.88-7.9,5.89,5.89,11.78,11.78,17.67,17.67Z"/><path class="cls-6" d="M274.83,230.74c-3.31-.04-6.62-.08-9.93-.12-.06-8.45-.12-16.9-.17-25.35,1.91.22,3.82.64,5.72.59.97-.02,1.92-.87,2.87-1.35.99.23,1.98.46,2.98.69-.06,8.46-.12,16.93-.17,25.39-.43.05-.86.1-1.29.14Z"/><path class="cls-9" d="M41.99,243.34c-2.95-.27-6.08,0-8.81-.93-6.54-2.21-9.3-10.05-6.31-16.38,2.59-5.49,10.8-8.97,16.43-5.07-4,1.97-5.38,5.39-5.89,9.63-.6,5.03,2.44,8.06,5.32,11.31-.25.48-.49.96-.74,1.44Z"/><path class="cls-9" d="M139.99,339.76c-8.86,3.47-17.32-2.39-17.1-11.81.03-1.23-.08-2.46-.13-3.7,2.76-2.48,5.51-4.96,8.27-7.45,3.03.45,6.05.89,9.08,1.34-2.88,3.34-5.9,6.27-5.51,11.56.33,4.5,3.06,7.01,5.4,10.06Z"/><path class="cls-5" d="M360.06,147.21c0-3.74,0-7.49-.01-11.23.89-.81,1.82-1.59,2.68-2.43,3.81-3.76,8.69-4.59,13.81-2.33-.21.3-.38.64-.63.91-7,7.5-7.01,12.17-.03,19.62.25.27.43.6.64.9-5.71,2.42-10.94,1.16-14.76-3.53-.54-.66-1.13-1.27-1.69-1.9Z"/><path class="cls-9" d="M22.47,291.1c-6.15,2.04-11.31.67-14.6-3.89-3.12-4.33-3.13-9.83-.02-14.22,3.18-4.49,8.49-5.92,14.61-3.93-.51.82-.9,1.74-1.54,2.44-5.26,5.71-5.25,11.44.04,17.15.64.69,1.02,1.63,1.52,2.45Z"/><path class="cls-5" d="M274.77,50.93c-3.29,1.97-6.6,1.14-9.92.08-3.48-2.65-6.31-5.77-6.43-10.42-.25-9.81,10.27-15.33,17.06-11.24-.37.49-.7,1.02-1.13,1.47-5.71,6.02-5.87,11.75-.53,18.17.45.54.64,1.3.94,1.95Z"/><path class="cls-5" d="M203.62,200.64c.78.75,1.56,1.51,2.34,2.26-6.78,1.52-9.14,11.61-4.1,17.37.95,1.09,1.69,2.36,2.53,3.54-5.02,1.96-9.51,1.02-13.33-2.69-3.31-3.22-4.3-8.83-2.31-13.11,2.25-4.85,6.23-7.18,11.56-7.24,1.11-.01,2.21-.09,3.31-.14Z"/><path class="cls-9" d="M198.35,368.24c-5.73,2.21-11.17.83-14.75-3.74-3.2-4.08-3.3-10.12-.22-14.29,3.55-4.83,8.75-6.24,14.99-4.07-.53.62-1,1.31-1.61,1.86-5.29,4.79-5.66,12.16-.85,17.48.82.91,1.63,1.84,2.45,2.76Z"/><path class="cls-9" d="M91.32,359.18c-6.52,2.25-12.11.49-15.19-4.78-3.18-5.45-2.07-10.85,3.19-15.55.46-.41.94-.81,1.41-1.21,3.73-.24,7.46-.48,11.19-.71.1.49.2.99.3,1.48-3.94,1.43-5.52,4.52-6.1,8.42-.76,5.19,2,8.84,5.19,12.34Z"/><path class="cls-9" d="M216.5,280.85c-4.52,3.06-10.64,2.2-14.29-2.01-3.96-4.57-3.88-10.8.19-15.18,4.06-4.37,9.77-5.03,14.26-1.66-1.27.9-2.89,1.54-3.74,2.74-3.75,5.29-2.23,11.74,3.57,16.11Z"/><path class="cls-9" d="M80.78,221.7c-4.48-3.61-7.28-7.89-5.27-13.93,2.26-6.8,9.32-9.62,15.97-6.44-.71.84-1.38,1.72-2.13,2.52-5.12,5.46-3.82,13.47,2.79,17.07-.07.73-.14,1.46-.2,2.19-.71-.26-1.4-.69-2.12-.76-3-.28-6.02-.45-9.03-.66Z"/><path class="cls-9" d="M144.57,274.46c2.22-1.67,4.23-4.08,6.72-4.8,2.73-.78,5.91,0,8.9.11-.85,1.17-1.62,2.41-2.55,3.5-2.97,3.48-3.32,9.04-.68,12.73,1.05,1.48,2.16,2.91,3.25,4.36-6.63,2.72-11.55.11-15.67-5.02.01-3.63.02-7.26.03-10.89Z"/><path class="cls-3" d="M48.59,325.66c-2.67-2.66-5.34-5.31-8.01-7.97,4.66-4.59,9.31-9.18,13.97-13.77,2.59,2.59,5.18,5.19,7.77,7.78-4.57,4.65-9.15,9.31-13.73,13.96Z"/><path class="cls-3" d="M123.3,235.02c2.61,2.59,5.21,5.18,7.82,7.77-4.32,4.42-8.63,8.83-12.95,13.25-2.68-2.69-5.36-5.38-8.03-8.06,4.39-4.32,8.78-8.63,13.16-12.95Z"/><path class="cls-3" d="M131.03,316.8c-2.76,2.48-5.51,4.96-8.27,7.45-4.19-4.13-8.38-8.26-12.57-12.39,2.7-2.62,5.41-5.24,8.11-7.85,4.24,4.27,8.48,8.53,12.72,12.8Z"/><path class="cls-7" d="M331.63,289.11c-3.71-.01-7.42-.03-11.13-.04,0-4.09-.07-8.18-.01-12.26.05-3.82,2.01-6.17,5.25-6.49,3.37-.33,5.76,1.39,6.2,5.4.49,4.41.29,8.89.38,13.34-.23,0-.46.03-.7.05Z"/><path class="cls-7" d="M320.54,363.1c3.7-.02,7.39-.03,11.09-.05.21.03.43.05.65.07,0,3.71.08,7.43-.01,11.13-.12,5.08-2.35,7.75-6.15,7.6-3.71-.15-5.62-2.71-5.63-7.62,0-3.71.04-7.42.06-11.13Z"/><path class="cls-3" d="M41.99,243.34c.25-.48.49-.96.74-1.44,2.26-2.27,4.51-4.53,6.77-6.79,4.23,4.25,8.46,8.5,12.7,12.76-2.51,2.75-5.02,5.5-7.53,8.26-4.23-4.26-8.45-8.52-12.68-12.78Z"/><path class="cls-7" d="M356.42,304.07c-2.52-2.77-5.04-5.53-7.56-8.3,3-3.11,5.91-6.33,9.04-9.3,2.46-2.33,5.74-2.12,7.96.15,2.26,2.31,2.41,5.44.03,8.01-3.03,3.27-6.3,6.3-9.47,9.44Z"/><path class="cls-7" d="M303.97,295.85c-2.69,2.48-5.38,4.96-8.06,7.44-3.05-2.9-6.21-5.69-9.1-8.74-2.28-2.41-2.1-5.93.03-8.09,2.13-2.16,5.38-2.33,8.03.09,3.2,2.92,6.08,6.18,9.1,9.3Z"/><path class="cls-3" d="M47.23,274.13c-.02,3.79-.05,7.58-.07,11.36-6.22,0-12.43-.02-18.65-.03,0-3.75.02-7.5.02-11.26,6.23-.03,12.46-.05,18.7-.08Z"/><path class="cls-7" d="M295.84,348.88c2.7,2.47,5.41,4.93,8.11,7.4-3,3.1-5.87,6.36-9.05,9.27-2.64,2.41-6.18,2.14-8.32-.18-1.97-2.13-1.91-5.62.44-8.06,2.83-2.92,5.87-5.63,8.81-8.44Z"/><path class="cls-3" d="M80.78,221.7c3.01.21,6.02.38,9.03.66.72.07,1.42.5,2.12.76,0,5.75.01,11.5.02,17.25-3.8.23-7.61.45-11.41.68.08-6.45.16-12.9.24-19.35Z"/><path class="cls-3" d="M144.57,274.46c-.01,3.63-.02,7.26-.03,10.89-6.48.06-12.95.13-19.43.19,0-3.57,0-7.15,0-10.72.23-.19.45-.39.68-.58,6.26.07,12.52.15,18.78.22Z"/><path class="cls-7" d="M348.87,356.36c2.52-2.74,5.04-5.47,7.56-8.21,3.09,3.04,6.27,5.99,9.25,9.13,2.57,2.71,2.45,5.8-.04,8.24-2.21,2.17-5.82,2.1-8.3-.35-2.9-2.87-5.66-5.87-8.48-8.81Z"/><path class="cls-3" d="M91.93,336.93c-3.73.24-7.46.48-11.19.71-.02-6.2-.04-12.4-.06-18.6,3.58-.03,7.16-.06,10.73-.09.26.01.52.02.78.03-.09,5.98-.17,11.96-.26,17.94Z"/><path class="cls-7" d="M363.15,331.78c0-3.81.02-7.62.03-11.44,4.22.03,8.44.02,12.66.1,4.21.08,6.15,1.98,6.07,5.8-.08,3.46-2.19,5.39-6.1,5.46-4.22.07-8.44.06-12.66.08Z"/><path class="cls-1" d="M198.35,368.24c-.82-.92-1.63-1.84-2.45-2.76-4.8-5.32-4.43-12.69.85-17.48.6-.55,1.07-1.24,1.61-1.86,10.02,4.56,8.53,18.95,0,22.1Z"/><path class="cls-7" d="M289.04,320.53c0,3.69,0,7.39.01,11.08-4.23.03-8.47.16-12.7.07-3.6-.07-6.11-2.61-6-5.79.11-3.04,2.52-5.35,5.99-5.43,4.23-.09,8.47.03,12.7.06Z"/><path class="cls-2" d="M274.77,50.93c-.31-.66-.5-1.41-.94-1.95-5.33-6.42-5.18-12.15.53-18.17.42-.45.75-.98,1.13-1.47,8.98,4.9,9.26,14.22.63,21.7-.45-.04-.9-.08-1.35-.12Z"/><path class="cls-2" d="M204.38,223.81c-.84-1.19-1.58-2.46-2.53-3.54-5.04-5.76-2.69-15.85,4.1-17.37,1.73,2,3.45,4,5.18,6,1.36,7.2-.64,11.63-6.75,14.91Z"/><path class="cls-1" d="M28.54,274.21c0,3.75-.02,7.5-.02,11.26-2.01,1.88-4.03,3.76-6.04,5.64-.5-.82-.88-1.76-1.52-2.45-5.29-5.7-5.3-11.44-.04-17.15.64-.7,1.03-1.62,1.54-2.44,2.03,1.71,4.06,3.43,6.08,5.14Z"/><path class="cls-1" d="M139.99,339.76c-2.34-3.05-5.06-5.56-5.4-10.06-.39-5.29,2.63-8.22,5.51-11.56,8.9,3.99,9.21,16.97-.12,21.62Z"/><path class="cls-1" d="M49.5,235.11c-2.26,2.26-4.51,4.53-6.77,6.79-2.88-3.24-5.92-6.28-5.32-11.31.5-4.24,1.89-7.66,5.89-9.63,5.88,3.04,6.65,8.32,6.2,14.14Z"/><path class="cls-1" d="M91.32,359.18c-3.19-3.5-5.95-7.16-5.19-12.34.57-3.9,2.16-6.99,6.1-8.42,8.3,4.64,7.84,15.04-.91,20.76Z"/><path class="cls-1" d="M160.21,290.38c-1.09-1.45-2.2-2.89-3.25-4.36-2.63-3.69-2.29-9.26.68-12.73.94-1.09,1.71-2.33,2.55-3.5,8.81,5.9,8.81,14.61.01,20.6Z"/><path class="cls-1" d="M92.13,220.93c-6.61-3.6-7.92-11.61-2.79-17.07.75-.8,1.42-1.68,2.13-2.52,7.04,2.68,8.92,15.11.66,19.59Z"/><path class="cls-1" d="M216.5,280.85c-5.8-4.37-7.32-10.82-3.57-16.11.85-1.19,2.47-1.84,3.74-2.74,3.97,1.82,5.56,5.29,5.51,9.27-.05,4.06-1.52,7.73-5.68,9.58Z"/><path class="cls-9" d="M125.8,274.24c-.23.19-.45.39-.68.58-.01-.27-.03-.54-.04-.81.24.07.48.15.72.22Z"/><path class="cls-5" d="M245.58,128.84c8,0,12.74,4.9,12.74,13.15,0,7.27-5.76,13.12-12.87,13.07-7.31-.06-13.37-6.06-13.34-13.22.03-8.01,5.21-13,13.47-12.99Z"/><path class="cls-5" d="M297.98,167.93c-.02,6.59-4.67,11.11-11.39,11.08-6.42-.02-11.11-4.7-11.07-11.02.04-6.55,4.85-11.45,11.24-11.45,6.53,0,11.24,4.79,11.22,11.38Z"/><path class="cls-5" d="M288.74,132.6c-6.37-.04-11.03-4.75-10.98-11.09.05-6.07,5.33-11.3,11.47-11.38,6.31-.07,11.05,4.92,11,11.58-.05,6.45-4.77,10.93-11.49,10.89Z"/><path class="cls-7" d="M52.45,123.05c.67-25.3,8.68-47.95,24.54-67.74,2.17-2.71,4.57-5.25,7-7.74,2.38-2.44,5.42-2.55,7.57-.49,2.63,2.51,2.69,5.39.33,8.29-3.76,4.62-7.81,9.05-11.09,13.98-9.24,13.87-15.11,29.06-16.38,45.82-.33,4.33-.55,8.67-.72,13.01-.17,4.32-2.22,6.75-5.82,6.67-3.43-.08-5.4-2.44-5.43-6.55-.01-1.75,0-3.49,0-5.24Z"/><path class="cls-7" d="M315.19,326.1c0-6.52,5.15-11.76,11.41-11.6,5.77.14,11.02,5.61,11.05,11.49.03,6.27-5.38,11.71-11.62,11.67-4.57-.03-12.21-6.03-10.84-11.56Z"/></g></svg>