<svg width="20" height="17" viewBox="0 0 20 17" fill="none" xmlns="http://www.w3.org/2000/svg">
<rect width="20" height="17" fill="#F5F5F5"/>
<path d="M16.4814 0H2.90847C2.1371 0 1.39732 0.330803 0.851873 0.919635C0.306428 1.50847 0 2.3071 0 3.13983V13.6059C0 14.4387 0.306428 15.2373 0.851873 15.8261C1.39732 16.415 2.1371 16.7458 2.90847 16.7458H16.4814C17.2527 16.7458 17.9925 16.415 18.538 15.8261C19.0834 15.2373 19.3898 14.4387 19.3898 13.6059V3.13983C19.3898 2.3071 19.0834 1.50847 18.538 0.919635C17.9925 0.330803 17.2527 0 16.4814 0ZM15.8318 2.09322L9.69491 7.06462L3.55803 2.09322H15.8318ZM16.4814 14.6525H2.90847C2.65135 14.6525 2.40476 14.5423 2.22294 14.346C2.04113 14.1497 1.93898 13.8835 1.93898 13.6059V3.40148L9.11322 9.21017C9.28103 9.34604 9.48515 9.41949 9.69491 9.41949C9.90468 9.41949 10.1088 9.34604 10.2766 9.21017L17.4508 3.40148V13.6059C17.4508 13.8835 17.3487 14.1497 17.1669 14.346C16.9851 14.5423 16.7385 14.6525 16.4814 14.6525Z" fill="#404231" fill-opacity="0.62"/>
</svg>
