<?xml version="1.0" encoding="UTF-8"?><svg id="Layer_2" xmlns="http://www.w3.org/2000/svg" viewBox="0 0 383.26 269.49"><defs><style>.cls-1{fill:#000;stroke-width:0px;}</style></defs><g id="Layer_1-2"><path class="cls-1" d="M383.26,240.29c-1.2,3.52-2,7.24-3.68,10.51-6.03,11.73-15.87,17.83-29.01,18.65-.99.06-1.99.03-2.99.03-104.13,0-208.27,0-312.4,0-16.69,0-29.92-9.73-33.93-25.06-.81-3.1-1.18-6.39-1.19-9.6C0,168.09-.02,101.37.03,34.65.04,14.58,14.66.03,34.81.02c104.51-.03,209.02-.02,313.53,0,17.56,0,30.37,10.33,34.29,27.45.14.6.42,1.16.64,1.74v211.09ZM39.16,22.64c1.26,1.32,2.02,2.14,2.8,2.92,46.23,46.37,92.57,92.64,138.58,139.24,6.61,6.69,15.78,6.51,22.14.07,46.02-46.58,92.36-92.86,138.58-139.23.84-.84,1.61-1.75,2.75-2.99H39.16ZM39,246.68h305.28c-32.42-32.13-64.3-63.72-96.35-95.48-.72.69-1.72,1.6-2.67,2.55-9.34,9.36-18.63,18.77-28.01,28.09-14.7,14.62-36.54,14.6-51.22,0-5.66-5.63-11.26-11.32-16.9-16.97-4.65-4.66-9.32-9.31-13.76-13.74-32.08,31.81-63.95,63.41-96.37,95.55ZM22.68,39.47v190.48c31.83-31.53,63.93-63.34,96.13-95.24-32.18-31.88-64.28-63.68-96.13-95.24ZM360.49,230.07V39.95c-31.62,31.31-63.73,63.1-96,95.04,32.09,31.79,64.14,63.53,96,95.08Z"/></g></svg>