<?xml version="1.0" encoding="UTF-8"?><svg id="Layer_2" xmlns="http://www.w3.org/2000/svg" viewBox="0 0 510.78 512"><defs><style>.cls-1{fill:#000;stroke-width:0px;}</style></defs><g id="Layer_1-2"><path class="cls-1" d="M332.78,512h-154c-3.13-.27-6.26-.71-9.39-.79-20.49-.52-40.94-1.33-60.97-6.24-42.1-10.33-73.44-34.27-92.11-73.74-11.53-24.4-15.11-50.63-15.39-77.27C.32,298.5-.29,243.04.15,187.59c.19-23.24,1.59-46.67,5-69.64C10.48,82.16,27.75,52.45,57.04,30.5,82.15,11.69,111.21,4.21,141.94,2.04c12.27-.87,24.56-1.37,36.84-2.04,51,0,102,0,153,0,11.94.66,23.89,1.29,35.83,1.99,20.9,1.23,41.37,4.84,60.55,13.46,47.06,21.17,71.86,58.88,79.58,108.88,1.36,8.83,2.05,17.77,3.04,26.66v206c-.28,1.78-.63,3.56-.82,5.36-1.08,10.07-1.59,20.24-3.28,30.21-5.43,32.13-19.16,59.99-43.83,81.87-26.74,23.72-58.93,33.18-93.77,35.54-12.09.82-24.2,1.35-36.3,2.02ZM255.88,466.75c0-.26.01-.53.02-.79,13.5,0,27.01.4,40.49-.08,28.95-1.04,58.09-.77,86.76-4.27,37.82-4.62,63.73-26.02,75.17-63.22,5.25-17.06,6.15-34.75,6.35-52.41.53-45.32,1.17-90.65.77-135.97-.24-26.95-.92-54.05-3.99-80.78-4.73-41.12-30.79-69.02-71.3-77.08-17.67-3.52-36.03-4.56-54.11-4.86-44.65-.75-89.32-.61-133.98-.46-25.64.09-51.35-.25-76.75,4.22-38.83,6.82-65.47,31.44-73.39,70.07-3.42,16.68-4.56,34.01-4.92,51.09-.88,41.15-1.2,82.32-.74,123.48.32,28.79,1.16,57.66,3.84,86.31,2.49,26.6,14.66,48.97,37.27,64.52,17.44,12,37.41,16.6,58.09,17.38,36.79,1.4,73.61,1.95,110.42,2.86Z"/><path class="cls-1" d="M256,387.58c-72.42.28-131.55-58.65-131.82-131.39-.27-72.39,58.88-131.59,131.52-131.62,72.52-.03,130.98,58.24,131.5,131.06.51,72.35-58.47,131.66-131.2,131.94ZM170.51,255.93c-.08,47.17,37.8,85.21,84.98,85.32,47.23.11,85.25-37.64,85.45-84.85.2-47.39-37.82-85.57-85.23-85.58-47.17,0-85.12,37.9-85.2,85.1Z"/><path class="cls-1" d="M423.04,119.2c.07,16.95-13.38,30.64-30.22,30.79-17.07.15-30.99-13.55-31.04-30.55-.05-16.92,13.39-30.55,30.29-30.71,17.24-.17,30.9,13.28,30.97,30.47Z"/></g></svg>